<svg width="101" height="108" viewBox="0 0 101 108" fill="none" xmlns="http://www.w3.org/2000/svg">
<path d="M100.055 34.3948C100.052 32.7025 99.3858 31.2125 98.1256 30.0829L83.056 16.5722C81.1807 14.8937 78.8184 13.1766 75.4958 13.1766C75.493 13.1766 75.493 13.1766 75.4903 13.1766C72.1649 13.1766 69.8026 14.8964 67.9273 16.5777L52.8674 30.0994C51.6071 31.2304 50.9412 32.7232 50.9412 34.4113L50.9494 51.7648H40.9471C42.7591 48.0143 44.0193 42.0913 42.6036 37.6569C41.6061 34.5365 39.4116 32.4796 36.2582 31.7064C35.8551 31.6101 35.4286 31.6762 35.0764 31.8922C34.7214 32.1096 34.471 32.459 34.3774 32.8621C34.2068 33.6051 34.0486 34.304 33.8973 34.9589C32.0371 43.1287 31.7977 44.1812 26.6576 47.5313C23.0268 49.8964 22.7695 50.2032 20.5104 53.4901C20.2806 53.8244 20.0261 54.1945 19.7399 54.6045C18.8263 55.924 17.6555 56.5183 15.9563 56.5335H15.8256V56.1633C15.8256 54.2399 14.2558 52.6756 12.3241 52.6756H4.42405C2.49512 52.6756 0.925293 54.2399 0.925293 56.1633V90.2044C0.925293 92.1278 2.49512 93.6949 4.42405 93.6949H12.3241C14.2558 93.6949 15.8256 92.1278 15.8256 90.2044V88.6194C16.5246 88.8615 17.2207 89.1216 17.9403 89.3899C21.4597 90.701 25.4496 92.187 31.3726 92.187H51.9359C52.8137 92.187 53.6474 92.0054 54.4055 91.6765C55.1485 92.0109 55.9547 92.187 56.7789 92.187C56.7816 92.187 56.7816 92.187 56.7816 92.187L94.2595 92.1746C97.4666 92.1718 100.075 89.5687 100.075 86.3726L100.055 34.3948ZM12.7272 90.2044C12.7272 90.4218 12.5429 90.6047 12.3241 90.6047H4.42405C4.20667 90.6047 4.02368 90.4204 4.02368 90.2044V56.1633C4.02368 55.946 4.20804 55.7657 4.42405 55.7657H12.3241C12.5443 55.7657 12.7272 55.9473 12.7272 56.1633V90.2044ZM31.3726 89.0968C26.0096 89.0968 22.4572 87.7747 19.0258 86.4937C17.9898 86.1085 16.9263 85.7123 15.8256 85.3614V59.6236H15.9742C18.6819 59.6002 20.8075 58.5036 22.2893 56.3628C22.5783 55.9473 22.8328 55.5745 23.0681 55.2347C25.1497 52.2064 25.1497 52.2064 28.3526 50.1165C34.5425 46.0826 34.9993 44.0793 36.9186 35.6441C36.9489 35.5189 36.9778 35.3909 37.0053 35.2643C38.2835 35.9385 39.1544 37.0405 39.651 38.5966C41.1136 43.174 38.8063 50.2225 37.0053 52.2986C36.6077 52.7554 36.5155 53.4007 36.7659 53.9524C37.0191 54.5013 37.5694 54.8563 38.1775 54.8563H55.8887C57.614 54.8563 59.0201 56.2569 59.0201 57.9767C59.0201 59.6992 57.614 61.0999 55.8887 61.0999H43.6767C42.8223 61.0999 42.1275 61.7919 42.1275 62.6435C42.1275 63.4952 42.821 64.19 43.6767 64.19H58.4478C60.1731 64.19 61.5764 65.5878 61.5764 67.3104C61.5764 69.0329 60.1731 70.4308 58.4478 70.4308H43.6767C42.8223 70.4308 42.1275 71.1242 42.1275 71.9773C42.1275 72.8303 42.821 73.5209 43.6767 73.5209H56.838C58.5661 73.5209 59.9694 74.9216 59.9694 76.6441C59.9694 78.3639 58.5661 79.7645 56.838 79.7645H43.6767C42.8223 79.7645 42.1275 80.4566 42.1275 81.311C42.1275 82.1626 42.821 82.8546 43.6767 82.8546H51.9387C53.6667 82.8546 55.0701 84.2552 55.0701 85.9778C55.0701 87.6976 53.6667 89.0982 51.9387 89.0982L31.3726 89.0968ZM94.2595 89.0844L57.3168 89.0968C57.8548 88.1778 58.1643 87.1115 58.1643 85.9764C58.1643 84.8303 57.8534 83.7572 57.3099 82.8354C60.5253 82.5932 63.0637 79.909 63.0637 76.6427C63.0637 75.1265 62.5175 73.7369 61.6094 72.6569C63.442 71.5755 64.6734 69.5819 64.6734 67.309C64.6734 64.7651 63.1297 62.5734 60.9298 61.6144C61.6755 60.5908 62.1144 59.3333 62.1144 57.9753C62.1144 54.5509 59.32 51.7648 55.8859 51.7648H54.0492L54.0409 34.4113C54.0409 33.5968 54.334 32.9392 54.9394 32.3957L70.0021 18.874C72.0658 17.0221 73.6563 16.2668 75.493 16.2668C75.493 16.2668 75.493 16.2668 75.4958 16.2668C77.3298 16.2668 78.9202 17.0221 80.984 18.8726L96.0536 32.3806C96.6603 32.924 96.9547 33.5845 96.9575 34.3962L96.9781 86.3726C96.9768 87.8668 95.7578 89.0844 94.2595 89.0844ZM84.7978 68.1758C85.0248 70.0415 84.5254 71.7433 83.3491 73.0985C81.9691 74.6904 79.6728 75.7594 77.0574 76.058V78.0227C77.0574 78.8771 76.3653 79.5691 75.5082 79.5691C74.6538 79.5691 73.959 78.8771 73.959 78.0227V76.0346C70.0887 75.5035 67.0825 73.0641 66.2102 69.5819C66.0039 68.7523 66.5088 67.9158 67.3384 67.7094C68.1708 67.503 69.0101 68.0052 69.2165 68.8348C70.0199 72.0446 73.2587 73.1137 75.7888 73.0532C77.9627 73.0022 80.0099 72.2263 81.0074 71.076C81.6128 70.3799 81.8466 69.553 81.7242 68.55C81.4339 66.1739 79.4486 64.8119 75.2811 64.1281C68.6496 63.0439 67.1059 59.6882 66.978 57.0645C66.7991 53.4309 69.3513 50.3876 73.3233 49.4892C73.5324 49.441 73.7443 49.3997 73.959 49.3667V47.358C73.959 46.5036 74.6524 45.8115 75.5082 45.8115C76.3653 45.8115 77.0601 46.5036 77.0601 47.358V49.353C79.8943 49.7712 82.6942 51.4098 84.092 54.7325C84.4208 55.5181 84.0507 56.4248 83.2624 56.7536C82.474 57.0852 81.566 56.7151 81.2344 55.9267C79.8902 52.7375 76.6391 51.9079 74.0112 52.5022C72.0259 52.9507 69.947 54.3472 70.0736 56.9159C70.1121 57.7194 70.2318 60.1698 75.782 61.0778C77.8402 61.4135 84.0989 62.4399 84.7978 68.1758ZM75.4958 33.8913C78.5378 33.8913 81.0129 31.4244 81.0129 28.3879C81.0129 25.3542 78.5405 22.8859 75.4958 22.8859C72.4538 22.8859 69.9787 25.3528 69.9787 28.3879C69.9787 31.4244 72.4538 33.8913 75.4958 33.8913ZM75.4958 25.976C76.8303 25.976 77.9145 27.0575 77.9145 28.3879C77.9145 29.7197 76.8303 30.8011 75.4958 30.8011C74.164 30.8011 73.0771 29.7197 73.0771 28.3879C73.0757 27.0589 74.1626 25.976 75.4958 25.976Z" fill="white"/>
</svg>
