<svg width="101" height="108" viewBox="0 0 101 108" fill="none" xmlns="http://www.w3.org/2000/svg">
<path d="M87.8334 43.297L93.3387 33.8762C93.7971 33.0925 93.526 32.0929 92.7327 31.6412L72.3795 20.0314C69.4348 10.8398 60.7179 4.1571 50.4516 4.1571C40.1826 4.1571 31.4657 10.8398 28.521 20.0314L8.16777 31.6412C7.37448 32.0929 7.1034 33.0925 7.56184 33.8762L13.0697 43.297L7.56184 52.7204C7.1034 53.5015 7.37448 54.5037 8.16777 54.9555L13.3235 57.8964V83.7513C13.3235 84.3374 13.6411 84.8774 14.154 85.1684L49.6211 105.396C49.8775 105.542 50.1632 105.616 50.4516 105.616C50.7373 105.616 51.023 105.542 51.2794 105.396L86.7465 85.1684C87.2594 84.8774 87.577 84.3361 87.577 83.7513V57.8964L92.7327 54.9555C93.526 54.5037 93.7971 53.5028 93.3387 52.7178L87.8334 43.297ZM50.4516 61.6368L18.2932 43.2983L29.7555 36.7618C33.4841 44.344 41.3599 49.5806 50.4516 49.5806C59.5406 49.5806 67.4164 44.344 71.145 36.7618L82.6073 43.2983L50.4516 61.6368ZM89.6433 33.6562L85.3127 41.062L72.3848 33.6878C73.0718 31.5358 73.4438 29.2442 73.4438 26.8682C73.4438 26.0135 73.3947 25.1679 73.3003 24.3382L89.6433 33.6562ZM50.4516 7.42998C61.3026 7.42998 70.1298 16.1501 70.1298 26.8682C70.1298 37.5863 61.3026 46.3065 50.4516 46.3065C39.5979 46.3065 30.7707 37.5863 30.7707 26.8682C30.7707 16.1501 39.5979 7.42998 50.4516 7.42998ZM27.6015 24.3382C27.5058 25.1692 27.4567 26.0135 27.4567 26.8682C27.4567 29.2455 27.8287 31.5358 28.5157 33.6878L15.5878 41.062L11.2572 33.6562L27.6015 24.3382ZM15.5878 45.532L48.1873 64.1221L43.8594 71.5278L11.2572 52.9378L15.5878 45.532ZM16.6376 59.785L43.6375 75.1826C43.8913 75.3262 44.177 75.3999 44.4653 75.3999C44.6088 75.3999 44.7537 75.3828 44.8945 75.3459C45.3184 75.2313 45.6812 74.9574 45.9004 74.5807L48.7932 69.6299V101.144L16.6376 82.8056V59.785ZM84.2629 82.8056L52.1073 101.144V69.6299L55.0001 74.5807C55.2193 74.9574 55.5821 75.23 56.006 75.3459C56.1495 75.3828 56.2917 75.3999 56.4352 75.3999C56.7235 75.3999 57.0092 75.3262 57.263 75.1826L84.2629 59.785V82.8056ZM57.0411 71.5291L52.7132 64.1234L85.3127 45.5333L89.6433 52.9391L57.0411 71.5291ZM44.2461 36.5221C45.1855 37.4506 46.42 37.9169 47.6545 37.9169C48.8889 37.9169 50.1234 37.4506 51.0655 36.5221C53.7218 33.8986 56.4033 31.2118 58.9958 28.6159C60.5558 27.05 62.1185 25.4866 63.6825 23.9286C65.5481 22.0676 65.5388 19.0502 63.6599 17.2037C62.751 16.3121 61.5431 15.8182 60.2621 15.8182C60.2568 15.8182 60.2502 15.8209 60.2422 15.8209C58.9559 15.8261 57.7507 16.324 56.8458 17.2275L47.6412 26.4072L44.0507 22.8631C42.1705 21.0047 39.1116 21.0047 37.2313 22.8631C36.3224 23.7613 35.8188 24.9558 35.8188 26.2294C35.8188 27.503 36.3211 28.6989 37.2313 29.5971L44.2461 36.5221ZM39.5767 25.1758C39.8703 24.8847 40.257 24.7412 40.6437 24.7412C41.0277 24.7412 41.4144 24.8847 41.7081 25.1758L46.4771 29.8855C46.7881 30.1937 47.2093 30.3636 47.6478 30.3636C47.6505 30.3636 47.6505 30.3636 47.6531 30.3636C48.0943 30.3636 48.5155 30.1871 48.8265 29.8803L59.2017 19.5283C59.4821 19.2504 59.8568 19.0937 60.2595 19.0911C60.2621 19.0911 60.2621 19.0911 60.2648 19.0911C60.6661 19.0911 61.0408 19.2452 61.3265 19.5231C61.9112 20.0999 61.9125 21.0403 61.3318 21.6211C59.7638 23.1844 58.2025 24.7504 56.6398 26.3164C54.05 28.9109 51.3738 31.5898 48.7241 34.2081C48.1355 34.7889 47.1787 34.7889 46.5927 34.2081L39.5793 27.2804C39.2963 26.9999 39.1382 26.6259 39.1382 26.2281C39.1382 25.8304 39.2896 25.4563 39.5767 25.1758Z" fill="white"/>
</svg>
