<svg width="101" height="108" viewBox="0 0 101 108" fill="none" xmlns="http://www.w3.org/2000/svg">
<path d="M37.3051 59.7781L31.7461 59.2836C30.0966 58.9728 28.8975 57.8064 28.486 56.2172C28.4583 56.1128 28.442 56.0021 28.442 55.8951V53.522C27.375 53.1282 26.2514 52.5506 25.0472 51.7793L23.4002 52.9559C21.5544 54.0153 19.6481 53.6743 18.5421 52.1808L15.053 48.2437C13.9935 46.8244 14.0917 45.0629 15.2379 43.563L16.8649 41.7474C16.422 40.7181 16.0709 39.5581 15.8331 38.3262L13.6136 37.8053C11.9011 37.4807 10.7158 36.0199 10.7158 34.1816L11.1914 28.873C11.5903 26.9391 13.0486 25.594 14.6051 25.594H17.0737C17.5682 24.4478 18.0917 23.2926 18.7183 22.2269L17.3455 20.3346C17.2826 20.2465 17.231 20.1508 17.1895 20.0502C16.5478 18.4056 16.8561 16.6592 17.9734 15.5972L22.2904 11.971C23.4996 10.8235 25.7141 11.1594 26.8453 12.2604L28.8031 14.032C29.8487 13.6004 31.0101 13.2732 32.14 12.9536L32.4206 12.8744L32.9742 10.3164C33.334 8.45171 34.9673 7.34568 36.8509 7.70302L41.9216 8.13708C41.9241 8.13708 41.9266 8.13708 41.9304 8.13708C43.6881 8.13708 45.2094 9.67467 45.2094 11.5671L45.3981 14.271C46.5117 14.8247 47.4918 15.3557 48.399 15.9043L50.5532 14.4787C51.9976 13.384 54.1241 13.8017 55.2275 14.8473L58.6537 19.2411C59.7346 20.6617 59.7346 22.4874 58.6613 23.8966C58.6122 23.9621 58.5581 24.0199 58.4977 24.074L56.6003 25.7752C57.0231 26.7767 57.359 27.8212 57.6597 28.7674L57.6899 28.8554L60.2656 29.3826C61.9906 29.7626 63.1822 31.348 63.1822 33.2404L62.7066 38.5489C62.3404 40.5231 60.8167 41.8644 59.0664 41.8644H56.6884C56.2983 42.949 55.7925 43.9971 55.1319 45.0805L56.3914 47.2296C57.3968 48.5318 57.1665 50.3916 55.7195 51.836L51.6176 55.2308C50.148 56.3254 48.3273 56.3229 46.9269 55.2635C46.864 55.2144 46.8061 55.1628 46.7545 55.1049L45.2798 53.4906C43.9989 54.0694 42.664 54.4607 41.4523 54.8143L40.9313 56.9193C40.5753 58.6104 39.1144 59.7781 37.3051 59.7781ZM31.0239 55.7076C31.1774 56.153 31.5285 56.6249 32.1073 56.7368L37.4233 57.2087C37.6561 57.2036 38.2613 57.0917 38.4199 56.3456L39.127 53.478C39.234 53.0351 39.5724 52.6803 40.0141 52.5519L40.618 52.3745C42.0952 51.948 43.624 51.5038 44.9602 50.7765C45.4824 50.4947 46.1292 50.6017 46.5305 51.0408L48.5676 53.2742C49.0319 53.5825 49.5591 53.5548 50.0259 53.2088L53.9856 49.9373C54.1907 49.7246 54.6299 49.1559 54.2537 48.6627L52.511 45.7084C52.2631 45.2856 52.2757 44.7583 52.5462 44.3507C53.4798 42.9314 54.1052 41.6203 54.5116 40.2199C54.6726 39.6713 55.1772 39.2938 55.751 39.2938H59.0664C59.571 39.2938 60.0378 38.8219 60.1536 38.1966L60.609 33.1259C60.6015 32.6729 60.3033 32.0287 59.7295 31.9028L56.4367 31.2309C55.9812 31.1378 55.6126 30.8082 55.4679 30.3703L55.2036 29.5562C54.8186 28.3521 54.4197 27.109 53.88 26.0281C53.6208 25.5098 53.7403 24.8819 54.1719 24.4956L56.667 22.2559C56.9727 21.7991 56.9488 21.2669 56.6066 20.8139L53.3188 16.5736C53.1653 16.4503 52.4556 16.2729 52.0467 16.5825L49.1338 18.5126C48.7048 18.7945 48.1512 18.7969 47.7246 18.5239C46.5318 17.7614 45.2232 17.0417 43.6064 16.2654C43.1861 16.0653 42.908 15.6564 42.8778 15.1946L42.6325 11.6589C42.6274 11.0776 42.2751 10.7089 41.8083 10.7089L36.4948 10.2535C35.7688 10.1226 35.5662 10.4989 35.4982 10.8348L34.7823 14.1717C34.6791 14.6334 34.3369 15.0021 33.8839 15.1355L32.8433 15.4337C31.5247 15.8074 30.1645 16.1924 29.1466 16.7033C28.6685 16.9436 28.0947 16.8669 27.6996 16.5095L25.0787 14.1389C24.7591 13.8281 24.1338 13.7816 24.0054 13.8936L19.6909 17.5199C19.4153 17.7853 19.3411 18.3616 19.5412 18.9731L21.3165 21.4229C21.6336 21.8621 21.6437 22.4522 21.3417 22.9001C20.5087 24.1282 19.8721 25.6066 19.1977 27.1706L19.102 27.3921C18.8994 27.8639 18.4352 28.1696 17.9193 28.1696H14.6038C14.3798 28.1696 13.8778 28.5823 13.7356 29.2542L13.2877 34.2998C13.2952 34.5351 13.4047 35.1466 14.1483 35.2888L17.2537 36.0148C17.767 36.1356 18.1571 36.5584 18.2338 37.0818C18.4742 38.7087 18.9246 40.1947 19.5361 41.385C19.7815 41.8581 19.706 42.4357 19.3512 42.8345L17.221 45.205C17.0813 45.3938 16.6497 46.0796 17.0523 46.6256L20.5427 50.5652C21.0158 51.1956 21.5883 51.0269 22.0086 50.7917L24.2696 49.1672C24.7125 48.8527 25.3052 48.8477 25.7544 49.1559C27.3549 50.2645 28.8094 50.9993 30.0714 51.3453C30.6313 51.4975 31.0214 52.0059 31.0214 52.5872V55.7076H31.0239ZM36.7615 44.0173C36.4331 44.0173 36.1009 44.0009 35.765 43.9682C35.7625 43.9682 35.7625 43.9657 35.76 43.9657C30.2199 43.3919 26.2791 38.5313 26.7899 32.8981C26.9208 30.3967 28.1664 27.9255 30.2136 26.164C32.3111 24.3584 35.0201 23.4638 37.6763 23.718C40.4092 23.9671 42.8665 25.2468 44.5878 27.3191C46.3141 29.394 47.1194 32.0488 46.8602 34.793C46.3342 40.0663 41.9052 44.0173 36.7615 44.0173ZM36.0242 41.4051C40.082 41.7876 43.8807 38.6609 44.2946 34.5427C44.4884 32.4917 43.8907 30.5074 42.6048 28.9636C41.3239 27.421 39.4869 26.4685 37.4359 26.2823C35.4731 26.091 33.4662 26.7629 31.8959 28.1143C30.381 29.4191 29.4574 31.2297 29.3643 33.0806C28.9767 37.341 31.9034 40.976 36.0242 41.4051Z" fill="white"/>
<path d="M23.822 99.3638C19.4911 99.3638 15.9668 95.8444 15.9668 91.5211C15.9668 87.1977 19.4899 83.6785 23.822 83.6785C28.1504 83.6785 31.6747 87.1977 31.6747 91.5211C31.6747 95.8444 28.1516 99.3638 23.822 99.3638ZM23.822 86.2541C20.9142 86.2541 18.5487 88.6158 18.5487 91.5211C18.5487 94.4264 20.9155 96.7881 23.822 96.7881C26.7286 96.7881 29.0941 94.4264 29.0941 91.5211C29.0941 88.6158 26.7298 86.2541 23.822 86.2541Z" fill="white"/>
<path d="M83.0109 99.3638C78.6825 99.3638 75.1582 95.8444 75.1582 91.5211C75.1582 87.1977 78.6813 83.6785 83.0109 83.6785C87.3405 83.6785 90.8636 87.1977 90.8636 91.5211C90.8636 95.8444 87.3393 99.3638 83.0109 99.3638ZM83.0109 86.2541C80.1031 86.2541 77.7376 88.6158 77.7376 91.5211C77.7376 94.4264 80.1044 96.7881 83.0109 96.7881C85.9175 96.7881 88.2842 94.4264 88.2842 91.5211C88.2842 88.6158 85.9175 86.2541 83.0109 86.2541Z" fill="white"/>
<path d="M17.3532 91.7337H8.66499C7.9503 91.7337 7.37402 91.1549 7.37402 90.4453V83.4167C7.37402 82.7046 7.9503 82.1283 8.66499 82.1283H15.7942C16.5089 82.1283 17.0852 82.7046 17.0852 83.4167C17.0852 84.1264 16.5089 84.7026 15.7942 84.7026H9.95595V89.1569H17.3532C18.0653 89.1569 18.6441 89.7331 18.6441 90.4453C18.6441 91.1549 18.0653 91.7337 17.3532 91.7337Z" fill="white"/>
<path d="M68.4493 78.502H5.45014C4.73546 78.502 4.15918 77.9258 4.15918 77.2136V43.2585C4.15918 42.5464 4.73546 41.9701 5.45014 41.9701H10.1711C10.8832 41.9701 11.462 42.5464 11.462 43.2585C11.462 43.9707 10.8832 44.5469 10.1711 44.5469H6.7411V75.9264H67.1596V44.5469H65.6144C64.8997 44.5469 64.3235 43.9707 64.3235 43.2585C64.3235 42.5464 64.8997 41.9701 65.6144 41.9701H68.4493C69.164 41.9701 69.7402 42.5464 69.7402 43.2585V77.2136C69.739 77.9258 69.1627 78.502 68.4493 78.502Z" fill="white"/>
<path d="M76.5422 91.7337H30.3847C29.6725 91.7337 29.0938 91.1549 29.0938 90.4453C29.0938 89.7331 29.6725 89.1569 30.3847 89.1569H76.5422C77.2569 89.1569 77.8332 89.7331 77.8332 90.4453C77.8319 91.1549 77.2557 91.7337 76.5422 91.7337Z" fill="white"/>
<path d="M97.0903 91.7337H89.5711C88.8589 91.7337 88.2826 91.155 88.2826 90.4453C88.2826 89.7331 88.8589 89.1569 89.5711 89.1569H95.7994V77.5546L85.4755 59.1993H68.4501C67.7355 59.1993 67.1592 58.623 67.1592 57.9108C67.1592 57.2012 67.7355 56.6249 68.4501 56.6249H86.2317C86.6985 56.6249 87.125 56.874 87.354 57.2804L98.214 76.5882C98.3209 76.7795 98.38 76.9984 98.38 77.2186V90.4453C98.3813 91.155 97.805 91.7337 97.0903 91.7337Z" fill="white"/>
<path d="M68.4556 84.7026H31.8519C31.1398 84.7026 30.5635 84.1264 30.5635 83.4167C30.5635 82.7045 31.1398 82.1283 31.8519 82.1283H67.1659V77.2274C67.1659 76.5152 67.7421 75.939 68.4568 75.939C69.169 75.939 69.7453 76.5152 69.7453 77.2274V83.4154C69.744 84.1263 69.1677 84.7026 68.4556 84.7026Z" fill="white"/>
<path d="M74.981 84.7026H68.457C67.7423 84.7026 67.166 84.1264 67.166 83.4167C67.166 82.7046 67.7423 82.1283 68.457 82.1283H74.981C75.6957 82.1283 76.2719 82.7046 76.2719 83.4167C76.2707 84.1264 75.6944 84.7026 74.981 84.7026Z" fill="white"/>
<path d="M23.8268 99.3638H5.45014C4.73546 99.3638 4.15918 98.7875 4.15918 98.0753C4.15918 97.3631 4.73546 96.7869 5.45014 96.7869H23.8268C24.5415 96.7869 25.1178 97.3631 25.1178 98.0753C25.1178 98.7875 24.5415 99.3638 23.8268 99.3638Z" fill="white"/>
</svg>
