<svg width="106" height="114" viewBox="0 0 106 114" fill="none" xmlns="http://www.w3.org/2000/svg">
<path d="M18.2663 71.302H14.9336V74.6348H18.2663V71.302Z" fill="#E6F5FC"/>
<path d="M24.9319 71.302H21.5991V74.6348H24.9319V71.302Z" fill="#E6F5FC"/>
<path d="M61.563 65.4846C59.2132 59.9098 53.7871 56.3055 47.739 56.3055H44.3881L42.4964 51.5771C46.891 49.3942 49.9265 44.8707 49.9265 39.6402V24.2174C49.9265 19.8577 46.3798 16.3111 42.0171 16.3111C38.6661 16.3111 36.5485 16.9103 34.848 17.3927C33.692 17.7173 32.7834 17.9766 31.7488 17.9766C28.7695 17.9766 27.1752 16.5522 25.1607 14.7486L22.2315 12.188L21.6338 14.9427C21.2864 16.534 21.0118 17.7749 20.7934 18.767C20.1108 21.8176 19.9303 22.6382 19.9303 23.914C19.9303 26.8584 21.1848 29.5844 23.263 31.52V36.309V37.9747V39.6418C23.263 44.8707 26.2969 49.3928 30.6915 51.5757L28.7999 56.3055H24.8558C19.1642 56.3055 13.9808 59.5685 11.4551 64.6366H5.68306L7.50339 73.2619L6.16696 76.2079C4.24499 80.4569 3.26807 85.0381 3.26807 89.6344C3.26807 94.2293 7.00584 97.9655 11.5992 97.9655H12.7156L14.1234 104.631H16.5975V107.964H19.9303V104.631H47.513L43.2761 84.5526L45.6411 85.437C46.753 85.8511 47.7769 86.5125 48.6158 87.3484L54.9263 93.6589V107.962H58.2591V96.9916L58.6868 97.4194C60.1158 98.8454 62.0135 99.6341 64.0326 99.6341C68.1996 99.6341 71.59 96.2438 71.59 92.0767C71.59 90.2321 71.2244 88.4375 70.513 86.7446L61.563 65.4846ZM26.5973 39.6433V37.9762V36.3105V33.6437L30.4791 35.3367L31.811 32.2816L27.5135 30.4066C24.9316 29.2795 23.2645 26.731 23.2645 23.9156C23.2645 23.0312 23.3889 22.4471 24.0473 19.4921C24.1186 19.1614 24.199 18.8004 24.2885 18.4105C26.1331 19.935 28.3584 21.3109 31.7488 21.3109C33.2445 21.3109 34.4642 20.9666 35.7551 20.601C37.3358 20.1535 39.1242 19.6453 42.0171 19.6453C44.5413 19.6453 46.5922 21.6993 46.5922 24.2205V39.6433C46.5922 45.1559 42.1081 49.6415 36.5955 49.6415C31.0829 49.6415 26.5973 45.1559 26.5973 39.6433ZM36.5955 52.9727C37.539 52.9727 38.4583 52.8711 39.3472 52.683L41.386 57.7785L36.9353 64.4515C36.8716 64.5456 36.8003 64.6002 36.7259 64.6351H36.4635C36.3907 64.6002 36.3179 64.5456 36.2557 64.4515L31.8034 57.7723L33.8392 52.68C34.7296 52.8696 35.6504 52.9727 36.5955 52.9727ZM24.8558 59.6383H29.0411L32.3738 64.6366H15.3142C17.4713 61.5557 21.0134 59.6383 24.8558 59.6383ZM6.60082 89.6314C6.60082 85.9194 7.32895 82.3227 8.69117 78.8929L10.6086 87.9764L19.9181 87.9688V87.9704L28.2614 87.9673C30.0984 87.9673 31.5941 89.463 31.5941 91.3C31.5941 93.1355 30.0984 94.6313 28.2614 94.6313H11.5992C8.84287 94.6282 6.60082 92.3877 6.60082 89.6314ZM16.8251 101.297L16.1227 97.964H28.2629V97.961C31.94 97.961 34.9284 94.9726 34.9284 91.297C34.9284 87.6199 31.94 84.6315 28.2629 84.6315L19.9196 84.633L13.3118 84.6376L9.79248 67.9678H36.371L43.4051 101.295L16.8251 101.297ZM64.0295 96.3015C62.8994 96.3015 61.8375 95.86 61.0411 95.0636L50.9716 84.994C49.8021 83.8245 48.364 82.8961 46.8121 82.3151L42.4631 80.6889L40.4819 71.3036H44.4897C46.2327 71.3036 47.8786 72.2334 48.7736 73.7322L51.1961 77.7688C51.6861 78.5895 52.2762 79.3449 52.9512 80.02L59.7487 86.8175L62.1061 84.4601L55.3086 77.6626C54.8292 77.1787 54.406 76.6402 54.0571 76.0546L51.6315 72.0165C51.3327 71.5175 50.9716 71.0684 50.5818 70.6498L55.3344 66.7315L53.2167 64.1618L47.7633 68.658C46.7409 68.2181 45.6304 67.9723 44.4897 67.9723H39.7796L39.4838 66.5692C39.5581 66.4781 39.6461 66.4023 39.7128 66.3037L44.1545 59.6428H47.742C52.4461 59.6428 56.6663 62.443 58.4927 66.78L67.4442 88.0386C67.9842 89.3219 68.2573 90.6796 68.2573 92.0767C68.2543 94.4037 66.3581 96.3015 64.0295 96.3015Z" fill="#E6F5FC"/>
<path d="M103.249 29.6436C103.249 17.6991 93.5297 7.97998 81.5852 7.97998C69.6438 7.97998 59.9246 17.6991 59.9246 29.6451C59.9246 32.594 60.5041 35.4398 61.6449 38.1187L56.8392 48.9422C56.3689 50.0056 56.5813 51.2374 57.3838 52.0778C57.9344 52.6618 58.6883 52.9712 59.4559 52.9712V52.9682C59.8033 52.9682 60.1522 52.9044 60.489 52.7755L71.1956 48.6525C74.3706 50.3894 77.9445 51.3056 81.5852 51.3056C93.5297 51.3071 103.249 41.588 103.249 29.6436ZM81.5852 47.9713C78.2676 47.9713 75.0198 47.0748 72.1907 45.3804L71.4929 44.9647L60.3448 49.2608L65.3022 38.0945L64.9776 37.4073C63.8338 34.9726 63.2544 32.3604 63.2544 29.6436C63.2544 19.5361 71.4778 11.3128 81.5852 11.3128V11.3097C91.6926 11.3097 99.916 19.5331 99.916 29.6405C99.916 39.748 91.6926 47.9713 81.5852 47.9713Z" fill="#E6F5FC"/>
<path d="M78.2705 57.78C79.3688 57.9059 80.4822 57.9712 81.5851 57.9712V54.6384C80.6127 54.6384 79.6282 54.5837 78.6558 54.47L78.2705 57.78Z" fill="#E6F5FC"/>
<path d="M84.8423 54.429L85.2716 57.7314C91.5063 56.9229 97.3723 53.9967 101.794 49.4944L99.4187 47.1582C95.5156 51.1326 90.3382 53.7145 84.8423 54.429Z" fill="#E6F5FC"/>
<path d="M64.0463 11.8374L61.7072 9.46045C57.2276 13.8733 54.3136 19.7256 53.5005 25.9345L56.8029 26.3684C57.5204 20.8922 60.0932 15.7299 64.0463 11.8374Z" fill="#E6F5FC"/>
<path d="M56.7544 32.5242C56.6467 31.5807 56.5906 30.6114 56.5906 29.6436H53.2578C53.2578 30.7373 53.32 31.8355 53.4444 32.9049L56.7544 32.5242Z" fill="#E6F5FC"/>
<path d="M93.2535 27.9763H69.9243V31.309H93.2535V27.9763Z" fill="#E6F5FC"/>
<path d="M86.5865 21.3093H69.9243V24.6421H86.5865V21.3093Z" fill="#E6F5FC"/>
<path d="M86.5865 34.645H69.9243V37.9762H86.5865V34.645Z" fill="#E6F5FC"/>
</svg>
