<svg width="106" height="114" viewBox="0 0 106 114" fill="none" xmlns="http://www.w3.org/2000/svg">
<path d="M25.7812 74.7954H18.4351C17.4853 74.7954 16.7119 75.5612 16.7119 76.5049C16.7119 77.4471 17.4853 78.2115 18.4351 78.2115H24.0595V78.3261C24.0595 79.2683 24.8315 80.0327 25.7812 80.0327C26.7295 80.0327 27.5014 79.2669 27.5014 78.3261V76.5049C27.5014 75.5612 26.7295 74.7954 25.7812 74.7954Z" fill="#E6F5FC"/>
<path d="M102.933 24.7228C103.714 24.539 104.259 23.8555 104.259 23.0588V18.9401C104.259 17.9979 103.487 17.2335 102.537 17.2335H82.0296C81.2681 14.6891 78.93 12.9355 76.2452 12.9355C72.9544 12.9355 70.2992 15.4902 70.2089 18.6755L57.831 67.8074H57.3509V20.4409C57.3509 19.4986 56.579 18.7343 55.6292 18.7343H18.2273C17.5754 18.7343 16.9857 19.0944 16.6864 19.675L9.8529 33.2071H9.64102C5.28342 33.2071 1.73926 36.7276 1.73926 41.052V87.369C1.73926 91.6935 5.2849 95.2139 9.64102 95.2139H17.2479C18.5044 98.6197 21.7552 100.889 25.4223 100.889C29.0895 100.889 32.3388 98.6197 33.5967 95.2139H72.3988C73.6552 98.6197 76.906 100.889 80.5732 100.889C84.2403 100.889 87.4896 98.6197 88.7476 95.2139H96.3545C100.712 95.2139 104.256 91.6935 104.256 87.369V69.5154C104.256 68.5732 103.484 67.8089 102.535 67.8089H82.2934V29.5412L93.3274 26.9643V45.5676H92.2725C91.3227 45.5676 90.5508 46.3334 90.5508 47.2741C90.5508 48.2178 91.3227 48.9837 92.2725 48.9837H96.8301L98.6125 52.0484L96.8301 55.1118H93.2652L90.9849 51.1944C90.527 50.408 89.4232 50.1126 88.6364 50.5697C88.2393 50.7946 87.9548 51.1621 87.8348 51.6031C87.7148 52.044 87.7756 52.5056 88.0067 52.9025L90.7819 57.6738C91.0856 58.2015 91.6576 58.5293 92.2725 58.5293H97.8243C98.4377 58.5293 99.0096 58.2015 99.3163 57.6752L102.093 52.901C102.397 52.3762 102.397 51.7206 102.093 51.1944L99.3163 46.4216C99.0096 45.8953 98.4377 45.5676 97.8243 45.5676H96.7693V26.1618L102.933 24.7228ZM73.5871 19.3546C73.6211 19.2164 73.6389 19.0812 73.6389 18.9401C73.6389 17.5128 74.8094 16.353 76.2467 16.353C77.6854 16.353 78.8544 17.5128 78.8544 18.9401V67.8074H61.3811L73.5871 19.3546ZM80.5761 87.0088C83.4832 87.0088 85.8479 89.3563 85.8479 92.2403C85.8479 95.1257 83.4832 97.4732 80.5761 97.4732C77.6706 97.4732 75.3073 95.1257 75.3073 92.2403C75.3058 89.3563 77.6706 87.0088 80.5761 87.0088ZM25.4253 97.4732C22.5183 97.4732 20.1535 95.1257 20.1535 92.2403C20.1535 89.3563 22.5183 87.0088 25.4253 87.0088C28.3309 87.0088 30.6941 89.3563 30.6941 92.2403C30.6941 95.1257 28.3309 97.4732 25.4253 97.4732ZM13.7053 33.2071L19.2912 22.1489H45.7227L39.5886 33.2071H13.7053ZM96.5767 77.7146V85.7977C96.5767 86.5062 97.0257 87.15 97.6954 87.3969L100.665 88.4979C100.155 90.4264 98.3888 91.7979 96.3574 91.7979H89.2736C89.0395 87.2397 85.2123 83.5928 80.5761 83.5928C75.94 83.5928 72.1128 87.2397 71.8787 91.7979H34.1227C33.8871 87.2412 30.06 83.5928 25.4253 83.5928C20.7891 83.5928 16.962 87.2397 16.7279 91.7979H9.64398C7.52223 91.7979 5.73237 90.3367 5.29824 88.2862L9.23652 86.0226C9.76844 85.7212 10.0989 85.1539 10.0989 84.5453V77.7146C10.0989 76.7709 9.32691 76.0051 8.37716 76.0051H5.18266V71.8629H23.268C25.6016 71.8629 27.4996 69.9784 27.4996 67.6618V45.9821C27.4996 43.6656 25.6016 41.7811 23.268 41.7811H5.18266V41.0535C5.18266 38.612 7.18441 36.6246 9.6425 36.6246H40.6035C41.2318 36.6246 41.8096 36.2866 42.1134 35.7398L49.6492 22.1489H53.909V69.5154C53.909 70.4591 54.6809 71.2249 55.6292 71.2249H100.814V76.0065H98.294C97.3487 76.0051 96.5767 76.7724 96.5767 77.7146ZM24.0592 45.9806V67.6604C24.0592 68.0926 23.7051 68.4439 23.268 68.4439H5.18266V45.1943H23.268C23.7051 45.1943 24.0592 45.547 24.0592 45.9806ZM6.65693 79.4212V83.559L5.18266 84.4042V79.4197L6.65693 79.4212ZM100.817 79.4212V84.9069L100.019 84.61V79.4212H100.817ZM100.817 20.6496V21.7079L82.2964 26.028V20.6496H100.817Z" fill="#E6F5FC"/>
</svg>
