<svg width="106" height="114" viewBox="0 0 106 114" fill="none" xmlns="http://www.w3.org/2000/svg">
<path d="M17.4834 39.455H35.5236C35.4857 39.7546 35.4462 40.0871 35.4232 40.4197C35.3606 41.2412 35.6454 42.0577 36.2019 42.6586C36.755 43.2596 37.5469 43.6037 38.3717 43.6037H68.8629C69.6844 43.6037 70.4746 43.2596 71.0327 42.6586C71.5875 42.0545 71.8723 41.2396 71.8114 40.4197C71.7851 40.0789 71.7455 39.7497 71.7077 39.455H89.7495C90.5332 39.455 91.2855 39.1258 91.8156 38.5528C92.3457 37.9799 92.6174 37.2028 92.5598 36.4159C92.107 30.3772 88.225 25.0005 82.6326 22.6249C84.7563 20.7892 85.968 18.1502 85.968 15.335C85.968 10.0191 81.653 5.69751 76.3503 5.69751C71.0475 5.69751 66.7342 10.0207 66.7342 15.335C66.7342 18.1485 67.9442 20.786 70.0663 22.6249C67.8092 23.5797 65.7744 25.0514 64.1528 26.8986C62.9543 26.0409 61.6554 25.333 60.284 24.7865C62.8111 22.7599 64.3076 19.6582 64.3076 16.415C64.3076 10.5047 59.5102 5.69751 53.6148 5.69751C47.7177 5.69751 42.9204 10.5047 42.9204 16.415C42.9204 19.6565 44.4186 22.7599 46.9473 24.7865C45.5743 25.333 44.2737 26.0425 43.0768 26.8986C41.4569 25.0514 39.4204 23.5797 37.1617 22.6249C39.2854 20.7843 40.4971 18.1469 40.4971 15.335C40.4971 10.0191 36.1821 5.69751 30.8777 5.69751C25.575 5.69751 21.2617 10.0207 21.2617 15.335C21.2617 18.1518 22.4717 20.7876 24.5938 22.6249C19.0013 25.0005 15.1193 30.3772 14.6682 36.4159C14.6089 37.2028 14.8789 37.9783 15.4107 38.5495C15.9441 39.1257 16.6981 39.455 17.4834 39.455ZM30.8794 24.9758H30.8843C34.5012 24.9758 37.9404 26.5414 40.3505 29.2792C38.5874 31.1577 37.2176 33.4131 36.378 35.8249H18.3773C19.2713 29.6233 24.6053 24.9758 30.8794 24.9758ZM30.8794 21.3473C27.5752 21.3457 24.8852 18.649 24.8852 15.3367C24.8852 12.021 27.5752 9.32603 30.881 9.32603C34.1868 9.32603 36.8768 12.0227 36.8768 15.3367C36.8768 18.649 34.1884 21.3457 30.8794 21.3473ZM39.1026 39.9769C40.0131 32.6393 46.213 27.1324 53.6165 27.1324C61.0199 27.1324 67.2199 32.6377 68.1286 39.9769H39.1026ZM88.8539 35.8249H70.8549C70.0186 33.4148 68.6489 31.1593 66.8857 29.2792C69.2942 26.5414 72.7317 24.9758 76.3519 24.9758C82.626 24.9758 87.96 29.6233 88.8539 35.8249ZM76.3503 9.32432C79.6577 9.32432 82.3494 12.021 82.3494 15.335C82.3494 18.649 79.6593 21.344 76.347 21.3456C73.0428 21.344 70.3528 18.6473 70.3528 15.335C70.3544 12.021 73.0445 9.32432 76.3503 9.32432ZM46.5439 16.415C46.5439 12.505 49.7164 9.32432 53.6165 9.32432C57.5165 9.32432 60.689 12.505 60.689 16.415C60.689 20.3233 57.5165 23.504 53.6165 23.504C49.7164 23.504 46.5439 20.3233 46.5439 16.415Z" fill="#E6F5FC"/>
<path d="M103.628 82.6411L96.7214 47.8892C96.5354 46.9541 95.9938 46.1425 95.197 45.6091C94.41 45.0806 93.4453 44.8881 92.5102 45.0708L83.6234 46.8471C82.6883 47.0332 81.88 47.5748 81.3483 48.3733C80.8149 49.1701 80.6255 50.1266 80.8116 51.065L80.8527 51.2806C78.6352 52.0001 76.6069 52.3474 74.6544 52.3474C70.2127 52.3474 65.8895 50.558 61.4379 46.8752C59.538 45.3046 57.3336 44.4731 55.065 44.4731C52.9281 44.4731 50.9081 45.2173 49.2223 46.6298L45.691 49.5801H26.3963C26.0868 48.2087 24.9871 47.1221 23.6075 46.8488L14.7191 45.0724C13.7922 44.893 12.8225 45.0807 12.0323 45.6108C11.2355 46.1459 10.6955 46.9559 10.5111 47.891L3.60158 82.6427C3.4139 83.5794 3.60487 84.5343 4.13827 85.3344C4.67003 86.1329 5.47672 86.6762 6.41347 86.8638L15.3019 88.637C16.2106 88.8246 17.1918 88.6353 17.9886 88.1019C18.7179 87.6146 19.2332 86.8935 19.4588 86.0556L40.2236 106.868C41.5225 108.172 43.2512 108.89 45.0934 108.89C46.9356 108.89 48.6658 108.172 49.9648 106.868C50.7748 106.056 51.3674 105.059 51.6901 103.967L54.316 106.598C55.6165 107.9 57.3452 108.618 59.189 108.618C61.0312 108.618 62.7615 107.9 64.0604 106.598C64.8737 105.783 65.468 104.779 65.7923 103.676C67.0353 104.753 68.619 105.344 70.2867 105.344C72.1323 105.344 73.8625 104.626 75.1582 103.327C76.5262 101.959 77.2506 100.079 77.1683 98.1394C77.2687 98.1427 77.3691 98.146 77.4712 98.146C79.3167 98.146 81.047 97.4282 82.341 96.1276C84.0877 94.3792 84.761 91.7172 84.0745 89.3152L87.6898 85.69L87.7162 85.8234C87.9022 86.7585 88.4438 87.5701 89.2406 88.1035C90.0342 88.6353 91.0252 88.8229 91.9274 88.6402L100.816 86.8655C101.749 86.6794 102.558 86.1362 103.091 85.3361C103.626 84.5344 103.815 83.5795 103.628 82.6411ZM22.8617 50.3966L15.9703 85.0677L7.16253 83.3128L14.0408 48.6367L22.8617 50.3966ZM57.4785 78.4002C57.1361 78.7426 56.9484 79.1987 56.9484 79.6827C56.9484 80.1683 57.1361 80.6243 57.4785 80.9651L72.6014 96.1227C73.8757 97.4002 73.8757 99.4794 72.6014 100.755C71.9857 101.371 71.1642 101.71 70.29 101.71C69.4159 101.71 68.5943 101.371 67.9786 100.757L51.9996 84.7418C51.3164 84.0536 50.1228 84.0553 49.4396 84.7402C48.7317 85.4481 48.7317 86.5988 49.4396 87.3051L61.507 99.4004C62.7763 100.678 62.773 102.754 61.5004 104.03C60.8831 104.647 60.0632 104.988 59.189 104.988C58.3148 104.988 57.495 104.647 56.8793 104.03L43.9607 91.08C43.2758 90.3984 42.0839 90.3968 41.3974 91.0817C40.6961 91.7913 40.6961 92.9421 41.3974 93.6483L47.3422 99.6046L47.4031 99.6688C48.0172 100.281 48.3547 101.103 48.3547 101.982C48.3547 102.859 48.0156 103.681 47.4031 104.298C46.7858 104.916 45.9643 105.256 45.0917 105.256C44.2192 105.256 43.3977 104.916 42.7803 104.298L20.3132 81.78L25.9913 53.2069H41.3563L37.2998 56.6015C35.2452 58.3202 34.3644 60.6695 34.8813 63.0451L38.4983 79.6514C38.602 80.1354 38.8917 80.5437 39.3099 80.8039C39.7215 81.064 40.2318 81.1463 40.6994 81.0277C45.1164 79.9379 48.0732 77.7977 49.7392 74.4853C51.1699 71.6389 51.4514 68.4285 51.7494 65.0305C51.7839 64.6255 51.8185 64.2206 51.8514 63.8403C51.8745 63.8387 51.9008 63.8386 51.9305 63.8386C52.8293 63.8386 55.2725 64.6766 58.7149 67.8128L80.4576 89.9194C80.9959 91.1509 80.726 92.6111 79.7826 93.5594C79.1686 94.1751 78.347 94.5126 77.4712 94.5126C76.5954 94.5126 75.7739 94.1751 75.1598 93.561L60.0385 78.4002C59.3536 77.717 58.1617 77.7186 57.4785 78.4002ZM51.9156 60.2283C51.3806 60.2283 50.8867 60.3123 50.4439 60.4753C49.2239 60.9313 48.4304 61.9733 48.2691 63.32L48.2625 63.3744C48.2213 63.8238 48.1818 64.27 48.144 64.7161C47.627 70.6033 47.2517 74.8787 41.623 76.9613L38.4225 62.273C38.1213 60.8868 39.0448 59.8677 39.6227 59.3837L51.5419 49.4088C52.5511 48.5643 53.771 48.1198 55.065 48.1198C56.499 48.1198 57.9065 48.6548 59.133 49.6706C64.2662 53.9148 69.3385 55.9792 74.6396 55.9792C76.8604 55.9792 79.129 55.6121 81.5656 54.8581L86.842 81.403L81.9722 86.286L61.265 65.2298C61.2403 65.2067 61.2173 65.1837 61.1959 65.164C57.709 61.9817 54.4131 60.2283 51.9156 60.2283ZM100.072 83.3095L91.2639 85.0677L84.3709 50.3933L93.1786 48.6334L100.072 83.3095Z" fill="#E6F5FC"/>
</svg>
