<svg width="165" height="163" viewBox="0 0 165 163" fill="none" xmlns="http://www.w3.org/2000/svg">
<path d="M-8.99077e-06 109.879L74.8524 159.155C81.1263 163.285 89.2876 163.159 95.4304 158.836L165 109.879L165 18C165 8.05888 156.941 3.16829e-07 147 2.22984e-06L18 2.70538e-05C8.05885 2.89668e-05 -2.53027e-05 8.0589 -2.37101e-05 18L-8.99077e-06 109.879Z" fill="#005494"/>
<path d="M-8.99077e-06 109.879L74.8524 159.155C81.1263 163.285 89.2876 163.159 95.4304 158.836L165 109.879L165 18C165 8.05888 156.941 3.16829e-07 147 2.22984e-06L18 2.70538e-05C8.05885 2.89668e-05 -2.53027e-05 8.0589 -2.37101e-05 18L-8.99077e-06 109.879Z" stroke="white"/>
</svg>
