<svg width="141" height="141" viewBox="0 0 141 141" fill="none" xmlns="http://www.w3.org/2000/svg">
<path d="M73.414 0L0 73.698V140.864L141.006 0H73.414Z" fill="#FFCB2A"/>
<path d="M25.9859 89.6021C25.7019 89.6021 25.4179 89.7441 24.9919 90.1701L20.1639 94.9981L17.3239 92.1581L21.5839 87.8981C21.8679 87.6141 22.0099 87.3301 22.0099 86.9041C22.0099 86.6201 21.8679 86.3361 21.7259 86.0521C21.4419 85.7681 21.2999 85.7681 20.8739 85.7681C20.5899 85.7681 20.3059 85.9101 20.0219 86.1941L15.7619 90.4541L13.3479 88.0401L18.0339 83.3541C18.3179 83.0701 18.6019 82.6441 18.6019 82.3601C18.6019 82.0761 18.4599 81.7921 18.3179 81.5081C18.0339 81.2241 17.7499 81.2241 17.4659 81.2241C17.1819 81.2241 16.8979 81.3661 16.4719 81.7921L11.0759 87.1881C10.7919 87.4721 10.6499 87.7561 10.5079 88.0401C10.3659 88.3241 10.3659 88.6081 10.5079 88.8921C10.6499 89.1761 10.7919 89.4601 11.0759 89.7441L18.7439 97.4121C19.1699 97.8381 19.5959 98.1221 20.0219 98.1221C20.4479 98.1221 20.8739 97.8381 21.2999 97.4121L26.8379 91.8741C27.1219 91.5901 27.2639 91.1641 27.4059 90.8801C27.4059 90.5961 27.2639 90.3121 27.1219 90.0281C26.5539 89.7441 26.2699 89.6021 25.9859 89.6021Z" fill="#63625F"/>
<path d="M35.6422 81.2241C35.5002 81.0821 35.3582 80.9401 35.0742 80.9401C34.7902 80.7981 34.3642 80.7981 33.9382 80.6561L28.4002 79.3781L27.4062 74.4081C27.2642 73.5561 26.9802 72.9881 26.6962 72.5621C26.5542 72.4201 26.2702 72.2781 25.8442 72.2781C25.5602 72.2781 25.2762 72.4201 24.9922 72.7041C24.8502 72.8461 24.7082 72.9881 24.7082 73.1301C24.7082 73.2721 24.5662 73.4141 24.5662 73.6981C24.5662 73.8401 24.5662 74.1241 24.7082 74.2661C24.7082 74.5501 24.8502 74.8341 24.8502 75.1181L25.7022 79.2361L21.7262 78.2421C21.0162 78.1001 20.4482 77.9581 20.1642 77.9581C19.8802 77.9581 19.5962 78.1001 19.3122 78.3841C19.0282 78.6681 18.8862 78.9521 18.8862 79.2361C18.8862 79.5201 19.0282 79.8041 19.1702 80.0881C19.3122 80.2301 19.5962 80.3721 19.8802 80.5141C20.1642 80.6561 20.5902 80.7981 21.0162 80.7981L25.8442 81.7921L26.8382 87.3301C26.9802 88.1821 27.2642 88.7501 27.5482 89.0341C27.8322 89.3181 28.1162 89.4601 28.4002 89.4601C28.6842 89.4601 28.9682 89.3181 29.2522 89.0341C29.3942 88.8921 29.5362 88.7501 29.5362 88.6081C29.5362 88.4661 29.6782 88.3241 29.6782 88.0401C29.6782 87.8981 29.6782 87.7561 29.6782 87.6141C29.6782 87.4721 29.5362 87.1881 29.5362 86.7621L28.5422 81.9341L33.0862 82.9281C33.6542 83.0701 34.0802 83.0701 34.2222 83.2121C34.3642 83.2121 34.6482 83.2121 34.7902 83.2121C35.0742 83.2121 35.2162 83.0701 35.3582 82.7861C35.5002 82.6441 35.6422 82.3601 35.7842 82.2181C35.7842 81.9341 35.9262 81.7921 35.7842 81.5081C35.9262 81.6501 35.9262 81.5081 35.6422 81.2241Z" fill="#63625F"/>
<path d="M42.884 69.154C42.6 68.87 42.316 68.728 42.032 68.728C41.748 68.728 41.322 68.87 41.18 69.154C40.896 69.438 40.754 69.722 40.754 70.006C40.754 70.29 40.896 70.574 41.038 71C41.464 71.71 41.464 72.562 41.464 73.272C41.322 73.982 41.038 74.55 40.47 75.26C39.902 75.828 39.334 76.112 38.624 76.254C37.914 76.396 37.204 76.396 36.494 75.97C35.784 75.686 34.932 75.118 34.222 74.266C33.086 73.13 32.376 71.994 32.234 70.716C32.092 69.58 32.376 68.586 33.228 67.734C33.796 67.166 34.364 66.882 34.932 66.74C35.5 66.598 36.21 66.74 37.062 66.882C37.488 67.024 37.914 67.024 38.198 67.024C38.482 67.024 38.766 66.882 38.908 66.598C39.192 66.314 39.192 66.03 39.192 65.746C39.192 65.462 39.05 65.178 38.766 64.894C38.34 64.468 37.772 64.184 36.92 64.042C36.068 63.9 35.216 64.042 34.222 64.326C33.228 64.61 32.376 65.178 31.524 66.03C30.814 66.74 30.388 67.45 29.962 68.302C29.678 69.154 29.394 70.006 29.394 70.858C29.394 71.71 29.678 72.704 29.962 73.556C30.388 74.408 30.956 75.26 31.808 76.112C32.376 76.68 32.802 77.106 33.37 77.39C33.938 77.674 34.506 77.958 35.074 78.242C35.642 78.384 36.21 78.526 36.778 78.668C37.488 78.668 38.056 78.668 38.624 78.526C39.192 78.384 39.76 78.1 40.328 77.816C40.896 77.532 41.464 77.106 41.89 76.538C42.6 75.828 43.168 75.118 43.452 74.408C43.736 73.698 43.878 72.988 43.878 72.278C43.878 71.568 43.736 71 43.452 70.432C43.452 69.864 43.168 69.438 42.884 69.154Z" fill="#63625F"/>
<path d="M53.3922 62.054C53.1082 62.054 52.6822 62.196 52.3982 62.622L48.2802 66.74L40.8962 59.356C40.4702 58.93 40.0442 58.788 39.6182 58.646C39.1922 58.646 38.9082 58.788 38.6242 59.072C38.3402 59.356 38.1982 59.782 38.1982 60.066C38.1982 60.492 38.4822 60.918 38.9082 61.344L46.7182 69.154C47.1442 69.58 47.5702 69.864 47.9962 69.864C48.4222 69.864 48.8482 69.58 49.2742 69.154L54.2442 64.184C54.5282 63.9 54.8122 63.474 54.8122 63.19C54.8122 62.906 54.6702 62.622 54.5282 62.338C54.1022 62.196 53.8182 62.054 53.3922 62.054Z" fill="#63625F"/>
<path d="M60.2078 49.842L55.3798 45.014C54.9538 44.588 54.5278 44.446 54.1018 44.304C53.6758 44.304 53.3918 44.446 53.1078 44.73C52.6818 45.156 52.5398 45.44 52.5398 45.866C52.5398 46.292 52.8238 46.718 53.2498 47.144L58.2198 52.114C59.0718 52.966 59.4978 53.818 59.6398 54.528C59.7818 55.238 59.3558 56.09 58.6458 56.8C58.0778 57.368 57.5098 57.794 56.9418 57.794C56.3738 57.936 55.9478 57.794 55.3798 57.652C54.8118 57.368 54.3858 56.942 53.8178 56.374L48.8478 51.404C48.4218 50.978 47.9958 50.836 47.5698 50.694C47.1438 50.694 46.8598 50.836 46.4338 51.12C46.1498 51.404 46.0078 51.83 46.0078 52.114C46.0078 52.54 46.2918 52.966 46.7178 53.392L51.5458 58.22C52.2558 58.93 53.1078 59.498 53.8178 59.924C54.5278 60.35 55.2378 60.492 55.9478 60.492C56.6578 60.492 57.3678 60.35 58.0778 59.924C58.7878 59.498 59.4978 58.93 60.3498 58.22C61.0598 57.51 61.4858 56.942 61.7698 56.232C62.0538 55.522 62.3378 54.954 62.3378 54.244C62.3378 53.392 62.1958 52.682 61.7698 51.972C61.4858 51.404 60.9178 50.694 60.2078 49.842Z" fill="#63625F"/>
<path d="M71.1418 41.18C70.5738 40.612 70.1478 40.328 69.5798 40.186C69.0118 40.044 68.4438 40.044 67.8758 40.044C67.3078 40.186 66.7398 40.328 66.1718 40.612C65.6038 40.896 64.8938 41.322 64.1838 41.748C63.6158 42.032 63.1898 42.316 62.9058 42.458C62.6218 42.6 62.4798 42.6 62.1958 42.742C61.9118 42.884 61.6278 42.884 61.3438 42.884C61.0598 42.884 60.9178 42.742 60.6338 42.458C60.3498 42.174 60.2078 41.748 60.3498 41.18C60.4918 40.612 60.7758 40.044 61.3438 39.476C61.9118 38.908 62.4798 38.624 62.9058 38.482C63.3318 38.34 63.8998 38.482 64.4678 38.766C64.8938 38.908 65.1778 38.908 65.4618 38.908C65.7458 38.908 65.8878 38.766 66.1718 38.482C66.4558 38.198 66.5978 37.914 66.5978 37.488C66.5978 37.062 66.4558 36.778 66.1718 36.636C65.8878 36.352 65.6038 36.21 65.1778 36.068C64.7518 35.926 64.3258 35.926 63.7578 35.926C63.1898 35.926 62.6218 36.21 62.0538 36.494C61.4858 36.778 60.7758 37.204 60.2078 37.914C59.4978 38.624 58.9298 39.476 58.5038 40.328C58.2198 41.18 58.0778 41.89 58.2198 42.6C58.3618 43.31 58.6458 44.02 59.2138 44.588C59.7818 45.156 60.4918 45.582 61.0598 45.582C61.6278 45.582 62.4798 45.582 63.1898 45.298C63.8998 45.014 64.7518 44.588 65.6038 44.02C66.3138 43.594 66.8818 43.31 67.3078 43.026C67.7338 42.742 68.1598 42.742 68.5858 42.742C69.0118 42.742 69.4378 42.884 69.7218 43.31C70.1478 43.736 70.2898 44.304 70.1478 45.014C70.0058 45.724 69.7218 46.292 69.1538 46.86C68.7278 47.286 68.3018 47.57 67.8758 47.712C67.4498 47.854 67.0238 47.854 66.7398 47.854C66.3138 47.854 66.0298 47.712 65.4618 47.428C65.0358 47.286 64.7518 47.144 64.4678 47.144C64.1838 47.144 63.8998 47.286 63.7578 47.428C63.4738 47.712 63.3318 47.996 63.3318 48.422C63.3318 48.706 63.4738 49.132 63.7578 49.274C64.1838 49.7 64.7518 49.984 65.4618 50.126C66.1718 50.268 66.8818 50.268 67.7338 50.126C68.7278 49.842 69.7218 49.274 70.7158 48.28C71.5678 47.428 72.1358 46.576 72.4198 45.724C72.7038 44.872 72.8458 44.02 72.7038 43.168C72.2778 42.458 71.8518 41.748 71.1418 41.18Z" fill="#63625F"/>
<path d="M69.012 31.24C68.586 30.814 68.16 30.672 67.734 30.53C67.308 30.53 67.024 30.672 66.74 30.956C66.456 31.24 66.314 31.666 66.314 31.95C66.314 32.376 66.598 32.802 67.024 33.228L74.976 41.18C75.402 41.606 75.828 41.748 76.254 41.89C76.68 41.89 76.964 41.748 77.248 41.464C77.532 41.18 77.674 40.754 77.674 40.47C77.674 40.044 77.39 39.618 76.964 39.192L69.012 31.24Z" fill="#63625F"/>
<path d="M84.6319 31.8081C84.4899 31.5241 84.3479 31.0981 84.2059 30.8141L80.0879 21.7261C79.9459 21.5841 79.9459 21.4421 79.8039 21.3001C79.6619 21.1581 79.6619 21.0161 79.5199 20.8741C79.3779 20.7321 79.3779 20.5901 79.2359 20.4481C79.0939 20.3061 78.9519 20.1641 78.6679 20.1641C78.3839 20.1641 78.2419 20.1641 77.9579 20.1641C77.6739 20.1641 77.5319 20.3061 77.3899 20.4481C77.1059 20.7321 76.9639 20.8741 76.9639 21.1581C76.9639 21.4421 76.9639 21.5841 77.1059 21.8681C77.2479 22.0101 77.3899 22.4361 77.5319 22.8621L82.0759 31.9501L72.9879 27.4061C72.4199 27.1221 71.8519 26.8381 71.5679 26.8381C71.1419 26.8381 70.8579 26.9801 70.4319 27.2641C70.1479 27.5481 70.0059 27.8321 70.0059 28.2581C70.0059 28.6841 70.1479 28.9681 70.4319 29.2521C70.5739 29.3941 70.7159 29.3941 70.8579 29.5361C70.9999 29.6781 71.1419 29.6781 71.2839 29.8201C71.4259 29.9621 71.5679 29.9621 71.7099 30.1041L80.6559 34.2221C80.9399 34.3641 81.3659 34.5061 81.6499 34.6481C81.9339 34.7901 82.2179 34.9321 82.5019 34.9321C82.7859 34.9321 83.0699 34.9321 83.3539 34.9321C83.6379 34.7901 83.9219 34.6481 84.2059 34.3641C84.4899 34.0801 84.6319 33.7961 84.7739 33.5121C84.9159 33.2281 84.9159 32.9441 84.7739 32.6601C84.9159 32.3761 84.7739 32.0921 84.6319 31.8081Z" fill="#63625F"/>
<path d="M96.2758 19.312C95.9918 19.312 95.7078 19.454 95.2818 19.88L90.4538 24.708L87.6138 21.868L91.8738 17.608C92.1578 17.324 92.2998 17.04 92.2998 16.614C92.2998 16.33 92.1578 16.046 92.0158 15.762C91.7318 15.478 91.5898 15.478 91.1638 15.478C90.8798 15.478 90.5958 15.62 90.3118 15.904L86.0518 20.164L83.4958 17.608L88.1818 12.922C88.4658 12.638 88.7498 12.212 88.7498 11.928C88.7498 11.644 88.6078 11.36 88.4658 11.076C88.1818 10.792 87.8978 10.792 87.6138 10.792C87.3298 10.792 87.0458 10.934 86.6198 11.36L81.2238 16.756C80.9398 17.04 80.7978 17.324 80.6558 17.608C80.5138 17.892 80.5138 18.176 80.6558 18.46C80.7978 18.744 80.9398 19.028 81.2238 19.312L88.8918 26.98C89.3178 27.406 89.7438 27.69 90.1698 27.69C90.5958 27.69 91.0218 27.406 91.4478 26.98L96.9858 21.442C97.2698 21.158 97.4118 20.732 97.5538 20.448C97.5538 20.164 97.4118 19.88 97.2698 19.596C96.9858 19.312 96.7018 19.17 96.2758 19.312Z" fill="#63625F"/>
</svg>
