<svg width="53" height="55" viewBox="0 0 53 55" fill="none" xmlns="http://www.w3.org/2000/svg">
<path d="M38.3624 15.6013V5.94728C38.3624 5.57466 38.1177 5.24441 37.7619 5.13486L26.7614 1.7476C26.6014 1.69562 26.4231 1.69562 26.2632 1.7476L15.2626 5.13486C14.9068 5.24441 14.6621 5.57546 14.6621 5.94728V15.6013C14.6621 22.0631 18.4524 26.3739 26.264 28.7792C26.3487 28.8048 26.4239 28.8136 26.5087 28.8136C26.5934 28.8136 26.6774 28.8048 26.755 28.7792C34.5554 26.3739 38.3552 22.0631 38.3552 15.6013H38.3624ZM26.5159 27.0768C19.5935 24.8834 16.3621 21.2339 16.3621 15.6013V6.57419L26.5159 3.44926L36.6696 6.57419V15.6013C36.6704 21.2339 33.4375 24.8834 26.5159 27.0768Z" fill="#005494"/>
<path d="M31.8391 10.4268L23.9779 18.2945L21.1944 15.5077C20.8633 15.1783 20.3316 15.1783 20.0005 15.5077C19.6711 15.8388 19.6711 16.3721 20.0005 16.7032L23.3862 20.0904C23.5549 20.2592 23.766 20.3351 23.9867 20.3351C24.2058 20.3351 24.4185 20.2504 24.5872 20.0904L33.0489 11.6207C33.3784 11.2897 33.3784 10.7579 33.0489 10.4268C32.7179 10.0958 32.1861 10.0958 31.8551 10.4268H31.8391Z" fill="#005494"/>
<path d="M46.4019 15.263C44.3037 15.263 42.5933 16.9726 42.5933 19.0725V30.8191C41.1044 30.2186 39.3276 30.5064 38.1249 31.6819L31.3136 38.314C29.8751 39.711 29.0547 41.6509 29.0547 43.6324V51.6863C29.0547 52.1517 29.4345 52.5331 29.8999 52.5331C30.3653 52.5331 30.7467 52.1517 30.7467 51.6863V43.6324C30.7467 42.0827 31.364 40.6266 32.4979 39.5247L39.3092 32.8942C40.2567 31.9714 41.7976 31.9714 42.7452 32.8942C43.5744 33.7066 43.684 34.9692 42.9899 35.8928L37.7859 42.8616C37.5068 43.235 37.5828 43.7675 37.9546 44.0482C38.3264 44.3273 38.8606 44.2513 39.1397 43.8795L44.3437 36.9091C45.4352 35.4442 45.3848 33.5131 44.2933 32.1073V19.0821C44.2933 17.9138 45.2409 16.9663 46.4099 16.9663C47.5774 16.9663 48.525 17.9138 48.525 19.0821V36.9779C48.525 39.2304 47.8485 41.3894 46.5707 43.2438L41.0612 51.2049C40.7989 51.5864 40.8925 52.1197 41.2731 52.3828C41.417 52.4851 41.5857 52.5355 41.7553 52.5355C42.0263 52.5355 42.2894 52.4076 42.4493 52.1709L47.9588 44.2098C49.4389 42.0755 50.2178 39.5783 50.2178 36.9787V19.0821C50.2178 16.9822 48.509 15.271 46.4107 15.271L46.4019 15.263Z" fill="#005494"/>
<path d="M14.9058 31.6755C13.7048 30.4976 11.928 30.2194 10.4391 30.8111V19.0661C10.4391 16.9662 8.72947 15.255 6.63043 15.255C4.53219 15.255 2.82178 16.9662 2.82178 19.0661V36.9603C2.82178 39.5599 3.60062 42.0588 5.08154 44.193L10.5894 52.1541C10.7509 52.3916 11.0212 52.5171 11.2835 52.5171C11.4522 52.5171 11.6145 52.4667 11.7657 52.366C12.1471 52.1037 12.2495 51.5696 11.9776 51.1882L6.4681 43.227C5.19109 41.3807 4.5138 39.2128 4.5138 36.9595V19.0661C4.5138 17.8978 5.46137 16.9486 6.63043 16.9486C7.79789 16.9486 8.74546 17.8978 8.74546 19.0661V32.0913C7.65396 33.4971 7.59478 35.4282 8.69508 36.8915L13.8991 43.8619C14.1798 44.2346 14.7115 44.3201 15.0842 44.0306C15.456 43.7516 15.5335 43.2182 15.2529 42.8456L10.0489 35.8752C9.35478 34.9524 9.45713 33.6906 10.2951 32.8782C11.2427 31.9546 12.782 31.9546 13.7296 32.8782L20.5408 39.5087C21.6667 40.6018 22.2936 42.0667 22.2936 43.6164V51.6687C22.2936 52.1341 22.6735 52.5155 23.1389 52.5155C23.6042 52.5155 23.9857 52.1341 23.9857 51.6687V43.6164C23.9857 41.6333 23.1644 39.695 21.7259 38.2972L14.9146 31.6667L14.9058 31.6755Z" fill="#005494"/>
</svg>
