<svg width="132" height="132" viewBox="0 0 132 132" fill="none" xmlns="http://www.w3.org/2000/svg">
<path d="M56.5185 109.158L48.5353 101.165L39.6528 109.197C38.8739 109.974 37.5192 109.974 36.7516 109.197L32.2699 104.715L33.7374 100.305C34.9246 96.7455 37.9444 94.1265 41.6322 93.4529L55.9823 90.8471L64.8798 99.7446L73.7774 90.8471L88.1219 93.4529C91.8096 94.1265 94.8388 96.7455 96.0166 100.305L98.9668 109.158H56.5185ZM55.1149 118.712L45.6792 109.276L48.3886 106.825L57.7998 116.242L55.1149 118.712ZM43.6529 125.574C40.9096 125.574 38.3301 124.507 36.3979 122.569L8.66093 94.832C6.723 92.8997 5.65431 90.3183 5.65431 87.5751C5.65431 84.8319 6.72111 82.2599 8.66093 80.3182L9.7917 79.1894L19.2029 88.6005L19.1239 88.6702C16.7269 91.0766 16.7269 94.9788 19.1295 97.3852L33.8409 112.097C35.0112 113.259 36.5502 113.901 38.2003 113.901C39.8447 113.901 41.3932 113.259 42.4751 112.168L42.635 112.033L52.0857 121.483L50.9079 122.565C48.9662 124.507 46.3942 125.574 43.6529 125.574ZM24.3337 83.4717L22.1042 85.6974L12.693 76.2881L14.9225 74.0586L24.3337 83.4717ZM48.4619 68.1112V57.7705C54.6201 57.3151 60.3661 54.7639 64.878 50.4778C69.3841 54.7639 75.1302 57.3151 81.2977 57.7705V68.1112C81.2977 71.1009 80.4774 73.8986 79.0757 76.3219H64.878V80.4255H75.7022C72.8066 82.9655 69.0248 84.5328 64.878 84.5328C55.8223 84.5309 48.4619 77.1611 48.4619 68.1112ZM44.3584 53.746V56.0884C43.6284 56.2803 42.9398 56.5681 42.3076 56.9388V49.6424C42.3076 37.1945 52.4319 27.0665 64.8798 27.0665C77.3221 27.0665 87.4558 37.1945 87.4558 49.6424V56.9388C86.8142 56.5681 86.1313 56.2822 85.405 56.0884V53.746H83.3542C77.2845 53.746 71.5761 51.3828 67.2882 47.093L64.8817 44.6904L62.4791 47.093C58.1836 51.3828 52.4827 53.746 46.413 53.746H44.3584ZM42.3057 64.0076C42.3057 62.4949 43.1317 61.1854 44.3566 60.4723V67.541C43.1317 66.8298 42.3057 65.5241 42.3057 64.0076ZM85.4013 60.4723C86.6186 61.1854 87.4521 62.493 87.4521 64.0076C87.4521 65.5241 86.6167 66.8299 85.4013 67.543V60.4723ZM85.4013 76.3201H83.6703C84.2705 74.9654 84.7183 73.5373 85.0061 72.0491C85.8904 71.8628 86.6995 71.511 87.4521 71.0764V74.2693C87.4539 75.4001 86.5339 76.3201 85.4013 76.3201ZM64.878 93.9422L58.7236 87.784V87.69C60.6615 88.3071 62.7331 88.6344 64.878 88.6344C67.0191 88.6344 69.0887 88.3071 71.0361 87.69V87.784L64.878 93.9422ZM99.9113 99.0052C98.2518 94.0268 94.0185 90.3578 88.8575 89.419L75.1415 86.9185V85.8611C77.5235 84.4725 79.5987 82.6231 81.2563 80.4237H85.4031C88.7936 80.4237 91.5575 77.6692 91.5575 74.2693V49.6424C91.5575 34.931 79.5893 22.9648 64.8798 22.9648C50.1704 22.9648 38.2022 34.9329 38.2022 49.6424V64.0076C38.2022 67.9681 41.015 71.2701 44.746 72.0491C45.89 77.9419 49.5871 82.9354 54.6219 85.8611V86.9185L40.8965 89.419C35.7412 90.3578 31.5041 94.0268 29.8427 99.0052L29.0224 101.466L22.0327 94.4765C21.2312 93.6844 21.2312 92.3768 22.0327 91.5752L30.1381 83.4717L14.9225 68.256L5.75779 77.417C3.03904 80.1263 1.55078 83.735 1.55078 87.5751C1.55078 91.4153 3.03904 95.0239 5.75779 97.7333L33.4947 125.47C36.2041 128.18 39.8127 129.677 43.6529 129.677C47.4836 129.677 51.0923 128.18 53.7471 125.534L63.7434 116.369L60.6239 113.259H104.668L99.9113 99.0052Z" fill="#E6F5FC"/>
<path d="M124.393 25.0156C124.393 26.1464 123.47 27.0665 122.343 27.0665H115.592L102.557 35.2114L103.96 27.0665H93.6103C92.472 27.0665 91.5595 26.1464 91.5595 25.0156V8.59967C91.5595 7.46889 92.4739 6.5488 93.6103 6.5488H122.344C123.473 6.5488 124.395 7.46889 124.395 8.59967L124.393 25.0156ZM122.343 2.4397H93.6084C90.2105 2.4397 87.4541 5.19787 87.4541 8.59772V25.0138C87.4541 28.4136 90.2124 31.1719 93.6084 31.1719H99.0855L96.9688 43.5502L116.77 31.1719H122.341C125.731 31.1719 128.495 28.4136 128.495 25.0138V8.59772C128.497 5.19787 125.733 2.4397 122.343 2.4397Z" fill="#E6F5FC"/>
<path d="M95.6631 14.754H120.286V10.6504H95.6631V14.754Z" fill="#E6F5FC"/>
<path d="M95.6631 22.9628H112.079V18.8594H95.6631V22.9628Z" fill="#E6F5FC"/>
<path d="M116.184 22.9628H120.287V18.8594H116.184V22.9628Z" fill="#E6F5FC"/>
<path d="M20.7795 53.4486L18.6722 49.9378L13.1067 53.2736C18.9281 29.6007 40.2096 12.7012 64.8759 12.7012C70.2645 12.7012 75.5872 13.5027 80.6842 15.0832L81.8959 11.164C76.4038 9.46317 70.6803 8.59766 64.8759 8.59766C38.0628 8.59766 14.9581 27.1492 8.95429 53.0178L5.06713 46.5323L1.54688 48.649L8.76051 60.666L20.7795 53.4486Z" fill="#E6F5FC"/>
<path d="M108.265 52.6866L111.786 54.8032L115.375 48.8163C117.268 54.3479 118.237 60.126 118.237 66.0583C118.237 78.2673 114.006 90.1959 106.333 99.656L109.516 102.237C117.791 92.0492 122.344 79.2061 122.344 66.0583C122.344 59.7835 121.327 53.6499 119.36 47.7815L125.391 51.3958L127.498 47.885L115.481 40.6694L108.265 52.6866Z" fill="#E6F5FC"/>
</svg>
