<svg width="132" height="132" viewBox="0 0 132 132" fill="none" xmlns="http://www.w3.org/2000/svg">
<path d="M96.0175 8.11084H24.205C18.7073 8.11084 14.2314 12.5885 14.2314 18.0844V42.017C14.2314 47.5129 18.7054 51.9905 24.205 51.9905H96.0175C101.513 51.9905 105.991 47.5129 105.991 42.017V18.0844C105.991 12.5885 101.513 8.11084 96.0175 8.11084ZM101.998 42.017C101.998 45.3149 99.3135 48.0015 96.0175 48.0015H24.205C20.9053 48.0015 18.2205 45.3149 18.2205 42.017V18.0844C18.2205 14.7865 20.9053 12.1 24.205 12.1H96.0175C99.3154 12.1 101.998 14.7865 101.998 18.0844V42.017Z" fill="#E6F5FC"/>
<path d="M24.2054 20.0762C23.1036 20.0762 22.21 20.9699 22.21 22.0717V38.0261C22.21 39.1278 23.1036 40.0215 24.2054 40.0215C25.3053 40.0215 26.2009 39.1278 26.2009 38.0261V22.0717C26.2009 20.9718 25.3035 20.0762 24.2054 20.0762Z" fill="#E6F5FC"/>
<path d="M32.1854 20.0762C31.0836 20.0762 30.1899 20.9699 30.1899 22.0717V38.0261C30.1899 39.1278 31.0836 40.0215 32.1854 40.0215C33.2853 40.0215 34.179 39.1278 34.179 38.0261V22.0717C34.179 20.9718 33.2853 20.0762 32.1854 20.0762Z" fill="#E6F5FC"/>
<path d="M32.1854 28.0544H24.2054C23.1036 28.0544 22.21 28.9481 22.21 30.0499C22.21 31.1516 23.1036 32.0454 24.2054 32.0454H32.1854C33.2853 32.0454 34.179 31.1516 34.179 30.0499C34.179 28.9481 33.2853 28.0544 32.1854 28.0544Z" fill="#E6F5FC"/>
<path d="M44.1525 20.0762C40.8546 20.0762 38.168 22.7628 38.168 26.0607V34.0388C38.168 37.3367 40.8546 40.0234 44.1525 40.0234C47.4523 40.0234 50.137 37.3367 50.137 34.0388V26.0607C50.137 22.7647 47.4523 20.0762 44.1525 20.0762ZM46.148 34.0388C46.148 35.1406 45.2543 36.0343 44.1525 36.0343C43.0526 36.0343 42.157 35.1406 42.157 34.0388V26.0607C42.157 24.9589 43.0544 24.0653 44.1525 24.0653C45.2543 24.0653 46.148 24.9589 46.148 26.0607V34.0388Z" fill="#E6F5FC"/>
<path d="M66.095 20.0762H54.1259C53.026 20.0762 52.1323 20.9699 52.1323 22.0717C52.1323 23.1735 53.026 24.0653 54.1259 24.0653H66.095C67.1968 24.0653 68.0904 23.1753 68.0904 22.0717C68.0904 20.9718 67.1968 20.0762 66.095 20.0762Z" fill="#E6F5FC"/>
<path d="M60.1103 20.0762C59.0085 20.0762 58.1167 20.9699 58.1167 22.0717V38.0261C58.1167 39.1278 59.0067 40.0215 60.1103 40.0215C61.2139 40.0215 62.1058 39.1278 62.1058 38.0261V22.0717C62.1058 20.9718 61.2121 20.0762 60.1103 20.0762Z" fill="#E6F5FC"/>
<path d="M80.0594 36.0343H74.0749V24.0653H80.0594C81.1593 24.0653 82.053 23.1753 82.053 22.0717C82.053 20.9699 81.1593 20.0762 80.0594 20.0762H72.0794C70.9777 20.0762 70.084 20.9699 70.084 22.0717V38.0261C70.084 39.1278 70.9777 40.0215 72.0794 40.0215H80.0594C81.1593 40.0215 82.053 39.1278 82.053 38.0261C82.053 36.9243 81.1593 36.0343 80.0594 36.0343Z" fill="#E6F5FC"/>
<path d="M76.0685 28.0544H72.0794C70.9777 28.0544 70.084 28.9481 70.084 30.0499C70.084 31.1516 70.9777 32.0454 72.0794 32.0454H76.0685C77.1703 32.0454 78.064 31.1516 78.064 30.0499C78.064 28.9481 77.1703 28.0544 76.0685 28.0544Z" fill="#E6F5FC"/>
<path d="M96.0179 36.0343H90.0334V22.0717C90.0334 20.9699 89.1397 20.0762 88.0379 20.0762C86.9362 20.0762 86.0425 20.9699 86.0425 22.0717V38.0261C86.0425 39.1278 86.9362 40.0215 88.0379 40.0215H96.0179C97.1178 40.0215 98.0115 39.1278 98.0115 38.0261C98.0115 36.9243 97.116 36.0343 96.0179 36.0343Z" fill="#E6F5FC"/>
<path d="M96.9708 72.341C101.807 72.341 105.683 68.4708 105.683 63.6326C105.683 58.7945 101.809 54.9243 96.9708 54.9243C92.1308 54.9243 88.2588 58.7945 88.2588 63.6326C88.2588 68.4708 92.1308 72.341 96.9708 72.341ZM96.9708 58.7964C99.6797 58.7964 101.807 60.9257 101.807 63.6346C101.807 66.3435 99.6779 68.4708 96.9708 68.4708C94.26 68.4708 92.1308 66.3416 92.1308 63.6346C92.1308 60.9275 94.2582 58.7964 96.9708 58.7964Z" fill="#E6F5FC"/>
<path d="M124.07 99.4358V91.6974C124.07 91.0173 123.683 90.4376 123.2 90.0511C123.2 89.9545 123.2 89.8579 123.2 89.7613V88.8881C123.2 87.4351 122.134 86.1791 120.779 85.9859L117.684 85.4062L106.551 75.5348C105.778 74.6616 104.711 74.2751 103.552 74.2751H88.6455C87.4824 74.2751 86.4197 74.7582 85.6449 75.6314L79.7421 82.2105L75.3852 78.6302C74.9987 78.3404 74.6123 78.2437 74.2258 78.2437C74.1292 78.2437 74.0288 78.2437 73.9322 78.2437L69.6756 78.6302C68.1261 78.8234 66.9648 80.0831 66.9648 81.6308V82.9835C66.9648 84.4364 68.1279 85.7909 69.579 85.9841L71.9015 86.2739L76.9347 91.9835C77.7114 92.853 78.6775 93.2394 79.7421 93.336C80.8049 93.336 81.8714 92.9496 82.6443 92.2733L86.2246 89.0794V95.9521L86.4215 118.885C86.4215 119.948 87.291 120.821 88.3575 120.821H93.3908C94.3569 120.821 95.2302 120.141 95.3268 119.175L96.0997 113.658L96.8763 119.175C96.9729 120.141 97.8425 120.821 98.8123 120.821H103.846C104.908 120.821 105.782 120.044 105.782 118.982L106.748 96.1453V88.4998L112.558 91.9835V99.5287H111.781C110.135 99.5287 108.684 100.885 108.684 102.626V119.753C108.684 121.399 110.04 122.85 111.781 122.85H125.043C126.689 122.85 128.14 121.494 128.14 119.753V102.626C128.14 100.98 126.784 99.5287 125.043 99.5287H124.073V99.4358H124.07ZM105.778 83.2751C105.194 82.8887 104.422 82.8887 103.842 83.2751C103.258 83.6653 102.872 84.245 102.872 84.9213V95.8573L102.002 116.758H100.551L98.4222 100.5C98.4222 100.307 98.5188 100.114 98.5188 99.9169L98.2252 95.757C98.1286 94.7909 97.3557 93.9213 96.2892 93.9213C95.3231 93.9213 94.4498 94.6943 94.3532 95.757L94.0634 99.9169C94.0634 100.114 94.0634 100.307 94.16 100.5L91.7409 116.854H90.288L90.1913 95.8573V84.6314C90.1913 83.8585 89.7083 83.1785 89.0282 82.8887C88.3519 82.5988 87.4787 82.6955 86.899 83.1785L80.0264 89.3712C80.0264 89.3712 79.9298 89.4678 79.9298 89.3712C79.8332 89.3712 79.8332 89.3712 79.8332 89.2745L74.3168 82.9853C74.0233 82.5988 73.5402 82.4056 73.1537 82.309L72.1839 82.2123L73.6368 82.1157L77.9938 85.696C79.2498 86.7588 81.091 86.5656 82.1538 85.4062L88.6399 78.1471L88.7366 78.0505H103.546C103.546 78.0505 103.643 78.0505 103.643 78.1471C103.74 78.2437 103.74 78.2438 103.836 78.3404L115.449 88.5982C115.742 88.7914 116.032 88.9847 116.418 89.0813L117.191 89.1779L115.935 89.3712L105.778 83.2751ZM116.327 93.6296H120.198V99.4358H116.327V93.6296ZM124.07 118.79H112.457V103.306H124.07V118.79Z" fill="#E6F5FC"/>
<path d="M7.92035 119.756C7.92035 121.886 9.66313 123.627 11.7905 123.627H13.7284C15.8576 123.627 17.5985 121.884 17.5985 119.756V118.79H69.8651V119.756C69.8651 120.823 70.2516 121.789 71.0282 122.465C71.8011 123.242 72.771 123.628 73.7371 123.628H75.6731C77.8042 123.628 79.547 121.886 79.547 119.758V104.278C79.547 104.181 79.547 104.181 79.547 104.081V103.984C79.547 103.791 79.4504 103.694 79.4504 103.501C79.3538 103.308 79.2534 103.211 79.1568 103.115C79.1568 103.115 79.1568 103.115 79.1568 103.018L68.2208 89.57C67.8343 89.4697 67.5445 89.373 67.2547 89.1798C67.1543 89.1798 67.0577 89.0831 66.9611 88.9865C66.7679 88.8899 66.478 88.7933 66.2848 88.6001C66.1882 88.5034 66.0916 88.5034 66.0916 88.4068C65.8983 88.2136 65.7051 88.1171 65.5119 87.9238C65.4116 87.8272 65.4115 87.8272 65.3149 87.7306C65.1217 87.5374 64.9285 87.3404 64.7353 87.1472L64.6386 87.0505C63.7691 85.9878 63.2823 84.6314 63.1857 83.1804C62.8959 82.9871 62.5094 82.7939 62.0263 82.7939H25.2459C24.6662 82.7939 24.0866 83.0838 23.6964 83.5706L23.4065 84.0537V66.5386C23.4065 65.4758 24.2798 64.6026 25.3425 64.6026H62.1267C63.1894 64.6026 64.0627 65.4758 64.0627 66.5386V78.0543C64.9322 76.6013 66.2885 75.5386 67.9328 75.0555V66.5367C67.9328 63.3447 65.3186 60.7324 62.1267 60.7324H25.3425C22.1487 60.7324 19.5364 63.3447 19.5364 66.5367V87.0505C19.5364 87.5373 19.7296 87.9237 20.0195 88.3102L19.1499 89.4696C18.7635 89.0832 18.1801 88.7933 17.6004 88.7933H13.7284V81.0511H16.6305C17.2139 81.0511 17.7936 80.7613 18.1801 80.2782C18.5665 79.7951 18.6631 79.2155 18.5665 78.6321L16.6305 70.8937C16.4373 70.0204 15.6644 69.4408 14.7911 69.4408H8.88835C8.01511 69.4408 7.24219 70.0204 7.04896 70.8937L5.11296 78.6321C5.01634 79.2155 5.11296 79.7951 5.49942 80.2782C5.88587 80.7613 6.36895 81.0511 6.95235 81.0511H9.8545V88.7933H5.98435C4.92159 88.7933 4.04834 89.6665 4.04834 90.7293V100.408C4.04834 101.47 4.92159 102.344 5.98435 102.344H8.88835L8.30495 103.116C8.20834 103.213 8.11172 103.406 8.01511 103.503C7.91849 103.599 7.91849 103.793 7.91849 103.889V103.986V104.083L7.92035 119.756ZM10.4379 73.3108H13.2434L14.2133 77.181H9.46804L10.4379 73.3108ZM75.6731 119.756H73.7371V116.854C73.7371 116.367 73.5439 115.884 73.1574 115.498C72.771 115.112 72.2842 114.918 71.8011 114.918H15.6644C14.5979 114.918 13.7284 115.788 13.7284 116.854V119.756H11.7905V106.212H75.6731V119.756ZM26.1173 86.8555H60.9617L73.5439 102.34H13.825L26.1173 86.8555ZM7.92035 98.4696V92.6635H15.6662V93.8266L11.9893 98.4715H7.92035V98.4696Z" fill="#E6F5FC"/>
<path d="M115.359 107.178C114.297 107.178 113.423 108.047 113.423 109.114V112.984C113.423 114.047 114.297 114.92 115.359 114.92C116.426 114.92 117.295 114.047 117.295 112.984V109.114C117.295 108.047 116.424 107.178 115.359 107.178Z" fill="#E6F5FC"/>
<path d="M119.233 109.112V112.982C119.233 114.045 120.102 114.918 121.169 114.918C122.232 114.918 123.105 114.045 123.105 112.982V109.112C123.105 108.046 122.232 107.176 121.169 107.176C120.102 107.178 119.233 108.047 119.233 109.112Z" fill="#E6F5FC"/>
</svg>
