<svg width="120" height="125" viewBox="0 0 120 125" fill="none" xmlns="http://www.w3.org/2000/svg">
<path d="M38.2138 77.4303C35.4812 74.2257 34.2013 70.1804 34.6061 66.0453C35.6388 55.5162 46.8675 49.3114 56.4589 53.1169L54.8412 57.1698C47.9748 54.4289 39.7025 58.8233 38.9525 66.4736C38.6623 69.4188 39.5804 72.3052 41.5358 74.6027C45.635 79.3975 53.0238 80.0965 57.9982 76.1537C61.8418 73.0864 63.2198 68.0209 61.4174 63.5556L65.4654 61.9261C67.9937 68.1898 66.0858 75.2828 60.7149 79.5672C53.8982 84.9667 43.8085 83.9812 38.2138 77.4303Z" fill="#00B6F0"/>
<path d="M49.9835 99.5989C40.9499 99.3516 32.061 95.4714 25.8738 88.2064C20.3815 81.7543 17.802 73.6207 18.6146 65.3031C19.4355 56.938 23.5814 49.4015 30.2865 44.0842C39.1792 37.0273 51.3969 35.0751 62.1703 38.9983C62.7085 39.1906 64.1294 39.7252 64.6277 40.0275L62.3625 43.7547C61.7655 43.5073 61.2356 43.2955 60.6898 43.1024C51.3185 39.6897 40.7177 41.3787 33.0033 47.5006C27.2321 52.076 23.6628 58.5516 22.9603 65.7268C22.2653 72.8583 24.48 79.8376 29.1988 85.3781C39.0254 96.9199 56.7286 98.6006 68.656 89.1248C77.5562 82.0679 81.0192 70.6634 77.4816 60.0754L81.6238 58.6971C85.7463 71.0442 81.7218 84.33 71.3728 92.5375C65.1267 97.502 57.502 99.8116 49.9835 99.5989Z" fill="#00B6F0"/>
<path d="M48.9944 115.34C23.2474 114.625 2.87883 93.1231 3.59344 67.4005C4.30805 41.6778 25.8345 21.3351 51.5815 22.0454C59.1942 22.2573 66.7006 24.3391 73.2851 28.0617L71.1337 31.859C65.1704 28.4817 58.3658 26.5967 51.4601 26.4044C28.1193 25.7605 8.60248 44.2068 7.95496 67.5226C7.31121 90.8385 25.7757 110.337 49.1158 110.981C72.4567 111.628 91.9727 93.1827 92.621 69.8669C92.7702 64.4198 91.8988 59.0949 90.0256 54.0362L94.1203 52.5244C96.1857 58.1049 97.1514 63.9802 96.9825 69.9845C96.2724 95.7079 74.7414 116.054 48.9944 115.34Z" fill="#00B6F0"/>
<path d="M93.7478 40.527L85.2479 39.6592L103.135 24.2093L110.815 25.792L93.7478 40.527ZM82.4128 36.3837L82.7822 27.8542L99.8491 13.1192L100.304 20.9346L82.4128 36.3837ZM116.397 22.1787L104.407 20.2507L104.23 8.12378C104.211 6.9377 101.976 5.44927 99.8529 7.33809L79.1979 25.1714C78.5812 25.6977 78.4403 26.31 78.4282 27.0723L77.5922 40.5466L48.472 65.6962C47.5568 66.4736 47.443 67.852 48.2247 68.7674C49.0177 69.6707 50.3994 69.7612 51.307 68.9679L80.4228 43.8221L93.8933 44.9411C94.6509 45.0429 95.275 44.9924 95.8879 44.4578L116.542 26.6206C118.718 24.7982 117.563 22.3717 116.397 22.1787Z" fill="#00B6F0"/>
</svg>
