<svg width="63" height="57" viewBox="0 0 63 57" fill="none" xmlns="http://www.w3.org/2000/svg">
<g clip-path="url(#clip0_320_617)">
<path d="M40.6285 2.07886L36.5622 3.49165C36.4702 3.52501 36.3955 3.59005 36.3563 3.67399C36.3153 3.75793 36.308 3.85771 36.3417 3.95193L36.3899 4.08813C36.4073 4.12732 36.4236 4.16762 36.4337 4.21126L41.0831 17.3645C41.105 17.4123 41.1196 17.457 41.1313 17.5049L41.3126 18.0174C41.339 18.0869 41.3873 18.1447 41.4456 18.1883C41.4748 18.2 41.504 18.2186 41.5332 18.2331C41.6078 18.262 41.6968 18.262 41.7773 18.2358L45.8478 16.8244C45.9398 16.7911 46.0145 16.7216 46.051 16.6407L46.0538 16.6363H46.051C46.0905 16.5523 46.102 16.4539 46.0684 16.3611L41.0932 2.29871C41.064 2.20616 40.9938 2.13223 40.9119 2.09304C40.8274 2.05301 40.7236 2.04579 40.6285 2.07886ZM35.8784 1.54771L39.9446 0.136296C40.5805 -0.0838372 41.2453 -0.0288066 41.8065 0.237743C42.3723 0.508462 42.837 0.992088 43.0575 1.62025L48.0285 15.6812C48.2491 16.3125 48.1952 16.974 47.9205 17.5326V17.5299C47.6471 18.0902 47.1648 18.546 46.5319 18.7662L42.4629 20.179C42.3254 20.2268 42.1851 20.2585 42.0493 20.2804V23.5246C42.4087 23.3884 42.796 23.3147 43.2009 23.3147H50.5235C51.2178 23.3147 51.8756 23.526 52.4178 23.9068C52.9526 24.2876 53.3707 24.8332 53.5854 25.4991L54.1321 27.1654C54.5822 27.2521 55.0076 27.4317 55.373 27.6952C55.9124 28.0715 56.3246 28.6129 56.5539 29.2658L59.5969 38.0298C59.7417 38.1254 59.8748 38.2354 59.9915 38.3555C60.4298 38.8027 60.7048 39.4123 60.7048 40.0827V48.4833C60.7048 49.3649 60.3423 50.1668 59.7549 50.7488C59.1676 51.3308 58.3591 51.6897 57.469 51.6897H56.9414C56.8625 53.1358 56.2384 54.4388 55.2723 55.4C54.2345 56.425 52.8022 57.0618 51.2206 57.0618C49.6393 57.0618 48.2084 56.4248 47.1735 55.4C46.2014 54.4372 45.5773 53.1344 45.5043 51.6897H37.011C36.9321 53.1358 36.3094 54.4388 35.3418 55.4C34.3041 56.425 32.8718 57.0618 31.2902 57.0618C29.7088 57.0618 28.2779 56.4248 27.2385 55.4C26.4376 54.6023 25.8719 53.5703 25.6586 52.4179C25.4453 53.5703 24.8796 54.6023 24.0742 55.4C23.0365 56.425 21.607 57.0618 20.0242 57.0618C18.4429 57.0618 17.0103 56.4248 15.9757 55.4C15.0036 54.4372 14.384 53.1344 14.3079 51.6897H11.8876C10.8689 51.6897 9.94958 51.2394 9.2859 50.5142C8.6472 49.8166 8.25124 48.861 8.25124 47.8215V19.5894C8.05256 19.7879 7.81852 19.9527 7.56428 20.0731C7.00303 20.3393 6.33935 20.3974 5.70374 20.1787L1.71496 18.7917C1.64929 18.7773 1.59064 18.7556 1.53087 18.725C0.947732 18.4918 0.500418 18.0563 0.241683 17.5249C-0.0125622 16.9979 -0.0799118 16.3797 0.101371 15.7833C0.115963 15.721 0.137852 15.6587 0.164231 15.5995L5.11162 1.61969C5.33388 0.989869 5.7941 0.507911 6.35984 0.237192C6.92558 -0.02908 7.58897 -0.0841106 8.22178 0.135744L12.212 1.51963C12.2748 1.53686 12.3377 1.55882 12.3975 1.58467C12.9806 1.81926 13.4279 2.25924 13.6822 2.78623C13.818 3.06695 13.8999 3.37242 13.9218 3.68955L23.0393 5.68881C24.4803 5.17211 28.127 4.61317 31.2548 4.12815C32.3599 3.96027 33.3932 3.79962 34.2465 3.6562C34.2715 3.35213 34.3532 3.05556 34.482 2.78484C34.7573 2.22506 35.2441 1.76784 35.8784 1.54771ZM39.9665 19.6372C39.8307 19.5099 39.7091 19.3665 39.6039 19.2087L37.4336 20.3277C37.495 20.9025 37.3401 21.5031 37.039 22.059C36.8476 22.4109 36.5917 22.7438 36.2923 23.0362C35.9999 23.3259 35.6564 23.5791 35.2882 23.7686C34.9256 23.9554 34.5457 24.0872 34.1584 24.1377C34.1101 24.5141 33.9844 24.8876 33.8003 25.2423C33.609 25.62 33.3457 25.9675 33.0432 26.2687L33.0477 26.2715C32.748 26.5653 32.3972 26.8246 32.0086 27.0187C31.6359 27.2082 31.2441 27.3327 30.8451 27.3805C30.8013 27.6368 30.7166 27.89 30.6024 28.139C30.4169 28.5298 30.1477 28.9006 29.8189 29.2219C29.509 29.5332 29.1392 29.8009 28.7359 30.0052C27.6954 30.5322 26.466 30.6247 25.465 29.9068C25.2253 30.2976 24.8905 30.6567 24.4873 30.9463C24.0635 31.249 23.5534 31.4805 23.0067 31.5906C21.8769 31.8207 20.5835 31.5645 19.4624 30.4513C17.4894 28.5012 16.1491 27.1204 14.8863 25.8174C13.5766 24.4668 12.3534 23.2089 10.338 21.2357V42.0194H39.967V19.6372H39.9665ZM38.8485 17.2689L34.7416 5.66019C33.8896 5.80361 32.7699 5.97566 31.5699 6.16105C28.2288 6.67358 24.2518 7.2845 23.7007 7.63332V7.62888L23.6962 7.63332C23.6788 7.645 23.6962 7.6361 23.6816 7.64639C23.6115 7.70587 23.5486 7.75646 23.442 7.82288L17.8104 11.1427C17.6291 11.2483 17.5708 11.4089 17.5999 11.574C17.6364 11.7564 17.7475 11.9648 17.9215 12.1733C18.1292 12.4193 18.4081 12.6466 18.7488 12.8276C19.9196 13.4602 21.7655 13.5558 23.8511 12.1544C24.9486 11.419 26.077 11.0484 27.3224 11.2163C28.5092 11.3828 29.7341 12.0371 31.0612 13.3401L31.064 13.3429L36.3521 18.5558L38.8485 17.2689ZM13.417 5.68354L9.16972 17.6947L9.83031 18.1666C9.88307 18.2 9.93106 18.2333 9.97511 18.2723L10.9427 18.9643C10.9997 19.0005 11.0538 19.0424 11.1021 19.0933C13.5721 21.495 14.9242 22.8889 16.3857 24.3932C17.5447 25.5889 18.7828 26.8599 20.9357 28.9923C21.4883 29.541 22.086 29.6772 22.5903 29.5758C22.8417 29.5235 23.0769 29.4179 23.2727 29.2761C23.4568 29.1444 23.6044 28.9823 23.701 28.8145C23.7857 28.6566 23.8194 28.5076 23.7638 28.3975C23.7593 28.3875 23.7521 28.3803 23.7492 28.3686L20.1932 24.9927C19.7751 24.5989 19.7635 23.946 20.1626 23.5363C20.5616 23.128 21.2194 23.1166 21.6314 23.5115L25.7341 27.4014C25.7605 27.4231 25.7824 27.4492 25.8043 27.4753C25.9227 27.5809 26.0526 27.6896 26.1668 27.7966C26.3846 27.9862 26.4884 28.0818 26.5513 28.1368C26.5659 28.1468 26.5849 28.163 26.5995 28.1774C26.8992 28.4481 27.3684 28.3886 27.7922 28.173C27.9954 28.0715 28.1867 27.9311 28.3579 27.7633C28.51 27.6143 28.6313 27.4447 28.7132 27.2769C28.8198 27.0437 28.8271 26.7977 28.6503 26.6109L24.5513 22.7236C24.1376 22.3297 24.1258 21.6768 24.5207 21.2671C24.9197 20.8588 25.5775 20.8474 25.9911 21.2382L30.0967 25.1322C30.104 25.1395 30.1068 25.1467 30.1141 25.1539C30.3624 25.3913 30.7281 25.3596 31.0671 25.19C31.2411 25.1017 31.4105 24.9699 31.5727 24.8123H31.5756C31.7319 24.6589 31.8607 24.488 31.9527 24.3115C32.1149 23.9902 32.1514 23.6455 31.9454 23.4037L31.9044 23.3645C31.8927 23.35 31.8826 23.3384 31.868 23.3239L27.7916 19.4557C27.3794 19.0605 27.3634 18.409 27.7624 17.9993C28.1615 17.5896 28.8193 17.5752 29.2312 17.9704L33.3076 21.8386C33.3339 21.8603 33.3558 21.8819 33.3822 21.9036C33.6336 22.1527 33.9962 22.1193 34.3279 21.947C34.5047 21.8558 34.6742 21.7285 34.8308 21.5779C34.9812 21.4289 35.1114 21.2593 35.2035 21.087C35.3539 20.8105 35.4167 20.5428 35.291 20.4183L29.5983 14.8071C28.6161 13.8415 27.7801 13.3637 27.039 13.2626C26.3593 13.1714 25.6987 13.406 25.0163 13.859C22.1573 15.7799 19.4989 15.579 17.7565 14.6392C17.1689 14.3238 16.6823 13.9255 16.3197 13.4899C15.9252 13.018 15.662 12.491 15.5581 11.964C15.3594 10.9464 15.7102 9.98363 16.7522 9.36826L20.4031 7.21557L13.417 5.68354ZM11.6075 3.49193L7.53846 2.07913C7.44192 2.04578 7.34258 2.05301 7.25783 2.09359C7.17309 2.13278 7.10742 2.20644 7.07234 2.29927L2.10278 16.3614C2.0691 16.4539 2.0764 16.5554 2.11737 16.6393C2.15834 16.7188 2.2285 16.79 2.32503 16.823L6.38959 18.2345C6.48612 18.2692 6.58995 18.2575 6.6747 18.2172C6.75496 18.1766 6.82511 18.1072 6.85598 18.016L11.8284 3.95082C11.8634 3.85521 11.8516 3.75682 11.811 3.67288C11.7697 3.58894 11.6995 3.52362 11.6075 3.49193ZM14.8128 36.0522C14.2414 36.0522 13.7722 35.5919 13.7722 35.0199C13.7722 34.4495 14.2414 33.9893 14.8128 33.9893H22.4174C22.9932 33.9893 23.4624 34.4495 23.4624 35.0199C23.4624 35.5916 22.9932 36.0522 22.4174 36.0522H14.8128ZM14.8128 39.9737C14.2414 39.9737 13.7722 39.509 13.7722 38.9431C13.7722 38.3727 14.2414 37.908 14.8128 37.908H25.4324C26.0083 37.908 26.4775 38.3727 26.4775 38.9431C26.4775 39.509 26.0083 39.9737 25.4324 39.9737H14.8128ZM31.2935 45.7091C32.8734 45.7091 34.3074 46.3462 35.3452 47.374C35.9738 47.9966 36.4559 48.7651 36.741 49.6251H39.9668V44.0834H10.3374V47.8198C10.3374 48.341 10.526 48.8057 10.8285 49.1342C11.1063 49.4383 11.4818 49.6251 11.8909 49.6251H14.5832C14.8625 48.7651 15.3477 47.9966 15.9777 47.374C17.0126 46.3462 18.4449 45.7091 20.0248 45.7091C21.6092 45.7091 23.0387 46.3462 24.0764 47.374C24.7093 47.9966 25.1916 48.7651 25.4723 49.6251H25.8449C26.1284 48.7651 26.6138 47.9966 27.2394 47.374C28.281 46.3476 29.7119 45.7091 31.2935 45.7091ZM33.8657 48.8346C33.2079 48.1803 32.2959 47.7779 31.2918 47.7779C30.2833 47.7779 29.3757 48.1803 28.7135 48.8346C28.0557 49.4875 27.6465 50.3908 27.6465 51.3853C27.6465 52.3856 28.0574 53.2845 28.7135 53.9405C29.3741 54.5934 30.2833 54.9986 31.2918 54.9986C32.2959 54.9986 33.2079 54.5917 33.8657 53.9405C34.5263 53.2862 34.9327 52.3856 34.9327 51.3853C34.9343 50.3908 34.528 49.4875 33.8657 48.8346ZM22.6043 48.8346C21.9437 48.1803 21.0345 47.7779 20.0259 47.7779C19.0219 47.7779 18.1098 48.1803 17.452 48.8346C16.7915 49.4875 16.3851 50.3908 16.3851 51.3853C16.3851 52.3856 16.7915 53.2845 17.452 53.9405C18.1098 54.5934 19.0219 54.9986 20.0259 54.9986C21.0345 54.9986 21.942 54.5917 22.6043 53.9405C23.2621 53.2862 23.6712 52.3856 23.6712 51.3853C23.6712 50.3908 23.2607 49.4875 22.6043 48.8346ZM51.222 45.7091C52.8019 45.7091 54.2359 46.3462 55.2737 47.374C55.9006 47.9966 56.3844 48.7651 56.6681 49.6251H57.4704C57.7833 49.6251 58.0712 49.4978 58.2831 49.2877C58.4935 49.0792 58.6221 48.794 58.6221 48.4827V40.0824C58.6221 39.9695 58.5783 39.8711 58.5123 39.8017C58.445 39.735 58.3574 39.696 58.2609 39.696H49.4869C48.6333 39.696 47.8587 39.3486 47.2975 38.7955C46.7348 38.2396 46.3883 37.4708 46.3883 36.6211V30.1733C46.3883 29.3264 46.7346 28.5593 47.2975 28.002C47.8587 27.4461 48.6333 27.1031 49.4869 27.1031H51.9278L51.6107 26.1289C51.536 25.9016 51.3929 25.7165 51.2116 25.5875C51.0231 25.4513 50.7862 25.3777 50.5247 25.3777H43.2021C42.885 25.3777 42.597 25.505 42.3894 25.7151C42.1789 25.9235 42.0487 26.2101 42.0487 26.52V49.6243H45.7788C46.0594 48.7643 46.5432 47.9958 47.1746 47.3746C48.2084 46.3476 49.6421 45.7091 51.222 45.7091ZM53.8004 48.8346C53.1398 48.1803 52.2306 47.7779 51.222 47.7779C50.2179 47.7779 49.3059 48.1803 48.6481 48.8346C47.9875 49.4875 47.5812 50.3908 47.5812 51.3853C47.5812 52.3856 47.9875 53.2845 48.6481 53.9405C49.3059 54.5934 50.2179 54.9986 51.222 54.9986C52.2306 54.9986 53.1381 54.5917 53.8004 53.9405C54.4582 53.2862 54.8673 52.3856 54.8673 51.3853C54.8673 50.3908 54.4565 49.4875 53.8004 48.8346ZM57.2554 37.6284L54.5822 29.9357C54.4989 29.6983 54.3543 29.5043 54.17 29.3726C53.9859 29.2394 53.7535 29.1669 53.4934 29.1669H49.4872C49.2094 29.1669 48.9551 29.2797 48.771 29.4637C48.5856 29.6475 48.4713 29.8979 48.4713 30.1731V36.6222C48.4713 36.9002 48.5853 37.1534 48.771 37.3329C48.9551 37.5153 49.2094 37.6298 49.4872 37.6298H57.2554V37.6284Z" fill="#005494"/>
</g>
<defs>
<clipPath id="clip0_320_617">
<rect width="63" height="57" fill="white"/>
</clipPath>
</defs>
</svg>
