<svg width="148" height="156" viewBox="0 0 148 156" fill="none" xmlns="http://www.w3.org/2000/svg">
<g clip-path="url(#clip0_320_638)">
<path d="M148 120.901V152.101C148 154.257 146.258 156 144.105 156H112.947C110.795 156 109.052 154.257 109.052 152.101C109.052 149.944 110.794 148.201 112.947 148.201H134.703L73.9998 87.4153L13.2967 148.201H35.0526C37.2052 148.201 38.9476 149.944 38.9476 152.101C38.9476 154.257 37.2055 156 35.0526 156H3.89507C1.74207 156 0 154.257 0 152.1V120.901C0 118.745 1.74207 116.999 3.89507 116.999C6.04807 116.999 7.79014 118.745 7.79014 120.901V142.686L70.1054 80.2857V3.90148C70.1051 1.74546 71.8472 0 74.0002 0C76.1532 0 77.8952 1.74546 77.8952 3.90148V80.2857L140.21 142.686V120.901C140.21 118.745 141.952 116.999 144.105 116.999C146.258 116.999 148 118.745 148 120.901Z" fill="#005494"/>
</g>
<defs>
<clipPath id="clip0_320_638">
<rect width="148" height="156" fill="white"/>
</clipPath>
</defs>
</svg>
