<svg width="145" height="145" viewBox="0 0 145 145" fill="none" xmlns="http://www.w3.org/2000/svg">
<path d="M133.692 77.8288L123.993 83.3547C123.925 83.3953 123.856 83.4301 123.785 83.462C123.702 83.4983 123.618 83.5287 123.532 83.5534C123.354 83.6056 123.165 83.6317 122.976 83.6317C122.701 83.6317 122.422 83.5737 122.156 83.4548C122.156 83.4548 122.155 83.4533 122.153 83.4533C122.126 83.4403 122.097 83.4272 122.069 83.4127C121.611 83.1793 121.279 82.7936 121.108 82.347L116.874 71.4502C116.474 70.4193 116.986 69.2593 118.017 68.8591C119.049 68.4574 120.21 68.9693 120.611 70.0017L123.036 76.2454C124.814 71.2153 125.713 65.9359 125.713 60.4911C125.713 34.3694 104.453 13.1182 78.3198 13.1182C52.1879 13.1182 30.9193 34.3694 30.9193 60.4911C30.9193 67.1278 32.2635 73.5412 34.9126 79.5572C35.3592 80.5693 34.8996 81.7525 33.886 82.1976C32.8739 82.6442 31.6907 82.1846 31.2441 81.171C28.3688 74.6446 26.9101 67.6875 26.9101 60.4911C26.9101 32.1611 49.9709 9.11328 78.3184 9.11328C92.0484 9.11328 104.956 14.458 114.664 24.1614C124.372 33.8648 129.719 46.7669 129.719 60.4926C129.719 66.1969 128.807 71.7359 127.005 77.0269L131.703 74.3502C132.664 73.8021 133.888 74.1371 134.436 75.0984C134.99 76.0569 134.655 77.2807 133.692 77.8288ZM47.1825 84.1363C49.7925 75.1825 55.9289 65.3095 65.4352 54.752C63.2239 53.7704 61.6782 51.5562 61.6782 48.9868C61.6782 46.0303 63.7183 43.5435 66.4632 42.8591L59.725 28.2852C59.4379 27.6646 59.4872 26.941 59.8555 26.3654C60.2238 25.7897 60.8604 25.4418 61.5433 25.4418H92.9054C93.5883 25.4418 94.2249 25.7897 94.5932 26.3654C94.9615 26.941 95.0122 27.6646 94.7237 28.2852L87.9855 42.8591C90.7304 43.5435 92.7705 46.0303 92.7705 48.9868C92.7705 51.5533 91.2278 53.766 89.0194 54.7491C99.1926 66.004 105.52 76.4556 107.839 85.8545C110.052 94.8184 108.544 102.793 103.48 108.915C103.084 109.394 102.513 109.642 101.935 109.642C101.485 109.642 101.033 109.491 100.66 109.184C99.8074 108.479 99.687 107.216 100.392 106.365C104.674 101.187 105.87 94.6096 103.947 86.8173C101.643 77.4837 94.9557 66.8798 84.0705 55.2972H70.3767C60.1528 66.2186 53.6437 76.2976 51.0308 85.2615C50.7756 86.1358 49.9767 86.7057 49.1081 86.7057C48.9225 86.7057 48.7326 86.6796 48.547 86.626C47.4841 86.3099 46.8737 85.1977 47.1825 84.1363ZM64.6768 29.4481L70.7915 42.6735H83.6573L89.7705 29.4481H64.6768ZM65.6874 48.9868C65.6874 50.2556 66.7198 51.288 67.99 51.288H86.4587C87.7289 51.288 88.7613 50.2556 88.7613 48.9868C88.7613 47.7181 87.7289 46.677 86.4587 46.677H84.9434C84.9405 46.677 84.9391 46.6784 84.9362 46.6784C84.9333 46.6784 84.9304 46.677 84.9275 46.677H67.9886C66.7198 46.677 65.6874 47.7137 65.6874 48.9868ZM76.909 91.9605C78.7534 92.497 79.8104 93.3771 79.7336 94.3182C79.6596 95.2549 78.8433 95.8668 78.1038 96.1292C77.1105 96.4816 75.6446 96.4265 74.502 95.223C73.7407 94.4197 72.472 94.3863 71.6687 95.1476C70.8654 95.9089 70.8335 97.1776 71.5947 97.9794C72.6184 99.0582 73.8756 99.7832 75.2241 100.12V102.15C75.2241 103.256 76.1202 104.152 77.228 104.152C78.3343 104.152 79.2304 103.256 79.2304 102.15V99.9775C79.3 99.9543 79.3696 99.9311 79.4407 99.9065C81.897 99.0379 83.5413 97.0196 83.7298 94.6386C83.8197 93.5236 83.6718 89.7565 78.0284 88.1165C76.0404 87.538 74.7586 86.5955 74.6803 85.6588C74.6252 84.9845 75.1777 84.2305 76.0259 83.8245C76.6727 83.5142 78.3952 82.998 80.3962 84.8961C81.1995 85.6559 82.4683 85.6225 83.2295 84.8207C83.9908 84.0174 83.9574 82.7501 83.1541 81.9888C81.8752 80.7766 80.5282 80.0792 79.2319 79.7529V77.7113C79.2319 76.605 78.3343 75.7089 77.228 75.7089C76.1202 75.7089 75.2241 76.605 75.2241 77.7113V79.8501C74.8949 79.9516 74.5846 80.0734 74.2946 80.2126C71.9471 81.3378 70.4971 83.6578 70.687 85.9865C70.7929 87.2668 71.6107 90.4192 76.909 91.9605ZM122.783 119.241C123.026 120.259 122.442 121.293 121.444 121.612C121.444 121.612 110.081 125.247 87.362 132.52C85.9454 132.974 84.6926 133.388 83.5891 133.752C79.4436 135.126 77.0032 135.885 74.6876 135.885C71.7209 135.885 68.9586 134.638 63.0687 131.834C59.4104 130.094 55.0937 128.039 49.4822 125.367L38.3839 120.083C37.8271 119.818 37.3211 119.576 36.8527 119.35C32.9305 117.462 31.9981 117.012 27.0855 116.465L25.5384 116.293V122.032C25.5384 123.137 24.6408 124.034 23.5345 124.034H11.2588C10.1524 124.034 9.25488 123.138 9.25488 122.032V88.6081C9.25488 87.5017 10.1524 86.6056 11.2588 86.6056H23.5316C24.6379 86.6056 25.5355 87.5017 25.5355 88.6081V92.4535C31.6574 90.9382 39.7861 89.3693 47.4928 89.9044C51.0642 90.1523 54.2774 90.8367 57.1223 91.9532C57.0541 91.2819 57.0164 90.6033 57.0164 89.9218C57.0164 78.7872 66.0833 69.7291 77.228 69.7291C88.3727 69.7291 97.4323 78.7872 97.4323 89.9218C97.4323 96.6599 94.0915 102.928 88.4945 106.691C87.0779 107.642 85.551 108.403 83.9545 108.966C84.507 109.523 84.9507 110.159 85.2784 110.879C85.8729 112.181 85.9874 113.542 85.8845 114.757L87.9696 114.26L105.765 110.138C109.828 109.059 113.825 109.511 117.02 111.417C119.91 113.141 122.01 115.991 122.783 119.241ZM61.6202 94.2834C64.2693 96.0393 66.4734 98.3086 68.2162 101.085C73.1346 103.426 76.6161 105.079 78.6606 106.05C81.375 105.812 83.9937 104.89 86.2586 103.369C90.7449 100.353 93.423 95.3274 93.423 89.9247C93.423 80.9999 86.1585 73.7383 77.228 73.7383C68.2989 73.7383 61.0257 80.9999 61.0257 89.9247C61.0243 91.4124 61.2258 92.8754 61.6202 94.2834ZM21.5277 90.6134H13.2627V120.031H21.5277V90.6134ZM118.256 118.426C117.537 116.961 116.394 115.709 114.967 114.859C112.669 113.487 109.833 113.197 106.769 114.018C106.747 114.024 106.725 114.029 106.702 114.034L88.886 118.161L84.2677 119.263C82.7612 121.153 80.402 122.236 77.9849 122.236C76.8409 122.236 75.6823 121.993 74.5962 121.478L55.3663 112.337C54.3658 111.863 53.941 110.667 54.4166 109.668C54.8908 108.669 56.087 108.245 57.0875 108.72L76.3174 117.86C78.2372 118.772 80.5964 117.997 81.5098 116.17C81.8027 115.313 82.1855 113.755 81.6316 112.545C81.272 111.757 80.5267 111.185 79.3537 110.796C79.2754 110.77 79.2 110.739 79.126 110.705C79.126 110.705 74.7325 108.624 65.9542 104.446C65.5961 104.274 65.2945 104.001 65.0915 103.661C57.3079 90.5439 39.1539 93.1205 25.534 96.5874V112.266L27.5249 112.488C33.1175 113.112 34.4965 113.776 38.5884 115.745C39.0509 115.967 39.5526 116.209 40.1036 116.471L51.2019 121.755C56.8149 124.426 61.1286 126.481 64.7681 128.212C69.6024 130.515 72.0181 131.664 74.0452 131.859C76.0042 132.047 78.1168 131.347 82.3262 129.955C83.4398 129.587 84.7013 129.169 86.1368 128.709C103.402 123.179 114.109 119.754 118.256 118.426Z" fill="#00B6F0"/>
</svg>
