<svg width="145" height="145" viewBox="0 0 145 145" fill="none" xmlns="http://www.w3.org/2000/svg">
<path d="M88.024 129.507H33.0212C31.7394 129.507 30.7012 128.467 30.7012 127.187V120.088H35.3426V124.867H88.024V129.507Z" fill="#00CBB8"/>
<path d="M124.055 79.9472H119.414V34.0749H101.125C99.843 34.0749 98.8048 33.0353 98.8048 31.7549V13.4589H35.3426V32.9831H30.7012V11.1389C30.7012 9.85706 31.7408 8.81885 33.0212 8.81885H101.125C102.407 8.81885 103.445 9.85851 103.445 11.1389V29.435H121.734C123.015 29.435 124.054 30.4746 124.054 31.7549L124.055 79.9472Z" fill="#00CBB8"/>
<path d="M74.3746 115.854H12.5495C11.2677 115.854 10.2295 114.814 10.2295 113.534V39.4008C10.2295 38.119 11.2692 37.0808 12.5495 37.0808H50.6265C51.9083 37.0808 52.9465 38.1205 52.9465 39.4008C52.9465 40.6812 51.9068 41.7208 50.6265 41.7208H14.8695V111.212H72.0532V58.2407C72.0532 56.9589 73.0928 55.9207 74.3731 55.9207C75.6549 55.9207 76.6931 56.9603 76.6931 58.2407V113.534C76.6946 114.814 75.6549 115.854 74.3746 115.854Z" fill="#00CBB8"/>
<path d="M68.9158 70.3903H18.0078V44.3135H51.7188V48.9549H22.6492V65.7488H64.2744V58.6496H68.9158V70.3903Z" fill="#00CBB8"/>
<path d="M33.4315 107.525H18.0078V92.6448H33.4315V107.525ZM22.6492 102.883H28.79V97.2848H22.6492V102.883Z" fill="#00CBB8"/>
<path d="M51.1732 107.525H35.751V92.6448H51.1732V107.525ZM40.391 102.883H46.5303V97.2848H40.391V102.883Z" fill="#00CBB8"/>
<path d="M68.7796 107.525H53.3574V92.6448H68.7796V107.525ZM57.9989 102.883H64.1382V97.2848H57.9989V102.883Z" fill="#00CBB8"/>
<path d="M33.4315 88.9575H18.0078V74.0776H33.4315V88.9575ZM22.6492 84.3161H28.79V78.7176H22.6492V84.3161Z" fill="#00CBB8"/>
<path d="M51.1732 88.9575H35.751V74.0776H51.1732V88.9575ZM40.391 84.3161H46.5303V78.7176H40.391V84.3161Z" fill="#00CBB8"/>
<path d="M68.7796 88.9575H53.3574V74.0776H68.7796V88.9575ZM57.9989 84.3161H64.1382V78.7176H57.9989V84.3161Z" fill="#00CBB8"/>
<path d="M69.3244 61.2436C68.64 61.2436 67.9469 61.2103 67.2654 61.1436C66.5752 61.074 65.8908 60.9725 65.2238 60.8405C64.5568 60.7086 63.884 60.5389 63.2228 60.3388C62.5761 60.1431 61.9236 59.9096 61.2856 59.6472C60.6476 59.3833 60.0197 59.086 59.4165 58.7627C58.8191 58.4437 58.2246 58.087 57.6475 57.7013C57.0864 57.3272 56.5296 56.9125 55.9916 56.4731C55.458 56.0352 54.9418 55.5683 54.4604 55.084C53.9747 54.5983 53.5078 54.0835 53.0771 53.5586C52.6479 53.0352 52.2347 52.4784 51.8504 51.9042C51.472 51.3372 51.1153 50.7427 50.789 50.1337C50.4642 49.5276 50.1684 48.8998 49.906 48.2676C49.645 47.6368 49.4101 46.9829 49.21 46.3231C49.0128 45.6735 48.8446 45.0007 48.7097 44.3221C48.5763 43.6464 48.4734 42.9606 48.4081 42.2791C48.34 41.6048 48.3066 40.9103 48.3066 40.2201C48.3066 39.5284 48.3414 38.8339 48.4096 38.1553C48.4763 37.4781 48.5778 36.7908 48.7112 36.118C48.846 35.4394 49.0142 34.7666 49.2114 34.1156C49.4101 33.4602 49.645 32.8062 49.9074 32.1726C50.1699 31.5404 50.4657 30.914 50.789 30.3093C51.1124 29.7047 51.4676 29.1102 51.849 28.5403C52.2303 27.9705 52.6436 27.4137 53.0786 26.883C53.5136 26.3523 53.9805 25.8375 54.4648 25.3518C54.9447 24.8718 55.458 24.4064 55.9902 23.9685C56.5209 23.5335 57.0777 23.1202 57.6461 22.7389C58.2188 22.3561 58.8133 21.9994 59.4194 21.6775C60.0241 21.3541 60.6519 21.0583 61.2841 20.7959C61.9163 20.5334 62.5703 20.3 63.2257 20.0999C63.8869 19.8998 64.5611 19.7301 65.2281 19.5982C65.8995 19.4648 66.5868 19.3633 67.2683 19.2966C68.6327 19.1632 70.0218 19.1632 71.3863 19.2966C72.0707 19.3633 72.7565 19.4648 73.4279 19.5982C74.0934 19.7301 74.7677 19.8998 75.4289 20.0999C76.0857 20.3 76.7397 20.5334 77.3719 20.7959C78.0041 21.0583 78.6319 21.3541 79.2366 21.6775C79.834 21.9965 80.4285 22.3532 81.0027 22.736C81.5769 23.1217 82.1337 23.5335 82.6615 23.967C83.1965 24.4078 83.7098 24.8733 84.1898 25.3532C84.6755 25.839 85.141 26.3537 85.576 26.883C86.011 27.4137 86.4242 27.9705 86.8041 28.5389C87.1855 29.1087 87.5407 29.7047 87.8641 30.3093C88.1874 30.914 88.4832 31.5418 88.7457 32.174C89.0052 32.799 89.2387 33.4529 89.4402 34.117C89.6403 34.7753 89.8085 35.4481 89.9419 36.118C90.0753 36.7908 90.1768 37.4781 90.245 38.1596C90.3131 38.8339 90.3465 39.5284 90.3465 40.2201C90.3465 40.9117 90.3117 41.6063 90.2435 42.2849C90.1768 42.9606 90.0753 43.6464 89.9419 44.3207C89.8085 44.9906 89.6403 45.6648 89.4402 46.3231C89.2372 46.9901 89.0038 47.6455 88.7457 48.2676C88.4832 48.8998 88.1874 49.5262 87.8641 50.1323C87.5364 50.7442 87.1797 51.3387 86.8041 51.9013C86.417 52.4784 86.0037 53.0352 85.5745 53.5586C85.1439 54.0835 84.6784 54.5983 84.1883 55.0869C83.7069 55.5698 83.1922 56.0367 82.66 56.4731C82.1221 56.9139 81.5653 57.3272 81.0041 57.7013C80.4183 58.0913 79.8238 58.448 79.2351 58.7627C78.6319 59.0846 78.0055 59.3818 77.3704 59.6443C76.7281 59.9096 76.0756 60.1416 75.4274 60.3388C74.7677 60.5389 74.0934 60.7086 73.4264 60.8405C72.7623 60.9725 72.0779 61.074 71.3921 61.1436C70.7019 61.2088 70.0088 61.2436 69.3244 61.2436ZM69.3244 23.8351C68.7908 23.8351 68.2499 23.8612 67.7178 23.9134C67.1871 23.9656 66.6535 24.0439 66.13 24.1483C65.6109 24.2512 65.086 24.3832 64.5713 24.5398C64.0609 24.6949 63.5505 24.8776 63.0589 25.0821C62.5659 25.2865 62.0758 25.5185 61.6046 25.7708C61.1333 26.0231 60.6693 26.3001 60.2256 26.5973C59.7834 26.8931 59.3484 27.2165 58.9351 27.5558C58.5219 27.8965 58.1202 28.2605 57.7461 28.6346C57.3691 29.0116 57.0052 29.4132 56.6673 29.8265C56.328 30.2412 56.0047 30.6762 55.7089 31.1199C55.4131 31.5636 55.1347 32.0276 54.8838 32.4974C54.6315 32.9701 54.3995 33.4587 54.1951 33.9517C53.9906 34.4447 53.8079 34.9537 53.6528 35.4641C53.4991 35.9687 53.3686 36.4936 53.2627 37.0243C53.1583 37.5477 53.08 38.0828 53.0278 38.6135C52.9742 39.1442 52.9481 39.6836 52.9481 40.2215C52.9481 40.758 52.9742 41.2974 53.0278 41.8238C53.08 42.3588 53.1598 42.8939 53.2642 43.4188C53.37 43.948 53.5005 44.4729 53.6542 44.9775C53.8094 45.4908 53.9921 45.9998 54.1951 46.4913C54.3995 46.9843 54.6315 47.4744 54.8838 47.9457C55.1376 48.4213 55.416 48.8853 55.7103 49.3246C56.0105 49.7712 56.3338 50.2077 56.6688 50.6166C57.0037 51.024 57.3662 51.4242 57.7476 51.8056C58.1246 52.1826 58.5233 52.5451 58.938 52.8844C59.3585 53.2295 59.7935 53.5514 60.2285 53.8428C60.6795 54.143 61.1435 54.4214 61.6075 54.6693C62.0787 54.9216 62.5674 55.1522 63.0618 55.3581C63.5577 55.5625 64.0681 55.7452 64.5742 55.8975C65.0904 56.0541 65.6153 56.186 66.1329 56.289C66.6535 56.3934 67.19 56.4731 67.7265 56.5268C68.7806 56.6297 69.871 56.6312 70.9353 56.5268C71.4675 56.4731 72.004 56.3934 72.5231 56.2904C73.0422 56.1875 73.5671 56.0555 74.0818 55.8989C74.5893 55.7452 75.0983 55.5625 75.6 55.3566C76.0901 55.1536 76.5787 54.9216 77.05 54.6708C77.5082 54.4257 77.9736 54.1473 78.4318 53.8414C78.8639 53.5528 79.2989 53.2295 79.7194 52.8844C80.1327 52.5451 80.5329 52.1826 80.907 51.8085C81.2912 51.4242 81.6552 51.0226 81.9887 50.6166C82.3236 50.2077 82.647 49.7727 82.9486 49.3217C83.2386 48.8867 83.517 48.4227 83.7736 47.9442C84.0245 47.4744 84.2565 46.9858 84.4609 46.4928C84.661 46.0099 84.8423 45.501 85.0018 44.979C85.1569 44.4657 85.2889 43.9408 85.3933 43.4188C85.4977 42.8953 85.576 42.3603 85.6282 41.8295C85.6818 41.2989 85.7079 40.7595 85.7079 40.223C85.7079 39.685 85.6818 39.1456 85.6282 38.6207C85.576 38.0842 85.4962 37.5492 85.3918 37.0257C85.2889 36.5052 85.1569 35.9803 85.0003 35.467C84.8437 34.9479 84.661 34.4389 84.4609 33.9546C84.2565 33.4616 84.0245 32.9715 83.7722 32.5003C83.5199 32.029 83.2429 31.565 82.9457 31.1213C82.6499 30.6791 82.328 30.2441 81.9872 29.8294C81.6494 29.4161 81.2854 29.0159 80.9084 28.6375C80.5329 28.2619 80.1312 27.898 79.7151 27.5558C79.3047 27.2194 78.8697 26.896 78.4246 26.5973C77.9794 26.3015 77.514 26.0231 77.0485 25.7737C76.5773 25.5214 76.0886 25.2909 75.5942 25.0864C75.1012 24.882 74.5922 24.6993 74.0818 24.5441C73.5656 24.3875 73.0422 24.2556 72.5231 24.1526C72.0011 24.0482 71.466 23.9699 70.9339 23.9177C70.3988 23.8612 69.858 23.8351 69.3244 23.8351Z" fill="#00CBB8"/>
<path d="M66.2072 49.877L57.5898 39.9953L61.0872 36.9445L66.7089 43.3912L78.7512 33.2615L81.7396 36.814L66.2072 49.877Z" fill="#00CBB8"/>
<path d="M111.77 92.6435C110.983 92.6435 110.187 92.6348 109.404 92.6174C108.65 92.6 107.883 92.5739 107.059 92.5377C106.23 92.4985 105.476 92.455 104.752 92.4028C104.027 92.3521 103.293 92.2912 102.515 92.2172C101.799 92.1491 101.074 92.0693 100.357 91.9809C99.6729 91.8968 98.9797 91.8011 98.2997 91.6952C97.5921 91.585 96.957 91.4763 96.3581 91.3632C95.7288 91.2428 95.1213 91.1167 94.5529 90.9848C93.9584 90.847 93.3973 90.7034 92.8854 90.557C92.3692 90.412 91.8617 90.2539 91.3847 90.0901C90.8989 89.9204 90.445 89.745 90.0274 89.5652C89.5881 89.3752 89.185 89.1766 88.8268 88.9779C88.4252 88.7517 88.083 88.5299 87.7741 88.295C87.4174 88.0224 87.1115 87.7368 86.8563 87.441C86.5503 87.0857 86.3082 86.7029 86.1386 86.3042C85.9428 85.8503 85.8398 85.3602 85.8398 84.8614C85.8398 84.3655 85.9414 83.8783 86.1415 83.4114C86.3068 83.0213 86.5489 82.6385 86.8563 82.2818C87.1057 81.9889 87.4174 81.6989 87.7741 81.4278C88.0888 81.1885 88.4426 80.9594 88.8268 80.7448C89.1937 80.5404 89.5953 80.3432 90.0245 80.1576C90.4392 79.9778 90.8815 79.8082 91.3774 79.6356C91.8457 79.4747 92.3518 79.3166 92.8854 79.1643C93.4132 79.0164 93.97 78.8743 94.5514 78.7395C95.1213 78.6075 95.7288 78.4799 96.361 78.361C96.9816 78.2421 97.6356 78.1305 98.3012 78.0275C98.9972 77.9217 99.6874 77.826 100.357 77.7433C101.027 77.6592 101.735 77.5824 102.515 77.5084C103.228 77.4388 103.984 77.3765 104.758 77.3229C105.48 77.2721 106.234 77.2271 107.056 77.1894C107.81 77.1546 108.6 77.1271 109.405 77.1082C110.928 77.072 112.608 77.072 114.141 77.1082C114.944 77.1256 115.734 77.1532 116.487 77.1894C117.308 77.2271 118.062 77.2721 118.79 77.3229C119.561 77.3765 120.316 77.4388 121.033 77.5084C121.809 77.5824 122.516 77.6592 123.19 77.7448C123.854 77.826 124.546 77.9217 125.239 78.0275C125.915 78.1319 126.569 78.245 127.185 78.3625C127.825 78.4843 128.432 78.6119 128.99 78.741C129.569 78.8744 130.127 79.0164 130.651 79.1643C131.183 79.3166 131.689 79.4732 132.157 79.6341C132.665 79.811 133.106 79.9807 133.516 80.159C133.942 80.3432 134.345 80.5404 134.714 80.7463C135.099 80.9609 135.453 81.1914 135.768 81.4307C136.123 81.7004 136.435 81.9919 136.693 82.292C136.993 82.64 137.235 83.0228 137.403 83.4215C137.602 83.8942 137.702 84.3771 137.702 84.8643C137.702 85.3544 137.602 85.8387 137.405 86.3042C137.234 86.7058 136.993 87.0886 136.686 87.4453C136.432 87.7396 136.126 88.0253 135.775 88.2935C135.459 88.5328 135.117 88.7561 134.722 88.9779C134.355 89.1824 133.951 89.381 133.514 89.5695C133.103 89.7479 132.647 89.9248 132.166 90.0916C131.673 90.2612 131.165 90.4178 130.651 90.5628C130.142 90.7078 129.581 90.8513 128.989 90.9876C128.431 91.1167 127.825 91.2443 127.184 91.3661C126.55 91.485 125.9 91.5967 125.244 91.6982C124.559 91.804 123.866 91.8997 123.183 91.9838C122.47 92.0722 121.745 92.1505 121.027 92.2201C120.251 92.2941 119.518 92.355 118.785 92.4057C118.065 92.4565 117.311 92.5014 116.486 92.5391C115.659 92.5768 114.892 92.6029 114.137 92.6189C113.352 92.6348 112.556 92.6435 111.77 92.6435ZM90.9772 84.8628C91.0149 84.8846 91.0541 84.9078 91.0947 84.931C91.3107 85.0513 91.5746 85.1804 91.8704 85.308C92.1807 85.4428 92.5287 85.5762 92.9013 85.7067C93.287 85.8401 93.709 85.9706 94.1483 86.0939C94.5949 86.2215 95.0807 86.3448 95.5998 86.4666C96.1073 86.584 96.6554 86.6985 97.2267 86.8073C97.7733 86.9117 98.3562 87.0117 99.0087 87.1118C99.6424 87.2104 100.286 87.2988 100.923 87.3771C101.597 87.4598 102.281 87.5352 102.956 87.599C103.694 87.67 104.388 87.7266 105.077 87.7744C105.769 87.8237 106.485 87.8658 107.272 87.902C108.057 87.9368 108.789 87.9615 109.507 87.9774C111.003 88.0108 112.534 88.0108 114.032 87.9774C114.753 87.9615 115.485 87.9368 116.271 87.9006C117.054 87.8643 117.772 87.8223 118.458 87.773C119.155 87.7252 119.848 87.6672 120.583 87.5976C121.259 87.5338 121.942 87.4583 122.615 87.3757C123.253 87.2974 123.897 87.209 124.532 87.1104C125.138 87.0161 125.74 86.9132 126.32 86.8044C126.894 86.6942 127.442 86.5796 127.941 86.4651C128.458 86.3447 128.944 86.2215 129.386 86.0953C129.824 85.9721 130.248 85.8401 130.649 85.7024C131.013 85.5762 131.36 85.4428 131.669 85.308C131.964 85.1804 132.228 85.0528 132.452 84.9266C132.489 84.9049 132.527 84.8831 132.563 84.8628C132.527 84.8411 132.491 84.8208 132.453 84.799C132.222 84.67 131.959 84.5424 131.673 84.4177C131.37 84.2872 131.025 84.1538 130.64 84.0204C130.258 83.8899 129.834 83.7565 129.388 83.6303C128.941 83.5042 128.452 83.3809 127.942 83.262C127.442 83.146 126.895 83.0315 126.315 82.9213C125.751 82.814 125.151 82.711 124.533 82.6153C123.888 82.5167 123.241 82.4268 122.616 82.35C121.983 82.2702 121.32 82.1978 120.585 82.1282C119.908 82.0615 119.196 82.0034 118.463 81.9527C117.769 81.9034 117.051 81.8613 116.267 81.8251C115.552 81.7917 114.799 81.7657 114.032 81.7483C112.565 81.7135 110.967 81.7135 109.511 81.7483C108.74 81.7657 107.989 81.7903 107.272 81.8251C106.486 81.8613 105.77 81.9034 105.081 81.9527C104.346 82.0034 103.634 82.0629 102.96 82.1282C102.221 82.1992 101.558 82.2717 100.927 82.35C100.298 82.4283 99.6511 82.5167 99.0029 82.6153C98.3954 82.7096 97.7951 82.8125 97.2267 82.9213C96.6539 83.03 96.1059 83.1446 95.5969 83.262C95.0865 83.3809 94.5978 83.5056 94.1454 83.6318C93.6988 83.7579 93.2754 83.8914 92.8926 84.0219C92.5171 84.1524 92.1691 84.2872 91.8661 84.4177C91.5804 84.5409 91.3179 84.67 91.0859 84.799C91.0482 84.8208 91.012 84.8411 90.9772 84.8628Z" fill="#00CBB8"/>
<path d="M111.77 136.333C105.326 136.333 99.2219 135.742 94.579 134.669C92.201 134.119 90.2957 133.459 88.9153 132.71C86.8722 131.599 85.8369 130.2 85.8369 128.551V117.63C85.8369 116.348 86.8766 115.31 88.1569 115.31C89.3155 115.31 90.2754 116.158 90.4494 117.267C91.2628 118.06 95.2982 119.734 103.789 120.507C105.065 120.623 106.006 121.751 105.89 123.028C105.774 124.304 104.645 125.248 103.369 125.129C98.7216 124.707 94.708 123.968 91.7602 122.99C91.4455 122.886 90.9931 122.737 90.4769 122.532V128.221C91.7935 129.471 99.1581 131.693 111.767 131.693C124.376 131.693 131.741 129.471 133.058 128.221V122.519C131.921 122.976 130.572 123.385 129.011 123.747C124.387 124.82 118.263 125.412 111.767 125.412C110.485 125.412 109.447 124.372 109.447 123.092C109.447 121.81 110.487 120.772 111.767 120.772C124.49 120.772 131.858 118.523 133.084 117.282C133.252 116.167 134.215 115.311 135.378 115.311C136.659 115.311 137.698 116.351 137.698 117.631V128.553C137.698 132.65 131.119 134.17 128.956 134.67C124.318 135.742 118.214 136.333 111.77 136.333Z" fill="#00CBB8"/>
<path d="M111.771 125.411C110.489 125.411 109.451 124.371 109.451 123.091C109.451 121.809 110.49 120.771 111.771 120.771C124.38 120.771 131.744 118.549 133.061 117.299V111.601C131.457 112.249 129.842 112.623 128.96 112.826C124.319 113.899 118.214 114.489 111.771 114.489C105.327 114.489 99.2209 113.899 94.5795 112.826C92.999 112.461 91.6273 112.047 90.4803 111.591V117.344C91.1879 118.01 94.6737 119.677 103.791 120.507C105.067 120.623 106.008 121.751 105.892 123.028C105.776 124.304 104.647 125.248 103.371 125.129C91.5736 124.056 85.8389 121.604 85.8389 117.631V106.708C85.8389 105.427 86.8785 104.388 88.1589 104.388C89.3189 104.388 90.2802 105.24 90.4513 106.352C91.6896 107.596 99.0687 109.851 111.769 109.851C124.47 109.851 131.849 107.596 133.087 106.352C133.26 105.24 134.221 104.39 135.38 104.39C136.661 104.39 137.7 105.43 137.7 106.71V117.633C137.7 121.73 131.119 123.25 128.958 123.75C124.319 124.819 118.214 125.411 111.771 125.411Z" fill="#00CBB8"/>
<path d="M111.77 114.488C105.326 114.488 99.2204 113.897 94.579 112.824C92.201 112.275 90.2942 111.615 88.9153 110.866C86.8737 109.755 85.8369 108.356 85.8369 106.705V95.7841C85.8369 94.5023 86.8766 93.4641 88.1569 93.4641C89.3169 93.4641 90.2783 94.3153 90.4494 95.426C91.6877 96.6701 99.0667 98.9248 111.767 98.9248C124.468 98.9248 131.847 96.6701 133.085 95.426C133.258 94.3153 134.219 93.4641 135.378 93.4641C136.659 93.4641 137.698 94.5038 137.698 95.7841V106.705C137.698 110.803 131.119 112.324 128.956 112.824C124.318 113.897 118.214 114.488 111.77 114.488ZM90.4798 106.375C91.795 107.625 99.1595 109.848 111.77 109.848C124.381 109.848 131.744 107.625 133.061 106.375V100.676C131.457 101.325 129.842 101.699 128.96 101.902C124.318 102.975 118.213 103.566 111.77 103.566C105.326 103.566 99.2219 102.975 94.579 101.902C92.9985 101.536 91.6268 101.123 90.4798 100.666V106.375Z" fill="#00CBB8"/>
<path d="M111.77 103.566C105.326 103.566 99.2219 102.975 94.579 101.902C92.201 101.352 90.2957 100.692 88.9153 99.9427C86.8722 98.832 85.8369 97.4328 85.8369 95.7842V84.8627C85.8369 83.5809 86.8766 82.5427 88.1569 82.5427C89.3169 82.5427 90.2768 83.3939 90.4494 84.5046C91.6877 85.7487 99.0667 88.0035 111.767 88.0035C124.468 88.0035 131.847 85.7502 133.085 84.5046C133.258 83.3939 134.219 82.5427 135.378 82.5427C136.659 82.5427 137.698 83.5824 137.698 84.8627V95.7842C137.698 99.8819 131.119 101.401 128.956 101.902C124.318 102.975 118.214 103.566 111.77 103.566ZM90.4798 95.4521C91.7964 96.702 99.161 98.9248 111.77 98.9248C124.379 98.9248 131.744 96.702 133.061 95.4521V89.7536C131.457 90.4018 129.842 90.7744 128.96 90.9789C124.318 92.0519 118.214 92.642 111.77 92.642C105.326 92.642 99.2219 92.0519 94.5804 90.9789C92.9999 90.6135 91.6282 90.2002 90.4798 89.7434V95.4521Z" fill="#00CBB8"/>
<path d="M121.739 34.075C121.739 34.075 121.736 34.075 121.734 34.075H101.125C99.8429 34.075 98.8047 33.0353 98.8047 31.755V11.1389C98.8047 10.2007 99.3702 9.35394 100.237 8.99434C101.104 8.63474 102.103 8.83341 102.766 9.49751L123.284 30.0223C123.761 30.4471 124.061 31.0662 124.061 31.755C124.059 33.0353 123.021 34.075 121.739 34.075ZM103.445 29.4335H116.132L103.445 16.7417V29.4335Z" fill="#00CBB8"/>
<path d="M112.045 42.2661H98.8047V48.272H112.045V42.2661Z" fill="#00CBB8"/>
<path d="M112.045 52.5059H98.8047V58.5132H112.045V52.5059Z" fill="#00CBB8"/>
<path d="M112.045 62.7458H98.8047V68.7517H112.045V62.7458Z" fill="#00CBB8"/>
</svg>
