<svg width="145" height="145" viewBox="0 0 145 145" fill="none" xmlns="http://www.w3.org/2000/svg">
<path d="M122.451 43.8202H8.46637C7.01877 43.8202 5.84375 42.6467 5.84375 41.1976C5.84375 39.75 7.01723 38.575 8.46637 38.575H122.451C123.899 38.575 125.074 39.7484 125.074 41.1976C125.072 42.6467 123.899 43.8202 122.451 43.8202Z" fill="#2F327D"/>
<path d="M95.3019 125.927H19.862C12.1327 125.927 5.8418 119.636 5.8418 111.904V33.1279C5.8418 25.394 12.1327 19.1016 19.862 19.1016H111.053C118.784 19.1016 125.073 25.394 125.073 33.1279V81.3946C125.073 82.8422 123.9 84.0172 122.451 84.0172C121.001 84.0172 119.828 82.8437 119.828 81.3946V33.1279C119.828 28.2861 115.892 24.3468 111.052 24.3468H19.8604C15.0202 24.3468 11.0839 28.2861 11.0839 33.1279V111.904C11.0839 116.744 15.0202 120.683 19.8604 120.683H95.3004C96.748 120.683 97.923 121.857 97.923 123.306C97.923 124.755 96.7495 125.927 95.3019 125.927Z" fill="#2F327D"/>
<path d="M35.4425 91.4586H22.274C20.8264 91.4586 19.6514 90.2851 19.6514 88.836V75.6644C19.6514 74.2168 20.8249 73.0417 22.274 73.0417H35.4425C36.8901 73.0417 38.0651 74.2152 38.0651 75.6644V88.836C38.0651 90.2851 36.8901 91.4586 35.4425 91.4586ZM24.8951 86.2134H32.8199V78.287H24.8951V86.2134Z" fill="#2F327D"/>
<path d="M59.8419 91.4586H46.6734C45.2258 91.4586 44.0508 90.2851 44.0508 88.836V75.6644C44.0508 74.2168 45.2243 73.0417 46.6734 73.0417H59.8419C61.2895 73.0417 62.4646 74.2152 62.4646 75.6644V88.836C62.4646 90.2851 61.2911 91.4586 59.8419 91.4586ZM49.296 86.2134H57.2209V78.287H49.296V86.2134Z" fill="#2F327D"/>
<path d="M84.2433 91.4586H71.0732C69.6272 91.4586 68.4521 90.2851 68.4521 88.836V75.6644C68.4521 74.2168 69.6256 73.0417 71.0732 73.0417H84.2433C85.6909 73.0417 86.8659 74.2152 86.8659 75.6644V88.836C86.8644 90.2851 85.6909 91.4586 84.2433 91.4586ZM73.6943 86.2134H81.6207V78.287H73.6943V86.2134Z" fill="#2F327D"/>
<path d="M35.4425 113.849H22.274C20.8264 113.849 19.6514 112.675 19.6514 111.226V98.0543C19.6514 96.6067 20.8249 95.4316 22.274 95.4316H35.4425C36.8901 95.4316 38.0651 96.6051 38.0651 98.0543V111.226C38.0651 112.675 36.8901 113.849 35.4425 113.849ZM24.8951 108.603H32.8199V100.677H24.8951V108.603Z" fill="#2F327D"/>
<path d="M59.8419 113.849H46.6734C45.2258 113.849 44.0508 112.675 44.0508 111.226V98.0543C44.0508 96.6067 45.2243 95.4316 46.6734 95.4316H59.8419C61.2895 95.4316 62.4646 96.6051 62.4646 98.0543V111.226C62.4646 112.675 61.2911 113.849 59.8419 113.849ZM49.296 108.603H57.2209V100.677H49.296V108.603Z" fill="#2F327D"/>
<path d="M35.4425 69.0684H22.274C20.8264 69.0684 19.6514 67.8949 19.6514 66.4458V53.2757C19.6514 51.8266 20.8249 50.6531 22.274 50.6531H35.4425C36.8901 50.6531 38.0651 51.8266 38.0651 53.2757V66.4458C38.0651 67.8949 36.8901 69.0684 35.4425 69.0684ZM24.8951 63.8247H32.8199V55.8983H24.8951V63.8247Z" fill="#2F327D"/>
<path d="M59.8419 69.0684H46.6734C45.2258 69.0684 44.0508 67.8949 44.0508 66.4458V53.2757C44.0508 51.8266 45.2243 50.6531 46.6734 50.6531H59.8419C61.2895 50.6531 62.4646 51.8266 62.4646 53.2757V66.4458C62.4646 67.8949 61.2911 69.0684 59.8419 69.0684ZM49.296 63.8247H57.2209V55.8983H49.296V63.8247Z" fill="#2F327D"/>
<path d="M84.2433 69.0684H71.0732C69.6272 69.0684 68.4521 67.8949 68.4521 66.4458V53.2757C68.4521 51.8266 69.6256 50.6531 71.0732 50.6531H84.2433C85.6909 50.6531 86.8659 51.8266 86.8659 53.2757V66.4458C86.8644 67.8949 85.6909 69.0684 84.2433 69.0684ZM73.6943 63.8247H81.6207V55.8983H73.6943V63.8247Z" fill="#2F327D"/>
<path d="M108.642 69.0684H95.4732C94.0256 69.0684 92.8506 67.8949 92.8506 66.4458V53.2757C92.8506 51.8266 94.0241 50.6531 95.4732 50.6531H108.642C110.089 50.6531 111.264 51.8266 111.264 53.2757V66.4458C111.264 67.8949 110.089 69.0684 108.642 69.0684ZM98.0943 63.8247H106.021V55.8983H98.0943V63.8247Z" fill="#2F327D"/>
<path d="M34.8072 31.3477C33.3596 31.3477 32.1846 30.1742 32.1846 28.7251V14.7235C32.1846 13.2759 33.3581 12.1008 34.8072 12.1008C36.2563 12.1008 37.4298 13.2743 37.4298 14.7235V28.7251C37.4283 30.1742 36.2548 31.3477 34.8072 31.3477Z" fill="#2F327D"/>
<path d="M65.4566 31.3477C64.009 31.3477 62.834 30.1742 62.834 28.7251V14.7235C62.834 13.2759 64.0075 12.1008 65.4566 12.1008C66.9042 12.1008 68.0792 13.2743 68.0792 14.7235V28.7251C68.0792 30.1742 66.9057 31.3477 65.4566 31.3477Z" fill="#2F327D"/>
<path d="M96.1074 31.3477C94.6598 31.3477 93.4863 30.1742 93.4863 28.7251V14.7235C93.4863 13.2759 94.6583 12.1008 96.1074 12.1008C97.5566 12.1008 98.73 13.2743 98.73 14.7235V28.7251C98.73 30.1742 97.555 31.3477 96.1074 31.3477Z" fill="#2F327D"/>
<path d="M113.886 133.895C98.2863 133.895 85.5967 121.201 85.5967 105.6C85.5967 89.997 98.2894 77.3059 113.886 77.3059C129.487 77.3059 142.176 89.9986 142.176 105.6C142.178 121.202 129.487 133.895 113.886 133.895ZM113.886 82.5496C101.18 82.5496 90.8404 92.8907 90.8404 105.6C90.8404 118.31 101.18 128.651 113.886 128.651C126.595 128.651 136.933 118.31 136.933 105.6C136.934 92.8907 126.595 82.5496 113.886 82.5496Z" fill="#2F327D"/>
<path d="M114.152 96.1632C112.704 96.1632 111.529 94.9897 111.529 93.5406V89.8338C111.529 88.3862 112.703 87.2112 114.152 87.2112C115.601 87.2112 116.773 88.3847 116.773 89.8338V93.5406C116.771 94.9897 115.6 96.1632 114.152 96.1632Z" fill="#2F327D"/>
<path d="M113.625 123.99C112.177 123.99 111.002 122.816 111.002 121.367V117.66C111.002 116.213 112.175 115.038 113.625 115.038C115.074 115.038 116.247 116.211 116.247 117.66V121.367C116.246 122.815 115.072 123.99 113.625 123.99Z" fill="#2F327D"/>
<path d="M113.272 120.289C113.115 120.289 112.961 120.286 112.806 120.277C109.211 120.096 105.035 117.683 105.096 111.474C105.109 110.034 106.282 108.878 107.717 108.878C107.727 108.878 107.734 108.878 107.744 108.878C109.191 108.89 110.354 110.076 110.34 111.525C110.319 113.795 111.212 114.944 113.071 115.036C115.005 115.13 117.098 113.912 117.218 112.612C117.221 112.578 117.225 112.544 117.23 112.509C117.587 109.785 113.448 108.135 112.613 107.832C111.159 107.302 109.043 106.431 107.47 104.961C105.474 103.099 104.748 100.632 105.432 98.0144C106.892 92.4119 111.62 90.4576 115.396 91.0089C119.845 91.6619 122.839 95.3163 122.674 99.8994C122.622 101.345 121.413 102.471 119.959 102.425C118.513 102.373 117.381 101.158 117.433 99.7099C117.515 97.4338 116.041 96.4036 114.637 96.1987C113.094 95.9708 111.199 96.6792 110.506 99.3373C110.326 100.023 109.995 101.298 114.407 102.902C119.987 104.932 122.983 108.756 122.435 113.14C122.001 117.517 117.452 120.289 113.272 120.289Z" fill="#2F327D"/>
</svg>
