<svg width="95" height="60" viewBox="0 0 95 60" fill="none" xmlns="http://www.w3.org/2000/svg">
<path d="M76.9487 52.333H47.4026C46.8201 52.333 46.3457 51.8644 46.3457 51.2862V49.1903C46.3457 47.4573 47.766 46.0475 49.5118 46.0475H74.8367C76.5825 46.0475 78.0027 47.4573 78.0027 49.1903V51.2862C78.0033 51.8644 77.533 52.333 76.9487 52.333ZM48.4572 50.2371H75.8918V49.1903C75.8918 48.6121 75.4175 48.1435 74.8372 48.1435H49.5124C48.9316 48.1435 48.4578 48.6121 48.4578 49.1903V50.2371H48.4572Z" fill="white"/>
<path d="M74.8379 48.1429C74.2553 48.1429 73.7832 47.672 73.7832 47.0938V7.2838C73.7832 5.55084 72.363 4.14106 70.6172 4.14106H53.7343C51.9885 4.14106 50.5682 5.55084 50.5682 7.2838V47.0938C50.5682 47.672 50.0961 48.1429 49.5136 48.1429C48.9311 48.1429 48.459 47.672 48.459 47.0938V7.2838C48.459 4.3978 50.824 2.04684 53.7349 2.04684H70.6177C73.5292 2.04684 75.8936 4.39837 75.8936 7.2838V47.0938C75.8925 47.672 75.4221 48.1429 74.8379 48.1429Z" fill="white"/>
<path d="M70.6162 20.905H53.7333C53.1508 20.905 52.6787 20.4342 52.6787 19.8559V7.28382C52.6787 6.7056 53.1508 6.237 53.7333 6.237H70.6162C71.1987 6.237 71.6731 6.7056 71.6731 7.28382V19.8559C71.6731 20.4342 71.201 20.905 70.6162 20.905ZM54.7879 18.8085H69.561V8.33292H54.7879V18.8085Z" fill="white"/>
<path d="M86.4438 48.1429C84.3002 48.1429 82.6528 47.5465 81.5473 46.3741C79.4197 44.1146 79.671 40.3215 79.9382 36.3046C80.0246 35.0045 80.1127 33.6879 80.1127 32.4258C80.1127 20.9005 76.1409 20.9005 74.8368 20.9005C74.2543 20.9005 73.7822 20.4319 73.7822 19.8536C73.7822 19.2754 74.2543 18.8068 74.8368 18.8068C82.2242 18.8068 82.2242 29.0575 82.2242 32.4258C82.2242 33.7361 82.1321 35.0942 82.0434 36.4421C81.8082 39.9921 81.5833 43.3461 83.086 44.9399C83.7869 45.684 84.8862 46.0447 86.4432 46.0447C87.46 46.0447 88.2091 45.7516 88.7338 45.145C90.5901 43.007 89.7323 37.3134 89.1058 33.1573C88.8105 31.1932 88.5553 29.4977 88.5553 28.2333V21.9479C88.5553 21.6167 88.7138 21.3038 88.981 21.1061C91.0404 19.5867 90.8693 18.3876 90.7332 17.4209C90.6931 17.1517 90.6651 16.9125 90.6651 16.7109C90.5203 16.0764 87.1511 10.2056 78.8212 8.3028C78.2547 8.1733 77.8988 7.61098 78.0298 7.04639C78.1626 6.48407 78.7228 6.13474 79.2979 6.26084C88.5982 8.38459 92.7789 15.1995 92.7789 16.7092C92.7789 16.829 92.8029 16.9682 92.8252 17.1278C92.986 18.2587 93.2773 20.3126 90.6674 22.4568V28.2345C90.6674 29.3415 90.9226 31.0444 91.1955 32.8472C91.9205 37.6576 92.8229 43.6483 90.3355 46.5122C89.397 47.5965 88.0912 48.1429 86.4438 48.1429Z" fill="white"/>
<path d="M89.6108 22.9987C89.3419 22.9987 89.0706 22.897 88.8635 22.6937C82.9684 16.8421 83.6877 13.7789 86.7537 10.7356C87.1657 10.3266 87.8346 10.3266 88.2443 10.7356C88.6563 11.1445 88.6563 11.8085 88.2443 12.2175C86.4584 13.9902 84.7704 15.6658 90.3558 21.2117C90.7678 21.6207 90.7678 22.2847 90.3558 22.6937C90.151 22.897 89.882 22.9987 89.6108 22.9987Z" fill="white"/>
<path d="M40.903 3.64465H24.2879C21.9258 3.64465 19.998 5.55824 19.998 7.91885L19.99 23.214C12.84 25.5564 6.89065 26.5237 4.45699 33.6759C3.79779 35.6077 3.07107 38.0206 2.32031 40.9844C2.87937 41.1451 3.4247 41.3405 3.95286 41.5694C4.70533 38.5852 5.43377 36.1638 6.0924 34.2303C8.24167 27.9409 13.5084 27.1462 19.998 25.0179V37.6678C18.5731 39.2651 16.8536 38.2563 14.8257 37.5134L14.2225 39.1106L16.5772 39.9734C18.6922 40.7527 21.0726 39.7615 21.9945 37.7093L27.8386 24.6516C29.403 21.164 34.7413 23.3787 33.3216 26.9417L21.46 56.8526C21.4554 56.8617 21.0217 57.825 19.5259 59.0729C20.1239 59.2984 20.7029 59.558 21.2586 59.8528C23.1263 58.1068 23.4433 56.5078 24.9071 52.8113C28.2517 54.6227 32.1783 51.8519 31.5597 48.1191C34.9467 48.6655 37.6459 45.5125 36.6479 42.3158H40.9035C43.2765 42.3158 45.2015 40.4022 45.2015 38.0416V7.91885C45.2009 5.55824 43.276 3.64465 40.903 3.64465ZM26.2552 23.9518L21.7095 34.1025L21.7175 7.90863C21.7175 6.49942 22.8711 5.34695 24.2879 5.34695H34.6114V23.5156C32.7025 20.2314 27.8117 20.4722 26.2552 23.9518ZM34.6114 28.3174V40.5987H29.7366L34.6114 28.3174ZM25.5337 51.2118C25.5337 51.2039 27.7773 45.5733 27.7773 45.5625L29.0757 46.8541C31.475 49.2306 28.3621 53.0419 25.5337 51.2118ZM30.2951 45.6414L28.4646 43.8193C28.4646 43.8193 29.0574 42.3164 29.0677 42.3084H34.7905C36.3652 45.1365 32.5731 47.9049 30.2951 45.6414ZM43.4814 38.0342C43.4814 39.3258 42.5098 40.5987 40.7319 40.5987V5.34638C42.5098 5.34638 43.4814 6.62722 43.4814 7.90806V38.0342Z" fill="white"/>
</svg>
