<svg width="67" height="67" viewBox="0 0 67 67" fill="none" xmlns="http://www.w3.org/2000/svg">
<path d="M14.5024 44.231C13.1072 42.7905 11.2616 41.9968 9.30611 41.9968C5.33613 41.9968 2.07768 45.2671 1.88919 49.4432C1.66452 54.4209 5.66977 59.9783 8.07753 62.8483C8.42883 63.2664 8.83108 63.4813 9.27462 63.49C9.28355 63.49 9.29137 63.49 9.29918 63.49C9.7358 63.49 10.144 63.2821 10.513 62.8738C12.4341 60.7387 16.8838 55.1724 16.7279 49.5863C16.6719 47.5574 15.8819 45.6548 14.5024 44.231ZM9.3148 61.2901C7.41513 58.9755 3.64058 53.8096 3.83376 49.5314C3.97513 46.3985 6.37886 43.9454 9.30586 43.9454C12.2887 43.9454 14.6936 46.4474 14.7838 49.6413C14.9156 54.3903 10.9123 59.4621 9.3148 61.2901Z" fill="#005494"/>
<path d="M9.30612 45.7048C7.32805 45.7048 5.71893 47.3149 5.71893 49.2961C5.71893 51.2761 7.32805 52.8872 9.30612 52.8872C11.2842 52.8872 12.8924 51.2761 12.8924 49.2961C12.8922 47.3151 11.2842 45.7048 9.30612 45.7048ZM9.30612 50.9395C8.40139 50.9395 7.66549 50.2017 7.66549 49.2961C7.66549 48.3893 8.40139 47.6525 9.30612 47.6525C10.2117 47.6525 10.9467 48.3893 10.9467 49.2961C10.9476 50.2017 10.2117 50.9395 9.30612 50.9395Z" fill="#005494"/>
<path d="M61.1896 31.6961H52.0488V30.6679C52.0488 29.2696 50.9124 28.1324 49.5173 28.1324H42.3409V24.977C42.3409 23.5778 41.2037 22.4405 39.8065 22.4405H17.3184C15.9221 22.4405 14.7861 23.5778 14.7861 24.977V31.6961H6.63728C7.15139 17.3521 18.9671 5.84062 33.4181 5.84062C38.065 5.84062 42.6442 7.05155 46.6602 9.3425C47.1283 9.60737 47.7219 9.44545 47.9877 8.97757C48.2537 8.51058 48.0898 7.91585 47.6228 7.64896C43.3133 5.19207 38.4024 3.89294 33.4181 3.89294C25.7401 3.89294 18.5215 6.88561 13.0936 12.3215C7.66373 17.7564 4.67395 24.9839 4.67395 32.6697C4.67395 33.2072 5.10968 33.6441 5.64724 33.6441H14.7861V37.82C14.7861 39.2192 15.9224 40.3564 17.3184 40.3564H20.5849C21.0079 41.8232 22.3588 42.8997 23.9613 42.8997C25.5597 42.8997 26.9126 41.8232 27.3365 40.3564H42.8472C43.2702 41.8232 44.6223 42.8997 46.2225 42.8997C47.8238 42.8997 49.1778 41.8214 49.5988 40.3515C50.9578 40.3084 52.0499 39.1917 52.0499 37.82V33.6441H60.1987C59.6834 47.9881 47.8689 59.4996 33.4179 59.4996C29.3519 59.4996 25.3651 58.5803 21.7415 56.8238L24.1661 56.4118C24.6969 56.3215 25.054 55.819 24.9627 55.2882C24.8734 54.7573 24.372 54.4011 23.8422 54.4916L18.6665 55.3697C18.6587 55.3706 18.6517 55.3737 18.6448 55.3746C18.6213 55.3784 18.5977 55.3844 18.5742 55.3903C18.5635 55.3943 18.5526 55.3972 18.5419 55.4001C18.5184 55.407 18.4956 55.4157 18.4713 55.4247C18.4623 55.4287 18.4536 55.4325 18.4447 55.4365C18.4163 55.4483 18.3869 55.4619 18.3594 55.4767C18.3574 55.4787 18.3554 55.4787 18.3525 55.4807C18.2917 55.516 18.2327 55.5573 18.1798 55.6054C18.1749 55.6094 18.1691 55.6151 18.1631 55.6209C18.1434 55.6386 18.1258 55.6583 18.1072 55.6779C18.0994 55.6857 18.0916 55.6955 18.0856 55.7045C18.0699 55.7221 18.0552 55.7398 18.0405 55.7594C18.0335 55.7702 18.0257 55.7811 18.0188 55.7927C18.013 55.8016 18.0061 55.8084 18.0012 55.8173C17.9942 55.828 17.9893 55.8399 17.9835 55.8497C17.9795 55.8566 17.9746 55.8624 17.9708 55.8702C17.9688 55.8742 17.9679 55.88 17.9639 55.884C17.9531 55.9066 17.9422 55.9292 17.9335 55.9518C17.9295 55.9616 17.9257 55.9702 17.9216 55.9792C17.9098 56.0095 17.8991 56.039 17.8913 56.0694C17.8913 56.0723 17.8893 56.0752 17.8893 56.0772C17.8696 56.1478 17.8598 56.2186 17.8569 56.2883C17.8569 56.2961 17.8569 56.3039 17.8569 56.3117C17.8569 56.3383 17.8569 56.3646 17.8578 56.3912C17.8598 56.4019 17.8607 56.4129 17.8607 56.4245C17.8636 56.448 17.8656 56.4705 17.8696 56.4931C17.8716 56.5058 17.8745 56.5177 17.8774 56.5295C17.8814 56.5529 17.8873 56.5757 17.8942 56.5983C17.8971 56.609 17.8991 56.6188 17.9029 56.6298C17.9127 56.6601 17.9234 56.6905 17.9373 56.72C17.9382 56.722 17.9382 56.724 17.9393 56.7258V56.7278C17.9413 56.7287 17.9422 56.7307 17.9422 56.7327L20.0703 61.5288C20.2332 61.8908 20.5885 62.1077 20.9603 62.1077C21.0939 62.1077 21.2263 62.0802 21.3559 62.0232C21.8474 61.8044 22.0672 61.2284 21.8494 60.7368L20.8897 58.5743C24.7762 60.4602 29.0553 61.4473 33.4176 61.4473C41.0954 61.4473 48.3151 58.4537 53.7432 53.0189C59.1711 47.5841 62.1618 40.3575 62.1618 32.6699C62.162 32.1319 61.7265 31.6961 61.1896 31.6961ZM23.9601 40.9508C23.0947 40.9508 22.3921 40.2463 22.3921 39.382C22.3921 38.5165 23.0947 37.8121 23.9601 37.8121C24.8247 37.8121 25.527 38.5165 25.527 39.382C25.527 40.2463 24.8247 40.9508 23.9601 40.9508ZM40.3941 38.4075H38.6497H27.3354C26.9115 36.9396 25.5594 35.8634 23.9601 35.8634C22.3588 35.8634 21.0077 36.9398 20.5838 38.4075H17.3184C16.9995 38.4075 16.7317 38.1386 16.7317 37.8197V24.9758C16.7317 24.658 16.9995 24.3891 17.3184 24.3891H39.8065C40.1243 24.3891 40.3943 24.658 40.3943 24.9758L40.3941 38.4075ZM46.2216 40.9508C45.3561 40.9508 44.6535 40.2463 44.6535 39.382C44.6535 38.5165 45.3561 37.8121 46.2216 37.8121C47.0861 37.8121 47.7885 38.5165 47.7885 39.382C47.7885 40.2463 47.0859 40.9508 46.2216 40.9508ZM50.1042 37.82H50.1033C50.1033 38.1123 49.8786 38.3595 49.595 38.3988C49.1702 36.9358 47.8191 35.8634 46.2218 35.8634C44.6225 35.8634 43.2704 36.9398 42.8465 38.4075H42.3411V30.0801H49.5175C49.8353 30.0801 50.1042 30.3499 50.1042 30.6679V37.82Z" fill="#005494"/>
<path d="M63.9104 9.22595H52.2891C51.0842 9.22595 50.1031 10.2975 50.1031 11.6152V23.0255C50.1031 24.3431 51.0833 25.4156 52.2891 25.4156H63.9104C65.1153 25.4156 66.0964 24.3431 66.0964 23.0255V11.6152C66.0966 10.2973 65.1153 9.22595 63.9104 9.22595ZM56.5103 11.1736H59.6894V14.8805L58.7876 13.9778C58.4068 13.597 57.7927 13.597 57.4119 13.9778L56.5103 14.8805V11.1736ZM64.1499 23.0255C64.1499 23.2953 63.9929 23.467 63.9104 23.467H52.2891C52.2058 23.467 52.0488 23.2953 52.0488 23.0255V11.6152C52.0488 11.3454 52.2058 11.1736 52.2891 11.1736H54.5655V17.2324C54.5655 17.626 54.802 17.9811 55.1649 18.1323C55.529 18.2835 55.948 18.199 56.2247 17.9212L58.0998 16.0441L59.9749 17.9212C60.1602 18.1066 60.4086 18.2057 60.6627 18.2057C60.7882 18.2057 60.914 18.1823 61.0346 18.132C61.3977 17.9808 61.6351 17.6257 61.6351 17.2322V11.1734H63.9104C63.9937 11.1734 64.1499 11.3452 64.1499 11.615V23.0255Z" fill="#005494"/>
</svg>
