<svg width="62" height="62" viewBox="0 0 62 62" fill="none" xmlns="http://www.w3.org/2000/svg">
<g clip-path="url(#clip0_1_333)">
<path d="M31.2997 54.6039C31.7925 55.321 32.3401 55.999 32.9375 56.6318C31.8913 57.3009 30.8192 57.9596 29.6567 58.5951L28.4167 59.2668L27.1767 58.5951C5.51026 46.7712 4.10234 28.507 5.58001 12.201L5.78151 9.95613L8.03159 9.84246C16.5876 9.41621 22.6791 7.42963 26.66 3.77163L28.4167 2.16479L30.1733 3.77938C34.1517 7.4348 40.2432 9.42138 48.7992 9.85021L51.0467 9.96388L51.2508 12.2088C51.8733 17.952 51.7918 23.7498 51.0079 29.4732C50.1839 29.1635 49.3364 28.9199 48.4737 28.7447C49.1954 23.3381 49.2639 17.8643 48.6778 12.4413L48.6674 12.431C39.4863 11.9685 32.8652 9.76238 28.4244 5.68071L28.4167 5.67296L28.4115 5.67813C23.9682 9.7598 17.3471 11.966 8.16592 12.4284L8.15559 12.4335C6.75026 27.9077 8.06259 45.2212 28.4115 56.3244L28.4167 56.327H28.4218C29.4397 55.769 30.3748 55.1903 31.2997 54.6039ZM58.9 45.2083C58.9 47.9163 58.097 50.5634 56.5925 52.815C55.0881 55.0666 52.9497 56.8215 50.4479 57.8577C47.9461 58.894 45.1931 59.1652 42.5372 58.6369C39.8813 58.1086 37.4417 56.8046 35.5269 54.8898C33.6121 52.975 32.3081 50.5353 31.7798 47.8794C31.2515 45.2235 31.5226 42.4705 32.5589 39.9687C33.5952 37.4669 35.3501 35.3286 37.6017 33.8241C39.8532 32.3196 42.5004 31.5166 45.2083 31.5166C48.8383 31.5207 52.3185 32.9646 54.8853 35.5314C57.4521 38.0982 58.8959 41.5783 58.9 45.2083ZM56.3167 45.2083C56.3167 43.0113 55.6652 40.8636 54.4446 39.0368C53.224 37.2101 51.4891 35.7863 49.4593 34.9455C47.4295 34.1048 45.196 33.8848 43.0412 34.3134C40.8864 34.742 38.9071 35.8 37.3536 37.3535C35.8 38.907 34.7421 40.8864 34.3134 43.0412C33.8848 45.196 34.1048 47.4295 34.9456 49.4593C35.7863 51.4891 37.2101 53.2239 39.0369 54.4445C40.8636 55.6651 43.0113 56.3166 45.2083 56.3166C48.1536 56.3139 50.9775 55.1427 53.0601 53.0601C55.1427 50.9774 56.3139 48.1536 56.3167 45.2083ZM41.0078 41.0078C41.8338 40.1763 42.8887 39.6097 44.0381 39.3803C44.6054 39.2693 45.1854 39.2389 45.7612 39.2899L46.004 36.7195C45.1789 36.6402 44.3466 36.6837 43.5343 36.8486C41.9539 37.1662 40.4958 37.9248 39.3286 39.0366C38.1614 40.1485 37.3329 41.5682 36.9391 43.1313L39.4449 43.759C39.7072 42.7174 40.2473 41.7664 41.0078 41.0078ZM53.0462 41.8422L50.6695 42.8626C51.1424 43.9539 51.275 45.1625 51.0501 46.3304C50.8252 47.4983 50.2532 48.5712 49.4088 49.4088C48.2768 50.4884 46.7726 51.0907 45.2083 51.0907C43.6441 51.0907 42.1398 50.4884 41.0078 49.4088L39.1814 51.2352C40.5826 52.6375 42.4287 53.5076 44.4021 53.6958C46.3755 53.8841 48.3528 53.3788 49.9938 52.2668C51.6349 51.1548 52.8372 49.5056 53.3938 47.6031C53.9504 45.7005 53.8291 43.6634 53.0462 41.8422Z" fill="#005494"/>
</g>
<defs>
<clipPath id="clip0_1_333">
<rect width="62" height="62" fill="white"/>
</clipPath>
</defs>
</svg>
