<svg width="66" height="67" viewBox="0 0 66 67" fill="none" xmlns="http://www.w3.org/2000/svg">
<path d="M44.9073 8.6634H44.9632V7.79463C44.9632 5.62562 43.2261 3.86108 41.0965 3.86108H7.23096C5.10026 3.86108 3.36426 5.62562 3.36426 7.79463V59.2067C3.36426 61.3757 5.10026 63.1402 7.23096 63.1402H41.0965C43.2261 63.1402 44.9632 61.3757 44.9632 59.2067V49.5484H44.9073C44.301 49.5484 43.7026 49.5204 43.1114 49.4679V59.2067C43.1114 60.3421 42.2079 61.2584 41.0965 61.2584H7.23096C6.11952 61.2584 5.216 60.3423 5.216 59.2067V7.79463C5.216 6.65921 6.11952 5.74287 7.23096 5.74287H41.0965C42.2079 5.74287 43.1114 6.65898 43.1114 7.79463V8.7438C43.7026 8.69333 44.3007 8.6634 44.9073 8.6634Z" fill="#005494"/>
<path d="M32.9846 12.6494C33.9378 11.9341 34.952 11.3038 36.0259 10.7676H7.88898V19.5839H27.108C27.4457 18.9342 27.8157 18.3093 28.2143 17.7021H9.73961V12.6496L32.9846 12.6494Z" fill="#005494"/>
<path d="M25.5209 23.6397C25.6953 22.9994 25.9002 22.3694 26.1353 21.7568H7.88873V26.1525H24.9975C25.0888 25.5153 25.2094 24.8862 25.3585 24.2687H9.73961V23.6397H25.5209Z" fill="#005494"/>
<path d="M12.8174 34.8926H16.6721V30.9756H12.8174V34.8926ZM18.5236 36.7735H10.9657V29.0938H18.5236V36.7735Z" fill="#005494"/>
<path d="M25.6122 34.8926H22.2455V30.9745H24.873C24.8162 30.3579 24.7879 29.7361 24.7879 29.1061V29.0918H20.3949V36.7756H26.2603C26.0106 36.1632 25.7926 35.532 25.6122 34.8926Z" fill="#005494"/>
<path d="M12.8174 44.6335H16.6721V40.7153H12.8174V44.6335ZM18.5236 46.5133H10.9657V38.8335H18.5236V46.5133Z" fill="#005494"/>
<path d="M26.1039 44.6313H22.2453V40.7174H26.1039V44.6313ZM27.2153 38.8345H20.3947V46.5131H27.9547V40.1048C27.6971 39.6921 27.4507 39.2689 27.2153 38.8345Z" fill="#005494"/>
<path d="M31.8355 44.6315H31.6785V44.4946C31.0202 43.9119 30.4047 43.2859 29.8256 42.623V46.5133H34.3717C33.4794 45.9543 32.6275 45.3234 31.8355 44.6315Z" fill="#005494"/>
<path d="M12.8174 54.3494H16.6721V50.4323H12.8174V54.3494ZM18.5236 56.2323H10.9657V48.5505H18.5236V56.2323Z" fill="#005494"/>
<path d="M22.2473 54.3494H26.1028V50.4323H22.2473V54.3494ZM27.9536 56.2323H20.3947V48.5505H27.9536V56.2323Z" fill="#005494"/>
<path d="M31.6765 54.3494H35.532V50.4323H31.6765V54.3494ZM37.3826 56.2323H29.8245V48.5505H37.3826V56.2323Z" fill="#005494"/>
<path d="M41.2626 49.2084V55.6549C41.2626 57.8199 39.5265 59.5842 37.3919 59.5842H27.6971V57.7013H37.3919C38.5084 57.7013 39.4108 56.7841 39.4108 55.6547V48.7717C40.0174 48.9468 40.6329 49.0962 41.2626 49.2084Z" fill="#005494"/>
<path d="M51.4652 15.1343C50.7513 15.1343 50.1672 14.5413 50.1672 13.8175C50.1672 13.0897 50.7513 12.5007 51.4652 12.5007C52.1822 12.5007 52.7613 13.0897 52.7613 13.8175C52.7613 14.5413 52.1822 15.1343 51.4652 15.1343ZM51.4652 10.4309C49.6267 10.4309 48.1298 11.9505 48.1298 13.8178C48.1298 15.6853 49.6267 17.2046 51.4652 17.2046C53.3027 17.2046 54.7985 15.6851 54.7985 13.8178C54.7987 11.9503 53.3029 10.4309 51.4652 10.4309Z" fill="#005494"/>
<path d="M59.9572 23.7594C59.2383 23.7594 58.6592 23.1665 58.6592 22.4417C58.6592 21.717 59.2383 21.125 59.9572 21.125C60.6692 21.125 61.2533 21.717 61.2533 22.4417C61.2533 23.1665 60.6692 23.7594 59.9572 23.7594ZM59.9572 19.0547C58.1176 19.0547 56.6218 20.5742 56.6218 22.4415C56.6218 24.3099 58.1176 25.8295 59.9572 25.8295C61.7947 25.8295 63.2905 24.3099 63.2905 22.4415C63.2905 20.5742 61.7947 19.0547 59.9572 19.0547Z" fill="#005494"/>
<path d="M44.9073 46.0449C35.7157 46.0449 28.2377 38.4464 28.2377 29.1062C28.2377 20.4042 34.7318 13.2135 43.0544 12.2735V30.9891H61.4744C60.5495 39.4451 53.4721 46.0449 44.9073 46.0449ZM44.9062 29.1064V10.2881C34.6782 10.2881 26.3848 18.7142 26.3848 29.1064C26.3848 39.4996 34.678 47.9258 44.9062 47.9258C55.1353 47.9258 63.4284 39.4996 63.4284 29.1064H44.9062Z" fill="#005494"/>
<path d="M63.2298 11.9503L49.6318 25.7717L48.1908 24.3049L61.7897 10.4866L63.2298 11.9503Z" fill="#005494"/>
</svg>
