<svg width="69" height="69" viewBox="0 0 69 69" fill="none" xmlns="http://www.w3.org/2000/svg">
<path d="M56.7373 45.6787C56.1237 45.6775 55.5146 45.7297 54.9104 45.8344C54.3062 45.939 53.7147 46.0947 53.1369 46.3004C52.5594 46.5071 52.0039 46.7617 51.4703 47.064C50.9369 47.3673 50.4326 47.7126 49.9583 48.1017L45.8618 44.0155C46.1313 43.7041 46.3859 43.381 46.6254 43.0463C46.8659 42.7117 47.0902 42.3676 47.2995 42.0132C47.51 41.6587 47.7027 41.2962 47.8793 40.9243C48.0571 40.5524 48.2174 40.1736 48.3605 39.7877C48.5036 39.402 48.6301 39.0103 48.7382 38.6128C48.8474 38.2154 48.938 37.8145 49.01 37.4088C49.0832 37.0045 49.1379 36.5965 49.1751 36.1864C49.2113 35.776 49.2297 35.3659 49.2297 34.9533C49.2297 34.5418 49.211 34.1318 49.1751 33.7214C49.1379 33.3111 49.0834 32.9033 49.01 32.4976C48.938 32.0933 48.8474 31.691 48.7382 31.2947C48.6301 30.8973 48.5033 30.5056 48.3605 30.1199C48.2177 29.7341 48.0571 29.3551 47.8793 28.9832C47.7027 28.6113 47.5097 28.2488 47.2995 27.8944C47.0904 27.5399 46.8659 27.1947 46.6254 26.8612C46.3859 26.5266 46.1316 26.2034 45.8618 25.8909L49.3366 22.416C49.9434 22.8889 50.6009 23.2737 51.3112 23.5688C52.02 23.8627 52.7569 24.058 53.5192 24.1534V26.5243C53.3529 26.5673 53.1891 26.6206 53.0288 26.6834C52.8685 26.7462 52.7116 26.8182 52.5605 26.8996C52.4083 26.9811 52.2618 27.0717 52.1212 27.1703C51.9807 27.2702 51.8457 27.3771 51.718 27.4935C51.5902 27.6085 51.4694 27.7318 51.3567 27.8608C51.2429 27.991 51.1382 28.1281 51.0418 28.27C50.9455 28.4128 50.8572 28.5604 50.778 28.7139C50.6989 28.8673 50.6304 29.0241 50.5701 29.1856C50.5108 29.3471 50.4609 29.5122 50.4201 29.6794C50.3806 29.848 50.3505 30.0163 50.3307 30.1884C50.3109 30.3593 50.3017 30.5313 50.3028 30.7031C50.304 30.8749 50.3146 31.0472 50.3367 31.2179C50.3587 31.3888 50.39 31.5583 50.433 31.7257C50.4749 31.8918 50.5259 32.0558 50.5887 32.2172C50.6504 32.3775 50.7212 32.5344 50.8026 32.6867C50.8829 32.8389 50.9724 32.9854 51.071 33.1271C51.1697 33.2688 51.2755 33.4038 51.3908 33.5326C51.5058 33.6605 51.6279 33.7824 51.7569 33.8965C51.8859 34.0103 52.0219 34.1161 52.1635 34.2136C52.3052 34.3114 52.4529 34.3997 52.6063 34.4797C52.7586 34.5588 52.9154 34.6297 53.0769 34.6902C53.2383 34.7518 53.4023 34.8029 53.5695 34.8436C53.737 34.8843 53.9065 34.9156 54.0774 34.9365C54.2483 34.9563 54.4203 34.9669 54.5921 34.9669C54.7639 34.9669 54.9362 34.9563 55.1069 34.9365C55.2789 34.9156 55.4473 34.8843 55.6147 34.8436C55.7821 34.8029 55.947 34.7518 56.1073 34.6902C56.2688 34.6297 56.4257 34.5588 56.5791 34.4797C56.7313 34.3995 56.879 34.3111 57.0207 34.2136C57.1624 34.1161 57.2985 34.0103 57.4273 33.8965C57.5575 33.7826 57.6794 33.6605 57.7935 33.5326C57.9085 33.4036 58.0154 33.2688 58.1132 33.1271C58.2121 32.9854 58.3016 32.8389 58.3827 32.6867C58.463 32.5344 58.5339 32.3775 58.5966 32.2172C58.6583 32.0558 58.7093 31.8918 58.7523 31.7257C58.7942 31.5583 58.8255 31.3888 58.8476 31.2179C58.8697 31.047 58.8814 30.8752 58.8814 30.7031C58.8825 30.5311 58.8733 30.359 58.8535 30.1884C58.8338 30.0163 58.8048 29.848 58.7641 29.6794C58.7245 29.512 58.6746 29.3471 58.6141 29.1856C58.5548 29.0241 58.4851 28.8673 58.4062 28.7139C58.3271 28.5604 58.2388 28.4128 58.1424 28.27C58.046 28.1283 57.9414 27.991 57.8275 27.8608C57.7148 27.7318 57.5938 27.6087 57.4662 27.4935C57.3383 27.3773 57.2035 27.2704 57.063 27.1703C56.9225 27.0714 56.776 26.9808 56.6237 26.8996C56.4726 26.8182 56.3169 26.7462 56.1554 26.6834C55.9951 26.6206 55.8323 26.5673 55.6651 26.5243V24.1534C55.9289 24.121 56.1915 24.0755 56.4508 24.0187C56.7111 23.9605 56.968 23.8919 57.2212 23.8107C57.4747 23.7293 57.7233 23.6364 57.9685 23.5317C58.2137 23.4271 58.4531 23.3121 58.6868 23.1853C58.9205 23.0586 59.1482 22.9216 59.3701 22.7727C59.5909 22.6251 59.8048 22.4671 60.0116 22.2996C60.2184 22.131 60.4159 21.9544 60.6066 21.7685C60.7961 21.5816 60.9774 21.3874 61.1494 21.1839C61.3214 20.9806 61.4841 20.7701 61.6363 20.5516C61.7886 20.3331 61.9303 20.1089 62.0616 19.8775C62.1929 19.6461 62.3137 19.4092 62.4229 19.1663C62.5322 18.9234 62.6297 18.676 62.7169 18.4248C62.8029 18.1725 62.8772 17.9181 62.94 17.6589C63.0028 17.3997 63.0527 17.1393 63.0911 16.8755C63.1295 16.6129 63.1562 16.3479 63.1702 16.0818C63.1831 15.8157 63.1854 15.5507 63.1736 15.2846C63.1633 15.0185 63.1398 14.7535 63.1039 14.4897C63.0678 14.2259 63.0202 13.9644 62.9597 13.7052C62.9004 13.446 62.8284 13.1905 62.7447 12.937C62.661 12.6849 62.5657 12.4361 62.4588 12.1932C62.3518 11.9492 62.2334 11.7109 62.1044 11.4783C61.9753 11.2447 61.836 11.0193 61.6848 10.7996C61.5349 10.58 61.3757 10.3672 61.2048 10.1628C61.0351 9.95713 60.8562 9.76071 60.668 9.57234C60.4797 9.38397 60.2835 9.20503 60.0788 9.03552C59.8743 8.86578 59.6615 8.70546 59.4419 8.5555C59.2222 8.40554 58.9957 8.26617 58.7632 8.13714C58.5295 8.00696 58.2914 7.88966 58.0485 7.78271C57.8045 7.67576 57.5559 7.58055 57.3036 7.49683C57.0515 7.41311 56.7946 7.34111 56.5354 7.28062C56.2762 7.22013 56.0147 7.17253 55.7509 7.1378C55.487 7.10169 55.2221 7.07846 54.9571 7.06696C54.691 7.05661 54.4249 7.05776 54.1588 7.07156C53.8938 7.08559 53.6289 7.11112 53.3651 7.14953C53.1024 7.18794 52.8409 7.23785 52.5817 7.30064C52.3236 7.36343 52.0681 7.43771 51.8169 7.52488C51.5649 7.6109 51.3171 7.70841 51.0743 7.81766C50.8325 7.92691 50.5954 8.04767 50.3643 8.179C50.1317 8.31033 49.9075 8.45201 49.689 8.60542C49.4705 8.75768 49.26 8.91913 49.0567 9.09117C48.8545 9.26321 48.6593 9.44447 48.4732 9.63399C48.2862 9.82466 48.1096 10.0234 47.9421 10.229C47.7735 10.4358 47.6155 10.6497 47.4679 10.8716C47.3202 11.0924 47.1831 11.3201 47.0564 11.5538C46.9297 11.7886 46.8135 12.0281 46.7089 12.2721C46.6042 12.5173 46.5124 12.7659 46.431 13.0205C46.3496 13.274 46.2799 13.5295 46.2231 13.7899C46.1649 14.0502 46.1196 14.3117 46.0872 14.5755H43.7175C43.6733 14.4092 43.6211 14.2455 43.5583 14.0852C43.4955 13.9249 43.4235 13.7691 43.341 13.6169C43.2596 13.4646 43.1689 13.3181 43.0703 13.1776C42.9716 13.0371 42.8635 12.902 42.7483 12.7744C42.6321 12.6465 42.51 12.5258 42.3798 12.4131C42.2496 12.3004 42.1137 12.1946 41.9706 12.0982C41.8276 12.0018 41.6801 11.9135 41.5267 11.8344C41.3733 11.7564 41.2165 11.6867 41.055 11.6265C40.8935 11.5671 40.7284 11.5172 40.5612 11.4765C40.3938 11.437 40.2242 11.4068 40.0534 11.387C39.8813 11.3673 39.7104 11.3581 39.5375 11.3592C39.3654 11.3604 39.1934 11.3721 39.0227 11.3928C38.8518 11.4149 38.6835 11.4475 38.516 11.4892C38.3486 11.5308 38.1848 11.5832 38.0245 11.6449C37.8631 11.7065 37.706 11.7774 37.5539 11.8588C37.4017 11.939 37.2552 12.0285 37.1135 12.1272C36.973 12.2261 36.8368 12.3317 36.7092 12.4469C36.5801 12.5619 36.4594 12.684 36.3453 12.813C36.2312 12.9421 36.1256 13.078 36.0281 13.2197C35.9306 13.3627 35.8409 13.509 35.762 13.6624C35.6817 13.8147 35.6121 13.9715 35.5504 14.133C35.4899 14.2945 35.4389 14.4585 35.397 14.6257C35.3563 14.7931 35.3262 14.9626 35.3052 15.1335C35.2843 15.3044 35.2739 15.4764 35.2739 15.6482C35.2739 15.8214 35.2843 15.9923 35.3052 16.1641C35.3262 16.335 35.3563 16.5034 35.397 16.6708C35.4389 16.8383 35.4899 17.0032 35.5504 17.1646C35.6121 17.3249 35.6817 17.4818 35.762 17.6352C35.8411 17.7875 35.9306 17.9352 36.0281 18.0768C36.1256 18.2185 36.2314 18.3547 36.3453 18.4848C36.4591 18.6139 36.5801 18.7358 36.7092 18.8499C36.837 18.9649 36.973 19.0718 37.1135 19.1707C37.2552 19.2682 37.4017 19.3577 37.5539 19.4391C37.7062 19.5194 37.8631 19.5914 38.0245 19.653C38.1848 19.7146 38.3488 19.7669 38.516 19.8087C38.6832 19.8506 38.8518 19.883 39.0227 19.9039C39.1936 19.926 39.3657 19.9378 39.5375 19.9389C39.7107 19.9389 39.8815 19.9297 40.0534 19.9111C40.2242 19.8913 40.3938 19.8612 40.5612 19.8204C40.7286 19.7809 40.8935 19.731 41.055 19.6705C41.2165 19.6112 41.3733 19.5415 41.5267 19.4626C41.6801 19.3834 41.8278 19.2963 41.9706 19.1988C42.1135 19.1024 42.2496 18.9977 42.3798 18.885C42.51 18.7712 42.6319 18.6502 42.7483 18.5226C42.8633 18.3947 42.9714 18.261 43.0703 18.1194C43.1692 17.9788 43.2598 17.8323 43.341 17.6812C43.4235 17.529 43.4955 17.3732 43.5583 17.2129C43.6211 17.0526 43.6733 16.8886 43.7175 16.7214H46.0872C46.1824 17.4839 46.3777 18.2206 46.673 18.9306C46.9681 19.6406 47.3517 20.2984 47.8246 20.904L44.3498 24.3788C44.0383 24.1104 43.7152 23.8558 43.3805 23.6152C43.0459 23.3758 42.7018 23.1504 42.3474 22.9411C41.9929 22.7318 41.6291 22.539 41.2572 22.3613C40.8864 22.1846 40.5076 22.0243 40.1205 21.8801C39.7346 21.737 39.3431 21.6117 38.9468 21.5024C38.5494 21.3943 38.1485 21.3037 37.7428 21.2306C37.3371 21.1574 36.9304 21.1027 36.5201 21.0668C36.1098 21.0296 35.6985 21.0121 35.2871 21.0121C34.8756 21.0121 34.4644 21.0296 34.054 21.0668C33.6437 21.1029 33.2371 21.1574 32.8314 21.2306C32.4256 21.3037 32.0248 21.3946 31.6273 21.5024C31.231 21.6117 30.8393 21.7373 30.4536 21.8801C30.0665 22.0241 29.6877 22.1846 29.317 22.3613C28.945 22.539 28.5814 22.732 28.2268 22.9411C27.8723 23.1504 27.5282 23.3758 27.1936 23.6152C26.8589 23.8558 26.5358 24.1102 26.2244 24.3788L22.1382 20.2823C22.281 20.1068 22.4195 19.9267 22.5508 19.7432C22.6833 19.5585 22.8089 19.3701 22.9285 19.1783C23.0495 18.9865 23.1633 18.79 23.27 18.5902C23.3781 18.3915 23.4793 18.1893 23.5734 17.9835C23.6686 17.7767 23.7569 17.5685 23.8383 17.3572C23.9198 17.1456 23.9941 16.9319 24.0626 16.7157C24.13 16.4995 24.1916 16.2821 24.245 16.0613C24.2995 15.8417 24.3462 15.6197 24.3867 15.3978C24.4262 15.1747 24.4598 14.9504 24.4854 14.7248C24.5109 14.5005 24.5306 14.2738 24.5424 14.0484C24.5541 13.8218 24.5576 13.595 24.5553 13.3685C24.553 13.1419 24.5424 12.9163 24.5251 12.6898C24.5088 12.4644 24.4844 12.239 24.4532 12.0145C24.4219 11.7902 24.3835 11.5671 24.3382 11.3452C24.2928 11.1232 24.2406 10.9024 24.1801 10.6839C24.1208 10.4654 24.0546 10.2492 23.9814 10.0342C23.9083 9.82029 23.828 9.60891 23.742 9.39846C23.6548 9.18916 23.5619 8.98354 23.463 8.78022C23.3629 8.57575 23.2574 8.37587 23.1444 8.17945C23.0315 7.98303 22.9133 7.79006 22.7889 7.60077C22.6644 7.41148 22.5342 7.22658 22.3972 7.04534C22.2612 6.8641 22.1193 6.68744 21.9719 6.5154C21.8242 6.34451 21.672 6.17731 21.5128 6.01447C21.3548 5.85186 21.192 5.69477 21.0248 5.54251C20.8562 5.3914 20.6832 5.24511 20.5063 5.1032C20.3286 4.96267 20.1473 4.82767 19.9612 4.69772C19.7754 4.56869 19.5859 4.44563 19.3918 4.32695C19.1977 4.20965 19.0001 4.09926 18.8002 3.99346C18.5992 3.88881 18.3947 3.79015 18.1877 3.69838C17.9807 3.60661 17.7717 3.52058 17.5589 3.44261C17.3462 3.36349 17.1313 3.29151 16.9151 3.22642C16.6978 3.16133 16.4793 3.10313 16.2585 3.05207C16.0377 3.00101 15.8157 2.95686 15.5915 2.9196C15.3684 2.88234 15.1441 2.8522 14.9185 2.82897C14.6931 2.80574 14.4677 2.78941 14.2409 2.78136C14.0144 2.77331 13.7876 2.771 13.561 2.77675C13.3345 2.7825 13.1089 2.79538 12.8835 2.81516C12.6569 2.83609 12.4327 2.86277 12.2082 2.89773C11.9851 2.93131 11.762 2.97317 11.5412 3.02101C11.3192 3.06977 11.0996 3.12452 10.8822 3.18731C10.6637 3.2501 10.4487 3.31865 10.235 3.39547C10.0211 3.47091 9.81089 3.55346 9.60274 3.64293C9.39482 3.7324 9.18897 3.82763 8.9868 3.92998C8.78464 4.03233 8.58591 4.14159 8.39064 4.25659C8.19537 4.37159 8.0047 4.49255 7.81656 4.61905C7.62934 4.74578 7.4458 4.87942 7.26686 5.01765C7.08792 5.15588 6.91242 5.30009 6.74268 5.45005C6.57294 5.60001 6.40803 5.75457 6.24772 5.91488C6.08741 6.07519 5.93285 6.24033 5.78289 6.40984C5.63293 6.58073 5.48895 6.75508 5.35049 6.93402C5.21111 7.11296 5.07862 7.29673 4.95189 7.48487C4.82401 7.67186 4.70329 7.86368 4.58806 8.05895C4.47283 8.25422 4.36495 8.45292 4.2626 8.65509C4.16025 8.85726 4.06386 9.06198 3.97439 9.2699C3.88607 9.47782 3.80237 9.6894 3.72693 9.90215C3.65149 10.116 3.58156 10.3323 3.52015 10.5494C3.45736 10.7679 3.40169 10.9875 3.35385 11.2083C3.30509 11.4291 3.26441 11.6522 3.22945 11.8765C3.19587 12.0996 3.16781 12.325 3.14803 12.5506C3.12825 12.776 3.11557 13.0028 3.10959 13.2293C3.10384 13.4559 3.105 13.6813 3.1142 13.9081C3.12225 14.1346 3.13858 14.36 3.16066 14.5856C3.18389 14.811 3.21403 15.0353 3.25129 15.2598C3.28855 15.4829 3.3327 15.7048 3.38376 15.9256C3.43482 16.1464 3.49417 16.3649 3.55926 16.5823C3.62435 16.7996 3.69633 17.0135 3.7743 17.226C3.85342 17.4388 3.93945 17.649 4.03122 17.856C4.12299 18.063 4.22188 18.2664 4.3263 18.4674C4.43095 18.6684 4.54252 18.8659 4.65982 19.0589C4.77712 19.253 4.90038 19.4423 5.03056 19.6284C5.15959 19.8142 5.29554 19.9957 5.43607 20.1735C5.5766 20.3513 5.72309 20.5233 5.87535 20.6919C6.02761 20.8594 6.18447 21.0231 6.34708 21.1811C6.50854 21.3391 6.67598 21.4914 6.84802 21.6391C7.02006 21.7867 7.19672 21.9284 7.37796 22.0655C7.55805 22.2014 7.7441 22.3316 7.93224 22.456C8.12176 22.5816 8.3145 22.7 8.51206 22.8116C8.70849 22.9243 8.90837 23.0301 9.11169 23.1302C9.31501 23.23 9.52201 23.3231 9.73108 23.4091C9.94015 23.4963 10.1518 23.5766 10.3668 23.6497C10.5807 23.7229 10.798 23.7891 11.0165 23.8485C11.235 23.9078 11.4558 23.96 11.6778 24.0053C11.8997 24.0506 12.1229 24.089 12.3471 24.1203C12.5714 24.1516 12.7956 24.1762 13.0224 24.1935C13.2478 24.2109 13.4746 24.2201 13.7011 24.2224C13.9277 24.2259 14.1544 24.2213 14.3798 24.2095C14.6064 24.1978 14.8318 24.1794 15.0574 24.1536C15.2828 24.127 15.5059 24.0943 15.729 24.0538C15.9521 24.0143 16.1741 23.9667 16.3937 23.9133C16.6134 23.8588 16.8319 23.7983 17.0481 23.7298C17.2643 23.6624 17.4782 23.5869 17.6895 23.5055C17.9011 23.4241 18.109 23.3358 18.3147 23.2417C18.5203 23.1465 18.7238 23.0453 18.9226 22.9372C19.1224 22.8302 19.3177 22.7164 19.5107 22.5968C19.7025 22.4772 19.8906 22.3504 20.0744 22.2191C20.2591 22.0866 20.4394 21.9496 20.6149 21.8053L24.7114 25.8915C24.4419 26.2041 24.1873 26.5272 23.9478 26.8619C23.7073 27.1954 23.483 27.5406 23.2737 27.8951C23.0633 28.2495 22.8705 28.6122 22.6939 28.9839C22.5161 29.3558 22.3558 29.7346 22.2127 30.1205C22.0696 30.5062 21.9431 30.8979 21.8351 31.2954C21.7258 31.6917 21.6352 32.0937 21.5632 32.4983C21.49 32.9038 21.4353 33.3118 21.398 33.7221C21.3619 34.1324 21.3435 34.5425 21.3435 34.954C21.3435 35.3666 21.3622 35.7767 21.398 36.187C21.4353 36.5974 21.4898 37.0051 21.5632 37.4095C21.6352 37.815 21.7258 38.2161 21.8351 38.6135C21.9431 39.011 22.0699 39.4027 22.2127 39.7884C22.3555 40.1741 22.5161 40.5531 22.6939 40.925C22.8705 41.2969 23.0635 41.6594 23.2737 42.0139C23.483 42.3683 23.7073 42.7123 23.9478 43.047C24.1873 43.3816 24.4416 43.7048 24.7114 44.0162L21.2366 47.4911C20.6299 47.018 19.9723 46.6345 19.2632 46.3394C18.5532 46.0443 17.8163 45.8503 17.054 45.7537V43.384C17.2203 43.341 17.3841 43.2876 17.5444 43.2248C17.7047 43.162 17.8616 43.09 18.0127 43.0086C18.1649 42.9272 18.3115 42.8366 18.452 42.7368C18.5925 42.6381 18.7275 42.5311 18.8552 42.4147C18.9831 42.2997 19.1038 42.1764 19.2167 42.0462C19.3306 41.9172 19.4352 41.7802 19.5316 41.6382C19.628 41.4954 19.7163 41.3478 19.7954 41.1944C19.8745 41.041 19.9431 40.8829 20.0033 40.7214C20.0627 40.56 20.1137 40.396 20.1533 40.2276C20.194 40.0602 20.223 39.8907 20.2428 39.7198C20.2625 39.5489 20.2717 39.3769 20.2706 39.2048C20.2694 39.0316 20.2589 38.8608 20.2368 38.6901C20.2147 38.5192 20.1834 38.3497 20.1404 38.1823C20.0986 38.0149 20.0475 37.851 19.9847 37.6907C19.9231 37.5304 19.8522 37.3736 19.7708 37.2214C19.6905 37.0691 19.6011 36.9214 19.5024 36.7809C19.4037 36.6392 19.2979 36.5042 19.1827 36.3754C19.0677 36.2463 18.9456 36.1256 18.8165 36.0116C18.6875 35.8977 18.5516 35.7919 18.4099 35.6944C18.2682 35.5966 18.1205 35.5083 17.9671 35.4282C17.8149 35.348 17.658 35.2783 17.4966 35.2169C17.3351 35.1564 17.1711 35.1053 17.0039 35.0646C16.8365 35.0239 16.6669 34.9927 16.4961 34.9717C16.3252 34.9508 16.1531 34.9404 15.9813 34.9404C15.8095 34.9404 15.6372 34.9508 15.4666 34.9717C15.2945 34.9927 15.1262 35.0239 14.9587 35.0646C14.7913 35.1053 14.6264 35.1564 14.4661 35.2169C14.3046 35.2785 14.1475 35.3482 13.9941 35.4282C13.8419 35.5085 13.6942 35.5968 13.5525 35.6944C13.4108 35.7919 13.2747 35.8977 13.1459 36.0116C13.0157 36.1254 12.8938 36.2463 12.7797 36.3754C12.6647 36.5044 12.5578 36.6392 12.46 36.7809C12.3614 36.9214 12.2719 37.0691 12.1916 37.2214C12.1102 37.3736 12.0393 37.5304 11.9766 37.6907C11.9149 37.851 11.8639 38.0151 11.8208 38.1823C11.779 38.3497 11.7477 38.5192 11.7256 38.6901C11.7036 38.861 11.6932 39.0316 11.6921 39.2048C11.6909 39.3769 11.7001 39.5489 11.7199 39.7198C11.7397 39.8907 11.7686 40.0602 11.8094 40.2276C11.8489 40.3962 11.8988 40.56 11.9593 40.7214C12.0187 40.8829 12.0884 41.041 12.1672 41.1944C12.2464 41.3478 12.3347 41.4954 12.431 41.6382C12.5274 41.7799 12.6321 41.9172 12.7459 42.0462C12.8586 42.1764 12.9796 42.2995 13.1072 42.4147C13.2351 42.5309 13.3699 42.6379 13.5104 42.7368C13.651 42.8368 13.7975 42.9274 13.9497 43.0086C14.1009 43.09 14.2566 43.162 14.418 43.2248C14.5783 43.2876 14.7412 43.341 14.9084 43.384V45.7537C14.6446 45.7872 14.3819 45.8328 14.1227 45.8896C13.8623 45.9466 13.6054 46.0163 13.3522 46.0977C13.0987 46.1791 12.8501 46.2721 12.6049 46.3767C12.3597 46.4814 12.1203 46.5963 11.8866 46.7231C11.6529 46.8498 11.4253 46.9869 11.2033 47.1357C10.9825 47.2834 10.7686 47.4414 10.5618 47.6086C10.3551 47.7758 10.1575 47.9538 9.96683 48.1397C9.77731 48.3257 9.59608 48.5208 9.42404 48.7243C9.252 48.9277 9.08937 49.1381 8.93711 49.3566C8.78485 49.574 8.64317 49.7993 8.51184 50.0307C8.38051 50.2621 8.25978 50.499 8.15053 50.7419C8.04128 50.9848 7.94374 51.2311 7.85657 51.4834C7.77055 51.7355 7.69627 51.9901 7.63348 52.2493C7.57069 52.5074 7.52078 52.7689 7.48237 53.0327C7.44396 53.2953 7.41728 53.5603 7.40325 53.8264C7.39037 54.0914 7.38807 54.3575 7.3998 54.6236C7.41038 54.8897 7.43337 55.1547 7.46948 55.4185C7.50559 55.6823 7.5532 55.9438 7.61346 56.203C7.6728 56.4622 7.7448 56.7177 7.82852 56.97C7.91224 57.2235 8.0086 57.471 8.11555 57.715C8.2225 57.959 8.3398 58.1973 8.46883 58.4296C8.59786 58.6619 8.73723 58.8887 8.88834 59.1084C9.0383 59.328 9.19747 59.5408 9.36836 59.7452C9.5381 59.9497 9.71704 60.1473 9.90518 60.3356C10.0935 60.5226 10.2897 60.7029 10.4944 60.8724C10.7001 61.0422 10.9117 61.2025 11.1313 61.3525C11.351 61.5025 11.5775 61.6418 11.81 61.7708C12.0437 61.8999 12.2818 62.0183 12.5247 62.1253C12.7687 62.2322 13.0173 62.3275 13.2696 62.4112C13.5217 62.4949 13.7786 62.5669 14.0378 62.6274C14.297 62.6867 14.5585 62.7354 14.8224 62.7704C15.0862 62.8063 15.3511 62.8298 15.6172 62.8413C15.8822 62.8516 16.1483 62.8507 16.4144 62.8367C16.6805 62.8226 16.9443 62.7971 17.2082 62.7589C17.4708 62.7205 17.7323 62.6695 17.9915 62.6078C18.2496 62.545 18.5051 62.4696 18.7563 62.3836C19.0084 62.2975 19.2561 62.2 19.4989 62.0896C19.7407 61.9804 19.9778 61.8605 20.209 61.7294C20.4413 61.5981 20.6657 61.4551 20.8842 61.303C21.1027 61.151 21.3132 60.9893 21.5165 60.8172C21.7187 60.6452 21.9139 60.464 22.0998 60.2733C22.287 60.084 22.4636 59.8851 22.6308 59.6783C22.7994 59.4727 22.9574 59.2576 23.1051 59.0368C23.2528 58.816 23.3899 58.5883 23.5166 58.3535C23.6433 58.1198 23.7595 57.8806 23.8641 57.6352C23.9688 57.3912 24.0617 57.1414 24.142 56.8879C24.2234 56.6345 24.2931 56.3778 24.3499 56.1186C24.4081 55.8582 24.4534 55.5967 24.4858 55.3318H26.8555C26.8997 55.4992 26.9519 55.663 27.0147 55.8233C27.0774 55.9836 27.1494 56.1395 27.232 56.2915C27.3134 56.4426 27.404 56.589 27.5027 56.7309C27.6016 56.8714 27.7095 57.005 27.8247 57.134C27.9409 57.2619 28.063 57.3815 28.1932 57.4954C28.3234 57.6081 28.4593 57.7127 28.6023 57.8102C28.7452 57.9066 28.8928 57.9938 29.0462 58.0729C29.1997 58.152 29.3565 58.2217 29.518 58.2811C29.6794 58.3416 29.8446 58.3915 30.0118 58.4322C30.1792 58.4717 30.3487 58.5019 30.5196 58.5216C30.6917 58.5414 30.8626 58.5506 31.0358 58.5495C31.2078 58.5483 31.3798 58.5366 31.5505 58.5145C31.7214 58.4936 31.8897 58.4611 32.0572 58.4193C32.2246 58.3774 32.3884 58.3252 32.5487 58.2636C32.7102 58.2019 32.867 58.1299 33.0193 58.0497C33.1715 57.9682 33.318 57.8788 33.4597 57.7813C33.6002 57.6826 33.7364 57.5757 33.8641 57.4618C33.9931 57.3468 34.1138 57.2247 34.2279 57.0956C34.3418 56.9655 34.4476 56.8307 34.5451 56.6876C34.6426 56.546 34.7321 56.3983 34.8112 56.246C34.8915 56.0937 34.9623 55.9358 35.0228 55.7754C35.0833 55.614 35.1343 55.45 35.1762 55.2825C35.2169 55.1151 35.247 54.9456 35.268 54.7747C35.2889 54.6038 35.2993 54.432 35.2993 54.2588C35.2993 54.0868 35.2889 53.9147 35.268 53.7441C35.247 53.5732 35.2169 53.4037 35.1762 53.2362C35.1343 53.0688 35.0833 52.905 35.0228 52.7436C34.9623 52.5832 34.8915 52.425 34.8112 52.273C34.7321 52.1207 34.6426 51.9731 34.5451 51.8314C34.4476 51.6884 34.3418 51.5535 34.2279 51.4234C34.1141 51.2943 33.9931 51.1724 33.8641 51.0572C33.7362 50.9433 33.6002 50.8364 33.4597 50.7375C33.318 50.64 33.1715 50.5505 33.0193 50.4691C32.867 50.3888 32.7102 50.3169 32.5487 50.2552C32.3884 50.1936 32.2244 50.1414 32.0572 50.0995C31.8897 50.0576 31.7214 50.0252 31.5505 50.0043C31.3796 49.9822 31.2076 49.9707 31.0358 49.9693C30.8626 49.9681 30.6917 49.9774 30.5196 49.9971C30.3487 50.0169 30.1792 50.047 30.0118 50.0866C29.8443 50.1273 29.6794 50.1772 29.518 50.2366C29.3565 50.2971 29.1997 50.3667 29.0462 50.4459C28.8928 50.525 28.7452 50.6119 28.6023 50.7085C28.4593 50.8061 28.3234 50.9107 28.1932 51.0234C28.063 51.1372 27.9409 51.2571 27.8247 51.3847C27.7097 51.5126 27.6016 51.6474 27.5027 51.7879C27.404 51.9296 27.3132 52.0761 27.232 52.2272C27.1494 52.3795 27.0774 52.5352 27.0147 52.6955C26.9519 52.8558 26.8997 53.0198 26.8555 53.187H24.4858C24.3906 52.4234 24.1953 51.6879 23.9 50.9778C23.6049 50.2678 23.2213 49.6101 22.7484 49.0045L26.2232 45.5296C26.5346 45.798 26.8578 46.0526 27.1924 46.2932C27.5271 46.5326 27.8712 46.758 28.2256 46.9673C28.58 47.1764 28.9439 47.3694 29.3158 47.5472C29.6866 47.7238 30.0654 47.8841 30.4525 48.0272C30.8382 48.1712 31.2299 48.2968 31.6262 48.406C32.0236 48.5141 32.4245 48.6047 32.8302 48.6778C33.2357 48.7498 33.6426 48.8058 34.0529 48.8416C34.4632 48.8789 34.8744 48.8961 35.2859 48.8961C35.6974 48.8961 36.1086 48.8787 36.5189 48.8416C36.9293 48.8055 37.3359 48.7498 37.7416 48.6778C38.1471 48.6047 38.5482 48.5139 38.9457 48.406C39.342 48.2968 39.7337 48.1712 40.1194 48.0272C40.5065 47.8841 40.8853 47.7238 41.256 47.5472C41.6279 47.3694 41.9916 47.1764 42.3462 46.9673C42.7007 46.758 43.0447 46.5326 43.3794 46.2932C43.714 46.0526 44.0372 45.798 44.3486 45.5296L48.4348 49.6261C48.308 49.7819 48.185 49.941 48.0675 50.1039C47.949 50.2665 47.8349 50.4328 47.7271 50.6013C47.6178 50.7711 47.5143 50.9432 47.4145 51.1173C47.3156 51.2928 47.2215 51.4694 47.1321 51.6506C47.0437 51.8307 46.96 52.0131 46.8811 52.198C46.802 52.3827 46.7289 52.5699 46.6603 52.7592C46.5918 52.9476 46.529 53.1392 46.4708 53.331C46.4138 53.524 46.3616 53.7181 46.3151 53.9132C46.2675 54.1096 46.2268 54.306 46.1907 54.5035C46.1557 54.7011 46.1256 54.8998 46.1012 55.0997C46.0768 55.2996 46.0582 55.4995 46.0442 55.7005C46.0313 55.9003 46.0232 56.1014 46.0221 56.3024C46.0198 56.5034 46.0232 56.7044 46.0324 56.9054C46.043 57.1064 46.0568 57.3063 46.0777 57.5062C46.0987 57.706 46.1254 57.9059 46.1569 58.1035C46.1881 58.3022 46.2265 58.4998 46.2696 58.6962C46.3126 58.8926 46.3602 59.0879 46.4149 59.282C46.4683 59.475 46.5276 59.6668 46.5927 59.8573C46.6578 60.0477 46.7275 60.236 46.8032 60.4221C46.8786 60.6091 46.9589 60.7929 47.0449 60.9753C47.1298 61.1565 47.2204 61.3366 47.3168 61.5133C47.412 61.6899 47.5132 61.8631 47.619 62.0351C47.7248 62.206 47.8352 62.3732 47.949 62.5384C48.064 62.7035 48.1839 62.865 48.3081 63.023C48.4325 63.181 48.5601 63.3355 48.6938 63.4866C48.8262 63.6377 48.9633 63.7854 49.1041 63.9283C49.2458 64.0711 49.39 64.2107 49.5388 64.3455C49.6888 64.4814 49.841 64.6116 49.9967 64.7383C50.1536 64.865 50.3127 64.9869 50.4756 65.1045C50.6393 65.2218 50.8056 65.3345 50.9754 65.4426C51.144 65.5518 51.3169 65.6541 51.4924 65.7528C51.6667 65.8515 51.8457 65.9447 52.0258 66.0341C52.2059 66.1225 52.3896 66.205 52.5743 66.2839C52.759 66.3619 52.9462 66.435 53.1355 66.5024C53.3248 66.5698 53.5166 66.6326 53.7096 66.6894C53.9014 66.7464 54.0967 66.7975 54.2917 66.844C54.487 66.8893 54.6846 66.93 54.8821 66.9647C55.0809 66.9997 55.2796 67.0286 55.4783 67.053C55.6782 67.0763 55.878 67.0949 56.0791 67.1078C56.2801 67.1195 56.4811 67.1264 56.6821 67.1275C56.8831 67.1287 57.083 67.1253 57.284 67.1147C57.4851 67.1041 57.6849 67.0891 57.8848 67.0671C58.0847 67.0461 58.2845 67.0194 58.4833 66.9868C58.6808 66.9543 58.8784 66.9159 59.0748 66.8718C59.2712 66.8288 59.4654 66.7789 59.6595 66.7241C59.8524 66.6694 60.044 66.6103 60.2347 66.5452C60.4254 66.4789 60.6135 66.4081 60.7996 66.3324C60.9854 66.257 61.1692 66.1756 61.3504 66.0884C61.5328 66.0024 61.7118 65.9117 61.8873 65.8154C62.0639 65.719 62.2382 65.6178 62.408 65.5109C62.5789 65.4051 62.7472 65.2935 62.9112 65.1785C63.0764 65.0635 63.2367 64.9425 63.3947 64.8183C63.5527 64.6939 63.7061 64.5649 63.8572 64.4313C64.0072 64.2976 64.1548 64.1605 64.2965 64.0186C64.4396 63.8769 64.5789 63.7316 64.7126 63.5828C64.8473 63.4328 64.9775 63.2806 65.1043 63.1237C65.2298 62.9668 65.3517 62.8065 65.4681 62.6425C65.5854 62.4797 65.6981 62.3125 65.8051 62.1428C65.9132 61.973 66.0155 61.8 66.113 61.6245C66.2119 61.4491 66.3049 61.2713 66.392 61.09C66.4803 60.9099 66.5629 60.7264 66.6407 60.5404C66.7172 60.3557 66.7906 60.1673 66.8569 59.9778C66.9242 59.7885 66.9859 59.5978 67.0416 59.4049C67.0986 59.2119 67.1497 59.0166 67.195 58.8213C67.2403 58.6249 67.2798 58.4285 67.3134 58.2297C67.3484 58.0322 67.3762 57.8323 67.3994 57.6336C67.4227 57.4337 67.4401 57.2339 67.4516 57.0329C67.4634 56.8318 67.4703 56.6308 67.4703 56.4296C67.4714 56.2285 67.4657 56.0275 67.4551 55.8277C67.4447 55.6266 67.4273 55.4268 67.4052 55.2269C67.3831 55.027 67.3564 54.8272 67.3226 54.6296C67.2888 54.4309 67.2506 54.2333 67.2065 54.038C67.1623 53.8416 67.1124 53.6463 67.0565 53.4534C67.002 53.2604 66.9403 53.0688 66.8753 52.8793C66.809 52.6886 66.737 52.5005 66.6602 52.3158C66.5836 52.1297 66.5022 51.9462 66.415 51.7649C66.3279 51.5837 66.2361 51.4048 66.1395 51.2281C66.042 51.0526 65.9408 50.8794 65.8338 50.7085C65.7269 50.5388 65.6153 50.3716 65.4992 50.2076C65.383 50.0425 65.262 49.8822 65.1378 49.7253C65.0123 49.5673 64.8821 49.4139 64.7484 49.2639C64.6148 49.1139 64.4766 48.9677 64.3347 48.8257C64.193 48.6827 64.0465 48.5445 63.8965 48.4108C63.7477 48.2772 63.5932 48.147 63.4363 48.0214C63.2794 47.8958 63.1191 47.7751 62.9551 47.659C62.7914 47.5428 62.6239 47.4312 62.4542 47.3243C62.2833 47.2173 62.1101 47.1152 61.9346 47.0175C61.758 46.92 61.5802 46.8282 61.399 46.741C61.2177 46.6539 61.034 46.5713 60.8481 46.4947C60.6634 46.4181 60.4751 46.3459 60.2855 46.2796C60.0949 46.2134 59.9044 46.1518 59.7103 46.0972C59.5173 46.0414 59.3232 45.9915 59.127 45.9461C58.9306 45.902 58.7342 45.8624 58.5355 45.8288C58.3379 45.7953 58.138 45.7672 57.9382 45.7451C57.7383 45.723 57.5384 45.7055 57.3374 45.6952C57.1396 45.6832 56.9386 45.6787 56.7373 45.6787ZM39.5773 17.7942C39.4367 17.7942 39.2971 17.7801 39.1589 17.7535C39.0207 17.7256 38.887 17.6849 38.7568 17.6302C38.6267 17.5768 38.5034 17.5106 38.3861 17.4326C38.2688 17.3546 38.1607 17.2652 38.0606 17.1653C37.9617 17.0667 37.8723 16.9574 37.7945 16.841C37.7154 16.7237 37.6503 16.6004 37.5958 16.4703C37.5424 16.3401 37.5017 16.2053 37.4737 16.0671C37.447 15.93 37.433 15.7893 37.433 15.6487C37.433 15.5082 37.447 15.3686 37.4737 15.2303C37.5015 15.0921 37.5422 14.9585 37.5958 14.8283C37.6503 14.6981 37.7154 14.5748 37.7945 14.4575C37.8725 14.3402 37.962 14.2322 38.0606 14.1321C38.1607 14.0332 38.2686 13.9437 38.3861 13.866C38.5034 13.7868 38.6267 13.7206 38.7568 13.6673C38.887 13.6137 39.0207 13.5732 39.1589 13.5451C39.2971 13.5173 39.4367 13.5044 39.5773 13.5044C39.7189 13.5044 39.8586 13.5173 39.9956 13.5451C40.1339 13.573 40.2686 13.6137 40.3988 13.6673C40.529 13.7206 40.6523 13.7868 40.7696 13.866C40.8869 13.9439 40.995 14.0334 41.0939 14.1321C41.1939 14.2319 41.2834 14.34 41.3611 14.4575C41.4391 14.5748 41.5053 14.6981 41.5599 14.8283C41.6132 14.9585 41.6539 15.0921 41.682 15.2303C41.7087 15.3686 41.7227 15.5082 41.7227 15.6487C41.7227 15.7893 41.7087 15.93 41.682 16.0671C41.6542 16.2053 41.6134 16.3401 41.5599 16.4703C41.5053 16.6004 41.4389 16.7237 41.3611 16.841C41.2832 16.9572 41.1937 17.0664 41.0939 17.1653C40.995 17.2654 40.8871 17.3549 40.7696 17.4326C40.6523 17.5106 40.529 17.5768 40.3988 17.6302C40.2686 17.6849 40.1339 17.7254 39.9956 17.7535C39.8586 17.7801 39.7189 17.7942 39.5773 17.7942ZM30.9982 52.1134C31.1388 52.1134 31.2784 52.1274 31.4166 52.1541C31.5549 52.1819 31.6885 52.2226 31.8187 52.2762C31.9488 52.3309 32.0719 52.3969 32.1894 52.4749C32.3067 52.5529 32.4148 52.6424 32.5149 52.741C32.6136 52.8411 32.703 52.9492 32.781 53.0665C32.8601 53.1838 32.925 53.3071 32.9797 53.4373C33.0331 53.5674 33.0738 53.7022 33.1018 53.8393C33.1297 53.9775 33.1425 54.1171 33.1425 54.2576C33.1425 54.3993 33.1297 54.5389 33.1018 54.6772C33.074 54.8142 33.0333 54.949 32.9797 55.0792C32.925 55.2094 32.8599 55.3327 32.781 55.45C32.703 55.5673 32.6136 55.6754 32.5149 55.7754C32.4148 55.8743 32.3067 55.9638 32.1894 56.0415C32.0721 56.1195 31.9488 56.1855 31.8187 56.2403C31.6885 56.2936 31.5549 56.3343 31.4166 56.3624C31.2784 56.3891 31.1388 56.4031 30.9982 56.4031C30.8566 56.4031 30.717 56.3891 30.5799 56.3624C30.4416 56.3346 30.3069 56.2939 30.1767 56.2403C30.0465 56.1855 29.9232 56.1195 29.8059 56.0415C29.6886 55.9636 29.5805 55.8741 29.4816 55.7754C29.3816 55.6756 29.2921 55.5675 29.2144 55.45C29.1364 55.3327 29.0702 55.2094 29.0156 55.0792C28.9623 54.949 28.9216 54.8142 28.8935 54.6772C28.8668 54.5389 28.8528 54.3993 28.8528 54.2576C28.8528 54.1171 28.8668 53.9775 28.8935 53.8393C28.9213 53.7022 28.9621 53.5674 29.0156 53.4373C29.0702 53.3071 29.1366 53.1838 29.2144 53.0665C29.2923 52.9492 29.3818 52.8411 29.4816 52.741C29.5803 52.6424 29.6884 52.5529 29.8059 52.4749C29.9232 52.3969 30.0465 52.3309 30.1767 52.2762C30.3069 52.2228 30.4416 52.1821 30.5799 52.1541C30.717 52.1274 30.8566 52.1134 30.9982 52.1134ZM56.7373 30.6635C56.7373 30.8043 56.7233 30.9437 56.6955 31.0819C56.6688 31.2202 56.6281 31.3538 56.5733 31.484C56.52 31.6142 56.4537 31.7384 56.3758 31.8548C56.2966 31.9721 56.2083 32.0801 56.1085 32.1802C56.0085 32.2802 55.9006 32.3686 55.7831 32.4475C55.6669 32.5254 55.5425 32.5914 55.4123 32.645C55.2821 32.6997 55.1485 32.7405 55.0103 32.7671C54.872 32.795 54.7324 32.809 54.5919 32.809C54.4514 32.809 54.3117 32.795 54.1735 32.7671C54.0353 32.7405 53.9016 32.6997 53.7715 32.645C53.6413 32.5916 53.5169 32.5254 53.4007 32.4475C53.2834 32.3683 53.1753 32.28 53.0753 32.1802C52.9752 32.0801 52.8869 31.9721 52.808 31.8548C52.73 31.7386 52.6638 31.6142 52.6104 31.484C52.5571 31.3538 52.5164 31.2202 52.4883 31.0819C52.4602 30.9437 52.4464 30.8041 52.4464 30.6635C52.4464 30.523 52.4605 30.3834 52.4883 30.2452C52.5161 30.107 52.5568 29.9733 52.6104 29.8432C52.664 29.713 52.73 29.5885 52.808 29.4724C52.8871 29.3551 52.9754 29.247 53.0753 29.147C53.1753 29.0471 53.2832 28.9588 53.4007 28.8797C53.5169 28.8017 53.6413 28.7355 53.7715 28.6821C53.9016 28.6276 54.0353 28.5869 54.1735 28.56C54.3117 28.5322 54.4514 28.5181 54.5919 28.5181C54.7324 28.5181 54.872 28.5322 55.0103 28.56C55.1485 28.5867 55.2821 28.6274 55.4123 28.6821C55.5425 28.7355 55.6669 28.802 55.7842 28.8797C55.9004 28.9588 56.0085 29.0471 56.1085 29.147C56.2086 29.247 56.2969 29.3551 56.3758 29.4724C56.4537 29.5885 56.52 29.713 56.5733 29.8432C56.6278 29.9733 56.6686 30.107 56.6955 30.2452C56.7235 30.3836 56.7373 30.523 56.7373 30.6635ZM54.5921 9.214C54.8026 9.214 55.0128 9.22458 55.2232 9.24528C55.4325 9.26621 55.6405 9.29635 55.8472 9.33821C56.054 9.37892 56.2587 9.42998 56.4597 9.49162C56.6619 9.55211 56.8595 9.62293 57.0547 9.70435C57.25 9.78462 57.4393 9.87524 57.6254 9.97391C57.8112 10.074 57.9927 10.1818 58.167 10.2982C58.3425 10.4155 58.5122 10.5411 58.6748 10.6747C58.8375 10.8083 58.9932 10.9503 59.142 11.0988C59.2919 11.2476 59.4325 11.4034 59.5661 11.5671C59.6997 11.7297 59.8253 11.8983 59.9426 12.0738C60.0599 12.2493 60.168 12.4294 60.2669 12.6155C60.367 12.8013 60.4564 12.992 60.5376 13.1861C60.6179 13.3814 60.6887 13.579 60.7504 13.7811C60.8109 13.9833 60.8619 14.1866 60.9038 14.3936C60.9445 14.6004 60.9758 14.8085 60.9955 15.0187C61.0165 15.228 61.0268 15.4383 61.0268 15.6487C61.0268 15.8603 61.0165 16.0705 60.9955 16.2798C60.9758 16.4891 60.9445 16.6982 60.9038 16.905C60.8619 17.1106 60.8109 17.3153 60.7504 17.5175C60.6887 17.7185 60.6179 17.9172 60.5376 18.1113C60.4562 18.3066 60.3667 18.497 60.2669 18.682C60.168 18.8678 60.0601 19.0493 59.9426 19.2248C59.8253 19.3991 59.6997 19.5688 59.5661 19.7314C59.4325 19.8941 59.2919 20.0498 59.142 20.1997C58.9932 20.3485 58.8375 20.4891 58.6748 20.6227C58.5122 20.7575 58.3425 20.8819 58.167 20.9992C57.9927 21.1165 57.8114 21.2246 57.6254 21.3247C57.4395 21.4233 57.25 21.513 57.0547 21.5942C56.8595 21.6745 56.6619 21.7453 56.4597 21.8069C56.2587 21.8686 56.0542 21.9196 55.8472 21.9604C55.6405 22.0011 55.4323 22.0324 55.2232 22.0533C55.0128 22.0731 54.8026 22.0834 54.5921 22.0834C54.3817 22.0834 54.1714 22.0731 53.961 22.0533C53.7517 22.0324 53.5438 22.0011 53.337 21.9604C53.1302 21.9196 52.9255 21.8686 52.7245 21.8069C52.5223 21.7453 52.3248 21.6745 52.1295 21.5942C51.9354 21.5128 51.7449 21.4233 51.5589 21.3247C51.373 21.2246 51.1927 21.1167 51.0172 20.9992C50.8417 20.8817 50.6731 20.7575 50.5094 20.6227C50.3468 20.4891 50.1911 20.3483 50.0423 20.1997C49.8934 20.0498 49.7518 19.8941 49.6181 19.7314C49.4845 19.5688 49.3589 19.3991 49.2416 19.2248C49.1243 19.0493 49.0162 18.868 48.9173 18.682C48.8173 18.4973 48.7278 18.3066 48.6478 18.1113C48.5663 17.9172 48.4955 17.7185 48.4339 17.5175C48.3734 17.3153 48.3223 17.1108 48.2805 16.905C48.2397 16.6982 48.2096 16.4889 48.1887 16.2798C48.1677 16.0707 48.1574 15.8603 48.1574 15.6487C48.1574 15.4383 48.1677 15.228 48.1887 15.0187C48.2096 14.8083 48.2397 14.6004 48.2805 14.3936C48.3223 14.1868 48.3734 13.9833 48.4339 13.7811C48.4955 13.579 48.5663 13.3814 48.6478 13.1861C48.728 12.992 48.8175 12.8015 48.9173 12.6155C49.0162 12.4296 49.1241 12.2493 49.2416 12.0738C49.3589 11.8983 49.4845 11.7297 49.6181 11.5671C49.7518 11.4034 49.8937 11.2474 50.0423 11.0988C50.1911 10.95 50.3468 10.8083 50.5094 10.6747C50.6731 10.5411 50.8417 10.4155 51.0172 10.2982C51.1927 10.1821 51.3728 10.074 51.5589 9.97391C51.7447 9.87524 51.9354 9.78439 52.1295 9.70435C52.3248 9.62293 52.5223 9.55211 52.7245 9.49162C52.9255 9.42998 53.13 9.37892 53.337 9.33821C53.5438 9.29635 53.7519 9.26621 53.961 9.24528C54.1714 9.22435 54.3817 9.214 54.5921 9.214ZM5.25919 13.5047C5.25804 13.3234 5.2638 13.1431 5.27553 12.963C5.28726 12.7829 5.30334 12.604 5.32657 12.4236C5.34865 12.2447 5.37649 12.0669 5.41145 11.8903C5.44502 11.7125 5.48459 11.5359 5.52875 11.3615C5.57406 11.1872 5.62396 11.014 5.67985 10.8419C5.73689 10.6699 5.79715 10.5004 5.86454 10.3329C5.93078 10.1644 6.00278 9.99945 6.0796 9.83684C6.15619 9.67285 6.23874 9.51253 6.32591 9.35452C6.41308 9.19651 6.50485 9.0408 6.6026 8.88854C6.69897 8.73628 6.80135 8.58749 6.90715 8.44236C7.0141 8.29585 7.12448 8.15416 7.23948 8.01478C7.35563 7.87655 7.47547 7.74176 7.59852 7.61043C7.72295 7.4791 7.85083 7.35122 7.98193 7.22817C8.11441 7.10489 8.25032 6.98644 8.38993 6.87144C8.52816 6.75759 8.67123 6.6472 8.81751 6.5414C8.96402 6.4356 9.11376 6.33464 9.26602 6.23919C9.41943 6.14282 9.57514 6.05105 9.73315 5.96503C9.89231 5.87901 10.0526 5.79758 10.2166 5.72099C10.3804 5.64555 10.5455 5.57449 10.7141 5.50825C10.8827 5.44316 11.0522 5.38266 11.2242 5.327C11.3963 5.27249 11.5695 5.22235 11.745 5.17819C11.9193 5.13518 12.0959 5.09562 12.2737 5.06319C12.4515 5.03076 12.6293 5.0027 12.8083 4.98177C12.9872 4.95969 13.1673 4.94335 13.3474 4.933C13.5275 4.9238 13.7075 4.91899 13.889 4.91899C14.0691 4.92014 14.2492 4.92703 14.4295 4.93991C14.6096 4.95279 14.7885 4.97005 14.9675 4.99466C15.1464 5.01789 15.3242 5.04687 15.502 5.08183C15.6786 5.11794 15.8541 5.15725 16.0296 5.20394C16.204 5.2504 16.3772 5.30148 16.5481 5.35852C16.7189 5.41556 16.8885 5.47812 17.0559 5.54551C17.2233 5.6129 17.3882 5.68603 17.5509 5.764C17.7135 5.84312 17.874 5.92547 18.0308 6.01379C18.1889 6.10211 18.3434 6.19501 18.4945 6.29276C18.6468 6.39166 18.7945 6.49381 18.9396 6.60076C19.0849 6.70886 19.2266 6.8204 19.3649 6.93655C19.5019 7.0527 19.6367 7.17366 19.7669 7.29786C19.8982 7.42229 20.0238 7.55132 20.1469 7.68357C20.269 7.81605 20.3863 7.95314 20.5001 8.09275C20.614 8.23328 20.7232 8.37749 20.8279 8.524C20.9325 8.67166 21.0324 8.82161 21.1278 8.97479C21.223 9.1282 21.3137 9.28391 21.3985 9.44307C21.4834 9.60223 21.5637 9.76394 21.6391 9.9277C21.7145 10.0928 21.7844 10.2589 21.8495 10.4275C21.9135 10.5961 21.9728 10.7656 22.0262 10.9388C22.0807 11.1108 22.1285 11.284 22.1715 11.4595C22.2146 11.635 22.2518 11.8116 22.2842 11.9894C22.3155 12.1672 22.3424 12.345 22.3622 12.5251C22.3831 12.704 22.3983 12.8841 22.4064 13.0642C22.4156 13.2443 22.4193 13.4244 22.417 13.6045C22.4147 13.7857 22.4078 13.9658 22.3937 14.1461C22.3797 14.3264 22.3613 14.5051 22.3355 14.6841C22.3112 14.863 22.2796 15.0408 22.2438 15.2175C22.2079 15.3941 22.1658 15.5696 22.1193 15.7439C22.0717 15.9183 22.0195 16.0903 21.9613 16.2612C21.9031 16.4321 21.8392 16.6016 21.7706 16.7679C21.7021 16.9353 21.6276 17.0991 21.5487 17.2617C21.4696 17.4243 21.3847 17.5837 21.2964 17.7406C21.2069 17.8974 21.1129 18.0508 21.014 18.2019C20.9151 18.3531 20.8106 18.5007 20.7025 18.6447C20.5944 18.7901 20.4817 18.9306 20.3644 19.0677C20.2483 19.2048 20.1262 19.3384 20.0006 19.4685C19.875 19.5976 19.7448 19.7232 19.6123 19.8451C19.4787 19.9661 19.3416 20.0834 19.1997 20.1961V18.8666C19.1997 18.1543 19.0638 17.4687 18.7906 16.8109C18.5175 16.1531 18.1282 15.5733 17.6238 15.07C17.3809 14.8283 17.1171 14.6132 16.83 14.4263C17.0333 14.2287 17.2146 14.0136 17.3751 13.7802C17.5354 13.5465 17.6714 13.299 17.7832 13.0387C17.8936 12.7783 17.9784 12.5087 18.0364 12.232C18.0946 11.9542 18.1247 11.6743 18.127 11.3907C18.1305 11.1083 18.1049 10.827 18.0516 10.5482C17.9994 10.2704 17.9191 9.99969 17.8121 9.73818C17.7052 9.47552 17.5738 9.22574 17.4181 8.98976C17.2624 8.75263 17.0846 8.53413 16.8848 8.33311C16.6861 8.13209 16.4687 7.952 16.2327 7.79399C15.9979 7.63598 15.7504 7.50234 15.4889 7.39309C15.2274 7.28384 14.9567 7.20126 14.6788 7.1456C14.401 7.09086 14.1211 7.06303 13.8375 7.06303C13.5539 7.06303 13.2738 7.09086 12.9962 7.1456C12.7183 7.20126 12.4487 7.28384 12.1872 7.39309C11.9257 7.50234 11.6771 7.63598 11.4423 7.79399C11.2074 7.952 10.9901 8.13209 10.7902 8.33311C10.5915 8.53413 10.4137 8.75263 10.258 8.98976C10.1011 9.22574 9.96982 9.47552 9.86287 9.73818C9.75707 9.99969 9.67702 10.2704 9.62343 10.5482C9.57122 10.8272 9.54546 11.1083 9.54799 11.3907C9.55029 11.6743 9.58043 11.9544 9.63862 12.232C9.69681 12.5087 9.78144 12.7783 9.89322 13.0387C10.0048 13.299 10.1407 13.5465 10.301 13.7802C10.4613 14.0139 10.6428 14.2287 10.8461 14.4263C10.4811 14.6714 10.1522 14.9562 9.85826 15.2828C9.56432 15.6082 9.31315 15.9638 9.10753 16.3509C8.90076 16.738 8.7437 17.1446 8.63698 17.5699C8.53003 17.9952 8.47666 18.4276 8.47551 18.8669V20.1963C7.97342 19.7954 7.52262 19.3421 7.12288 18.84C6.72314 18.3367 6.38366 17.7953 6.10605 17.2164C5.82706 16.6377 5.61683 16.0344 5.47377 15.4081C5.33117 14.7818 5.25919 14.1473 5.25919 13.5047ZM11.6939 11.3592C11.6939 11.2187 11.7068 11.0791 11.7346 10.9409C11.7624 10.8026 11.8031 10.669 11.8567 10.5388C11.9103 10.4086 11.9763 10.2842 12.0554 10.168C12.1334 10.0507 12.2217 9.94265 12.3216 9.8426C12.4214 9.74255 12.5295 9.65423 12.647 9.57534C12.7643 9.49737 12.8876 9.43136 13.0178 9.37777C13.148 9.32303 13.2816 9.28255 13.4198 9.25564C13.558 9.22781 13.6977 9.21378 13.8382 9.21378C13.9787 9.21378 14.1183 9.22781 14.2566 9.25564C14.3948 9.28232 14.5298 9.32303 14.6597 9.37777C14.7899 9.43113 14.913 9.49737 15.0305 9.57534C15.1467 9.65446 15.2559 9.74278 15.3548 9.8426C15.4549 9.94242 15.5443 10.0505 15.6221 10.168C15.7 10.2842 15.7661 10.4086 15.8196 10.5388C15.8744 10.669 15.9149 10.8026 15.9418 10.9409C15.9696 11.0791 15.9836 11.2187 15.9836 11.3592C15.9836 11.4997 15.9696 11.6393 15.9418 11.7776C15.9151 11.9158 15.8744 12.0495 15.8196 12.1796C15.7663 12.3098 15.7 12.4342 15.6221 12.5504C15.5441 12.6677 15.4546 12.7758 15.3548 12.8758C15.2561 12.9759 15.1469 13.0642 15.0305 13.1431C14.9132 13.2211 14.7899 13.2873 14.6597 13.3407C14.5296 13.3954 14.3948 13.4359 14.2566 13.4628C14.1183 13.4906 13.9787 13.5047 13.8382 13.5047C13.6977 13.5047 13.558 13.4906 13.4198 13.4628C13.2816 13.4361 13.148 13.3954 13.0178 13.3407C12.8876 13.2873 12.7643 13.2211 12.647 13.1431C12.5297 13.064 12.4216 12.9757 12.3216 12.8758C12.2215 12.7758 12.1332 12.6679 12.0554 12.5504C11.9763 12.4342 11.9101 12.3098 11.8567 12.1796C11.8034 12.0495 11.7627 11.9158 11.7346 11.7776C11.7065 11.6393 11.6939 11.5 11.6939 11.3592ZM10.6212 21.4514V18.8669C10.6212 18.6553 10.6409 18.4462 10.6828 18.2392C10.7235 18.0313 10.7852 17.83 10.8652 17.635C10.9466 17.4397 11.0453 17.255 11.1626 17.0795C11.2799 16.9041 11.4135 16.7415 11.5635 16.5915C11.7123 16.4427 11.8749 16.309 12.0504 16.1917C12.2259 16.0744 12.4117 15.9756 12.607 15.8944C12.8023 15.8129 13.0033 15.7527 13.2101 15.7108C13.4168 15.6701 13.6261 15.6492 13.8377 15.6492C14.0493 15.6492 14.2584 15.6701 14.4654 15.7108C14.6733 15.7527 14.8746 15.8132 15.0696 15.8944C15.2649 15.9758 15.4496 16.0744 15.6251 16.1917C15.8005 16.309 15.9632 16.4427 16.1131 16.5915C16.2619 16.7415 16.3955 16.9041 16.5128 17.0795C16.6301 17.255 16.7291 17.4397 16.8103 17.635C16.8917 17.8303 16.9519 18.0313 16.9938 18.2392C17.0345 18.446 17.0554 18.6553 17.0554 18.8669V21.4514C16.5441 21.6605 16.0188 21.8176 15.4772 21.9245C14.9355 22.0315 14.3895 22.0836 13.8373 22.0836C13.2864 22.0836 12.739 22.0315 12.1974 21.9245C11.6578 21.8173 11.1313 21.6605 10.6212 21.4514ZM13.8379 39.2437C13.8379 39.1032 13.852 38.9636 13.8798 38.8254C13.9065 38.6871 13.9472 38.5524 14.0019 38.4222C14.0553 38.292 14.1218 38.1687 14.1995 38.0514C14.2786 37.9353 14.3669 37.826 14.4668 37.7271C14.5668 37.6271 14.6749 37.5378 14.7922 37.4598C14.9084 37.3819 15.0328 37.3159 15.163 37.2623C15.2932 37.2076 15.4268 37.1671 15.565 37.1402C15.7033 37.1123 15.8429 37.0983 15.9834 37.0983C16.1239 37.0983 16.2635 37.1123 16.4018 37.1402C16.54 37.1668 16.6736 37.2076 16.8038 37.2623C16.934 37.3157 17.0584 37.3819 17.1746 37.4598C17.2919 37.5378 17.4 37.6273 17.5 37.7271C17.6001 37.8258 17.6884 37.9353 17.7673 38.0514C17.8452 38.1687 17.9115 38.292 17.9648 38.4222C18.0182 38.5524 18.0589 38.6871 18.087 38.8254C18.1148 38.9636 18.1288 39.1032 18.1288 39.2437C18.1288 39.3843 18.1148 39.5238 18.087 39.6621C18.0591 39.8003 18.0184 39.9339 17.9648 40.0641C17.9112 40.1943 17.8452 40.3176 17.7673 40.4349C17.6881 40.5522 17.5998 40.6603 17.5 40.7604C17.4 40.8602 17.2921 40.9485 17.1746 41.0265C17.0584 41.1056 16.934 41.1718 16.8038 41.2252C16.6736 41.2785 16.54 41.3193 16.4018 41.3473C16.2635 41.3754 16.1239 41.388 15.9834 41.388C15.8429 41.388 15.7033 41.3752 15.565 41.3473C15.4268 41.3195 15.2932 41.2788 15.163 41.2252C15.0328 41.1718 14.9084 41.1054 14.7922 41.0265C14.6749 40.9485 14.5668 40.8602 14.4668 40.7604C14.3669 40.6603 14.2786 40.5522 14.1995 40.4349C14.1215 40.3176 14.0553 40.1943 14.0019 40.0641C13.9474 39.9339 13.9067 39.8003 13.8798 39.6621C13.852 39.5238 13.8379 39.3845 13.8379 39.2437ZM15.9834 60.6935C15.7729 60.6935 15.5627 60.6832 15.3523 60.6623C15.1432 60.6413 14.9351 60.6112 14.7283 60.5693C14.5215 60.5286 14.3168 60.4776 14.1158 60.4159C13.9136 60.3543 13.7161 60.2834 13.5208 60.2032C13.3255 60.1229 13.1362 60.0322 12.9501 59.9336C12.7643 59.8335 12.5828 59.7255 12.4085 59.6082C12.233 59.492 12.0633 59.3664 11.9007 59.2328C11.7381 59.0992 11.5821 58.9573 11.4335 58.8087C11.2836 58.6599 11.143 58.503 11.0094 58.3404C10.8758 58.1778 10.7502 58.008 10.6329 57.8337C10.5156 57.6582 10.4075 57.4781 10.3086 57.2921C10.2086 57.1062 10.1191 56.9155 10.0379 56.7203C9.95762 56.5261 9.8868 56.3274 9.82516 56.1264C9.76467 55.9242 9.71358 55.7209 9.67172 55.5139C9.63101 55.3072 9.59975 55.099 9.57997 54.8886C9.55904 54.6795 9.54869 54.469 9.54869 54.2574C9.54869 54.047 9.55927 53.8367 9.57997 53.6274C9.59975 53.417 9.63101 53.2091 9.67172 53.0021C9.71358 52.7953 9.76467 52.5918 9.82516 52.3896C9.8868 52.1886 9.95762 51.9899 10.0379 51.7958C10.1193 51.6005 10.2088 51.41 10.3086 51.224C10.4073 51.0379 10.5154 50.8578 10.6329 50.6823C10.7502 50.5068 10.8758 50.3383 11.0094 50.1756C11.143 50.0128 11.2836 49.8559 11.4335 49.7073C11.5823 49.5585 11.7381 49.4169 11.9007 49.2832C12.0633 49.1496 12.233 49.024 12.4085 48.9078C12.5828 48.7905 12.7641 48.6825 12.9501 48.5824C13.136 48.4838 13.3255 48.3931 13.5208 48.3129C13.7161 48.2326 13.9136 48.1617 14.1158 48.1001C14.3168 48.0384 14.5213 47.9874 14.7283 47.9467C14.9351 47.9048 15.1432 47.8747 15.3523 47.8537C15.5627 47.8328 15.7729 47.8225 15.9834 47.8225C16.1938 47.8225 16.4041 47.8328 16.6145 47.8537C16.8236 47.8747 17.0317 47.9048 17.2385 47.9467C17.4453 47.9874 17.65 48.0384 17.851 48.1001C18.0532 48.1617 18.2507 48.2326 18.446 48.3129C18.6401 48.3931 18.8306 48.4838 19.0166 48.5824C19.2025 48.6825 19.3828 48.7905 19.5583 48.9078C19.7338 49.024 19.9024 49.1496 20.0661 49.2832C20.2287 49.4169 20.3844 49.5588 20.5332 49.7073C20.6821 49.8561 20.8238 50.013 20.9574 50.1756C21.091 50.3383 21.2166 50.5068 21.3339 50.6823C21.4512 50.8578 21.5593 51.0379 21.6582 51.224C21.7582 51.4098 21.8477 51.6005 21.9278 51.7958C22.0092 51.9899 22.08 52.1886 22.1416 52.3896C22.2021 52.5918 22.2532 52.7951 22.295 53.0021C22.3358 53.2088 22.3671 53.417 22.3868 53.6274C22.4078 53.8365 22.4181 54.047 22.4181 54.2574C22.4181 54.469 22.4078 54.6793 22.3868 54.8886C22.3671 55.099 22.3358 55.3069 22.295 55.5139C22.2532 55.7207 22.2021 55.9242 22.1416 56.1264C22.08 56.3274 22.0092 56.5261 21.9278 56.7203C21.8475 56.9155 21.758 57.1062 21.6582 57.2921C21.5595 57.4779 21.4514 57.6582 21.3339 57.8337C21.2166 58.008 21.091 58.1778 20.9574 58.3404C20.8238 58.5032 20.6818 58.6601 20.5332 58.8087C20.3844 58.9575 20.2287 59.0992 20.0661 59.2328C19.9021 59.3664 19.7338 59.492 19.5583 59.6082C19.3828 59.7255 19.2027 59.8335 19.0166 59.9336C18.8308 60.0322 18.6401 60.1229 18.446 60.2032C18.2507 60.2834 18.0532 60.3543 17.851 60.4159C17.65 60.4776 17.4455 60.5286 17.2385 60.5693C17.0317 60.6112 16.8236 60.6413 16.6145 60.6623C16.4041 60.683 16.1936 60.6935 15.9834 60.6935ZM29.9255 45.453V41.3878C29.9255 41.2123 29.9336 41.0379 29.9511 40.8624C29.9685 40.6881 29.9941 40.5138 30.0276 40.3417C30.0624 40.1697 30.1056 40 30.1567 39.8316C30.2066 39.663 30.2659 39.4981 30.3333 39.3366C30.4007 39.1738 30.475 39.0158 30.5587 38.8601C30.6413 38.7056 30.7308 38.5555 30.8283 38.4093C30.9258 38.263 31.0304 38.1223 31.142 37.9863C31.2535 37.8504 31.3708 37.7213 31.4953 37.5969C31.6197 37.4725 31.7499 37.3541 31.8858 37.2437C32.0217 37.1321 32.1625 37.0275 32.3077 36.9299C32.4542 36.8322 32.605 36.7416 32.7598 36.6592C32.9144 36.5766 33.0735 36.5012 33.2352 36.4338C33.3978 36.3676 33.563 36.3082 33.7316 36.2572C33.899 36.2061 34.0697 36.1631 34.2417 36.1293C34.4138 36.0943 34.5869 36.0688 34.7624 36.0513C34.9368 36.035 35.1123 36.0258 35.2878 36.0258C35.4633 36.0258 35.6387 36.035 35.8131 36.0513C35.9886 36.0688 36.1618 36.0943 36.3338 36.1293C36.5058 36.1629 36.6767 36.2059 36.8439 36.2572C37.0125 36.3082 37.1774 36.3676 37.3403 36.4338C37.5017 36.5012 37.6611 36.5769 37.8157 36.6592C37.9702 36.7418 38.1214 36.8324 38.2679 36.9299C38.4132 37.0275 38.5537 37.1321 38.6897 37.2437C38.8256 37.3541 38.9558 37.4725 39.0802 37.5969C39.2047 37.7213 39.322 37.8504 39.4335 37.9863C39.5451 38.1223 39.6497 38.2628 39.7472 38.4093C39.8447 38.5558 39.9342 38.7058 40.0168 38.8601C40.1005 39.0158 40.1748 39.1738 40.2422 39.3366C40.3096 39.4981 40.3689 39.6632 40.42 39.8316C40.4699 40.0002 40.5129 40.1697 40.5479 40.3417C40.5817 40.5138 40.6072 40.6881 40.6244 40.8624C40.6419 41.0379 40.65 41.2123 40.65 41.3878V45.453C40.2374 45.6658 39.8121 45.8528 39.3774 46.0143C38.9415 46.1757 38.4976 46.3118 38.0468 46.4211C37.5947 46.5303 37.1381 46.6129 36.6767 46.6674C36.2153 46.7219 35.7528 46.75 35.288 46.75C34.8232 46.75 34.3606 46.7222 33.8992 46.6674C33.4379 46.6127 32.9811 46.5303 32.5291 46.4211C32.0783 46.3118 31.6342 46.1759 31.1986 46.0143C30.7634 45.853 30.3382 45.6658 29.9255 45.453ZM32.0698 30.6635C32.0698 30.452 32.0907 30.2429 32.1326 30.0361C32.1733 29.8294 32.235 29.6281 32.315 29.4331C32.3964 29.2378 32.4951 29.052 32.6126 28.8765C32.7299 28.701 32.8636 28.5384 33.0124 28.3884C33.1623 28.2396 33.3249 28.106 33.5004 27.9887C33.6759 27.8714 33.8618 27.7725 34.057 27.691C34.2511 27.6108 34.4533 27.5494 34.6601 27.5087C34.8669 27.4668 35.0762 27.447 35.2878 27.447C35.4994 27.447 35.7084 27.4668 35.9154 27.5087C36.1222 27.5494 36.3246 27.611 36.5185 27.691C36.7137 27.7725 36.8996 27.8711 37.0751 27.9887C37.2506 28.106 37.4132 28.2396 37.5631 28.3884C37.7119 28.5384 37.8456 28.701 37.9629 28.8765C38.0802 29.052 38.1791 29.2378 38.2605 29.4331C38.3408 29.6284 38.4022 29.8294 38.4429 30.0361C38.4848 30.2429 38.5057 30.4522 38.5057 30.6635C38.5057 30.8752 38.4848 31.0842 38.4429 31.2912C38.4022 31.498 38.3405 31.7004 38.2605 31.8955C38.1791 32.0896 38.0804 32.2754 37.9629 32.4509C37.8454 32.6264 37.7119 32.789 37.5631 32.939C37.4132 33.0878 37.2506 33.2214 37.0751 33.3387C36.8996 33.456 36.7137 33.5549 36.5185 33.6361C36.3244 33.7164 36.1222 33.7778 35.9154 33.8185C35.7086 33.8603 35.4994 33.8813 35.2878 33.8813C35.0762 33.8813 34.8671 33.8603 34.6601 33.8185C34.4533 33.7778 34.2509 33.7161 34.057 33.6361C33.8618 33.5547 33.6759 33.456 33.5004 33.3387C33.3249 33.2214 33.1623 33.0878 33.0124 32.939C32.8636 32.789 32.7299 32.6264 32.6126 32.4509C32.4953 32.2754 32.3964 32.0896 32.315 31.8955C32.2347 31.7002 32.1733 31.498 32.1326 31.2912C32.0907 31.0845 32.0698 30.8752 32.0698 30.6635ZM42.7952 44.0482V41.388C42.8009 40.8977 42.7591 40.4119 42.6685 39.9296C42.5767 39.4473 42.4396 38.979 42.2558 38.5234C42.0711 38.0689 41.8444 37.6367 41.5737 37.2275C41.3041 36.8172 40.9961 36.4384 40.6497 36.0909C40.1092 35.5354 39.4947 35.0821 38.8054 34.7288C38.9447 34.6115 39.0772 34.4871 39.2028 34.3557C39.3295 34.2256 39.4491 34.0885 39.5618 33.9457C39.6745 33.8026 39.7792 33.6541 39.8767 33.5006C39.9731 33.3472 40.0625 33.188 40.144 33.0252C40.2254 32.8626 40.2985 32.6963 40.3625 32.5266C40.4264 32.3557 40.4821 32.1825 40.5288 32.007C40.5764 31.8315 40.6136 31.6537 40.6426 31.4736C40.6704 31.2947 40.6902 31.1134 40.7008 30.932C40.71 30.7507 40.7112 30.5681 40.7031 30.3869C40.6951 30.2056 40.6776 30.0244 40.6509 29.8441C40.6242 29.6638 40.5881 29.4862 40.5439 29.3095C40.4986 29.1329 40.445 28.9597 40.3825 28.7888C40.3208 28.618 40.25 28.4508 40.1697 28.2868C40.0906 28.1242 40.0023 27.9648 39.9071 27.809C39.8119 27.6545 39.7084 27.5057 39.5968 27.3617C39.4864 27.2177 39.368 27.0793 39.2435 26.9468C39.1179 26.8143 38.9866 26.6887 38.8495 26.5703C38.7113 26.4518 38.5682 26.3403 38.4194 26.2356C38.2695 26.131 38.1161 26.0346 37.9569 25.9463C37.7977 25.858 37.6349 25.7777 37.4677 25.7057C37.3014 25.6337 37.1307 25.5698 36.9576 25.515C36.7832 25.4603 36.6077 25.415 36.4299 25.3779C36.251 25.3418 36.072 25.314 35.8908 25.2954C35.7096 25.2767 35.5283 25.2675 35.3469 25.2675C35.1645 25.2675 34.983 25.2767 34.8018 25.2954C34.6217 25.314 34.4416 25.3418 34.2638 25.3779C34.0849 25.4152 33.9094 25.4605 33.7362 25.515C33.563 25.5695 33.3921 25.6335 33.2249 25.7057C33.0574 25.7777 32.8948 25.858 32.7357 25.9463C32.5777 26.0346 32.4231 26.131 32.2743 26.2356C32.1255 26.3403 31.9815 26.4518 31.8442 26.5703C31.706 26.6887 31.5746 26.8143 31.4502 26.9468C31.3246 27.0793 31.2073 27.2175 31.0958 27.3617C30.9854 27.5059 30.8819 27.6545 30.7855 27.809C30.6903 27.9648 30.6031 28.1239 30.5229 28.2868C30.4437 28.4505 30.3729 28.618 30.3101 28.7888C30.2473 28.9597 30.1939 29.1329 30.1498 29.3095C30.1045 29.4862 30.0684 29.664 30.0417 29.8441C30.015 30.0242 29.9975 30.2054 29.9895 30.3869C29.9814 30.5681 29.9826 30.7507 29.9929 30.932C30.0033 31.1132 30.0219 31.2944 30.0511 31.4736C30.0801 31.6537 30.1174 31.8315 30.1638 32.007C30.2103 32.1825 30.2662 32.3557 30.3313 32.5266C30.3952 32.6963 30.4672 32.8624 30.5486 33.0252C30.63 33.188 30.7195 33.3472 30.817 33.5006C30.9145 33.6541 31.0192 33.8028 31.1319 33.9457C31.2446 34.0885 31.363 34.2258 31.4898 34.3557C31.6165 34.4871 31.749 34.6115 31.8883 34.7288C31.5815 34.8834 31.2876 35.06 31.0051 35.2553C30.7227 35.4517 30.4555 35.6656 30.2034 35.8979C29.9499 36.1316 29.7153 36.3802 29.4968 36.6452C29.2772 36.9101 29.0784 37.1891 28.8983 37.4808C28.7183 37.7736 28.558 38.077 28.4195 38.3907C28.2813 38.7044 28.1637 39.0275 28.0697 39.3576C27.9756 39.6876 27.9034 40.0234 27.8558 40.3629C27.807 40.7033 27.7815 41.0451 27.7803 41.388V44.0482C27.47 43.7924 27.1738 43.5217 26.8914 43.2347C26.6089 42.9488 26.3417 42.6489 26.0908 42.3352C25.8384 42.0226 25.6038 41.6972 25.3853 41.3591C25.1668 41.0221 24.9658 40.6746 24.7823 40.3155C24.5999 39.9576 24.4359 39.5915 24.2908 39.2173C24.1443 38.8419 24.0189 38.4608 23.912 38.0726C23.8062 37.6855 23.719 37.2929 23.6528 36.8964C23.5865 36.5001 23.54 36.1003 23.5145 35.6994C23.489 35.2985 23.4844 34.8965 23.4993 34.4954C23.5157 34.0933 23.5504 33.6934 23.6074 33.295C23.6633 32.8976 23.7399 32.5024 23.8363 32.113C23.9338 31.7225 24.0502 31.338 24.1861 30.9589C24.3221 30.5813 24.4766 30.2105 24.6498 29.848C24.8241 29.4855 25.016 29.1334 25.2262 28.7893C25.4352 28.4466 25.662 28.1152 25.9061 27.7957C26.1501 27.476 26.4093 27.1692 26.6846 26.8764C26.9599 26.5836 27.2495 26.3046 27.5526 26.0408C27.856 25.777 28.172 25.5295 28.5009 25.2981C28.8298 25.0668 29.1702 24.8531 29.52 24.6567C29.871 24.4602 30.2312 24.2824 30.5997 24.1221C30.9693 23.963 31.3458 23.8222 31.7281 23.7003C32.1115 23.5796 32.5009 23.4784 32.8937 23.3958C33.2877 23.3144 33.6851 23.2541 34.0849 23.2123C34.4846 23.1716 34.8855 23.1506 35.2878 23.1506C35.6898 23.1506 36.0907 23.1716 36.4907 23.2123C36.8904 23.2541 37.2878 23.3146 37.6818 23.3958C38.0747 23.4784 38.4641 23.5793 38.8475 23.7003C39.2309 23.8225 39.6062 23.963 39.9758 24.1221C40.3443 24.2824 40.7045 24.4602 41.0555 24.6567C41.4053 24.8531 41.7457 25.067 42.0746 25.2981C42.4035 25.5293 42.7195 25.777 43.0229 26.0408C43.3263 26.3046 43.6156 26.5836 43.8909 26.8764C44.1662 27.1692 44.4254 27.476 44.6695 27.7957C44.9135 28.1154 45.14 28.4466 45.3493 28.7893C45.5598 29.1334 45.7514 29.4855 45.9257 29.848C46.0989 30.2105 46.2535 30.5813 46.3894 30.9589C46.5253 31.3377 46.6428 31.7225 46.7392 32.113C46.8356 32.5024 46.9124 32.8976 46.9681 33.295C47.0251 33.6936 47.0598 34.0933 47.0762 34.4954C47.0914 34.8963 47.0865 35.2983 47.061 35.6994C47.0355 36.1003 46.989 36.5001 46.9228 36.8964C46.8565 37.2926 46.7694 37.6855 46.6636 38.0726C46.5566 38.4608 46.431 38.8419 46.2847 39.2161C46.1394 39.5915 45.9756 39.9576 45.7932 40.3155C45.6097 40.6746 45.4087 41.0221 45.1902 41.3591C44.9717 41.6972 44.7369 42.0226 44.4848 42.3352C44.2338 42.6489 43.9663 42.9488 43.6841 43.2347C43.4019 43.5217 43.1055 43.7924 42.7952 44.0482ZM53.5194 64.3496V61.7649C53.5194 61.5544 53.5403 61.3454 53.581 61.1372C53.6229 60.9304 53.6834 60.7294 53.7646 60.5341C53.8458 60.3389 53.9447 60.153 54.0622 59.9775C54.1797 59.8021 54.3131 59.6395 54.4619 59.4907C54.6119 59.3407 54.7745 59.207 54.95 59.0897C55.1255 58.9724 55.3102 58.8736 55.5054 58.7935C55.7007 58.7121 55.9017 58.6518 56.1097 58.61C56.3164 58.5692 56.5257 58.5483 56.7373 58.5483C56.9489 58.5483 57.158 58.5692 57.365 58.61C57.5718 58.6518 57.773 58.7123 57.9681 58.7935C58.1633 58.8738 58.3492 58.9724 58.5247 59.0897C58.7001 59.207 58.8628 59.3409 59.0116 59.4907C59.1615 59.6395 59.2952 59.8021 59.4124 59.9775C59.5298 60.153 59.6287 60.3391 59.7101 60.5341C59.7903 60.7294 59.8518 60.9304 59.8925 61.1372C59.9343 61.3454 59.9541 61.5544 59.9541 61.7649V64.3496C59.444 64.5587 58.9175 64.7169 58.377 64.8239C57.8354 64.9297 57.2893 64.983 56.7371 64.983C56.1849 64.983 55.6388 64.9297 55.0974 64.8239C54.556 64.7169 54.0307 64.5589 53.5194 64.3496ZM54.5921 54.2574C54.5921 54.1169 54.6061 53.9773 54.634 53.8391C54.6606 53.702 54.7014 53.5672 54.7561 53.437C54.8095 53.3069 54.8757 53.1836 54.9537 53.0663C55.0316 52.949 55.1211 52.8409 55.2209 52.7408C55.3196 52.6421 55.4289 52.5527 55.5452 52.4747C55.6625 52.3967 55.787 52.3307 55.916 52.276C56.0462 52.2226 56.181 52.1819 56.3192 52.1538C56.4574 52.1272 56.597 52.1131 56.7375 52.1131C56.8781 52.1131 57.0177 52.1272 57.1559 52.1538C57.2942 52.1817 57.4278 52.2224 57.558 52.276C57.6881 52.3307 57.8114 52.3967 57.9287 52.4747C58.046 52.5527 58.1541 52.6421 58.2542 52.7408C58.3542 52.8409 58.4425 52.949 58.5203 53.0663C58.5994 53.1836 58.6656 53.3069 58.719 53.437C58.7724 53.5672 58.8131 53.702 58.8411 53.8391C58.869 53.9773 58.8818 54.1169 58.8818 54.2574C58.8818 54.3991 58.869 54.5387 58.8411 54.6769C58.8133 54.814 58.7726 54.9488 58.719 55.079C58.6654 55.2092 58.5994 55.3325 58.5203 55.4498C58.4423 55.5671 58.354 55.6752 58.2542 55.7752C58.1541 55.8741 58.0463 55.9636 57.9287 56.0413C57.8112 56.1191 57.6881 56.1853 57.558 56.24C57.4278 56.2934 57.2942 56.3341 57.1559 56.3622C57.0177 56.3889 56.8781 56.4029 56.7375 56.4029C56.597 56.4029 56.4574 56.3889 56.3192 56.3622C56.181 56.3343 56.0462 56.2936 55.916 56.24C55.787 56.1853 55.6625 56.1193 55.5452 56.0413C55.4291 55.9634 55.3198 55.8739 55.2209 55.7752C55.1209 55.6754 55.0314 55.5673 54.9537 55.4498C54.8757 55.3325 54.8095 55.2092 54.7561 55.079C54.7016 54.9488 54.6609 54.814 54.634 54.6769C54.6061 54.5387 54.5921 54.3993 54.5921 54.2574ZM62.0995 63.0956V61.7651C62.0995 61.0528 61.9625 60.3683 61.6892 59.7105C61.4162 59.0527 61.028 58.4717 60.5224 57.9697C60.2807 57.7268 60.0157 57.5129 59.7287 57.3259C59.932 57.1283 60.1133 56.9121 60.2738 56.6787C60.4341 56.445 60.5703 56.1986 60.6818 55.9383C60.7934 55.6768 60.8782 55.4084 60.9364 55.1305C60.9946 54.8538 61.0248 54.5739 61.0271 54.2903C61.0294 54.0067 61.0038 53.7254 60.9516 53.4478C60.8983 53.17 60.818 52.8993 60.7122 52.6366C60.6052 52.374 60.4739 52.1253 60.3182 51.8882C60.1613 51.6522 59.9835 51.4326 59.7848 51.2315C59.585 51.0305 59.3676 50.8504 59.1328 50.6924C58.8979 50.5344 58.6493 50.4008 58.3878 50.2915C58.1263 50.1834 57.8567 50.1009 57.5789 50.0452C57.3011 49.9895 57.0211 49.9615 56.7375 49.9615C56.454 49.9615 56.1738 49.9893 55.8962 50.0452C55.6186 50.1011 55.3488 50.1834 55.0862 50.2915C54.8246 50.4008 54.5772 50.5344 54.3423 50.6924C54.1063 50.8504 53.889 51.0305 53.6903 51.2315C53.4904 51.4326 53.3126 51.6522 53.1569 51.8882C53.0012 52.1253 52.8699 52.374 52.7629 52.6366C52.656 52.8993 52.5759 53.17 52.5235 53.4478C52.4701 53.7257 52.4444 54.0067 52.4481 54.2903C52.4504 54.5739 52.4805 54.8538 52.5387 55.1305C52.5969 55.4084 52.6815 55.6768 52.7933 55.9383C52.9037 56.1986 53.0396 56.445 53.1999 56.6787C53.3602 56.9123 53.5417 57.1285 53.745 57.3259C53.3812 57.5699 53.0525 57.8558 52.7583 58.1812C52.4632 58.5067 52.2132 58.8634 52.0064 59.2503C51.7997 59.6371 51.644 60.044 51.537 60.4695C51.4301 60.895 51.3756 61.3272 51.3756 61.7653V63.0959C51.1456 62.9112 50.9259 62.7171 50.7166 62.5101C50.5062 62.3033 50.3086 62.0871 50.1205 61.8606C49.9335 61.6329 49.7591 61.3968 49.5951 61.1528C49.4325 60.9076 49.2826 60.6553 49.1455 60.3952C49.0084 60.1348 48.8851 59.8676 48.7759 59.5946C48.6655 59.3227 48.5702 59.0437 48.49 58.7613C48.4086 58.4788 48.3423 58.1918 48.2901 57.9025C48.2391 57.6132 48.2029 57.3213 48.1809 57.0285C48.1588 56.7345 48.153 56.4415 48.1611 56.1476C48.1703 55.8536 48.1935 55.5606 48.2319 55.2689C48.2715 54.9773 48.3248 54.688 48.3934 54.4019C48.4619 54.116 48.5445 53.8335 48.642 53.5559C48.7395 53.2792 48.8499 53.0074 48.9755 52.7412C49.1011 52.4751 49.2405 52.216 49.3916 51.9639C49.5438 51.7127 49.7088 51.4687 49.8854 51.2341C50.0632 50.9992 50.2515 50.7738 50.4514 50.5588C50.6513 50.3426 50.8629 50.1381 51.0837 49.944C51.3056 49.7499 51.5359 49.5687 51.7762 49.3978C52.0157 49.228 52.2643 49.0712 52.52 48.926C52.7758 48.7818 53.0396 48.6505 53.3092 48.5332C53.5787 48.4159 53.8531 48.3124 54.1344 48.2229C54.4146 48.1334 54.6982 48.0592 54.9863 47.9987C55.2745 47.9393 55.565 47.894 55.8569 47.8639C56.1497 47.8338 56.4438 47.8186 56.7378 47.8186C57.0317 47.8186 57.3247 47.8338 57.6175 47.8639C57.9103 47.894 58.2008 47.9393 58.4892 47.9987C58.7763 48.0592 59.061 48.1334 59.3411 48.2229C59.6213 48.3124 59.8966 48.4159 60.1662 48.5332C60.4357 48.6505 60.6984 48.7818 60.9553 48.926C61.2111 49.0714 61.4597 49.2283 61.6991 49.3978C61.9397 49.5687 62.1697 49.7499 62.3905 49.944C62.6124 50.1381 62.8229 50.3426 63.0228 50.5588C63.2238 50.7738 63.4122 50.9992 63.5888 51.2341C63.7666 51.4689 63.9306 51.7129 64.0826 51.9639C64.2349 52.216 64.3731 52.4751 64.4987 52.7412C64.6242 53.0074 64.7358 53.2794 64.8333 53.5559C64.9308 53.8337 65.0134 54.116 65.082 54.4019C65.1505 54.6878 65.2041 54.9771 65.2423 55.2689C65.2818 55.5606 65.3051 55.8536 65.3131 56.1476C65.3223 56.4415 65.3154 56.7345 65.2945 57.0285C65.2724 57.3213 65.2351 57.6132 65.1841 57.9025C65.133 58.1918 65.0668 58.4788 64.9854 58.7613C64.9039 59.0437 64.8087 59.3225 64.6995 59.5946C64.5902 59.8678 64.4658 60.1351 64.3287 60.3952C64.1928 60.6556 64.0417 60.9076 63.8791 61.1528C63.7164 61.3968 63.5409 61.6329 63.3537 61.8606C63.1665 62.0871 62.9678 62.3033 62.7587 62.5101C62.5496 62.7168 62.3298 62.9109 62.0995 63.0956Z" fill="#005494"/>
</svg>
