<svg width="135" height="135" viewBox="0 0 135 135" fill="none" xmlns="http://www.w3.org/2000/svg">
<path d="M111.697 75.2414C109.764 75.1595 107.989 75.8858 106.621 77.2592L88.8858 91.5489C88.9677 91.9544 89.0474 92.4372 89.127 92.8427C89.2089 93.731 89.2089 94.6193 89.0474 95.5076L108.716 79.6802C108.796 79.6005 108.796 79.6006 108.878 79.5187C109.602 78.7919 110.57 78.3892 111.537 78.3892C112.665 78.3892 113.795 79.0362 114.601 80.0037C116.211 81.9419 116.131 85.01 114.519 86.8662L84.6945 113.513L84.6126 113.592C83.0003 115.207 81.3902 116.095 79.3742 116.339C77.8415 116.501 76.149 116.339 74.457 115.692L48.4205 106.244H48.3386L47.9354 106.164C46.4846 105.761 44.7926 105.197 43.1798 105.6L36.2471 86.545L45.5985 79.4386C46.7258 78.7915 47.2905 78.7914 47.8557 78.8738L76.6323 87.7541C76.7142 87.7541 76.7142 87.7541 76.7939 87.836C79.3742 88.3188 82.3554 90.6624 82.5971 93.4866C82.7586 95.1835 82.1939 96.7982 81.1463 97.9281C80.2602 98.8164 79.133 99.2197 78.0035 99.14L60.2708 94.2133C59.3825 93.9721 58.4964 94.4573 58.2552 95.3456C58.014 96.2339 58.4964 97.1221 59.3825 97.3633L77.2794 102.37C77.359 102.37 77.4387 102.449 77.5206 102.449C77.7618 102.449 78.0035 102.449 78.2447 102.449C80.1806 102.449 81.9527 101.722 83.4035 100.269C85.1778 98.4928 86.0634 95.99 85.8222 93.3251C85.419 88.9655 81.3083 85.5742 77.4387 84.8475L48.5825 75.9672C48.5006 75.9672 48.4209 75.8854 48.3386 75.8854C47.2113 75.7238 45.8402 75.6436 43.8246 76.8555C43.745 76.8555 43.745 76.9351 43.6653 76.9351L35.0379 83.4741L33.7487 80.0851C33.3455 79.1149 32.6214 78.3086 31.6535 77.9031C30.6059 77.4999 29.4759 77.4999 28.4283 77.9031L21.5775 80.6499C20.7711 80.9712 20.3679 81.9415 20.6892 82.7479C21.0128 83.5565 21.9807 83.9597 22.7867 83.6361L29.7194 80.8916C29.9606 80.812 30.2022 80.812 30.4434 80.8916C30.5231 80.9713 30.6846 81.0532 30.767 81.2152L43.1793 114.965C43.3409 115.368 43.0997 115.853 42.6965 116.015L31.5729 120.618C30.7665 120.939 30.3633 121.91 30.6846 122.715C30.9258 123.363 31.5729 123.686 32.1354 123.686C32.3793 123.686 32.5386 123.686 32.7798 123.524L43.9056 118.921C45.9212 118.033 46.9688 115.773 46.1628 113.753L44.3088 108.667C44.9532 108.585 45.8393 108.829 47.0489 109.232L73.409 118.76C75.0213 119.324 76.7138 119.648 78.2442 119.648C78.7293 119.648 79.2918 119.648 79.7769 119.568C82.4369 119.245 84.6941 118.033 86.8689 115.933L116.695 89.2895L116.775 89.2076C119.597 86.2219 119.677 81.2156 117.099 78.0656C115.728 76.289 113.713 75.321 111.697 75.2414Z" fill="#00B6F0"/>
<path d="M58.6579 58.931C58.6579 59.817 58.9792 60.6257 59.6236 61.1905L71.3938 72.9796C72.3618 73.9475 73.5687 74.4326 74.8602 74.4326C76.0698 74.4326 77.2789 73.9475 78.2446 73.0592L102.83 49.4013C103.475 48.7569 103.798 47.9483 103.798 47.1419C103.798 46.2536 103.475 45.4449 102.83 44.8802L99.364 41.489C98.0748 40.2771 96.1416 40.2771 94.8501 41.489L74.8602 60.3845L67.6039 53.2781C66.3147 52.0662 64.2991 52.0662 63.0103 53.2781L59.6236 56.6693C58.9792 57.234 58.6579 58.0427 58.6579 58.931ZM65.3472 55.6194L72.6034 62.7258C73.8927 63.9354 75.8259 63.9354 77.1174 62.7258L97.1073 43.7507L100.574 47.06L75.9879 70.7178C75.3435 71.3649 74.2959 71.3649 73.651 70.7178L61.8808 59.0106L65.3472 55.6194Z" fill="#00B6F0"/>
<path d="M71.9586 21.7075C71.0703 21.9487 70.5875 22.837 70.8291 23.7253C71.0703 24.4521 71.6355 24.8548 72.3618 24.8548C72.5211 24.8548 72.6831 24.8548 72.7628 24.7752C73.6511 24.534 74.1339 23.6457 73.8923 22.7574C73.7307 21.9492 72.8447 21.4663 71.9586 21.7075Z" fill="#00B6F0"/>
<mask id="mask0_1_401" style="mask-type:luminance" maskUnits="userSpaceOnUse" x="75" y="20" width="5" height="4">
<path d="M79.8592 20.3318H75.6594V23.9012H79.8592V20.3318Z" fill="white"/>
</mask>
<g mask="url(#mask0_1_401)">
<path d="M77.6799 20.578C76.7938 20.6577 76.1494 21.4663 76.2291 22.3546C76.311 23.161 77.0355 23.8077 77.8414 23.8077C77.9233 23.8077 77.9233 23.8077 78.003 23.8077C78.889 23.7258 79.5357 22.9194 79.4538 22.0311C79.3741 21.1428 78.5682 20.4961 77.6799 20.578Z" fill="#00B6F0"/>
</g>
<path d="M66.4767 23.8076C65.6703 24.2108 65.3472 25.1787 65.6703 25.9874C65.9115 26.5521 66.5564 26.9553 67.1211 26.9553C67.3623 26.9553 67.604 26.8757 67.8479 26.7938C68.6516 26.3906 68.9751 25.4226 68.6516 24.614C68.3307 23.8076 67.2831 23.4021 66.4767 23.8076Z" fill="#00B6F0"/>
<mask id="mask1_1_401" style="mask-type:luminance" maskUnits="userSpaceOnUse" x="81" y="20" width="5" height="4">
<path d="M85.2597 20.3318H81.6597V23.9012H85.2597V20.3318Z" fill="white"/>
</mask>
<g mask="url(#mask1_1_401)">
<path d="M81.873 21.9491C81.873 22.8374 82.5174 23.5641 83.4034 23.646C83.4034 23.646 83.4034 23.646 83.4853 23.646C84.3714 23.646 85.0977 22.9989 85.0977 22.1111C85.0977 21.1431 84.3709 20.4164 83.565 20.3345C82.597 20.334 81.873 20.9811 81.873 21.9491Z" fill="#00B6F0"/>
</g>
<path d="M53.3376 36.968C53.6589 37.2092 53.982 37.2915 54.3033 37.2915C54.7884 37.2915 55.2712 37.0476 55.5948 36.6444C56.1573 35.9177 55.998 34.9497 55.2712 34.385C54.5472 33.818 53.5792 33.9795 53.014 34.7063C52.4488 35.433 52.6108 36.4829 53.3376 36.968Z" fill="#00B6F0"/>
<path d="M61.4777 26.7138C60.7536 27.1989 60.5916 28.2465 61.0745 28.9732C61.398 29.4583 61.8809 29.7 62.366 29.7C62.6873 29.7 63.0104 29.6203 63.252 29.3787C63.9788 28.8936 64.1381 27.8437 63.6552 27.117C63.1719 26.3907 62.204 26.2287 61.4777 26.7138Z" fill="#00B6F0"/>
<path d="M56.8836 30.3467C56.2392 30.9938 56.2392 31.9617 56.804 32.6084C57.1253 32.9319 57.528 33.0912 57.9312 33.0912C58.3344 33.0912 58.7376 32.9319 59.0607 32.6084C59.7051 31.9613 59.7051 30.9933 59.1404 30.3467C58.5761 29.7819 57.5285 29.7819 56.8836 30.3467Z" fill="#00B6F0"/>
<path d="M112.665 37.2915C112.182 36.5647 111.214 36.3213 110.408 36.8064C109.684 37.2915 109.44 38.2594 109.925 39.0681C110.246 39.5509 110.732 39.7948 111.294 39.7948C111.618 39.7948 111.859 39.7129 112.182 39.5509C112.906 39.0681 113.148 38.0974 112.665 37.2915Z" fill="#00B6F0"/>
<path d="M47.4525 60.6258C46.5664 60.7873 46.0017 61.5937 46.0813 62.482C46.2429 63.2907 46.8877 63.8554 47.6937 63.8554C47.7756 63.8554 47.8553 63.8554 47.9349 63.8554C48.8232 63.6939 49.3857 62.8875 49.2264 61.9992C49.1445 61.1109 48.3385 60.4638 47.4525 60.6258Z" fill="#00B6F0"/>
<path d="M52.0461 38.9857C51.2424 38.5825 50.274 38.9061 49.8713 39.6328C49.4681 40.4392 49.7894 41.4094 50.5157 41.8126C50.7569 41.9742 50.9985 41.9742 51.2424 41.9742C51.8049 41.9742 52.3697 41.6506 52.6932 41.0859C53.1761 40.3591 52.8525 39.3912 52.0461 38.9857Z" fill="#00B6F0"/>
<path d="M115.245 46.8987C114.357 47.1426 113.874 47.9485 114.036 48.8368C114.197 49.5636 114.842 50.0487 115.566 50.0487C115.728 50.0487 115.807 50.0487 115.969 49.969C116.858 49.7251 117.341 48.9191 117.179 48.0308C117.018 47.2217 116.131 46.657 115.245 46.8987Z" fill="#00B6F0"/>
<path d="M52.6109 73.624C52.9344 73.1411 52.9344 72.5764 52.6928 72.009C52.2896 71.2026 51.3216 70.8794 50.5152 71.3645C49.9505 71.6057 49.7088 72.1709 49.6292 72.7379L52.6109 73.624Z" fill="#00B6F0"/>
<path d="M49.0648 69.2649C49.2264 69.2649 49.3861 69.2649 49.5477 69.1853C50.3541 68.9414 50.8392 67.9734 50.5953 67.1648C50.3541 66.3584 49.3857 65.8733 48.582 66.1172C47.7756 66.3589 47.2905 67.3268 47.5321 68.135C47.776 68.8617 48.4204 69.2649 49.0648 69.2649Z" fill="#00B6F0"/>
<path d="M113.23 41.6506C112.424 41.9741 112.02 42.9421 112.344 43.7507C112.585 44.3951 113.23 44.7187 113.795 44.7187C114.036 44.7187 114.198 44.7187 114.439 44.5571C115.245 44.2358 115.649 43.2656 115.325 42.4597C115.004 41.6506 114.036 41.327 113.23 41.6506Z" fill="#00B6F0"/>
<path d="M106.862 32.5266C106.218 33.0913 106.135 34.1416 106.7 34.7883C107.024 35.1915 107.507 35.353 107.91 35.353C108.313 35.353 108.716 35.1915 108.958 34.9498C109.602 34.3851 109.684 33.3348 109.119 32.6881C108.554 31.9618 107.586 31.8822 106.862 32.5266Z" fill="#00B6F0"/>
<path d="M102.669 28.8139C102.106 29.4583 102.186 30.5086 102.913 31.0734C103.234 31.3173 103.557 31.4766 103.96 31.4766C104.443 31.4766 104.846 31.2354 105.17 30.9118C105.732 30.1851 105.653 29.2171 104.926 28.6524C104.281 28.0053 103.234 28.0849 102.669 28.8139Z" fill="#00B6F0"/>
<path d="M47.6141 45.0422C47.3729 45.8508 47.7756 46.8188 48.6617 47.06C48.8232 47.1419 48.9852 47.1419 49.1445 47.1419C49.7889 47.1419 50.436 46.7387 50.6772 46.0097C50.9985 45.2033 50.5157 44.2353 49.6296 43.9919C48.7418 43.7507 47.8557 44.1539 47.6141 45.0422Z" fill="#00B6F0"/>
<path d="M118.147 53.843C118.065 52.9547 117.341 52.3103 116.455 52.39C115.567 52.4719 114.922 53.1986 115.004 54.0869C115.084 54.8933 115.808 55.54 116.614 55.54H116.696C117.503 55.4576 118.227 54.7313 118.147 53.843Z" fill="#00B6F0"/>
<path d="M117.179 65.3905C117.42 64.5022 116.858 63.6138 115.97 63.4523C115.083 63.2084 114.197 63.7759 114.036 64.6642C113.795 65.5502 114.357 66.4385 115.245 66.6001C115.405 66.6001 115.487 66.6819 115.649 66.6819C116.293 66.6819 117.018 66.1969 117.179 65.3905Z" fill="#00B6F0"/>
<path d="M118.065 59.6579C118.147 58.7696 117.503 57.9609 116.614 57.8813C115.728 57.7994 114.922 58.446 114.842 59.3343C114.76 60.2226 115.405 61.0291 116.293 61.111C116.373 61.111 116.373 61.111 116.455 61.111C117.341 61.111 118.065 60.5462 118.065 59.6579Z" fill="#00B6F0"/>
<path d="M87.4345 22.3546C87.273 23.2407 87.8377 24.0493 88.6441 24.2905C88.7238 24.2905 88.8853 24.2905 88.9677 24.2905C89.6917 24.2905 90.4185 23.7258 90.5778 22.999C90.7393 22.1107 90.1746 21.3043 89.2885 21.0609C88.4025 20.8993 87.5961 21.4663 87.4345 22.3546Z" fill="#00B6F0"/>
<path d="M45.6781 56.5875C45.6781 56.6694 45.6781 56.6694 45.6781 56.5875C45.6781 57.5577 46.4049 58.2845 47.2905 58.2845C48.1788 58.2845 48.9029 57.5577 48.9029 56.6694C48.9029 56.6694 48.9029 56.6694 48.9029 56.5875V56.5079C48.9029 55.6196 48.1788 54.8928 47.2905 54.8928C46.4044 54.8928 45.6781 55.6196 45.6781 56.5079C45.6781 56.5875 45.6781 56.5875 45.6781 56.5875Z" fill="#00B6F0"/>
<path d="M46.1633 50.6952C46.0017 51.5835 46.6461 52.3899 47.5322 52.5515C47.6141 52.5515 47.6937 52.5515 47.776 52.5515C48.5824 52.5515 49.2268 51.9867 49.3861 51.1781C49.5477 50.2898 48.9033 49.4834 48.0173 49.3218C47.129 49.2399 46.3253 49.8069 46.1633 50.6952Z" fill="#00B6F0"/>
<path d="M97.9956 25.8255C97.5105 26.6319 97.8341 27.6021 98.5581 28.0053C98.7993 28.1669 99.1229 28.2465 99.3645 28.2465C99.9293 28.2465 100.494 27.9252 100.736 27.4401C101.139 26.6315 100.897 25.6635 100.171 25.2603C99.3641 24.7757 98.3988 25.0173 97.9956 25.8255Z" fill="#00B6F0"/>
<path d="M93.7228 25.7437C93.8844 25.8256 94.126 25.8256 94.2853 25.8256C94.9324 25.8256 95.5768 25.4224 95.818 24.7757C96.1416 23.9693 95.7384 22.9991 94.932 22.6756C94.1256 22.3543 93.1576 22.7575 92.8345 23.5639C92.5132 24.4522 92.9164 25.4228 93.7228 25.7437Z" fill="#00B6F0"/>
<path d="M114.439 68.8616C113.633 68.538 112.665 68.8616 112.344 69.668C112.02 70.4766 112.344 71.4446 113.148 71.7681C113.391 71.85 113.551 71.9297 113.795 71.9297C114.439 71.9297 115.004 71.5265 115.245 70.9617C115.649 70.1531 115.245 69.1851 114.439 68.8616Z" fill="#00B6F0"/>
</svg>
