<svg width="135" height="135" viewBox="0 0 135 135" fill="none" xmlns="http://www.w3.org/2000/svg">
<path d="M95.2803 120.75H39.5672C34.5119 120.75 30.3939 116.632 30.3939 111.579V23.4212C30.3939 18.3681 34.5119 14.2502 39.5672 14.2502H95.2803C100.333 14.2502 104.391 18.3681 104.391 23.3604V111.579C104.391 116.632 100.333 120.75 95.2803 120.75ZM39.5672 16.7459C35.8853 16.7459 32.8896 19.7411 32.8896 23.4208V111.578C32.8896 115.26 35.8848 118.253 39.5672 118.253H95.2803C98.8992 118.253 101.894 115.26 101.894 111.578V23.4208C101.894 19.7411 98.8992 16.7459 95.2803 16.7459H39.5672Z" fill="#00B6F0"/>
<path d="M95.8428 114.762H39.0047C37.5071 114.762 36.3843 113.637 36.3843 112.202V22.7974C36.3843 21.3628 37.5071 20.177 39.0047 20.177H95.8428C97.2774 20.177 98.4632 21.3628 98.4632 22.7974V112.202C98.4632 113.637 97.2774 114.762 95.8428 114.762ZM39.0047 22.6732C38.9412 22.6732 38.8805 22.7339 38.8805 22.7974V112.202C38.8805 112.265 38.9412 112.266 39.0047 112.266H95.8428C95.9036 112.266 95.967 112.265 95.967 112.202V22.7974C95.967 22.7339 95.9036 22.6732 95.8428 22.6732H39.0047Z" fill="#00B6F0"/>
<path d="M74.4421 105.715H60.4053C59.7186 105.715 59.1561 105.152 59.1561 104.466C59.1561 103.779 59.7186 103.219 60.4053 103.219H74.4421C75.1288 103.219 75.6913 103.779 75.6913 104.466C75.6913 105.152 75.1288 105.715 74.4421 105.715Z" fill="#00B6F0"/>
<path d="M76.064 29.6599H58.1576C57.4731 29.6599 56.9106 29.0997 56.9106 28.413C56.9106 27.7263 57.4731 27.1638 58.1576 27.1638H76.064C76.7507 27.1638 77.3132 27.7263 77.3132 28.413C77.3132 29.0997 76.7507 29.6599 76.064 29.6599Z" fill="#00B6F0"/>
<path d="M87.5435 29.6599H81.2435C80.5568 29.6599 79.9943 29.0997 79.9943 28.413C79.9943 27.7263 80.5568 27.1638 81.2435 27.1638H87.5435C88.2302 27.1638 88.7927 27.7263 88.7927 28.413C88.7927 29.0997 88.2302 29.6599 87.5435 29.6599Z" fill="#00B6F0"/>
<path d="M53.5406 29.6599H47.3013C46.6169 29.6599 46.0544 29.0997 46.0544 28.413C46.0544 27.7263 46.6169 27.1638 47.3013 27.1638H53.5406C54.2273 27.1638 54.7898 27.7263 54.7898 28.413C54.7898 29.0997 54.2273 29.6599 53.5406 29.6599Z" fill="#00B6F0"/>
<path d="M81.3046 51.5602C80.932 51.5602 80.6179 51.4337 80.3695 51.1853C76.9383 47.6906 72.3213 45.8205 67.392 45.8205C62.5261 45.8205 57.9091 47.6906 54.4144 51.1853C53.9154 51.6844 53.1675 51.6844 52.6685 51.1853C52.1694 50.6863 52.1694 49.875 52.6685 49.4394C56.5988 45.4456 61.8394 43.3247 67.392 43.3247C73.0075 43.3247 78.2482 45.4456 82.1785 49.4394C82.6146 49.8754 82.6146 50.6863 82.1785 51.1853C81.9279 51.4337 81.616 51.5602 81.3046 51.5602Z" fill="#00B6F0"/>
<path d="M58.3452 56.3013C58.0333 56.3013 57.722 56.177 57.4731 55.9894C56.9741 55.4903 56.9741 54.6794 57.4731 54.1799C60.0935 51.5596 63.6489 50.062 67.392 50.062C71.1981 50.062 74.6928 51.5596 77.3739 54.1799C77.8729 54.679 77.8729 55.4899 77.3739 55.9894C76.8748 56.4254 76.0639 56.4254 75.6279 55.9894C73.4436 53.7416 70.5114 52.5581 67.392 52.5581C64.3356 52.5581 61.4038 53.7416 59.2195 55.9894C58.9684 56.177 58.657 56.3013 58.3452 56.3013Z" fill="#00B6F0"/>
<path d="M85.7974 47.0038C85.4856 47.0038 85.1742 46.8797 84.9231 46.6313C80.2449 41.9508 74.0061 39.3939 67.392 39.3939C60.7779 39.3939 54.6021 41.9508 49.9239 46.6313C49.4249 47.1303 48.6112 47.1303 48.1144 46.6313C47.6153 46.1322 47.6153 45.3821 48.1144 44.883C53.2916 39.7058 60.1542 36.8977 67.392 36.8977C74.6928 36.8977 81.5553 39.7058 86.6718 44.883C87.1708 45.3821 87.1708 46.1322 86.6718 46.6313C86.4211 46.8797 86.1093 47.0038 85.7974 47.0038Z" fill="#00B6F0"/>
<path d="M67.828 96.2299C67.392 96.2299 66.9559 95.9815 66.7687 95.6066C66.082 94.6081 65.2077 93.2981 64.2092 91.7393C59.9063 85.2494 54.0396 76.3903 54.0396 71.2126C54.0396 63.5999 60.2176 57.4241 67.828 57.4241C75.3772 57.4241 81.5553 63.5999 81.5553 71.2126C81.5553 76.3898 75.6913 85.2494 71.3857 91.7393C70.3872 93.2981 69.5133 94.6081 68.8896 95.6066C68.6389 95.9815 68.2663 96.2299 67.828 96.2299ZM67.828 59.9203C61.5888 59.9203 56.5358 64.9733 56.5358 71.2126C56.5358 75.6424 62.3997 84.5015 66.3327 90.3655C66.8295 91.1764 67.329 91.9872 67.828 92.6739C68.2663 91.9872 68.7654 91.1764 69.3256 90.3655C73.1952 84.5015 79.0591 75.6419 79.0591 71.2126C79.0591 64.9733 74.0061 59.9203 67.828 59.9203Z" fill="#00B6F0"/>
<path d="M67.828 79.8845C62.8992 79.8845 58.9077 75.8908 58.9077 71.025C58.9077 66.0961 62.8992 62.1023 67.828 62.1023C72.6961 62.1023 76.6876 66.0961 76.6876 71.025C76.6872 75.8908 72.6961 79.8845 67.828 79.8845ZM67.828 64.5985C64.2726 64.5985 61.4039 67.4695 61.4039 71.025C61.4039 74.5197 64.2726 77.3883 67.828 77.3883C71.3227 77.3883 74.1937 74.5197 74.1937 71.025C74.1937 67.4695 71.3223 64.5985 67.828 64.5985Z" fill="#00B6F0"/>
</svg>
