<svg width="120" height="125" viewBox="0 0 120 125" fill="none" xmlns="http://www.w3.org/2000/svg">
<path d="M41.3284 17.4943L50.1205 22.4421C50.3348 22.5643 50.5797 22.6293 50.8288 22.6293C51.3535 22.6293 51.8365 22.3469 52.0882 21.8945C52.4782 21.2019 52.2328 20.3189 51.5386 19.9242L42.7428 14.9744C42.528 14.8542 42.2847 14.7903 42.0387 14.7903C41.5145 14.7903 41.0309 15.0737 40.7798 15.5261C40.5895 15.861 40.5416 16.2499 40.6451 16.6222C40.7491 16.9961 40.9919 17.3055 41.3284 17.4943Z" fill="#005494"/>
<path d="M99.9516 32.9966L108.745 37.9476C108.965 38.0698 109.203 38.1316 109.452 38.1316C109.97 38.1316 110.453 37.8508 110.713 37.3943C111.098 36.7011 110.852 35.8192 110.162 35.4271L101.368 30.4819C101.15 30.3592 100.904 30.2942 100.656 30.2942C100.136 30.2942 99.6537 30.5765 99.3973 31.0315C99.208 31.369 99.1623 31.7601 99.2678 32.1324C99.3729 32.5031 99.6168 32.811 99.9516 32.9966Z" fill="#005494"/>
<path d="M100.657 22.6292C100.905 22.6292 101.143 22.5674 101.367 22.4441L110.161 17.4948C110.854 17.1058 111.101 16.2244 110.711 15.5281C110.333 14.8589 109.423 14.5963 108.742 14.9754L99.9507 19.9252C99.2596 20.3157 99.0106 21.1987 99.3995 21.8976C99.6574 22.3484 100.139 22.6292 100.657 22.6292Z" fill="#005494"/>
<path d="M99.5938 26.4622C99.5938 27.2588 100.242 27.9072 101.039 27.9072H115.895C116.691 27.9072 117.34 27.2588 117.34 26.4622C117.34 25.665 116.691 25.0171 115.895 25.0171H101.039C100.242 25.0166 99.5938 25.665 99.5938 26.4622Z" fill="#005494"/>
<path d="M35.5944 27.9072H50.4466C51.2433 27.9072 51.8917 27.2588 51.8917 26.4622C51.8917 25.665 51.2433 25.0171 50.4466 25.0171H35.5944C34.7972 25.0171 34.1493 25.6655 34.1493 26.4622C34.1493 27.2588 34.7972 27.9072 35.5944 27.9072Z" fill="#005494"/>
<path d="M50.8319 30.2935C50.5833 30.2935 50.3374 30.3585 50.1226 30.4807L41.3258 35.4279C40.6347 35.8226 40.3893 36.7056 40.7782 37.3951C41.032 37.8491 41.5145 38.1309 42.0371 38.1309H42.0387C42.2862 38.1309 42.5301 38.0664 42.7443 37.9458L51.5386 32.9964C51.8755 32.8071 52.1184 32.4977 52.2224 32.1239C52.3259 31.7521 52.278 31.3631 52.0903 31.0329C51.8365 30.5769 51.3545 30.2935 50.8319 30.2935Z" fill="#005494"/>
<path d="M72.155 26.499L70.6735 25.6327V19.259C71.3012 19.6392 71.7707 20.2372 71.9824 20.9496C72.2029 21.6911 73.0328 22.1424 73.7743 21.924C74.1471 21.8143 74.4545 21.5663 74.6385 21.2267C74.8221 20.8887 74.8627 20.4992 74.7529 20.1306C74.182 18.2076 72.6059 16.684 70.673 16.1489V14.6602C70.673 13.8635 70.0246 13.2151 69.2279 13.2151C68.4313 13.2151 67.7829 13.8635 67.7829 14.6602V16.1011C65.2817 16.7131 63.51 18.9434 63.51 21.5632C63.51 23.56 64.5786 25.4221 66.2972 26.4226L67.7829 27.2925V33.6625C67.1578 33.2814 66.6789 32.6766 66.4714 31.9746C66.2946 31.3641 65.7257 30.9382 65.0887 30.9382C64.9494 30.9382 64.8111 30.9585 64.6774 30.998C63.9167 31.2237 63.4778 32.0276 63.6998 32.7952C64.2708 34.7181 65.8485 36.2417 67.7839 36.7768V38.2656C67.7839 39.0622 68.4318 39.7106 69.2285 39.7106C70.0251 39.7106 70.6735 39.0622 70.6735 38.2656V36.8236C73.1747 36.2069 74.9464 33.975 74.9464 31.3589C74.9464 29.3673 73.8767 27.5052 72.155 26.499ZM72.0567 31.3579C72.0562 32.3578 71.5123 33.258 70.6735 33.7348V28.9799L70.6985 28.9945C71.5362 29.4822 72.0567 30.3881 72.0567 31.3579ZM67.7834 19.1868V23.9463L67.7558 23.9302C66.9176 23.4383 66.3965 22.5309 66.3965 21.5621C66.3965 20.5648 66.942 19.6652 67.7834 19.1868Z" fill="#005494"/>
<path d="M49.337 69.8364L47.8518 68.9706V62.5954C48.4816 62.975 48.9537 63.5735 49.1648 64.2875C49.3453 64.8964 49.9131 65.3212 50.5465 65.3212C50.6858 65.3212 50.8242 65.3009 50.9573 65.2614C51.3301 65.1517 51.6369 64.9042 51.821 64.5646C52.0046 64.2266 52.0451 63.8371 51.9354 63.4685C51.365 61.5419 49.7873 60.0177 47.8518 59.4853V57.9939C47.8518 57.1993 47.2055 56.553 46.4109 56.553C45.6138 56.553 44.9658 57.1993 44.9658 57.9939V59.4385C42.4626 60.051 40.6888 62.2813 40.6888 64.9C40.6888 66.8958 41.759 68.7584 43.4807 69.7605L44.9658 70.6263V77.0004C44.3361 76.6208 43.864 76.0223 43.6528 75.3078C43.4329 74.5663 42.6066 74.1123 41.8599 74.3344C41.4886 74.4446 41.1823 74.6932 40.9972 75.0343C40.8131 75.3733 40.7726 75.7633 40.8823 76.131C41.4527 78.0545 43.0304 79.5786 44.9658 80.1131V81.6019C44.9658 82.3985 45.6143 83.047 46.4109 83.047C47.2055 83.047 47.8518 82.3985 47.8518 81.6019V80.1605C50.3546 79.5437 52.1288 77.3119 52.1288 74.6953C52.1288 72.7047 51.0592 70.8431 49.337 69.8364ZM47.8518 72.3157L47.8799 72.3324C48.7182 72.8201 49.2387 73.7265 49.2387 74.6963C49.2387 75.6968 48.6932 76.5974 47.8518 77.0737V72.3157ZM44.9388 67.2691C44.1 66.7772 43.579 65.8698 43.579 64.9005C43.579 63.9032 44.1245 63.0036 44.9658 62.5252V67.2847L44.9388 67.2691Z" fill="#005494"/>
<path d="M79.3311 26.4226L80.8162 27.2925V33.662C80.1938 33.2808 79.7159 32.6761 79.5074 31.972C79.2869 31.231 78.4559 30.7765 77.7108 30.9986C77.341 31.1083 77.0358 31.3558 76.8522 31.6954C76.6682 32.0349 76.6271 32.4254 76.7368 32.7941C77.3036 34.7176 78.8803 36.2412 80.8167 36.7768L80.8162 38.265C80.8162 39.0622 81.4647 39.7101 82.2613 39.7101C83.0579 39.7101 83.7064 39.0617 83.7064 38.265V36.8236C86.2076 36.2069 87.9792 33.975 87.9792 31.3589C87.9792 29.3678 86.9096 27.5057 85.1878 26.4995L83.7064 25.6332V19.2585C84.3335 19.6381 84.8036 20.2361 85.0152 20.9501C85.2352 21.6911 86.0599 22.145 86.8123 21.9235C87.5752 21.6968 88.012 20.8929 87.7858 20.1306C87.2148 18.2076 85.6387 16.684 83.7059 16.1489V14.6602C83.7059 13.8635 83.0574 13.2151 82.2608 13.2151C81.4641 13.2151 80.8157 13.8635 80.8157 14.6602V16.1011C78.3145 16.7136 76.5428 18.9444 76.5428 21.5632C76.5434 23.5574 77.612 25.4195 79.3311 26.4226ZM79.4335 21.5626C79.4335 20.5653 79.978 19.6657 80.8167 19.1873V23.9468L80.7902 23.9318C79.9535 23.4383 79.4335 22.5309 79.4335 21.5626ZM83.7069 33.7348V28.9799L83.7318 28.9945C84.569 29.4822 85.0896 30.3881 85.0896 31.3584C85.0896 32.3584 84.5456 33.2585 83.7069 33.7348Z" fill="#005494"/>
<path d="M118.405 65.9557H91.1808C90.8579 65.9557 90.5417 66.0644 90.2906 66.2614C87.0114 68.8313 83.1796 69.89 81.1984 70.2909V56.5286C81.1947 55.7652 80.9914 54.9894 80.605 54.2609C81.6315 53.3056 82.5753 52.1611 83.4177 50.8523C83.8431 50.1835 83.6502 49.2886 82.983 48.8539C82.7485 48.7047 82.4786 48.6262 82.203 48.6262C81.7095 48.6262 81.255 48.8742 80.9862 49.2902C78.4741 53.1933 75.1939 54.7159 73.6084 54.3222C73.091 54.1928 72.8373 53.8735 72.7848 53.2859C72.6438 51.704 73.8955 48.3136 75.9157 45.9788C76.8527 44.8983 78.3508 43.59 80.1667 43.4891C83.8556 43.267 88.6146 49.2658 89.9713 51.338C90.2396 51.7488 90.6925 51.9937 91.1824 51.9937H118.406C119.203 51.9937 119.852 51.3452 119.852 50.5486C119.852 49.7519 119.203 49.1035 118.406 49.1035H91.9405C91.3514 48.2778 90.3228 46.9216 89.0088 45.5368C95.2633 41.1782 98.9787 34.0942 98.9787 26.4617C98.9787 13.6478 88.5558 3.22339 75.7441 3.22339C62.9302 3.22339 52.5058 13.6478 52.5058 26.4617C52.5058 34.3475 56.5457 41.7257 63.1195 45.9752C62.1326 46.4182 61.3749 47.0344 60.8601 47.8139C60.2164 48.7827 60.0188 49.9251 60.2642 51.1398C56.2794 48.1753 51.4273 46.5618 46.4062 46.5618C33.5944 46.5618 23.1716 56.9862 23.1716 69.7995C23.1716 77.4315 26.8854 84.5145 33.1389 88.8716C31.8264 90.2605 30.7989 91.6156 30.2103 92.4408H3.74488C2.94772 92.4408 2.2998 93.0893 2.2998 93.8859C2.2998 94.6826 2.94824 95.331 3.74488 95.331H30.9731C31.4614 95.331 31.9133 95.085 32.1806 94.6748C33.5362 92.6031 38.2786 86.6413 41.9867 86.8254C43.8036 86.9262 45.3002 88.2366 46.2356 89.3187C48.2538 91.6473 49.508 95.0372 49.3712 96.6216C49.3182 97.2098 49.0634 97.529 48.5455 97.658C46.9449 98.0516 43.6814 96.5296 41.1651 92.6265C40.8984 92.2115 40.4439 91.964 39.9504 91.964C39.6717 91.964 39.4008 92.0446 39.172 92.1938C38.8464 92.4008 38.6218 92.7232 38.5391 93.0997C38.4559 93.4782 38.5256 93.8651 38.7352 94.1917C39.5848 95.5057 40.5297 96.6502 41.5484 97.5977C41.2478 98.1629 41.058 98.7568 40.9873 99.3521H40.9524V113.628C38.9718 113.226 35.1409 112.167 31.8597 109.596C31.6023 109.398 31.296 109.293 30.9731 109.293H3.74488C2.94824 109.293 2.2998 109.941 2.2998 110.738C2.2998 111.535 2.94824 112.183 3.74488 112.183H30.4822C34.5315 115.196 39.029 116.256 41.1116 116.604C41.6966 119.042 43.8676 120.775 46.4098 120.775C48.8798 120.775 51.0248 119.113 51.6655 116.765H54.3632C57.7157 116.765 59.2195 114.789 59.5092 112.94C59.6724 111.89 59.4676 110.815 58.9444 109.916C59.7582 109.248 60.2912 108.282 60.4613 107.145C60.6209 106.053 60.3963 104.915 59.8565 103.989C61.3661 103.087 62.313 101.481 62.313 99.7468C62.313 98.5456 61.871 97.4344 61.0577 96.5806C62.2215 94.6009 62.3088 92.6868 61.2943 91.1544C60.779 90.3738 60.0219 89.7576 59.0349 89.3151C64.6109 85.7204 68.3356 80.0035 69.3626 73.4276H70.4838C71.126 75.7748 73.2725 77.4368 75.743 77.4368C78.2812 77.4368 80.4527 75.7041 81.0408 73.2658C83.1218 72.9174 87.6167 71.8582 91.667 68.8448H118.404C119.201 68.8448 119.849 68.1964 119.849 67.3997C119.849 66.6031 119.202 65.9557 118.405 65.9557ZM47.3869 106.744C47.2767 106.045 47.598 105.136 48.4046 104.78H56.5519C57.4838 105.154 57.7032 106.053 57.6034 106.725C57.5472 107.101 57.3002 107.975 56.2217 107.975H49.0785C47.8357 107.975 47.4727 107.307 47.3869 106.744ZM43.8426 104.085C44.1749 104.241 44.5295 104.371 44.9055 104.475C44.5202 105.319 44.386 106.259 44.528 107.186C44.7188 108.421 45.3568 109.431 46.3454 110.086C45.7926 111.055 45.6371 112.165 45.9091 113.266C46.2663 114.728 47.3172 115.904 48.7129 116.445C48.2902 117.312 47.402 117.886 46.4109 117.886C44.9949 117.886 43.8431 116.736 43.8431 115.321V104.085H43.8426ZM49.4716 110.865H55.9404C56.503 111.156 56.7469 111.904 56.6559 112.492C56.4646 113.696 55.138 113.876 54.3638 113.876H50.4196C49.4622 113.876 48.8741 113.223 48.7155 112.575C48.5517 111.91 48.82 111.307 49.4716 110.865ZM43.9669 100.456C43.7979 100.075 43.8228 99.6969 43.9206 99.3719C45.765 100.439 47.663 100.841 49.2392 100.464C50.6364 100.118 51.6442 99.1759 52.0576 97.8504H56.8041C57.7141 97.8504 58.4364 98.0745 58.8914 98.4978C59.2362 98.8192 59.426 99.2627 59.426 99.7453C59.4249 100.778 58.6033 101.89 56.8031 101.89H47.2517C45.5934 101.89 44.3652 101.354 43.9669 100.456ZM56.8031 94.9608H52.1226C51.9447 93.9733 51.6057 92.8818 51.1408 91.8018C52.4101 91.5298 53.5994 91.3915 54.683 91.3915C57.1203 91.3915 58.4515 92.0924 58.8846 92.7482C59.3552 93.4595 59.0027 94.4059 58.5409 95.1651C57.9986 95.0294 57.4156 94.9608 56.8031 94.9608ZM54.4043 88.5143C52.9473 88.5382 51.3748 88.7571 49.7233 89.1664C49.3094 88.532 48.872 87.9486 48.4207 87.4275C46.5539 85.2706 44.3844 84.0652 42.1573 83.943C42.0413 83.9342 41.9259 83.9336 41.8052 83.9336C39.796 83.9336 37.6042 84.9112 35.2876 86.8394C29.5873 83.1058 26.0622 76.6131 26.0622 69.8C26.0622 58.58 35.1908 49.4519 46.4109 49.4519C51.5147 49.4519 56.3725 51.3421 60.1311 54.7819C59.9366 55.2988 59.8383 55.8443 59.8383 56.408C59.8383 58.1416 60.7847 59.749 62.2948 60.6506C61.7535 61.5783 61.5304 62.7176 61.6942 63.8065C61.8606 64.9438 62.3926 65.9099 63.21 66.5786C62.6853 67.4772 62.4794 68.5531 62.6432 69.6066C62.8845 71.1292 64.016 72.8415 66.4548 73.3038C65.2749 80.1246 60.8055 85.7796 54.4043 88.5143ZM72.4312 45.828C70.775 45.4188 69.203 45.1999 67.7517 45.1765C60.2429 41.967 55.397 34.6324 55.397 26.4622C55.397 15.2421 64.5256 6.11355 75.7456 6.11355C86.9636 6.11355 96.0901 15.2421 96.0901 26.4622C96.0901 33.2773 92.5635 39.7721 86.8612 43.5052C84.4172 41.4673 82.1286 40.4882 80.0055 40.6041C77.7674 40.7268 75.598 41.9322 73.7312 44.0891C73.2756 44.6149 72.8394 45.1983 72.4312 45.828ZM63.6114 51.8278C63.1502 51.0691 62.7971 50.1222 63.2682 49.4098C63.7009 48.7541 65.0326 48.0531 67.4704 48.0531C68.5546 48.0531 69.7438 48.1909 71.0142 48.4634C70.5482 49.5419 70.2076 50.6334 70.0293 51.6224H65.3482C64.7393 51.6219 64.1569 51.691 63.6114 51.8278ZM65.3488 54.5126H70.0953C70.5082 55.8386 71.5165 56.7808 72.9189 57.1282C74.5372 57.5114 76.3899 57.1006 78.2333 56.0362C78.3316 56.3612 78.3566 56.7387 78.186 57.1193C77.7903 58.0163 76.562 58.5519 74.9006 58.5519H65.3493C63.548 58.5519 62.7274 57.4407 62.7274 56.408C62.7274 55.9244 62.9167 55.4813 63.2604 55.1605C63.716 54.7362 64.4382 54.5126 65.3488 54.5126ZM65.5999 61.4421H73.7478C74.5533 61.7962 74.8762 62.7057 74.7691 63.404C74.6786 63.9662 74.312 64.6364 73.077 64.6364H65.9338C64.8516 64.6364 64.6046 63.7623 64.549 63.3884C64.4507 62.7161 64.6712 61.8149 65.5999 61.4421ZM66.2151 67.5271H72.6818C73.3339 67.9665 73.6027 68.5697 73.4405 69.2358C73.2912 69.8364 72.7541 70.5384 71.7323 70.5384H67.7881C67.0143 70.5384 65.6873 70.3585 65.4964 69.1552C65.4044 68.565 65.6498 67.8167 66.2151 67.5271ZM76.2464 69.9264C76.5147 68.824 76.3577 67.7143 75.806 66.7466C76.794 66.0924 77.432 65.0821 77.6228 63.8471C77.7648 62.9199 77.6317 61.9798 77.2458 61.1363C77.6223 61.0318 77.9764 60.9018 78.3082 60.7468L78.3087 71.983C78.3087 73.3974 77.1585 74.5476 75.7441 74.5476C74.7545 74.5476 73.8658 73.9746 73.4394 73.1077C74.832 72.5695 75.8845 71.3933 76.2464 69.9264Z" fill="#005494"/>
</svg>
