<svg width="120" height="125" viewBox="0 0 120 125" fill="none" xmlns="http://www.w3.org/2000/svg">
<path d="M90.726 120.988H28.905C23.2955 120.988 18.7261 116.418 18.7261 110.811V12.9889C18.7261 7.38184 23.2955 2.8125 28.905 2.8125H90.726C96.333 2.8125 100.835 7.38184 100.835 12.9214V110.812C100.835 116.418 96.333 120.988 90.726 120.988ZM28.905 5.58175C24.8194 5.58175 21.4954 8.90532 21.4954 12.9884V110.811C21.4954 114.896 24.8189 118.217 28.905 118.217H90.726C94.7416 118.217 98.0652 114.896 98.0652 110.811V12.9884C98.0652 8.90532 94.7416 5.58175 90.726 5.58175H28.905Z" fill="#005494"/>
<path d="M91.3501 114.343H28.2808C26.619 114.343 25.3732 113.095 25.3732 111.503V12.2968C25.3732 10.7049 26.619 9.38916 28.2808 9.38916H91.3501C92.942 9.38916 94.2577 10.7049 94.2577 12.2968V111.503C94.2577 113.095 92.942 114.343 91.3501 114.343ZM28.2808 12.159C28.2104 12.159 28.143 12.2264 28.143 12.2968V111.503C28.143 111.573 28.2104 111.573 28.2808 111.573H91.3501C91.4175 111.573 91.4879 111.573 91.4879 111.503V12.2968C91.4879 12.2264 91.4175 12.159 91.3501 12.159H28.2808Z" fill="#005494"/>
<path d="M67.6033 104.304H52.0276C51.2656 104.304 50.6415 103.68 50.6415 102.918C50.6415 102.156 51.2656 101.535 52.0276 101.535H67.6033C68.3653 101.535 68.9895 102.156 68.9895 102.918C68.9895 103.68 68.3653 104.304 67.6033 104.304Z" fill="#005494"/>
<path d="M69.4029 19.9116H49.5334C48.7739 19.9116 48.1498 19.2899 48.1498 18.5279C48.1498 17.766 48.7739 17.1418 49.5334 17.1418H69.4029C70.1649 17.1418 70.789 17.766 70.789 18.5279C70.789 19.2899 70.1649 19.9116 69.4029 19.9116Z" fill="#005494"/>
<path d="M82.141 19.9116H75.1503C74.3883 19.9116 73.7642 19.2899 73.7642 18.5279C73.7642 17.766 74.3883 17.1418 75.1503 17.1418H82.141C82.903 17.1418 83.5271 17.766 83.5271 18.5279C83.5271 19.2899 82.903 19.9116 82.141 19.9116Z" fill="#005494"/>
<path d="M44.4103 19.9116H37.487C36.7276 19.9116 36.1034 19.2899 36.1034 18.5279C36.1034 17.766 36.7276 17.1418 37.487 17.1418H44.4103C45.1723 17.1418 45.7964 17.766 45.7964 18.5279C45.7964 19.2899 45.1723 19.9116 44.4103 19.9116Z" fill="#005494"/>
<path d="M75.2182 44.2128C74.8048 44.2128 74.4562 44.0725 74.1806 43.7968C70.3732 39.919 65.25 37.8438 59.7803 37.8438C54.381 37.8438 49.2578 39.919 45.38 43.7968C44.8263 44.3506 43.9964 44.3506 43.4427 43.7968C42.8889 43.2431 42.8889 42.3428 43.4427 41.8595C47.8038 37.4279 53.619 35.0745 59.7803 35.0745C66.0115 35.0745 71.8267 37.4279 76.1879 41.8595C76.6718 42.3433 76.6718 43.2431 76.1879 43.7968C75.9098 44.0725 75.5637 44.2128 75.2182 44.2128Z" fill="#005494"/>
<path d="M49.7418 49.4738C49.3957 49.4738 49.0502 49.3359 48.7741 49.1277C48.2203 48.5739 48.2203 47.6741 48.7741 47.1199C51.6817 44.2123 55.6269 42.5505 59.7804 42.5505C64.0037 42.5505 67.8815 44.2123 70.8566 47.1199C71.4103 47.6736 71.4103 48.5734 70.8566 49.1277C70.3028 49.6115 69.403 49.6115 68.9192 49.1277C66.4954 46.6335 63.2417 45.3203 59.7804 45.3203C56.3889 45.3203 53.1358 46.6335 50.712 49.1277C50.4334 49.3359 50.0878 49.4738 49.7418 49.4738Z" fill="#005494"/>
<path d="M80.2035 39.1569C79.8575 39.1569 79.512 39.0191 79.2333 38.7435C74.0423 33.55 67.1195 30.7127 59.7803 30.7127C52.4411 30.7127 45.5883 33.55 40.3972 38.7435C39.8434 39.2973 38.9406 39.2973 38.3893 38.7435C37.8356 38.1898 37.8356 37.3574 38.3893 36.8036C44.1342 31.0588 51.749 27.9429 59.7803 27.9429C67.8815 27.9429 75.4963 31.0588 81.1737 36.8036C81.7275 37.3574 81.7275 38.1898 81.1737 38.7435C80.8956 39.0191 80.5496 39.1569 80.2035 39.1569Z" fill="#005494"/>
<path d="M60.264 93.7796C59.7802 93.7796 59.2963 93.5039 59.0886 93.088C58.3266 91.98 57.3564 90.5264 56.2484 88.7967C51.4738 81.5953 44.964 71.7649 44.964 66.0196C44.964 57.5724 51.8193 50.7195 60.264 50.7195C68.6409 50.7195 75.4962 57.5724 75.4962 66.0196C75.4962 71.7645 68.9894 81.5953 64.2118 88.7967C63.1037 90.5264 62.134 91.98 61.442 93.088C61.1638 93.5039 60.7504 93.7796 60.264 93.7796ZM60.264 53.4893C53.3408 53.4893 47.7338 59.0964 47.7338 66.0196C47.7338 70.9351 54.2406 80.7654 58.6047 87.2723C59.156 88.1721 59.7103 89.0718 60.264 89.8338C60.7504 89.0718 61.3041 88.1721 61.9258 87.2723C66.2196 80.7654 72.7264 70.9346 72.7264 66.0196C72.7264 59.0964 67.1194 53.4893 60.264 53.4893Z" fill="#005494"/>
<path d="M60.264 75.6424C54.7948 75.6424 50.3657 71.2108 50.3657 65.8115C50.3657 60.3423 54.7948 55.9106 60.264 55.9106C65.6658 55.9106 70.0949 60.3423 70.0949 65.8115C70.0944 71.2108 65.6658 75.6424 60.264 75.6424ZM60.264 58.6805C56.3187 58.6805 53.1355 61.8663 53.1355 65.8115C53.1355 69.6893 56.3187 72.8725 60.264 72.8725C64.1418 72.8725 67.3276 69.6893 67.3276 65.8115C67.3276 61.8663 64.1413 58.6805 60.264 58.6805Z" fill="#005494"/>
</svg>
