<svg width="148" height="126" viewBox="0 0 148 126" fill="none" xmlns="http://www.w3.org/2000/svg">
<path d="M25.7738 44.5232C25.0215 44.5232 24.3116 44.8614 23.5482 45.531C23.4701 45.6063 22.4642 46.5606 21.7119 47.274L20.8636 48.0764C17.0401 51.6501 15.3037 58.1034 16.448 64.5142C16.8221 66.5955 17.4183 68.7507 18.2282 70.9169C22.319 81.8914 30.0866 91.4419 35.8849 97.5173C41.6558 103.635 50.7856 111.899 61.5312 116.566C63.6608 117.489 65.7823 118.201 67.8407 118.683C74.1858 120.169 80.7255 118.783 84.5065 115.152L85.0136 114.671C85.7344 113.991 87.0185 112.779 87.2063 112.597C89.4675 110.273 88.2875 108.292 83.6144 103.539L82.4193 102.314C79.4167 99.2029 74.3955 93.997 70.1828 94.4885C69.0658 94.62 67.8681 95.458 66.599 96.3411C65.304 97.2421 63.9664 98.1759 62.348 98.6894C58.0147 100.057 53.6169 99.1604 49.973 96.1563C47.8227 94.3886 45.6328 92.3155 43.6319 90.1562C41.6201 88.0859 39.6632 85.7883 38.0077 83.5469C35.2011 79.7445 34.5336 75.3121 36.1357 71.0647C36.7387 69.475 37.7405 68.1893 38.7107 66.946C39.6632 65.7315 40.5649 64.58 40.7541 63.4723C41.4776 59.3002 36.5345 54.0053 33.5853 50.8409L32.4259 49.5826C29.3191 46.1868 27.443 44.5232 25.7738 44.5232ZM72.9606 123.478C70.8035 123.478 68.7273 123.218 66.8759 122.784C64.5749 122.25 62.2109 121.455 59.8497 120.429C48.4449 115.479 38.8574 106.813 32.8233 100.417C26.7605 94.0599 18.6119 84.0329 14.2745 72.3888C13.3755 69.983 12.7122 67.5855 12.2956 65.2509C11.1897 59.0619 12.1024 50.4877 17.987 44.9942L18.8079 44.2178C19.6178 43.4511 20.7128 42.4146 20.7581 42.3721C26.7427 37.1265 32.0312 42.9102 35.5368 46.7373L36.6674 47.9628C40.151 51.7008 45.9864 57.9542 44.9092 64.187C44.5351 66.3354 43.2044 68.0387 42.0313 69.5394C41.2213 70.58 40.4553 71.5604 40.0812 72.5463C38.9862 75.4573 39.4425 78.393 41.3968 81.0452C42.944 83.1374 44.7735 85.2858 46.6894 87.2602C48.597 89.3169 50.6486 91.2543 52.6521 92.9084C55.1943 95.0033 58.1092 95.6127 61.0721 94.672C62.078 94.3544 63.1017 93.6423 64.1816 92.8865C65.7439 91.7993 67.5159 90.5601 69.6839 90.3068C75.9756 89.5688 81.9027 95.7154 85.4507 99.3932L86.617 100.59C90.2582 104.288 95.7536 109.876 90.2089 115.556C90.2048 115.556 90.2048 115.556 90.2048 115.556C90.2048 115.556 90.2048 115.56 90.2007 115.56C90.0897 115.667 88.6891 116.996 87.9079 117.733L87.4187 118.196C83.3745 122.084 77.9503 123.478 72.9606 123.478Z" fill="#00B6F0"/>
<path d="M53.802 65.2508C53.791 64.6128 53.7801 64.0747 53.7705 63.6365C53.7595 63.1984 53.7527 62.7314 53.7527 62.2358C53.7527 61.7401 53.7595 61.0815 53.7705 60.2586C53.8239 58.5552 54.2337 57.1189 55.008 55.9441C55.7823 54.772 56.9198 53.7738 58.4286 52.9619L60.487 51.8459C61.2106 51.4543 61.671 50.9833 61.8738 50.4342C62.0698 49.8824 62.1877 49.3621 62.2192 48.8801C62.2617 48.3201 62.2836 47.719 62.2863 47.07C62.2932 46.4182 62.2795 45.8116 62.2466 45.2461C62.1753 44.1302 61.4298 43.5742 60.0032 43.5742C59.2824 43.5742 58.7616 43.7208 58.445 44.0097C58.1244 44.2986 57.9531 44.6724 57.9311 45.1352C57.9092 45.9403 57.8955 46.6893 57.8845 47.3794C57.8736 48.0668 57.8955 48.8226 57.9448 49.6345H53.8294C53.8006 48.9431 53.776 48.2913 53.7581 47.6779C53.7444 47.0645 53.7472 46.4907 53.7691 45.9526C53.8513 43.9042 54.379 42.435 55.3561 41.5491C56.3291 40.6659 57.8804 40.2196 60.0032 40.2196C62.2535 40.2196 63.8582 40.6646 64.8244 41.5491C65.7878 42.4364 66.3113 43.9042 66.3935 45.9526C66.436 46.9864 66.436 47.9586 66.3935 48.8788C66.3332 50.5246 65.9084 51.8541 65.1273 52.8591C64.342 53.8642 63.3224 54.7118 62.0602 55.3991L59.7278 56.667C59.0645 57.0299 58.6081 57.5652 58.3546 58.2814C58.101 58.9975 57.9763 59.6575 57.9763 60.2558V61.6456H66.1003V65.2481H53.802" fill="#00B6F0"/>
<path d="M71.5476 55.1704H75.0463L75.589 49.2663L76.0673 44.1179H75.2012L73.5923 49.2663L71.5476 55.1704ZM75.0463 65.2509V58.7442H67.5569V55.3594L73.4059 40.5154H78.9438V55.1704H81.6682V58.7442H78.9438V65.2509H75.0463Z" fill="#00B6F0"/>
<path d="M97.9929 65.2509L105.093 44.1165H96.2456V40.514H109.241V44.2097L102.308 65.2509H97.9929Z" fill="#00B6F0"/>
<path d="M87.1831 68.0222L94.6794 38.6819H90.6572L83.1567 68.0222H87.1831Z" fill="#00B6F0"/>
<path d="M33.1056 37.7988C32.8316 37.7988 32.5534 37.7413 32.2848 37.6318C31.2117 37.1785 30.7115 35.9394 31.1651 34.87C31.6393 33.7513 32.1491 32.6573 32.6986 31.581C33.2235 30.5445 34.4884 30.131 35.5341 30.6582C36.5715 31.1895 36.9826 32.4574 36.4536 33.4939C35.9548 34.477 35.4833 35.4862 35.0489 36.5117C34.7104 37.3141 33.9306 37.7988 33.1056 37.7988Z" fill="#00B6F0"/>
<path d="M38.057 28.8192C37.6431 28.8192 37.2265 28.6987 36.8593 28.4413C35.9 27.7786 35.6642 26.4668 36.3275 25.5083C37.095 24.4034 37.9214 23.3093 38.7806 22.2591C39.5152 21.3582 40.8417 21.2226 41.7449 21.9565C42.6466 22.6945 42.7823 24.02 42.045 24.921C41.257 25.8863 40.5005 26.8954 39.7947 27.9141C39.3836 28.5029 38.7271 28.8192 38.057 28.8192Z" fill="#00B6F0"/>
<path d="M45.9316 19.9466C45.3506 19.9466 44.7723 19.7083 44.3556 19.2373C43.5813 18.3678 43.6567 17.0382 44.531 16.266C45.6973 15.2254 46.9211 14.2313 48.1764 13.3043C49.111 12.6128 50.4266 12.8086 51.1228 13.7466C51.8149 14.6804 51.619 16.0017 50.6843 16.6932C49.5318 17.5408 48.4094 18.4568 47.335 19.4125C46.9293 19.7685 46.4264 19.9466 45.9316 19.9466Z" fill="#00B6F0"/>
<path d="M95.6206 104.294C95.0533 104.294 94.501 104.069 94.0981 103.645C93.528 103.046 93.3567 102.173 93.6637 101.407L97.1555 92.6742C97.5872 91.5912 98.8179 91.0667 99.8978 91.498C100.978 91.9294 101.503 93.1548 101.071 94.2379L99.4195 98.3649C116.046 90.5642 126.913 73.7457 126.913 55.1061C126.913 28.7699 105.464 7.3398 79.1028 7.3398C71.5737 7.3398 64.3707 9.0363 57.6898 12.3855C56.6455 12.9099 55.3792 12.4882 54.8585 11.4489C54.3377 10.4096 54.7557 9.14308 55.7958 8.62276C63.0674 4.97371 70.9104 3.12524 79.1014 3.12524C107.793 3.12524 131.131 26.4436 131.131 55.1061C131.131 77.1661 117.141 96.8819 96.3168 104.176C96.0921 104.254 95.8564 104.294 95.6206 104.294Z" fill="#00B6F0"/>
<path d="M104.455 106.998C104.248 106.998 104.041 106.966 103.834 106.902L95.004 104.201C93.8871 103.862 93.2635 102.682 93.6061 101.57C93.9446 100.458 95.1328 99.8313 96.2388 100.174L105.068 102.871C106.185 103.213 106.809 104.392 106.466 105.504C106.188 106.411 105.354 106.998 104.455 106.998Z" fill="#00B6F0"/>
</svg>
