<svg width="148" height="126" viewBox="0 0 148 126" fill="none" xmlns="http://www.w3.org/2000/svg">
<path d="M50.791 24.9127C51.2666 24.4376 51.7421 23.9624 52.2176 23.5845H29.5054C28.4571 23.5845 27.6033 24.4375 27.6033 25.4809C27.6033 26.5284 28.4571 27.3814 29.5054 27.3814H48.6038C49.2712 26.5297 50.0318 25.7698 50.791 24.9127Z" fill="#00B6F0"/>
<path d="M77.0183 25.481C73.5963 25.481 70.3648 26.1464 67.3252 27.3815H86.8059C83.6717 26.1478 80.4402 25.481 77.0183 25.481Z" fill="#00B6F0"/>
<path d="M29.5054 46.3702H40.2442C40.4305 45.042 40.6224 43.8083 40.9061 42.5732H29.5054C28.4571 42.5732 27.6033 43.4263 27.6033 44.4738C27.6033 45.5185 28.4571 46.3702 29.5054 46.3702Z" fill="#00B6F0"/>
<path d="M88.4232 42.5732H52.7864C52.3109 43.8083 52.0259 45.042 51.7422 46.3702H88.4232C89.4675 46.3702 90.3213 45.5171 90.3213 44.4738C90.3213 43.4263 89.4675 42.5732 88.4232 42.5732Z" fill="#00B6F0"/>
<path d="M29.5054 55.8646H40.2442C40.0537 54.6295 39.955 53.3027 39.955 52.0676H29.5054C28.4571 52.0676 27.6033 52.9207 27.6033 53.9681C27.6033 55.0129 28.4571 55.8646 29.5054 55.8646Z" fill="#00B6F0"/>
<path d="M88.423 52.0676H51.3596C51.3596 53.3027 51.5501 54.6295 51.742 55.8646H88.423C89.4673 55.8646 90.3211 55.0115 90.3211 53.9681C90.3211 52.9207 89.4673 52.0676 88.423 52.0676Z" fill="#00B6F0"/>
<path d="M29.5054 65.359H42.8082C42.3327 64.1239 41.8572 62.8902 41.4748 61.562H29.5054C28.4571 61.562 27.6033 62.4151 27.6033 63.4625C27.6033 64.5073 28.4571 65.359 29.5054 65.359Z" fill="#00B6F0"/>
<path d="M88.423 61.562H53.5469C54.1156 62.8902 54.783 64.1239 55.6354 65.359H88.423C89.4673 65.359 90.3211 64.5059 90.3211 63.4625C90.3211 62.4151 89.4673 61.562 88.423 61.562Z" fill="#00B6F0"/>
<path d="M29.5054 71.0564C28.4571 71.0564 27.6033 71.9135 27.6033 72.9569C27.6033 74.0003 28.4571 74.8533 29.5054 74.8533H48.6038C47.5595 73.6183 46.7017 72.3846 45.8479 71.0564H29.5054Z" fill="#00B6F0"/>
<path d="M88.4231 71.0564H60.8623C62.8577 72.6721 64.9517 73.9072 67.2307 74.8533H88.4231C89.4674 74.8533 90.228 74.0934 90.3212 73.05V72.9569C90.3212 71.9135 89.4674 71.0564 88.4231 71.0564Z" fill="#00B6F0"/>
<path d="M29.5054 80.5508C28.4571 80.5508 27.6033 81.4079 27.6033 82.4513C27.6033 83.4947 28.4571 84.3477 29.5054 84.3477H60.6718C58.4887 83.3044 56.4934 81.9762 54.5912 80.5508H29.5054Z" fill="#00B6F0"/>
<path d="M88.4231 90.0452H29.5054C28.4571 90.0452 27.6033 90.9023 27.6033 91.9457C27.6033 92.9891 28.4571 93.8462 29.5054 93.8462H88.4231C89.4674 93.8462 90.3212 92.9891 90.3212 91.9457C90.3212 90.9023 89.4674 90.0452 88.4231 90.0452Z" fill="#00B6F0"/>
<path d="M88.4231 99.5396H29.5054C28.4571 99.5396 27.6033 100.397 27.6033 101.44C27.6033 102.483 28.4571 103.341 29.5054 103.341H88.4231C89.4674 103.341 90.3212 102.483 90.3212 101.44C90.3212 100.397 89.4674 99.5396 88.4231 99.5396Z" fill="#00B6F0"/>
<path d="M88.4231 33.0789H58.7738C57.6322 34.2153 56.5866 35.5476 55.6355 36.8758H88.4231C89.4674 36.8758 90.3212 36.0228 90.3212 34.9753C90.3212 33.9319 89.4674 33.0789 88.4231 33.0789Z" fill="#00B6F0"/>
<path d="M29.5054 33.0789C28.4571 33.0789 27.6033 33.9319 27.6033 34.9753C27.6033 36.0228 28.4571 36.8758 29.5054 36.8758H42.8082C43.377 35.5476 43.9457 34.3139 44.6131 33.0789H29.5054Z" fill="#00B6F0"/>
<path d="M99.8238 112.835H18.1008V14.0901H99.8238V21.8743C101.06 22.8246 102.104 23.7749 103.246 24.9113C103.339 25.0044 103.531 25.1961 103.624 25.2933V8.39132C103.624 5.25573 101.06 2.69385 97.9258 2.69385H19.9988C16.8646 2.69385 14.3005 5.25573 14.3005 8.39132V118.531C14.3005 121.663 16.8646 124.224 19.9988 124.224H97.9258C101.06 124.224 103.624 121.663 103.624 118.531V92.3223L99.8238 88.6226V112.835ZM18.1008 8.39407C18.1008 7.3507 18.9545 6.49355 19.9988 6.49355H97.9258C98.9701 6.49355 99.8238 7.3507 99.8238 8.39407V10.2905H18.1008V8.39407ZM99.8238 118.533C99.8238 119.576 98.9701 120.429 97.9258 120.429H19.9988C18.9545 120.429 18.1008 119.576 18.1008 118.533V116.632H99.8238V118.533Z" fill="#00B6F0"/>
<path d="M105.526 68.3042C108.665 63.0819 110.277 57.0996 110.277 51.1187C110.277 42.5746 107.046 34.1236 100.584 27.5731C87.5667 14.5666 66.5648 14.5666 53.547 27.5731C40.5293 40.4865 40.5293 61.5634 53.547 74.5699C60.01 81.1245 68.4669 84.3491 77.0184 84.3491C83.3827 84.3491 89.7525 82.5457 95.263 78.9405L123.202 105.998C124.629 107.424 126.527 108.089 128.429 108.089C130.327 108.089 132.229 107.424 133.656 105.998C135.082 104.67 135.843 102.77 135.843 100.776C135.843 98.7823 135.082 96.9791 133.656 95.5537L105.526 68.3042ZM95.6454 73.9072C94.6943 74.7602 93.65 75.4257 92.5071 76.0884C81.1023 83.1182 65.9946 81.6928 56.2043 71.9136C44.7063 60.4214 44.7063 41.8147 56.2043 30.3267C61.9066 24.6292 69.5112 21.6853 77.0184 21.6853C84.5257 21.6853 92.1261 24.5361 97.8285 30.3267C107.616 40.1059 109.043 55.106 102.201 66.4037C101.819 67.0692 101.344 67.736 100.868 68.3973C100.014 69.6324 98.97 70.773 97.8285 71.9136C97.1666 72.6735 96.4059 73.3348 95.6454 73.9072ZM131.092 103.243C129.665 104.669 127.287 104.669 125.865 103.243L98.4013 76.6607C99.1619 75.9953 99.8238 75.3285 100.584 74.6671C101.629 73.6196 102.487 72.5763 103.34 71.5316L131.092 98.4031C131.754 99.0645 132.136 99.9216 132.136 100.872C132.136 101.725 131.754 102.582 131.092 103.243Z" fill="#00B6F0"/>
</svg>
