<svg width="148" height="126" viewBox="0 0 148 126" fill="none" xmlns="http://www.w3.org/2000/svg">
<path d="M107.095 81.9288C114.634 81.9288 120.742 88.0206 120.742 95.5419C120.742 103.059 114.634 109.152 107.095 109.152C99.5566 109.152 93.4445 103.06 93.4445 95.5419C93.4459 88.0206 99.5566 81.9288 107.095 81.9288ZM114.211 88.4437C110.282 84.5222 103.898 84.5222 99.9691 88.4437C96.0373 92.3611 96.0373 98.7295 99.9691 102.647C103.898 106.568 110.282 106.568 114.211 102.647C118.144 98.7295 118.144 92.3625 114.211 88.4437ZM105.267 69.6891L109.243 69.7069C109.3 69.103 109.807 68.5923 108.954 67.6735C108.323 66.9861 107.43 66.7041 106.466 66.7041H87.1816L78.9837 72.8657C78.6287 73.1341 78.1943 73.245 77.7818 73.2203L36.6523 73.119C35.5656 73.119 34.0746 73.575 33.7484 74.6416L24.8228 104.13C24.4322 105.429 24.635 106.5 25.5683 107.509C26.6906 108.714 28.2694 109.243 29.9564 109.243H86.432C86.8376 107.445 88.6014 106.612 88.4342 106.326C87.4927 104.698 86.7691 102.976 86.284 101.16C86.1826 100.79 83.8652 101.695 82.1631 99.9919C81.4971 99.3265 81.0804 98.4104 81.0804 97.3945V93.8207C81.0804 91.7833 82.7346 90.1347 84.7738 90.1347L86.247 90.1169C86.2648 90.1059 86.2757 90.0813 86.2826 90.0484C86.7677 88.2397 87.4913 86.5035 88.4328 84.8782L88.4109 84.7303L88.404 84.7412C87.3104 83.6486 86.3401 82.8818 86.3401 81.1483C86.3401 80.2254 86.7019 79.2492 87.4269 78.5508L87.4201 78.544L89.9512 76.015C90.6721 75.2989 91.6163 74.9442 92.566 74.9442V74.9374C93.5144 74.9374 94.4559 75.2989 95.1808 76.015L96.2306 77.0392C96.2484 77.046 96.2744 77.0392 96.3032 77.0241C97.1077 76.5641 97.9436 76.141 98.8193 75.7795C99.6882 75.418 100.572 75.1181 101.485 74.8785L101.571 74.7621H101.578V73.3696H101.571C101.578 71.3431 103.229 69.6891 105.267 69.6891ZM111.962 71.3856C112.976 72.952 112.31 74.7936 112.635 74.8799C114.438 75.3577 116.198 76.0917 117.812 77.0255L117.957 77.0036V76.9967C119.051 75.9082 119.812 74.9388 121.556 74.9388C122.502 74.9388 123.446 75.3002 124.163 76.0136L126.698 78.5426C128.14 79.979 128.14 82.319 126.698 83.7554L125.666 84.8042C125.666 84.8261 125.677 84.848 125.688 84.8768C126.623 86.4939 127.353 88.2479 127.838 90.0471C127.933 90.4168 130.25 89.5117 131.959 91.2082C132.625 91.8736 133.038 92.8006 133.038 93.8166V97.3904C133.038 99.4196 131.379 101.074 129.344 101.074V101.067H127.953V101.074L127.837 101.16L126.931 103.812C126.569 104.678 126.159 105.515 125.685 106.323C125.498 106.656 127.778 107.647 127.778 110.049C127.778 110.997 127.416 111.944 126.691 112.658L124.156 115.182C122.69 116.654 120.278 116.623 118.84 115.088L117.883 114.158C117.866 114.158 117.833 114.165 117.804 114.176C116.174 115.117 114.448 115.837 112.626 116.322C112.256 116.416 113.166 118.727 111.457 120.431C110.787 121.096 109.868 121.506 108.851 121.506H105.266C103.224 121.506 101.573 119.853 101.573 117.822L101.551 116.357C101.544 116.342 101.518 116.328 101.485 116.322C99.6676 115.837 97.9285 115.117 96.2991 114.176C95.9729 113.988 94.9739 116.264 92.5619 116.264C91.6163 116.264 90.6721 115.903 89.9472 115.182L87.5639 112.805H27.1388C22.8014 112.805 18.5791 110.023 18.246 105.725L14.5239 58.3394C14.2485 54.8163 17.5444 52.316 21.0486 52.316H31.8421V9.82129C31.8421 6.34887 34.7968 3.55151 38.2873 3.55151H75.8618C79.3304 3.55151 82.307 6.31874 82.307 9.82129V12.8747H86.7458C90.2514 12.8747 93.1841 15.6968 93.1841 19.202V22.4143L107.168 38.9083C107.479 39.2273 107.671 39.6682 107.671 40.1461V63.2275C111.212 63.778 113.953 66.9834 112.705 70.4599C112.57 70.8584 112.303 71.1761 111.962 71.3856ZM108.856 73.2559H105.271L105.148 73.3682V74.7607C105.148 76.4395 104.032 77.8827 102.414 78.3167C101.651 78.5194 100.915 78.7727 100.198 79.0698L98.0985 80.1008C96.6499 80.9402 94.8245 80.6979 93.6487 79.5217C93.5075 79.3847 92.6853 78.5015 92.5729 78.5015V78.4974L89.9512 81.0662V81.0593V81.2264L90.9434 82.2136H90.9366C92.1247 83.4007 92.3632 85.2054 91.5231 86.6568C90.7406 87.9987 90.1431 89.4501 89.7347 90.959C89.3003 92.5802 87.8517 93.6907 86.1716 93.6907C85.9838 93.6907 84.7669 93.6551 84.6943 93.7263C84.6765 93.7441 84.6614 93.7769 84.6614 93.8098V97.3876C84.6614 97.7998 86.7321 96.9687 88.4164 98.2599C89.0495 98.7446 89.5168 99.421 89.7347 100.232C90.1445 101.747 90.7406 103.195 91.5231 104.536C92.3632 105.988 92.1248 107.808 90.9434 108.982C90.8064 109.119 89.9225 109.945 89.9225 110.053C89.9225 110.082 89.9293 110.111 89.9512 110.133L92.4934 112.662C92.7798 112.955 93.6514 110.904 95.7701 110.628C96.5526 110.527 97.3708 110.679 98.0944 111.099C99.4415 111.87 100.897 112.47 102.41 112.875C104.032 113.305 105.155 114.761 105.155 116.431C105.155 116.623 105.111 117.828 105.181 117.896C105.206 117.918 105.236 117.932 105.267 117.932H108.852C109.269 117.932 108.436 115.866 109.728 114.184C110.213 113.554 110.894 113.087 111.706 112.871C113.227 112.466 114.675 111.865 116.021 111.095C117.476 110.256 119.28 110.487 120.464 111.674C120.58 111.783 121.427 112.694 121.551 112.694C121.58 112.694 121.608 112.677 121.63 112.659L124.165 110.13C124.463 109.833 122.406 108.969 122.13 106.852C122.025 106.07 122.181 105.259 122.598 104.532C122.981 103.867 123.33 103.165 123.634 102.437C123.923 101.735 124.176 101.001 124.379 100.227C124.814 98.6172 126.269 97.4999 127.949 97.4999V97.5067H129.34V97.4999L129.457 97.3876V93.8098C129.457 93.3935 127.386 94.226 125.698 92.9375C124.275 91.838 124.416 90.5167 123.669 88.8353C123.286 87.9603 123.076 87.4852 122.598 86.6541C121.751 85.2027 121.996 83.3911 123.177 82.215C123.314 82.078 124.198 81.2524 124.198 81.1442C124.198 81.1155 124.183 81.0867 124.163 81.0648L121.629 78.5289H121.466L120.48 79.5203L120.474 79.5093C119.311 80.6965 117.475 80.9306 116.02 80.0953C114.659 79.3108 113.232 78.7248 111.707 78.3112C110.093 77.8813 108.966 76.434 108.966 74.758C108.966 74.5704 109.002 73.3586 108.93 73.2861C108.91 73.271 108.885 73.2559 108.856 73.2559ZM21.5776 102.51L30.3333 73.6079C30.6087 72.685 31.1446 71.8963 31.8544 71.2637V55.8884H21.0568C19.7028 55.8884 17.9788 56.6593 18.0953 58.0764L21.5776 102.51ZM35.4313 69.6562C35.8301 69.5946 36.2385 69.5617 36.651 69.5617L42.7343 69.5768V19.2034C42.7343 15.6981 45.667 12.8761 49.1726 12.8761H78.737V9.82266C78.737 8.29184 77.4118 7.11976 75.8687 7.11976H38.2982C36.7414 7.11976 35.4299 8.29184 35.4299 9.82266V69.6562H35.4313ZM46.3153 69.5959L52.326 69.611V28.1843C52.326 24.8091 54.7448 21.6831 58.112 21.6831H89.6169V19.2089C89.6169 17.6603 88.3136 16.4485 86.7568 16.4485H49.1713C47.6076 16.4485 46.3112 17.6671 46.3112 19.2089V69.5973H46.3153V69.5959ZM55.9001 69.6137L77.3063 69.6644L85.4356 63.5534C85.7467 63.296 86.1456 63.1372 86.5869 63.1372H104.105V41.9302H95.7413C92.381 41.9302 89.9553 38.8111 89.9553 35.4331V25.8429C89.8252 25.669 89.7306 25.4705 89.673 25.2528H58.1092C56.784 25.2528 55.9001 26.7685 55.9001 28.1829V69.6137ZM86.3484 36.9407C87.3337 36.9407 88.1368 37.7444 88.1368 38.7248C88.1368 39.712 87.3324 40.509 86.3484 40.509H78.578C77.5927 40.509 76.7896 39.7134 76.7896 38.7248C76.7896 37.7403 77.594 36.9407 78.578 36.9407H86.3484ZM97.4503 57.5233C98.4356 57.5233 99.2387 58.327 99.2387 59.3074C99.2387 60.2919 98.4342 61.0915 97.4503 61.0915H77.9559C76.9746 61.0915 76.1702 60.2919 76.1702 59.3074C76.1702 58.327 76.9746 57.5233 77.9559 57.5233H97.4503ZM71.7958 57.5233C72.788 57.5233 73.5842 58.327 73.5842 59.3074C73.5842 60.2919 72.788 61.0915 71.7958 61.0915H62.2219C61.2338 61.0915 60.4362 60.2919 60.4362 59.3074C60.4362 58.327 61.2324 57.5233 62.2219 57.5233H71.7958ZM97.4503 47.2333C98.4356 47.2333 99.2387 48.0371 99.2387 49.0175C99.2387 49.9979 98.4342 50.8016 97.4503 50.8016H88.5397C87.5475 50.8016 86.7513 49.9979 86.7513 49.0175C86.7513 48.0371 87.5475 47.2333 88.5397 47.2333H97.4503ZM82.8716 47.2333C83.8597 47.2333 84.6532 48.0371 84.6532 49.0175C84.6532 49.9979 83.8569 50.8016 82.8716 50.8016H62.2219C61.2338 50.8016 60.4362 49.9979 60.4362 49.0175C60.4362 48.0371 61.2324 47.2333 62.2219 47.2333H82.8716ZM72.9907 36.9407C73.9761 36.9407 74.7792 37.7444 74.7792 38.7248C74.7792 39.712 73.9747 40.509 72.9907 40.509H62.2219C61.2338 40.509 60.4362 39.7134 60.4362 38.7248C60.4362 37.7403 61.2324 36.9407 62.2219 36.9407H72.9907ZM95.7413 38.3661H102.041L93.5322 28.3336V35.4318C93.5322 36.8544 94.4161 38.3661 95.7413 38.3661Z" fill="#00B6F0"/>
</svg>
