<svg width="62" height="64" viewBox="0 0 62 64" fill="none" xmlns="http://www.w3.org/2000/svg">
<g clip-path="url(#clip0_1_1834)">
<path d="M61.4025 34.7831H59.2835V32.6652C59.2835 29.696 57.1958 27.2128 54.4093 26.5995V17.8067C54.4093 17.4178 54.2054 17.0632 53.8712 16.8702L27.7869 1.81881C27.4527 1.62583 27.045 1.62583 26.7107 1.81881L0.626472 16.8702C0.292247 17.0632 0.0883789 17.4188 0.0883789 17.8067V47.9086C0.0883789 48.2945 0.292247 48.6502 0.626472 48.8431L26.7107 63.8945C26.8725 63.9925 27.0665 64.0356 27.2488 64.0356C27.4321 64.0356 27.6252 63.9915 27.7869 63.8945L45.643 53.5961H61.4025C61.9945 53.5961 62.4787 53.1122 62.4787 52.5205V35.8557C62.4787 35.2542 61.9945 34.7831 61.4025 34.7831ZM57.1311 32.6652V34.7831H48.9999V32.6652C48.9999 30.416 50.8279 28.5989 53.0655 28.5989C55.3032 28.5989 57.1311 30.416 57.1311 32.6652ZM44.7285 34.7831C44.1365 34.7831 43.6523 35.267 43.6523 35.8557V52.2629L28.325 61.1096V33.4802L38.0597 27.8681V36.2446C38.0597 36.8363 38.5439 37.3202 39.1359 37.3202C39.7259 37.3202 40.2091 36.8363 40.2091 36.2446V26.623L52.2589 19.665V26.5045C49.2126 26.9013 46.8466 29.5021 46.8466 32.6652V34.7831H44.7285ZM14.8776 11.1288L37.0923 25.9334L27.239 31.6199L3.31498 17.8067L14.8776 11.1288ZM27.2488 3.99057L51.1837 17.8067L39.178 24.7285L16.9555 9.93766L27.2488 3.99057ZM2.23781 19.665L26.1726 33.4704V61.09L2.23781 47.2846V19.665ZM60.3263 51.4449H45.8047V36.9313H60.3263V51.4449Z" fill="#005494"/>
<path d="M53.0654 40.8457C52.4734 40.8457 51.9893 41.3296 51.9893 41.9213V44.7592C51.9893 45.3489 52.4734 45.8318 53.0654 45.8318C53.6574 45.8318 54.1416 45.3479 54.1416 44.7592V41.9213C54.1416 41.3296 53.6574 40.8457 53.0654 40.8457Z" fill="#005494"/>
</g>
<defs>
<clipPath id="clip0_1_1834">
<rect width="62" height="64" fill="white"/>
</clipPath>
</defs>
</svg>
