<svg width="82" height="52" viewBox="0 0 82 52" fill="none" xmlns="http://www.w3.org/2000/svg">
<path d="M23.8473 12.3027C26.4859 12.677 29.0002 13.0077 31.5041 13.4047C32.1493 13.5071 32.7793 13.7781 33.3827 14.0453C36.1266 15.2582 36.5754 17.1459 34.7328 19.6276C36.4416 22.2184 36.4416 22.2743 34.6825 24.6262C34.7973 24.7854 34.9197 24.9721 35.0573 25.1455C36.4378 26.8938 36.2661 28.8013 34.2366 29.73C32.2128 30.6558 29.9699 31.321 27.7621 31.5778C24.6064 31.9445 21.4203 31.6887 18.4221 30.3526C18.0379 30.181 17.5104 30.2786 17.0568 30.3241C13.6279 30.67 10.2493 30.5601 6.98921 29.2875C6.90097 29.2533 6.81558 29.2116 6.72924 29.1728C3.70639 27.8376 3.20638 26.0097 5.16563 23.4597C3.50809 21.1144 3.50524 20.7846 5.11914 18.4706C3.50809 16.0789 3.50999 15.7557 5.15614 13.5042C3.51473 11.2243 3.51189 10.7211 5.12863 8.66769C5.12293 8.57672 5.15045 8.46015 5.10396 8.39856C3.29651 5.99734 3.621 4.19975 6.38103 3.01809C11.4542 0.845242 16.6403 0.842405 21.7069 3.03326C24.4688 4.22723 24.7914 6.08926 22.8729 8.55681C23.8881 9.65792 24.577 10.9163 23.8473 12.3027ZM21.8141 6.31384C21.8084 6.14611 21.8027 5.9784 21.797 5.81067C21.1556 5.45722 20.5493 5.00142 19.8672 4.76641C15.9838 3.42651 12.0728 3.42366 8.19702 4.77684C7.53287 5.009 6.99205 5.59177 6.39431 6.01251C7.0376 6.49863 7.61067 7.19795 8.33555 7.43674C12.1279 8.68663 15.9657 8.67337 19.7656 7.43959C20.4943 7.20269 21.1338 6.69572 21.8141 6.31384ZM18.2049 17.1629C20.3539 20.1412 31.043 20.2028 33.5392 17.252C31.487 14.2651 20.7201 14.2026 18.2049 17.1629ZM18.1157 26.6617C18.1347 26.8616 18.1536 27.0606 18.1726 27.2605C18.4516 27.5041 18.6916 27.8424 19.017 27.9769C23.5618 29.8579 28.1273 29.8285 32.6758 27.9997C33.0184 27.8623 33.5146 27.3326 33.4539 27.1345C33.3381 26.7583 32.9178 26.3925 32.5345 26.2068C32.1882 26.0381 31.6995 26.0135 31.3124 26.0997C27.6994 26.9109 24.1064 26.8957 20.4753 26.1424C19.7552 25.9936 18.9051 26.4721 18.1157 26.6617ZM17.9923 22.461C18.9269 22.9073 19.7277 23.5583 20.5882 23.6511C23.3378 23.9496 26.1102 24.1695 28.8721 24.1553C30.0932 24.1486 31.3343 23.5677 32.5183 23.1214C32.9263 22.9679 33.1891 22.4297 33.5184 22.0667C33.0819 21.7379 32.6815 21.3286 32.1958 21.1097C31.894 20.9742 31.4491 21.0718 31.0904 21.158C27.5837 22.0052 24.0807 21.9682 20.5797 21.139C19.5332 20.8917 18.7324 21.1788 17.9923 22.461ZM21.9365 11.1968C21.0807 10.1156 20.3254 9.79817 19.2533 10.0521C15.7921 10.8727 12.3081 10.869 8.84694 10.0616C7.84027 9.82659 6.98446 9.99432 6.54043 10.8481C6.44934 11.0234 7.42755 12.0345 8.05565 12.2562C12.0188 13.6558 16.0283 13.6502 20.0076 12.2771C20.6414 12.0582 21.1993 11.6166 21.9365 11.1968ZM15.7048 23.1252C15.8054 22.1473 15.8813 21.4148 15.9401 20.8434C13.3214 20.5174 10.7682 20.1346 8.19987 19.9271C7.58125 19.8768 6.91615 20.4065 6.27287 20.669C6.29754 20.8396 6.32126 21.0092 6.34593 21.1798C9.1164 23.2645 12.3594 23.2219 15.7048 23.1252ZM15.9562 15.9396C13.3091 15.5624 10.7692 15.1303 8.21125 14.8915C7.65336 14.8394 7.03096 15.4819 6.43796 15.805C6.77384 16.1973 7.0319 16.7479 7.45791 16.9554C10.0728 18.229 12.8565 18.3806 15.6934 18.1399C15.7968 17.27 15.8851 16.529 15.9562 15.9396ZM6.16091 26.041C9.17617 28.1011 12.3565 28.3437 15.702 28.0831C15.7949 27.1677 15.8727 26.4039 15.9344 25.806C13.5444 25.5274 11.2284 25.3976 8.97977 24.937C7.80137 24.6954 7.08408 24.9598 6.16091 26.041Z" fill="#005494"/>
<path d="M38.8307 36.5763C38.0157 36.5763 37.4587 36.5763 36.9009 36.5763C25.6653 36.5763 14.4287 36.5763 3.19314 36.5763C2.76618 36.5763 2.34017 36.5734 1.91322 36.5734C1.06974 36.5734 0.235753 36.2939 0.375225 35.3709C0.443538 34.9208 1.29556 34.5275 1.86009 34.2385C2.16085 34.0841 2.60489 34.2063 2.9844 34.2063C28.1587 34.2063 53.333 34.2025 78.5063 34.2205C79.5073 34.2215 81.0491 33.7913 80.9988 35.4571C80.9533 36.9742 79.4798 36.5601 78.513 36.5611C67.1825 36.5829 55.852 36.5753 44.5206 36.5753C43.9599 36.5753 43.4001 36.5753 42.6078 36.5753C42.8944 37.1429 43.0519 37.5163 43.2587 37.8584C45.4618 41.5057 47.6744 45.1482 49.8813 48.7927C50.8557 50.4027 50.4524 51.1807 48.5871 51.1873C43.3726 51.2053 38.1571 51.2025 32.9425 51.1892C31.1806 51.1845 30.7081 50.3866 31.6038 48.8638C33.8353 45.0677 36.1077 41.2962 38.3601 37.5134C38.4768 37.3182 38.566 37.106 38.8307 36.5763ZM34.4577 48.6961C38.8032 48.6961 42.8213 48.6961 47.0899 48.6961C44.9125 45.0923 42.8716 41.7151 40.696 38.1142C38.5584 41.7397 36.5564 45.1359 34.4577 48.6961Z" fill="#005494"/>
<path d="M46.1005 15.9251C46.0417 7.31809 52.8473 0.366499 61.377 0.320066C69.9673 0.272686 76.9447 7.18637 76.9761 15.7754C77.0064 24.228 70.0945 31.3473 61.8096 31.3966C53.0693 31.4478 46.1603 24.644 46.1005 15.9251ZM61.6711 29.0125C68.9863 28.8485 74.8422 22.8161 74.6781 15.6134C74.512 8.33866 68.4198 2.47964 61.2166 2.66822C53.9223 2.85868 48.2827 8.76792 48.4279 16.0673C48.574 23.3998 54.4793 29.1735 61.6711 29.0125Z" fill="#005494"/>
<path d="M68.489 13.216C65.2812 17.5456 62.3134 21.5501 59.3465 25.5547C59.2582 25.5102 59.171 25.4666 59.0827 25.422C59.9622 22.6588 60.8418 19.8947 61.7972 16.8936C59.818 16.8936 58.0201 16.8936 55.8198 16.8936C59.0732 12.7773 62.0705 8.98401 65.0686 5.18982C65.173 5.24478 65.2774 5.29974 65.3808 5.3547C64.4349 7.88289 63.4889 10.4101 62.4395 13.215C64.507 13.216 66.3106 13.216 68.489 13.216Z" fill="#005494"/>
</svg>
