<svg width="82" height="74" viewBox="0 0 82 74" fill="none" xmlns="http://www.w3.org/2000/svg">
<path d="M60.2351 19.422H60.1823C59.4783 10.1812 51.7537 2.87805 42.357 2.87805C32.963 2.87805 25.2384 10.1803 24.5344 19.422H24.4816C18.0374 19.422 12.7935 24.6774 12.7935 31.1392C12.7935 37.7296 18.832 42.8591 25.1707 42.8591C25.9292 42.8591 26.5452 42.2413 26.5452 41.4801C26.5452 40.7189 25.9301 40.1012 25.1707 40.1012C20.0438 40.1012 15.5443 35.9141 15.5443 31.1392C15.5443 26.198 19.5545 22.1791 24.4825 22.1791H25.8588C26.6182 22.1791 27.2334 21.5613 27.2334 20.8001C27.2334 12.4375 34.0182 5.63509 42.3588 5.63509C50.7012 5.63509 57.486 12.4375 57.486 20.8001C57.486 21.5613 58.1011 22.1791 58.8606 22.1791H60.2369C65.1649 22.1791 69.1751 26.198 69.1751 31.1392C69.1751 36.333 65.7052 40.1012 60.9251 40.1012C60.1639 40.1012 59.5487 40.7189 59.5487 41.4801C59.5487 42.2413 60.1639 42.8591 60.9251 42.8591C67.1968 42.8591 71.9251 37.8202 71.9251 31.1392C71.9242 24.6774 66.6793 19.422 60.2351 19.422Z" fill="#005494"/>
<path d="M34.7959 35.9651H36.1705C37.6867 35.9651 38.9213 37.2024 38.9213 38.7221C38.9213 39.4833 39.5365 40.1011 40.2959 40.1011C41.0571 40.1011 41.6722 39.4833 41.6722 38.7221C41.6722 35.6817 39.2047 33.2072 36.1713 33.2072H34.7968C31.7625 33.2072 29.2959 35.6808 29.2959 38.7221V45.6151C29.2959 48.6555 31.7634 51.1301 34.7968 51.1301H36.1713C39.2056 51.1301 41.6722 48.6564 41.6722 45.6151C41.6722 44.8539 41.0571 44.2362 40.2959 44.2362C39.5373 44.2362 38.9213 44.8539 38.9213 45.6151C38.9213 47.1358 37.6867 48.3722 36.1705 48.3722H34.7959C33.2779 48.3722 32.045 47.1349 32.045 45.6151V38.7221C32.045 37.2024 33.2779 35.9651 34.7959 35.9651Z" fill="#005494"/>
<path d="M50.6096 33.2081C47.197 33.2081 44.4224 35.9916 44.4224 39.4113V44.9262C44.4224 48.3477 47.197 51.1311 50.6096 51.1311C54.0223 51.1311 56.7969 48.3477 56.7969 44.9262V39.4113C56.7969 35.9916 54.0214 33.2081 50.6096 33.2081ZM54.0461 44.9253C54.0461 46.8261 52.506 48.3732 50.6096 48.3732C48.7132 48.3732 47.1706 46.8261 47.1706 44.9253V39.4104C47.1706 37.5113 48.7132 35.9652 50.6096 35.9652C52.506 35.9652 54.0461 37.5122 54.0461 39.4104V44.9253Z" fill="#005494"/>
<path d="M63.4022 56.8149C63.4093 56.8105 63.4155 56.8396 63.4199 56.8352C65.5151 55.7862 66.8166 53.6751 66.8166 51.3273C66.8166 48.9372 64.8781 46.9941 62.495 46.9941C60.112 46.9941 58.1733 48.9372 58.1733 51.3273C58.1733 52.0885 58.7885 52.7062 59.5479 52.7062C60.3073 52.7062 60.9242 52.0885 60.9242 51.3273C60.9242 50.4578 61.6282 49.7521 62.495 49.7521C63.3601 49.7521 64.0658 50.4578 64.0658 51.3273C64.0658 52.6218 63.3512 53.786 62.1984 54.3659C57.8371 56.4841 58.1821 61.0847 58.1733 61.1173C58.1733 61.8785 58.7885 62.4364 59.5479 62.4364H65.0488C65.8082 62.4364 66.4233 61.8186 66.4233 61.0574C66.4233 60.2962 65.8082 59.6785 65.0488 59.6785H61.0571C61.3703 58.4377 62.223 57.3843 63.4022 56.8149Z" fill="#005494"/>
<path d="M23.995 48.1655V59.4022V61.9515H26.5443H28.1846L21.5934 69.9481L15.2257 61.9515H16.918H19.4674V59.4022V48.1655H23.995ZM25.1697 45.6161H18.2943C17.5357 45.6161 16.918 46.2339 16.918 46.9951V59.403H12.7934C12.2646 59.403 11.7841 59.7066 11.5544 60.1845C11.3265 60.6623 11.3907 61.2291 11.7207 61.6427L20.504 72.6717C20.7803 73.0175 21.179 73.1891 21.5776 73.1891C21.9718 73.1891 22.3652 73.0219 22.6397 72.6893L31.7302 61.6602C32.0707 61.2484 32.142 60.6773 31.9158 60.195C31.6879 59.7102 31.203 59.403 30.6724 59.403H26.5452V46.9951C26.5443 46.233 25.9292 45.6161 25.1697 45.6161Z" fill="#005494"/>
<path d="M49.9214 19.422C49.9214 20.1832 50.5392 20.801 51.2977 20.801C52.0563 20.801 52.6722 20.1832 52.6722 19.422C52.6722 14.0998 48.355 9.77197 43.046 9.77197C42.2874 9.77197 41.6714 10.3897 41.6714 11.1509C41.6714 11.9121 42.2865 12.5299 43.046 12.5299C46.8361 12.5281 49.9214 15.6196 49.9214 19.422Z" fill="#005494"/>
</svg>
