<svg width="82" height="57" viewBox="0 0 82 57" fill="none" xmlns="http://www.w3.org/2000/svg">
<path d="M79.3031 38.9094L75.7614 28.3052C75.6003 27.8247 75.1498 27.4999 74.6412 27.4999H64.0178V22.787C64.0178 22.1345 63.4891 21.6076 62.8366 21.6076H54.5738V13.3594C54.5738 12.7087 54.0451 12.1827 53.3945 12.1827H22.7029C22.0504 12.1827 21.5217 12.7096 21.5217 13.3594V38.1032H15.6194V5.11113H60.477V18.0713C60.477 18.7238 61.0057 19.2507 61.6582 19.2507C62.3107 19.2507 62.8375 18.7238 62.8375 18.0713V3.93359C62.8375 3.29295 62.3261 2.77243 61.6873 2.75696H14.4119C13.7731 2.77243 13.2589 3.29295 13.2589 3.93359V23.9627H4.9961C4.34363 23.9627 3.81494 24.4896 3.81494 25.142V39.2798C3.81494 39.9305 4.34363 40.4592 4.9961 40.4592H35.6877V45.1721C35.0352 45.1721 34.5065 45.6989 34.5065 46.3487V51.0616C34.5065 51.7141 35.0352 52.2409 35.6877 52.2409H40.4397C41.519 53.6642 43.2116 54.5969 45.1326 54.5969C47.0518 54.5969 48.7444 53.6633 49.8236 52.2409H64.0506C65.1298 53.6642 66.8224 54.5969 68.7416 54.5969C70.6626 54.5969 72.3552 53.6633 73.4345 52.2409H78.1865C78.839 52.2409 79.3677 51.7141 79.3677 51.0616V39.2807C79.3641 39.1551 79.3422 39.0286 79.3031 38.9094ZM13.2571 38.1041H6.17275V26.3205H13.2571V38.1041ZM23.8804 14.5396H52.2115V16.8956H23.8804V14.5396ZM23.8804 19.2516H52.2115V21.6076H23.8804V19.2516ZM52.2115 23.9645V28.6774H47.4904V23.9645H52.2115ZM35.6859 38.1041H23.8804V33.3894H35.6859V38.1041ZM35.6859 31.0334H23.8804V28.6774H35.6859V31.0334ZM35.6859 26.3205H23.8804V23.9645H35.6859V26.3205ZM39.3468 49.885H36.8661V47.529H39.3468C39.2685 47.9093 39.2276 48.3034 39.2276 48.7056C39.2276 49.1105 39.2685 49.5046 39.3468 49.885ZM45.1299 52.2418C43.1761 52.2418 41.5881 50.6557 41.5881 48.7065C41.5881 46.7591 43.1761 45.173 45.1299 45.173C47.0818 45.173 48.6697 46.7591 48.6697 48.7065C48.6697 50.6557 47.0818 52.2418 45.1299 52.2418ZM45.1299 42.817C43.2088 42.817 41.5162 43.7506 40.437 45.173H38.0455V23.9645H45.1299V29.8559C45.1299 30.5065 45.6586 31.0325 46.3092 31.0325H53.3936C54.0442 31.0325 54.5729 30.5056 54.5729 29.8559V23.9645H61.6573V45.173H49.8218C48.7416 43.7497 47.049 42.817 45.1299 42.817ZM62.9549 49.885H50.9129C50.9911 49.5046 51.033 49.1105 51.033 48.7056C51.033 48.3034 50.9921 47.9093 50.9129 47.529H62.9549C62.8785 47.9093 62.8357 48.3034 62.8357 48.7056C62.8357 49.1105 62.8794 49.5046 62.9549 49.885ZM75.3655 34.5687L76.5449 38.1041H69.9201V34.5687H75.3655ZM68.738 52.2418C66.786 52.2418 65.1981 50.6557 65.1981 48.7065C65.1981 46.7591 66.786 45.173 68.738 45.173C70.6917 45.173 72.2797 46.7591 72.2797 48.7065C72.2797 50.6557 70.6917 52.2418 68.738 52.2418ZM68.738 42.817C66.8188 42.817 65.1262 43.7506 64.0469 45.173H64.0169V29.8568H73.7903L74.5774 32.2128H68.738C68.0873 32.2128 67.5586 32.7396 67.5586 33.3894V39.2807C67.5586 39.9314 68.0873 40.4601 68.738 40.4601H77.0008V45.173H73.4308C72.3516 43.7497 70.659 42.817 68.738 42.817ZM77.0035 49.885H74.521C74.5993 49.5046 74.6412 49.1105 74.6412 48.7056C74.6412 48.3034 74.6002 47.9093 74.521 47.529H77.0035V49.885Z" fill="#005494"/>
</svg>
