<svg width="82" height="69" viewBox="0 0 82 69" fill="none" xmlns="http://www.w3.org/2000/svg">
<path d="M17.9452 16.3778H44.4214C44.6115 16.3761 44.7882 16.3304 44.9534 16.24C45.1186 16.1503 45.2547 16.0275 45.3576 15.8698C45.4755 15.6847 45.5327 15.4822 45.5327 15.2639V9.48128C45.5327 9.33354 45.5046 9.19161 45.449 9.05549C45.3917 8.91937 45.3128 8.7982 45.2082 8.69362C45.1036 8.5907 44.9841 8.50853 44.848 8.45126C44.7102 8.39565 44.5683 8.36577 44.4206 8.36577H17.9444C17.7967 8.36577 17.6547 8.39565 17.5186 8.45126C17.3808 8.50853 17.2613 8.5907 17.1567 8.69362C17.0538 8.7982 16.9733 8.91937 16.9177 9.05549C16.8604 9.19161 16.8322 9.33354 16.8339 9.48128V15.2639C16.8322 15.41 16.8604 15.5519 16.9177 15.688C16.9733 15.8242 17.0538 15.9453 17.1584 16.0482C17.2613 16.1528 17.3825 16.2333 17.5186 16.2906C17.6556 16.3487 17.7983 16.3778 17.9452 16.3778ZM19.0632 10.5877H43.3034V14.1583H19.0632V10.5877ZM21.7325 40.9308H17.946C17.7983 40.9325 17.6564 40.9599 17.5202 41.018C17.3825 41.0752 17.263 41.1558 17.1584 41.2603C17.0555 41.3649 16.9749 41.4861 16.9193 41.6222C16.8621 41.7583 16.8338 41.8986 16.8355 42.0463V45.7199C16.8338 45.8677 16.8621 46.0096 16.9193 46.1457C16.9749 46.2818 17.0555 46.4013 17.1601 46.5059C17.263 46.6105 17.3841 46.691 17.5202 46.7483C17.6564 46.8039 17.7983 46.8338 17.946 46.8338H21.7325C21.8794 46.8338 22.0222 46.8056 22.16 46.7483C22.2977 46.6927 22.4189 46.6122 22.5235 46.5076C22.6281 46.403 22.7086 46.2818 22.7658 46.1457C22.8231 46.0096 22.8514 45.8677 22.8514 45.7199V42.0463C22.8514 41.8986 22.8231 41.7567 22.7658 41.6205C22.7086 41.4844 22.6281 41.3633 22.5235 41.2587C22.4189 41.1541 22.2977 41.0736 22.16 41.0163C22.0222 40.9599 21.8794 40.9308 21.7325 40.9308ZM20.612 44.611H19.0632V43.1527H20.6136L20.612 44.611ZM48.3705 36.9294C48.8519 36.4463 49.4312 36.1517 50.1044 36.0438V35.3922C50.1011 35.242 50.126 35.0976 50.1816 34.9581C50.2355 34.8187 50.3161 34.6959 50.419 34.5896C50.5236 34.4817 50.6447 34.3995 50.7842 34.3406C50.922 34.2833 51.0655 34.2535 51.2166 34.2535C51.3677 34.2535 51.5112 34.2833 51.649 34.3406C51.7868 34.3995 51.9096 34.4817 52.0126 34.5896C52.1171 34.6959 52.1977 34.8187 52.2516 34.9581C52.3072 35.0976 52.3321 35.2412 52.3272 35.3922V36.0438C52.9538 36.1484 53.4991 36.4156 53.9639 36.8472C53.9938 36.8721 54.0212 36.8979 54.0477 36.9277C54.5441 37.4158 54.8454 38.0051 54.9516 38.6906C54.9765 38.8459 54.9873 39.0019 54.9856 39.1588C54.9856 39.3065 54.9574 39.4484 54.9001 39.5862C54.8445 39.7223 54.7624 39.8435 54.6578 39.9464C54.5532 40.051 54.432 40.1315 54.2942 40.1888C54.1581 40.2461 54.0145 40.2743 53.8668 40.2743C53.7182 40.2743 53.5755 40.2461 53.4377 40.1888C53.3016 40.1315 53.1804 40.051 53.0758 39.9464C52.9712 39.8435 52.889 39.7223 52.8334 39.5862C52.7762 39.4484 52.7463 39.3065 52.7463 39.1588C52.748 39.0525 52.7297 38.9496 52.689 38.8508C52.6434 38.7131 52.5695 38.5952 52.4666 38.4939C52.2831 38.3122 52.064 38.2209 51.8051 38.2209H50.6132C50.3559 38.2209 50.1351 38.3122 49.9517 38.4923C49.8977 38.5412 49.8538 38.5969 49.8156 38.6591C49.7027 38.8409 49.6553 39.0376 49.6744 39.2501C49.6935 39.4626 49.7774 39.646 49.9235 39.8037C50.1119 39.9971 50.3426 40.0967 50.6123 40.1033H51.8075C52.489 40.1033 53.104 40.3 53.6559 40.6943C53.8004 40.7939 53.9323 40.9051 54.0552 41.0296L54.1174 41.1018C54.5134 41.511 54.7723 41.994 54.8968 42.5493C54.9574 42.7834 54.9856 43.0208 54.9823 43.2615C54.9806 43.8856 54.8088 44.4583 54.4685 44.9804C54.3457 45.1688 54.2063 45.3423 54.0494 45.5008C53.5664 45.9805 52.9886 46.2752 52.3155 46.3864V47.0396C52.3205 47.1882 52.2939 47.3326 52.24 47.472C52.186 47.6115 52.1055 47.7343 52.001 47.8406C51.8964 47.9485 51.7752 48.0306 51.6374 48.0896C51.498 48.1468 51.3544 48.1767 51.205 48.1767C51.0548 48.1767 50.9103 48.1468 50.7725 48.0896C50.6331 48.0306 50.512 47.9485 50.4074 47.8406C50.3028 47.7343 50.2239 47.6115 50.1683 47.472C50.1144 47.3326 50.0895 47.189 50.0928 47.0396V46.3847C49.7475 46.3275 49.4213 46.2146 49.1134 46.0511C48.837 45.9067 48.588 45.7232 48.3672 45.5025C48.0676 45.2061 47.8369 44.8642 47.6733 44.4757C47.5115 44.0881 47.4293 43.6814 47.4293 43.2606C47.4293 43.1129 47.4592 42.971 47.5148 42.8348C47.5721 42.6971 47.6526 42.5775 47.7588 42.473C47.8634 42.3684 47.9846 42.2879 48.1207 42.2323C48.2585 42.175 48.4004 42.1468 48.5498 42.1468C48.6975 42.1468 48.8411 42.175 48.9773 42.2323C49.115 42.2879 49.2362 42.3684 49.3408 42.473C49.4454 42.5775 49.5259 42.6971 49.5831 42.8348C49.6404 42.971 49.6687 43.1129 49.6687 43.2606C49.6653 43.5229 49.7575 43.7453 49.9417 43.9304C50.1268 44.1139 50.3509 44.2068 50.6132 44.2102H51.8001C51.9263 44.2085 52.0474 44.1836 52.1636 44.1363C52.2782 44.0873 52.3811 44.0184 52.4699 43.9296C52.5587 43.8408 52.6267 43.7395 52.6765 43.6233C52.7255 43.5088 52.7504 43.3876 52.7521 43.2631C52.7504 43.0863 52.7031 42.9228 52.611 42.7718C52.5803 42.7228 52.5438 42.6788 52.5031 42.6373C52.3147 42.429 52.0806 42.326 51.8009 42.3244H50.6223C50.0903 42.3211 49.5873 42.1949 49.1175 41.9459C48.8428 41.7973 48.5955 41.6122 48.3722 41.3923L48.3182 41.3383C48.1755 41.1906 48.0502 41.0304 47.9398 40.8586C47.8302 40.6868 47.7364 40.5067 47.6617 40.3166C47.5862 40.1265 47.5306 39.9315 47.4932 39.7306C47.4575 39.5289 47.4393 39.3281 47.4426 39.1231C47.4443 38.9197 47.4675 38.7172 47.5081 38.5172C47.5505 38.3171 47.6111 38.1246 47.6899 37.9362C47.7704 37.7478 47.8667 37.5693 47.9813 37.3992C48.0958 37.2307 48.2253 37.073 48.3705 36.9294ZM44.4231 18.8619H40.6366C40.4897 18.8619 40.3469 18.8918 40.2108 18.9491C40.073 19.0064 39.9535 19.0869 39.8489 19.1915C39.746 19.2944 39.6655 19.4156 39.6082 19.5517C39.5526 19.6878 39.5244 19.8297 39.5244 19.9775V23.651C39.5244 23.7988 39.5526 23.9391 39.6082 24.0752C39.6655 24.213 39.746 24.3325 39.8489 24.4371C39.9535 24.5416 40.073 24.6221 40.2108 24.6794C40.3469 24.735 40.4888 24.7649 40.6366 24.7649H44.4214C44.5683 24.7649 44.7111 24.735 44.8472 24.6794C44.985 24.6221 45.1045 24.5416 45.2091 24.4371C45.312 24.3325 45.3925 24.213 45.4498 24.0752C45.5054 23.9391 45.5336 23.7988 45.5336 23.651V19.9775C45.5336 19.8297 45.5054 19.6895 45.4498 19.5517C45.3925 19.4156 45.312 19.296 45.2091 19.1915C45.1045 19.0869 44.985 19.0064 44.8472 18.9491C44.7111 18.8935 44.5691 18.8636 44.4214 18.8619H44.4231ZM43.3034 22.5422H41.7546V21.0913H43.3034V22.5422ZM44.4231 26.2157H40.6366C40.4897 26.2174 40.3469 26.2465 40.2108 26.3029C40.073 26.3602 39.9535 26.4407 39.8489 26.5453C39.746 26.6498 39.6655 26.7694 39.6082 26.9055C39.5526 27.0433 39.5244 27.1835 39.5244 27.3313V31.0082C39.5244 31.1559 39.5526 31.2962 39.6082 31.4323C39.6655 31.5684 39.746 31.6896 39.8489 31.7942C39.9535 31.8971 40.073 31.9793 40.2108 32.0349C40.3469 32.0921 40.4888 32.122 40.6366 32.122H44.4214C44.5542 32.122 44.6837 32.1004 44.8082 32.0548C44.9327 32.0091 45.0439 31.9419 45.1435 31.8564C45.2447 31.7693 45.3269 31.668 45.3908 31.5535C45.4548 31.4373 45.4954 31.3144 45.5136 31.1833C45.5269 31.126 45.5336 31.0671 45.5303 31.0082V27.3329C45.5319 27.1869 45.502 27.0449 45.4464 26.9088C45.3908 26.7727 45.3103 26.6532 45.2074 26.5486C45.1028 26.444 44.9833 26.3635 44.8472 26.3062C44.7111 26.249 44.5691 26.2207 44.4214 26.2191L44.4231 26.2157ZM43.3034 29.896H41.7546V28.4468H43.3034V29.896ZM71.1333 60.6782C71.1399 60.6358 71.1449 60.591 71.1466 60.547V59.6299H71.1682V14.8713C71.1682 14.7227 71.1382 14.5783 71.081 14.4389C71.0237 14.3011 70.9416 14.1783 70.8353 14.072C70.7291 13.9674 70.6062 13.8853 70.4668 13.828C70.3273 13.7707 70.1821 13.7408 70.031 13.7408H51.4183V7.13322C51.4183 6.85683 51.3901 6.58292 51.3361 6.31151C51.2805 6.04176 51.2 5.77783 51.0938 5.52219C50.9875 5.26655 50.8564 5.02419 50.7028 4.79511C50.5476 4.56437 50.3725 4.35106 50.1758 4.15684C49.9807 3.96179 49.7666 3.78666 49.5358 3.63311C49.3051 3.47956 49.0627 3.35007 48.8054 3.24383C48.5481 3.13759 48.2851 3.05709 48.0128 3.00148C47.7414 2.94753 47.4658 2.91931 47.1878 2.91931H15.1763C14.9 2.91931 14.6244 2.94753 14.353 3.00148C14.0816 3.05543 13.816 3.13594 13.5603 3.24218C13.303 3.34842 13.0606 3.4779 12.8299 3.63145C12.5992 3.785 12.3859 3.9593 12.19 4.15518C11.9949 4.35023 11.8198 4.56271 11.6663 4.79345C11.5127 5.02253 11.3816 5.26489 11.2753 5.52053C11.1708 5.77617 11.0902 6.03927 11.0363 6.31151C10.9823 6.58126 10.9541 6.85517 10.9541 7.13156V48.0672C10.9541 48.3435 10.9823 48.6174 11.0363 48.8872C11.0902 49.1586 11.1708 49.4226 11.277 49.6782C11.3816 49.9322 11.5127 50.1762 11.6663 50.4053C11.8198 50.6343 11.9949 50.8477 12.1917 51.0435C12.3867 51.2386 12.6008 51.4137 12.8299 51.5673C13.0606 51.7208 13.3047 51.8503 13.5603 51.9565C13.8176 52.0628 14.0807 52.1433 14.353 52.1972C14.6244 52.2512 14.9 52.2794 15.1763 52.2794H19.2923V66.5836C19.294 66.6749 19.3056 66.7654 19.328 66.8534C19.3529 66.9422 19.3852 67.0268 19.4292 67.1074C19.4732 67.1879 19.5272 67.2609 19.5895 67.3281C19.6534 67.3954 19.7222 67.4526 19.7986 67.5033C19.8774 67.5522 19.9588 67.5921 20.046 67.6211C20.1331 67.6502 20.2227 67.6684 20.314 67.6767C20.4053 67.6834 20.4958 67.6801 20.5871 67.6651C20.6776 67.6485 20.7656 67.6244 20.8494 67.5863H49.5242C49.6537 67.5912 49.7782 67.5713 49.8994 67.5307C50.0223 67.4883 50.1318 67.4261 50.2297 67.3439C50.3276 67.2601 50.4082 67.1638 50.4704 67.0509C50.531 66.938 50.5717 66.8185 50.5883 66.6907C50.6256 66.5828 50.6455 66.4716 50.6472 66.357V62.1921H70.1082C70.1987 62.1904 70.2867 62.1788 70.3738 62.1581C70.4601 62.1348 70.544 62.1041 70.6245 62.0618C70.7033 62.0195 70.7764 61.9688 70.8436 61.9082C70.9108 61.8476 70.9681 61.7804 71.0187 61.7066C71.0693 61.6327 71.11 61.553 71.1416 61.4692C71.1714 61.3837 71.1922 61.2974 71.2022 61.2085C71.2121 61.1189 71.2105 61.0301 71.1989 60.9413C71.1856 60.8525 71.1632 60.7662 71.13 60.6823L71.1333 60.6782ZM54.2494 32.9188C54.896 33.1662 55.5102 33.4791 56.0895 33.8551C56.3991 34.0634 56.6937 34.2892 56.9735 34.5348C57.1353 34.671 57.2897 34.8146 57.4366 34.9656C58.0932 35.6271 58.6301 36.3716 59.0509 37.2016C59.3165 37.7171 59.5257 38.2541 59.6793 38.8143C59.8826 39.5182 59.9905 40.2369 60.0071 40.9707C60.0154 41.0545 60.0138 41.1375 60.0138 41.2213C60.0171 42.4315 59.7814 43.5935 59.3083 44.7081C59.0676 45.2775 58.7679 45.8162 58.4077 46.3208C58.1197 46.7284 57.7985 47.1102 57.4466 47.4637C57.132 47.78 56.7967 48.0696 56.4381 48.3344C56.0796 48.5984 55.7011 48.8341 55.3068 49.0416C54.9126 49.2499 54.5042 49.425 54.0826 49.5703C53.6618 49.7164 53.231 49.8293 52.7928 49.9089C52.3537 49.9878 51.9105 50.0351 51.4648 50.0484C51.0174 50.06 50.5742 50.0401 50.1301 49.9845C49.6877 49.9305 49.2512 49.8417 48.822 49.7205C48.3929 49.5993 47.9755 49.4474 47.5696 49.264V49.1495H47.3322L47.0035 48.981C46.5055 48.7112 46.0407 48.3933 45.605 48.0298L45.5427 47.9775C45.4871 47.9286 45.4299 47.8846 45.3693 47.8447C45.3377 47.8007 45.302 47.7626 45.2597 47.7285C45.1808 47.6563 45.1012 47.5841 45.0306 47.5061L44.9717 47.4554C44.7003 47.1857 44.448 46.8969 44.2156 46.5922L44.1516 46.4927C44.0695 46.3881 43.9948 46.2843 43.9276 46.1797L43.8163 46.0129C43.7873 45.9689 43.7557 45.9233 43.7267 45.8768L43.6827 45.788C43.5432 45.5655 43.4171 45.3348 43.3042 45.0974L43.2303 44.9439C43.1946 44.87 43.1581 44.7903 43.1291 44.7181L43.0195 44.4608C43.0013 44.4152 42.9822 44.3678 42.9606 44.3039L42.8212 43.8964C42.7821 43.7636 42.7423 43.6325 42.7033 43.5022C42.6966 43.4582 42.685 43.415 42.6692 43.3727L42.5987 43.0697C42.5871 42.9162 42.5613 42.7651 42.5198 42.6166L42.5099 42.5792L42.4659 42.2157C42.4576 42.1601 42.4526 42.1044 42.4509 42.0472C42.441 41.9899 42.4377 41.9343 42.4344 41.8803L42.4244 41.7509C42.4211 41.7152 42.4194 41.6803 42.4211 41.6446C42.4111 41.5068 42.4045 41.3699 42.4045 41.2271C42.4045 41.0844 42.4128 40.9341 42.4211 40.7864L42.4535 40.31C42.4535 40.2743 42.4584 40.2361 42.4651 40.2004L42.7074 38.9106C42.729 38.8268 42.7514 38.7504 42.7863 38.6516L42.9191 38.2391C42.934 38.1935 42.9515 38.1478 42.973 38.1047C43.0029 38.0208 43.032 37.9428 43.0793 37.8333C43.0942 37.7893 43.1116 37.7461 43.1332 37.7054C43.1614 37.6249 43.1955 37.5486 43.2345 37.4747L43.3 37.3353C43.3374 37.2514 43.3839 37.1684 43.4262 37.0912L43.4636 36.9551L43.4959 36.9618C43.5242 36.9062 43.5582 36.8439 43.6287 36.7244C43.6536 36.6787 43.6827 36.6347 43.7126 36.5916C43.7466 36.5393 43.7781 36.487 43.8055 36.433C43.8354 36.3957 43.8595 36.3542 43.8894 36.3152L44.0761 36.0513C44.1184 35.9873 44.169 35.9251 44.2363 35.8354C44.2628 35.7964 44.2969 35.7566 44.3674 35.6686C44.4147 35.608 44.4588 35.5524 44.5177 35.4868C44.6978 35.2835 44.9601 35.0005 45.0024 34.9581C46.0457 33.9679 47.2484 33.2409 48.6137 32.7777C49.5392 32.5254 50.482 32.4125 51.4415 32.4391C52.401 32.464 53.3356 32.6275 54.2477 32.9271L54.2494 32.9188ZM15.4801 50.0616L15.1772 50.0533C15.0477 50.0533 14.9165 50.0401 14.7896 50.0143C14.6617 49.9894 14.5372 49.9521 14.416 49.9015C14.2965 49.8508 14.1803 49.7902 14.0724 49.718C13.9645 49.6458 13.8625 49.5628 13.7712 49.4707C13.6782 49.3794 13.596 49.279 13.5238 49.1711C13.4499 49.0615 13.3894 48.9486 13.3387 48.8274C13.2881 48.7079 13.2499 48.5834 13.2242 48.4556C13.1993 48.3278 13.1868 48.1983 13.1852 48.0696V7.13405C13.1852 6.87011 13.2375 6.61696 13.3387 6.3746C13.44 6.13224 13.586 5.9181 13.7745 5.73301C14.1621 5.3454 14.631 5.15034 15.1805 5.14702H47.1886C47.3197 5.14702 47.4492 5.16031 47.5762 5.18604C47.7057 5.2126 47.8302 5.24994 47.9514 5.29891C48.0709 5.34954 48.1854 5.41014 48.295 5.48235C48.4029 5.55622 48.5042 5.63756 48.5963 5.72969C48.6893 5.82099 48.7714 5.92308 48.8453 6.03098C48.9175 6.13888 48.9798 6.25342 49.0287 6.37294C49.0794 6.49246 49.1175 6.61696 49.1433 6.74478C49.169 6.8726 49.1823 7.00208 49.1823 7.13156V30.3566H49.1723C48.4942 30.4828 47.8343 30.6712 47.1944 30.9243L47.1238 30.9492C46.9993 30.9982 46.8649 31.0571 46.7454 31.1161C46.0772 31.4107 45.4473 31.7709 44.8563 32.1967C44.814 32.215 44.7758 32.2391 44.7434 32.2723C44.6696 32.3212 44.6007 32.3735 44.5293 32.4275L44.277 32.6308C44.2197 32.6698 44.169 32.718 44.1217 32.7686C44.0711 32.7993 44.0255 32.8375 43.984 32.8798C43.8985 32.9487 43.8188 33.0209 43.7433 33.0973C43.7042 33.1272 43.6661 33.1612 43.6321 33.1952C43.5632 33.2641 43.4959 33.3313 43.4096 33.4094C43.3523 33.4666 43.2934 33.5256 43.2362 33.5878H40.6366C40.4897 33.5878 40.3469 33.616 40.2108 33.6716C40.0747 33.7289 39.9551 33.8078 39.8506 33.9123C39.7476 34.0153 39.6671 34.1348 39.6099 34.2709C39.5543 34.407 39.5244 34.5473 39.5244 34.6934V38.3736C39.5244 38.4948 39.5443 38.611 39.5833 38.7239C39.6207 38.8367 39.6763 38.9413 39.7485 39.0368C39.8223 39.1314 39.907 39.2135 40.0058 39.2808C40.1054 39.348 40.2133 39.3986 40.3287 39.431C40.3204 39.4816 40.3087 39.5373 40.2979 39.6111L40.283 39.7323C40.2763 39.7896 40.2681 39.8485 40.2647 39.8991L40.2075 40.4917C40.2075 40.5407 40.2008 40.5897 40.1909 40.6785C40.1859 40.7881 40.1826 40.9026 40.1826 41.042C39.9825 41.1309 39.824 41.2661 39.7045 41.4496C39.585 41.6313 39.5244 41.833 39.5244 42.0505V45.7307C39.5244 45.8768 39.5534 46.0171 39.6099 46.1532C39.6671 46.2893 39.7476 46.4088 39.8522 46.5117C39.9551 46.6147 40.0763 46.6952 40.2125 46.7508C40.3486 46.8064 40.4888 46.8346 40.6366 46.8346H41.7123L42.143 47.5127C42.1613 47.5426 42.1821 47.57 42.2377 47.6472L42.4178 47.8862L42.4734 47.9651C42.7631 48.3436 43.0759 48.7021 43.4146 49.0391C43.7814 49.4093 44.1724 49.7496 44.5899 50.0625L15.4801 50.0616ZM48.4046 65.3544H21.5416V52.2819H33.2404V53.575H25.7539C25.6053 53.575 25.4609 53.6049 25.3231 53.6605C25.1853 53.7178 25.0641 53.7983 24.9595 53.9029C24.8533 54.0075 24.7728 54.1287 24.7155 54.2664C24.6582 54.4042 24.6301 54.5461 24.6301 54.6939C24.6301 54.8424 24.6582 54.9852 24.7155 55.123C24.7728 55.2591 24.8533 55.3803 24.9595 55.4849C25.0641 55.5895 25.1853 55.6716 25.3231 55.7272C25.4609 55.7845 25.6045 55.8127 25.7539 55.8127H33.2404V58.7742H25.6377C25.4883 58.7742 25.3447 58.8024 25.2069 58.8596C25.0691 58.9153 24.9479 58.9974 24.8433 59.102C24.7387 59.2066 24.6566 59.3278 24.5993 59.4639C24.542 59.6017 24.5138 59.7436 24.5138 59.893C24.5138 60.0407 24.542 60.1827 24.5993 60.3204C24.6566 60.4582 24.7387 60.5794 24.8433 60.684C24.9479 60.7886 25.0691 60.8691 25.2069 60.9263C25.3447 60.982 25.4883 61.0118 25.6377 61.0118H33.2404V61.0774C33.2321 61.3721 33.3318 61.6244 33.5418 61.8335C33.5517 61.8468 33.565 61.8584 33.5758 61.8692C33.5857 61.8825 33.5907 61.8858 33.599 61.8925C33.8098 62.1016 34.0655 62.2037 34.3635 62.1954H48.4021L48.4046 65.3544ZM68.8989 59.9561H35.4873V52.2811H47.1878C47.5248 52.2827 47.8559 52.2404 48.1813 52.1532C48.3631 52.1109 48.5399 52.0553 48.7133 51.9864C49.1682 52.0927 49.6288 52.1698 50.0936 52.2172C50.5584 52.2661 51.0232 52.2844 51.4921 52.2728C51.9586 52.2611 52.4234 52.2205 52.8857 52.1483C53.3472 52.0777 53.8029 51.9781 54.2528 51.8503C54.701 51.7208 55.14 51.5639 55.5691 51.3789C55.9982 51.1954 56.4141 50.9846 56.8166 50.7456C57.2175 50.5082 57.6026 50.2459 57.9711 49.9596C58.3397 49.6732 58.6883 49.3636 59.0153 49.0333C59.6884 48.3635 60.2611 47.6173 60.7359 46.7956H64.827C64.9788 46.8006 65.1283 46.774 65.2718 46.7184C65.4146 46.6628 65.5399 46.5823 65.6519 46.4744C65.7615 46.3681 65.847 46.2437 65.9059 46.1026C65.9665 45.9614 65.9964 45.8145 65.9964 45.6618C65.9964 45.5083 65.9665 45.3605 65.9059 45.2194C65.847 45.0783 65.7615 44.9555 65.6519 44.8476C65.5407 44.7413 65.4146 44.6592 65.2718 44.6036C65.1274 44.548 64.9788 44.5231 64.827 44.5264H61.746C62.0829 43.449 62.2515 42.3443 62.2506 41.2163C62.2539 40.1407 62.0996 39.0899 61.7908 38.0598C61.6995 37.737 61.5908 37.4216 61.4663 37.1103C61.1061 36.2181 60.6379 35.3864 60.0619 34.6137H64.8294C64.9805 34.6137 65.1258 34.5855 65.2652 34.5282C65.4063 34.4709 65.5291 34.3888 65.6354 34.2825C65.7416 34.1763 65.8254 34.0534 65.8827 33.914C65.94 33.7746 65.9699 33.631 65.9699 33.4799C65.9699 33.3288 65.9408 33.1836 65.8827 33.0458C65.8254 32.9064 65.7416 32.7835 65.6354 32.6773C65.5291 32.5711 65.4063 32.4889 65.2652 32.4316C65.1258 32.3727 64.9805 32.3445 64.8294 32.3445H57.8059C56.8714 31.6439 55.8513 31.1069 54.7441 30.7301H60.6952C60.8471 30.7301 60.9915 30.7019 61.1326 30.6446C61.2721 30.5857 61.3949 30.5035 61.5011 30.3973C61.609 30.2911 61.6912 30.1699 61.7484 30.0304C61.8057 29.891 61.8356 29.7457 61.8356 29.5963C61.8356 29.4461 61.8057 29.3 61.7484 29.1606C61.6912 29.0228 61.609 28.9 61.5011 28.7937C61.3949 28.6875 61.2721 28.6053 61.1326 28.5464C60.9915 28.4891 60.8479 28.4609 60.6952 28.4609H51.4208V26.8449H60.6952C60.8471 26.8449 60.9915 26.8167 61.1326 26.7577C61.2721 26.7005 61.3949 26.6183 61.5011 26.5121C61.609 26.4058 61.6912 26.283 61.7484 26.1452C61.8057 26.0058 61.8356 25.8605 61.8356 25.7094C61.8356 25.5609 61.8057 25.4148 61.7484 25.2754C61.6912 25.1359 61.609 25.0131 61.5011 24.9085C61.3949 24.8023 61.2721 24.7184 61.1326 24.6612C60.9915 24.6039 60.8479 24.5757 60.6952 24.5757H51.4208V16.0051H68.8914V59.1593H68.9031L68.8989 59.9561ZM21.7325 18.8619H17.946C17.7983 18.8636 17.6564 18.8927 17.5202 18.9491C17.3841 19.0064 17.263 19.0869 17.1601 19.1915C17.0555 19.296 16.9749 19.4156 16.9193 19.5533C16.8621 19.6895 16.8338 19.8297 16.8355 19.9775V23.651C16.8338 23.7988 16.8621 23.9407 16.9193 24.0768C16.9749 24.213 17.0555 24.3341 17.1601 24.4371C17.263 24.5416 17.3841 24.6221 17.5202 24.6794C17.6564 24.7367 17.7983 24.7666 17.946 24.7666H21.7325C21.8794 24.7666 22.0222 24.7367 22.16 24.6811C22.2977 24.6238 22.4189 24.5433 22.5235 24.4387C22.6281 24.3358 22.7086 24.2146 22.7658 24.0785C22.8231 23.9407 22.8514 23.8004 22.8514 23.651V19.9775C22.8514 19.8297 22.8231 19.6878 22.7658 19.5517C22.7086 19.4139 22.6281 19.2944 22.5235 19.1898C22.4189 19.0852 22.2977 19.0047 22.16 18.9491C22.0222 18.891 21.8794 18.8636 21.7325 18.8619ZM20.612 22.5422H19.0632V21.0913H20.6136L20.612 22.5422ZM36.8576 33.5754H33.0728C32.9251 33.577 32.7831 33.6052 32.647 33.6625C32.5092 33.7198 32.3897 33.8003 32.2851 33.9049C32.1822 34.0095 32.1017 34.129 32.0444 34.2651C31.9888 34.4012 31.9606 34.5431 31.9606 34.6909V38.3645C31.9606 38.5122 31.9888 38.6541 32.0444 38.7903C32.1017 38.9264 32.1822 39.0459 32.2851 39.1505C32.3897 39.255 32.5092 39.3356 32.647 39.3928C32.7831 39.4484 32.9251 39.4783 33.0728 39.4783H36.8576C37.0045 39.4783 37.1473 39.4493 37.2834 39.3912C37.4195 39.3339 37.5407 39.2534 37.6436 39.1488C37.7482 39.0459 37.8287 38.9247 37.8843 38.7903C37.9416 38.6541 37.9698 38.5122 37.9698 38.3645V34.6909C37.9698 34.5431 37.9416 34.4029 37.8843 34.2667C37.8287 34.1306 37.7482 34.0095 37.6436 33.9065C37.5407 33.802 37.4195 33.7214 37.2834 33.6642C37.1481 33.6061 37.0054 33.577 36.8576 33.5754ZM35.7396 37.2556H34.1908V35.7923H35.7396V37.2556ZM29.2938 33.5754H25.509C25.3596 33.577 25.2177 33.6052 25.0816 33.6625C24.9438 33.7181 24.8243 33.7986 24.7197 33.9032C24.6151 34.0078 24.5346 34.129 24.4773 34.2651C24.4217 34.4012 24.3935 34.5431 24.3935 34.6909V38.3645C24.3935 38.5122 24.4217 38.6541 24.4773 38.7903C24.5346 38.9264 24.6151 39.0459 24.718 39.1505C24.8226 39.255 24.9421 39.3356 25.0799 39.3928C25.216 39.4484 25.358 39.4783 25.5057 39.4783H29.2905C29.4382 39.4783 29.5802 39.4493 29.7163 39.3928C29.8541 39.3356 29.9736 39.255 30.0781 39.1505C30.1811 39.0459 30.2616 38.9264 30.3189 38.7903C30.3745 38.6541 30.4027 38.5122 30.4027 38.3645V34.6909C30.4027 34.5431 30.3745 34.4029 30.3189 34.2667C30.2633 34.1306 30.1827 34.0095 30.0798 33.9065C29.9752 33.802 29.8557 33.7214 29.7196 33.6642C29.5843 33.6061 29.4415 33.577 29.2938 33.5754ZM28.1758 37.2556H26.627V35.7923H28.1741L28.1758 37.2556ZM21.7325 33.5754H17.946C17.7983 33.577 17.6564 33.6052 17.5202 33.6625C17.3825 33.7198 17.263 33.8003 17.1584 33.9049C17.0555 34.0095 16.9749 34.129 16.9193 34.2651C16.8621 34.4029 16.8338 34.5431 16.8355 34.6909V38.3645C16.8338 38.5122 16.8621 38.6541 16.9193 38.7903C16.9749 38.9264 17.0555 39.0459 17.1601 39.1505C17.263 39.255 17.3841 39.3356 17.5202 39.3928C17.6564 39.4484 17.7983 39.4783 17.946 39.4783H21.7325C21.8794 39.4783 22.0222 39.4501 22.16 39.3945C22.2977 39.3372 22.4189 39.2567 22.5235 39.1521C22.6281 39.0475 22.7086 38.928 22.7658 38.7919C22.8231 38.6541 22.8514 38.5139 22.8514 38.3645V34.6909C22.8514 34.5431 22.8231 34.4012 22.7658 34.2651C22.7086 34.1273 22.6281 34.0078 22.5235 33.9032C22.4189 33.7986 22.2977 33.7181 22.16 33.6608C22.0222 33.6044 21.8794 33.5754 21.7325 33.5754ZM20.612 37.2556H19.0632V35.7923H20.6136L20.612 37.2556ZM29.2938 26.2141H25.509C25.3596 26.2157 25.2177 26.244 25.0799 26.3012C24.9438 26.3585 24.8226 26.439 24.718 26.5436C24.6134 26.6482 24.5329 26.7694 24.4773 26.9071C24.4217 27.0433 24.3935 27.1852 24.3935 27.3329V31.0082C24.3935 31.1559 24.4217 31.2962 24.4773 31.4323C24.5346 31.5684 24.6151 31.6896 24.718 31.7942C24.8226 31.8971 24.9421 31.9793 25.0799 32.0349C25.216 32.0921 25.358 32.122 25.5057 32.122H29.2905C29.4382 32.122 29.5802 32.0921 29.7163 32.0349C29.8541 31.9793 29.9736 31.8971 30.0781 31.7942C30.1811 31.6896 30.2616 31.5684 30.3189 31.4323C30.3745 31.2962 30.4027 31.1559 30.4027 31.0082V27.3329C30.4027 27.1869 30.3745 27.0449 30.3189 26.9088C30.2633 26.7727 30.1827 26.6532 30.0781 26.5486C29.9752 26.4457 29.8557 26.3635 29.7196 26.3062C29.5835 26.2506 29.4415 26.2207 29.2938 26.2191V26.2141ZM28.1758 29.8943H26.627V28.4468H28.1741L28.1758 29.8943ZM36.8576 40.9308H33.0728C32.9251 40.9325 32.7831 40.9599 32.6453 41.018C32.5092 41.0752 32.3897 41.1558 32.2851 41.2603C32.1822 41.3649 32.1017 41.4861 32.0444 41.6222C31.9888 41.7583 31.9606 41.8986 31.9606 42.0463V45.7199C31.9606 45.8677 31.9888 46.0096 32.0444 46.1457C32.1017 46.2818 32.1822 46.4013 32.2851 46.5059C32.3897 46.6105 32.5092 46.691 32.647 46.7483C32.7831 46.8039 32.9251 46.8338 33.0728 46.8338H36.8576C37.0045 46.8338 37.1473 46.8039 37.2834 46.7466C37.4195 46.6894 37.5407 46.6088 37.6436 46.5043C37.7482 46.4013 37.8287 46.2802 37.8843 46.1441C37.9416 46.0079 37.9698 45.8677 37.9698 45.7199V42.0463C37.9698 41.9003 37.9416 41.7583 37.8843 41.6222C37.8287 41.4861 37.7482 41.3666 37.6436 41.262C37.5407 41.1574 37.4195 41.0769 37.2834 41.0196C37.1481 40.9615 37.0054 40.9325 36.8576 40.9308ZM35.7396 44.611H34.1908V43.1527H35.7396V44.611ZM29.2938 40.9308H25.509C25.3596 40.9325 25.2177 40.9599 25.0816 41.018C24.9438 41.0736 24.8243 41.1558 24.7197 41.2587C24.6151 41.3633 24.5346 41.4844 24.4773 41.6205C24.4217 41.7583 24.3935 41.8986 24.3935 42.0463V45.7199C24.3935 45.8677 24.4217 46.0096 24.479 46.1457C24.5346 46.2818 24.6151 46.403 24.7197 46.5076C24.8243 46.6122 24.9455 46.6927 25.0816 46.7483C25.2194 46.8056 25.3596 46.8338 25.509 46.8338H29.2938C29.4407 46.8338 29.5835 46.8039 29.7213 46.7483C29.8574 46.691 29.9769 46.6105 30.0815 46.5059C30.1861 46.4013 30.2649 46.2818 30.3222 46.1441C30.3778 46.0079 30.406 45.8677 30.406 45.7199V42.0463C30.406 41.8986 30.3778 41.7583 30.3222 41.6222C30.2649 41.4861 30.1861 41.3649 30.0815 41.2603C29.9769 41.1558 29.8574 41.0752 29.7213 41.018C29.5843 40.9599 29.4415 40.9325 29.2938 40.9308ZM28.1758 44.611H26.627V43.1527H28.1741L28.1758 44.611ZM36.8576 26.2191H33.0728C32.9251 26.2191 32.7831 26.249 32.647 26.3062C32.5092 26.3635 32.3897 26.444 32.2851 26.5486C32.1822 26.6515 32.1017 26.7727 32.0444 26.9088C31.9888 27.0449 31.9606 27.1869 31.9606 27.3329V31.0082C31.9606 31.1559 31.9888 31.2962 32.0444 31.4323C32.1017 31.5684 32.1822 31.6896 32.2851 31.7942C32.3897 31.8971 32.5092 31.9793 32.647 32.0349C32.7831 32.0921 32.9251 32.122 33.0728 32.122H36.8576C37.0045 32.1204 37.1473 32.0921 37.2834 32.0349C37.4195 31.9776 37.5407 31.8971 37.6436 31.7925C37.7482 31.6879 37.8287 31.5684 37.8843 31.4323C37.9416 31.2962 37.9698 31.1559 37.9698 31.0082V27.3329C37.9698 27.1869 37.9416 27.0449 37.8859 26.9088C37.8287 26.7727 37.7482 26.6515 37.6453 26.5486C37.5407 26.444 37.4212 26.3635 37.2834 26.3062C37.1481 26.249 37.0054 26.2191 36.8576 26.2191ZM35.7396 29.8993H34.1908V28.4468H35.7396V29.8993ZM21.7325 26.2191H17.946C17.7983 26.2191 17.6564 26.249 17.5202 26.3062C17.3841 26.3635 17.263 26.444 17.1601 26.5486C17.0555 26.6515 16.9749 26.7727 16.9193 26.9088C16.8621 27.0449 16.8338 27.1869 16.8355 27.3329V31.0082C16.8338 31.1559 16.8621 31.2962 16.9193 31.4323C16.9749 31.5684 17.0555 31.6896 17.1601 31.7942C17.263 31.8971 17.3841 31.9793 17.5202 32.0349C17.6564 32.0921 17.7983 32.122 17.946 32.122H21.7325C21.8794 32.122 22.0222 32.0938 22.16 32.0365C22.2977 31.9809 22.4189 31.8988 22.5235 31.7958C22.6281 31.6913 22.7086 31.5701 22.7658 31.434C22.8231 31.2978 22.8514 31.1559 22.8514 31.0082V27.3329C22.8514 27.1852 22.8231 27.0449 22.7658 26.9071C22.7086 26.771 22.6281 26.6498 22.5235 26.5469C22.4189 26.4423 22.2977 26.3618 22.16 26.3046C22.0222 26.2473 21.8794 26.2191 21.7325 26.2191ZM20.612 29.8993H19.0632V28.4468H20.6136L20.612 29.8993ZM36.8576 18.8586H33.0728C32.9251 18.8586 32.7831 18.8885 32.647 18.9458C32.5092 19.003 32.3897 19.0836 32.2851 19.1881C32.1822 19.2911 32.1017 19.4122 32.0444 19.5484C31.9888 19.6845 31.9606 19.8264 31.9606 19.9725V23.6726C31.9622 23.8187 31.9913 23.959 32.0469 24.0934C32.1042 24.2279 32.1847 24.3458 32.2893 24.4487C32.3938 24.5499 32.5134 24.6304 32.6495 24.6844C32.784 24.74 32.9242 24.7666 33.072 24.7666H36.8567C37.0037 24.7666 37.1464 24.7367 37.2825 24.6794C37.4203 24.6221 37.5399 24.5416 37.6444 24.4371C37.7474 24.3341 37.8279 24.213 37.8851 24.0768C37.9407 23.9407 37.969 23.7988 37.969 23.651V19.9775C37.974 19.6994 37.8818 19.4571 37.6926 19.252C37.4768 18.9898 37.1979 18.8611 36.8576 18.8628V18.8586ZM35.7396 22.5389H34.1908V21.0913H35.7396V22.5389ZM29.2938 18.8586H25.509C25.3596 18.8586 25.2177 18.8885 25.0799 18.9441C24.9438 19.0014 24.8226 19.0836 24.718 19.1881C24.6134 19.2927 24.5329 19.4139 24.4773 19.55C24.4217 19.6878 24.3935 19.8297 24.3935 19.9775V23.651C24.3935 23.7988 24.4217 23.9407 24.4773 24.0768C24.5346 24.213 24.6151 24.3341 24.718 24.4371C24.8226 24.5416 24.9421 24.6221 25.0799 24.6794C25.216 24.7367 25.358 24.7666 25.5057 24.7666H29.2905C29.4399 24.7682 29.5818 24.74 29.7196 24.6827C29.8557 24.6271 29.9769 24.5466 30.0815 24.442C30.1861 24.3375 30.2666 24.2163 30.3222 24.0785C30.3778 23.9424 30.4043 23.8004 30.4027 23.651V19.9775C30.4027 19.8297 30.3745 19.6895 30.3189 19.5533C30.2633 19.4172 30.1827 19.2977 30.0781 19.1931C29.9752 19.0885 29.8557 19.008 29.7196 18.9508C29.5835 18.8935 29.4415 18.8636 29.2938 18.8619V18.8586ZM28.1758 22.5389H26.627V21.0913H28.1741L28.1758 22.5389ZM65.3266 56.2103H39.8439C39.6978 56.2053 39.5592 56.1729 39.4264 56.114C39.2936 56.0551 39.1774 55.9729 39.0762 55.8683C38.9766 55.7637 38.8994 55.6459 38.8438 55.5114C38.7899 55.377 38.7633 55.2367 38.7633 55.0923C38.7633 54.9479 38.7899 54.8093 38.8438 54.6748C38.8994 54.5403 38.9766 54.4208 39.0762 54.3162C39.1774 54.2116 39.2936 54.1311 39.4264 54.0705C39.5592 54.0116 39.6978 53.9792 39.8439 53.9743H65.3266C65.476 53.9743 65.6196 54.0025 65.7574 54.0598C65.8951 54.117 66.018 54.1975 66.1226 54.3038C66.2288 54.4084 66.3093 54.5295 66.3666 54.6673C66.4239 54.8051 66.4537 54.947 66.4537 55.0964C66.4537 55.245 66.4239 55.3878 66.3666 55.5255C66.3093 55.6633 66.2288 55.7845 66.1226 55.8891C66.018 55.9937 65.8951 56.0758 65.7574 56.1331C65.6196 56.1887 65.476 56.2186 65.3266 56.2186V56.2103Z" fill="#005494"/>
</svg>
