<svg width="62" height="62" viewBox="0 0 62 62" fill="none" xmlns="http://www.w3.org/2000/svg">
<path d="M26.4798 53.253C26.6143 53.3119 26.7557 53.3417 26.9026 53.3436C27.2455 53.3349 27.5152 53.1898 27.7105 52.9083L42.1019 31.3485C42.1441 31.2728 42.1776 31.1947 42.2011 31.111C42.2241 31.0292 42.2371 30.9448 42.2371 30.8587C42.239 30.7725 42.2309 30.6881 42.2098 30.6038C42.1906 30.5195 42.1596 30.4395 42.1193 30.3639C42.0796 30.2883 42.0288 30.2188 41.9717 30.1537C41.9128 30.0905 41.8477 30.0359 41.7758 29.9894C41.702 29.9429 41.6264 29.9051 41.5446 29.8778C41.4627 29.8524 41.3803 29.8357 41.2941 29.8295H33.7555L37.4693 20.7229C37.5195 20.5127 37.5028 20.3062 37.4191 20.1066C37.3372 19.9045 37.2046 19.747 37.0192 19.6329C36.8363 19.517 36.636 19.4686 36.4196 19.4835C36.2026 19.4984 36.0117 19.574 35.8455 19.7111L22.6339 33.9574C22.5161 34.105 22.4423 34.2711 22.4169 34.4584C22.3896 34.6438 22.4151 34.8242 22.4882 34.9972C22.562 35.172 22.6755 35.3127 22.8292 35.4225C22.983 35.5322 23.1535 35.593 23.3407 35.6079H31.1112L25.954 52.049C25.9205 52.1649 25.9057 52.2828 25.9143 52.4024C25.9205 52.5221 25.9478 52.638 25.9962 52.7496C26.0446 52.8587 26.1097 52.9579 26.1921 53.0441C26.2758 53.1291 26.37 53.2003 26.4798 53.253ZM33.3723 34.95C33.4102 34.8006 33.4145 34.6512 33.3847 34.5018C33.355 34.3505 33.2961 34.2135 33.2037 34.0913C33.1132 33.9692 32.9997 33.8706 32.8652 33.7987C32.7306 33.7293 32.5856 33.6896 32.4337 33.6827H25.5814L33.6544 25.012L31.4032 30.4364C31.34 30.5859 31.3145 30.7415 31.3319 30.9033C31.3486 31.0651 31.4032 31.2127 31.4962 31.3472C31.6896 31.6293 31.9593 31.7744 32.3022 31.7806H39.4372L29.8619 46.1683L33.3723 34.95Z" fill="white"/>
<path d="M5.77165 35.0405C5.76979 35.539 5.78405 36.0356 5.81133 36.5341C5.84109 37.0307 5.88263 37.5274 5.93967 38.0215C5.99857 38.5163 6.06987 39.0085 6.15667 39.5008C6.24285 39.9912 6.34391 40.4773 6.45985 40.9634C6.57331 41.4476 6.70413 41.9294 6.84673 42.4049C6.98995 42.8823 7.14743 43.356 7.32041 43.8228C7.49091 44.2897 7.67629 44.7528 7.87593 45.2092C8.07371 45.6655 8.28637 46.1162 8.51143 46.5601C8.73649 47.0041 8.97457 47.4418 9.22443 47.8708C9.47677 48.2999 9.73965 48.7227 10.0155 49.1375C10.2914 49.5523 10.5791 49.9584 10.878 50.3558C11.1787 50.7532 11.4905 51.1407 11.8123 51.5195C12.1341 51.8983 12.4689 52.2685 12.8117 52.6262C13.1571 52.9858 13.5123 53.3355 13.8763 53.6722C14.2421 54.0107 14.6172 54.3393 14.9997 54.6549C15.3847 54.9704 15.7784 55.2755 16.1802 55.5681C16.582 55.8608 16.9924 56.1404 17.4109 56.4095C17.8294 56.6767 18.2566 56.9334 18.69 57.1752C19.1233 57.4194 19.5629 57.6488 20.0112 57.8652C20.4594 58.0822 20.9114 58.2862 21.3702 58.4778C21.8309 58.6669 22.294 58.8436 22.7652 59.006C23.2346 59.1678 23.7076 59.3173 24.1875 59.4518C24.6649 59.5863 25.1466 59.7066 25.6327 59.8114C26.1188 59.9187 26.6067 60.0092 27.0972 60.0873C27.5876 60.1629 28.0817 60.2262 28.5765 60.2745C29.0712 60.3229 29.5654 60.3545 30.062 60.3737C30.5586 60.393 31.0552 60.3967 31.5519 60.3861C32.0503 60.3737 32.5451 60.3483 33.0417 60.308C33.5365 60.2683 34.0306 60.2132 34.5229 60.1437C35.0152 60.0743 35.5031 59.99 35.9917 59.8914C36.4778 59.7922 36.9614 59.6787 37.4437 59.5529C37.9236 59.4245 38.3991 59.2838 38.8722 59.1275C39.3434 58.9738 39.8109 58.8033 40.2734 58.6204C40.7341 58.4375 41.191 58.2416 41.6411 58.0314C42.0912 57.8212 42.5352 57.598 42.9729 57.3599C43.4106 57.1243 43.8421 56.8757 44.265 56.6128C44.6859 56.3518 45.1026 56.0765 45.5087 55.7901C45.9148 55.5036 46.3122 55.2054 46.7016 54.896C47.0909 54.5848 47.4697 54.2649 47.8399 53.9326C48.21 53.6002 48.5702 53.2549 48.9193 52.9015C49.2684 52.5481 49.6094 52.1842 49.938 51.8097C50.2659 51.4371 50.5815 51.0545 50.889 50.6608C51.1941 50.2671 51.4886 49.8654 51.7707 49.4549C52.0528 49.047 52.3219 48.6278 52.581 48.2007C52.8377 47.7753 53.082 47.342 53.3132 46.9005C53.547 46.4609 53.7659 46.0127 53.9698 45.5601C54.1763 45.1056 54.3672 44.6468 54.5464 44.1818C54.725 43.7168 54.8893 43.2475 55.0412 42.7719C55.1925 42.2964 55.3295 41.819 55.4516 41.3348C55.5738 40.853 55.6829 40.367 55.7759 39.8765C55.8707 39.3886 55.9507 38.8963 56.0133 38.4034C56.0784 37.9087 56.1293 37.4127 56.1646 36.916C56.2006 36.4194 56.2217 35.9228 56.2279 35.4243C56.2341 34.9258 56.2279 34.4267 56.2049 33.9307C56.182 33.4323 56.1442 32.9356 56.0915 32.4409C56.0388 31.9443 55.9737 31.452 55.8918 30.9597C55.81 30.4693 55.7151 29.9795 55.6054 29.4934C55.4938 29.0073 55.3698 28.5256 55.2328 28.0482C55.0939 27.5683 54.9401 27.0952 54.774 26.6259C54.6078 26.1566 54.4286 25.6916 54.2333 25.2328C54.0399 24.774 53.8334 24.322 53.6127 23.8756C53.392 23.4292 53.1601 22.9896 52.9121 22.5562C52.666 22.1228 52.4074 21.6975 52.1359 21.2809C51.8643 20.8642 51.5822 20.4538 51.2858 20.0545C51.1073 19.907 50.9027 19.8313 50.6733 19.8251C50.442 19.8208 50.2337 19.8859 50.0483 20.0229C49.8629 20.1599 49.7389 20.3403 49.6757 20.5635C49.6125 20.7843 49.6255 21.0031 49.7117 21.2176C51.1848 23.2184 52.3057 25.4008 53.0758 27.7636C53.8458 30.1283 54.2246 32.5525 54.2122 35.0393C54.2122 35.7442 54.1806 36.4467 54.1174 37.1473C54.0523 37.8498 53.9574 38.5466 53.8291 39.241C53.7026 39.9336 53.5451 40.6193 53.3554 41.297C53.1663 41.9765 52.9474 42.6455 52.697 43.3045C52.4465 43.963 52.1687 44.609 51.8593 45.2426C51.5524 45.8738 51.2158 46.4926 50.8512 47.094C50.4873 47.6978 50.0961 48.2825 49.6794 48.8486C49.2609 49.4165 48.8189 49.9639 48.352 50.4897C47.887 51.0155 47.3966 51.5208 46.8832 52.0025C46.3717 52.4842 45.8373 52.943 45.2842 53.3764C44.7306 53.8098 44.1583 54.2178 43.5675 54.5991C42.976 54.9797 42.3702 55.3331 41.7478 55.6593C41.1247 55.9854 40.4873 56.2842 39.8375 56.5514C39.1872 56.8205 38.5269 57.0586 37.8554 57.2669C37.1839 57.4752 36.5044 57.6519 35.8187 57.797C35.1305 57.9446 34.4386 58.058 33.7398 58.1424C33.0411 58.2242 32.3405 58.2769 31.6399 58.2961C30.9374 58.3153 30.2344 58.3023 29.5338 58.2583C28.8313 58.2143 28.1344 58.1362 27.44 58.0289C26.7456 57.9216 26.0574 57.7809 25.376 57.6104C24.694 57.4399 24.0213 57.2378 23.3561 57.0065C22.6933 56.7753 22.0411 56.5118 21.4012 56.2216C20.7614 55.929 20.1364 55.609 19.5264 55.2625C18.9138 54.9134 18.3204 54.5389 17.7445 54.1365C17.1679 53.7323 16.6105 53.3057 16.0717 52.8531C15.5329 52.3987 15.0177 51.9231 14.5229 51.4222C14.0263 50.9212 13.5551 50.3998 13.1087 49.8567C12.6605 49.3136 12.2376 48.7518 11.8421 48.169C11.4446 47.5881 11.0764 46.9886 10.7335 46.3741C10.3906 45.7597 10.0769 45.1286 9.79111 44.485C9.50529 43.8414 9.25047 43.1867 9.02293 42.5196C8.79787 41.8525 8.60195 41.1748 8.43827 40.4916C8.27211 39.8059 8.13943 39.1158 8.03651 38.4189C7.93545 37.7202 7.86415 37.0221 7.82633 36.3171C7.78665 35.6147 7.77983 34.9097 7.80525 34.2066C7.83067 33.5017 7.88709 32.8011 7.97575 32.1005C8.06441 31.4018 8.18407 30.7098 8.33535 30.0216C8.48663 29.3334 8.66766 28.6521 8.88218 27.9806C9.09484 27.3091 9.33665 26.6488 9.61007 26.0009C9.88349 25.3506 10.1842 24.7151 10.5146 24.0926C10.8451 23.472 11.2028 22.8662 11.5879 22.2766C11.9729 21.6876 12.3852 21.1172 12.821 20.566C13.2588 20.0124 13.7194 19.4823 14.2036 18.9732C14.6897 18.4617 15.1969 17.9757 15.7251 17.5131C16.2552 17.0481 16.8045 16.6104 17.3725 16.1963C17.9429 15.7815 18.5275 15.3946 19.1314 15.035C19.7353 14.6754 20.354 14.3425 20.9895 14.0399C21.6226 13.7349 22.2686 13.4614 22.9295 13.2153C24.291 13.7919 29.0756 15.7046 33.1217 15.7046C33.3933 15.7046 33.6561 15.7046 33.919 15.7046C38.773 15.3723 44.273 10.9597 44.5043 10.7688C44.6159 10.6721 44.7039 10.5561 44.7653 10.4216C44.8261 10.287 44.8577 10.1457 44.8577 9.99874C44.8577 9.8518 44.8261 9.71044 44.7653 9.5759C44.7045 9.44136 44.6159 9.32542 44.5043 9.23056C44.2414 9.02658 37.8535 4.17012 31.0428 5.33386C29.5592 5.59054 28.1667 6.0977 26.8665 6.8572C25.5664 7.61484 24.4386 8.57832 23.4832 9.74578C23.7969 9.16298 24.0406 8.5529 24.2135 7.91554C24.3884 7.2757 24.487 6.62594 24.5124 5.96502C24.5378 5.3041 24.4894 4.64814 24.3648 3.99962C24.2408 3.34924 24.0449 2.72242 23.7758 2.11668C23.6388 1.87488 23.4392 1.71678 23.1719 1.64114C22.9047 1.57356 22.6524 1.61138 22.4143 1.75274C20.5562 2.92888 18.8753 4.31768 17.3687 5.921C15.3488 8.13626 15.7443 13.0033 15.9651 14.743C15.1783 15.3301 14.4268 15.9594 13.7138 16.6321C12.9984 17.3073 12.3275 18.0184 11.6964 18.7717C11.0652 19.525 10.4781 20.31 9.93929 21.1302C9.39865 21.9511 8.90822 22.8011 8.46864 23.6784C8.02658 24.5582 7.63785 25.4584 7.30305 26.3822C6.96639 27.306 6.68429 28.2441 6.45737 29.2014C6.22983 30.1587 6.05994 31.1246 5.94586 32.1005C5.82806 33.0776 5.77165 34.0578 5.77165 35.0405ZM31.3125 7.2354C35.7542 6.47776 40.1835 8.77362 42.1718 10.0192C40.4172 11.2524 36.8231 13.5203 33.7553 13.7225C31.0664 13.7311 28.4655 13.2556 25.9533 12.2958C27.6173 11.9362 29.2988 11.7614 31.0007 11.7701C31.152 11.8098 31.3039 11.8166 31.4595 11.785C31.6132 11.7552 31.7521 11.6926 31.878 11.5977C32.002 11.501 32.0987 11.3832 32.1681 11.2418C32.2376 11.0986 32.2735 10.9492 32.2735 10.7936C32.2735 10.6355 32.2376 10.4867 32.1681 10.3435C32.0987 10.2027 32.002 10.0849 31.878 9.99006C31.7515 9.89334 31.6126 9.8301 31.4595 9.80096C31.3039 9.76934 31.1526 9.77554 31.0007 9.8177C29.168 9.8177 27.3588 10.0173 25.5701 10.4129C26.3296 9.58396 27.2007 8.89824 28.1834 8.35512C29.1661 7.81014 30.2102 7.43752 31.3125 7.2354ZM18.8295 7.2354C19.9238 6.06546 21.1247 5.022 22.4335 4.10006C22.8353 5.82986 22.8564 9.48228 17.8108 13.4081C17.6781 11.4241 17.7395 8.48036 18.8295 7.27694V7.2354Z" fill="white"/>
</svg>
