<svg width="111" height="128" viewBox="0 0 111 128" fill="none" xmlns="http://www.w3.org/2000/svg">
<path d="M95.2648 47.4285L99.3041 39.2603C99.7868 38.4529 99.6018 37.3981 98.839 36.8066L91.428 31.0534L91.4315 21.9322C91.4738 21.0318 90.859 20.1981 89.9377 19.998L80.6929 17.9481L76.576 9.63415C76.1973 8.86191 75.3183 8.41962 74.4357 8.61269L65.1786 10.6714L57.7852 4.92697C57.1052 4.37411 56.1064 4.34779 55.3859 4.90591L47.9643 10.6714L38.8358 8.63726C37.9532 8.37926 36.979 8.77942 36.5615 9.62889L32.45 17.9428L23.2052 19.998C22.3526 20.1876 21.7113 20.9423 21.7113 21.8479L21.7149 31.0552L14.3039 36.8119C13.6098 37.3525 13.3649 38.3143 13.7701 39.1322L17.8781 47.4285L13.8353 55.5933C13.3526 56.4041 13.5376 57.4589 14.3039 58.0522L21.7149 63.8054L21.7096 72.9249C21.662 73.8253 22.2821 74.6589 23.2034 74.859L28.874 76.1157L14.9521 110.828C14.5611 111.802 15.042 112.901 16.0249 113.287C16.416 113.441 16.8353 113.459 17.2175 113.361L30.6356 109.821L37.9479 121.482C38.5028 122.373 39.6831 122.649 40.5833 122.099C40.962 121.868 41.2333 121.524 41.376 121.138L54.2426 89.0648L55.3577 89.9318C56.0377 90.4812 57.0365 90.511 57.757 89.9529L58.8985 89.0683L71.7599 121.138C71.9025 121.524 72.1738 121.868 72.5526 122.099C73.4527 122.649 74.633 122.373 75.1879 121.482L82.5003 109.821L95.9218 113.355C96.3059 113.454 96.7181 113.436 97.1144 113.282C98.0956 112.896 98.5783 111.797 98.1872 110.823L84.2636 76.1174L89.9342 74.8555C90.7903 74.666 91.4333 73.9113 91.4333 73.0109L91.4298 63.8001L98.8355 58.0434C99.5296 57.5063 99.7744 56.541 99.3745 55.7266L95.2648 47.4285ZM39.2022 116.295L33.2004 106.716C32.7829 105.97 31.9004 105.57 31.0302 105.798L19.9128 108.729L32.5715 77.1705L36.5598 85.2317C36.9438 86.0039 37.8211 86.4462 38.7036 86.2479L47.9573 84.1891L51.0999 86.6305L39.2022 116.295ZM82.111 105.796C81.246 105.568 80.3547 105.972 79.9407 106.714L73.9337 116.293L62.0324 86.6287L65.175 84.1874L74.3036 86.2215C75.1914 86.483 76.1603 86.0794 76.5778 85.2299L80.566 77.1687L93.2248 108.727L82.111 105.796ZM91.4157 48.2622L95.2524 56.011L88.3276 61.3868C87.8062 61.7905 87.556 62.4083 87.6001 63.0121L87.6036 71.498L78.9489 73.4163C78.3588 73.5497 77.8937 73.9358 77.6436 74.4325L73.7998 82.2182L65.131 80.2911C64.5497 80.1629 63.9648 80.3121 63.5244 80.6473L56.5785 86.0478L49.6308 80.6473C49.127 80.2577 48.4857 80.1542 47.9167 80.3174L39.3572 82.2217L35.5028 74.4308C35.2139 73.8551 34.6714 73.483 34.0724 73.3882L25.5375 71.4962L25.541 62.8769C25.541 62.2714 25.2574 61.7361 24.8135 61.3833L17.8887 56.0075L21.7254 48.2587C21.9967 47.7146 21.9756 47.1003 21.7254 46.5948L17.8887 38.8461L24.8135 33.4702C25.3349 33.0665 25.5851 32.4487 25.541 31.8397L25.5375 23.3573L34.1922 21.439C34.7823 21.3056 35.2474 20.9195 35.5011 20.4228L39.3466 12.6354L48.0101 14.5625C48.595 14.6906 49.1816 14.5414 49.6167 14.2062L56.5714 8.80575L63.5174 14.2062C64.0212 14.5923 64.6589 14.6994 65.2261 14.5362L73.7857 12.6319L77.6348 20.4193C77.9237 20.9984 78.461 21.367 79.0652 21.4618L87.5948 23.3573V31.9713C87.5948 32.5768 87.8784 33.1122 88.3223 33.4649L95.2471 38.8355L91.4104 46.5878C91.1444 47.1424 91.1655 47.755 91.4157 48.2622ZM72.9049 33.9669L42.9561 63.5772C42.2022 64.3196 40.9884 64.3196 40.2345 63.5772C39.4858 62.8348 39.4858 61.6343 40.2345 60.8919L70.1868 31.2816C70.9354 30.5357 72.1509 30.5357 72.9031 31.2816C73.6536 32.024 73.6536 33.2245 72.9049 33.9669ZM45.4241 42.4317C47.6243 42.4317 49.6272 41.5437 51.0735 40.1115L51.0823 40.1027C52.5339 38.6706 53.4288 36.6926 53.4288 34.5162C53.4288 32.3364 52.5339 30.3584 51.0823 28.9262L51.0735 28.9175C49.6272 27.4853 47.6243 26.6007 45.4241 26.6007C43.2151 26.6007 41.2121 27.4853 39.7624 28.9175C38.3161 30.3496 37.4194 32.3276 37.4194 34.511C37.4194 36.6943 38.3143 38.6758 39.7624 40.1045C41.2121 41.5472 43.2151 42.4317 45.4241 42.4317ZM42.4822 31.6115C43.2362 30.8691 44.2738 30.4111 45.4276 30.4111C46.5779 30.4111 47.619 30.8709 48.3695 31.608C49.1182 32.354 49.5832 33.3842 49.5832 34.5215C49.5832 35.6588 49.1182 36.6926 48.3695 37.435C47.6208 38.1721 46.5779 38.632 45.4276 38.632C44.2773 38.632 43.2362 38.1721 42.4822 37.4315C41.7336 36.6891 41.2632 35.6588 41.2632 34.5233C41.2632 33.3824 41.7283 32.3539 42.4822 31.6115ZM73.37 54.7438C71.9184 53.3116 69.9243 52.4235 67.717 52.4235C65.5732 52.4235 63.6213 53.2642 62.1803 54.6332L62.0606 54.7455C60.6143 56.1777 59.7141 58.1557 59.7141 60.3391C59.7141 62.5101 60.609 64.4828 62.0606 65.9255L62.0694 65.9343C63.5209 67.3665 65.5221 68.2546 67.7188 68.2546C69.8679 68.2546 71.818 67.4139 73.2607 66.0449L73.3805 65.9326C74.8268 64.5004 75.727 62.5224 75.727 60.3391C75.727 58.1557 74.8268 56.1777 73.3805 54.7491H73.3717L73.37 54.7438ZM70.6606 63.2473L70.5831 63.328C69.838 64.0195 68.8303 64.4477 67.7188 64.4477C66.5649 64.4477 65.5274 63.9932 64.7769 63.2508L64.7681 63.242C64.0194 62.5048 63.5579 61.4781 63.5579 60.3373C63.5579 59.2 64.023 58.175 64.7716 57.4291L64.8491 57.3484C65.5943 56.6533 66.6019 56.2251 67.7135 56.2251C68.8673 56.2251 69.9102 56.6884 70.6589 57.4309C71.4075 58.1733 71.8726 59.2035 71.8726 60.3391C71.8744 61.4746 71.4111 62.5048 70.6606 63.2473Z" fill="#005494"/>
</svg>
