<svg width="133" height="140" viewBox="0 0 133 140" fill="none" xmlns="http://www.w3.org/2000/svg">
<path d="M58.9252 128.399C57.7991 128.399 56.8755 129.329 56.8755 130.468V134.602C56.8755 135.736 57.7991 136.667 58.9252 136.667C60.0513 136.667 60.9749 135.736 60.9749 134.602V130.468C60.9769 129.329 60.0513 128.399 58.9252 128.399Z" fill="#005494"/>
<path d="M73.2753 128.399C72.1492 128.399 71.2256 129.329 71.2256 130.468V134.602C71.2256 135.736 72.1492 136.667 73.2753 136.667C74.4014 136.667 75.325 135.736 75.325 134.602V130.468C75.327 129.329 74.4034 128.399 73.2753 128.399Z" fill="#005494"/>
<path d="M80.35 117.439L76.4531 115.786C75.5337 117.027 74.5088 118.059 73.2773 118.888L78.6082 121.059C78.9161 121.263 81.2736 122.609 81.4761 125.091V134.5C81.4761 135.634 82.3997 136.565 83.5258 136.565C84.656 136.565 85.5755 135.634 85.5755 134.5C85.5755 134.5 85.5755 124.985 85.5755 124.883C85.2676 119.818 80.5567 117.545 80.35 117.439Z" fill="#005494"/>
<path d="M55.7493 115.786C55.7493 115.786 51.8524 117.337 51.8524 117.439C51.6499 117.545 46.9348 119.92 46.627 124.987V134.604C46.627 135.738 47.5506 136.669 48.6766 136.669C49.8027 136.669 50.7263 135.738 50.7263 134.604V125.195C50.933 122.714 53.2905 121.371 53.5943 121.163L58.9251 118.89C57.6937 118.059 56.5676 117.027 55.7493 115.786Z" fill="#005494"/>
<path d="M74.8167 108.238V103.071C74.8167 98.2087 70.9198 94.2827 66.1013 94.2827C61.285 94.2827 57.3901 98.2087 57.3901 103.071V108.238C57.3901 113.094 61.2829 117.027 66.1013 117.027C70.9177 117.027 74.8167 113.097 74.8167 108.238ZM70.7152 108.238C70.7152 110.821 68.6655 112.893 66.1013 112.893C63.5413 112.893 61.4916 110.823 61.4916 108.238V103.071C61.4916 100.484 63.5413 98.4168 66.1013 98.4168C68.6655 98.4168 70.7152 100.482 70.7152 103.071V108.238Z" fill="#005494"/>
<path d="M94.3921 38.5511H95.8261C98.5928 38.5511 100.95 36.278 100.95 33.5927V24.804C100.95 23.9755 100.748 23.2532 100.233 22.5309C100.233 22.5309 94.7 14.4646 94.4934 14.2564C93.4685 12.7056 91.9333 10.4324 89.4745 10.4324H79.224V9.39996C79.3252 6.60849 77.0689 4.33325 74.3022 4.33325H35.8622C33.3021 4.33325 31.2524 6.39824 31.2524 8.87955V33.9028C31.2524 36.3842 33.3021 38.4491 35.8622 38.4491H39.8603C40.6827 40.8284 42.9349 42.4813 45.6003 42.4813C48.2657 42.4813 50.5179 40.8284 51.3403 38.4491H82.8068C83.6292 40.8284 85.8814 42.4813 88.5468 42.4813C91.3176 42.5833 93.5739 40.9304 94.3921 38.5511ZM45.6003 38.4491C44.4742 38.4491 43.5506 37.5186 43.5506 36.3842C43.5506 35.2455 44.4742 34.315 45.6003 34.315C46.7264 34.315 47.65 35.2455 47.65 36.3842C47.6521 37.5166 46.7285 38.4491 45.6003 38.4491ZM75.2258 34.4149H51.4436C50.6254 31.9336 48.369 30.1788 45.6024 30.1788C42.9369 30.1788 40.5794 31.9336 39.7612 34.4149H35.8643C35.5605 34.4149 35.3539 34.2109 35.3539 34.0028V8.87747C35.3539 8.66931 35.5605 8.46529 35.8643 8.46529H74.3043C74.92 8.46529 75.2279 8.97947 75.2279 9.3958L75.2258 34.4149ZM79.3252 14.4625H89.5758C89.9849 14.5645 96.9584 24.6958 96.9584 24.6958V33.4844C96.9584 34.0028 96.5452 34.3129 95.9335 34.3129H94.4934C93.6752 31.8316 91.4188 30.0768 88.6522 30.0768C85.9867 30.0768 83.6333 31.8316 82.811 34.3129H79.3273L79.3252 14.4625ZM88.6522 38.4491C87.5261 38.4491 86.6025 37.5186 86.6025 36.3842C86.6025 35.2455 87.5261 34.315 88.6522 34.315C89.7824 34.315 90.7019 35.2455 90.7019 36.3842C90.7019 37.5166 89.7824 38.4491 88.6522 38.4491Z" fill="#005494"/>
<path d="M31.2502 101.518C33.5023 101.518 35.3496 99.6574 35.3496 97.3843V79.807C35.8599 79.807 36.3744 79.5988 36.7835 79.1867C37.6059 78.3582 37.6059 77.1175 36.7835 76.289L20.3839 59.7484C19.9748 59.3362 19.4603 59.1281 18.9499 59.1281C18.4354 59.1281 17.9251 59.3362 17.516 59.7484L1.1122 76.289C0.293979 77.1175 0.293979 78.3582 1.1122 79.1867C1.52545 79.5988 2.03581 79.807 2.5503 79.807V97.3843C2.5503 99.6574 4.39337 101.518 6.64969 101.518H31.2502ZM24.0762 97.3843H13.8257V87.0448H24.0762V97.3843ZM6.65175 76.4972L18.952 64.0927L31.2522 76.4972C31.2522 76.5992 31.2522 97.3843 31.2522 97.3843H28.1777V87.0448C28.1777 84.7675 26.3305 82.9045 24.0783 82.9045H13.8278C11.5714 82.9045 9.72836 84.7654 9.72836 87.0448V97.3843H6.65175C6.65175 97.3843 6.65175 76.5992 6.65175 76.4972Z" fill="#005494"/>
<path d="M81.5815 61.9195C82.0919 60.989 82.2985 59.9565 82.1932 58.9199C82.0919 57.4752 81.4762 56.1284 80.4513 55.0959L79.224 53.9573C78.0938 52.8228 76.5586 52.2024 75.0192 52.2024C74.0997 52.2024 73.1761 52.4106 72.4592 52.8228C71.7422 50.5496 69.4859 48.7906 66.9258 48.7906H65.1799C62.5186 48.7906 60.3635 50.4435 59.6465 52.8228C58.8283 52.4106 58.0059 52.2024 57.0864 52.2024C55.5471 52.2024 54.0119 52.8228 52.8817 53.9573L51.7556 55.1979C49.9125 57.0589 49.4993 59.8524 50.6295 62.0236C48.2719 62.7459 46.6313 65.0232 46.6313 67.6086V69.3634C46.6313 72.0529 48.2719 74.2261 50.6295 74.9484C49.4993 77.1196 49.9125 79.9131 51.7556 81.7741L52.9871 83.0148C54.1131 84.1493 55.6484 84.7696 57.1877 84.7696C58.1113 84.7696 59.0308 84.5656 59.7477 84.1493C60.4689 86.4266 62.721 88.1814 65.2873 88.1814H67.0291C69.6946 88.1814 71.8455 86.5286 72.5625 84.1493C73.3807 84.5656 74.2031 84.7696 75.1267 84.7696C76.6619 84.7696 78.2012 84.1493 79.3273 83.0148L80.5588 81.7741C81.6849 80.6355 82.3006 79.0847 82.3006 77.5318C82.3006 76.6013 82.094 75.6708 81.6849 74.9484C83.937 74.2261 85.683 71.953 85.683 69.3634V67.6086C85.5756 64.915 83.935 62.6418 81.5815 61.9195ZM81.4762 69.2594C81.4762 70.1898 80.7592 71.0183 79.941 71.0183H78.4016C77.9925 71.0183 77.6846 71.3285 77.5834 71.6386C77.2755 72.5691 76.9677 73.4996 76.4532 74.324C76.2507 74.6341 76.3519 75.0504 76.5586 75.3564L77.5834 76.3931C78.1991 77.0134 78.0938 78.0459 77.478 78.6663L76.3519 80.0089C75.9428 80.319 75.5337 80.5272 75.1246 80.5272C74.7113 80.5272 74.4035 80.4252 74.0997 80.1151L73.0749 79.0784C72.767 78.7682 72.3538 78.7683 72.0501 78.9764C71.2277 79.4947 70.3041 79.8049 69.3846 80.1151C68.9755 80.2171 68.7689 80.5272 68.7689 80.9394V82.4902C68.7689 83.3187 68.0519 84.041 67.0271 84.041H65.2852C64.3616 84.041 63.5434 83.3187 63.5434 82.4902V80.8374C63.5434 80.4252 63.2355 80.115 62.9277 80.0089C62.0041 79.6987 61.0805 79.3886 60.2622 78.8744C59.9544 78.6662 59.5453 78.7683 59.2374 78.9764L58.2125 80.0089C57.9047 80.319 57.5968 80.4252 57.1877 80.4252C56.7786 80.4252 56.2641 80.2171 55.9562 79.9069L54.6235 78.7682C53.9065 78.0459 53.9065 77.1154 54.5223 76.4951L55.5471 75.4626C55.855 75.1525 55.855 74.7403 55.6484 74.4301C55.138 73.6016 54.8301 72.6711 54.5223 71.7406C54.421 71.3285 54.1131 71.1203 53.704 71.1203H52.1647C51.3465 71.1203 50.6295 70.398 50.6295 69.3614V67.6065C50.6295 66.676 51.3465 65.8475 52.1647 65.8475H53.8053C54.2144 65.8475 54.5223 65.5374 54.6235 65.2272C54.9314 64.2967 55.2392 63.3662 55.7537 62.5419C55.9562 62.2318 55.855 61.8154 55.6484 61.5053L54.6235 60.4728C54.0119 59.8524 54.1131 58.82 54.7289 58.1996L55.9562 56.959C56.572 56.3387 57.5968 56.1305 58.2125 56.857L59.2374 57.8895C59.5453 58.1996 59.9544 58.1996 60.2622 57.9915C61.0805 57.4773 62.0041 57.1671 62.9277 56.857C63.3368 56.7508 63.5434 56.4406 63.5434 56.0285V54.4777C63.5434 53.6492 64.2604 52.9269 65.2852 52.9269H67.0271C67.9507 52.9269 68.7689 53.6492 68.7689 54.4777V56.0285C68.7689 56.4406 69.0768 56.7508 69.3846 56.857C70.3041 57.1671 71.2277 57.4773 72.0501 57.9915C72.3538 58.1996 72.767 58.0976 73.0749 57.8895L74.0997 56.857C74.7113 56.2366 75.8416 56.4407 76.3519 56.959L77.5834 58.1996C78.3004 58.922 78.3004 59.8524 77.6846 60.4728L76.6598 61.5053C76.3519 61.8154 76.3519 62.2318 76.5586 62.5419C77.0689 63.3662 77.3768 64.2967 77.6846 65.2272C77.7859 65.6435 78.0938 65.8475 78.5029 65.8475H80.0422C80.8604 65.8475 81.5815 66.574 81.5815 67.6065V69.2594H81.4762Z" fill="#005494"/>
<path d="M66.1013 61.193C62.1031 61.193 58.9253 64.4008 58.9253 68.4308C58.9253 72.4629 62.1011 75.6687 66.1013 75.6687C70.0994 75.6687 73.2773 72.465 73.2773 68.4308C73.2752 64.4008 70.0994 61.193 66.1013 61.193ZM66.1013 71.5325C64.3595 71.5325 63.0268 70.1898 63.0268 68.4308C63.0268 66.676 64.3595 65.3334 66.1013 65.3334C67.8431 65.3334 69.1758 66.676 69.1758 68.4308C69.1758 70.1898 67.8431 71.5325 66.1013 71.5325Z" fill="#005494"/>
<path d="M129.551 69.7776L115.201 61.7113C113.974 60.989 112.434 60.989 111.203 61.7113L96.8531 69.7776C95.5204 70.5 94.7021 71.8426 94.7021 73.3934V89.3179C94.7021 90.8687 95.5204 92.2114 96.8531 92.9337L111.203 101C112.333 101.62 113.974 101.722 115.201 101L129.551 92.9337C130.884 92.2114 131.706 90.8687 131.706 89.3179V73.3934C131.706 71.8426 130.884 70.5 129.551 69.7776ZM113.251 65.3334L125.45 72.1548L113.251 78.9805L101.056 72.1548L113.251 65.3334ZM98.9007 75.6666L111.201 82.5984V96.2435L98.9007 89.3158V75.6666ZM115.302 96.2456V82.6005L127.607 75.6686V89.32L115.302 96.2456Z" fill="#005494"/>
<path d="M112.639 109.581C111.614 109.066 110.382 109.479 109.872 110.511C107.101 116.096 102.182 118.679 99.7227 119.716C99.7227 119.198 99.5161 118.577 99.107 118.165C98.2887 117.337 96.956 117.439 96.239 118.267L92.7513 121.989C92.2409 122.503 92.0343 123.332 92.2409 123.952C92.4434 124.674 93.0591 125.193 93.6749 125.401L98.5925 126.642C99.6173 126.952 100.849 126.225 101.055 125.091C101.157 124.573 101.055 124.16 100.95 123.744C104.025 122.503 110.074 119.406 113.558 112.372C114.075 111.34 113.666 110.099 112.639 109.581Z" fill="#005494"/>
<path d="M37.8106 125.917C32.176 123.126 29.5085 118.267 28.3783 115.684C28.994 115.684 29.5085 115.476 29.9177 115.064C30.7359 114.235 30.6346 112.892 29.8164 112.17L26.1261 108.652C25.6116 108.138 24.7934 107.93 24.1777 108.138C23.4607 108.342 22.9503 108.962 22.7437 109.583L21.5122 114.547C21.2044 115.788 22.2292 117.131 23.4607 117.131C23.7686 117.131 24.0764 117.029 24.3843 116.927C25.6116 120.024 28.7916 126.127 35.8622 129.641C36.887 130.16 38.1185 129.743 38.633 128.711C39.2446 127.676 38.8355 126.436 37.8106 125.917Z" fill="#005494"/>
<path d="M10.3423 57.4752C11.4684 57.5772 12.4932 56.7487 12.5945 55.7162C13.3114 49.5109 17.103 45.3767 19.1527 43.6219C19.3593 44.1361 19.6671 44.6544 20.2829 44.8626C21.3077 45.2747 22.5351 44.8626 22.9483 43.8259L24.998 39.1714C25.3017 38.4491 25.2005 37.7267 24.7914 37.1064C24.3823 36.4861 23.6653 36.1759 22.9483 36.2779L17.9253 36.6943C16.7951 36.7963 15.9769 37.8287 16.0781 38.9674C16.0781 39.4816 16.386 39.8979 16.6938 40.208C14.235 42.3792 9.51785 47.3397 8.493 55.1979C8.39382 56.2345 9.21205 57.267 10.3423 57.4752Z" fill="#005494"/>
<path d="M108.539 38.3471C108.64 38.3471 114.688 42.5832 116.224 50.3394C115.713 50.3394 115.199 50.4414 114.688 50.8577C113.866 51.58 113.765 52.9227 114.482 53.7512L117.864 57.5751C118.374 58.0935 119.096 58.4036 119.813 58.1954C120.53 58.0934 121.145 57.5751 121.348 56.8528L122.988 51.9901C123.397 50.9576 122.782 49.717 121.656 49.4068C121.145 49.1986 120.631 49.3048 120.222 49.5088C118.374 39.9978 111.097 35.1414 110.789 34.9311C109.87 34.3108 108.537 34.621 107.921 35.5515C107.409 36.382 107.616 37.6248 108.539 38.3471Z" fill="#005494"/>
<path d="M21.0017 76.7054C21.0017 76.9802 20.948 77.2424 20.8426 77.4943C20.7414 77.7462 20.5926 77.9731 20.3984 78.1688C20.2083 78.3603 19.9852 78.5102 19.7351 78.6163C19.4851 78.7225 19.2248 78.7724 18.952 78.7724C18.6793 78.7724 18.419 78.7246 18.1648 78.6163C17.9148 78.5102 17.6937 78.3603 17.5015 78.1688C17.3115 77.9731 17.1627 77.7483 17.0573 77.4943C16.9561 77.2424 16.9023 76.9802 16.9023 76.7054C16.9023 76.4306 16.9561 76.1642 17.0573 75.9123C17.1627 75.6604 17.3115 75.4377 17.5015 75.2441C17.6958 75.0484 17.9148 74.8985 18.1648 74.7965C18.419 74.6903 18.6793 74.6362 18.952 74.6362C19.2248 74.6362 19.4851 74.6903 19.7351 74.7965C19.9852 74.8985 20.2104 75.0484 20.3984 75.2441C20.5926 75.4398 20.7414 75.6604 20.8426 75.9123C20.948 76.1642 21.0017 76.4306 21.0017 76.7054Z" fill="#005494"/>
</svg>
