<svg width="111" height="135" viewBox="0 0 111 135" fill="none" xmlns="http://www.w3.org/2000/svg">
<path d="M94.6821 60.4109C95.4831 59.2011 95.8879 57.6835 95.8879 56.27C95.8879 52.0315 92.4696 48.5952 88.3499 48.5952C84.228 48.5952 80.8076 51.9296 80.8076 56.27C80.8076 57.6835 81.2103 59.1989 82.0156 60.4109L86.6397 67.7822C87.4407 68.992 89.2526 68.992 90.0537 67.7822L94.6821 60.4109ZM88.3477 62.9366L85.4296 58.2905C85.0312 57.6835 84.8277 56.9789 84.8277 56.27C84.8277 54.2515 86.4362 52.6342 88.3477 52.6342C90.2572 52.6342 91.8635 54.2515 91.8635 56.27C91.8635 56.5756 91.8635 57.2803 91.2617 58.2905L88.3477 62.9366Z" fill="#005494"/>
<path d="M70.2538 25.3715C66.1341 25.3715 62.7158 28.8077 62.7158 33.0462C62.7158 34.4598 63.1185 35.9753 63.9216 37.1872L68.5458 44.5584C69.3511 45.7682 71.1587 45.7682 71.964 44.5584L76.5881 37.1872C77.3934 35.9774 77.794 34.4598 77.794 33.0462C77.7897 28.8077 74.3757 25.3715 70.2538 25.3715ZM73.1677 35.0669L70.2538 39.7129L67.3399 35.0669C66.9373 34.4598 66.7381 33.7551 66.7381 33.0462C66.7381 31.0278 68.3465 29.4105 70.2538 29.4105C72.1611 29.4105 73.7738 31.0278 73.7738 33.0462C73.7738 33.4516 73.7738 34.1584 73.1677 35.0669Z" fill="#005494"/>
<path d="M100.107 3.15796H51.4586C47.1354 3.15796 43.6196 6.5942 43.6196 10.8327V80.9117H47.6376V10.8327C47.6376 8.81428 49.3478 7.19695 51.4586 7.19695H58.0917L59.0962 11.4397C59.5963 13.6598 61.6074 15.2793 63.822 15.2793H87.7415C89.9561 15.2793 91.9651 13.6619 92.4673 11.4397L93.4718 7.19695H100.105C102.218 7.19695 103.926 8.81428 103.926 10.8327V96.2592L107.946 101.916V10.8327C107.95 6.59208 104.428 3.15796 100.107 3.15796ZM88.5468 10.5292C88.4451 10.9325 88.1441 11.2339 87.7415 11.2339H63.822C63.4194 11.2339 63.1184 10.9325 63.0167 10.5292L62.2114 7.19481H89.2525L88.5468 10.5292Z" fill="#005494"/>
<mask id="mask0_1_2740" style="mask-type:luminance" maskUnits="userSpaceOnUse" x="26" y="117" width="17" height="16">
<path d="M42.1573 117.923H26.7358V132.407H42.1573V117.923Z" fill="white"/>
</mask>
<g mask="url(#mask0_1_2740)">
<path d="M34.5706 118.271C30.6501 118.271 27.5327 121.402 27.5327 125.337C27.5327 129.278 30.6501 132.407 34.5706 132.407C38.4911 132.407 41.6085 129.276 41.6085 125.337C41.6085 121.402 38.4911 118.271 34.5706 118.271ZM34.5706 128.37C32.8604 128.37 31.555 127.058 31.555 125.339C31.555 123.624 32.8625 122.31 34.5706 122.31C36.2808 122.31 37.5862 123.622 37.5862 125.339C37.5862 127.058 36.2808 128.37 34.5706 128.37Z" fill="#005494"/>
</g>
<mask id="mask1_1_2740" style="mask-type:luminance" maskUnits="userSpaceOnUse" x="83" y="117" width="16" height="16">
<path d="M98.0622 117.923H83.605V132.407H98.0622V117.923Z" fill="white"/>
</mask>
<g mask="url(#mask1_1_2740)">
<path d="M90.8592 118.271C86.9386 118.271 83.8213 121.402 83.8213 125.337C83.8213 129.278 86.9386 132.407 90.8592 132.407C94.7797 132.407 97.897 129.276 97.897 125.337C97.897 121.402 94.7797 118.271 90.8592 118.271ZM90.8592 128.37C89.149 128.37 87.8435 127.058 87.8435 125.339C87.8435 123.624 89.1511 122.31 90.8592 122.31C92.5694 122.31 93.8748 123.622 93.8748 125.339C93.8748 127.058 92.5694 128.37 90.8592 128.37Z" fill="#005494"/>
</g>
<path d="M92.8701 113.222C93.9764 113.222 94.8812 112.313 94.8812 111.201C94.8812 110.093 93.9785 109.183 92.8701 109.183H88.85C87.7438 109.183 86.8389 110.091 86.8389 111.201C86.8389 112.313 87.7417 113.222 88.85 113.222H92.8701Z" fill="#005494"/>
<mask id="mask2_1_2740" style="mask-type:luminance" maskUnits="userSpaceOnUse" x="3" y="103" width="19" height="6">
<path d="M21.917 103.444H3.41211V108.27H21.917V103.444Z" fill="white"/>
</mask>
<g mask="url(#mask2_1_2740)">
<path d="M21.5018 106.154C21.5018 105.042 20.599 104.133 19.4907 104.133H5.42128C4.31506 104.133 3.41016 105.042 3.41016 106.154C3.41016 107.262 4.31294 108.172 5.42128 108.172H19.4907C20.599 108.172 21.5018 107.264 21.5018 106.154Z" fill="#005494"/>
</g>
<path d="M13.4589 100.094H19.4901C20.5964 100.094 21.5013 99.1859 21.5013 98.0737C21.5013 96.9658 20.5985 96.0553 19.4901 96.0553H13.4589C12.3548 96.0553 11.4478 96.9637 11.4478 98.0737C11.4499 99.1859 12.3569 100.094 13.4589 100.094Z" fill="#005494"/>
<path d="M19.4926 116.25C20.5988 116.25 21.5037 115.342 21.5037 114.232C21.5037 113.12 20.6009 112.211 19.4926 112.211H13.4613C12.3572 112.211 11.4502 113.12 11.4502 114.232C11.4502 115.34 12.3572 116.25 13.4613 116.25H19.4926Z" fill="#005494"/>
<path d="M107.041 107.565C107.041 107.565 99.8039 97.4711 99.6047 97.1655C98.1975 95.147 96.4873 92.6212 93.5734 92.6212H78.0947V90.8045C78.0947 87.4743 75.4775 84.9486 72.2627 84.9486H18.8884C15.8728 84.9486 13.459 87.2706 13.459 90.2017V92.0185H17.4791V90.2017C17.4791 89.4928 18.081 88.9877 18.8863 88.9877H72.2606C73.3668 88.9877 74.0725 89.7984 74.0725 90.8045V123.32H45.4251C45.5268 123.923 45.6243 124.632 45.6243 125.339C45.6243 126.048 45.5268 126.752 45.4251 127.359H80.0041C79.9024 126.752 79.8007 126.048 79.8007 125.339C79.8007 124.634 79.9024 123.925 80.0041 123.32H78.0947V96.6603H93.5734C94.3745 96.6603 95.4828 98.1757 96.2881 99.4874C96.4873 99.793 103.724 109.887 103.724 109.887C103.928 110.193 103.928 110.291 103.928 110.393V121.701C103.928 122.609 103.021 123.42 101.917 123.42H101.713C101.815 124.023 101.917 124.732 101.917 125.439C101.917 126.147 101.815 126.852 101.713 127.459H101.917C105.233 127.459 107.948 124.832 107.948 121.701C107.948 121.701 107.948 110.494 107.948 110.393C107.95 109.382 107.645 108.376 107.041 107.565Z" fill="#005494"/>
<path d="M18.8887 123.32C18.0834 123.32 17.4816 122.815 17.4816 122.106V120.289H13.4614V122.106C13.4614 125.035 15.8752 127.359 18.8908 127.359H23.7184C23.6167 126.752 23.5149 126.048 23.5149 125.339C23.5149 124.634 23.6167 123.925 23.7184 123.32H18.8887Z" fill="#005494"/>
<path d="M71.1563 50.618C71.1563 50.8854 71.1076 51.1422 71.0059 51.3905C70.9042 51.6367 70.7579 51.8553 70.5693 52.0421C70.3807 52.2353 70.1624 52.3775 69.9187 52.4836C69.6708 52.5855 69.4144 52.6343 69.1516 52.6343C68.8846 52.6343 68.6281 52.5855 68.3802 52.4836C68.1365 52.3775 67.9161 52.2353 67.7296 52.0421C67.541 51.8532 67.3948 51.6346 67.293 51.3905C67.1913 51.1422 67.1426 50.8854 67.1426 50.618C67.1426 50.3505 67.1913 50.0895 67.293 49.8454C67.3948 49.597 67.541 49.3785 67.7296 49.1896C67.9182 49.0007 68.1365 48.8542 68.3802 48.7523C68.6281 48.6505 68.8846 48.5974 69.1516 48.5974C69.4144 48.5974 69.6708 48.6505 69.9187 48.7523C70.1624 48.8542 70.3828 49.0007 70.5693 49.1896C70.7579 49.3785 70.9042 49.597 71.0059 49.8454C71.1076 50.0895 71.1563 50.3505 71.1563 50.618Z" fill="#005494"/>
<path d="M68.0434 56.5757C68.0434 56.8431 67.9904 57.0999 67.8887 57.3482C67.787 57.5944 67.645 57.813 67.4521 57.9998C67.2635 58.193 67.0495 58.3352 66.8015 58.437C66.5578 58.5432 66.3014 58.592 66.0344 58.592C65.7674 58.592 65.511 58.5432 65.2672 58.437C65.0193 58.3352 64.801 58.193 64.6124 57.9998C64.4238 57.8109 64.2818 57.5923 64.1801 57.3482C64.0784 57.0999 64.0254 56.8431 64.0254 56.5757C64.0254 56.3083 64.0784 56.0472 64.1801 55.8031C64.2818 55.5548 64.4238 55.3362 64.6124 55.1473C64.801 54.9584 65.0193 54.8119 65.2672 54.71C65.511 54.6081 65.7674 54.5551 66.0344 54.5551C66.3014 54.5551 66.5578 54.6081 66.8015 54.71C67.0495 54.8119 67.2657 54.9584 67.4521 55.1473C67.645 55.3362 67.787 55.5548 67.8887 55.8031C67.9904 56.0472 68.0434 56.3083 68.0434 56.5757Z" fill="#005494"/>
<path d="M64.8266 62.5334C64.8266 62.8008 64.7736 63.0577 64.6719 63.306C64.5702 63.5522 64.424 63.7708 64.2353 63.9576C64.0467 64.1444 63.8285 64.2929 63.5848 64.3948C63.341 64.5009 63.0804 64.5497 62.8176 64.5497C62.5506 64.5497 62.2942 64.5009 62.0462 64.3948C61.8025 64.2929 61.5821 64.1465 61.3956 63.9576C61.2091 63.7687 61.0608 63.5501 60.9591 63.306C60.8573 63.0577 60.8086 62.8008 60.8086 62.5334C60.8086 62.266 60.8573 62.0049 60.9591 61.7608C61.0608 61.5125 61.207 61.2939 61.3956 61.105C61.5842 60.9161 61.8025 60.7696 62.0462 60.6678C62.2942 60.5659 62.5506 60.5128 62.8176 60.5128C63.0804 60.5128 63.341 60.5659 63.5848 60.6678C63.8285 60.7696 64.0489 60.9161 64.2353 61.105C64.4218 61.2939 64.5702 61.5125 64.6719 61.7608C64.7757 62.0049 64.8266 62.266 64.8266 62.5334Z" fill="#005494"/>
<path d="M61.7089 68.4869C61.7089 68.7544 61.656 69.0154 61.5542 69.2595C61.4525 69.5078 61.3105 69.7264 61.1219 69.9153C60.9291 70.1042 60.715 70.2507 60.4671 70.3526C60.2234 70.4544 59.9669 70.5075 59.6999 70.5075C59.4329 70.5075 59.1765 70.4544 58.9328 70.3526C58.6848 70.2507 58.4687 70.1042 58.2779 69.9153C58.0893 69.7264 57.9473 69.5078 57.8456 69.2595C57.7439 69.0154 57.6909 68.7544 57.6909 68.4869C57.6909 68.2195 57.7439 67.9627 57.8456 67.7186C57.9473 67.4703 58.0893 67.2516 58.2779 67.0627C58.4708 66.8738 58.6848 66.7274 58.9328 66.6255C59.1765 66.5194 59.4329 66.4706 59.6999 66.4706C59.9669 66.4706 60.2234 66.5194 60.4671 66.6255C60.715 66.7274 60.9312 66.8738 61.1219 67.0627C61.3105 67.2516 61.4525 67.4703 61.5542 67.7186C61.656 67.9627 61.7089 68.2195 61.7089 68.4869Z" fill="#005494"/>
<path d="M69.6498 72.6278C69.6498 72.8952 69.5969 73.1563 69.4951 73.4003C69.3934 73.6487 69.2514 73.8673 69.0628 74.0562C68.8742 74.2451 68.6559 74.3916 68.408 74.4934C68.1643 74.5953 67.9079 74.6484 67.6408 74.6484C67.3738 74.6484 67.1174 74.5953 66.8737 74.4934C66.6257 74.3916 66.4096 74.2451 66.2231 74.0562C66.0302 73.8673 65.8883 73.6487 65.7865 73.4003C65.6848 73.1563 65.6318 72.8952 65.6318 72.6278C65.6318 72.3604 65.6848 72.1035 65.7865 71.8552C65.8883 71.6111 66.0302 71.3904 66.2231 71.2037C66.4117 71.0105 66.6257 70.8683 66.8737 70.7664C67.1174 70.6603 67.3738 70.6115 67.6408 70.6115C67.9079 70.6115 68.1643 70.6603 68.408 70.7664C68.6559 70.8683 68.8742 71.0105 69.0628 71.2037C69.2514 71.3926 69.3934 71.6111 69.4951 71.8552C69.5969 72.1035 69.6498 72.3604 69.6498 72.6278Z" fill="#005494"/>
<path d="M77.5903 76.7686C77.5903 77.036 77.5415 77.2971 77.4356 77.5412C77.3339 77.7895 77.1919 78.0081 77.0033 78.197C76.8147 78.3859 76.5964 78.5324 76.3484 78.6342C76.1047 78.7361 75.8483 78.7892 75.5813 78.7892C75.3143 78.7892 75.0578 78.7361 74.8141 78.6342C74.5662 78.5324 74.35 78.3859 74.1635 78.197C73.9707 78.0081 73.8287 77.7895 73.727 77.5412C73.6252 77.2971 73.5723 77.036 73.5723 76.7686C73.5723 76.5012 73.6252 76.2444 73.727 75.9961C73.8287 75.752 73.9707 75.5312 74.1635 75.3445C74.3521 75.1513 74.5662 75.0091 74.8141 74.903C75.0578 74.8011 75.3143 74.7523 75.5813 74.7523C75.8483 74.7523 76.1047 74.8011 76.3484 74.903C76.5964 75.0091 76.8147 75.1513 77.0033 75.3445C77.1919 75.5334 77.3339 75.752 77.4356 75.9961C77.5415 76.2444 77.5903 76.5012 77.5903 76.7686Z" fill="#005494"/>
<path d="M85.6328 80.9095C85.6328 81.177 85.5798 81.4338 85.4781 81.6821C85.3763 81.9304 85.2301 82.1491 85.0415 82.338C84.8529 82.5269 84.6389 82.6733 84.3909 82.7752C84.1472 82.877 83.8908 82.9301 83.6237 82.9301C83.3567 82.9301 83.1003 82.877 82.8566 82.7752C82.6087 82.6733 82.3904 82.5269 82.2018 82.338C82.0132 82.1491 81.8712 81.9304 81.7694 81.6821C81.6635 81.4338 81.6147 81.177 81.6147 80.9095C81.6147 80.6421 81.6635 80.3853 81.7694 80.1369C81.8712 79.8929 82.0132 79.6721 82.2018 79.4811C82.3904 79.2922 82.6087 79.15 82.8566 79.0439C83.1003 78.942 83.3567 78.8932 83.6237 78.8932C83.8908 78.8932 84.1472 78.942 84.3909 79.0439C84.6389 79.15 84.855 79.2922 85.0415 79.4811C85.2301 79.6743 85.3763 79.8929 85.4781 80.1369C85.5798 80.3853 85.6328 80.6421 85.6328 80.9095Z" fill="#005494"/>
<path d="M89.8544 74.1431C89.8544 74.4105 89.8057 74.6674 89.6997 74.9157C89.598 75.164 89.456 75.3805 89.2674 75.5715C89.0788 75.7604 88.8605 75.9069 88.6126 76.0087C88.3689 76.1106 88.1124 76.1637 87.8454 76.1637C87.5784 76.1637 87.322 76.1106 87.0783 76.0087C86.8303 75.9069 86.6142 75.7604 86.4277 75.5715C86.2391 75.3784 86.0928 75.164 85.9911 74.9157C85.8894 74.6674 85.8364 74.4105 85.8364 74.1431C85.8364 73.8757 85.8894 73.6189 85.9911 73.3706C86.0928 73.1223 86.2391 72.9057 86.4277 72.7147C86.6163 72.5258 86.8303 72.3794 87.0783 72.2775C87.322 72.1756 87.5784 72.1226 87.8454 72.1226C88.1124 72.1226 88.3689 72.1756 88.6126 72.2775C88.8605 72.3794 89.0788 72.5258 89.2674 72.7147C89.456 72.9078 89.598 73.1223 89.6997 73.3706C89.8057 73.6189 89.8544 73.8757 89.8544 74.1431Z" fill="#005494"/>
</svg>
