<svg width="103" height="105" viewBox="0 0 103 105" fill="none" xmlns="http://www.w3.org/2000/svg">
<path d="M48.7452 26.8286C48.2946 27.2786 48.0114 27.9044 48.0114 28.5858C48.0114 29.2701 48.2918 29.8915 48.7452 30.3429C49.1958 30.7972 49.8224 31.0758 50.5075 31.0758H52.6504C54.0108 31.0758 55.2452 31.6315 56.1436 32.5215C57.039 33.4187 57.5912 34.6515 57.5912 36.0101C57.5912 37.3615 57.0348 38.5944 56.1436 39.4915L56.1364 39.4943C55.2696 40.3572 54.0937 40.9015 52.7977 40.94V42.8329C52.7977 43.5029 52.2527 44.0487 51.5775 44.0487C50.9066 44.0487 50.3602 43.5043 50.3602 42.8329V40.94C49.0556 40.9015 47.8769 40.3572 47.0144 39.4943C46.1189 38.6043 45.5639 37.3672 45.5639 36.0086C45.5639 35.3343 46.1132 34.7858 46.7883 34.7858C47.4635 34.7858 48.0128 35.3343 48.0128 36.0086C48.0128 36.6901 48.2932 37.3144 48.7466 37.7658C49.1972 38.2201 49.8238 38.4986 50.509 38.4986H52.6518C53.3413 38.4986 53.9636 38.2186 54.4113 37.7729L54.4184 37.7658C54.8662 37.3186 55.1451 36.6972 55.1451 36.0086C55.1451 35.3243 54.8647 34.7029 54.4113 34.2486C53.9607 33.7986 53.3341 33.5187 52.6518 33.5187H50.509C49.1486 33.5187 47.9113 32.9601 47.0158 32.0701C46.1203 31.1758 45.5653 29.9429 45.5653 28.5858C45.5653 27.2244 46.1218 25.9915 47.0158 25.0972C47.8798 24.2343 49.0585 23.6901 50.3616 23.6515V21.7629C50.3616 21.0886 50.9066 20.5444 51.579 20.5444C52.2541 20.5444 52.7992 21.0886 52.7992 21.7629V23.6515C54.0966 23.6901 55.2753 24.2343 56.1379 25.0972L56.145 25.1043C57.0405 26.0015 57.5926 27.2315 57.5926 28.5858C57.5926 29.2601 57.0476 29.8044 56.3682 29.8044C55.693 29.8044 55.1437 29.2601 55.1437 28.5858C55.1437 27.8972 54.8676 27.2729 54.417 26.8258L54.4098 26.8229C53.9621 26.3758 53.3399 26.0929 52.6504 26.0929H50.5075C49.8195 26.0958 49.1973 26.3786 48.7452 26.8286ZM94.7504 51.3472C94.7504 53.0229 94.1138 54.7 92.8378 55.97L70.9389 77.83C70.9002 77.8686 70.8616 77.9029 70.8201 77.9343C70.813 77.9415 70.8101 77.9486 70.803 77.9558C69.8374 78.9443 68.8103 79.8901 67.7532 80.6801C66.6489 81.5072 65.516 82.1572 64.3959 82.5029L29.7057 91.2158L25.9365 95.1301C25.6633 95.4129 25.2999 95.5558 24.9366 95.5558L9.7894 95.5586C9.0241 95.5586 8.40186 94.9401 8.40186 94.1758L8.409 94.05V77.0686C8.38039 76.6815 8.51343 76.2858 8.81096 75.9858L25.4444 59.3843L25.5288 59.3043C26.1925 58.6686 26.9593 58.1972 27.7775 57.8929C28.6658 57.5643 29.6056 57.4315 30.5297 57.4943C30.5683 57.4972 30.6069 57.5044 30.6456 57.5086L60.6538 57.4844L77.2029 40.9672C78.476 39.6929 80.1582 39.0572 81.8318 39.0572V39.0643C83.5098 39.0643 85.1849 39.7001 86.458 40.9672H86.4651C87.2275 41.7286 87.7697 42.6158 88.0801 43.5658C88.2131 43.9743 88.3032 44.3972 88.349 44.8258C89.9783 44.8572 91.5976 45.4929 92.835 46.7258L92.8421 46.7329C94.1152 48.0001 94.7475 49.6729 94.7475 51.3486H94.7504V51.3472ZM63.9939 58.0615C64.7149 58.3901 65.3686 58.8444 65.9236 59.3986C66.7876 60.2572 67.4099 61.3544 67.686 62.5872L83.5741 46.7229C84.1792 46.1229 84.8716 45.6643 85.6097 45.3501C85.5997 45.0329 85.5439 44.7186 85.4452 44.4215C85.2707 43.8872 84.956 43.3772 84.4982 42.9229C83.7672 42.19 82.796 41.8229 81.8304 41.8229V41.8301C80.862 41.8301 79.8935 42.1972 79.1583 42.9272L63.9939 58.0615ZM91.981 51.3472C91.981 50.3829 91.6133 49.4158 90.8795 48.6786C90.1457 47.9486 89.1773 47.5815 88.2074 47.5815V47.5886C87.239 47.5886 86.2706 47.9515 85.5353 48.6858L67.0494 67.1372C66.749 67.6886 66.3671 68.1958 65.9265 68.6358C64.7406 69.8201 63.0971 70.5558 61.3004 70.5558H39.925C39.1597 70.5558 38.5374 69.9344 38.5374 69.1701C38.5374 68.4058 39.1597 67.7844 39.925 67.7844H61.3004C62.336 67.7844 63.2802 67.3615 63.9611 66.6772C64.6462 65.9958 65.0725 65.0529 65.0725 64.0201L65.0797 64.0172C65.0797 62.9872 64.6491 62.0443 63.9611 61.3601V61.3529C63.283 60.6758 62.3389 60.2529 61.3032 60.2529L61.3004 60.2458L30.5926 60.2701C30.5326 60.2701 30.4768 60.2672 30.4181 60.2601C30.3938 60.2601 30.3695 60.26 30.3409 60.2572C29.7959 60.2186 29.2466 60.2958 28.7387 60.4843C28.2767 60.6558 27.8404 60.9243 27.4628 61.2843L11.1727 77.5472V92.7929H24.3544L27.9377 89.0701C28.1194 88.8601 28.364 88.7029 28.6515 88.63L63.6449 79.8443C64.4174 79.5929 65.2528 79.1044 66.0925 78.4758C67.0079 77.7915 67.9349 76.9358 68.816 76.0315C68.8447 76 68.879 75.9715 68.9105 75.9444C68.9319 75.9201 68.9491 75.8958 68.9734 75.8743L90.8724 54.0186C91.6062 53.2858 91.971 52.3186 91.971 51.3515H91.981V51.3472ZM51.5775 51.87C54.5944 51.87 57.4553 51.1886 60.0115 49.9701C62.6622 48.7058 64.9838 46.8658 66.8191 44.6058C67.2983 44.0158 67.2111 43.1458 66.616 42.6643C66.0252 42.1858 65.1541 42.2729 64.672 42.8672C63.0985 44.8015 61.1016 46.3829 58.8185 47.4729C56.6256 48.5172 54.171 49.1001 51.5775 49.1001C46.9271 49.1001 42.7172 47.2215 39.6746 44.1801C36.6249 41.1415 34.741 36.9372 34.741 32.3C34.741 27.6586 36.6263 23.4586 39.6746 20.4201C42.7201 17.3786 46.93 15.5001 51.5775 15.5001C56.2251 15.5001 60.435 17.3786 63.4804 20.4201C66.5259 23.4586 68.4112 27.6629 68.4112 32.3C68.4112 33.03 68.3654 33.7315 68.2825 34.4058L64.9567 31.0258C64.4217 30.4815 63.5476 30.4743 62.9983 31.0086C62.4562 31.5429 62.4462 32.4201 62.9841 32.9644L68.4212 38.4915C68.9562 39.0358 69.8345 39.0429 70.3795 38.5086L75.9183 33.0786C76.4633 32.5443 76.4705 31.6715 75.9355 31.1272C75.4005 30.5829 74.5222 30.5758 73.9772 31.1101L71.1134 33.9172C71.1591 33.3758 71.1835 32.8386 71.1835 32.3C71.1835 26.8943 68.9906 22.0029 65.4416 18.4615C61.8955 14.9172 56.9904 12.7244 51.5775 12.7244C46.1618 12.7244 41.2596 14.9172 37.7106 18.4586C34.1616 22.0029 31.9687 26.8958 31.9687 32.2972C31.9687 37.7029 34.1616 42.5986 37.7106 46.1358C41.2596 49.6815 46.1618 51.87 51.5775 51.87Z" fill="#005494"/>
</svg>
