<svg width="103" height="100" viewBox="0 0 103 100" fill="none" xmlns="http://www.w3.org/2000/svg">
<path d="M95.2089 53.8653H92.2594V50.9238C92.2594 46.8 89.3536 43.351 85.475 42.4993V30.2871C85.475 29.7469 85.1913 29.2544 84.7261 28.9864L48.4196 8.08164C47.9544 7.81361 47.3869 7.81361 46.9217 8.08164L10.6152 28.9864C10.15 29.2544 9.86621 29.7483 9.86621 30.2871V72.0952C9.86621 72.6313 10.15 73.1252 10.6152 73.3932L46.9217 94.298C47.1468 94.434 47.4169 94.4939 47.6706 94.4939C47.9257 94.4939 48.1945 94.4326 48.4196 94.298L73.2733 79.9946H95.2089C96.0329 79.9946 96.7068 79.3225 96.7068 78.5007V55.3551C96.7068 54.5197 96.0329 53.8653 95.2089 53.8653ZM89.2635 50.9238V53.8653H77.9458V50.9238C77.9458 47.8 80.4901 45.2762 83.6047 45.2762C86.7192 45.2762 89.2635 47.8 89.2635 50.9238ZM72.0005 53.8653C71.1765 53.8653 70.5025 54.5374 70.5025 55.3551V78.1429L49.1686 90.4299V52.0558L62.7182 44.2612V55.8953C62.7182 56.717 63.3921 57.3891 64.2161 57.3891C65.0374 57.3891 65.7099 56.717 65.7099 55.8953V42.532L82.4819 32.868V42.3674C78.2418 42.9184 74.9486 46.5306 74.9486 50.9238V53.8653H72.0005ZM30.4512 21.0122L61.3717 41.5742L47.657 49.4721L14.3573 30.2871L30.4512 21.0122ZM47.6706 11.098L80.9853 30.2871L64.2748 39.9007L33.3434 19.3578L47.6706 11.098ZM12.858 32.868L46.1727 52.0422V90.4027L12.858 71.2286V32.868ZM93.7109 77.0068H73.4984V56.849H93.7109V77.0068Z" fill="#005494"/>
<path d="M83.6044 62.2856C82.7804 62.2856 82.1064 62.9577 82.1064 63.7795V67.721C82.1064 68.5401 82.7804 69.2108 83.6044 69.2108C84.4284 69.2108 85.1023 68.5387 85.1023 67.721V63.7795C85.1023 62.9577 84.4284 62.2856 83.6044 62.2856Z" fill="#005494"/>
</svg>
