<svg width="103" height="118" viewBox="0 0 103 118" fill="none" xmlns="http://www.w3.org/2000/svg">
<path d="M76.6538 78.3874C75.7692 78.3874 75.048 79.113 75.048 80.0041V99.3897C75.048 102.055 72.878 104.237 70.2256 104.237H27.6304C29.35 102.573 30.5408 100.392 30.9094 97.9192C31.4896 94.0099 30.1065 90.1649 27.2938 87.6604L37.6437 76.9986C39.0076 75.5939 39.748 73.6545 39.6999 71.6654C39.6487 69.6634 38.8153 67.8235 37.3537 66.4653C34.5875 63.9111 30.1225 64.123 27.3916 66.9486L23.6302 70.8257V18.6087C23.6302 15.9437 25.8002 13.7619 28.4526 13.7619H70.2256C72.878 13.7619 75.048 15.9437 75.048 18.6087V28.3056C75.048 29.1918 75.7692 29.9191 76.6538 29.9191C77.5353 29.9191 78.2597 29.1934 78.2597 28.3056V18.6087C78.2597 14.1504 74.6601 10.5317 70.2256 10.5317H28.4542C24.0196 10.5317 20.4201 14.1504 20.4201 18.6087V43.9442L9.44673 59.4062C6.12124 64.0925 4.35352 69.6168 4.35352 75.3659V105.853C4.35352 106.739 5.07471 107.467 5.95937 107.467H70.2256C74.6601 107.467 78.2597 103.848 78.2597 99.3897V80.0041C78.2613 79.1146 77.5353 78.3874 76.6538 78.3874ZM15.6009 104.238H7.56683V75.3675C7.56683 70.2927 9.12621 65.4154 12.0478 61.2798L20.4201 49.5022V74.1554L14.2338 80.5402C13.6232 81.184 13.6232 82.2035 14.2659 82.8168C14.9086 83.43 15.923 83.4285 16.5304 82.7847L23.1189 75.984C23.1189 75.984 23.1654 75.9326 23.1814 75.9166L29.6882 69.1946C31.2155 67.6132 33.6756 67.4527 35.1693 68.8414C35.9722 69.5831 36.4385 70.6186 36.4706 71.7488C36.5027 72.8791 36.102 73.9467 35.3311 74.7398L23.7007 86.7244C23.3641 87.0808 23.2039 87.5641 23.2504 88.0505C23.2968 88.5338 23.5869 88.972 24.0068 89.2273C26.7537 90.9114 28.1977 94.1399 27.7009 97.4375C27.1208 101.315 23.6654 104.222 19.6668 104.222H15.5689L15.6009 104.238Z" fill="#005494"/>
<path d="M76.6536 33.1523C66.8983 33.1523 58.978 41.1154 58.978 50.9214C58.978 60.729 74.934 74.1891 75.6071 74.7702C75.9132 75.0287 76.2802 75.1587 76.6536 75.1587C77.0223 75.1587 77.3909 75.0287 77.6954 74.7702C78.3733 74.1891 94.3244 60.485 94.3244 50.9214C94.326 41.3578 86.4042 33.1523 76.6536 33.1523ZM76.6536 71.3908C71.8152 67.0464 62.1897 57.1409 62.1897 50.9214C62.1897 42.9086 68.6805 36.3825 76.6536 36.3825C84.622 36.3825 91.1127 42.9086 91.1127 50.9214C91.1143 57.1425 81.4888 67.0625 76.6536 71.3908Z" fill="#005494"/>
<path d="M76.6537 42.8462C72.2192 42.8462 68.6196 46.4648 68.6196 50.9232C68.6196 55.3847 72.2192 59.0034 76.6537 59.0034C81.0882 59.0034 84.6846 55.3847 84.6846 50.9232C84.6846 46.4632 81.0882 42.8462 76.6537 42.8462ZM76.6537 55.7684C74.0013 55.7684 71.8313 53.5898 71.8313 50.9216C71.8313 48.2565 74.0013 46.0747 76.6537 46.0747C79.3013 46.0747 81.4729 48.2565 81.4729 50.9216C81.4729 53.5898 79.3029 55.7684 76.6537 55.7684Z" fill="#005494"/>
<path d="M55.7663 18.6088C55.7663 17.7226 55.0419 16.9954 54.1605 16.9954H44.5189C43.6343 16.9954 42.9131 17.721 42.9131 18.6088C42.9131 19.4999 43.6343 20.2255 44.5189 20.2255H54.1605C55.0419 20.2255 55.7663 19.4999 55.7663 18.6088Z" fill="#005494"/>
<path d="M49.3384 89.6978C46.2389 89.6978 43.7163 92.2328 43.7163 95.3521C43.7163 98.4683 46.2389 101.006 49.3384 101.006C52.4411 101.006 54.9637 98.4667 54.9637 95.3521C54.9637 92.2328 52.4411 89.6978 49.3384 89.6978ZM49.3384 97.7747C48.0066 97.7747 46.9296 96.6911 46.9296 95.3537C46.9296 94.0116 48.0066 92.9279 49.3384 92.9279C50.675 92.9279 51.752 94.0116 51.752 95.3537C51.7504 96.6911 50.6734 97.7747 49.3384 97.7747Z" fill="#005494"/>
</svg>
