<svg width="103" height="111" viewBox="0 0 103 111" fill="none" xmlns="http://www.w3.org/2000/svg">
<path d="M96.1722 78.3765C96.1374 77.9144 96.0891 77.4507 96.0302 76.9886C95.9683 76.528 95.8943 76.0674 95.8098 75.6098C95.7237 75.1507 95.6241 74.6976 95.5108 74.2446C95.3961 73.793 95.2723 73.3445 95.1318 72.899C94.9944 72.455 94.8449 72.014 94.6804 71.5775C94.5188 71.1426 94.3406 70.7092 94.1519 70.2878C93.9662 69.862 93.7638 69.4406 93.5509 69.0208C93.3365 68.6085 93.1161 68.2023 92.882 67.7975C92.645 67.3958 92.4004 67.0031 92.1422 66.6165C91.8825 66.2284 91.6137 65.8478 91.3359 65.4748C91.055 65.1018 90.7666 64.7409 90.4661 64.3829C90.1657 64.0296 89.8576 63.6837 89.536 63.3424C89.2144 63.0056 88.8852 62.6794 88.547 62.3593C88.2103 62.0436 87.8615 61.734 87.5052 61.435C87.1503 61.1375 86.7819 60.8506 86.4105 60.5727C86.0375 60.2948 85.657 60.029 85.2674 59.7708C85.044 59.6243 84.8114 59.4884 84.5834 59.3479V29.5184C84.5834 29.313 84.5442 29.1136 84.4657 28.9279C84.3871 28.7406 84.2769 28.573 84.1289 28.4204C83.9825 28.2785 83.8164 28.1682 83.6307 28.0897C83.4449 28.0112 83.2456 27.9719 83.0403 27.9719H65.3892C65.1868 27.9719 64.9875 28.0112 64.7957 28.0897C64.6055 28.1713 64.4379 28.283 64.2975 28.4235C64.1525 28.5684 64.0393 28.7391 63.9623 28.9294C63.8853 29.1182 63.846 29.316 63.846 29.5184V57.1566C63.4308 57.3046 63.0201 57.4586 62.6199 57.6278C62.1866 57.8045 61.7638 57.9948 61.3455 58.1987C60.9258 58.404 60.5151 58.6155 60.1134 58.8435C59.7043 59.067 59.3056 59.3071 58.9146 59.5563C58.522 59.8085 58.1384 60.0683 57.761 60.3401C57.7534 60.3447 57.7474 60.3507 57.7413 60.3552V42.63C57.7413 42.4276 57.7021 42.2298 57.6221 42.0334C57.5375 41.8386 57.4288 41.6755 57.2853 41.5335C57.1434 41.3931 56.9773 41.2829 56.784 41.1983C56.5953 41.1228 56.399 41.085 56.1982 41.085H38.5455C38.3447 41.085 38.1469 41.1228 37.9506 41.2028C37.7664 41.2829 37.6018 41.3931 37.4508 41.5396C37.3134 41.6815 37.2017 41.8477 37.1187 42.041C37.0417 42.2282 37.0039 42.4261 37.0039 42.63V85.112C37.0039 85.3189 37.0432 85.5182 37.1217 85.71C37.2032 85.9003 37.315 86.0664 37.4554 86.2069C37.6018 86.3549 37.7725 86.4666 37.9506 86.5391C38.1379 86.6207 38.3372 86.6615 38.5455 86.6615H48.4885C48.5791 86.9907 48.6681 87.3214 48.7723 87.6461C48.9158 88.0901 49.0683 88.5311 49.2359 88.963C49.402 89.3995 49.5817 89.8284 49.7749 90.2527C49.9667 90.6771 50.1705 91.0939 50.3849 91.5107C50.6009 91.92 50.8273 92.3277 51.0674 92.7295C51.3075 93.1282 51.5551 93.5208 51.8179 93.9059C52.0776 94.2925 52.3494 94.6701 52.6332 95.0386C52.9156 95.4086 53.207 95.768 53.512 96.1214C53.817 96.4763 54.1296 96.8191 54.4512 97.1528C54.7728 97.4911 55.105 97.8158 55.4493 98.1315C55.789 98.4441 56.1408 98.7537 56.4987 99.0482C56.858 99.3426 57.2249 99.6281 57.5994 99.8999C57.9754 100.176 58.3559 100.439 58.747 100.693C59.138 100.945 59.5351 101.187 59.9383 101.415C60.343 101.646 60.7552 101.865 61.1719 102.073C61.5886 102.277 62.0084 102.472 62.4342 102.653C62.8645 102.836 63.2964 103.003 63.7328 103.16C64.1706 103.318 64.61 103.461 65.057 103.595C65.4994 103.725 65.9493 103.843 66.4008 103.949C66.8523 104.054 67.3083 104.147 67.7673 104.228C68.2248 104.308 68.6838 104.376 69.1459 104.429C69.6064 104.482 70.0684 104.521 70.532 104.548C70.997 104.574 71.4591 104.588 71.9241 104.588H71.9694C73.5639 104.588 75.1463 104.432 76.6699 104.125C78.2327 103.816 79.7683 103.349 81.2329 102.739C82.699 102.132 84.1123 101.371 85.4365 100.48C86.7608 99.5888 87.9989 98.5649 89.1163 97.4353C89.4439 97.1076 89.7655 96.7678 90.072 96.4219C90.3831 96.0731 90.6805 95.7151 90.9689 95.3497C91.2573 94.9842 91.5367 94.6127 91.8054 94.2306C92.0712 93.85 92.3294 93.4619 92.574 93.0662C92.8186 92.6691 93.0526 92.2673 93.2746 91.8581C93.4966 91.4473 93.7064 91.0335 93.9027 90.6152C94.1051 90.1923 94.2923 89.7634 94.4614 89.3315C94.6366 88.9011 94.7996 88.4647 94.9506 88.0222C95.0986 87.5812 95.2345 87.1342 95.3583 86.6856C95.4821 86.2356 95.5939 85.7825 95.692 85.3295C95.7902 84.8734 95.8762 84.4158 95.9472 83.9537C96.0182 83.4946 96.077 83.034 96.1254 82.5673C96.1676 82.1022 96.2024 81.64 96.219 81.1764C96.2386 80.7082 96.2446 80.2431 96.2371 79.7764C96.2265 79.3113 96.2069 78.8462 96.1722 78.3765ZM54.6565 62.9936C54.6339 63.0162 54.6097 63.0373 54.5871 63.06C54.2609 63.3907 53.9454 63.7305 53.6419 64.0824C53.3354 64.4328 53.0394 64.7922 52.751 65.1607C52.4671 65.5292 52.1938 65.9037 51.9281 66.2858C51.6654 66.6694 51.4102 67.062 51.1716 67.4577C50.93 67.8549 50.699 68.2581 50.4801 68.6704C50.2611 69.0827 50.0543 69.498 49.8595 69.9208C49.6647 70.3422 49.482 70.7726 49.3099 71.206C49.1377 71.6379 48.9822 72.0789 48.8373 72.5184C48.6893 72.9624 48.5549 73.4109 48.4386 73.8595C48.3178 74.311 48.2121 74.7641 48.117 75.2187C48.0234 75.6778 47.9419 76.1338 47.8709 76.5959C47.803 77.0581 47.7501 77.5172 47.7093 77.9823C47.6671 78.4475 47.6384 78.9141 47.6233 79.3778C47.6082 79.8459 47.6052 80.3096 47.6172 80.7777C47.6293 81.2444 47.6535 81.708 47.6912 82.1716C47.729 82.6368 47.7803 83.1004 47.8452 83.5625C47.8452 83.564 47.8452 83.564 47.8452 83.5655H40.0902V44.1764H54.6596V62.9936H54.6565ZM50.6915 80.1766C50.6915 68.4242 60.2161 58.8631 71.9241 58.8631C83.6322 58.8631 93.1568 68.4242 93.1568 80.1766C93.1568 91.9321 83.6322 101.495 71.9241 101.495C60.2161 101.495 50.6915 91.9321 50.6915 80.1766ZM81.4971 57.741C81.1015 57.5734 80.7044 57.4088 80.3013 57.2638C79.8664 57.1007 79.424 56.9527 78.9816 56.8198C78.5346 56.6839 78.0877 56.5586 77.6347 56.4498C77.1832 56.3411 76.7303 56.246 76.2743 56.1614C75.8183 56.0768 75.3608 56.0058 74.8987 55.9515C74.4367 55.8941 73.9731 55.8503 73.5141 55.8216C73.049 55.7884 72.587 55.7733 72.1204 55.7672H71.9498C71.5406 55.7672 71.1344 55.7763 70.7268 55.7974C70.2617 55.8231 69.8027 55.8563 69.3391 55.9062C68.8771 55.956 68.4211 56.0194 67.9591 56.0934C67.6133 56.1508 67.2705 56.2233 66.9278 56.2958V31.0633H81.4971V57.741Z" fill="#005494"/>
<path d="M59.6965 92.3823C62.8236 95.5386 67.1495 97.4973 71.9239 97.4973C76.7074 97.4973 81.0409 95.5295 84.1695 92.3611C84.1937 92.3339 84.2208 92.3083 84.2435 92.2796C87.289 89.155 89.1749 84.8856 89.1749 80.1783C89.1749 70.6308 81.435 62.8623 71.9224 62.8623C67.222 62.8623 62.9595 64.7637 59.8445 67.8339C59.8037 67.8671 59.7493 67.8853 59.7131 67.9215C59.6754 67.9593 59.6572 68.0136 59.624 68.0544C56.5649 71.1805 54.6699 75.4589 54.6699 80.1768C54.6699 84.8781 56.5513 89.1414 59.5908 92.266C59.6225 92.3068 59.6603 92.343 59.6965 92.3823ZM59.8143 81.7248C60.0211 81.7248 60.2219 81.684 60.4016 81.6054C60.5889 81.5299 60.758 81.4167 60.909 81.2672C61.0524 81.1192 61.1626 80.9515 61.2381 80.7673C61.3166 80.5755 61.3544 80.3822 61.3544 80.1753C61.3544 79.9729 61.3151 79.7751 61.2381 79.5863C61.1596 79.396 61.0494 79.2269 60.9059 79.0849C60.761 78.9399 60.5919 78.8267 60.4077 78.7497C60.2189 78.6696 60.0211 78.6303 59.8158 78.6303H57.8423C58.1413 75.8652 59.2344 73.3401 60.8848 71.2802L62.2739 72.6741C62.5759 72.9746 62.9413 73.1287 63.3641 73.1287C63.6752 73.1287 63.9621 73.0396 64.2203 72.8674C64.4769 72.6952 64.6672 72.4612 64.7865 72.1727C64.9073 71.8812 64.936 71.5807 64.8741 71.2802C64.8137 70.9766 64.6732 70.7108 64.4543 70.4873L63.0636 69.0934C65.1156 67.4367 67.6297 66.3403 70.3823 66.0398V68.0227C70.3823 68.2296 70.42 68.4229 70.5001 68.6162C70.5756 68.7989 70.6873 68.965 70.8368 69.1191C70.9908 69.2686 71.1599 69.3819 71.3351 69.4513C71.5193 69.5299 71.7186 69.5676 71.9254 69.5676C72.1308 69.5676 72.3301 69.5299 72.5128 69.4528C72.6955 69.3788 72.8692 69.2626 73.0156 69.1161C73.1636 68.9681 73.2738 68.805 73.3538 68.6101C73.4309 68.4168 73.4671 68.2235 73.4671 68.0227V66.0398C76.2197 66.3403 78.7337 67.4367 80.7857 69.0934L79.3906 70.4919C79.1746 70.7123 79.0357 70.9781 78.9738 71.2802C78.9119 71.5837 78.9421 71.8828 79.0629 72.1757C79.1852 72.4672 79.377 72.7028 79.6337 72.8719C79.8919 73.0426 80.1787 73.1302 80.4883 73.1302C80.9095 73.1302 81.2765 72.9761 81.5785 72.6756L82.9661 71.2817C84.6164 73.3416 85.7096 75.8682 86.0086 78.6334H84.0396C83.8343 78.6334 83.635 78.6726 83.4493 78.7527C83.262 78.8297 83.0944 78.943 82.9495 79.0879C82.8045 79.2329 82.6928 79.4021 82.6143 79.5924C82.5373 79.7857 82.498 79.982 82.498 80.1783C82.498 80.3792 82.5358 80.5709 82.6143 80.7688C82.6883 80.9515 82.8 81.1192 82.9495 81.2732C83.0959 81.4197 83.265 81.533 83.4432 81.6054C83.632 81.687 83.8313 81.7278 84.0396 81.7278H86.0071C85.7081 84.4915 84.6149 87.018 82.9646 89.0764L81.5709 87.6795C81.4184 87.5315 81.2493 87.4212 81.0741 87.3533C80.8929 87.2793 80.7027 87.2415 80.4883 87.2415C80.2859 87.2415 80.0866 87.2808 79.9054 87.3578C79.7182 87.4348 79.5491 87.5466 79.4011 87.6946C79.2577 87.8426 79.1475 88.0087 79.0705 88.1945C78.9919 88.3848 78.9527 88.5826 78.9527 88.7804C78.9527 88.9873 78.9889 89.1776 79.0644 89.3679C79.1414 89.5536 79.2486 89.7198 79.3921 89.8708L80.7842 91.2647C78.7322 92.9214 76.2182 94.0178 73.4656 94.3183V92.3385C73.4656 92.1361 73.4278 91.9398 73.3508 91.7525C73.2738 91.5622 73.1606 91.3916 73.0141 91.2451C72.8767 91.1077 72.7106 90.9959 72.5113 90.9068C72.1308 90.7543 71.7186 90.7512 71.329 90.9113C71.1463 90.9914 70.9802 91.1016 70.8307 91.2481C70.6858 91.3976 70.5756 91.5652 70.5031 91.745C70.4216 91.9322 70.3823 92.1316 70.3823 92.3385V94.3183C67.6297 94.0178 65.1141 92.9199 63.0621 91.2632L64.4603 89.8587C64.5977 89.7122 64.7065 89.5461 64.7804 89.3649C64.8559 89.1791 64.8922 88.9873 64.8922 88.7759C64.8922 88.5796 64.8529 88.3832 64.7744 88.1899C64.6989 88.0042 64.5857 87.835 64.4407 87.6901C64.2988 87.5481 64.1312 87.4363 63.9454 87.3563C63.7673 87.2808 63.5725 87.2415 63.3581 87.237C63.1573 87.237 62.967 87.2717 62.7737 87.3488C62.585 87.4258 62.4159 87.536 62.2694 87.6795L60.8818 89.0734C59.2329 87.0135 58.1397 84.4884 57.8408 81.7248H59.8143Z" fill="#005494"/>
<path d="M70.8323 81.27C70.9803 81.418 71.1494 81.5297 71.3261 81.6022C71.5133 81.6838 71.7141 81.7245 71.924 81.7245H76.5157C76.7241 81.7245 76.9234 81.6838 77.1031 81.6052C77.2933 81.5282 77.4625 81.4134 77.6029 81.27C77.7493 81.1235 77.8611 80.9558 77.9411 80.7655C78.0181 80.5738 78.0543 80.3805 78.0543 80.1751C78.0543 79.9742 78.0166 79.7764 77.9381 79.5846C77.8581 79.3913 77.7433 79.2221 77.6059 79.0877C77.464 78.9427 77.2964 78.828 77.1091 78.7494C76.9204 78.6694 76.7211 78.6301 76.5157 78.6301H73.4641V72.1876C73.4641 71.9822 73.4279 71.7889 73.3494 71.5941C73.2694 71.4023 73.1546 71.2332 73.0157 71.0972C72.8722 70.9492 72.7031 70.836 72.5189 70.7604C72.146 70.6019 71.6809 70.6049 71.3382 70.7559C71.1509 70.8314 70.9818 70.9447 70.8323 71.0942C70.6889 71.2377 70.5771 71.4053 70.5001 71.5911C70.4201 71.7829 70.3809 71.9777 70.3809 72.1876V80.1735C70.3809 80.3835 70.4201 80.5783 70.4986 80.7671C70.5787 80.9589 70.6904 81.1295 70.8323 81.27Z" fill="#005494"/>
<path d="M30.449 52.7047C30.3086 52.5597 30.138 52.4464 29.9417 52.3634C29.7484 52.2864 29.5506 52.2471 29.3559 52.2471H11.7047C11.5084 52.2471 11.3106 52.2863 11.1159 52.3649C10.9286 52.4434 10.761 52.5552 10.6115 52.7047C10.4681 52.8542 10.3564 53.0218 10.2839 53.2C10.2039 53.3873 10.1631 53.5881 10.1631 53.7965V85.1091C10.1631 85.3206 10.2039 85.5214 10.2809 85.7011C10.3579 85.8914 10.4696 86.0605 10.6146 86.204C10.7625 86.352 10.9316 86.4638 11.1098 86.5363C11.297 86.6178 11.4979 86.6586 11.7062 86.6586H29.3574C29.5642 86.6586 29.765 86.6178 29.9447 86.5393C30.138 86.4607 30.3101 86.3475 30.4445 86.207C30.5849 86.0696 30.6967 85.9065 30.7843 85.7011C30.8613 85.5139 30.9005 85.3145 30.9005 85.1091V53.7965C30.9005 53.5942 30.8613 53.3963 30.7827 53.1985C30.6967 53.0067 30.588 52.8436 30.449 52.7047ZM27.8142 55.343V83.5657H13.2449V55.343H27.8142Z" fill="#005494"/>
<path d="M10.7445 37.598C11.0253 37.82 11.3485 37.9333 11.7063 37.9333C11.9419 37.9333 12.1683 37.8819 12.3782 37.7777L37.7798 25.4061L44.7859 32.4316C45.0351 32.6808 45.3401 32.8288 45.6964 32.8711C46.0543 32.9073 46.385 32.8378 46.6854 32.6506L71.6462 17.1076L70.3959 21.5294C70.3431 21.7242 70.328 21.9251 70.3506 22.1214C70.3733 22.3253 70.4352 22.5216 70.5364 22.7029C70.639 22.8841 70.7659 23.0336 70.9229 23.1559C71.0814 23.2843 71.2641 23.3779 71.4589 23.4353C71.5948 23.4746 71.7367 23.4942 71.8802 23.4942C72.2245 23.4942 72.537 23.39 72.8103 23.1816C73.0806 22.9762 73.2663 22.7074 73.3629 22.3736L75.6988 14.1128C75.7003 14.1098 75.6988 14.1053 75.6988 14.1022C75.7048 14.0811 75.7215 14.0645 75.726 14.0434C75.7728 13.844 75.7803 13.6416 75.7502 13.4408C75.7199 13.2399 75.649 13.0451 75.5372 12.8639C75.4255 12.6857 75.2851 12.5362 75.1205 12.4214C75.0903 12.4002 75.0511 12.3957 75.0209 12.3761C75.0148 12.3731 75.0118 12.3655 75.0058 12.3625C74.9861 12.3504 74.9635 12.3519 74.9438 12.3413C74.8215 12.2749 74.7023 12.2024 74.5603 12.1692C74.5105 12.1601 74.4682 12.1722 74.4184 12.1662C74.4003 12.1631 74.3867 12.1511 74.3686 12.1495L64.9103 11.1906L64.7971 11.186C64.6385 11.186 64.477 11.2132 64.326 11.2631C64.1312 11.3235 63.9545 11.4201 63.802 11.55C63.6495 11.6799 63.5242 11.8339 63.4351 12.0061C63.3415 12.1752 63.2841 12.3595 63.2585 12.5785C63.2403 12.7702 63.2585 12.9666 63.3143 13.175C63.3732 13.3653 63.4638 13.5404 63.5876 13.699C63.713 13.8561 63.864 13.9844 64.0376 14.0826C64.2067 14.1777 64.3939 14.2397 64.6068 14.2699L69.5519 14.7728L46.0966 29.3765L39.1871 22.4431C38.9561 22.2075 38.6752 22.061 38.3551 22.0097C38.0365 21.9538 37.7225 21.9976 37.422 22.1411L11.0299 34.9974C10.7067 35.1545 10.4636 35.3991 10.3096 35.7223C10.1556 36.0485 10.1194 36.3898 10.1979 36.7372C10.2809 37.0845 10.4651 37.3745 10.7445 37.598Z" fill="#005494"/>
</svg>
