<svg width="78" height="52" viewBox="0 0 78 52" fill="none" xmlns="http://www.w3.org/2000/svg">
<path d="M75.0637 27.813C75.0637 27.679 75.0307 27.5467 74.9827 27.4197C74.9684 27.3774 74.9515 27.3395 74.9328 27.2998C74.9159 27.2689 74.9088 27.2363 74.8901 27.2081L67.3705 14.9881C67.1516 14.6327 66.7618 14.4158 66.3435 14.4158H53.9894V6.1845C53.9894 5.52751 53.45 4.9931 52.7843 4.9931H12.4273C11.7615 4.9931 11.2249 5.52751 11.2249 6.1845V9.76133H7.75743C7.08993 9.76133 6.55237 10.2957 6.55237 10.9527V24.193H4.01854C3.35282 24.193 2.81348 24.7274 2.81348 25.3844V45.8215C2.81348 46.4785 3.35282 47.0129 4.01854 47.0129H26.006C26.2338 47.0129 26.4359 46.9327 26.6165 46.8242C29.6229 46.4283 31.993 44.1513 32.5057 41.2288H52.7843C52.7843 41.2288 52.7914 41.2262 52.7959 41.2262H55.2843C55.8575 44.4644 58.7117 46.9345 62.1462 46.9345C65.5781 46.9345 68.4109 44.4644 68.9841 41.2279H73.8613C74.527 41.2279 75.0637 40.6935 75.0637 40.0365V27.8272V27.8245C75.0637 27.8245 75.0637 27.8245 75.0637 27.8219C75.0637 27.8192 75.0637 27.8175 75.0637 27.8148V27.813ZM71.7173 26.6313H59.5652V16.7986H65.6662L71.7173 26.6313ZM51.5792 7.37678V38.8416H50.4338C50.4338 38.8416 50.4267 38.8443 50.4222 38.8443H32.5226C32.4985 38.7146 32.4656 38.5903 32.4345 38.4624C32.4158 38.3822 32.3989 38.2975 32.3775 38.2155C32.309 37.9589 32.2253 37.7093 32.1256 37.4641C32.1256 37.4597 32.123 37.4544 32.1212 37.45C32.0215 37.2031 31.9022 36.9624 31.7714 36.7269C31.7314 36.6537 31.6833 36.5832 31.6379 36.5126C31.5427 36.3521 31.443 36.1996 31.3335 36.0488C31.2766 35.9685 31.2143 35.8909 31.1529 35.8133C31.0461 35.6766 30.9321 35.5426 30.8129 35.4156C30.7443 35.3424 30.6776 35.2692 30.6064 35.1986C30.4729 35.0664 30.3305 34.942 30.1881 34.8221C30.1213 34.7656 30.0573 34.7066 29.9887 34.6528C29.7698 34.4852 29.5446 34.3229 29.3017 34.1792C29.0142 34.0046 28.7125 33.8423 28.4535 33.7321C28.32 33.666 28.1705 33.6122 28.0993 33.591C27.9159 33.516 27.7335 33.4543 27.6382 33.4358C27.4958 33.3891 27.3534 33.3511 27.2128 33.3229V25.3862C27.2128 24.7265 26.6735 24.1948 26.0078 24.1948H24.501V10.9536C24.501 10.294 23.9634 9.76221 23.2959 9.76221H17.7085C17.7085 9.76221 17.7014 9.75957 17.6969 9.75957H13.635V7.37678H51.5792ZM14.5615 12.145H16.4937V15.2139H14.5615V12.145ZM8.96249 12.145H12.154V16.4053C12.154 17.0623 12.6916 17.5967 13.3564 17.5967H17.6961C18.3636 17.5967 18.9011 17.0623 18.9011 16.4053V12.145H22.0927V24.193H8.95982V12.145H8.96249ZM16.879 26.5793V31.9155H13.1455V26.5793H16.879ZM5.2236 26.5767H10.7354V33.1069C10.7354 33.7638 11.2747 34.2983 11.9404 34.2983H18.0841C18.7498 34.2983 19.2892 33.7638 19.2892 33.1069V26.5767H24.8036V44.6302H5.22093V26.5767H5.2236ZM27.2128 44.2774V35.8036C27.2297 35.8106 27.2386 35.8133 27.2582 35.8221C27.3009 35.8362 27.3437 35.8459 27.4318 35.8883C27.648 35.9826 27.8545 36.0928 28.0521 36.211C29.4067 37.0285 30.2175 38.458 30.2175 40.0356C30.2175 41.9881 28.9724 43.6575 27.2128 44.2774ZM62.1489 44.5499C59.6293 44.5499 57.5832 42.5243 57.5832 40.033C57.5832 37.5559 59.6293 35.5399 62.1489 35.5399C64.6489 35.5399 66.6817 37.5514 66.6888 40.0242C66.6888 40.0286 66.6861 40.0312 66.6861 40.0356C66.6861 40.0383 66.6888 40.0427 66.6888 40.0454C66.6817 42.5296 64.6489 44.5499 62.1489 44.5499ZM68.9868 38.8443C68.4136 35.6202 65.5692 33.1589 62.1489 33.1589C58.7259 33.1589 55.8628 35.6202 55.287 38.8443H53.9894V16.7986H57.1578V27.8227C57.1578 28.4797 57.6953 29.0141 58.3602 29.0141H72.6616V38.8443H68.9868Z" fill="white"/>
<path d="M22.6452 39.0797H18.084C17.4165 39.0797 16.8789 39.6141 16.8789 40.2711C16.8789 40.9307 17.4165 41.4625 18.084 41.4625H22.6452C23.3127 41.4625 23.8503 40.9299 23.8503 40.2711C23.8503 39.6141 23.3127 39.0797 22.6452 39.0797Z" fill="white"/>
<path d="M22.6452 41.7288H18.084C17.4165 41.7288 16.8789 42.2632 16.8789 42.9202C16.8789 43.5772 17.4165 44.1116 18.084 44.1116H22.6452C23.3127 44.1116 23.8503 43.5772 23.8503 42.9202C23.8503 42.2632 23.3127 41.7288 22.6452 41.7288Z" fill="white"/>
<path d="M47.4458 35.9782C48.1115 35.9782 48.6508 35.4438 48.6508 34.7868V31.4331C48.6508 30.7761 48.1115 30.2417 47.4458 30.2417C46.7801 30.2417 46.2407 30.7761 46.2407 31.4331V34.7868C46.2407 35.4429 46.781 35.9782 47.4458 35.9782Z" fill="white"/>
<path d="M43.7766 35.9782C44.4423 35.9782 44.9817 35.4438 44.9817 34.7868V31.4331C44.9817 30.7761 44.4423 30.2417 43.7766 30.2417C43.1109 30.2417 42.5742 30.7761 42.5742 31.4331V34.7868C42.5742 35.4429 43.1109 35.9782 43.7766 35.9782Z" fill="white"/>
<path d="M40.1042 35.9782C40.7717 35.9782 41.3093 35.4438 41.3093 34.7868V31.4331C41.3093 30.7761 40.7717 30.2417 40.1042 30.2417C39.4385 30.2417 38.9019 30.7761 38.9019 31.4331V34.7868C38.9019 35.4429 39.4385 35.9782 40.1042 35.9782Z" fill="white"/>
<path d="M36.435 35.9782C37.1008 35.9782 37.6374 35.4438 37.6374 34.7868V31.4331C37.6374 30.7761 37.0999 30.2417 36.435 30.2417C35.7675 30.2417 35.23 30.7761 35.23 31.4331V34.7868C35.23 35.4429 35.7667 35.9782 36.435 35.9782Z" fill="white"/>
</svg>
