<svg width="120" height="40" viewBox="0 0 120 40" fill="none" xmlns="http://www.w3.org/2000/svg">
<rect x="0.5" y="0.5" width="119" height="39" rx="5.5" fill="black"/>
<rect x="0.5" y="0.5" width="119" height="39" rx="5.5" stroke="#A6A6A6"/>
<path d="M24.7045 20.7631C24.7166 19.8432 24.9669 18.9413 25.4321 18.1412C25.8972 17.3411 26.5621 16.6688 27.3648 16.187C26.8548 15.476 26.1821 14.8908 25.4 14.478C24.6178 14.0652 23.7479 13.8361 22.8592 13.809C20.9635 13.6147 19.1258 14.9164 18.1598 14.9164C17.1751 14.9164 15.6878 13.8283 14.0862 13.8604C13.0502 13.8931 12.0406 14.1872 11.1557 14.7141C10.2708 15.241 9.54075 15.9827 9.03674 16.8669C6.85352 20.5573 8.48201 25.9809 10.5734 28.964C11.6197 30.4247 12.8426 32.0564 14.4428 31.9985C16.0086 31.9351 16.5934 31.0237 18.4835 31.0237C20.3561 31.0237 20.9048 31.9985 22.5374 31.9617C24.2176 31.9351 25.2762 30.4945 26.2859 29.02C27.0377 27.9792 27.6162 26.8288 28 25.6116C27.0238 25.2085 26.1908 24.5338 25.6048 23.6716C25.0187 22.8094 24.7056 21.7979 24.7045 20.7631Z" fill="white"/>
<path d="M21.6208 11.8471C22.5369 10.7734 22.9883 9.39335 22.879 8C21.4794 8.14352 20.1865 8.7966 19.258 9.82911C18.804 10.3335 18.4563 10.9203 18.2348 11.556C18.0132 12.1917 17.9222 12.8638 17.9669 13.5338C18.6669 13.5408 19.3595 13.3927 19.9924 13.1005C20.6254 12.8084 21.1821 12.3798 21.6208 11.8471Z" fill="white"/>
<path d="M38.9487 15H37.9512V9.854H36.1978V9.00146H40.7065V9.854H38.9487V15ZM42.4424 9.60791L43.4883 8.05225H44.3936L43.1675 9.60791H42.4424ZM42.9521 15.0791C41.6865 15.0791 40.8999 14.3013 40.8999 12.9917V12.3633C40.8999 11.0449 41.7612 10.2759 42.895 10.2759C44.0596 10.2759 44.8813 11.0845 44.8813 12.3633V12.9082H41.8667V13.1367C41.8667 13.8047 42.2622 14.2969 42.9478 14.2969C43.4575 14.2969 43.8091 14.0552 43.875 13.7651H44.8286C44.7715 14.3013 44.2046 15.0791 42.9521 15.0791ZM41.8667 12.271H43.9277V12.2095C43.9277 11.5107 43.519 11.0449 42.8994 11.0449C42.2798 11.0449 41.8667 11.5107 41.8667 12.2095V12.271ZM46.1426 15V8.68506H47.1182V15H46.1426ZM49.9395 9.60791L50.9854 8.05225H51.8906L50.6646 9.60791H49.9395ZM50.4492 15.0791C49.1836 15.0791 48.397 14.3013 48.397 12.9917V12.3633C48.397 11.0449 49.2583 10.2759 50.3921 10.2759C51.5566 10.2759 52.3784 11.0845 52.3784 12.3633V12.9082H49.3638V13.1367C49.3638 13.8047 49.7593 14.2969 50.4448 14.2969C50.9546 14.2969 51.3062 14.0552 51.3721 13.7651H52.3257C52.2686 14.3013 51.7017 15.0791 50.4492 15.0791ZM49.3638 12.271H51.4248V12.2095C51.4248 11.5107 51.0161 11.0449 50.3965 11.0449C49.7769 11.0449 49.3638 11.5107 49.3638 12.2095V12.271ZM53.3892 13.0005V12.3281C53.3892 11.0845 54.1626 10.2759 55.3931 10.2759C56.5796 10.2759 57.2212 11.0054 57.2432 11.7964H56.3203C56.2808 11.502 56.061 11.0889 55.415 11.0889C54.7339 11.0889 54.3691 11.5811 54.3691 12.3501V13.0005C54.3691 13.7827 54.7603 14.2705 55.4194 14.2705C56.0391 14.2705 56.2808 13.9761 56.3467 13.6069H57.2695C57.2432 14.3936 56.6411 15.0791 55.3931 15.0791C54.1538 15.0791 53.3892 14.2837 53.3892 13.0005ZM58.4692 15V8.68506H59.4404V11.1899H59.4888C59.5898 10.8604 59.9678 10.2847 60.8994 10.2847C61.8047 10.2847 62.4507 10.8076 62.4507 11.8667V15H61.4795V12.1523C61.4795 11.4448 61.0884 11.1152 60.5347 11.1152C59.8359 11.1152 59.4404 11.6646 59.4404 12.4204V15H58.4692ZM65.1621 15.0703C64.2612 15.0703 63.6416 14.5166 63.6416 13.6509C63.6416 12.8291 64.2129 12.2754 65.2852 12.2754H66.4585V11.8403C66.4585 11.3086 66.1201 11.0581 65.584 11.0581C65.0566 11.0581 64.8193 11.2778 64.7446 11.5854H63.8174C63.8745 10.8076 64.459 10.2847 65.6147 10.2847C66.6079 10.2847 67.4297 10.6978 67.4297 11.8535V15H66.5024V14.3979H66.4585C66.252 14.7539 65.8477 15.0703 65.1621 15.0703ZM65.4653 14.3145C66.019 14.3145 66.4585 13.9365 66.4585 13.4312V12.9302H65.439C64.8721 12.9302 64.6216 13.2158 64.6216 13.6025C64.6216 14.0859 65.0259 14.3145 65.4653 14.3145ZM68.937 15V10.355H69.9082V11.0801H69.9609C70.062 10.7681 70.4004 10.2891 71.1782 10.2891C71.3101 10.2891 71.4155 10.2979 71.5078 10.3154V11.1768C71.4243 11.1548 71.2529 11.1416 71.0903 11.1416C70.3081 11.1416 69.9258 11.6074 69.9258 12.2358V15H68.937ZM74.2544 15.936C75.0059 15.936 75.3706 15.5361 75.3706 14.8506V14.187H75.3179C75.1421 14.5913 74.6675 14.9121 74.0171 14.9121C72.9932 14.9121 72.2197 14.1826 72.2197 12.9126V12.3018C72.2197 11.0317 72.9888 10.2935 74.0171 10.2935C74.7026 10.2935 75.1948 10.667 75.3486 11.0625H75.397V10.355H76.3418V14.8813C76.3418 16.1821 75.3882 16.7007 74.2236 16.7007C72.9712 16.7007 72.3735 16.0811 72.3208 15.3867H73.2876C73.3491 15.6987 73.7051 15.936 74.2544 15.936ZM74.3203 11.0933C73.6392 11.0933 73.2129 11.6162 73.2129 12.4204V12.8247C73.2129 13.6289 73.6743 14.1475 74.3291 14.1475C74.9971 14.1475 75.3706 13.5938 75.3706 12.9346V12.3237C75.3706 11.6514 74.9751 11.0933 74.3203 11.0933ZM79.6465 15.0791C78.3809 15.0791 77.5942 14.3013 77.5942 12.9917V12.3633C77.5942 11.0449 78.4556 10.2759 79.5894 10.2759C80.7539 10.2759 81.5757 11.0845 81.5757 12.3633V12.9082H78.561V13.1367C78.561 13.8047 78.9565 14.2969 79.6421 14.2969C80.1519 14.2969 80.5034 14.0552 80.5693 13.7651H81.5229C81.4658 14.3013 80.8989 15.0791 79.6465 15.0791ZM78.561 12.271H80.6221V12.2095C80.6221 11.5107 80.2134 11.0449 79.5938 11.0449C78.9741 11.0449 78.561 11.5107 78.561 12.2095V12.271ZM82.8677 15V10.355H83.8389V11.0801H83.8916C83.9927 10.7681 84.3311 10.2891 85.1089 10.2891C85.2407 10.2891 85.3462 10.2979 85.4385 10.3154V11.1768C85.355 11.1548 85.1836 11.1416 85.021 11.1416C84.2388 11.1416 83.8564 11.6074 83.8564 12.2358V15H82.8677ZM90.0264 10.2935C90.6812 10.2935 91.1821 10.5835 91.3623 11.0537H91.4106V8.68506H92.3862V15H91.437V14.2573H91.3887C91.248 14.7275 90.6899 15.0615 90.0132 15.0615C88.9453 15.0615 88.251 14.3013 88.251 13.0752V12.2798C88.251 11.0537 88.9585 10.2935 90.0264 10.2935ZM90.2988 11.0933C89.6484 11.0933 89.2441 11.5767 89.2441 12.4204V12.9302C89.2441 13.7783 89.6528 14.2617 90.3208 14.2617C90.98 14.2617 91.4106 13.7827 91.4106 12.9917V12.2886C91.4106 11.5723 90.9404 11.0933 90.2988 11.0933ZM95.1416 15.0703C94.2407 15.0703 93.6211 14.5166 93.6211 13.6509C93.6211 12.8291 94.1924 12.2754 95.2646 12.2754H96.438V11.8403C96.438 11.3086 96.0996 11.0581 95.5635 11.0581C95.0361 11.0581 94.7988 11.2778 94.7241 11.5854H93.7969C93.854 10.8076 94.4385 10.2847 95.5942 10.2847C96.5874 10.2847 97.4092 10.6978 97.4092 11.8535V15H96.4819V14.3979H96.438C96.2314 14.7539 95.8271 15.0703 95.1416 15.0703ZM95.4448 14.3145C95.9985 14.3145 96.438 13.9365 96.438 13.4312V12.9302H95.4185C94.8516 12.9302 94.6011 13.2158 94.6011 13.6025C94.6011 14.0859 95.0054 14.3145 95.4448 14.3145ZM98.855 15V10.355H99.813V11.1899H99.8613C99.98 10.8252 100.318 10.2847 101.259 10.2847C102.195 10.2847 102.823 10.8032 102.823 11.8623V15H101.848V12.1479C101.848 11.4404 101.479 11.1152 100.929 11.1152C100.208 11.1152 99.8306 11.6689 99.8306 12.4204V15H98.855ZM104.071 11.7085C104.071 10.6978 104.924 10.2759 105.869 10.2759C106.888 10.2759 107.587 10.7856 107.587 11.6074H106.708C106.682 11.3042 106.405 10.9878 105.842 10.9878C105.346 10.9878 105.007 11.2207 105.007 11.6206C105.007 12.1348 105.667 12.2051 106.181 12.293C107.046 12.4424 107.714 12.7192 107.714 13.5981C107.714 14.5342 106.972 15.0791 105.794 15.0791C104.691 15.0791 103.983 14.5825 103.983 13.752H104.933C104.985 14.1255 105.253 14.3672 105.842 14.3672C106.497 14.3672 106.765 14.0728 106.765 13.7124C106.765 13.229 106.233 13.1499 105.609 13.0312C104.761 12.8555 104.071 12.6182 104.071 11.7085Z" fill="white"/>
<path d="M37.2285 31V19.0718H39.0713V31H37.2285ZM42.0378 23.8364H40.6599L41.299 19.6694H43.092L42.0378 23.8364ZM43.7343 31H41.8168L45.7182 19.6694H47.8266L51.7197 31H49.7275L48.7231 27.8623H44.747L43.7343 31ZM46.7807 21.6284H46.706L45.1704 26.418H48.2997L46.7807 21.6284ZM56.9855 31.1245C55.8483 31.1245 54.985 30.585 54.5202 29.7798H54.4538V33.9136H52.611V22.2261H54.404V23.5127H54.4704C54.9518 22.6743 55.8483 22.1099 57.027 22.1099C58.9943 22.1099 60.3971 23.5957 60.3971 26.2188V26.999C60.3971 29.6055 59.0109 31.1245 56.9855 31.1245ZM56.5622 29.6055C57.7326 29.6055 58.5295 28.6675 58.5295 26.8994V26.2852C58.5295 24.5835 57.7824 23.6123 56.529 23.6123C55.2423 23.6123 54.4372 24.6582 54.4372 26.2769V26.8994C54.4372 28.5596 55.2506 29.6055 56.5622 29.6055ZM66.327 31.1245C65.1898 31.1245 64.3265 30.585 63.8617 29.7798H63.7953V33.9136H61.9525V22.2261H63.7455V23.5127H63.8119C64.2933 22.6743 65.1898 22.1099 66.3685 22.1099C68.3358 22.1099 69.7387 23.5957 69.7387 26.2188V26.999C69.7387 29.6055 68.3524 31.1245 66.327 31.1245ZM65.9037 29.6055C67.0741 29.6055 67.871 28.6675 67.871 26.8994V26.2852C67.871 24.5835 67.1239 23.6123 65.8705 23.6123C64.5839 23.6123 63.7787 24.6582 63.7787 26.2769V26.8994C63.7787 28.5596 64.5922 29.6055 65.9037 29.6055ZM73.5052 27.854H75.348C75.431 28.8335 76.2943 29.6719 77.8963 29.6719C79.3655 29.6719 80.2371 28.9829 80.2371 27.9121C80.2371 27.0488 79.6561 26.584 78.4442 26.2935L76.5848 25.8286C75.1238 25.4883 73.8123 24.6167 73.8123 22.7739C73.8123 20.6074 75.7049 19.4204 77.9046 19.4204C80.1043 19.4204 81.9388 20.6074 81.9803 22.7241H80.1707C80.0877 21.7612 79.3489 20.9644 77.8797 20.9644C76.5848 20.9644 75.7049 21.5786 75.7049 22.6328C75.7049 23.3716 76.2196 23.9028 77.2738 24.1436L79.1248 24.6001C80.8265 25.0151 82.1214 25.8203 82.1214 27.7461C82.1214 29.9707 80.3201 31.2241 77.7552 31.2241C74.6009 31.2241 73.5467 29.3813 73.5052 27.854ZM84.3409 22.2261V20.0928H86.1504V22.2261H87.8604V23.7036H86.1504V28.3853C86.1504 29.3398 86.5074 29.6055 87.4952 29.6055C87.6529 29.6055 87.8023 29.6055 87.9102 29.5889V31C87.7608 31.0249 87.4121 31.0581 87.0386 31.0581C84.9053 31.0581 84.316 30.2944 84.316 28.5347V23.7036H83.104V22.2261H84.3409ZM92.8108 22.0767C95.3342 22.0767 96.7039 23.853 96.7039 26.2437V26.9492C96.7039 29.4229 95.3425 31.1494 92.8108 31.1494C90.2791 31.1494 88.9011 29.4229 88.9011 26.9492V26.2437C88.9011 23.8613 90.2874 22.0767 92.8108 22.0767ZM92.8108 23.5542C91.4412 23.5542 90.7605 24.6748 90.7605 26.2686V26.9409C90.7605 28.5098 91.4329 29.6636 92.8108 29.6636C94.1887 29.6636 94.8528 28.5181 94.8528 26.9409V26.2686C94.8528 24.6665 94.1804 23.5542 92.8108 23.5542ZM98.2344 31V22.2261H100.077V23.3799H100.144C100.368 22.832 101.023 22.1016 102.244 22.1016C102.484 22.1016 102.692 22.1182 102.866 22.1514V23.7783C102.708 23.7368 102.385 23.7119 102.078 23.7119C100.6 23.7119 100.102 24.625 100.102 25.8037V31H98.2344ZM107.31 31.1494C104.961 31.1494 103.467 29.5972 103.467 26.999V26.1108C103.467 23.6621 104.928 22.0767 107.236 22.0767C109.576 22.0767 110.988 23.7202 110.988 26.1938V27.0322H105.285V27.2397C105.285 28.7173 106.082 29.6968 107.335 29.6968C108.273 29.6968 108.912 29.2319 109.136 28.4766H110.888C110.622 29.896 109.477 31.1494 107.31 31.1494ZM105.285 25.7456H109.186V25.729C109.186 24.4839 108.414 23.5044 107.244 23.5044C106.057 23.5044 105.285 24.4839 105.285 25.729V25.7456Z" fill="white"/>
</svg>
