<svg width="105" height="33" viewBox="0 0 105 33" fill="none" xmlns="http://www.w3.org/2000/svg">
<g clip-path="url(#clip0_268_301)">
<path d="M53.769 13.3189C54.27 13.3189 54.681 13.1129 55.002 12.7009C55.323 12.2889 55.484 11.7149 55.484 10.9779C55.484 10.2409 55.323 9.67089 55.002 9.26589C54.681 8.86189 54.27 8.65889 53.769 8.65889C53.268 8.65889 52.857 8.86089 52.536 9.26589C52.215 9.66989 52.054 10.2409 52.054 10.9779C52.054 11.7149 52.215 12.2889 52.536 12.7009C52.857 13.1129 53.268 13.3189 53.769 13.3189ZM59.759 0.837891V16.9159H55.618V15.9409C54.989 16.7359 54.026 17.1329 52.729 17.1329C51.804 17.1329 50.954 16.8839 50.177 16.3849C49.4 15.8869 48.784 15.1679 48.328 14.2289C47.872 13.2899 47.644 12.2069 47.644 10.9789C47.644 9.75089 47.872 8.67089 48.328 7.73989C48.784 6.80789 49.4 6.09289 50.177 5.59489C50.954 5.09689 51.805 4.84689 52.729 4.84689C53.898 4.84689 54.79 5.18589 55.406 5.86489V0.837891H59.759ZM46.18 5.06289V16.9159H42.039V15.7889C41.654 16.2369 41.204 16.5729 40.691 16.7969C40.177 17.0209 39.632 17.1329 39.054 17.1329C37.719 17.1329 36.646 16.6739 35.837 15.7569C35.028 14.8399 34.624 13.4569 34.624 11.6069V5.06289H38.977V10.7619C38.977 11.5709 39.093 12.1489 39.324 12.4949C39.555 12.8419 39.895 13.0149 40.345 13.0149C40.769 13.0149 41.122 12.8239 41.404 12.4409C41.687 12.0579 41.828 11.4549 41.828 10.6319V5.06289H46.18ZM27.169 13.3189C27.67 13.3189 28.081 13.1129 28.402 12.7009C28.723 12.2889 28.884 11.7149 28.884 10.9779C28.884 10.2409 28.723 9.67089 28.402 9.26589C28.081 8.86189 27.67 8.65889 27.169 8.65889C26.668 8.65889 26.257 8.86089 25.936 9.26589C25.615 9.66989 25.454 10.2409 25.454 10.9779C25.454 11.7149 25.615 12.2889 25.936 12.7009C26.257 13.1129 26.668 13.3189 27.169 13.3189ZM27.169 17.1329C26 17.1329 24.951 16.8689 24.02 16.3419C23.089 15.8149 22.36 15.0849 21.834 14.1529C21.308 13.2209 21.044 12.1629 21.044 10.9789C21.044 9.79389 21.307 8.73589 21.834 7.80489C22.36 6.87289 23.089 6.14689 24.02 5.62689C24.951 5.10689 26.001 4.84689 27.169 4.84689C28.35 4.84689 29.407 5.10689 30.338 5.62689C31.269 6.14689 31.994 6.87289 32.515 7.80489C33.035 8.73689 33.295 9.79489 33.295 10.9789C33.295 12.1639 33.035 13.2219 32.515 14.1529C31.995 15.0849 31.269 15.8139 30.338 16.3419C29.406 16.8689 28.35 17.1329 27.169 17.1329ZM15.323 0.837891H19.676V16.9159H15.323V0.837891ZM8.10001 17.2629C6.67501 17.2629 5.39101 16.9269 4.24801 16.2549C3.10501 15.5829 2.20901 14.6439 1.56101 13.4379C0.913013 12.2319 0.588013 10.8629 0.588013 9.33189C0.588013 7.80089 0.912013 6.43189 1.56101 5.22589C2.21001 4.01989 3.10501 3.08089 4.24801 2.40889C5.39101 1.73689 6.67501 1.40089 8.10001 1.40089C9.41001 1.40089 10.578 1.66089 11.606 2.18089C12.634 2.70089 13.481 3.45189 14.149 4.43489L11.279 7.31689C10.444 6.13189 9.46201 5.53989 8.33201 5.53989C7.38201 5.53989 6.61801 5.88289 6.04001 6.56889C5.46201 7.25489 5.17301 8.17589 5.17301 9.33189C5.17301 10.4879 5.46201 11.4089 6.04001 12.0949C6.61801 12.7809 7.38201 13.1239 8.33201 13.1239C9.46201 13.1239 10.444 12.5319 11.279 11.3469L14.149 14.2289C13.481 15.2109 12.634 15.9619 11.606 16.4829C10.578 17.0039 9.41001 17.2629 8.10001 17.2629Z" fill="#00B6F0"/>
<path fill-rule="evenodd" clip-rule="evenodd" d="M67.1271 5.6048V8.2048H72.7521V12.0618H67.1271V16.9158H62.5811V1.7478H73.5411V5.6048H67.1271Z" fill="#E6F5FC"/>
<path fill-rule="evenodd" clip-rule="evenodd" d="M78.992 6.3418C79.762 5.3448 80.899 4.8468 82.401 4.8468V9.1808C82.054 9.1228 81.733 9.0938 81.438 9.0938C79.948 9.0938 79.204 9.9458 79.204 11.6508V16.9158H74.851V5.0628H78.992V6.3418Z" fill="#E6F5FC"/>
<path d="M89.085 8.1838C88.636 8.1838 88.263 8.3208 87.968 8.5958C87.673 8.8708 87.48 9.2598 87.39 9.7658H90.78C90.69 9.2748 90.497 8.8878 90.202 8.6068C89.907 8.3258 89.535 8.1838 89.085 8.1838ZM94.844 10.9788C94.844 11.0508 94.825 11.4338 94.786 12.1268H87.467C87.621 12.5748 87.878 12.9178 88.237 13.1558C88.596 13.3938 89.046 13.5138 89.585 13.5138C90.047 13.5138 90.436 13.4488 90.75 13.3188C91.064 13.1888 91.408 12.9648 91.78 12.6468L94.053 15.2258C93.026 16.4968 91.491 17.1328 89.45 17.1328C88.179 17.1328 87.062 16.8688 86.099 16.3418C85.136 15.8148 84.391 15.0818 83.865 14.1428C83.339 13.2038 83.075 12.1498 83.075 10.9788C83.075 9.7938 83.335 8.7358 83.855 7.8048C84.375 6.8728 85.088 6.1468 85.993 5.6268C86.898 5.1068 87.916 4.8468 89.046 4.8468C90.112 4.8468 91.084 5.0848 91.964 5.5618C92.844 6.0388 93.543 6.7388 94.063 7.6638C94.584 8.5878 94.844 9.6928 94.844 10.9788Z" fill="#E6F5FC"/>
<path fill-rule="evenodd" clip-rule="evenodd" d="M103.974 16.5038C103.319 16.9228 102.427 17.1319 101.297 17.1319C99.82 17.1319 98.684 16.7309 97.888 15.9289C97.092 15.1269 96.694 13.9249 96.694 12.3209V9.28685H95.249V5.71185H96.694V2.39685H101.047V5.71185H103.204V9.28685H101.047V12.2769C101.047 12.6379 101.13 12.9199 101.297 13.1219C101.464 13.3239 101.682 13.4249 101.952 13.4249C102.324 13.4249 102.652 13.3169 102.934 13.0999L103.974 16.5038Z" fill="#E6F5FC"/>
<path d="M0.588013 22.8989H3.05201V29.3009H4.55901V22.8989H7.02301V21.5679H0.588013V22.8989Z" fill="white"/>
<path d="M10.502 23.8779C9.90804 23.8779 9.45304 24.0689 9.13804 24.4499C9.13304 24.4549 9.13104 24.4639 9.12704 24.4689V23.9879H7.68604V29.3009H9.12704V26.3639C9.12704 25.9679 9.22204 25.6749 9.41304 25.4839C9.61104 25.2859 9.86404 25.1869 10.172 25.1869C10.319 25.1869 10.447 25.2089 10.557 25.2529C10.674 25.2969 10.773 25.3629 10.854 25.4509L11.756 24.4169C11.587 24.2259 11.4 24.0909 11.195 24.0099C10.99 23.9219 10.759 23.8779 10.502 23.8779Z" fill="white"/>
<path d="M16.754 24.5209C16.607 24.3579 16.442 24.2129 16.237 24.1089C15.936 23.9549 15.595 23.8779 15.214 23.8779C14.73 23.8779 14.294 23.9989 13.905 24.2409C13.516 24.4829 13.212 24.8129 12.992 25.2309C12.772 25.6489 12.662 26.1219 12.662 26.6499C12.662 27.1709 12.772 27.6399 12.992 28.0579C13.212 28.4759 13.516 28.8059 13.905 29.0479C14.294 29.2899 14.73 29.4109 15.214 29.4109C15.595 29.4109 15.936 29.3339 16.237 29.1799C16.442 29.0699 16.607 28.9249 16.754 28.7639V29.3009H18.184V23.9879H16.754V24.5209ZM16.457 27.6839C16.208 27.9479 15.881 28.0799 15.478 28.0799C15.214 28.0799 14.979 28.0209 14.774 27.9039C14.576 27.7789 14.418 27.6109 14.301 27.3979C14.191 27.1779 14.136 26.9249 14.136 26.6389C14.136 26.3599 14.191 26.1149 14.301 25.9019C14.418 25.6819 14.576 25.5129 14.774 25.3959C14.979 25.2709 15.214 25.2089 15.478 25.2089C15.749 25.2089 15.984 25.2709 16.182 25.3959C16.387 25.5129 16.545 25.6819 16.655 25.9019C16.772 26.1149 16.831 26.3599 16.831 26.6389C16.831 27.0639 16.706 27.4129 16.457 27.6839Z" fill="white"/>
<path d="M24.365 24.1749C24.057 23.9769 23.709 23.8779 23.32 23.8779C22.917 23.8779 22.554 23.9659 22.231 24.1419C22.06 24.2369 21.912 24.3579 21.78 24.4939V23.9879H20.339V29.3009H21.78V26.2539C21.78 26.0409 21.824 25.8539 21.912 25.6929C22.007 25.5319 22.136 25.4069 22.297 25.3189C22.458 25.2309 22.642 25.1869 22.847 25.1869C23.162 25.1869 23.419 25.2859 23.617 25.4839C23.815 25.6819 23.914 25.9389 23.914 26.2539V29.3009H25.355V25.9349C25.355 25.5759 25.267 25.2419 25.091 24.9339C24.915 24.6189 24.673 24.3659 24.365 24.1749Z" fill="white"/>
<path d="M28.815 25.187C28.932 25.121 29.097 25.088 29.31 25.088C29.545 25.088 29.761 25.132 29.959 25.22C30.164 25.308 30.348 25.451 30.509 25.649L31.378 24.78C31.143 24.472 30.846 24.241 30.487 24.087C30.135 23.933 29.739 23.856 29.299 23.856C28.881 23.856 28.518 23.926 28.21 24.065C27.902 24.204 27.664 24.399 27.495 24.648C27.334 24.897 27.253 25.191 27.253 25.528C27.253 25.851 27.315 26.115 27.44 26.32C27.572 26.518 27.741 26.676 27.946 26.793C28.151 26.903 28.364 26.995 28.584 27.068C28.811 27.134 29.028 27.196 29.233 27.255C29.438 27.306 29.603 27.372 29.728 27.453C29.86 27.534 29.926 27.647 29.926 27.794C29.926 27.926 29.864 28.025 29.739 28.091C29.622 28.157 29.446 28.19 29.211 28.19C28.918 28.19 28.65 28.139 28.408 28.036C28.166 27.933 27.953 27.779 27.77 27.574L26.912 28.443C27.088 28.648 27.297 28.824 27.539 28.971C27.781 29.11 28.045 29.22 28.331 29.301C28.624 29.382 28.921 29.422 29.222 29.422C29.867 29.422 30.377 29.272 30.751 28.971C31.125 28.663 31.312 28.249 31.312 27.728C31.312 27.405 31.246 27.141 31.114 26.936C30.989 26.731 30.824 26.566 30.619 26.441C30.421 26.316 30.208 26.221 29.981 26.155C29.761 26.082 29.548 26.019 29.343 25.968C29.138 25.909 28.969 25.843 28.837 25.77C28.712 25.697 28.65 25.594 28.65 25.462C28.65 25.345 28.705 25.253 28.815 25.187Z" fill="white"/>
<path d="M37.431 24.2409C37.042 23.9989 36.602 23.8779 36.111 23.8779C35.73 23.8779 35.385 23.9589 35.077 24.1199C34.898 24.2159 34.744 24.3399 34.604 24.4779V23.9879H33.163V31.5229H34.593V28.8189C34.734 28.9569 34.89 29.0819 35.077 29.1799C35.385 29.3339 35.73 29.4109 36.111 29.4109C36.602 29.4109 37.042 29.2899 37.431 29.0479C37.82 28.8059 38.124 28.4759 38.344 28.0579C38.571 27.6399 38.685 27.1709 38.685 26.6499C38.685 26.1219 38.571 25.6489 38.344 25.2309C38.124 24.8129 37.82 24.4829 37.431 24.2409ZM37.035 27.3979C36.925 27.6109 36.767 27.7789 36.562 27.9039C36.357 28.0209 36.122 28.0799 35.858 28.0799C35.594 28.0799 35.359 28.0209 35.154 27.9039C34.956 27.7789 34.798 27.6109 34.681 27.3979C34.571 27.1779 34.516 26.9249 34.516 26.6389C34.516 26.3599 34.571 26.1149 34.681 25.9019C34.798 25.6819 34.96 25.5129 35.165 25.3959C35.37 25.2709 35.601 25.2089 35.858 25.2089C36.122 25.2089 36.357 25.2709 36.562 25.3959C36.767 25.5129 36.925 25.6819 37.035 25.9019C37.152 26.1149 37.211 26.3599 37.211 26.6389C37.211 26.9249 37.153 27.1779 37.035 27.3979Z" fill="white"/>
<path d="M44.448 24.2409C44.023 23.9919 43.539 23.8669 42.996 23.8669C42.468 23.8669 41.988 23.9919 41.555 24.2409C41.122 24.4829 40.781 24.8129 40.532 25.2309C40.283 25.6419 40.158 26.1069 40.158 26.6279C40.158 27.1489 40.283 27.6219 40.532 28.0469C40.789 28.4649 41.13 28.7989 41.555 29.0479C41.988 29.2899 42.472 29.4109 43.007 29.4109C43.542 29.4109 44.023 29.2899 44.448 29.0479C44.881 28.7989 45.222 28.4649 45.471 28.0469C45.72 27.6219 45.845 27.1489 45.845 26.6279C45.845 26.1069 45.72 25.6419 45.471 25.2309C45.222 24.8129 44.881 24.4829 44.448 24.2409ZM44.195 27.3869C44.085 27.5999 43.924 27.7679 43.711 27.8929C43.506 28.0099 43.267 28.0689 42.996 28.0689C42.732 28.0689 42.497 28.0099 42.292 27.8929C42.087 27.7679 41.925 27.5999 41.808 27.3869C41.691 27.1669 41.632 26.9179 41.632 26.6389C41.632 26.3599 41.691 26.1149 41.808 25.9019C41.925 25.6889 42.087 25.5239 42.292 25.4069C42.497 25.2819 42.732 25.2199 42.996 25.2199C43.267 25.2199 43.506 25.2819 43.711 25.4069C43.916 25.5239 44.078 25.6889 44.195 25.9019C44.312 26.1149 44.371 26.3599 44.371 26.6389C44.371 26.9179 44.312 27.1669 44.195 27.3869Z" fill="white"/>
<path d="M50.469 23.8779C49.875 23.8779 49.42 24.0689 49.105 24.4499C49.1 24.4549 49.099 24.4639 49.094 24.4689V23.9879H47.653V29.3009H49.094V26.3639C49.094 25.9679 49.189 25.6749 49.38 25.4839C49.578 25.2859 49.831 25.1869 50.139 25.1869C50.286 25.1869 50.414 25.2089 50.524 25.2529C50.641 25.2969 50.74 25.3629 50.821 25.4509L51.723 24.4169C51.554 24.2259 51.367 24.0909 51.162 24.0099C50.956 23.9219 50.725 23.8779 50.469 23.8779Z" fill="white"/>
<path d="M55.363 21.7769H53.922V23.9879H52.679V25.2529H53.922V29.3009H55.363V25.2529H56.606V23.9879H55.363V21.7769Z" fill="white"/>
<path d="M65.076 24.4659C64.935 24.3269 64.779 24.2019 64.592 24.1089C64.291 23.9549 63.95 23.8779 63.569 23.8779C63.07 23.8779 62.627 23.9989 62.238 24.2409C61.857 24.4829 61.552 24.8129 61.325 25.2309C61.105 25.6489 60.995 26.1219 60.995 26.6499C60.995 27.1709 61.105 27.6399 61.325 28.0579C61.552 28.4759 61.86 28.8059 62.249 29.0479C62.638 29.2899 63.078 29.4109 63.569 29.4109C63.95 29.4109 64.295 29.3299 64.603 29.1689C64.79 29.0709 64.946 28.9439 65.087 28.8029V29.3009H66.517V21.3479H65.076V24.4659ZM64.988 27.3979C64.878 27.6109 64.72 27.7789 64.515 27.9039C64.317 28.0209 64.082 28.0799 63.811 28.0799C63.554 28.0799 63.323 28.0209 63.118 27.9039C62.913 27.7789 62.751 27.6109 62.634 27.3979C62.524 27.1779 62.469 26.9249 62.469 26.6389C62.469 26.3599 62.524 26.1149 62.634 25.9019C62.751 25.6889 62.909 25.5209 63.107 25.3959C63.312 25.2709 63.551 25.2089 63.822 25.2089C64.086 25.2089 64.317 25.2709 64.515 25.3959C64.72 25.5129 64.878 25.6819 64.988 25.9019C65.105 26.1149 65.164 26.3599 65.164 26.6389C65.164 26.9249 65.105 27.1779 64.988 27.3979Z" fill="white"/>
<path d="M71.8951 27.0349C71.8951 27.3649 71.8111 27.6219 71.6421 27.8049C71.4731 27.9879 71.2391 28.0799 70.9381 28.0799C70.7401 28.0799 70.5681 28.0399 70.4211 27.9589C70.2741 27.8779 70.1641 27.7609 70.0911 27.6069C70.0181 27.4459 69.9811 27.2549 69.9811 27.0349V23.9879H68.5291V27.0679C68.5291 27.5299 68.6321 27.9369 68.8371 28.2889C69.0421 28.6409 69.3251 28.9159 69.6841 29.1139C70.0511 29.3119 70.4691 29.4109 70.9381 29.4109C71.4071 29.4109 71.8221 29.3159 72.1811 29.1249C72.5481 28.9269 72.8301 28.6519 73.0281 28.2999C73.2331 27.9479 73.3361 27.5369 73.3361 27.0679V23.9879H71.8951V27.0349Z" fill="white"/>
<path d="M78.179 23.8779C77.585 23.8779 77.13 24.0689 76.815 24.4499C76.81 24.4549 76.808 24.4639 76.804 24.4689V23.9879H75.363V29.3009H76.804V26.3639C76.804 25.9679 76.899 25.6749 77.09 25.4839C77.288 25.2859 77.541 25.1869 77.849 25.1869C77.996 25.1869 78.124 25.2089 78.234 25.2529C78.351 25.2969 78.45 25.3629 78.531 25.4509L79.433 24.4169C79.264 24.2259 79.077 24.0909 78.872 24.0099C78.667 23.9219 78.436 23.8779 78.179 23.8779Z" fill="white"/>
<path d="M84.431 24.5209C84.284 24.3579 84.119 24.2129 83.914 24.1089C83.613 23.9549 83.272 23.8779 82.891 23.8779C82.407 23.8779 81.971 23.9989 81.582 24.2409C81.193 24.4829 80.889 24.8129 80.669 25.2309C80.449 25.6489 80.339 26.1219 80.339 26.6499C80.339 27.1709 80.449 27.6399 80.669 28.0579C80.889 28.4759 81.193 28.8059 81.582 29.0479C81.971 29.2899 82.407 29.4109 82.891 29.4109C83.272 29.4109 83.613 29.3339 83.914 29.1799C84.119 29.0699 84.284 28.9249 84.431 28.7639V29.3009H85.861V23.9879H84.431V24.5209ZM84.134 27.6839C83.885 27.9479 83.558 28.0799 83.155 28.0799C82.891 28.0799 82.656 28.0209 82.451 27.9039C82.253 27.7789 82.095 27.6109 81.978 27.3979C81.868 27.1779 81.813 26.9249 81.813 26.6389C81.813 26.3599 81.868 26.1149 81.978 25.9019C82.095 25.6819 82.253 25.5129 82.451 25.3959C82.656 25.2709 82.891 25.2089 83.155 25.2089C83.426 25.2089 83.661 25.2709 83.859 25.3959C84.064 25.5129 84.222 25.6819 84.332 25.9019C84.449 26.1149 84.508 26.3599 84.508 26.6389C84.508 27.0639 84.383 27.4129 84.134 27.6839Z" fill="white"/>
<path d="M92.284 24.2409C91.895 23.9989 91.455 23.8779 90.964 23.8779C90.59 23.8779 90.249 23.9549 89.941 24.1089C89.756 24.2009 89.6 24.3239 89.457 24.4609V21.3479H88.016V29.3009H89.446V28.8029C89.587 28.9439 89.743 29.0709 89.93 29.1689C90.238 29.3299 90.583 29.4109 90.964 29.4109C91.455 29.4109 91.895 29.2899 92.284 29.0479C92.673 28.8059 92.977 28.4759 93.197 28.0579C93.424 27.6399 93.538 27.1709 93.538 26.6499C93.538 26.1219 93.424 25.6489 93.197 25.2309C92.977 24.8129 92.673 24.4829 92.284 24.2409ZM91.888 27.3979C91.778 27.6109 91.62 27.7789 91.415 27.9039C91.217 28.0209 90.986 28.0799 90.722 28.0799C90.458 28.0799 90.223 28.0209 90.018 27.9039C89.813 27.7789 89.651 27.6109 89.534 27.3979C89.424 27.1779 89.369 26.9249 89.369 26.6389C89.369 26.3599 89.424 26.1149 89.534 25.9019C89.651 25.6819 89.809 25.5129 90.007 25.3959C90.212 25.2709 90.447 25.2089 90.711 25.2089C90.975 25.2089 91.21 25.2709 91.415 25.3959C91.62 25.5129 91.778 25.6819 91.888 25.9019C92.005 26.1149 92.064 26.3599 92.064 26.6389C92.064 26.9249 92.005 27.1779 91.888 27.3979Z" fill="white"/>
<path d="M96.804 21.3479H95.363V29.3009H96.804V21.3479Z" fill="white"/>
<path d="M103.679 25.1649C103.459 24.7619 103.151 24.4459 102.755 24.2189C102.366 23.9839 101.915 23.8669 101.402 23.8669C100.881 23.8669 100.408 23.9919 99.983 24.2409C99.558 24.4829 99.22 24.8129 98.971 25.2309C98.729 25.6419 98.608 26.1109 98.608 26.6389C98.608 27.1739 98.733 27.6509 98.982 28.0689C99.239 28.4869 99.583 28.8169 100.016 29.0589C100.449 29.2939 100.944 29.4109 101.501 29.4109C101.934 29.4109 102.333 29.3339 102.7 29.1799C103.074 29.0259 103.389 28.7989 103.646 28.4979L102.799 27.6509C102.638 27.8339 102.447 27.9739 102.227 28.0689C102.007 28.1569 101.761 28.2009 101.49 28.2009C101.189 28.2009 100.925 28.1389 100.698 28.0139C100.471 27.8819 100.295 27.6989 100.17 27.4639C100.124 27.3689 100.094 27.2619 100.066 27.1539L103.943 27.1439C103.972 27.0189 103.991 26.9089 103.998 26.8139C104.013 26.7109 104.02 26.6119 104.02 26.5169C104.021 26.0119 103.907 25.5609 103.679 25.1649ZM100.654 25.2639C100.867 25.1319 101.116 25.0659 101.402 25.0659C101.673 25.0659 101.901 25.1249 102.084 25.2419C102.275 25.3519 102.418 25.5129 102.513 25.7259C102.562 25.8279 102.6 25.9429 102.629 26.0689L100.069 26.0759C100.095 25.9809 100.119 25.8859 100.159 25.8029C100.277 25.5679 100.442 25.3889 100.654 25.2639Z" fill="white"/>
</g>
<defs>
<clipPath id="clip0_268_301">
<rect width="105" height="32" fill="white" transform="translate(0 0.224976)"/>
</clipPath>
</defs>
</svg>
