<svg width="168" height="49" viewBox="0 0 168 49" fill="none" xmlns="http://www.w3.org/2000/svg">
<path d="M14.1509 26.5684C11.8453 26.5684 9.76828 26.0251 7.91967 24.9386C6.07106 23.852 4.62232 22.3331 3.57339 20.382C2.52446 18.4308 2 16.2168 2 13.7399C2 11.2629 2.52446 9.04893 3.57339 7.09776C4.62232 5.1466 6.07106 3.62775 7.91967 2.54117C9.76828 1.4546 11.8453 0.911318 14.1509 0.911318C16.2695 0.911318 18.1597 1.33192 19.8213 2.17314C21.483 3.01436 22.8539 4.22944 23.9339 5.81841L19.2917 10.4802C17.9416 8.56404 16.3526 7.606 14.5248 7.606C12.9877 7.606 11.7519 8.16096 10.8172 9.27091C9.88251 10.3809 9.41517 11.8705 9.41517 13.7399C9.41517 15.6093 9.88251 17.0989 10.8172 18.2088C11.7519 19.3188 12.9877 19.8737 14.5248 19.8737C16.3526 19.8737 17.9416 18.9157 19.2917 16.9996L23.9339 21.6613C22.8539 23.2503 21.483 24.4654 19.8213 25.3066C18.1597 26.1478 16.2695 26.5684 14.1509 26.5684ZM25.8345 0L32.8758 0V26.0076H25.8345V0ZM44.9955 26.3581C43.1054 26.3581 41.4074 25.9317 39.9015 25.0788C38.3956 24.2259 37.2169 23.0458 36.3653 21.5386C35.5137 20.0315 35.0879 18.3198 35.0879 16.4037C35.0879 14.4876 35.5137 12.776 36.3653 11.2688C37.2169 9.76161 38.3956 8.58742 39.9015 7.7462C41.4074 6.90498 43.1054 6.48438 44.9955 6.48438C46.9064 6.48438 48.6148 6.90498 50.1207 7.7462C51.6266 8.58742 52.8001 9.76161 53.6414 11.2688C54.4826 12.776 54.9032 14.4876 54.9032 16.4037C54.9032 18.3198 54.4826 20.0315 53.6414 21.5386C52.8001 23.0458 51.6266 24.2259 50.1207 25.0788C48.6148 25.9317 46.9064 26.3581 44.9955 26.3581ZM44.9955 20.1892C45.8056 20.1892 46.4702 19.8562 46.9895 19.1903C47.5088 18.5243 47.7684 17.5955 47.7684 16.4037C47.7684 15.212 47.5088 14.289 46.9895 13.6347C46.4702 12.9804 45.8056 12.6533 44.9955 12.6533C44.1855 12.6533 43.5208 12.9804 43.0015 13.6347C42.4823 14.289 42.2226 15.212 42.2226 16.4037C42.2226 17.5955 42.4823 18.5243 43.0015 19.1903C43.5208 19.8562 44.1855 20.1892 44.9955 20.1892ZM75.7467 6.83488V26.0076H69.0481V24.185C68.425 24.9094 67.698 25.4526 66.8672 25.8148C66.0363 26.177 65.1536 26.3581 64.2189 26.3581C62.0587 26.3581 60.3244 25.6162 59.0158 24.1324C57.7072 22.6486 57.053 20.4112 57.053 17.4202V6.83488H64.0943V16.0532C64.0943 17.3618 64.2812 18.2965 64.6551 18.8573C65.0289 19.4181 65.5794 19.6985 66.3064 19.6985C66.9918 19.6985 67.563 19.3889 68.0199 18.7696C68.4769 18.1504 68.7054 17.1748 68.7054 15.8429V6.83488H75.7467ZM97.7118 0V26.0076H91.0132V24.4303C89.9954 25.7155 88.4376 26.3581 86.3398 26.3581C84.8443 26.3581 83.4682 25.955 82.2116 25.1489C80.9549 24.3427 79.9579 23.1802 79.2206 21.6613C78.4832 20.1425 78.1145 18.3899 78.1145 16.4037C78.1145 14.4175 78.4832 12.6708 79.2206 11.1636C79.9579 9.65646 80.9549 8.4998 82.2116 7.69363C83.4682 6.88746 84.8443 6.48438 86.3398 6.48438C88.2299 6.48438 89.6735 7.0335 90.6705 8.13176V0L97.7118 0ZM88.0222 20.1892C88.8323 20.1892 89.4969 19.8562 90.0162 19.1903C90.5355 18.5243 90.7951 17.5955 90.7951 16.4037C90.7951 15.212 90.5355 14.289 90.0162 13.6347C89.4969 12.9804 88.8323 12.6533 88.0222 12.6533C87.2121 12.6533 86.5475 12.9804 86.0282 13.6347C85.5089 14.289 85.2493 15.212 85.2493 16.4037C85.2493 17.5955 85.5089 18.5243 86.0282 19.1903C86.5475 19.8562 87.2121 20.1892 88.0222 20.1892Z" fill="#00B6F0"/>
<path fill-rule="evenodd" clip-rule="evenodd" d="M108.398 7.71119V11.9173H117.496V18.1563H108.398V26.0077H101.045V1.47217L118.773 1.47217V7.71119H108.398Z" fill="#005494"/>
<path fill-rule="evenodd" clip-rule="evenodd" d="M127.591 8.90287C128.837 7.29053 130.675 6.48438 133.105 6.48438V13.4945C132.544 13.401 132.025 13.3543 131.547 13.3543C129.138 13.3543 127.933 14.733 127.933 17.4903V26.0076H120.892V6.83488H127.591V8.90287Z" fill="#005494"/>
<path d="M153.232 16.4037C153.232 16.5206 153.201 17.1398 153.139 18.2614H141.299C141.549 18.9858 141.964 19.5408 142.545 19.9263C143.127 20.3119 143.854 20.5047 144.726 20.5047C145.474 20.5047 146.102 20.3995 146.611 20.1892C147.12 19.9789 147.676 19.6167 148.278 19.1026L151.955 23.2737C150.293 25.33 147.811 26.3581 144.508 26.3581C142.452 26.3581 140.645 25.9317 139.087 25.0788C137.529 24.2259 136.325 23.04 135.473 21.5211C134.621 20.0023 134.196 18.2965 134.196 16.4037C134.196 14.4876 134.616 12.776 135.457 11.2688C136.299 9.76161 137.451 8.58742 138.916 7.7462C140.38 6.90498 142.026 6.48438 143.854 6.48438C145.578 6.48438 147.151 6.86993 148.574 7.64105C149.997 8.41217 151.129 9.54546 151.97 11.041C152.811 12.5365 153.232 14.324 153.232 16.4037ZM143.916 11.8822C143.189 11.8822 142.587 12.1042 142.109 12.5481C141.632 12.9921 141.32 13.623 141.175 14.4409H146.658C146.513 13.6464 146.201 13.0213 145.723 12.5657C145.246 12.11 144.643 11.8822 143.916 11.8822Z" fill="#005494"/>
<path fill-rule="evenodd" clip-rule="evenodd" d="M168 25.3417C166.941 26.0193 165.497 26.3581 163.669 26.3581C161.281 26.3581 159.442 25.7097 158.155 24.4128C156.867 23.116 156.223 21.1707 156.223 18.5769V13.6698H153.886V7.88644H156.223V2.52368H163.264V7.88644H166.754V13.6698H163.264V18.5068C163.264 19.091 163.399 19.5466 163.669 19.8738C163.939 20.2009 164.292 20.3645 164.729 20.3645C165.331 20.3645 165.861 20.1892 166.318 19.8387L168 25.3417Z" fill="#005494"/>
<path d="M3.25141 44.2888V35.1954H5.06215V44.2888H3.25141ZM0.290776 36.5965V34.9972H8.02278V36.5965H0.290776ZM11.4632 44.2888V37.905H13.1946V44.2888H11.4632ZM13.1946 40.7599L12.5205 40.3105C12.5998 39.5263 12.8289 38.9095 13.2078 38.4601C13.5867 38.0019 14.133 37.7728 14.8467 37.7728C15.1551 37.7728 15.4327 37.8257 15.6794 37.9314C15.9261 38.0283 16.1508 38.1913 16.3535 38.4204L15.2697 39.6628C15.1728 39.5571 15.0538 39.4778 14.9128 39.4249C14.7806 39.3721 14.6264 39.3456 14.4502 39.3456C14.0801 39.3456 13.7761 39.4646 13.5382 39.7025C13.3091 39.9316 13.1946 40.284 13.1946 40.7599ZM23.1516 44.421C22.5701 44.421 22.0458 44.2756 21.5788 43.9848C21.1118 43.694 20.7461 43.2975 20.4818 42.7953C20.2174 42.293 20.0853 41.7291 20.0853 41.1035C20.0853 40.4691 20.2174 39.9007 20.4818 39.3985C20.7461 38.8962 21.1118 38.4997 21.5788 38.2089C22.0458 37.9182 22.5701 37.7728 23.1516 37.7728C23.6098 37.7728 24.0195 37.8653 24.3808 38.0503C24.7421 38.2354 25.0284 38.4953 25.2399 38.8302C25.4602 39.1562 25.5792 39.5263 25.5968 39.9404V42.2402C25.5792 42.6631 25.4602 43.0376 25.2399 43.3636C25.0284 43.6896 24.7421 43.9496 24.3808 44.1434C24.0195 44.3285 23.6098 44.421 23.1516 44.421ZM23.4688 42.8217C23.9535 42.8217 24.3456 42.6631 24.6452 42.3459C24.9447 42.0199 25.0945 41.6013 25.0945 41.0903C25.0945 40.7554 25.024 40.4603 24.8831 40.2047C24.7509 39.9404 24.5614 39.7377 24.3147 39.5967C24.0768 39.447 23.7949 39.3721 23.4688 39.3721C23.1516 39.3721 22.8697 39.447 22.6229 39.5967C22.385 39.7377 22.1956 39.9404 22.0546 40.2047C21.9224 40.4603 21.8563 40.7554 21.8563 41.0903C21.8563 41.4339 21.9224 41.7379 22.0546 42.0023C22.1956 42.2578 22.385 42.4605 22.6229 42.6102C22.8697 42.7512 23.1516 42.8217 23.4688 42.8217ZM25.002 44.2888V42.5706L25.2796 41.011L25.002 39.4778V37.905H26.7202V44.2888H25.002ZM36.2483 44.2888V40.6277C36.2483 40.2488 36.1294 39.9404 35.8915 39.7025C35.6536 39.4646 35.3452 39.3456 34.9663 39.3456C34.7195 39.3456 34.4993 39.3985 34.3054 39.5042C34.1116 39.61 33.9574 39.7598 33.8428 39.9536C33.7371 40.1475 33.6842 40.3721 33.6842 40.6277L33.0101 40.284C33.0101 39.7818 33.1159 39.3456 33.3273 38.9755C33.5476 38.5967 33.8472 38.3015 34.2261 38.09C34.6138 37.8785 35.05 37.7728 35.5346 37.7728C36.0016 37.7728 36.4201 37.8917 36.7902 38.1296C37.1603 38.3587 37.4511 38.6627 37.6626 39.0416C37.874 39.4117 37.9798 39.8126 37.9798 40.2444V44.2888H36.2483ZM31.9528 44.2888V37.905H33.6842V44.2888H31.9528ZM45.2693 44.4342C44.908 44.4342 44.5512 44.3857 44.1987 44.2888C43.8551 44.1919 43.5379 44.0597 43.2471 43.8923C42.9563 43.7161 42.7052 43.5046 42.4937 43.2579L43.5247 42.2137C43.7449 42.4605 44.0005 42.6455 44.2912 42.7689C44.582 42.8922 44.9036 42.9539 45.2561 42.9539C45.5381 42.9539 45.7495 42.9142 45.8905 42.8349C46.0403 42.7556 46.1152 42.6367 46.1152 42.4781C46.1152 42.3018 46.0359 42.1653 45.8773 42.0683C45.7275 41.9714 45.5292 41.8921 45.2825 41.8304C45.0358 41.7599 44.7759 41.685 44.5027 41.6057C44.2384 41.5176 43.9828 41.4075 43.7361 41.2753C43.4894 41.1343 43.2867 40.9449 43.1281 40.707C42.9783 40.4603 42.9034 40.1431 42.9034 39.7554C42.9034 39.35 43.0004 38.9976 43.1942 38.698C43.3969 38.3984 43.6833 38.1649 44.0533 37.9975C44.4234 37.8301 44.8596 37.7464 45.3618 37.7464C45.8905 37.7464 46.3663 37.8389 46.7893 38.0239C47.221 38.2089 47.5779 38.4865 47.8599 38.8566L46.8157 39.9007C46.6219 39.6628 46.4016 39.491 46.1549 39.3853C45.9169 39.2795 45.657 39.2267 45.375 39.2267C45.1195 39.2267 44.9213 39.2663 44.7803 39.3456C44.6481 39.4249 44.582 39.5351 44.582 39.676C44.582 39.8347 44.6569 39.958 44.8067 40.0461C44.9653 40.1342 45.168 40.2135 45.4147 40.284C45.6614 40.3457 45.9169 40.4206 46.1813 40.5087C46.4544 40.588 46.71 40.7026 46.9479 40.8524C47.1946 41.0022 47.3929 41.2004 47.5427 41.4471C47.7013 41.6939 47.7806 42.0111 47.7806 42.3988C47.7806 43.0244 47.5559 43.5222 47.1065 43.8923C46.6571 44.2536 46.0447 44.4342 45.2693 44.4342ZM56.1911 44.421C55.7329 44.421 55.3187 44.3285 54.9487 44.1434C54.5786 43.9496 54.2834 43.6896 54.0631 43.3636C53.8428 43.0376 53.7239 42.6631 53.7063 42.2402V39.98C53.7239 39.5571 53.8428 39.1826 54.0631 38.8566C54.2922 38.5218 54.5874 38.2574 54.9487 38.0636C55.3187 37.8697 55.7329 37.7728 56.1911 37.7728C56.7814 37.7728 57.3101 37.9182 57.7771 38.2089C58.2441 38.4997 58.6098 38.8962 58.8742 39.3985C59.1473 39.9007 59.2839 40.4691 59.2839 41.1035C59.2839 41.7291 59.1473 42.293 58.8742 42.7953C58.6098 43.2975 58.2441 43.694 57.7771 43.9848C57.3101 44.2756 56.7814 44.421 56.1911 44.421ZM52.6489 46.9587V37.905H54.3803V39.5835L54.0896 41.1299L54.3671 42.6763V46.9587H52.6489ZM55.8871 42.8217C56.2043 42.8217 56.4863 42.7512 56.733 42.6102C56.9797 42.4605 57.1691 42.2578 57.3013 42.0023C57.4423 41.7379 57.5128 41.4339 57.5128 41.0903C57.5128 40.7554 57.4423 40.4603 57.3013 40.2047C57.1691 39.9404 56.9797 39.7377 56.733 39.5967C56.4863 39.447 56.2043 39.3721 55.8871 39.3721C55.5787 39.3721 55.3011 39.447 55.0544 39.5967C54.8077 39.7377 54.6138 39.9404 54.4729 40.2047C54.3407 40.4603 54.2746 40.7554 54.2746 41.0903C54.2746 41.4339 54.3407 41.7379 54.4729 42.0023C54.6138 42.2578 54.8033 42.4605 55.0412 42.6102C55.2879 42.7512 55.5699 42.8217 55.8871 42.8217ZM67.1202 44.421C66.4769 44.421 65.8954 44.2756 65.3755 43.9848C64.8645 43.6852 64.4547 43.2843 64.1463 42.7821C63.8467 42.271 63.6969 41.7027 63.6969 41.0771C63.6969 40.4515 63.8467 39.8919 64.1463 39.3985C64.4459 38.8962 64.8556 38.4997 65.3755 38.2089C65.8954 37.9094 66.4725 37.7596 67.107 37.7596C67.759 37.7596 68.3406 37.9094 68.8516 38.2089C69.3715 38.4997 69.7812 38.8962 70.0808 39.3985C70.3804 39.8919 70.5302 40.4515 70.5302 41.0771C70.5302 41.7027 70.3804 42.271 70.0808 42.7821C69.7812 43.2843 69.3715 43.6852 68.8516 43.9848C68.3406 44.2756 67.7634 44.421 67.1202 44.421ZM67.107 42.8085C67.433 42.8085 67.7194 42.738 67.9661 42.597C68.2216 42.4472 68.4155 42.2446 68.5476 41.989C68.6886 41.7247 68.7591 41.4251 68.7591 41.0903C68.7591 40.7554 68.6886 40.4603 68.5476 40.2047C68.4066 39.9492 68.2128 39.7509 67.9661 39.61C67.7194 39.4602 67.433 39.3853 67.107 39.3853C66.7897 39.3853 66.5078 39.4602 66.2611 39.61C66.0143 39.7509 65.8205 39.9492 65.6795 40.2047C65.5385 40.4603 65.468 40.7554 65.468 41.0903C65.468 41.4251 65.5385 41.7247 65.6795 41.989C65.8205 42.2446 66.0143 42.4472 66.2611 42.597C66.5078 42.738 66.7897 42.8085 67.107 42.8085ZM75.3457 44.2888V37.905H77.0771V44.2888H75.3457ZM77.0771 40.7599L76.403 40.3105C76.4823 39.5263 76.7114 38.9095 77.0903 38.4601C77.4692 38.0019 78.0155 37.7728 78.7292 37.7728C79.0376 37.7728 79.3152 37.8257 79.5619 37.9314C79.8086 38.0283 80.0333 38.1913 80.236 38.4204L79.1522 39.6628C79.0553 39.5571 78.9363 39.4778 78.7953 39.4249C78.6631 39.3721 78.5089 39.3456 78.3327 39.3456C77.9626 39.3456 77.6586 39.4646 77.4207 39.7025C77.1916 39.9316 77.0771 40.284 77.0771 40.7599ZM85.5221 44.2888V35.2483H87.2535V44.2888H85.5221ZM84.0286 39.4249V37.905H88.7471V39.4249H84.0286ZM102.4 44.421C101.81 44.421 101.281 44.2756 100.814 43.9848C100.347 43.694 99.977 43.2975 99.7038 42.7953C99.4395 42.293 99.3073 41.7291 99.3073 41.1035C99.3073 40.4691 99.4395 39.9007 99.7038 39.3985C99.977 38.8962 100.343 38.4997 100.801 38.2089C101.268 37.9182 101.801 37.7728 102.4 37.7728C102.858 37.7728 103.268 37.8653 103.629 38.0503C103.999 38.2354 104.295 38.4953 104.515 38.8302C104.744 39.1562 104.867 39.5263 104.885 39.9404V42.2137C104.867 42.6279 104.748 43.0024 104.528 43.3372C104.308 43.672 104.013 43.9364 103.643 44.1302C103.272 44.3241 102.858 44.421 102.4 44.421ZM102.691 42.8217C103.017 42.8217 103.299 42.7512 103.537 42.6102C103.784 42.4605 103.973 42.2578 104.105 42.0023C104.246 41.7379 104.317 41.4339 104.317 41.0903C104.317 40.7554 104.246 40.4603 104.105 40.2047C103.973 39.9404 103.784 39.7377 103.537 39.5967C103.299 39.447 103.021 39.3721 102.704 39.3721C102.378 39.3721 102.092 39.447 101.845 39.5967C101.607 39.7465 101.418 39.9492 101.277 40.2047C101.145 40.4603 101.078 40.7554 101.078 41.0903C101.078 41.4339 101.145 41.7379 101.277 42.0023C101.418 42.2578 101.612 42.4605 101.858 42.6102C102.105 42.7512 102.383 42.8217 102.691 42.8217ZM105.942 44.2888H104.224V42.5706L104.502 41.011L104.211 39.4778V34.7329H105.942V44.2888ZM113.898 44.421C113.334 44.421 112.831 44.302 112.391 44.0641C111.959 43.8262 111.62 43.4958 111.373 43.0728C111.126 42.6499 111.003 42.1609 111.003 41.6057V37.905H112.748V41.5661C112.748 41.8304 112.792 42.0595 112.88 42.2534C112.968 42.4384 113.1 42.5794 113.276 42.6763C113.453 42.7733 113.66 42.8217 113.898 42.8217C114.259 42.8217 114.541 42.7116 114.743 42.4913C114.946 42.271 115.047 41.9626 115.047 41.5661V37.905H116.779V41.6057C116.779 42.1697 116.656 42.6631 116.409 43.0861C116.171 43.509 115.832 43.8394 115.391 44.0773C114.959 44.3064 114.462 44.421 113.898 44.421ZM121.859 44.2888V37.905H123.59V44.2888H121.859ZM123.59 40.7599L122.916 40.3105C122.995 39.5263 123.224 38.9095 123.603 38.4601C123.982 38.0019 124.528 37.7728 125.242 37.7728C125.55 37.7728 125.828 37.8257 126.075 37.9314C126.321 38.0283 126.546 38.1913 126.749 38.4204L125.665 39.6628C125.568 39.5571 125.449 39.4778 125.308 39.4249C125.176 39.3721 125.022 39.3456 124.846 39.3456C124.475 39.3456 124.172 39.4646 123.934 39.7025C123.705 39.9316 123.59 40.284 123.59 40.7599ZM133.547 44.421C132.965 44.421 132.441 44.2756 131.974 43.9848C131.507 43.694 131.141 43.2975 130.877 42.7953C130.613 42.293 130.481 41.7291 130.481 41.1035C130.481 40.4691 130.613 39.9007 130.877 39.3985C131.141 38.8962 131.507 38.4997 131.974 38.2089C132.441 37.9182 132.965 37.7728 133.547 37.7728C134.005 37.7728 134.415 37.8653 134.776 38.0503C135.137 38.2354 135.424 38.4953 135.635 38.8302C135.856 39.1562 135.975 39.5263 135.992 39.9404V42.2402C135.975 42.6631 135.856 43.0376 135.635 43.3636C135.424 43.6896 135.137 43.9496 134.776 44.1434C134.415 44.3285 134.005 44.421 133.547 44.421ZM133.864 42.8217C134.349 42.8217 134.741 42.6631 135.04 42.3459C135.34 42.0199 135.49 41.6013 135.49 41.0903C135.49 40.7554 135.419 40.4603 135.278 40.2047C135.146 39.9404 134.957 39.7377 134.71 39.5967C134.472 39.447 134.19 39.3721 133.864 39.3721C133.547 39.3721 133.265 39.447 133.018 39.5967C132.78 39.7377 132.591 39.9404 132.45 40.2047C132.318 40.4603 132.252 40.7554 132.252 41.0903C132.252 41.4339 132.318 41.7379 132.45 42.0023C132.591 42.2578 132.78 42.4605 133.018 42.6102C133.265 42.7512 133.547 42.8217 133.864 42.8217ZM135.397 44.2888V42.5706L135.675 41.011L135.397 39.4778V37.905H137.116V44.2888H135.397ZM145.89 44.421C145.432 44.421 145.018 44.3241 144.648 44.1302C144.278 43.9364 143.983 43.672 143.762 43.3372C143.542 43.0024 143.423 42.6279 143.405 42.2137V39.9404C143.423 39.5263 143.542 39.1562 143.762 38.8302C143.991 38.4953 144.291 38.2354 144.661 38.0503C145.031 37.8653 145.441 37.7728 145.89 37.7728C146.481 37.7728 147.009 37.9182 147.476 38.2089C147.943 38.4997 148.309 38.8962 148.573 39.3985C148.847 39.9007 148.983 40.4691 148.983 41.1035C148.983 41.7291 148.847 42.293 148.573 42.7953C148.309 43.2975 147.943 43.694 147.476 43.9848C147.009 44.2756 146.481 44.421 145.89 44.421ZM142.348 44.2888V34.7329H144.08V39.4778L143.789 41.011L144.066 42.5706V44.2888H142.348ZM145.6 42.8217C145.917 42.8217 146.194 42.7512 146.432 42.6102C146.679 42.4605 146.868 42.2578 147.001 42.0023C147.142 41.7379 147.212 41.4339 147.212 41.0903C147.212 40.7554 147.142 40.4603 147.001 40.2047C146.868 39.9404 146.679 39.7377 146.432 39.5967C146.185 39.447 145.904 39.3721 145.586 39.3721C145.269 39.3721 144.987 39.447 144.74 39.5967C144.503 39.7377 144.313 39.9404 144.172 40.2047C144.04 40.4603 143.974 40.7554 143.974 41.0903C143.974 41.4339 144.04 41.7379 144.172 42.0023C144.313 42.2578 144.507 42.4605 144.754 42.6102C145 42.7512 145.282 42.8217 145.6 42.8217ZM153.819 44.2888V34.7329H155.551V44.2888H153.819ZM163.839 44.421C163.169 44.421 162.574 44.28 162.054 43.998C161.534 43.7073 161.12 43.3108 160.812 42.8085C160.512 42.3063 160.363 41.7335 160.363 41.0903C160.363 40.4559 160.508 39.8919 160.799 39.3985C161.098 38.8962 161.504 38.4997 162.015 38.2089C162.526 37.9094 163.094 37.7596 163.72 37.7596C164.336 37.7596 164.878 37.9006 165.345 38.1825C165.821 38.4557 166.191 38.8346 166.456 39.3192C166.729 39.795 166.865 40.3369 166.865 40.9449C166.865 41.0594 166.857 41.1784 166.839 41.3018C166.83 41.4163 166.808 41.5485 166.773 41.6983L161.407 41.7115V40.4162L165.967 40.403L165.266 40.9449C165.248 40.566 165.178 40.2488 165.055 39.9933C164.94 39.7377 164.768 39.5439 164.539 39.4117C164.319 39.2707 164.046 39.2002 163.72 39.2002C163.376 39.2002 163.076 39.2795 162.821 39.4381C162.565 39.5879 162.367 39.8038 162.226 40.0858C162.094 40.3589 162.028 40.685 162.028 41.0638C162.028 41.4515 162.098 41.7908 162.239 42.0816C162.389 42.3635 162.601 42.5838 162.874 42.7424C163.147 42.8922 163.464 42.9671 163.825 42.9671C164.151 42.9671 164.447 42.9142 164.711 42.8085C164.975 42.694 165.204 42.5265 165.398 42.3063L166.416 43.324C166.108 43.6852 165.729 43.9584 165.279 44.1434C164.839 44.3285 164.358 44.421 163.839 44.421Z" fill="#1E1E1E"/>
</svg>
