<svg width="157" height="23" viewBox="0 0 157 23" fill="none" xmlns="http://www.w3.org/2000/svg">
<path d="M11.465 22.2833C9.28959 22.2833 7.32978 21.8276 5.58552 20.9163C3.84126 20.005 2.47429 18.7311 1.48457 17.0946C0.494852 15.4582 0 13.6012 0 11.5238C0 9.44637 0.494852 7.58945 1.48457 5.95299C2.47429 4.31652 3.84126 3.04264 5.58552 2.13132C7.32978 1.21999 9.28959 0.764334 11.465 0.764334C13.464 0.764334 15.2475 1.1171 16.8153 1.82264C18.3832 2.52819 19.6767 3.54729 20.6958 4.87998L16.3156 8.78984C15.0417 7.18277 13.5424 6.37925 11.8178 6.37925C10.3675 6.37925 9.20141 6.8447 8.31948 7.77563C7.43755 8.70655 6.9966 9.95593 6.9966 11.5238C6.9966 13.0917 7.43755 14.3411 8.31948 15.272C9.20141 16.2029 10.3675 16.6684 11.8178 16.6684C13.5424 16.6684 15.0417 15.8648 16.3156 14.2578L20.6958 18.1676C19.6767 19.5003 18.3832 20.5194 16.8153 21.225C15.2475 21.9305 13.464 22.2833 11.465 22.2833ZM22.4891 0L29.1329 0V21.8129H22.4891V0ZM40.5685 22.1069C38.785 22.1069 37.1829 21.7492 35.762 21.0339C34.3411 20.3185 33.2289 19.3288 32.4254 18.0647C31.6219 16.8006 31.2201 15.3651 31.2201 13.758C31.2201 12.1509 31.6219 10.7154 32.4254 9.45128C33.2289 8.18719 34.3411 7.20238 35.762 6.49684C37.1829 5.7913 38.785 5.43853 40.5685 5.43853C42.3716 5.43853 43.9835 5.7913 45.4044 6.49684C46.8253 7.20238 47.9326 8.18719 48.7263 9.45128C49.52 10.7154 49.9169 12.1509 49.9169 13.758C49.9169 15.3651 49.52 16.8006 48.7263 18.0647C47.9326 19.3288 46.8253 20.3185 45.4044 21.0339C43.9835 21.7492 42.3716 22.1069 40.5685 22.1069ZM40.5685 16.9329C41.3328 16.9329 41.96 16.6537 42.4499 16.0951C42.9399 15.5366 43.1849 14.7575 43.1849 13.758C43.1849 12.7585 42.9399 11.9844 42.4499 11.4356C41.96 10.8869 41.3328 10.6125 40.5685 10.6125C39.8042 10.6125 39.177 10.8869 38.6871 11.4356C38.1971 11.9844 37.9521 12.7585 37.9521 13.758C37.9521 14.7575 38.1971 15.5366 38.6871 16.0951C39.177 16.6537 39.8042 16.9329 40.5685 16.9329ZM69.5838 5.7325V21.8129H63.2633V20.2842C62.6754 20.8918 61.9895 21.3475 61.2055 21.6512C60.4216 21.955 59.5887 22.1069 58.7067 22.1069C56.6685 22.1069 55.0321 21.4846 53.7974 20.2402C52.5627 18.9957 51.9453 17.1191 51.9453 14.6105V5.7325H58.5891V13.464C58.5891 14.5615 58.7655 15.3455 59.1183 15.8158C59.4711 16.2862 59.9904 16.5214 60.6764 16.5214C61.3231 16.5214 61.8621 16.2617 62.2932 15.7423C62.7244 15.223 62.94 14.4048 62.94 13.2877V5.7325H69.5838ZM90.309 0V21.8129H83.9886V20.49C83.0282 21.5679 81.5584 22.1069 79.5789 22.1069C78.1679 22.1069 76.8695 21.7688 75.6838 21.0927C74.4981 20.4165 73.5574 19.4415 72.8616 18.1676C72.1659 16.8937 71.818 15.4239 71.818 13.758C71.818 12.0921 72.1659 10.6272 72.8616 9.36309C73.5574 8.09899 74.4981 7.12889 75.6838 6.45274C76.8695 5.7766 78.1679 5.43853 79.5789 5.43853C81.3624 5.43853 82.7245 5.89909 83.6652 6.82021V0L90.309 0ZM81.1664 16.9329C81.9307 16.9329 82.5579 16.6537 83.0478 16.0951C83.5378 15.5366 83.7828 14.7575 83.7828 13.758C83.7828 12.7585 83.5378 11.9844 83.0478 11.4356C82.5579 10.8869 81.9307 10.6125 81.1664 10.6125C80.4021 10.6125 79.7749 10.8869 79.285 11.4356C78.795 11.9844 78.55 12.7585 78.55 13.758C78.55 14.7575 78.795 15.5366 79.285 16.0951C79.7749 16.6537 80.4021 16.9329 81.1664 16.9329Z" fill="#00B6F0"/>
<path fill-rule="evenodd" clip-rule="evenodd" d="M100.392 6.46761V9.99531H108.976V15.2281H100.392V21.8131H93.4543V1.23486L110.182 1.23486V6.46761H100.392Z" fill="#E1EEFF"/>
<path fill-rule="evenodd" clip-rule="evenodd" d="M118.501 7.4669C119.677 6.11461 121.411 5.43848 123.704 5.43848V11.318C123.175 11.2396 122.685 11.2004 122.235 11.2004C119.961 11.2004 118.824 12.3567 118.824 14.6693V21.8129H112.181V5.73245H118.501V7.4669Z" fill="#E1EEFF"/>
<path d="M142.695 13.758C142.695 13.856 142.666 14.3753 142.607 15.316H131.436C131.671 15.9236 132.063 16.389 132.612 16.7124C133.161 17.0358 133.847 17.1975 134.67 17.1975C135.375 17.1975 135.968 17.1093 136.448 16.9329C136.928 16.7565 137.453 16.4527 138.021 16.0216L141.49 19.5199C139.922 21.2445 137.58 22.1068 134.464 22.1068C132.524 22.1068 130.819 21.7492 129.349 21.0338C127.879 20.3185 126.742 19.3239 125.939 18.05C125.135 16.7761 124.733 15.3454 124.733 13.758C124.733 12.1509 125.13 10.7153 125.924 9.45123C126.718 8.18713 127.805 7.20233 129.187 6.49678C130.569 5.79124 132.122 5.43848 133.847 5.43848C135.473 5.43848 136.958 5.76185 138.3 6.40859C139.643 7.05534 140.711 8.00585 141.505 9.26015C142.298 10.5144 142.695 12.0137 142.695 13.758ZM133.905 9.96569C133.219 9.96569 132.651 10.1519 132.2 10.5242C131.75 10.8966 131.456 11.4258 131.318 12.1117H136.492C136.355 11.4454 136.061 10.9211 135.61 10.5389C135.16 10.1568 134.591 9.96569 133.905 9.96569Z" fill="#E1EEFF"/>
<path fill-rule="evenodd" clip-rule="evenodd" d="M156.63 21.2544C155.63 21.8228 154.268 22.107 152.543 22.107C150.289 22.107 148.555 21.5631 147.34 20.4754C146.125 19.3877 145.517 17.7562 145.517 15.5807V11.4651H143.312V6.61451H145.517V2.1167H152.161V6.61451H155.454V11.4651H152.161V15.5219C152.161 16.0119 152.289 16.3941 152.543 16.6684C152.798 16.9428 153.131 17.08 153.543 17.08C154.111 17.08 154.611 16.933 155.042 16.639L156.63 21.2544Z" fill="#E1EEFF"/>
</svg>
