<svg width="120" height="40" viewBox="0 0 120 40" fill="none" xmlns="http://www.w3.org/2000/svg">
<rect x="0.5" y="0.5" width="119" height="39" rx="5.5" fill="black"/>
<rect x="0.5" y="0.5" width="119" height="39" rx="5.5" stroke="#A6A6A6"/>
<path d="M17.8048 19.4617L8.0896 30.0059C8.09051 30.0078 8.09051 30.0106 8.09142 30.0125C8.38981 31.1574 9.41179 32 10.6254 32C11.1108 32 11.5662 31.8656 11.9567 31.6305L11.9877 31.6118L22.9229 25.1593L17.8048 19.4617Z" fill="#EA4335"/>
<path d="M27.6331 17.6662L27.624 17.6597L22.9028 14.8612L17.5839 19.7013L22.9219 25.1582L27.6176 22.3878C28.4406 21.9324 29 21.045 29 20.0223C29 19.0052 28.4489 18.1225 27.6331 17.6662Z" fill="#FBBC04"/>
<path d="M8.08942 9.99331C8.03102 10.2135 8 10.4449 8 10.6838V29.3163C8 29.5552 8.03102 29.7866 8.09034 30.0059L18.1386 19.7313L8.08942 9.99331Z" fill="#4285F4"/>
<path d="M17.8766 19.9999L22.9044 14.8594L11.9819 8.38351C11.585 8.13996 11.1214 8 10.626 8C9.41237 8 8.38856 8.84447 8.09018 9.99034C8.09018 9.99127 8.08926 9.9922 8.08926 9.99314L17.8766 19.9999Z" fill="#34A853"/>
<path d="M36.648 14.5V8.056H38.619C39.603 8.056 40.392 8.353 40.986 8.947C41.586 9.541 41.886 10.318 41.886 11.278C41.886 12.244 41.586 13.024 40.986 13.618C40.392 14.206 39.603 14.5 38.619 14.5H36.648ZM37.476 8.848V13.708H38.619C39.369 13.708 39.96 13.495 40.392 13.069C40.824 12.637 41.04 12.04 41.04 11.278C41.04 10.522 40.824 9.928 40.392 9.496C39.96 9.064 39.369 8.848 38.619 8.848H37.476ZM43.6987 14.5H42.8707V8.056H43.6987V14.5ZM48.9756 12.781C48.9756 13.345 48.7686 13.798 48.3546 14.14C47.9346 14.476 47.4246 14.644 46.8246 14.644C46.2906 14.644 45.8196 14.488 45.4116 14.176C45.0036 13.864 44.7216 13.438 44.5656 12.898L45.3576 12.574C45.4116 12.766 45.4866 12.94 45.5826 13.096C45.6786 13.252 45.7896 13.387 45.9156 13.501C46.0476 13.609 46.1916 13.696 46.3476 13.762C46.5036 13.822 46.6686 13.852 46.8426 13.852C47.2206 13.852 47.5296 13.756 47.7696 13.564C48.0096 13.366 48.1296 13.105 48.1296 12.781C48.1296 12.511 48.0306 12.28 47.8326 12.088C47.6466 11.902 47.2986 11.722 46.7886 11.548C46.2726 11.362 45.9516 11.236 45.8256 11.17C45.1416 10.822 44.7996 10.309 44.7996 9.631C44.7996 9.157 44.9886 8.752 45.3666 8.416C45.7506 8.08 46.2216 7.912 46.7796 7.912C47.2716 7.912 47.6976 8.038 48.0576 8.29C48.4176 8.536 48.6576 8.845 48.7776 9.217L48.0036 9.541C47.9316 9.301 47.7876 9.103 47.5716 8.947C47.3616 8.785 47.1036 8.704 46.7976 8.704C46.4736 8.704 46.2006 8.794 45.9786 8.974C45.7566 9.142 45.6456 9.361 45.6456 9.631C45.6456 9.853 45.7326 10.045 45.9066 10.207C46.0986 10.369 46.5156 10.561 47.1576 10.783C47.8116 11.005 48.2766 11.278 48.5526 11.602C48.8346 11.92 48.9756 12.313 48.9756 12.781ZM50.8002 11.89V14.5H49.9722V8.056H52.1682C52.7262 8.056 53.2002 8.242 53.5902 8.614C53.9862 8.986 54.1842 9.439 54.1842 9.973C54.1842 10.519 53.9862 10.975 53.5902 11.341C53.2062 11.707 52.7322 11.89 52.1682 11.89H50.8002ZM50.8002 8.848V11.098H52.1862C52.5162 11.098 52.7892 10.987 53.0052 10.765C53.2272 10.543 53.3382 10.279 53.3382 9.973C53.3382 9.673 53.2272 9.412 53.0052 9.19C52.7892 8.962 52.5162 8.848 52.1862 8.848H50.8002ZM61.2734 11.278C61.2734 12.232 60.9554 13.03 60.3194 13.672C59.6774 14.32 58.8914 14.644 57.9614 14.644C57.0254 14.644 56.2394 14.32 55.6034 13.672C54.9674 13.03 54.6494 12.232 54.6494 11.278C54.6494 10.324 54.9674 9.526 55.6034 8.884C56.2394 8.236 57.0254 7.912 57.9614 7.912C58.8974 7.912 59.6834 8.239 60.3194 8.893C60.9554 9.535 61.2734 10.33 61.2734 11.278ZM55.4954 11.278C55.4954 12.022 55.7294 12.637 56.1974 13.123C56.6714 13.609 57.2594 13.852 57.9614 13.852C58.6634 13.852 59.2484 13.609 59.7164 13.123C60.1904 12.643 60.4274 12.028 60.4274 11.278C60.4274 10.528 60.1904 9.913 59.7164 9.433C59.2484 8.947 58.6634 8.704 57.9614 8.704C57.2594 8.704 56.6714 8.947 56.1974 9.433C55.7294 9.919 55.4954 10.534 55.4954 11.278ZM63.0785 14.5H62.2505V8.056H63.2585L66.3905 13.069H66.4265L66.3905 11.827V8.056H67.2185V14.5H66.3545L63.0785 9.244H63.0425L63.0785 10.486V14.5ZM69.3451 14.5H68.5171V8.056H69.3451V14.5ZM70.6441 14.5V8.056H72.9751C73.4851 8.056 73.9231 8.224 74.2891 8.56C74.6551 8.89 74.8381 9.307 74.8381 9.811C74.8381 10.447 74.5471 10.894 73.9651 11.152V11.188C74.2951 11.296 74.5591 11.485 74.7571 11.755C74.9551 12.019 75.0541 12.322 75.0541 12.664C75.0541 13.192 74.8621 13.63 74.4781 13.978C74.1061 14.326 73.6471 14.5 73.1011 14.5H70.6441ZM71.4721 8.848V10.819H72.9751C73.2691 10.819 73.5151 10.72 73.7131 10.522C73.9111 10.318 74.0101 10.087 74.0101 9.829C74.0101 9.577 73.9141 9.349 73.7221 9.145C73.5301 8.947 73.2931 8.848 73.0111 8.848H71.4721ZM71.4721 11.593V13.708H73.1371C73.4371 13.708 73.6921 13.603 73.9021 13.393C74.1061 13.183 74.2081 12.934 74.2081 12.646C74.2081 12.364 74.1031 12.118 73.8931 11.908C73.6831 11.698 73.4191 11.593 73.1011 11.593H71.4721ZM79.6058 14.5H75.9878V8.056H76.8158V13.708H79.6058V14.5ZM84.2323 8.056V8.848H81.2983V10.891H83.9443V11.665H81.2983V13.708H84.2323V14.5H80.4703V8.056H84.2323ZM91.0313 12.781C91.0313 13.345 90.8243 13.798 90.4103 14.14C89.9903 14.476 89.4803 14.644 88.8803 14.644C88.3463 14.644 87.8753 14.488 87.4673 14.176C87.0593 13.864 86.7773 13.438 86.6213 12.898L87.4133 12.574C87.4673 12.766 87.5423 12.94 87.6383 13.096C87.7343 13.252 87.8453 13.387 87.9713 13.501C88.1033 13.609 88.2473 13.696 88.4033 13.762C88.5593 13.822 88.7243 13.852 88.8983 13.852C89.2763 13.852 89.5853 13.756 89.8253 13.564C90.0653 13.366 90.1853 13.105 90.1853 12.781C90.1853 12.511 90.0863 12.28 89.8883 12.088C89.7023 11.902 89.3543 11.722 88.8443 11.548C88.3283 11.362 88.0073 11.236 87.8813 11.17C87.1973 10.822 86.8553 10.309 86.8553 9.631C86.8553 9.157 87.0443 8.752 87.4223 8.416C87.8063 8.08 88.2773 7.912 88.8353 7.912C89.3273 7.912 89.7533 8.038 90.1133 8.29C90.4733 8.536 90.7133 8.845 90.8333 9.217L90.0593 9.541C89.9873 9.301 89.8433 9.103 89.6273 8.947C89.4173 8.785 89.1593 8.704 88.8533 8.704C88.5293 8.704 88.2563 8.794 88.0343 8.974C87.8123 9.142 87.7013 9.361 87.7013 9.631C87.7013 9.853 87.7883 10.045 87.9623 10.207C88.1543 10.369 88.5713 10.561 89.2133 10.783C89.8673 11.005 90.3323 11.278 90.6083 11.602C90.8903 11.92 91.0313 12.313 91.0313 12.781ZM94.2689 14.644C93.5549 14.644 92.9789 14.41 92.5409 13.942C92.1029 13.48 91.8839 12.868 91.8839 12.106V8.056H92.7119V12.142C92.7119 12.67 92.8499 13.087 93.1259 13.393C93.4019 13.699 93.7829 13.852 94.2689 13.852C94.7549 13.852 95.1359 13.699 95.4119 13.393C95.6879 13.087 95.8259 12.67 95.8259 12.142V8.056H96.6539V12.106C96.6539 12.886 96.4379 13.504 96.0059 13.96C95.5739 14.416 94.9949 14.644 94.2689 14.644ZM98.6303 8.848V11.116H99.9623C100.298 11.116 100.583 11.008 100.817 10.792C101.051 10.57 101.168 10.297 101.168 9.973C101.168 9.673 101.057 9.412 100.835 9.19C100.619 8.962 100.346 8.848 100.016 8.848H98.6303ZM98.6303 14.5H97.8023V8.056H99.9983C100.556 8.056 101.03 8.242 101.42 8.614C101.816 8.98 102.014 9.433 102.014 9.973C102.014 10.417 101.867 10.813 101.573 11.161C101.285 11.503 100.919 11.722 100.475 11.818L100.457 11.845L102.266 14.464V14.5H101.285L99.5483 11.89H98.6303V14.5Z" fill="white"/>
<path d="M93.5181 30.9097H95.1469V19.8981H93.5181V30.9097ZM108.189 23.8646L106.322 28.6388H106.266L104.328 23.8646H102.573L105.479 30.5371L103.823 34.249H105.521L110 23.8646H108.189ZM98.9519 29.6588C98.4176 29.6588 97.6739 29.3902 97.6739 28.7234C97.6739 27.8742 98.6001 27.5483 99.4005 27.5483C100.116 27.5483 100.454 27.7042 100.889 27.9165C100.762 28.9365 99.892 29.6588 98.9519 29.6588ZM99.1483 23.6241C97.969 23.6241 96.7469 24.1482 96.2424 25.3101L97.6879 25.9188C97.9969 25.3101 98.5721 25.111 99.1762 25.111C100.019 25.111 100.875 25.621 100.889 26.5283V26.6411C100.594 26.471 99.9627 26.2165 99.1902 26.2165C97.632 26.2165 96.0451 27.0806 96.0451 28.6952C96.0451 30.1689 97.323 31.1184 98.7546 31.1184C99.8501 31.1184 100.454 30.6225 100.833 30.0411H100.889V30.8912H102.461V26.6692C102.461 24.7146 101.015 23.6241 99.1483 23.6241ZM89.0821 25.2053H86.7655V21.4308H89.0821C90.2998 21.4308 90.9911 22.4482 90.9911 23.3176C90.9911 24.1711 90.2998 25.2053 89.0821 25.2053ZM89.0402 19.8981H85.1375V30.9097H86.7655V26.7379H89.0402C90.8453 26.7379 92.6199 25.4184 92.6199 23.3176C92.6199 21.2168 90.8453 19.8981 89.0402 19.8981ZM67.7583 29.6606C66.6332 29.6606 65.6913 28.7102 65.6913 27.4047C65.6913 26.0852 66.6332 25.1198 67.7583 25.1198C68.8695 25.1198 69.7406 26.0852 69.7406 27.4047C69.7406 28.7102 68.8695 29.6606 67.7583 29.6606ZM69.6289 24.4812H69.5722C69.2064 24.0417 68.5038 23.6444 67.6178 23.6444C65.7611 23.6444 64.0599 25.2898 64.0599 27.4047C64.0599 29.5047 65.7611 31.1369 67.6178 31.1369C68.5038 31.1369 69.2064 30.7396 69.5722 30.2851H69.6289V30.8251C69.6289 32.2582 68.8695 33.0246 67.6457 33.0246C66.6471 33.0246 66.0282 32.3005 65.7751 31.6901L64.3549 32.2864C64.7626 33.28 65.8458 34.5 67.6457 34.5C69.5582 34.5 71.1757 33.3646 71.1757 30.5978V23.8708H69.6289V24.4812ZM72.3008 30.9097H73.9323V19.8973H72.3008V30.9097ZM76.3362 27.277C76.2943 25.8298 77.4474 25.0916 78.2766 25.0916C78.9243 25.0916 79.4725 25.4176 79.6549 25.8862L76.3362 27.277ZM81.3989 26.028C81.0899 25.1912 80.1472 23.6444 78.2208 23.6444C76.3083 23.6444 74.7196 25.1621 74.7196 27.3907C74.7196 29.4906 76.2943 31.1369 78.4032 31.1369C80.1053 31.1369 81.0899 30.0869 81.4976 29.4765L80.2319 28.6247C79.8103 29.2493 79.2333 29.6606 78.4032 29.6606C77.5739 29.6606 76.983 29.2774 76.6033 28.5261L81.5674 26.4534L81.3989 26.028ZM41.8501 24.7939V26.383H45.6184C45.5058 27.277 45.2107 27.9297 44.7612 28.3834C44.2121 28.9374 43.3541 29.5479 41.8501 29.5479C39.5291 29.5479 37.7152 27.6602 37.7152 25.3189C37.7152 22.9767 39.5291 21.0899 41.8501 21.0899C43.1018 21.0899 44.0157 21.5867 44.6905 22.2254L45.8017 21.104C44.8589 20.1959 43.6081 19.5 41.8501 19.5C38.6719 19.5 36 22.1117 36 25.3189C36 28.5261 38.6719 31.1369 41.8501 31.1369C43.5653 31.1369 44.8589 30.5688 45.8715 29.5047C46.9129 28.4547 47.2358 26.9793 47.2358 25.7866C47.2358 25.4176 47.2079 25.0775 47.1512 24.7939H41.8501ZM51.5208 29.6606C50.3957 29.6606 49.425 28.7243 49.425 27.3907C49.425 26.0421 50.3957 25.1198 51.5208 25.1198C52.6451 25.1198 53.6158 26.0421 53.6158 27.3907C53.6158 28.7243 52.6451 29.6606 51.5208 29.6606ZM51.5208 23.6444C49.4669 23.6444 47.7936 25.2194 47.7936 27.3907C47.7936 29.5479 49.4669 31.1369 51.5208 31.1369C53.5739 31.1369 55.2472 29.5479 55.2472 27.3907C55.2472 25.2194 53.5739 23.6444 51.5208 23.6444ZM59.65 29.6606C58.5249 29.6606 57.5542 28.7243 57.5542 27.3907C57.5542 26.0421 58.5249 25.1198 59.65 25.1198C60.7752 25.1198 61.745 26.0421 61.745 27.3907C61.745 28.7243 60.7752 29.6606 59.65 29.6606ZM59.65 23.6444C57.597 23.6444 55.9237 25.2194 55.9237 27.3907C55.9237 29.5479 57.597 31.1369 59.65 31.1369C61.7031 31.1369 63.3764 29.5479 63.3764 27.3907C63.3764 25.2194 61.7031 23.6444 59.65 23.6444Z" fill="white"/>
</svg>
