<svg width="167" height="12" viewBox="0 0 167 12" fill="none" xmlns="http://www.w3.org/2000/svg">
<path d="M156.223 6.13112C155.996 6.14083 155.766 6.1475 155.542 6.16207C155.398 6.17117 155.335 6.14448 155.239 6.13052C155.207 6.12567 155.172 6.11595 155.142 6.11717C154.917 6.12687 154.691 6.1378 154.466 6.14872C154.397 6.17239 154.353 6.20394 154.247 6.21547C154.144 6.22639 154.022 6.22639 153.907 6.23185C153.755 6.23853 153.603 6.2452 153.451 6.25127C153.376 6.25431 153.313 6.26583 153.288 6.28768C153.283 6.29132 153.334 6.30042 153.362 6.30588C153.454 6.32408 153.543 6.34471 153.645 6.35867C153.741 6.37202 153.861 6.35018 153.964 6.36717C154.197 6.40539 154.199 6.40479 154.376 6.39751C154.528 6.39083 154.68 6.38355 154.832 6.3787C154.862 6.37749 154.896 6.38659 154.928 6.39144C155.025 6.40479 155.087 6.43513 155.23 6.4236C155.338 6.4145 155.457 6.41268 155.57 6.40782C155.664 6.42542 155.752 6.44544 155.853 6.4594C155.947 6.47275 155.975 6.48307 155.924 6.50067C155.878 6.51705 155.814 6.52373 155.729 6.52494C155.653 6.52555 155.577 6.531 155.501 6.53404C155.462 6.53586 155.425 6.53707 155.388 6.53889C155.243 6.54557 155.243 6.54557 154.979 6.50673C154.875 6.49156 154.758 6.5128 154.659 6.49824C154.592 6.48853 154.535 6.47397 154.47 6.46365C154.443 6.4594 154.399 6.45879 154.365 6.46001C154.25 6.46426 154.135 6.46729 154.024 6.47518C153.946 6.48064 153.9 6.49763 153.909 6.51462C153.911 6.5213 153.967 6.53101 153.999 6.53161C154.072 6.53283 154.151 6.52433 154.222 6.52858C154.291 6.53282 154.362 6.54496 154.413 6.55831C154.516 6.58622 154.634 6.56135 154.733 6.56863C154.836 6.57652 154.921 6.60079 155.02 6.61535C155.046 6.61899 155.094 6.61292 155.133 6.6111C155.246 6.60685 155.358 6.60322 155.471 6.59897C155.565 6.61656 155.667 6.63234 155.752 6.65237C155.906 6.68877 156.072 6.70273 156.272 6.68513C156.384 6.67542 156.495 6.67906 156.585 6.70273C156.677 6.727 156.782 6.72457 156.9 6.71972C157.008 6.71487 157.118 6.70151 157.229 6.71851C157.468 6.75613 157.47 6.75795 157.753 6.74339C157.838 6.73914 157.903 6.73793 157.967 6.75188C158.027 6.76462 158.091 6.77555 158.153 6.78768C158.266 6.78343 158.381 6.77919 158.494 6.77433C158.639 6.76766 158.719 6.77615 158.754 6.81013C158.774 6.83076 158.784 6.84957 158.834 6.86353C158.894 6.88052 158.958 6.87991 159.046 6.87506C159.129 6.87081 159.189 6.86414 159.223 6.84229C159.237 6.83319 159.264 6.8247 159.29 6.81741C159.31 6.81195 159.343 6.80346 159.361 6.80467C159.396 6.8071 159.442 6.81377 159.453 6.82166C159.566 6.89508 159.566 6.89569 159.681 6.91693C159.807 6.94059 159.938 6.96183 160.053 6.98853C160.157 7.01219 160.261 7.00188 160.373 7.00188C160.458 7.00188 160.514 7.01766 160.507 7.03344C160.502 7.04254 160.47 7.05588 160.442 7.0571C160.217 7.06923 159.989 7.07955 159.761 7.08804C159.734 7.08926 159.699 7.07833 159.667 7.07287C159.603 7.06195 159.545 7.04496 159.476 7.04132C159.407 7.03768 159.327 7.04678 159.251 7.04982C159.175 7.05285 159.094 7.06074 159.025 7.05589C158.956 7.05103 158.901 7.03343 158.837 7.0219C158.807 7.01644 158.765 7.00856 158.74 7.01038C158.572 7.02494 158.448 7.00492 158.328 6.97822C158.303 6.97276 158.259 6.96911 158.227 6.97033C157.96 6.98064 157.696 6.99278 157.429 7.00431C157.321 7.00916 157.233 6.98792 157.21 6.95212C157.199 6.9321 157.176 6.91207 157.176 6.89205C157.176 6.85564 157.049 6.83562 156.957 6.83986C156.805 6.84593 156.651 6.85078 156.502 6.85989C156.38 6.86717 156.276 6.85989 156.193 6.83804C156.097 6.81316 155.986 6.81802 155.876 6.82469C155.793 6.82955 155.77 6.84957 155.775 6.89994C155.779 6.94059 155.74 6.95334 155.591 6.96001C155.402 6.96851 155.211 6.977 155.02 6.98368C154.99 6.98489 154.956 6.97457 154.926 6.96911C154.862 6.95819 154.804 6.94059 154.735 6.93695C154.666 6.9327 154.585 6.94181 154.51 6.94545C154.434 6.94848 154.353 6.95698 154.284 6.95273C154.215 6.94848 154.158 6.93028 154.095 6.91875C154.066 6.91329 154.029 6.9054 153.999 6.90661C153.847 6.91147 153.695 6.91875 153.543 6.92543C153.373 6.93271 153.373 6.93271 153.132 6.89509C153.021 6.8781 152.911 6.89145 152.803 6.8963C152.688 6.90115 152.58 6.90358 152.49 6.87931C152.43 6.86353 152.363 6.85382 152.292 6.85686C152.101 6.86414 151.912 6.87324 151.722 6.88052C151.689 6.88174 151.646 6.8787 151.62 6.87324C151.498 6.84776 151.379 6.82773 151.209 6.84047C151.061 6.85139 150.903 6.852 150.755 6.86232C150.675 6.86778 150.638 6.8872 150.654 6.90237C150.663 6.91026 150.712 6.91936 150.744 6.91936C150.817 6.91997 150.898 6.91086 150.967 6.9145C151.11 6.92178 151.181 6.97275 151.367 6.9588C151.478 6.9503 151.593 6.94727 151.708 6.94484C151.738 6.94423 151.77 6.95576 151.802 6.96183C151.894 6.97822 151.975 6.99945 152.108 6.98853C152.218 6.98003 152.336 6.97761 152.448 6.97276C152.628 6.96487 152.628 6.96548 152.86 7.00249C152.971 7.02009 153.081 7.00613 153.189 7.00188C153.27 6.99885 153.346 6.99278 153.41 7.00128C153.509 7.01402 153.58 7.04314 153.702 7.04132C153.817 7.0395 153.93 7.03101 154.045 7.02797C154.116 7.02615 154.183 7.03586 154.24 7.05224C154.3 7.06863 154.365 7.07591 154.443 7.07227C154.556 7.06741 154.671 7.06135 154.786 7.05831C154.818 7.0577 154.855 7.06317 154.885 7.06802C154.949 7.07894 155.011 7.09168 155.073 7.10321C155.186 7.09957 155.301 7.09836 155.411 7.09108C155.496 7.08562 155.556 7.08805 155.625 7.10018C155.713 7.11657 155.784 7.1457 155.927 7.13174C155.998 7.12506 156.081 7.12688 156.152 7.12081C156.239 7.11292 156.299 7.11596 156.361 7.13416C156.479 7.16875 156.626 7.16935 156.778 7.156C156.943 7.14144 157.068 7.15844 157.192 7.18514C157.323 7.21305 157.323 7.21244 157.424 7.27979C157.454 7.29921 157.539 7.30832 157.61 7.30468C157.73 7.29861 157.834 7.30164 157.921 7.3247C158.013 7.34958 158.123 7.34654 158.236 7.33987C158.386 7.33076 158.535 7.32288 158.657 7.35807C158.717 7.37506 158.781 7.37931 158.862 7.37506C159.09 7.36414 159.32 7.35747 159.543 7.34412C159.679 7.33562 159.757 7.35504 159.849 7.37142C159.973 7.39387 160.109 7.4139 160.109 7.46183C160.109 7.46972 160.141 7.47882 160.169 7.48489C160.228 7.49764 160.293 7.50856 160.355 7.52069C160.447 7.5389 160.537 7.55407 160.663 7.54436C160.773 7.53647 160.891 7.53404 161.004 7.52858C161.116 7.52312 161.22 7.52008 161.321 7.54314C161.438 7.56924 161.563 7.59412 161.696 7.61353C161.79 7.62749 161.915 7.60383 162.016 7.62264C162.078 7.63417 162.138 7.64751 162.204 7.65722C162.232 7.66147 162.276 7.65844 162.312 7.65722C162.388 7.65479 162.467 7.65298 162.54 7.64691C162.625 7.64024 162.69 7.64145 162.754 7.65541C162.814 7.66815 162.874 7.68574 162.943 7.68938C163.046 7.69484 163.161 7.67057 163.265 7.69849C163.318 7.71244 163.384 7.72579 163.453 7.73004C163.522 7.73429 163.603 7.72518 163.677 7.72579C163.709 7.72579 163.748 7.7355 163.766 7.74339C163.778 7.74764 163.762 7.75917 163.746 7.76523C163.725 7.77252 163.695 7.78223 163.665 7.78344C163.437 7.79436 163.21 7.80346 162.982 7.81378C162.846 7.81985 162.846 7.81985 162.572 7.78162C162.508 7.77252 162.437 7.77433 162.356 7.77858C162.248 7.78404 162.138 7.79436 162.025 7.78344C161.878 7.74218 161.696 7.73853 161.503 7.75431C161.422 7.76098 161.349 7.76099 161.289 7.74946C161.162 7.7264 161.029 7.70516 160.916 7.67786C160.829 7.65662 160.787 7.6548 160.751 7.68392C160.739 7.69303 160.727 7.70273 160.73 7.71123C160.744 7.74157 160.769 7.7713 160.783 7.80164C160.787 7.81014 160.769 7.81985 160.757 7.82895C160.721 7.85444 160.672 7.85261 160.592 7.83137C160.511 7.81013 160.415 7.79618 160.286 7.80589C160.175 7.81439 160.056 7.81317 159.945 7.82228C159.775 7.83563 159.656 7.81621 159.534 7.79011C159.508 7.78465 159.465 7.78162 159.432 7.78283C159.09 7.79679 158.749 7.81256 158.406 7.82652C158.333 7.82955 158.266 7.82045 158.209 7.80407C158.149 7.78769 158.082 7.77919 158.008 7.78223C157.705 7.79497 157.401 7.8065 157.097 7.82228C156.973 7.82895 156.874 7.82106 156.789 7.79982C156.725 7.78404 156.665 7.77919 156.585 7.78101C156.497 7.78283 156.435 7.7889 156.391 7.8065C156.35 7.82349 156.38 7.8338 156.472 7.84715C156.571 7.86171 156.663 7.88053 156.757 7.89752C156.833 7.89509 156.909 7.89023 156.982 7.89084C157.015 7.89084 157.045 7.90176 157.077 7.90783C157.169 7.92543 157.254 7.94303 157.385 7.93332C157.495 7.92482 157.613 7.923 157.725 7.91754C157.882 7.91087 157.882 7.91087 158.135 7.9491C158.199 7.9588 158.268 7.95819 158.351 7.95273C158.422 7.94848 158.496 7.95698 158.547 7.97518C158.567 7.98247 158.561 7.99461 158.517 8.03466C158.517 8.06439 158.565 8.05104 158.581 8.03162C158.607 8.00371 158.558 7.99461 158.466 8.00978C158.402 8.0207 158.37 8.03648 158.386 8.04922C158.395 8.05589 158.439 8.06439 158.517 8.03466C158.719 7.99825 158.873 7.994 159.021 7.98429C159.108 7.97883 159.163 7.98125 159.232 7.99703C159.315 8.01584 159.398 8.03587 159.534 8.02616C159.681 8.01524 159.837 8.01402 159.987 8.00492C160.125 7.99642 160.196 8.02312 160.284 8.0389C160.389 8.05771 160.507 8.03647 160.603 8.0474C160.704 8.05832 160.776 8.08502 160.893 8.08987C161.063 8.07349 161.171 8.10383 161.3 8.12385C161.401 8.13902 161.521 8.12567 161.629 8.11899C161.751 8.11171 161.852 8.11839 161.937 8.14024C162.034 8.16512 162.142 8.15965 162.253 8.15419C162.51 8.14206 162.519 8.14023 162.669 8.17361C162.777 8.19788 162.881 8.18696 162.989 8.18393C163.083 8.20031 163.175 8.2179 163.274 8.23247C163.299 8.23611 163.348 8.23004 163.387 8.22822C163.499 8.22337 163.614 8.21851 163.727 8.21366C163.803 8.21062 163.884 8.20152 163.953 8.20516C164.022 8.20941 164.079 8.22701 164.141 8.23854C164.203 8.25007 164.268 8.2616 164.328 8.27373C164.42 8.29194 164.507 8.30711 164.636 8.298C164.746 8.29012 164.861 8.28769 164.976 8.28223C165.121 8.27555 165.117 8.27737 165.386 8.31378C165.531 8.33381 165.68 8.30954 165.827 8.30711C165.901 8.30589 165.972 8.31257 166.023 8.33017C166.044 8.33745 166.037 8.34958 166.044 8.3599C165.664 8.37628 165.282 8.39024 164.907 8.41026C164.762 8.41815 164.686 8.3963 164.608 8.3781C164.479 8.34897 164.309 8.39145 164.187 8.35383C164.114 8.33137 164.008 8.31864 163.881 8.32956C163.808 8.33563 163.729 8.33502 163.654 8.34048C163.46 8.35383 163.283 8.35444 163.129 8.31257C163.076 8.298 163 8.29012 162.945 8.27616C162.881 8.26099 162.819 8.25249 162.743 8.25552C162.4 8.27009 162.059 8.28465 161.719 8.30043C161.689 8.30164 161.659 8.31074 161.634 8.31742C161.569 8.33441 161.59 8.34776 161.694 8.35868C161.728 8.36233 161.756 8.37021 161.788 8.37628C161.85 8.38781 161.908 8.40601 161.977 8.41026C162.046 8.41451 162.126 8.40601 162.202 8.40298C162.278 8.39995 162.358 8.39084 162.428 8.39448C162.497 8.39873 162.554 8.41633 162.618 8.42725C162.648 8.43271 162.685 8.44182 162.715 8.44121C162.867 8.43757 163.016 8.43089 163.168 8.42543C163.263 8.44181 163.343 8.46548 163.456 8.47094C163.527 8.47458 163.603 8.46791 163.677 8.46912C163.709 8.46973 163.75 8.47883 163.766 8.48672C163.775 8.49157 163.746 8.50371 163.723 8.50978C163.635 8.53284 163.516 8.52858 163.407 8.53587C163.29 8.54375 163.184 8.54133 163.095 8.51767C163.035 8.50189 162.968 8.4934 162.894 8.49643C162.703 8.50432 162.515 8.51342 162.324 8.5201C162.292 8.52131 162.253 8.51585 162.223 8.5116C161.981 8.47458 161.981 8.47337 161.811 8.48126C161.56 8.49279 161.56 8.49278 161.392 8.46062C161.36 8.45455 161.326 8.44303 161.298 8.44364C161.031 8.45335 160.767 8.46305 160.502 8.47701C160.415 8.48126 160.355 8.48126 160.29 8.46548C160.235 8.45213 160.171 8.43696 160.102 8.43332C160.03 8.42968 159.952 8.43878 159.876 8.44182C159.8 8.44485 159.72 8.45274 159.653 8.44788C159.584 8.44303 159.524 8.42604 159.465 8.41391C159.402 8.40116 159.336 8.40176 159.251 8.40662C158.988 8.42057 158.986 8.41876 158.726 8.38114C158.696 8.37689 158.657 8.37203 158.625 8.37325C158.434 8.38053 158.245 8.38963 158.054 8.39691C157.981 8.39995 157.91 8.39206 157.859 8.37446C157.838 8.36718 157.845 8.35504 157.831 8.33137C157.815 8.32591 157.834 8.33563 157.838 8.34473C157.873 8.34352 157.914 8.34472 157.939 8.33987C158.004 8.32834 158.036 8.31317 158.02 8.30043C158.011 8.29375 157.967 8.28526 157.939 8.28526C157.889 8.28526 157.845 8.29861 157.831 8.33137C157.686 8.3514 157.532 8.35565 157.383 8.36536C157.295 8.37143 157.24 8.36839 157.171 8.35262C157.088 8.3332 157.003 8.31438 156.867 8.32409C156.72 8.33502 156.564 8.33684 156.412 8.34534C156.237 8.35505 156.161 8.30043 156.014 8.30164C155.862 8.30286 155.71 8.31317 155.559 8.32046C155.425 8.32652 155.425 8.32652 155.149 8.28708C155.048 8.27252 154.928 8.29375 154.829 8.27858C154.763 8.26887 154.705 8.25431 154.641 8.244C154.613 8.23975 154.569 8.23975 154.535 8.24096C154.344 8.24824 154.151 8.2531 153.967 8.26645C153.757 8.28223 153.599 8.26524 153.449 8.22944C153.26 8.23611 153.07 8.23975 152.883 8.25128C152.748 8.25978 152.669 8.23975 152.577 8.22337C152.545 8.21791 152.517 8.2088 152.483 8.20638C152.448 8.20395 152.407 8.2088 152.37 8.21062C152.218 8.2173 152.062 8.22034 151.915 8.23126C151.733 8.24521 151.664 8.19545 151.524 8.18939C151.429 8.21912 151.379 8.25977 151.192 8.26281C151.041 8.26523 150.889 8.27495 150.737 8.28162C150.661 8.28465 150.585 8.2883 150.509 8.29133C150.387 8.29679 150.33 8.32045 150.355 8.35686C150.369 8.37689 150.38 8.39691 150.392 8.41694C150.415 8.45274 150.357 8.48308 150.261 8.48733C149.994 8.49885 149.729 8.51099 149.463 8.5213C149.391 8.52434 149.322 8.51402 149.265 8.49764C149.205 8.48125 149.138 8.47397 149.065 8.47701C148.798 8.48854 148.533 8.50068 148.266 8.51099C148.236 8.51221 148.197 8.50614 148.167 8.50128C148.103 8.49036 148.041 8.47762 147.979 8.46609C147.827 8.47155 147.677 8.47519 147.528 8.48247C147.286 8.49339 147.286 8.494 147.109 8.46062C147.077 8.45455 147.045 8.44303 147.015 8.44364C146.9 8.44607 146.787 8.45213 146.672 8.45759C146.334 8.47337 146.334 8.47337 146.235 8.45516C146.145 8.43817 146.065 8.41754 145.929 8.42725C145.782 8.43818 145.625 8.44181 145.474 8.44788C145.361 8.45213 145.248 8.45699 145.136 8.4582C145.106 8.45881 145.073 8.44728 145.041 8.44121C144.949 8.4224 144.859 8.40723 144.733 8.41754C144.659 8.42361 144.581 8.42483 144.505 8.42786C144.307 8.43636 144.307 8.43635 143.983 8.39994C143.951 8.3963 143.912 8.39206 143.88 8.39388C143.613 8.4048 143.348 8.41694 143.081 8.42725C143.049 8.42847 143.01 8.42482 142.978 8.42179C142.614 8.38659 142.614 8.3866 142.228 8.40359C142.081 8.40966 142.076 8.41208 141.922 8.37992C141.853 8.36596 141.795 8.35929 141.715 8.36354C141.411 8.3781 141.105 8.38781 140.804 8.4048C140.668 8.41208 140.59 8.39388 140.498 8.37749C140.466 8.37203 140.431 8.3599 140.404 8.36051C140.1 8.37204 139.796 8.38599 139.493 8.39752C139.465 8.39873 139.431 8.3866 139.398 8.38114C139.336 8.37021 139.276 8.35383 139.207 8.35019C139.136 8.34655 139.058 8.35565 138.98 8.35868C138.789 8.36657 138.789 8.36597 138.568 8.33017C138.538 8.32531 138.499 8.31864 138.469 8.31985C138.165 8.33198 137.859 8.3423 137.558 8.3599C137.386 8.36961 137.268 8.35201 137.146 8.32652C137.121 8.32106 137.077 8.31864 137.045 8.31985C136.702 8.33381 136.362 8.34958 136.019 8.36354C135.948 8.36657 135.879 8.35625 135.821 8.34048C135.729 8.3156 135.621 8.31863 135.506 8.32409C135.242 8.33684 135.239 8.33623 135.083 8.30711C135.051 8.30104 135.023 8.29315 134.989 8.29012C134.956 8.28708 134.915 8.2889 134.88 8.29012C134.729 8.29618 134.577 8.30286 134.425 8.30953C134.273 8.31621 134.119 8.31985 133.969 8.33017C133.785 8.34291 133.698 8.30346 133.569 8.28526C133.381 8.29315 133.187 8.298 133.001 8.31075C132.858 8.32045 132.792 8.29375 132.697 8.2798C132.665 8.27494 132.631 8.26463 132.601 8.26584C132.258 8.27919 131.915 8.29375 131.575 8.31014C131.492 8.31378 131.437 8.30892 131.368 8.29436C131.214 8.26159 131.207 8.26281 130.949 8.27495C130.836 8.28041 130.728 8.28526 130.632 8.26038C130.546 8.23793 130.443 8.23247 130.321 8.23975C130.172 8.24885 130.017 8.25371 129.866 8.25978C129.714 8.26645 129.562 8.27555 129.41 8.27858C129.288 8.28162 129.215 8.2531 129.118 8.23854C129.088 8.23429 129.047 8.23368 129.012 8.2349C128.86 8.24036 128.704 8.2446 128.557 8.25492C128.377 8.26766 128.278 8.23429 128.152 8.21487C128.124 8.21063 128.078 8.21305 128.044 8.21487C127.777 8.2258 127.512 8.23793 127.245 8.24946C127.151 8.23307 127.055 8.2173 126.96 8.20092C126.808 8.20699 126.657 8.21366 126.505 8.21973C126.39 8.22458 126.272 8.2264 126.164 8.2355C126.024 8.24764 125.955 8.21912 125.861 8.20516C125.828 8.20031 125.794 8.18999 125.764 8.19121C125.573 8.19788 125.382 8.20517 125.194 8.21548C125.014 8.2258 124.943 8.17118 124.796 8.17179C124.644 8.17239 124.487 8.18029 124.34 8.19121C124.17 8.20395 124.05 8.18453 123.928 8.15844C123.903 8.15298 123.859 8.14994 123.827 8.15116C123.636 8.15844 123.448 8.16754 123.257 8.17482C123.224 8.17604 123.185 8.173 123.153 8.16936C122.79 8.13356 122.79 8.13296 122.631 8.14024C122.518 8.14509 122.403 8.15116 122.288 8.15419C122.256 8.15541 122.217 8.14994 122.187 8.14509C121.948 8.10808 121.948 8.10747 121.775 8.11475C121.623 8.12143 121.472 8.1281 121.32 8.13477C121.225 8.11839 121.129 8.10262 121.034 8.08623C120.846 8.09412 120.653 8.10018 120.466 8.11111C120.379 8.11596 120.321 8.11414 120.255 8.09897C120.172 8.08077 120.089 8.05953 119.951 8.06985C119.804 8.08077 119.647 8.08198 119.498 8.09108C119.318 8.10201 119.245 8.04679 119.1 8.0474C118.948 8.048 118.792 8.05589 118.644 8.06681C118.474 8.07955 118.355 8.06014 118.233 8.03405C118.207 8.02859 118.164 8.02555 118.131 8.02677C117.713 8.04436 117.296 8.06196 116.878 8.08077C116.62 8.0923 116.62 8.0929 116.13 8.05953C116.096 8.0571 116.059 8.05468 116.024 8.05589C115.872 8.06135 115.716 8.0656 115.569 8.07591C115.389 8.08866 115.29 8.05589 115.164 8.03586C115.136 8.03162 115.093 8.03404 115.056 8.03526C114.941 8.0395 114.828 8.04497 114.713 8.04983C114.561 8.0565 114.409 8.06317 114.258 8.06985C114.163 8.05407 114.067 8.03769 113.972 8.02191C113.784 8.0298 113.59 8.03405 113.404 8.04679C113.261 8.0565 113.195 8.03101 113.1 8.01645C113.068 8.01159 113.034 8.00128 113.004 8.00189C112.661 8.01524 112.318 8.02919 111.978 8.04618C111.838 8.05346 111.773 8.02615 111.679 8.0122C111.647 8.00795 111.61 8.00007 111.58 8.00128C111.352 8.00977 111.124 8.02009 110.897 8.0304C110.768 8.03647 110.768 8.03647 110.487 7.99885C110.455 7.9946 110.418 7.99035 110.386 7.99157C109.664 8.02191 108.944 8.05407 108.221 8.08441C108.148 8.08744 108.081 8.07834 108.024 8.06196C107.964 8.04558 107.897 8.03708 107.823 8.04012C107.52 8.05286 107.214 8.06439 106.912 8.08017C106.788 8.08684 106.689 8.07895 106.604 8.05771C106.54 8.04193 106.48 8.03587 106.399 8.03951C106.248 8.04679 106.096 8.05285 105.944 8.05953C105.792 8.0662 105.64 8.07288 105.489 8.07956C105.337 8.08623 105.183 8.08987 105.033 8.10019C104.849 8.11293 104.759 8.07531 104.633 8.0565C104.405 8.0656 104.177 8.0747 103.952 8.08441C103.648 8.09715 103.345 8.11111 103.041 8.12325C103.013 8.12446 102.979 8.11354 102.947 8.10808C102.852 8.09291 102.783 8.07167 102.643 8.07834C101.962 8.1105 101.277 8.13781 100.593 8.16936C100.451 8.17604 100.389 8.14994 100.292 8.13599C100.26 8.13174 100.223 8.12325 100.193 8.12446C99.8135 8.13963 99.4339 8.15662 99.0544 8.173C98.9002 8.17968 98.9002 8.17967 98.6426 8.14205C98.6127 8.13781 98.5735 8.13234 98.5413 8.13356C98.0467 8.15419 97.5545 8.17604 97.0599 8.19727C96.9863 8.20031 96.9196 8.19181 96.8598 8.17543C96.8023 8.15905 96.7332 8.14994 96.6619 8.15298C96.2065 8.1724 95.7487 8.19121 95.2955 8.21244C95.1736 8.21851 95.0724 8.21305 94.9849 8.19121C94.9228 8.17543 94.8607 8.16875 94.7825 8.17239C94.0993 8.20213 93.4161 8.23065 92.7329 8.26221C92.6017 8.26827 92.5098 8.25674 92.4269 8.23672C92.3602 8.22094 92.3027 8.21791 92.2199 8.22033C92.1325 8.22337 92.0796 8.23004 92.0313 8.24824C91.9692 8.27191 91.9301 8.30164 91.7828 8.30346C91.631 8.30528 91.4769 8.31257 91.3274 8.32289C91.1847 8.3332 91.118 8.30589 91.0283 8.28951C90.9616 8.27798 90.8995 8.27616 90.8144 8.28162C90.7362 8.28647 90.6879 8.29679 90.6419 8.3162C90.5406 8.35747 90.5314 8.35747 90.4072 8.33137C90.3405 8.31742 90.2807 8.3065 90.207 8.30892C89.9034 8.32106 89.5998 8.33441 89.2961 8.34837C89.1213 8.35625 89.119 8.35747 88.9879 8.32713C88.9235 8.31196 88.8613 8.30467 88.7854 8.30832C87.9504 8.34472 87.1154 8.37992 86.2803 8.41815C86.1515 8.42422 86.0641 8.41147 85.9721 8.39327C85.9422 8.3872 85.9123 8.3787 85.8778 8.37628C85.8433 8.37385 85.8042 8.37628 85.7674 8.37749C85.1601 8.40358 84.5504 8.42847 83.9454 8.45759C83.8074 8.46427 83.7338 8.44485 83.6395 8.42908C83.6073 8.42361 83.5797 8.41512 83.5452 8.41269C83.5107 8.41087 83.4692 8.41511 83.4324 8.41694C82.8251 8.44303 82.2156 8.46791 81.6106 8.49704C81.4656 8.50371 81.4035 8.47822 81.3092 8.46487C81.277 8.46002 81.2425 8.45091 81.2126 8.45213C81.0217 8.4588 80.833 8.4679 80.6421 8.47579C80.1866 8.49582 79.7311 8.51463 79.2756 8.53527C79.1008 8.54315 79.0249 8.48914 78.8777 8.49157C78.6867 8.4946 78.4981 8.50674 78.3072 8.51524C78.1554 8.52191 78.0035 8.52798 77.8517 8.53527C77.7022 8.54194 77.7022 8.54193 77.3295 8.50674C77.2973 8.50371 77.2582 8.49946 77.226 8.50067C76.6946 8.52313 76.161 8.54558 75.6319 8.56985C75.51 8.57531 75.4087 8.57228 75.3213 8.54983C75.2592 8.53405 75.1948 8.52616 75.1189 8.5298C74.3207 8.56439 73.5247 8.59898 72.7265 8.63296C72.6966 8.63417 72.6575 8.6281 72.6276 8.62325C72.5632 8.61233 72.501 8.59959 72.4389 8.58806C72.3929 8.60201 72.3331 8.61475 72.3032 8.63053C72.2618 8.65177 72.2066 8.65784 72.1192 8.66148C72.0318 8.66512 71.9766 8.66391 71.9076 8.64813C71.8248 8.62871 71.7396 8.61354 71.6039 8.6196C70.7689 8.65783 69.9338 8.69242 69.0988 8.73005C68.9607 8.73611 68.8964 8.70941 68.7998 8.69545C68.7676 8.69121 68.7307 8.68454 68.7008 8.68575C68.358 8.69971 68.0176 8.71487 67.6748 8.72944C66.7248 8.7707 65.7748 8.81015 64.827 8.85383C64.6545 8.86172 64.5371 8.84655 64.4152 8.82046C64.3899 8.815 64.3462 8.81196 64.314 8.81318C62.9844 8.87022 61.6548 8.92786 60.3274 8.98551C60.2561 8.98854 60.1871 8.97883 60.1296 8.96305C60.0698 8.94667 60.0031 8.93878 59.9295 8.94182C59.3222 8.96791 58.7149 8.99401 58.1076 9.0207C57.9558 9.02738 57.9535 9.02798 57.797 8.99885C57.7648 8.99279 57.7303 8.98126 57.705 8.98248C57.6521 8.98551 57.6015 9.00067 57.5647 9.0213C57.5279 9.04315 57.4704 9.04922 57.3853 9.05347C57.2978 9.05771 57.2403 9.0559 57.1736 9.04133C57.0885 9.02313 57.0103 9.00553 56.8723 9.0116C55.1263 9.08927 53.3803 9.1639 51.6343 9.24097C51.494 9.24703 51.4296 9.22155 51.3329 9.2076C51.3007 9.20335 51.2685 9.19728 51.234 9.19606C51.1972 9.19485 51.1581 9.19849 51.1213 9.20031C48.2735 9.32349 45.4256 9.44728 42.5777 9.57046C42.4075 9.57774 42.4098 9.57774 42.2235 9.63357C42.2005 9.64024 42.1705 9.64934 42.1383 9.65055C41.2665 9.68939 40.3924 9.72701 39.5182 9.76463C39.1387 9.78102 38.7591 9.79801 38.3795 9.81379C38.2438 9.81925 38.2438 9.81925 37.9195 9.88479C37.8919 9.89025 37.8596 9.89753 37.8274 9.89874C36.3092 9.96488 34.7909 10.031 33.2704 10.096C33.1507 10.1008 33.0541 10.1117 32.9989 10.1409C32.9598 10.1615 32.9092 10.1736 32.8333 10.1773C31.7705 10.2234 30.7078 10.2701 29.6427 10.315C29.5162 10.3205 29.4402 10.3375 29.3781 10.3629C29.3574 10.3714 29.339 10.3811 29.3091 10.3872C29.2815 10.3927 29.2401 10.3945 29.2056 10.3963C28.2947 10.4358 27.3837 10.4764 26.4705 10.514C26.3348 10.5195 26.2795 10.5419 26.2128 10.5656C26.1898 10.5735 26.1737 10.5844 26.1438 10.5899C26.1139 10.5947 26.0702 10.5947 26.0334 10.596C25.2742 10.6287 24.5151 10.6621 23.756 10.6949C23.6088 10.6918 23.5766 10.727 23.5053 10.7483C23.48 10.7555 23.4616 10.7652 23.4317 10.7701C23.3995 10.775 23.358 10.7743 23.3189 10.7756C22.7116 10.8017 22.1043 10.8296 21.4947 10.8538C21.3544 10.8593 21.3268 10.8902 21.2509 10.9115C21.2256 10.9182 21.2003 10.9285 21.1704 10.9303C20.7908 10.9479 20.4113 10.9643 20.0317 10.9801C19.9052 10.9855 19.9052 10.9849 19.6821 11.045C19.6568 11.0517 19.6268 11.0589 19.5946 11.0608C19.0264 11.0862 18.4559 11.1105 17.8854 11.1354C17.8118 11.1384 17.7612 11.153 17.7244 11.1736C17.6876 11.1943 17.6347 11.2076 17.5611 11.2106C17.1056 11.2307 16.6501 11.2513 16.1946 11.2695C16.0681 11.2744 15.9853 11.2895 15.9301 11.3168C15.8887 11.3375 15.8381 11.3478 15.7576 11.3514C15.3021 11.3708 14.8467 11.3921 14.3889 11.4091C14.2555 11.4139 14.1864 11.4345 14.1312 11.46C14.0875 11.4807 14.0369 11.4879 13.9518 11.4916C13.1167 11.5268 12.2794 11.562 11.4467 11.6008C11.3064 11.6075 11.235 11.5862 11.143 11.5711C11.0119 11.5498 10.89 11.5268 10.89 11.4794C10.89 11.4722 10.8509 11.4637 10.8233 11.4576C10.6186 11.4121 10.6186 11.4121 10.5863 11.3636C10.5679 11.3338 10.5472 11.3035 10.5311 11.2731C10.5012 11.2234 10.4276 11.2106 10.216 11.2197C10.1401 11.2228 10.0641 11.227 9.98823 11.2294C9.87551 11.2337 9.79041 11.2137 9.7697 11.1773C9.7582 11.1572 9.74442 11.1372 9.73292 11.1172C9.84794 11.1123 9.84561 11.1117 10.048 11.0383C10.1332 11.0074 10.1332 11.0074 9.96986 10.9764C9.90775 10.9649 9.84793 10.9521 9.78122 10.9412C9.75131 10.9364 9.71222 10.9333 9.68001 10.9345C9.48908 10.9418 9.30046 10.9503 9.11183 10.9588C8.80818 10.9722 8.80814 10.9722 8.49989 10.9103C8.47459 10.9054 8.43548 10.8963 8.44008 10.8915C8.46538 10.869 8.52749 10.8593 8.6057 10.8569C8.72072 10.8532 8.83343 10.8472 8.94615 10.8423C9.02206 10.8393 9.09797 10.8356 9.17389 10.8326C9.2452 10.8095 9.31885 10.7871 9.38556 10.7634C9.49138 10.727 9.49134 10.7258 9.34641 10.7003C9.2544 10.6833 9.15548 10.6682 9.06117 10.6524C8.94845 10.6572 8.83344 10.6627 8.72072 10.6669C8.57809 10.6724 8.52058 10.6609 8.48377 10.6214C8.45157 10.5868 8.49068 10.5571 8.60109 10.5498C8.71381 10.5426 8.81967 10.5377 8.87718 10.5068C8.93239 10.477 9.02899 10.4655 9.14861 10.4631C9.22453 10.4612 9.30044 10.457 9.37635 10.4534C9.47526 10.4485 9.52819 10.4176 9.50749 10.383C9.49598 10.3605 9.47297 10.3417 9.38326 10.3368C8.98529 10.3156 8.98066 10.3162 8.78283 10.275C8.76443 10.2713 8.75066 10.2604 8.75756 10.2549C8.76906 10.2458 8.79437 10.2325 8.82198 10.2307C9.08652 10.2173 9.35105 10.2052 9.6156 10.1961C9.70301 10.193 9.76743 10.1888 9.79734 10.1663C9.83874 10.1354 9.82034 10.1069 9.73983 10.0856C9.71452 10.079 9.67308 10.0705 9.64547 10.0711C9.34182 10.082 9.04049 10.0959 8.73684 10.1069C8.70923 10.1081 8.65865 10.0978 8.64715 10.0899C8.62414 10.0753 8.65863 10.0559 8.73914 10.0492C8.84496 10.0401 8.95307 10.0395 9.02438 10.0092C9.1233 9.96609 9.24521 9.92666 9.35562 9.88539C9.37403 9.87811 9.40397 9.86415 9.39707 9.86293C9.33956 9.84958 9.27284 9.83927 9.21303 9.82653C9.11181 9.80529 9.11179 9.77556 9.1348 9.74704C9.1532 9.72398 9.22221 9.71488 9.30733 9.71488C9.34413 9.71488 9.39014 9.71488 9.42004 9.70942C9.49825 9.69607 9.52357 9.67907 9.48446 9.66633C9.46146 9.65905 9.42007 9.64874 9.39247 9.64995C8.90019 9.66998 8.40557 9.68939 7.91558 9.71427C7.77066 9.72155 7.70399 9.69849 7.61658 9.68211C7.54987 9.66937 7.48772 9.66451 7.40491 9.67361C7.32669 9.68211 7.25081 9.67726 7.2025 9.65724C7.16339 9.64085 7.23239 9.6269 7.41872 9.61112C7.45323 9.60808 7.49232 9.60626 7.51762 9.60019C7.78447 9.53466 7.78446 9.53405 7.96849 9.52556C8.14792 9.51767 8.14796 9.51706 8.24228 9.48187C8.28598 9.46549 8.33425 9.4491 8.37566 9.43211C8.39176 9.42543 8.4194 9.4133 8.4102 9.40966C8.35959 9.39085 8.29055 9.3866 8.21004 9.39085C8.03061 9.40117 7.81901 9.39267 7.72469 9.45032C7.68789 9.47216 7.63037 9.47823 7.54756 9.48187C6.71482 9.51706 5.88206 9.55469 5.04702 9.58867C4.9113 9.59413 4.84922 9.61658 4.79631 9.64146C4.75031 9.66209 4.69969 9.66816 4.61227 9.6718C4.52486 9.67544 4.45581 9.67726 4.4052 9.65724C4.3753 9.6451 4.40061 9.62811 4.46962 9.61112C4.56854 9.58685 4.55013 9.55651 4.51792 9.52799C4.49492 9.50918 4.42361 9.49583 4.34769 9.49704C4.23498 9.49947 4.12689 9.50614 4.03257 9.48187C3.97736 9.46791 3.90834 9.4582 3.84623 9.44606C3.72661 9.42119 3.60698 9.3957 3.43906 9.41209C3.32404 9.40602 3.24352 9.38417 3.15151 9.36718C2.99738 9.33927 2.98358 9.33502 3.094 9.30529C3.21822 9.27192 3.12159 9.22822 3.1906 9.19546C3.26421 9.16026 3.36546 9.12932 3.45517 9.09655C3.47818 9.08806 3.49889 9.08017 3.52189 9.07167C3.46899 9.05954 3.42069 9.04437 3.35858 9.03587C3.27806 9.02495 3.23665 9.0116 3.24125 8.97398C3.22515 8.96852 3.23201 8.98247 3.25041 8.98611C3.27111 8.98975 3.32176 8.98672 3.34706 8.98248C3.41147 8.97095 3.44365 8.95578 3.42754 8.94303C3.41834 8.93636 3.37467 8.92786 3.34706 8.92786C3.29645 8.92786 3.25275 8.94121 3.23895 8.97398C2.98131 8.99886 2.71442 9.011 2.44758 9.0207C2.41997 9.02192 2.38549 9.00978 2.35328 9.00371C2.24747 8.98308 2.24745 8.98368 1.9369 8.97762C1.9047 8.97701 1.86101 8.96852 1.84491 8.96002C1.7782 8.92301 1.78052 8.88235 1.74831 8.84291C1.80812 8.81742 1.86788 8.79255 1.92999 8.76767C2.05421 8.7173 2.21528 8.67301 2.31189 8.61779C2.29119 8.58806 2.26358 8.55832 2.3648 8.53405C2.65234 8.50371 2.65006 8.50371 2.72827 8.47459C2.95141 8.39206 3.17223 8.30893 3.40457 8.22761C3.46668 8.20638 3.46669 8.19485 3.35627 8.18575C3.32177 8.18332 3.28491 8.18271 3.24811 8.18393C3.13309 8.18817 3.01807 8.19909 2.90535 8.19667C2.79263 8.19485 2.70982 8.16815 2.6178 8.15176C2.52349 8.13477 2.42918 8.11718 2.33486 8.09958C2.22674 8.1014 2.11865 8.11839 2.01053 8.09108C1.92772 8.06985 1.82421 8.05468 1.72989 8.03708C1.8012 7.99096 1.93464 7.95577 2.03816 7.91511C2.13248 7.8781 2.13473 7.87871 2.38777 7.85019C2.50739 7.83684 2.5488 7.76827 2.44758 7.74824C2.32566 7.72397 2.19686 7.70152 2.07264 7.67846C1.96453 7.68028 1.85413 7.69667 1.75061 7.66936C1.6701 7.64873 1.57807 7.63477 1.44464 7.64266C1.21921 7.65601 0.989177 7.66268 0.761439 7.67361C0.683226 7.67725 0.598087 7.67482 0.563582 7.65419C0.540578 7.63963 0.607293 7.6196 0.683206 7.61536C0.798225 7.60929 0.901731 7.60201 0.95924 7.57167C1.01445 7.54133 1.11565 7.53222 1.23527 7.52797C1.26748 7.52676 1.30431 7.51948 1.32042 7.5122C1.40323 7.477 1.49525 7.44667 1.67238 7.44788C1.74599 7.43574 1.78507 7.42057 1.76207 7.40601C1.74827 7.39812 1.69998 7.38781 1.67238 7.38902C1.48145 7.39509 1.29052 7.40116 1.10419 7.41208C1.01678 7.41693 0.950032 7.41814 0.894823 7.39994C0.855716 7.3878 0.876418 7.37142 0.95003 7.35382C1.01444 7.33865 1.03286 7.32105 1.02826 7.30042C1.01676 7.25249 0.947736 7.23853 0.7269 7.24157C0.568173 7.24399 0.529065 7.2361 0.494559 7.19484C0.485358 7.18513 0.462394 7.17178 0.478497 7.16511C0.577413 7.12385 0.641828 7.07288 0.828159 7.05346C0.901771 7.04618 0.979953 7.04618 1.02596 7.0304C1.07197 7.01462 1.11339 6.99642 1.1617 6.98125C1.22151 6.96304 1.26288 6.94606 1.23527 6.93453C1.18927 6.9139 1.11568 6.91208 1.03057 6.91936C0.956953 6.92543 0.878743 6.92603 0.80283 6.92967C0.667108 6.93634 0.556714 6.92057 0.540612 6.89387C0.496904 6.82348 0.450883 6.7537 0.411777 6.68331C0.407176 6.67482 0.418647 6.66389 0.43705 6.65661C0.50146 6.63112 0.570499 6.60685 0.63721 6.58198C0.715422 6.55346 0.839663 6.55892 0.945481 6.55346C1.09501 6.54557 1.09495 6.54617 1.29509 6.48792C1.3733 6.46486 1.50903 6.47397 1.58954 6.45333C1.61485 6.44666 1.65395 6.43574 1.64705 6.42967C1.63785 6.42178 1.59187 6.41571 1.55736 6.41207C1.52516 6.40843 1.48606 6.40661 1.45155 6.40843C1.03288 6.42603 0.616526 6.44484 0.197857 6.46183C0.126546 6.46486 0.0483304 6.45152 0.0230263 6.43271C-0.00227791 6.41511 0.00460076 6.39386 0 6.37384C0.066711 6.34896 0.142594 6.3259 0.200104 6.2992C0.243811 6.27857 0.294428 6.26947 0.381843 6.26826C0.496862 6.26644 0.609592 6.25916 0.738413 6.25369C0.977652 6.1651 1.21228 6.07226 1.46992 5.98367C1.57343 5.94787 1.54817 5.91146 1.56887 5.87323C1.58958 5.83804 1.74369 5.8435 1.84721 5.83319C1.93002 5.82469 1.95759 5.80527 1.92539 5.79192C1.90699 5.78403 1.8656 5.77493 1.8334 5.77493C1.75748 5.77493 1.68157 5.78039 1.60566 5.78343C1.52975 5.78646 1.44234 5.78464 1.38023 5.79496C1.32042 5.80467 1.28129 5.82529 1.24218 5.84289C1.19848 5.86231 1.14101 5.86899 1.05359 5.8702C0.940873 5.87141 0.828161 5.87687 0.715443 5.88112C0.591222 5.85745 0.462374 5.8344 0.342754 5.80952C0.31975 5.80467 0.315125 5.79071 0.317425 5.78161C0.322026 5.75795 0.287529 5.74338 0.211617 5.73185C0.147206 5.72214 0.0942931 5.70819 0.0344832 5.69605C0.0804908 5.67967 0.131117 5.66389 0.167923 5.64629C0.248436 5.60927 0.349664 5.58258 0.524493 5.58379C0.593505 5.56013 0.648698 5.531 0.738413 5.51462C0.823527 5.49884 0.968457 5.51461 1.03287 5.47881C1.06507 5.46121 1.11341 5.44119 1.17552 5.43391C1.27443 5.42238 1.40325 5.42845 1.46076 5.39447C1.49527 5.37506 1.54586 5.35745 1.61257 5.3526C1.68848 5.34714 1.76667 5.34593 1.82188 5.3344C1.85179 5.32833 1.884 5.31862 1.884 5.31013C1.884 5.30467 1.83803 5.29617 1.80582 5.29253C1.77592 5.28828 1.73676 5.28525 1.70226 5.28646C1.58724 5.2901 1.47452 5.29678 1.3595 5.30042C1.3273 5.30163 1.2905 5.29738 1.256 5.29374C1.15478 5.28403 1.16167 5.2719 1.24218 5.25005C1.3227 5.22882 1.38024 5.20151 1.44695 5.17663C1.52056 5.17238 1.61256 5.1742 1.66317 5.16267C1.74828 5.14386 1.80808 5.11655 1.87709 5.09289C1.953 5.08925 2.03121 5.08804 2.10252 5.08136C2.13243 5.07894 2.14624 5.06558 2.17154 5.0577C2.21755 5.04253 2.25669 5.02068 2.3188 5.0134C2.42002 5.00248 2.54424 5.00672 2.60405 4.97335C2.63855 4.95393 2.69144 4.93331 2.75585 4.93209C2.93528 4.92967 3.01119 4.89628 3.10321 4.86473C3.17222 4.84107 3.31945 4.8532 3.39536 4.82954C3.44597 4.81437 3.4828 4.79556 3.53341 4.78099C3.55411 4.77492 3.5978 4.77189 3.63231 4.77007C3.82094 4.76097 4.01186 4.75429 4.20049 4.74459C4.2304 4.74277 4.25803 4.73367 4.28103 4.72639C4.32934 4.71061 4.35921 4.68876 4.41902 4.67845C4.47883 4.66813 4.56393 4.66813 4.63754 4.6651C4.87448 4.656 4.8929 4.65842 5.00102 4.60684C5.08844 4.56497 5.3024 4.59471 5.37371 4.54859C5.41512 4.52189 5.491 4.50005 5.62672 4.49701C5.81765 4.49277 6.00628 4.48124 6.19721 4.47335C6.36744 4.46607 6.36514 4.46606 6.54917 4.40963C6.63199 4.38415 6.75393 4.38779 6.86205 4.38294C6.97707 4.37808 7.08287 4.3708 7.13808 4.34046C7.19329 4.31073 7.2945 4.30102 7.41182 4.29677C7.51993 4.29252 7.64188 4.29556 7.72699 4.27129C7.93403 4.21303 7.93173 4.21242 8.07666 4.20636C8.30439 4.19665 8.53212 4.18694 8.75986 4.17662C8.91169 4.16995 9.07041 4.16874 9.21303 4.15539C9.31655 4.14568 9.36254 4.1117 9.42925 4.08803C9.61788 4.07893 9.80651 4.06982 9.99514 4.06133C10.2597 4.04919 10.5265 4.03827 10.7934 4.02675C10.9084 4.00369 10.9245 3.95272 11.1178 3.95029C11.2328 3.94907 11.3455 3.94119 11.4605 3.93633C11.6514 3.92784 11.8401 3.91691 12.031 3.91267C12.1759 3.90963 12.2012 3.87686 12.2771 3.85623C12.3024 3.84895 12.3254 3.83864 12.3553 3.83682C12.6544 3.81983 12.9626 3.81619 13.2548 3.79131C13.2847 3.78888 13.3123 3.77614 13.3192 3.76703C13.3238 3.76218 13.2847 3.75308 13.2594 3.74883C13.2295 3.74398 13.1904 3.73912 13.1582 3.74034C12.2081 3.78099 11.2581 3.82226 10.308 3.86291C10.1746 3.86898 10.1746 3.86837 9.85024 3.93512C9.82264 3.94058 9.79039 3.94665 9.75589 3.94847C9.60406 3.95575 9.44994 3.96 9.30042 3.9691C9.1785 3.97638 9.07731 3.9691 8.9899 3.94725C8.92779 3.93147 8.86335 3.92662 8.78513 3.92784C8.69772 3.92966 8.64024 3.93633 8.58964 3.95272C8.52293 3.97517 8.48841 4.00429 8.34809 4.01036C7.70168 4.03645 7.05523 4.06558 6.41113 4.09349C6.32141 4.085 6.27771 4.07226 6.30071 4.05709C6.31452 4.04798 6.34213 4.03585 6.36974 4.03463C6.63428 4.02189 6.90112 4.01097 7.16566 3.99884C7.20247 3.99701 7.25307 3.99822 7.27377 3.99215C7.37499 3.96485 7.41183 3.92055 7.60276 3.91752C7.71318 3.9157 7.82589 3.9066 7.9317 3.8981C7.96161 3.89568 7.98922 3.88293 7.99612 3.87383C7.99842 3.86898 7.96161 3.85987 7.93401 3.85562C7.83279 3.83803 7.71549 3.85927 7.61428 3.84714C7.57977 3.84289 7.53143 3.83682 7.52453 3.82954C7.51993 3.82286 7.55904 3.81194 7.58665 3.80526C7.61195 3.79919 7.64644 3.79374 7.68094 3.79191C7.98459 3.77796 8.28829 3.76339 8.59194 3.75247C8.71616 3.74822 8.80355 3.73305 8.85876 3.70514C8.90017 3.68451 8.95078 3.67359 9.02899 3.67055C9.56038 3.6481 10.0918 3.62322 10.6254 3.60259C10.7589 3.59774 10.8279 3.57772 10.8831 3.55162C10.9268 3.53099 10.9774 3.52371 11.0625 3.52007C11.824 3.48852 12.5808 3.45332 13.3422 3.42298C13.4825 3.41752 13.524 3.39143 13.5953 3.36898C13.6206 3.36109 13.6366 3.35138 13.6688 3.34653C13.701 3.34167 13.7424 3.34227 13.7816 3.34106C14.3889 3.31497 14.9962 3.28706 15.6058 3.26279C15.7484 3.25733 15.776 3.22698 15.8496 3.20574C15.8749 3.19907 15.8979 3.18815 15.9278 3.18633C16.3833 3.1657 16.8388 3.14628 17.2942 3.12626C17.5979 3.11291 17.9015 3.09956 18.2052 3.08681C18.3547 3.08075 18.3547 3.08014 18.5571 3.02249C18.5801 3.01582 18.6124 3.00793 18.6423 3.00611C19.5164 2.96727 20.3882 2.93026 21.2624 2.89203C21.336 2.889 21.3889 2.87504 21.4257 2.85441C21.4625 2.83377 21.5155 2.81982 21.5868 2.81678C22.27 2.78644 22.9532 2.75671 23.6387 2.72819C23.7629 2.72334 23.8503 2.70878 23.9055 2.68147C23.9469 2.66084 23.9975 2.64992 24.0757 2.64689C24.759 2.61776 25.4422 2.58681 26.1277 2.55889C26.2588 2.55343 26.3232 2.53281 26.3876 2.50853C26.4106 2.50004 26.4291 2.48608 26.4567 2.48487C26.7971 2.46788 27.1353 2.45028 27.478 2.43875C27.6206 2.4339 27.669 2.40841 27.7265 2.38414C27.7725 2.36472 27.8254 2.35805 27.9128 2.35562C28.1038 2.35016 28.2924 2.33985 28.4787 2.32953C28.5063 2.32771 28.5408 2.31436 28.5431 2.30586C28.5477 2.29009 28.4948 2.27916 28.4074 2.2737C27.4964 2.31314 26.5832 2.35258 25.6723 2.39203C25.5227 2.3987 25.5227 2.3987 25.3203 2.45635C25.2973 2.46302 25.2651 2.47091 25.2328 2.47273C24.3587 2.51096 23.4869 2.54858 22.6127 2.58681C22.5391 2.58985 22.4862 2.6038 22.4494 2.62443C22.4126 2.64507 22.3597 2.65902 22.2884 2.66206C21.4533 2.69846 20.6183 2.73548 19.781 2.77007C19.6567 2.77492 19.5693 2.78887 19.5141 2.81678C19.4727 2.83742 19.4221 2.84834 19.3439 2.85138C18.5457 2.88536 17.7497 2.92115 16.9492 2.95392C16.8687 2.95696 16.8089 2.93936 16.8135 2.92297C16.8158 2.91448 16.8502 2.90053 16.8779 2.89932C17.2942 2.87929 17.7083 2.85866 18.127 2.84349C18.2673 2.83863 18.3087 2.81193 18.38 2.78948C18.403 2.78159 18.4214 2.77128 18.4513 2.76703C18.4835 2.76218 18.5249 2.76278 18.564 2.76157C19.5509 2.71849 20.5378 2.6748 21.527 2.63414C21.6696 2.62808 21.6972 2.59834 21.7708 2.5771C21.7961 2.56982 21.8191 2.5589 21.849 2.55769C22.1526 2.54312 22.4563 2.53038 22.7599 2.51764C23.2913 2.49458 23.8227 2.47152 24.3564 2.44846C24.5105 2.44179 24.5105 2.44178 24.7084 2.38474C24.7314 2.37807 24.7636 2.36958 24.7935 2.36837C26.199 2.30708 27.6046 2.24579 29.0101 2.18511C29.0837 2.18208 29.1366 2.16812 29.1734 2.14749C29.2102 2.12747 29.2631 2.1129 29.3344 2.10926C31.2346 2.02674 33.1324 1.94421 35.0325 1.8629C35.1567 1.85744 35.2441 1.84469 35.2993 1.81617C35.3384 1.79554 35.3913 1.78462 35.4695 1.78098C37.5583 1.69057 39.647 1.60016 41.7381 1.50914C43.1436 1.44846 44.5491 1.38656 45.9547 1.3271C46.0835 1.32164 46.1525 1.30282 46.2169 1.27794C46.2376 1.26945 46.2583 1.25549 46.2859 1.25428C46.5873 1.23911 46.8886 1.22515 47.19 1.2112C47.2843 1.22758 47.3786 1.24336 47.4729 1.25974C47.5442 1.23669 47.6133 1.21302 47.6846 1.18996C48.14 1.17236 48.5886 1.14506 49.0487 1.13656C49.0786 1.13595 49.1108 1.14749 49.143 1.15355C49.3569 1.19178 49.4788 1.18875 49.6146 1.13778C49.6629 1.11957 49.7043 1.10319 49.7779 1.10015C50.0056 1.08923 50.2357 1.08195 50.4611 1.06921C50.5831 1.06253 50.6842 1.0686 50.7717 1.09044C50.8338 1.10622 50.8982 1.1129 50.9741 1.10926C51.3928 1.09105 51.8092 1.07346 52.2278 1.05404C52.2577 1.05282 52.2853 1.0425 52.3083 1.03522C52.3566 1.01945 52.398 1.00246 52.444 0.986076C52.5062 0.996392 52.5752 1.00428 52.6258 1.01763C52.6902 1.03341 52.75 1.0334 52.8374 1.02916C54.5075 0.955734 56.1799 0.884133 57.8499 0.810103C57.9926 0.804035 58.0547 0.829523 58.1513 0.842873C58.1835 0.847727 58.2157 0.853792 58.2502 0.855006C58.287 0.856219 58.3261 0.852582 58.3629 0.850761C59.6166 0.79615 60.8703 0.742141 62.1241 0.687529C62.2897 0.680247 62.2897 0.680247 62.5358 0.717869C62.5657 0.722723 62.6048 0.728185 62.637 0.726365C63.2075 0.7027 63.778 0.677216 64.3462 0.652944C64.4198 0.64991 64.482 0.659617 64.5487 0.673573C64.6798 0.700879 64.6889 0.700882 64.7856 0.660833C64.8316 0.642022 64.8799 0.630488 64.9558 0.625027C65.0386 0.618959 65.1053 0.620786 65.1698 0.631708C65.2618 0.646878 65.3285 0.67236 65.4688 0.665685C66.0761 0.637165 66.6857 0.613502 67.2907 0.584376C67.4287 0.577701 67.5023 0.598331 67.5944 0.613501C67.6266 0.618962 67.6565 0.627458 67.691 0.629278C67.7255 0.631099 67.7669 0.626847 67.8037 0.625027C68.5628 0.592259 69.3242 0.560105 70.081 0.524911C70.2237 0.518236 70.2858 0.544323 70.3824 0.557673C70.4146 0.562527 70.4514 0.571027 70.4813 0.569813C70.9368 0.551002 71.3946 0.530972 71.8501 0.510948C72.0134 0.503666 72.0133 0.504273 72.2618 0.541288C72.2917 0.546142 72.3308 0.550998 72.363 0.549784C72.8944 0.527333 73.4281 0.504274 73.9595 0.481216C74.1228 0.473934 74.1228 0.473935 74.5944 0.505489C74.6289 0.507916 74.6657 0.511562 74.7002 0.510348C75.3075 0.484256 75.9171 0.458767 76.5244 0.430854C76.6463 0.425393 76.7476 0.430246 76.835 0.45209C76.8971 0.467867 76.9615 0.474545 77.0374 0.470905C77.7206 0.441172 78.4061 0.412653 79.0871 0.3811C79.2182 0.375032 79.3033 0.388376 79.3953 0.405973C79.4252 0.412041 79.4551 0.420538 79.4896 0.422965C79.5241 0.425392 79.5632 0.422963 79.6 0.421143C80.2832 0.39141 80.9687 0.363498 81.6496 0.331338C81.7877 0.324663 81.8613 0.345293 81.9533 0.360463C81.9855 0.365924 82.02 0.376847 82.0476 0.37624C82.3145 0.365925 82.5813 0.356826 82.8458 0.341656C82.9885 0.333161 83.0506 0.361069 83.1472 0.374418C83.1794 0.378666 83.2162 0.387772 83.2461 0.386559C83.8166 0.362894 84.3871 0.338017 84.9553 0.312531C85.0358 0.30889 85.0956 0.314346 85.16 0.330123C85.2451 0.351361 85.3441 0.359857 85.4683 0.353182C85.7328 0.339225 85.9997 0.329519 86.2665 0.31799C86.423 0.311315 86.423 0.311317 86.9014 0.342871C86.9359 0.345298 86.9727 0.348936 87.0072 0.347723C87.4627 0.328305 87.9205 0.309496 88.3737 0.288258C88.4956 0.28219 88.5968 0.287649 88.6842 0.309494C88.7463 0.325271 88.8084 0.331949 88.8866 0.328308C89.3053 0.310104 89.7217 0.291899 90.1404 0.273695C90.2922 0.26702 90.444 0.255488 90.5959 0.255488C90.7063 0.256095 90.7868 0.28522 90.8857 0.299783C90.9133 0.304031 90.9593 0.299182 90.9961 0.297968C91.5275 0.27491 92.0612 0.25367 92.5903 0.227578C92.7283 0.220903 92.8019 0.241533 92.8939 0.256703C92.9261 0.262164 92.9606 0.273087 92.9882 0.27248C93.1792 0.265805 93.3678 0.256703 93.5587 0.248814C93.7865 0.239105 94.0165 0.231824 94.2419 0.218474C94.426 0.207552 94.495 0.260342 94.6422 0.262162C94.7549 0.263982 94.8699 0.253669 94.9826 0.248814C95.2104 0.239105 95.4381 0.228184 95.6658 0.219689C95.7464 0.216655 95.8085 0.206942 95.8338 0.185097C95.8384 0.18085 95.7993 0.171752 95.774 0.16629C95.4681 0.104397 95.468 0.104394 95.1598 0.117743C94.9688 0.126239 94.7802 0.134735 94.5893 0.142017C94.5571 0.14323 94.5203 0.138376 94.4881 0.134736C94.3961 0.12442 94.4053 0.112285 94.4835 0.0904405C94.5617 0.0685957 94.6215 0.0418989 94.6882 0.0170201C94.7825 0.0327969 94.8746 0.0485681 94.9689 0.0643448C95.0448 0.0613108 95.1207 0.0576754 95.1966 0.0546414C95.5762 0.0388646 95.9557 0.0224799 96.3353 0.00791668C96.3629 0.00670308 96.3974 0.0188408 96.4296 0.0249088C96.5216 0.042506 96.6044 0.0576718 96.7379 0.050997C97.0783 0.0333999 97.4211 0.0206571 97.7615 0.00548711C97.911 -0.00118768 97.911 -0.00118708 98.1733 0.0364345C98.2032 0.0406821 98.2423 0.0455367 98.2745 0.0443231C98.6173 0.0303668 98.9577 0.0151986 99.3005 0.000635388C99.3741 -0.00239861 99.4454 0.00548948 99.4983 0.0230867C99.519 0.0303682 99.5144 0.0425019 99.6018 0.142017C99.8733 0.222721 100.06 0.21423 100.248 0.206949C100.329 0.203915 100.4 0.200878 100.453 0.188742C100.481 0.182067 100.515 0.172357 100.515 0.164468C100.515 0.1584 100.464 0.14869 100.432 0.147476C100.205 0.13534 99.9883 0.160829 99.7651 0.16629C99.6616 0.168718 99.5719 0.147479 99.5535 0.112892C99.5489 0.103183 99.542 0.092868 99.5351 0.0831592C99.5282 0.0734504 99.5236 0.0631354 99.5167 0.0534266C99.427 0.0503926 99.3741 0.0613132 99.335 0.0819444C99.3028 0.0989348 99.2568 0.118352 99.1946 0.127454C99.1325 0.137163 99.0474 0.135346 98.9715 0.13838C98.8979 0.141414 98.8174 0.149301 98.7484 0.145054C98.6794 0.140199 98.6241 0.122599 98.5597 0.111677C98.5298 0.106216 98.493 0.0983303 98.4631 0.0995439C98.1986 0.10986 97.9364 0.120171 97.6741 0.133521C97.5361 0.140802 97.4671 0.115321 97.3797 0.0995439C97.3107 0.0874079 97.2416 0.0904381 97.2301 0.118351C97.2002 0.185099 97.306 0.21301 97.5407 0.200267C97.7339 0.189345 97.9087 0.18753 98.0606 0.228792C98.0813 0.234254 98.1296 0.23668 98.1595 0.235466C98.3481 0.228185 98.5344 0.219082 98.7231 0.2118C98.7576 0.210587 98.7944 0.21301 98.8266 0.215437C99.2959 0.248204 99.2959 0.248814 99.4546 0.241533C99.5305 0.237892 99.6041 0.234858 99.5972 0.142624C99.7421 0.043716 99.9722 0.0370424 100.195 0.0224793C100.34 0.0133773 100.402 0.0400776 100.497 0.054034C100.529 0.0588884 100.563 0.0685954 100.593 0.0673818C101.088 0.0473574 101.58 0.0261165 102.072 0.00366494C102.155 2.41444e-05 102.215 0.00366553 102.279 0.0194423C102.362 0.0394667 102.454 0.0522121 102.585 0.0449305C102.848 0.0303674 103.114 0.0212674 103.381 0.00913146C103.517 0.00306347 103.517 0.00305725 103.791 0.0406788C103.821 0.0449264 103.86 0.0497811 103.892 0.0485675C104.159 0.0382519 104.423 0.025513 104.688 0.0145906C104.762 0.0115566 104.828 0.0200509 104.886 0.0364345C104.943 0.052818 105.012 0.0613123 105.084 0.0582783C105.35 0.047356 105.615 0.0352238 105.88 0.0243014C105.912 0.0230878 105.951 0.0273351 105.981 0.0315827C106.261 0.0692043 106.261 0.069198 106.39 0.0631301C106.579 0.0540281 106.772 0.0497852 106.958 0.0376492C107.14 0.0255133 107.234 0.0607046 107.359 0.0801222C107.699 0.0661658 108.042 0.0546396 108.38 0.0376492C108.518 0.0303677 108.592 0.0503902 108.684 0.066167C108.716 0.0716282 108.748 0.0831586 108.778 0.0825518C108.893 0.0801246 109.006 0.073451 109.119 0.0685966C109.231 0.0637422 109.346 0.0588884 109.459 0.054034C109.588 0.0716312 109.673 0.112893 109.857 0.0989365C109.967 0.0904413 110.085 0.088621 110.197 0.0837666C110.31 0.0789122 110.425 0.0740584 110.538 0.069204C110.614 0.06617 110.692 0.0643469 110.766 0.0588857C110.901 0.0497837 110.968 0.0795204 111.065 0.09287C111.097 0.0971176 111.134 0.104394 111.164 0.103181C111.391 0.0946857 111.621 0.0874047 111.844 0.0734483C112.017 0.0625259 112.134 0.0807323 112.256 0.106218C112.282 0.111679 112.325 0.114713 112.357 0.113499C112.624 0.103184 112.889 0.0904372 113.153 0.0795148C113.225 0.0764808 113.294 0.0861893 113.351 0.101966C113.411 0.11835 113.478 0.126244 113.551 0.12321C113.816 0.112288 114.083 0.100148 114.347 0.0892257C114.379 0.0880121 114.419 0.0928674 114.448 0.0977218C114.706 0.135343 114.706 0.135951 114.858 0.128669C114.895 0.126849 114.934 0.12563 114.971 0.12381C115.159 0.115315 115.355 0.112285 115.539 0.0977218C115.75 0.0813382 115.905 0.10197 116.054 0.136558C116.243 0.129276 116.436 0.125028 116.62 0.112892C116.758 0.10379 116.832 0.126847 116.924 0.142017C116.956 0.147478 116.99 0.1584 117.018 0.157187C117.285 0.146871 117.552 0.137773 117.814 0.122603C117.957 0.114107 118.019 0.141408 118.115 0.155365C118.147 0.160219 118.182 0.168719 118.212 0.167505C118.364 0.162651 118.516 0.155366 118.667 0.148691C118.845 0.140802 118.844 0.141409 119.079 0.178423C119.19 0.196021 119.3 0.182064 119.408 0.177816C119.523 0.172962 119.631 0.169322 119.723 0.194201C119.781 0.209978 119.85 0.219687 119.921 0.217259C120.073 0.211798 120.227 0.20634 120.377 0.197238C120.496 0.189956 120.6 0.194808 120.687 0.217259C120.749 0.233036 120.814 0.240929 120.89 0.237288C121.23 0.222725 121.573 0.20755 121.913 0.193593C121.943 0.19238 121.984 0.197843 122.012 0.203304C122.077 0.214227 122.139 0.22636 122.201 0.238496C122.35 0.233035 122.504 0.230614 122.652 0.222119C122.808 0.213623 122.951 0.210588 123.073 0.243962C123.098 0.251244 123.135 0.261554 123.165 0.260947C123.28 0.25852 123.392 0.252454 123.505 0.247599C123.618 0.242745 123.733 0.237891 123.845 0.233037C123.977 0.248207 124.059 0.291896 124.244 0.277939C124.354 0.269444 124.471 0.267624 124.584 0.262769C124.697 0.257915 124.812 0.252454 124.924 0.248207C124.961 0.246993 125.003 0.243957 125.035 0.246385C125.069 0.248812 125.099 0.257309 125.129 0.263377C125.221 0.280974 125.306 0.298573 125.437 0.288258C125.548 0.279762 125.665 0.277941 125.778 0.27248C125.932 0.265805 125.932 0.265807 126.187 0.304035C126.291 0.319812 126.408 0.299181 126.507 0.312531C126.574 0.321633 126.631 0.3368 126.696 0.347115C126.723 0.351363 126.767 0.353181 126.799 0.351967C126.951 0.346506 127.105 0.341047 127.255 0.331945C127.377 0.324664 127.478 0.331944 127.563 0.353789C127.625 0.369566 127.687 0.376244 127.765 0.372604C128.145 0.355613 128.525 0.341045 128.902 0.322234C129.031 0.31556 129.134 0.325878 129.205 0.347723C129.327 0.385344 129.5 0.341049 129.626 0.371389C129.705 0.3902 129.783 0.412045 129.925 0.402943C130.188 0.387167 130.455 0.378667 130.719 0.367744C130.813 0.384128 130.908 0.400515 131.004 0.416899C131.156 0.410224 131.308 0.403545 131.46 0.397477C131.572 0.392623 131.688 0.387162 131.8 0.382914C131.837 0.381701 131.876 0.379273 131.911 0.382307C131.945 0.385341 131.973 0.393231 132.005 0.399299C132.164 0.429032 132.164 0.429642 132.426 0.417506C132.539 0.412045 132.647 0.408404 132.741 0.432676C132.829 0.455128 132.932 0.459373 133.052 0.452698C133.277 0.440562 133.505 0.43146 133.735 0.422965C133.806 0.419931 133.873 0.430247 133.933 0.446024C134.022 0.470903 134.133 0.468476 134.246 0.461801C134.395 0.453306 134.542 0.444813 134.669 0.478793C134.694 0.486075 134.733 0.496385 134.761 0.495778C134.949 0.490924 135.14 0.487286 135.324 0.475756C135.508 0.464227 135.598 0.501848 135.725 0.520052C135.913 0.512163 136.104 0.504274 136.293 0.496385C136.33 0.494565 136.373 0.489107 136.406 0.492141C136.541 0.504884 136.62 0.550393 136.806 0.536436C136.914 0.528548 137.031 0.526124 137.144 0.524303C137.174 0.523696 137.213 0.534007 137.234 0.541895C137.245 0.546143 137.234 0.557671 137.22 0.563739C137.179 0.58073 137.128 0.596511 137.091 0.614108C137.086 0.616536 137.13 0.627453 137.156 0.632308C137.218 0.64323 137.289 0.641414 137.372 0.63656C137.443 0.632312 137.517 0.640807 137.567 0.659011C137.588 0.666292 137.581 0.678427 137.537 0.718476C137.537 0.748209 137.586 0.734857 137.602 0.715439C137.627 0.687526 137.579 0.678425 137.487 0.693595C137.422 0.704518 137.39 0.720296 137.406 0.733039C137.415 0.739713 137.459 0.748209 137.537 0.718476C137.74 0.682068 137.892 0.675397 138.043 0.668722C138.083 0.666901 138.129 0.660829 138.156 0.66447C138.255 0.679033 138.347 0.696633 138.444 0.713017C138.554 0.709376 138.658 0.70027 138.766 0.723935C138.918 0.757309 138.925 0.754276 139.072 0.747601C139.148 0.74396 139.224 0.740932 139.299 0.737898C139.375 0.734864 139.435 0.743963 139.502 0.757919C139.638 0.786439 139.649 0.786436 139.739 0.747601C139.792 0.723936 139.829 0.71605 139.895 0.726972C140.116 0.763987 140.118 0.766412 140.307 0.75549C140.463 0.746388 140.611 0.743961 140.726 0.778549C140.804 0.80282 140.829 0.79736 140.891 0.771875C141.057 0.70452 141.133 0.705731 141.443 0.754275C141.588 0.777333 141.738 0.752457 141.885 0.749423C142.009 0.746996 142.097 0.761557 142.106 0.799785C142.113 0.82345 142.134 0.840444 142.216 0.848332C142.249 0.851366 142.288 0.855612 142.32 0.854398C142.511 0.847117 142.699 0.83862 142.89 0.830125C142.987 0.825877 143.04 0.797363 143.021 0.759742C143.001 0.719693 143.038 0.705124 143.176 0.693595C143.258 0.68692 143.325 0.688139 143.392 0.699062C143.465 0.711198 143.445 0.722119 143.38 0.743964C143.226 0.797363 143.245 0.830124 143.442 0.867139C143.511 0.879882 143.567 0.891416 143.583 0.910227C143.592 0.919935 143.583 0.932678 143.603 0.939959C143.716 0.980615 143.873 1.00671 144.047 1.02613C144.215 1.00974 144.33 1.03704 144.459 1.05889C144.56 1.07588 144.68 1.06132 144.788 1.05525C144.91 1.04858 145.011 1.05343 145.099 1.07588C145.161 1.09166 145.225 1.09894 145.301 1.0959C145.453 1.08923 145.607 1.08498 145.757 1.07527C145.885 1.06678 145.982 1.07892 146.063 1.09955C146.164 1.12564 146.277 1.10804 146.382 1.11168C146.525 1.11593 146.596 1.16993 146.783 1.15537C146.893 1.14687 147.008 1.14384 147.123 1.14141C147.153 1.14081 147.19 1.15112 147.215 1.15841C147.337 1.19178 147.48 1.18996 147.636 1.18025C147.744 1.17357 147.85 1.16751 147.956 1.19057C148.131 1.2294 148.324 1.26339 148.508 1.29919C148.533 1.3271 148.515 1.35986 148.646 1.37624C148.715 1.38474 148.779 1.39749 148.832 1.41144C148.897 1.42783 148.956 1.43208 149.039 1.42783C149.189 1.41933 149.345 1.41751 149.492 1.40658C149.628 1.39688 149.713 1.41691 149.796 1.43572C149.863 1.45089 149.925 1.45816 150.005 1.44724C150.088 1.43693 150.148 1.4436 150.215 1.45998C150.309 1.48243 150.316 1.48001 150.629 1.48669C150.661 1.48729 150.7 1.49639 150.719 1.50428C150.728 1.50853 150.707 1.52067 150.691 1.52674C150.67 1.53402 150.638 1.54251 150.608 1.54433C150.268 1.56011 149.925 1.57406 149.584 1.58984C149.55 1.59166 149.513 1.59591 149.488 1.60198C149.46 1.60865 149.426 1.61775 149.426 1.62625C149.426 1.63231 149.472 1.6396 149.504 1.64384C149.605 1.6578 149.725 1.63656 149.824 1.65234C149.89 1.66266 149.946 1.67722 150.012 1.68692C150.04 1.69117 150.084 1.69057 150.118 1.68935C150.233 1.68511 150.346 1.67904 150.461 1.6754C150.493 1.67479 150.53 1.68086 150.56 1.68572C150.781 1.72213 150.781 1.72212 150.972 1.71424C151.048 1.7112 151.128 1.7021 151.199 1.70574C151.268 1.70938 151.328 1.72576 151.39 1.73608C151.519 1.75792 151.641 1.77916 151.65 1.82649C151.655 1.8447 151.731 1.86047 151.807 1.86168C151.88 1.8629 151.958 1.85623 152.034 1.85259C152.214 1.84531 152.214 1.84531 152.446 1.88232C152.511 1.89264 152.58 1.89385 152.662 1.88778C152.695 1.88535 152.734 1.88778 152.768 1.89082C152.881 1.89992 152.881 1.91144 152.807 1.93329C152.704 1.96545 152.713 1.96849 153.003 1.99579C153.113 2.00611 153.198 2.02553 153.29 2.04252C153.44 2.06982 153.438 2.06982 153.339 2.10562C153.316 2.11351 153.295 2.122 153.272 2.1305C153.205 2.15416 153.152 2.17965 153.014 2.18208C152.862 2.1845 152.711 2.19421 152.559 2.20089C152.412 2.20756 152.373 2.22212 152.386 2.26338C152.402 2.31314 152.432 2.3186 152.697 2.318C152.773 2.318 152.839 2.32285 152.897 2.33923C152.869 2.35865 152.819 2.37382 152.745 2.37746C152.557 2.38656 152.366 2.39445 152.177 2.40234C152.025 2.40902 151.873 2.41569 151.722 2.42237C151.627 2.42661 151.567 2.45817 151.593 2.49336C151.606 2.51339 151.618 2.53341 151.629 2.55344C151.655 2.59348 151.703 2.6038 151.857 2.60198C151.896 2.60138 151.933 2.59652 151.97 2.59773C152.119 2.60198 152.191 2.65234 152.37 2.64203C152.52 2.63353 152.676 2.63171 152.823 2.62079C152.959 2.61108 153.035 2.63293 153.129 2.64931C153.162 2.65478 153.196 2.6663 153.224 2.66569C153.415 2.65902 153.606 2.65235 153.792 2.64082C153.879 2.63596 153.932 2.6396 154.001 2.65417C154.167 2.68936 154.171 2.68754 154.418 2.67662C154.597 2.66812 154.599 2.66934 154.829 2.70635C154.894 2.71667 154.963 2.71666 155.046 2.71181C155.154 2.70574 155.266 2.69603 155.379 2.70514C155.414 2.70756 155.457 2.71485 155.469 2.72274C155.476 2.7282 155.444 2.74155 155.416 2.74579C155.214 2.77735 154.977 2.77189 154.756 2.78463C154.687 2.78827 154.618 2.77674 154.56 2.76036C154.5 2.74397 154.436 2.7373 154.358 2.74033C154.206 2.74701 154.052 2.75125 153.902 2.76096C153.773 2.76946 153.684 2.7555 153.594 2.73669C153.564 2.73062 153.53 2.71909 153.5 2.7197C153.159 2.73183 152.817 2.74397 152.478 2.76096C152.343 2.76825 152.264 2.74883 152.172 2.73245C152.14 2.72698 152.108 2.71545 152.078 2.71606C151.963 2.71849 151.85 2.72516 151.735 2.73002C151.317 2.74822 150.9 2.76642 150.482 2.78341C150.454 2.78463 150.42 2.77188 150.387 2.76642C150.325 2.7555 150.261 2.74518 150.196 2.73487C150.081 2.73972 149.969 2.74579 149.854 2.74943C149.771 2.75186 149.697 2.76036 149.686 2.78341C149.679 2.79858 149.755 2.81254 149.835 2.81133C149.913 2.81011 149.992 2.80283 150.056 2.81072C150.376 2.84955 150.376 2.85016 150.576 2.84227C150.751 2.83499 150.732 2.82892 150.886 2.86229C150.953 2.87686 151.013 2.88536 151.089 2.88172C151.278 2.87322 151.468 2.86472 151.659 2.85744C151.689 2.85623 151.728 2.8623 151.758 2.86715C151.984 2.90356 151.984 2.90477 152.17 2.89567C152.414 2.88475 152.423 2.88172 152.586 2.91873C152.699 2.94422 152.803 2.92662 152.911 2.9254C153.035 2.94907 153.171 2.97031 153.283 2.99701C153.417 3.02856 153.557 3.0231 153.709 3.01399C153.822 3.00732 153.932 3.00489 154.024 3.02977C154.112 3.05283 154.217 3.05526 154.337 3.04919C154.445 3.04373 154.556 3.0322 154.668 3.04555C154.698 3.04919 154.744 3.05829 154.742 3.06376C154.74 3.07225 154.71 3.08439 154.68 3.08803C154.468 3.11291 154.236 3.1123 154.013 3.12383C153.983 3.12565 153.944 3.11897 153.914 3.11412C153.849 3.1032 153.787 3.09045 153.725 3.07893C153.612 3.08257 153.497 3.08378 153.387 3.09106C153.302 3.09652 153.237 3.09592 153.175 3.08136C153.118 3.06801 153.056 3.05162 152.987 3.04737C152.918 3.04312 152.837 3.05223 152.761 3.05587C152.685 3.05951 152.598 3.05768 152.538 3.06739C152.478 3.0771 152.442 3.09834 152.402 3.11533C152.359 3.13414 152.299 3.14021 152.211 3.14204C152.131 3.14386 152.067 3.14143 152.007 3.12444C151.981 3.11715 151.947 3.11169 151.912 3.10684C151.88 3.10259 151.843 3.09591 151.814 3.09713C151.471 3.11108 151.13 3.12626 150.788 3.14082C150.617 3.1481 150.62 3.1481 150.265 3.1123C150.233 3.10926 150.194 3.10502 150.162 3.10623C149.971 3.11351 149.782 3.12201 149.591 3.1305C149.398 3.139 149.4 3.13778 149.071 3.09955C149.012 3.09227 148.924 3.10198 148.853 3.10077C148.703 3.09774 148.63 3.04677 148.455 3.05647C148.305 3.06497 148.149 3.06679 147.999 3.07771C147.864 3.08742 147.786 3.06618 147.694 3.0498C147.661 3.04434 147.627 3.0322 147.599 3.03342C147.256 3.04677 146.916 3.06194 146.461 3.06376C146.348 3.06376 146.398 3.0765 146.472 3.08075C146.578 3.08742 146.612 3.07468 146.555 3.05041C146.513 3.03342 146.454 3.02492 146.405 3.02916C146.38 3.03159 146.348 3.04312 146.461 3.06376C146.58 3.08681 146.573 3.09955 146.594 3.10684C146.645 3.12443 146.716 3.13171 146.79 3.12929C146.905 3.12504 147.017 3.11897 147.132 3.11533C147.164 3.11412 147.204 3.11837 147.233 3.12322C147.487 3.16084 147.489 3.16327 147.758 3.14871C147.843 3.14446 147.905 3.14446 147.972 3.15599C148.064 3.17177 148.131 3.19846 148.271 3.18997C148.457 3.17844 148.648 3.17177 148.839 3.16509C148.869 3.16388 148.901 3.1748 148.936 3.17966C149.03 3.19422 149.099 3.22153 149.239 3.21C149.348 3.20089 149.465 3.19846 149.58 3.19664C149.61 3.19603 149.656 3.20575 149.67 3.21363C149.697 3.22759 149.663 3.24398 149.584 3.25551C149.552 3.26036 149.509 3.25915 149.472 3.26097C149.32 3.26764 149.168 3.27492 149.016 3.28038C148.936 3.28341 148.86 3.29252 148.851 3.31497C148.844 3.33014 148.927 3.34349 149.005 3.34227C149.12 3.34045 149.235 3.3356 149.345 3.32771C149.541 3.31436 149.711 3.318 149.87 3.35623C149.982 3.38293 149.976 3.37322 150.095 3.45211C150.125 3.47213 150.215 3.47395 150.293 3.47274C150.482 3.4697 150.569 3.47881 150.553 3.49762C150.532 3.52068 150.466 3.52795 150.38 3.53099C150.229 3.53584 150.077 3.54374 149.925 3.55041C149.888 3.55223 149.847 3.55587 149.812 3.55465C149.778 3.55344 149.746 3.54616 149.716 3.5407C149.651 3.52917 149.596 3.51157 149.527 3.50732C149.458 3.50307 149.377 3.51218 149.302 3.51582C149.226 3.51885 149.145 3.52795 149.076 3.52371C149.007 3.51946 148.95 3.50126 148.887 3.49034C148.858 3.48488 148.821 3.47638 148.791 3.47698C148.639 3.48184 148.487 3.48973 148.335 3.4958C148.149 3.50368 148.149 3.50369 147.924 3.46606C147.859 3.45514 147.792 3.45575 147.707 3.4606C147.523 3.47031 147.521 3.46849 147.185 3.43329C147.153 3.42965 147.114 3.42541 147.082 3.42723C146.739 3.44118 146.398 3.45635 146.058 3.47092C145.766 3.48366 145.766 3.48366 145.605 3.54434C145.485 3.58925 145.483 3.58924 145.6 3.60987C145.695 3.62687 145.78 3.65174 145.883 3.66084C145.98 3.66934 146.099 3.64203 146.205 3.66995C146.258 3.6839 146.327 3.69908 146.394 3.7015C146.5 3.70454 146.612 3.68694 146.714 3.71364C146.764 3.72698 146.84 3.74095 146.905 3.74155C147.017 3.74277 147.132 3.73305 147.245 3.72881C147.28 3.72759 147.319 3.72759 147.351 3.73063C147.385 3.73427 147.415 3.74155 147.445 3.74762C147.537 3.76825 147.636 3.77796 147.756 3.76764C147.951 3.75065 148.126 3.75915 148.278 3.79798C148.299 3.80344 148.349 3.80405 148.381 3.80163C148.464 3.79556 148.535 3.79495 148.598 3.80648C148.623 3.81133 148.66 3.81982 148.655 3.82528C148.648 3.83439 148.621 3.84652 148.591 3.84956C148.374 3.87019 148.142 3.87262 147.919 3.88354C147.889 3.88476 147.852 3.87686 147.822 3.8714C147.758 3.86048 147.703 3.84228 147.634 3.83803C147.565 3.83378 147.484 3.84167 147.408 3.84471C147.332 3.84774 147.252 3.85684 147.183 3.8532C147.114 3.84895 147.049 3.83378 146.994 3.82043C146.93 3.80526 146.868 3.80345 146.783 3.80951C146.672 3.8174 146.557 3.81861 146.444 3.82286C146.382 3.81133 146.32 3.79859 146.256 3.78766C146.226 3.7822 146.189 3.77553 146.157 3.77614C146.005 3.78099 145.853 3.78827 145.701 3.79494C145.55 3.80162 145.55 3.80163 145.292 3.764C145.262 3.75976 145.223 3.7549 145.191 3.75612C145 3.7634 144.811 3.77249 144.62 3.77977C144.547 3.78281 144.48 3.77431 144.42 3.75793C144.363 3.74155 144.294 3.73245 144.222 3.73548C143.919 3.74822 143.615 3.76036 143.311 3.77553C143.189 3.7816 143.086 3.77614 143.003 3.75429C142.906 3.72941 142.798 3.73548 142.686 3.74034C142.43 3.75247 142.428 3.75186 142.265 3.72092C142.232 3.71485 142.2 3.70332 142.17 3.70392C141.906 3.71303 141.639 3.72152 141.377 3.73609C141.239 3.74397 141.165 3.72274 141.073 3.70696C141.041 3.7015 141.006 3.68997 140.979 3.69118C140.788 3.69786 140.597 3.70393 140.411 3.71606C140.224 3.7282 140.153 3.67177 140.013 3.67238C139.822 3.67298 139.633 3.68694 139.444 3.69544C139.293 3.70211 139.141 3.70878 138.989 3.71546C138.837 3.72213 138.685 3.72759 138.533 3.73548C138.453 3.73973 138.393 3.73426 138.326 3.71909C138.241 3.69907 138.14 3.6833 138.048 3.6651C137.908 3.639 137.908 3.639 137.738 3.64628C137.701 3.6481 137.662 3.64931 137.625 3.65113C137.346 3.66448 137.346 3.66327 136.992 3.62504C136.976 3.62322 136.935 3.6299 136.919 3.63476C136.87 3.65053 136.827 3.66752 136.783 3.6839C136.721 3.67419 136.645 3.66873 136.603 3.65478C136.486 3.61534 136.302 3.66934 136.182 3.6305C136.139 3.61594 136.063 3.6032 135.994 3.59956C135.922 3.59592 135.842 3.60441 135.768 3.60805C135.577 3.61715 135.577 3.61655 135.414 3.67055C135.331 3.69725 135.212 3.6924 135.104 3.69847C134.991 3.70514 134.883 3.70878 134.788 3.6839C134.703 3.66145 134.6 3.65599 134.478 3.66327C134.328 3.67238 134.174 3.67783 134.022 3.6833C133.99 3.68451 133.951 3.68148 133.919 3.67784C133.567 3.64204 133.567 3.64143 133.397 3.64932C133.321 3.65296 133.243 3.65417 133.169 3.65963C133.045 3.66934 132.95 3.6566 132.861 3.63718C132.831 3.63111 132.796 3.61959 132.766 3.62019C132.615 3.62323 132.465 3.62869 132.316 3.63415C132.2 3.6384 132.085 3.64082 131.975 3.64932C131.791 3.66327 131.701 3.62383 131.575 3.60562C131.386 3.61351 131.195 3.61897 131.007 3.6299C130.919 3.63475 130.862 3.63293 130.795 3.61837C130.71 3.60017 130.632 3.57954 130.494 3.58864C130.31 3.60077 130.116 3.60502 129.928 3.6123C129.801 3.59349 129.709 3.55526 129.527 3.56922C129.417 3.57771 129.3 3.57953 129.187 3.58439C129.035 3.59106 128.883 3.59713 128.732 3.60442C128.568 3.6117 128.571 3.60988 128.32 3.57408C128.175 3.55284 128.025 3.5765 127.878 3.58014C127.763 3.58318 127.706 3.61109 127.733 3.64689C127.761 3.68269 127.699 3.7106 127.593 3.71546C127.328 3.72699 127.061 3.73912 126.797 3.74943C126.765 3.75065 126.726 3.7464 126.696 3.74215C126.413 3.70392 126.413 3.70454 126.286 3.71C126.098 3.7191 125.904 3.72395 125.718 3.73548C125.589 3.74337 125.495 3.73063 125.412 3.71C125.348 3.69422 125.288 3.69058 125.205 3.69422C124.294 3.73488 123.383 3.7725 122.474 3.81437C122.339 3.82043 122.261 3.80284 122.169 3.78646C122.136 3.78099 122.106 3.76946 122.074 3.76946C121.998 3.76946 121.922 3.77493 121.846 3.77857C121.506 3.79313 121.166 3.81072 120.823 3.82165C120.678 3.8265 120.639 3.85442 120.577 3.87748C120.528 3.89507 120.473 3.90235 120.388 3.90478C120.305 3.90721 120.245 3.90417 120.181 3.88839C120.098 3.86776 120.004 3.85502 119.875 3.86351C119.726 3.87322 119.574 3.87747 119.42 3.88415C119.341 3.88718 119.282 3.8981 119.256 3.91995C119.252 3.92359 119.3 3.93269 119.328 3.93816C119.42 3.95636 119.507 3.9776 119.611 3.99034C119.716 4.00308 119.831 3.98851 119.942 3.98487C119.981 3.98366 120.018 3.98002 120.054 3.98063C120.089 3.98123 120.13 3.98427 120.156 3.98973C120.275 4.01704 120.402 4.03585 120.567 4.01946C120.71 4.02735 120.784 4.07772 120.965 4.06437C121.076 4.05648 121.191 4.05284 121.306 4.0498C121.336 4.0492 121.368 4.06012 121.4 4.06558C121.492 4.08075 121.566 4.10502 121.704 4.09471C121.851 4.08378 122.008 4.08197 122.157 4.07347C122.24 4.06862 122.3 4.07286 122.364 4.08864C122.447 4.10866 122.541 4.12383 122.67 4.11412C122.78 4.10563 122.898 4.1038 123.01 4.09834C123.158 4.09167 123.158 4.09228 123.42 4.1299C123.45 4.13415 123.489 4.139 123.521 4.13779C123.712 4.13051 123.901 4.1214 124.092 4.11412C124.165 4.11109 124.237 4.11897 124.287 4.13657C124.308 4.14385 124.301 4.156 124.308 4.16631C123.928 4.1827 123.549 4.19665 123.171 4.21667C123.029 4.22456 122.964 4.19968 122.87 4.18573C122.838 4.18087 122.803 4.17056 122.774 4.17177C122.507 4.18209 122.242 4.19301 121.978 4.20636C121.895 4.2106 121.833 4.20818 121.771 4.19058C121.612 4.14385 121.419 4.16934 121.239 4.17602C121.101 4.18087 121.057 4.19968 121.074 4.23973C121.094 4.28706 121.177 4.30163 121.389 4.29313C121.465 4.2901 121.541 4.28585 121.616 4.28342C121.69 4.28099 121.757 4.28888 121.817 4.30526C121.874 4.32165 121.943 4.33014 122.014 4.32772C122.166 4.32225 122.32 4.3168 122.468 4.30769C122.589 4.30041 122.691 4.30648 122.776 4.32893C122.87 4.35381 122.981 4.34835 123.091 4.34289C123.349 4.33075 123.351 4.33136 123.512 4.3617C123.544 4.36777 123.576 4.3793 123.606 4.37869C123.871 4.36959 124.138 4.3617 124.398 4.34714C124.533 4.33986 124.612 4.35927 124.701 4.37505C124.733 4.38051 124.766 4.39265 124.796 4.39143C124.987 4.38476 125.177 4.37808 125.364 4.36655C125.451 4.36109 125.504 4.36473 125.575 4.37929C125.746 4.41509 125.75 4.41388 125.992 4.40235C126.065 4.39871 126.146 4.39204 126.215 4.39689C126.284 4.40175 126.339 4.41935 126.404 4.43027C126.433 4.43512 126.47 4.44179 126.502 4.44058C126.654 4.43572 126.806 4.42845 126.958 4.42177C127.101 4.4151 127.101 4.41571 127.367 4.45333C127.476 4.4691 127.588 4.45575 127.696 4.4509C127.814 4.44544 127.919 4.44544 128.009 4.4691C128.099 4.49277 128.207 4.49155 128.322 4.4867C128.43 4.48184 128.541 4.4685 128.651 4.48488C128.904 4.5225 128.904 4.5231 129.06 4.51582C129.288 4.50551 129.514 4.4958 129.744 4.4867C129.774 4.48548 129.813 4.49277 129.843 4.49762C129.907 4.50854 129.962 4.52674 130.031 4.53099C130.1 4.53585 130.181 4.52857 130.254 4.52493C130.491 4.5134 130.507 4.50915 130.666 4.5492C130.8 4.58197 130.965 4.53464 131.089 4.57226C131.161 4.5935 131.257 4.61048 131.391 4.60017C131.501 4.59167 131.616 4.58924 131.731 4.58439C131.913 4.5765 131.913 4.57711 132.143 4.61352C132.173 4.61838 132.212 4.62444 132.242 4.62323C132.394 4.61837 132.548 4.61413 132.695 4.6032C132.868 4.59046 132.978 4.61352 133.107 4.63597C133.208 4.65357 133.328 4.63901 133.436 4.63294C133.553 4.62687 133.659 4.62869 133.746 4.65235C133.838 4.67662 133.946 4.67359 134.062 4.66874C134.17 4.66449 134.28 4.65053 134.39 4.66752C134.627 4.70514 134.627 4.70514 134.8 4.69786C134.952 4.69119 135.104 4.68391 135.255 4.67905C135.285 4.67784 135.322 4.68573 135.352 4.69119C135.416 4.70211 135.472 4.72032 135.541 4.72456C135.61 4.72881 135.69 4.72092 135.766 4.71789C135.842 4.71486 135.922 4.70575 135.992 4.70939C136.061 4.71304 136.125 4.72821 136.18 4.74156C136.245 4.75733 136.304 4.75915 136.392 4.75308C136.502 4.74519 136.617 4.74337 136.73 4.73913C136.792 4.75066 136.856 4.76218 136.916 4.77493C136.978 4.78828 137.045 4.78706 137.13 4.78281C137.413 4.76825 137.415 4.77007 137.652 4.8077C137.76 4.82469 137.873 4.81073 137.981 4.80648C138.096 4.80163 138.204 4.7992 138.294 4.82347C138.382 4.84653 138.49 4.84956 138.605 4.84228C138.678 4.83743 138.757 4.8344 138.832 4.83258C138.867 4.83197 138.908 4.8344 138.934 4.83925C139.056 4.86474 139.175 4.8878 139.343 4.87141C139.49 4.87627 139.564 4.92602 139.741 4.91631C139.891 4.90782 140.047 4.90599 140.194 4.89507C140.33 4.88536 140.427 4.90236 140.496 4.9236C140.62 4.96122 140.795 4.91025 140.919 4.94726C140.99 4.9685 141.082 4.98549 141.22 4.97639C141.372 4.96668 141.42 4.97942 141.464 5.01765C141.489 5.03949 141.485 5.05709 141.439 5.07408C141.393 5.09168 141.342 5.08865 141.269 5.06862C141.184 5.04617 141.082 5.04192 140.96 5.04677C140.841 5.05163 140.767 5.02008 140.668 5.00794C140.569 4.9952 140.452 5.01644 140.348 5.00005C140.105 4.96183 140.105 4.96182 139.939 4.96911C139.826 4.97396 139.709 4.97639 139.599 4.98488C139.467 4.9952 139.382 4.97639 139.293 4.9594C139.26 4.95333 139.228 4.9418 139.201 4.9424C138.936 4.95151 138.669 4.96 138.407 4.97517C138.269 4.98306 138.195 4.96122 138.103 4.94605C138.071 4.94059 138.037 4.92966 138.009 4.93088C137.781 4.93937 137.556 4.95029 137.328 4.96061C137.284 4.97699 137.236 4.99277 137.195 5.01036C137.151 5.02857 137.091 5.03646 137.004 5.03585C136.859 5.03585 136.716 5.06134 136.571 5.02918C136.422 4.99641 136.41 4.99823 136.265 5.00612C136.081 5.01644 135.886 5.01401 135.713 5.03767C135.683 5.04192 135.651 5.05345 135.651 5.06194C135.649 5.0674 135.697 5.07529 135.727 5.08015C135.828 5.09471 135.945 5.07347 136.047 5.08864C136.113 5.09835 136.169 5.11291 136.235 5.12323C136.263 5.12748 136.304 5.12687 136.341 5.12626C136.38 5.12566 136.417 5.12141 136.454 5.12202C136.488 5.12263 136.525 5.12626 136.553 5.13172C136.679 5.15478 136.813 5.17602 136.925 5.20333C137.036 5.23003 137.139 5.21182 137.25 5.21061C137.691 5.25309 137.692 5.25369 137.988 5.24034C138.062 5.23731 138.138 5.23367 138.214 5.23428C138.246 5.23428 138.276 5.24519 138.308 5.25126C138.4 5.26947 138.487 5.28585 138.616 5.27614C138.727 5.26765 138.844 5.26583 138.957 5.26037C139.109 5.25369 139.109 5.25369 139.366 5.29192C139.431 5.30163 139.5 5.30042 139.582 5.29556C139.654 5.29132 139.727 5.30042 139.778 5.31802C139.799 5.3253 139.792 5.33743 139.799 5.34775C139.571 5.35746 139.341 5.36413 139.12 5.3787C138.977 5.3878 138.913 5.3617 138.819 5.34775C138.786 5.34289 138.752 5.33258 138.722 5.33379C138.497 5.34289 138.271 5.3532 138.046 5.36534C138.018 5.36655 137.984 5.38051 137.981 5.38901C137.977 5.40478 138.034 5.41995 138.117 5.41935C138.227 5.41874 138.336 5.40842 138.435 5.4333C138.517 5.45515 138.621 5.46486 138.743 5.45515C138.816 5.44969 138.895 5.44969 138.968 5.44483C139.164 5.43027 139.341 5.4333 139.488 5.47457C139.601 5.48549 139.711 5.47518 139.819 5.46972C139.9 5.46547 139.978 5.46122 140.036 5.47274C140.158 5.49702 140.277 5.52129 140.445 5.50491C140.627 5.5219 140.765 5.5577 140.917 5.58682C140.988 5.60078 141.043 5.60867 141.126 5.59957C141.16 5.59593 141.202 5.59593 141.239 5.5941C141.315 5.59107 141.395 5.58197 141.464 5.58561C141.533 5.58986 141.591 5.60746 141.653 5.61838C141.683 5.62384 141.717 5.63294 141.747 5.63233C141.862 5.6293 141.975 5.62323 142.088 5.61838C142.2 5.61413 142.313 5.60989 142.426 5.60564C142.52 5.62141 142.617 5.63719 142.711 5.65297C142.863 5.6463 143.015 5.63962 143.164 5.63355C143.332 5.62627 143.332 5.62687 143.574 5.6645C143.682 5.68149 143.797 5.67056 143.9 5.66267C144.073 5.64993 144.188 5.67299 144.31 5.69726C144.335 5.70212 144.381 5.70515 144.411 5.70272C144.531 5.69423 144.634 5.7009 144.721 5.72335C144.784 5.73913 144.846 5.74642 144.922 5.74338C145.186 5.73185 145.451 5.71971 145.715 5.7094C145.747 5.70818 145.784 5.71365 145.814 5.7185C146.049 5.75552 146.051 5.75734 146.224 5.74763C146.378 5.73913 146.52 5.73549 146.642 5.76886C146.668 5.77614 146.707 5.78646 146.734 5.78586C146.923 5.77979 147.114 5.77311 147.3 5.7628C147.385 5.75794 147.445 5.75977 147.512 5.77372C147.597 5.79132 147.673 5.81256 147.813 5.80467C148.202 5.78222 148.204 5.78585 148.664 5.82772C148.697 5.83075 148.74 5.8259 148.777 5.82348C148.855 5.81741 148.913 5.8259 148.982 5.83986C149.136 5.87141 149.14 5.86959 149.288 5.86292C149.4 5.85746 149.518 5.85624 149.628 5.84714C149.798 5.83379 149.911 5.85746 150.038 5.87991C150.139 5.89751 150.256 5.88294 150.364 5.87748C150.482 5.87141 150.587 5.87323 150.675 5.89629C150.735 5.91207 150.799 5.92057 150.875 5.91753C151.139 5.90661 151.404 5.89447 151.669 5.88355C151.701 5.88234 151.74 5.88719 151.77 5.89144C152.032 5.92906 152.032 5.93088 152.292 5.91693C152.375 5.91268 152.444 5.91146 152.506 5.92421C152.566 5.93634 152.63 5.94787 152.692 5.9594C152.805 5.95515 152.92 5.95394 153.03 5.94666C153.116 5.9412 153.175 5.94363 153.242 5.95637C153.329 5.97275 153.403 6.00127 153.541 5.98731C153.612 5.98063 153.695 5.98246 153.767 5.97639C153.852 5.9685 153.909 5.97335 153.976 5.98913C154.059 6.00794 154.144 6.02736 154.277 6.01765C154.424 6.00673 154.581 6.00491 154.73 5.99641C154.813 5.99156 154.871 5.99641 154.937 6.01219C155.02 6.03221 155.115 6.04496 155.243 6.03707C155.506 6.0219 155.508 6.02493 155.763 6.06316C155.828 6.07287 155.897 6.07166 155.98 6.0668C156.051 6.06256 156.124 6.07166 156.175 6.08925C156.223 6.10867 156.219 6.1208 156.223 6.13112ZM135.725 0.658403C135.649 0.661437 135.573 0.665078 135.462 0.612286C135.456 0.603184 135.46 0.592264 135.444 0.584376C135.407 0.567992 135.35 0.556464 135.281 0.554643C135.157 0.552216 135.007 0.572843 135.009 0.58862C135.012 0.60197 135.051 0.613497 135.127 0.624419C135.159 0.628667 135.184 0.63595 135.214 0.640804C135.301 0.65476 135.37 0.682071 135.497 0.668114C135.485 0.649304 135.474 0.630493 135.497 0.668114C135.485 0.691173 135.52 0.707557 135.603 0.714232C135.626 0.716052 135.66 0.714836 135.679 0.711195C135.75 0.697845 135.761 0.679645 135.709 0.631708C135.699 0.639596 135.706 0.653548 135.727 0.657189C135.748 0.66083 135.798 0.657799 135.824 0.653552C135.888 0.642023 135.92 0.626851 135.904 0.614108C135.895 0.607434 135.851 0.598938 135.824 0.598938C135.775 0.598938 135.732 0.612287 135.725 0.658403ZM154.326 7.69545C154.158 7.70698 153.964 7.70273 153.796 7.7264C153.767 7.73065 153.737 7.74157 153.734 7.75006C153.732 7.75552 153.778 7.76342 153.806 7.76766C153.868 7.77737 153.937 7.77433 154.017 7.7713C154.139 7.76705 154.211 7.79496 154.305 7.80892C154.335 7.81317 154.374 7.8162 154.406 7.81499C154.592 7.80771 154.776 7.79982 154.963 7.79133C154.995 7.78951 155.029 7.78526 155.057 7.7798C155.149 7.7622 155.14 7.75067 155.05 7.73732C154.951 7.72276 154.873 7.69848 154.772 7.68695C154.627 7.67057 154.48 7.69242 154.326 7.69545ZM141.262 8.13842C141.149 8.14327 141.039 8.14812 140.926 8.15298C140.889 8.1548 140.85 8.1554 140.815 8.15783C140.744 8.16208 140.691 8.17482 140.657 8.19484C140.71 8.21062 140.774 8.21972 140.845 8.2179C140.958 8.21426 141.068 8.20638 141.181 8.20456C141.303 8.20213 141.374 8.22944 141.469 8.24339C141.499 8.24764 141.535 8.24824 141.57 8.24885C141.74 8.25128 141.844 8.21973 141.811 8.17543C141.788 8.14084 141.701 8.12021 141.595 8.12446C141.485 8.12871 141.372 8.13356 141.262 8.13842ZM155.112 6.7986C155.14 6.78828 155.17 6.78101 155.184 6.7719C155.225 6.74096 155.209 6.7179 155.133 6.69362C155.041 6.66389 154.928 6.68392 154.825 6.68695C154.799 6.68756 154.772 6.7003 154.758 6.70819C154.749 6.71365 154.749 6.72518 154.763 6.72822C154.875 6.75249 154.995 6.77493 155.112 6.7986ZM135.156 5.00612C135.046 5.01097 134.933 5.01462 134.823 5.02129C134.795 5.02311 134.77 5.03464 134.754 5.04253C134.724 5.05709 134.756 5.07711 134.851 5.07893C134.959 5.08136 135.071 5.07105 135.184 5.06619C135.327 5.06012 135.412 5.03767 135.359 5.01825C135.308 4.99944 135.239 4.9958 135.156 5.00612ZM14.0668 3.70939C14.1404 3.70636 14.2163 3.70393 14.2899 3.69968C14.3589 3.69543 14.4119 3.68208 14.4464 3.66206C14.3889 3.64628 14.3245 3.63779 14.2531 3.63961C14.1404 3.64325 14.03 3.6481 13.9196 3.65417C13.8506 3.65781 13.7839 3.67116 13.7678 3.69179C13.7517 3.70757 13.9058 3.71667 14.0668 3.70939ZM125.428 3.61594C125.458 3.6214 125.488 3.63233 125.518 3.63233C125.591 3.63233 125.667 3.62868 125.736 3.62262C125.766 3.62019 125.789 3.60927 125.803 3.60077C125.812 3.59531 125.81 3.5856 125.796 3.58075C125.73 3.55162 125.463 3.56194 125.419 3.59531C125.414 3.60138 125.426 3.60927 125.428 3.61594ZM118.17 0.293109C118.177 0.302818 118.18 0.312526 118.189 0.322234C118.207 0.340438 118.258 0.353791 118.331 0.362893C118.389 0.347723 118.419 0.330735 118.417 0.312531C118.414 0.302822 118.407 0.293107 118.398 0.283398C118.38 0.265194 118.329 0.25185 118.256 0.242748C118.198 0.257311 118.17 0.274299 118.17 0.293109ZM160.428 8.244C160.408 8.25189 160.387 8.25978 160.364 8.26706C160.426 8.28465 160.484 8.29011 160.527 8.28041C160.555 8.27434 160.571 8.26523 160.592 8.25735C160.53 8.23975 160.474 8.2349 160.428 8.244ZM158.998 8.32652C159.028 8.33198 159.055 8.33927 159.087 8.34291C159.14 8.34898 159.189 8.33866 159.225 8.31681C159.195 8.31135 159.168 8.30407 159.136 8.30043C159.083 8.29436 159.034 8.30468 158.998 8.32652ZM159.904 8.21548C159.888 8.23004 159.92 8.24218 160.005 8.25249C160.026 8.24461 160.054 8.23732 160.067 8.22883C160.09 8.21487 160.051 8.20213 159.968 8.19242C159.945 8.1997 159.925 8.20759 159.904 8.21548ZM155.048 7.56135C155.032 7.57591 155.064 7.58805 155.149 7.59836C155.17 7.59048 155.197 7.58319 155.211 7.5747C155.234 7.56074 155.195 7.548 155.112 7.53829C155.089 7.54557 155.069 7.55346 155.048 7.56135ZM148.432 3.26764C148.411 3.27553 148.391 3.28342 148.368 3.2907C148.43 3.3083 148.487 3.31375 148.531 3.30405C148.558 3.29798 148.575 3.28888 148.595 3.28099C148.533 3.26339 148.478 3.25854 148.432 3.26764ZM142.094 0.989713C142.15 0.993961 142.196 0.985469 142.235 0.963018C142.205 0.957557 142.177 0.950274 142.145 0.946633C142.092 0.940565 142.044 0.950884 142.007 0.972729C142.037 0.978797 142.067 0.984252 142.094 0.989713ZM138.729 0.847117C138.708 0.855006 138.688 0.862894 138.665 0.870176C138.727 0.887773 138.784 0.893232 138.828 0.883524C138.855 0.877456 138.872 0.868353 138.892 0.860465C138.83 0.842868 138.775 0.838622 138.729 0.847117ZM115.907 0.292502C115.886 0.30039 115.866 0.308279 115.843 0.315561C115.905 0.333158 115.962 0.338617 116.006 0.328908C116.033 0.32284 116.05 0.313738 116.07 0.30585C116.008 0.288253 115.953 0.284007 115.907 0.292502ZM2.27045 5.22942C2.24054 5.22396 2.21066 5.2185 2.18306 5.21243C2.11635 5.22882 2.09565 5.24398 2.13246 5.25551C2.15546 5.2628 2.18994 5.26704 2.21984 5.27251C2.28885 5.25612 2.30495 5.24155 2.27045 5.22942Z" fill="#00B6F0"/>
<path d="M15.6124 3.08671C15.3479 3.09824 15.0857 3.1128 14.8211 3.12008C14.6808 3.12372 14.6302 3.14981 14.5727 3.17408C14.5267 3.1935 14.4738 3.19957 14.3887 3.20321C13.671 3.23294 12.9555 3.2645 12.2401 3.29544C12.1504 3.28755 12.1067 3.27481 12.1274 3.25964C12.1389 3.25054 12.1665 3.2378 12.1941 3.23659C12.6841 3.21413 13.1717 3.19107 13.664 3.17348C13.8043 3.16862 13.8435 3.14192 13.9148 3.12008C13.9378 3.1128 13.9562 3.10187 13.9861 3.09763C14.016 3.09277 14.0597 3.09338 14.0988 3.09217C14.8902 3.05758 15.6815 3.0236 16.4728 2.98901C16.5625 2.9969 16.6063 3.00964 16.5855 3.02481C16.574 3.03391 16.5464 3.04666 16.5188 3.04787C16.2152 3.06061 15.9138 3.07336 15.6124 3.08671Z" fill="#00B6F0"/>
<path d="M160.459 6.31797C160.339 6.32525 160.187 6.33556 160.063 6.30037C160.003 6.28338 159.939 6.27792 159.86 6.28156C159.748 6.28763 159.633 6.29248 159.518 6.29612C159.488 6.29673 159.449 6.29005 159.419 6.28459C159.354 6.27367 159.299 6.25547 159.23 6.25062C159.161 6.24576 159.078 6.25911 159.007 6.25607C158.913 6.25183 158.874 6.23545 158.899 6.22028C158.913 6.21178 158.94 6.19964 158.97 6.19782C159.396 6.17537 159.398 6.17537 159.518 6.19722C159.61 6.21421 159.695 6.23301 159.826 6.2227C159.936 6.2142 160.054 6.21238 160.166 6.20692C160.323 6.19964 160.323 6.20025 160.576 6.23847C160.64 6.24818 160.709 6.24758 160.792 6.24212C160.863 6.23787 160.933 6.24758 160.99 6.26396C160.953 6.28459 160.9 6.29794 160.829 6.30158C160.714 6.30765 160.601 6.3119 160.459 6.31797Z" fill="#00B6F0"/>
<path d="M156.224 6.13107C156.514 6.11833 156.806 6.10741 157.096 6.09285C157.216 6.08678 157.31 6.09345 157.393 6.11409C157.482 6.13654 157.584 6.13472 157.694 6.13047C157.763 6.12804 157.83 6.13775 157.876 6.15474C157.894 6.16141 157.89 6.17355 157.897 6.18326C157.643 6.19418 157.388 6.20571 157.133 6.21542C157.103 6.21663 157.066 6.21057 157.038 6.20571C156.976 6.1954 156.923 6.17719 156.857 6.17355C156.714 6.16506 156.572 6.18144 156.427 6.18447C156.358 6.18568 156.291 6.17659 156.245 6.1602C156.226 6.15231 156.231 6.14078 156.224 6.13107Z" fill="#00B6F0"/>
<path d="M51.4759 0.913826C51.7773 0.900476 52.0786 0.887739 52.3799 0.87439C52.4697 0.882885 52.5111 0.895019 52.4927 0.910189C52.4812 0.919291 52.4535 0.932034 52.4259 0.933247C51.8232 0.960553 51.2206 0.986642 50.6202 1.01273C50.5305 1.00424 50.4891 0.992105 50.5075 0.976935C50.519 0.967833 50.5466 0.95509 50.5742 0.953876C50.8732 0.93992 51.1746 0.927175 51.4759 0.913826Z" fill="#00B6F0"/>
<path d="M5.04033 4.28602C4.90461 4.28724 4.76202 4.30969 4.61019 4.2927C4.58029 4.28966 4.53887 4.27995 4.54117 4.27449C4.54577 4.26539 4.57338 4.25386 4.60328 4.25022C4.7344 4.23505 4.89775 4.23323 4.96446 4.19075C4.99666 4.16891 5.05647 4.16163 5.13699 4.15738C5.2221 4.15253 5.28189 4.15434 5.3486 4.16708C5.43602 4.18347 5.50964 4.21381 5.64766 4.19803C5.65457 4.20774 5.67063 4.21866 5.66373 4.22776C5.65683 4.23687 5.62697 4.24536 5.59937 4.25204C5.57406 4.25811 5.53952 4.26357 5.50732 4.26539C5.35549 4.27267 5.20366 4.27874 5.04033 4.28602Z" fill="#00B6F0"/>
<path d="M124.679 4.164C124.791 4.15914 124.909 4.15671 125.019 4.14822C125.107 4.14154 125.162 4.14579 125.231 4.16035C125.348 4.18584 125.355 4.18341 125.643 4.18706C125.675 4.18766 125.714 4.19676 125.732 4.20465C125.744 4.20889 125.728 4.22043 125.714 4.2265C125.693 4.23439 125.663 4.2447 125.636 4.2447C125.454 4.24652 125.27 4.28232 125.093 4.24106C125.003 4.22043 124.904 4.21072 124.782 4.21982C124.709 4.22528 124.63 4.22771 124.554 4.23014C124.481 4.23256 124.405 4.22589 124.359 4.20768C124.292 4.18099 124.331 4.17067 124.451 4.17249C124.527 4.17371 124.603 4.16703 124.679 4.164Z" fill="#00B6F0"/>
<path d="M166.37 8.34659C166.515 8.34052 166.66 8.33325 166.807 8.32839C166.837 8.32718 166.874 8.33386 166.901 8.3381C167.012 8.35631 166.995 8.38725 167 8.41455C167.002 8.44307 166.747 8.46613 166.639 8.44672C166.519 8.42487 166.411 8.4 166.245 8.41335C166.181 8.4182 166.105 8.40728 166.064 8.38968C166.002 8.36419 166.036 8.35387 166.153 8.3557C166.222 8.35691 166.296 8.35023 166.37 8.34659Z" fill="#00B6F0"/>
<path d="M93.3379 0.0874298C93.4874 0.080755 93.6369 0.0704445 93.7864 0.0698377C93.8738 0.0692309 93.9175 0.0892514 93.8968 0.103815C93.8853 0.112917 93.8577 0.12566 93.8301 0.126873C93.5311 0.141436 93.232 0.153574 92.933 0.166924C92.8456 0.158429 92.8019 0.145688 92.8226 0.131125C92.8341 0.122023 92.8617 0.109887 92.8893 0.108066C93.0388 0.0995711 93.1883 0.0941046 93.3379 0.0874298Z" fill="#00B6F0"/>
<path d="M163.501 6.37143C163.646 6.36536 163.793 6.35626 163.938 6.35322C164.014 6.35201 164.074 6.36596 164.083 6.38174C164.088 6.38902 164.051 6.40177 164.021 6.4048C163.814 6.42543 163.591 6.42786 163.375 6.43818C163.306 6.44121 163.232 6.4315 163.191 6.41451C163.129 6.38842 163.163 6.37871 163.28 6.38053C163.354 6.38114 163.428 6.37446 163.501 6.37143Z" fill="#00B6F0"/>
<path d="M128.478 4.24589C128.552 4.24286 128.628 4.23497 128.699 4.2374C128.775 4.24043 128.823 4.25803 128.846 4.27562C128.872 4.29565 128.869 4.31446 128.846 4.33145C128.81 4.36058 128.773 4.35937 128.688 4.33995C128.556 4.30961 128.547 4.31325 128.287 4.31446C128.257 4.31446 128.221 4.30536 128.198 4.29747C128.163 4.28533 128.182 4.26652 128.262 4.2556C128.322 4.24771 128.405 4.24893 128.478 4.24589Z" fill="#00B6F0"/>
<path d="M158.112 6.17255C158.22 6.1677 158.328 6.15981 158.436 6.15981C158.512 6.1592 158.572 6.17316 158.579 6.18833C158.581 6.19561 158.546 6.20774 158.519 6.21139C158.388 6.22777 158.24 6.22898 158.098 6.23444C158.031 6.23687 157.957 6.22716 157.916 6.21017C157.854 6.18469 157.891 6.17315 158.003 6.17679C158.038 6.17801 158.075 6.17437 158.112 6.17255Z" fill="#00B6F0"/>
<path d="M141.096 5.42796C140.935 5.43524 140.783 5.42615 140.794 5.41037C140.81 5.38974 140.877 5.37638 140.946 5.37274C141.056 5.36667 141.167 5.36182 141.28 5.35818C141.351 5.35575 141.415 5.36485 141.473 5.38063C141.438 5.40005 141.385 5.414 141.316 5.41825C141.245 5.4225 141.169 5.42493 141.096 5.42796Z" fill="#00B6F0"/>
<path d="M140.041 5.35016C140.149 5.34531 140.257 5.33742 140.365 5.33742C140.441 5.33681 140.501 5.35077 140.508 5.36594C140.51 5.37322 140.476 5.38536 140.448 5.389C140.317 5.40538 140.17 5.4066 140.027 5.41206C139.96 5.41448 139.887 5.40477 139.845 5.38778C139.783 5.3623 139.82 5.35077 139.933 5.35441C139.967 5.35563 140.004 5.35198 140.041 5.35016Z" fill="#00B6F0"/>
<path d="M127.174 4.24104C127.282 4.23618 127.39 4.22829 127.498 4.22768C127.574 4.22707 127.634 4.24104 127.641 4.25621C127.643 4.26349 127.609 4.27502 127.581 4.27926C127.45 4.29565 127.303 4.29686 127.16 4.30232C127.093 4.30475 127.02 4.29504 126.978 4.27805C126.916 4.25256 126.953 4.24103 127.066 4.24467C127.1 4.24589 127.137 4.24225 127.174 4.24104Z" fill="#00B6F0"/>
<path d="M126.569 4.20528C126.684 4.20042 126.721 4.19739 126.758 4.19739C126.827 4.19739 126.898 4.20467 126.94 4.22227C127.002 4.24775 126.965 4.25504 126.852 4.25625C126.707 4.25747 126.565 4.27021 126.42 4.27264C126.344 4.27385 126.284 4.25928 126.279 4.24411C126.277 4.23683 126.312 4.22409 126.339 4.22166C126.436 4.21256 126.542 4.2071 126.569 4.20528Z" fill="#00B6F0"/>
<path d="M139.104 0.635335C139.03 0.638369 138.952 0.646865 138.883 0.643831C138.791 0.639584 138.754 0.623202 138.777 0.608032C138.791 0.599537 138.816 0.587401 138.844 0.585581C138.991 0.577086 139.14 0.57162 139.288 0.565552C139.375 0.574654 139.414 0.587396 139.391 0.602566C139.377 0.611061 139.352 0.62259 139.324 0.625017C139.253 0.631085 139.177 0.632301 139.104 0.635335Z" fill="#00B6F0"/>
<path d="M49.8257 0.985262C49.897 0.984655 49.9614 0.992543 50.0166 1.00771C49.9821 1.02713 49.9315 1.03987 49.8625 1.04533C49.828 1.04776 49.7889 1.04958 49.752 1.05019C49.6807 1.0514 49.6163 1.04291 49.5611 1.02774C49.5956 1.00832 49.6485 0.995575 49.7152 0.990114C49.7497 0.987687 49.7889 0.987082 49.8257 0.985262Z" fill="#00B6F0"/>
<path d="M162.716 6.36918C162.714 6.35158 162.854 6.33156 162.98 6.33217C163.047 6.33277 163.116 6.34127 163.155 6.35766C163.215 6.38253 163.18 6.39224 163.068 6.39042C162.999 6.3892 162.925 6.39952 162.856 6.3977C162.778 6.39709 162.732 6.38374 162.716 6.36918Z" fill="#00B6F0"/>
<path d="M129.145 4.31935C129.142 4.31268 129.131 4.30479 129.138 4.29872C129.182 4.26535 129.446 4.25503 129.515 4.28416C129.527 4.28962 129.531 4.29872 129.522 4.30418C129.508 4.31268 129.483 4.3236 129.455 4.32602C129.384 4.33209 129.31 4.33513 129.237 4.33574C129.205 4.33574 129.175 4.32542 129.145 4.31935Z" fill="#00B6F0"/>
<path d="M5.85899 4.18878C5.58754 4.20152 5.58294 4.20031 5.63125 4.16997C5.67496 4.14266 5.75548 4.12628 5.8728 4.12628C5.90731 4.12628 5.9441 4.12507 5.97401 4.12749C6.00621 4.13053 6.05224 4.13659 6.05915 4.14387C6.07295 4.15783 6.03381 4.173 5.96479 4.18331C5.93489 4.18817 5.89579 4.18696 5.85899 4.18878Z" fill="#00B6F0"/>
<path d="M53.2238 0.90007C53.1433 0.910386 53.0743 0.906748 53.0237 0.88733C52.9731 0.867913 53.0536 0.844852 53.1939 0.839391C53.2307 0.838177 53.2698 0.833326 53.3043 0.835754C53.3388 0.837574 53.3734 0.844849 53.3941 0.852131C53.4309 0.864267 53.4079 0.880655 53.3343 0.894611C53.3044 0.900073 53.2606 0.898857 53.2238 0.90007Z" fill="#00B6F0"/>
<path d="M162.237 6.32347C162.257 6.31559 162.278 6.3077 162.301 6.30042C162.386 6.31073 162.423 6.32287 162.4 6.33682C162.386 6.34532 162.359 6.3526 162.338 6.36049C162.253 6.35017 162.218 6.33743 162.237 6.32347Z" fill="#00B6F0"/>
<path d="M9.50281 11.0964C9.50281 11.0891 9.53501 11.0776 9.56032 11.0752C9.60863 11.0709 9.66841 11.0794 9.70982 11.0964C9.76733 11.1207 9.73285 11.1334 9.62704 11.1268C9.55342 11.1219 9.50281 11.1098 9.50281 11.0964Z" fill="#00B6F0"/>
<path d="M130.082 3.75435C130.112 3.75981 130.142 3.76528 130.169 3.77134C130.13 3.7938 130.082 3.8035 130.031 3.79743C129.999 3.79379 129.972 3.78651 129.942 3.78105C129.981 3.7586 130.027 3.7501 130.082 3.75435Z" fill="#00B6F0"/>
<path d="M129.286 3.72691C129.332 3.7178 129.387 3.72266 129.452 3.74026C129.431 3.74815 129.413 3.75725 129.387 3.76332C129.344 3.77303 129.286 3.76817 129.224 3.74996C129.242 3.74268 129.263 3.73479 129.286 3.72691Z" fill="#00B6F0"/>
<path d="M128.676 3.75371C128.705 3.75917 128.735 3.76464 128.763 3.7707C128.724 3.79315 128.678 3.80286 128.625 3.79679C128.593 3.79315 128.565 3.78587 128.535 3.78041C128.574 3.75796 128.62 3.74886 128.676 3.75371Z" fill="#00B6F0"/>
<path d="M128.228 3.72158C128.262 3.73372 128.244 3.74828 128.177 3.76466C128.147 3.7592 128.113 3.75496 128.09 3.74768C128.053 3.73615 128.071 3.72097 128.14 3.70459C128.168 3.71066 128.198 3.71612 128.228 3.72158Z" fill="#00B6F0"/>
</svg>
