<svg width="83" height="83" viewBox="0 0 83 83" fill="none" xmlns="http://www.w3.org/2000/svg">
<path d="M50.9808 46.099L52.0534 45.4735V40.875C51.3786 41.0843 50.8256 41.6184 50.6186 42.317C50.5293 42.6181 50.2141 42.7899 49.913 42.7003C49.6096 42.611 49.4378 42.2958 49.5274 41.9947C49.8778 40.8117 50.8726 39.9368 52.0534 39.7061V38.5349C52.0534 38.2219 52.3075 37.9681 52.6202 37.9681C52.9354 37.9681 53.1894 38.2222 53.1894 38.5349V39.6849C54.6807 39.9294 55.8214 41.228 55.8214 42.7848C55.8214 43.8974 55.224 44.9393 54.2621 45.499L53.1894 46.1246V50.7228C53.8643 50.5135 54.4173 49.9794 54.6243 49.2808C54.7136 48.9797 55.0288 48.8082 55.3299 48.8974C55.631 48.9867 55.8051 49.3041 55.7155 49.6053C55.3651 50.7861 54.3703 51.661 53.1894 51.8939V53.0629C53.1894 53.3759 52.9354 53.6321 52.6202 53.6321C52.3072 53.6321 52.0534 53.3759 52.0534 53.0629V51.915C50.5622 51.668 49.4214 50.372 49.4214 48.8126C49.4214 47.7006 50.0189 46.6609 50.9808 46.099ZM53.1894 44.8078L53.688 44.5185C54.3018 44.1585 54.6829 43.4952 54.6829 42.7851C54.6829 41.8584 54.048 41.0776 53.1894 40.8495V44.8078ZM52.0534 50.7489V46.7906L51.5549 47.0821C50.9411 47.4395 50.56 48.1029 50.56 48.8133C50.56 49.7423 51.1949 50.523 52.0534 50.7489ZM31.1274 26.3938C31.1274 26.7067 30.8733 26.963 30.5581 26.963C30.2429 26.963 29.9888 26.7067 29.9888 26.3938V25.2459C28.4999 24.9989 27.3594 23.7029 27.3594 22.1435C27.3594 21.0309 27.9568 19.9915 28.9187 19.4293L29.9888 18.8037V14.2056C29.3139 14.4149 28.7635 14.949 28.5565 15.6475C28.4672 15.9486 28.1495 16.1202 27.8487 16.0309C27.5479 15.9416 27.376 15.6264 27.4653 15.3253C27.8157 14.1445 28.8083 13.2696 29.9891 13.0366V11.8677C29.9891 11.5525 30.2432 11.2984 30.5584 11.2984C30.8736 11.2984 31.1277 11.5525 31.1277 11.8677V13.0155C32.6167 13.26 33.7571 14.5586 33.7571 16.1157C33.7571 17.2306 33.1597 18.2702 32.2 18.8299L31.1274 19.4581V24.0539C31.8023 23.8469 32.3526 23.3106 32.5597 22.612C32.649 22.3109 32.9667 22.1394 33.2675 22.2287C33.5683 22.3179 33.7402 22.6353 33.6509 22.9365C33.3027 24.1173 32.3079 24.9921 31.1271 25.2251L31.1274 26.3938ZM29.9891 20.1208L29.4928 20.4123C28.8791 20.7698 28.4979 21.4331 28.4979 22.1435C28.4979 23.0725 29.1328 23.8536 29.9891 24.0792V20.1208ZM31.6259 17.8488C32.2375 17.4888 32.6186 16.8258 32.6186 16.1154C32.6186 15.1887 31.9859 14.4078 31.1274 14.1797V18.1381L31.6259 17.8488ZM36.9392 19.4293L38.0093 18.8037V14.2056C37.3367 14.4149 36.784 14.949 36.577 15.6475C36.4877 15.9486 36.1725 16.1202 35.8714 16.0309C35.568 15.9416 35.3962 15.6264 35.4858 15.3253C35.8362 14.1445 36.8288 13.2696 38.0096 13.0366V11.8677C38.0096 11.5525 38.2659 11.2984 38.5789 11.2984C38.8941 11.2984 39.1482 11.5525 39.1482 11.8677V13.0155C40.6394 13.26 41.7776 14.5586 41.7776 16.1157C41.7776 17.2306 41.1824 18.2702 40.2205 18.8299L39.1479 19.4581V24.0539C39.8227 23.8469 40.3757 23.3106 40.5827 22.612C40.6698 22.3109 40.9872 22.1394 41.2883 22.2287C41.5894 22.3179 41.761 22.6353 41.6739 22.9365C41.3235 24.1173 40.3286 24.9921 39.1479 25.2251V26.3941C39.1479 26.7093 38.8938 26.9633 38.5786 26.9633C38.2656 26.9633 38.0093 26.7093 38.0093 26.3941V25.2462C36.5203 24.9992 35.3798 23.7032 35.3798 22.1438C35.3798 21.0309 35.9773 19.9915 36.9392 19.4293ZM39.1479 18.1381L39.6464 17.8488C40.2602 17.4888 40.6413 16.8258 40.6413 16.1154C40.6413 15.1887 40.0064 14.4078 39.1479 14.1797V18.1381ZM38.0093 24.0792V20.1208L37.513 20.4123C36.8992 20.7698 36.5181 21.4331 36.5181 22.1435C36.5184 23.0725 37.1533 23.8536 38.0093 24.0792ZM31.8659 29.2891C29.4506 29.1502 26.4823 32.8338 25.5459 34.2638C25.44 34.4261 25.2614 34.5224 25.0685 34.5224H8.31488C7.99968 34.5224 7.74562 34.2661 7.74562 33.9531C7.74562 33.6379 7.99968 33.3838 8.31488 33.3838H24.7674C25.1015 32.9064 25.8752 31.8526 26.9008 30.8178C22.9917 28.2446 20.5904 23.8347 20.5904 19.1304C20.5904 11.4203 26.8608 5.1499 34.5687 5.1499C42.2787 5.1499 48.5491 11.4203 48.5491 19.1304C48.5491 24.1707 45.8749 28.7314 41.6058 31.2126C42.4362 31.4526 43.0781 31.8664 43.4614 32.4475C43.993 33.2472 43.9552 34.2562 43.3862 35.3029C45.9405 33.0498 49.1818 31.8197 52.6227 31.8197C60.3303 31.8197 66.601 38.0901 66.601 45.8002C66.601 50.5019 64.2019 54.9118 60.2928 57.4849C61.3158 58.5221 62.0896 59.5759 62.4237 60.0533H78.8762C79.1914 60.0533 79.4455 60.3073 79.4455 60.6225C79.4455 60.9355 79.1914 61.1918 78.8762 61.1918H62.1203C61.9299 61.1918 61.751 61.0955 61.6451 60.933C60.7091 59.5029 57.7408 55.8245 55.3251 55.9585C54.095 56.0267 53.1024 56.8901 52.4861 57.6028C51.1712 59.1199 50.3882 61.2744 50.4797 62.3352C50.5245 62.8337 50.776 63.1419 51.2301 63.2549C52.4013 63.5441 54.5136 62.5093 56.1178 60.021C56.2871 59.7576 56.64 59.6798 56.9034 59.8517C57.1693 60.0209 57.2445 60.3739 57.0752 60.6373C56.487 61.5474 55.8522 62.2766 55.2055 62.8437C55.504 63.3119 55.657 63.8127 55.657 64.3067H55.6592V73.1573C56.8375 72.955 59.4976 72.3246 61.7699 70.5442C61.871 70.4664 61.9933 70.4242 62.1203 70.4242H78.8762C79.1914 70.4242 79.4455 70.6783 79.4455 70.9935C79.4455 71.3087 79.1914 71.5628 78.8762 71.5628H62.3155C59.7002 73.5432 56.7482 74.1521 55.6122 74.3217C55.3699 75.7541 54.1232 76.8501 52.6205 76.8501C51.1411 76.8501 49.9063 75.7871 49.6407 74.3829H47.7261C45.8656 74.3829 45.033 73.3057 44.8755 72.299C44.7674 71.6052 44.9555 70.9208 45.3437 70.4081C44.7885 70.0622 44.4006 69.4744 44.2899 68.7358C44.1936 68.0772 44.344 67.3128 44.8122 66.7224C43.728 66.2379 43.1539 65.2123 43.1539 64.2292C43.1539 63.5214 43.4339 62.8699 43.9466 62.3947C43.9699 62.3736 43.9936 62.3547 44.0173 62.3358C43.248 61.1598 43.1376 60.0097 43.728 59.1182C44.1114 58.5371 44.7536 58.1234 45.5837 57.8834C41.8839 55.7314 39.3578 51.9963 38.7722 47.7131H37.5514C37.2854 49.1151 36.0509 50.1803 34.569 50.1803C33.0685 50.1803 31.8218 49.0843 31.5773 47.652C30.4435 47.4827 27.4918 46.8735 24.8765 44.893H8.31586C8.00066 44.893 7.74656 44.6367 7.74656 44.3237C7.74656 44.0085 8.00066 43.7544 8.31586 43.7544H25.0695C25.1965 43.7544 25.321 43.7966 25.4198 43.8744C27.6918 45.6549 30.352 46.2853 31.5328 46.4875V37.6344C31.535 37.1429 31.688 36.6418 31.9843 36.1739C31.3399 35.6072 30.7024 34.8779 30.1168 33.9678C29.9475 33.7019 30.0227 33.3515 30.2861 33.18C30.552 33.0107 30.9024 33.0859 31.0739 33.3515C32.6755 35.8398 34.7878 36.8747 35.9613 36.5854C36.4128 36.4725 36.6647 36.1643 36.7091 35.6657C36.8032 34.6049 36.0199 32.4504 34.7053 30.931C34.0887 30.2203 33.096 29.3573 31.8659 29.2891ZM42.5136 33.0757C41.9562 32.2312 40.0205 31.7163 37.0262 32.4453C37.4496 33.332 37.7155 34.2095 37.8118 34.9336H40.9661C41.4035 34.9336 41.808 34.9947 42.175 35.1125C42.5699 34.5365 42.9418 33.7227 42.5136 33.0757ZM52.6202 75.7112C53.6691 75.7112 54.5207 74.8597 54.5207 73.813V66.3499C54.1162 66.6251 53.6247 66.8181 53.0624 66.9214C53.4058 67.4459 53.5635 68.0974 53.4624 68.7582C53.3402 69.5486 52.879 70.1553 52.2064 70.4824C52.6346 71.0516 52.7946 71.7572 52.6179 72.4721C52.3946 73.387 51.6794 74.0763 50.7882 74.3019C51.0045 75.1137 51.743 75.7112 52.6202 75.7112ZM45.9994 72.1217C46.1123 72.8344 46.7402 73.2437 47.7258 73.2437H50.153C50.9149 73.2437 51.3853 72.7192 51.5123 72.1995C51.6535 71.628 51.3994 71.0965 50.8304 70.7506H46.6861C46.1546 70.9694 45.9194 71.6043 45.9994 72.1217ZM45.416 68.5704C45.4912 69.0738 45.8371 69.6123 46.5827 69.6123H50.9786C52.0605 69.6123 52.2887 68.8926 52.3357 68.5845C52.4275 68.0011 52.1453 67.2674 51.456 67.0063H46.3216C45.576 67.2696 45.3267 67.9707 45.416 68.5704ZM46.225 65.8677H52.1027C53.2528 65.8677 54.1184 65.4677 54.417 64.795C54.5888 64.4069 54.544 63.9646 54.297 63.5342C53.3399 64.155 52.4061 64.435 51.625 64.435C51.3875 64.435 51.1638 64.4091 50.9568 64.3599C50.1219 64.1528 49.5645 63.5694 49.3927 62.7416H46.2243C45.5821 62.7416 45.0624 62.9087 44.7213 63.2261C44.4438 63.485 44.2909 63.8398 44.2909 64.228C44.2919 65.0424 44.9549 65.8677 46.225 65.8677ZM44.6775 59.7454C44.2493 60.3921 44.6211 61.2059 45.016 61.7822C45.3805 61.6644 45.785 61.6034 46.225 61.6034H49.3789C49.4752 60.8789 49.7411 60.0014 50.1623 59.115C47.1706 58.3861 45.2349 58.9009 44.6775 59.7454ZM47.6339 57.6356C48.5725 57.6449 49.6166 57.7931 50.7267 58.0849C50.9926 57.6593 51.2912 57.243 51.6253 56.8571C52.7143 55.5989 53.9725 54.8932 55.2614 54.8225C55.3248 54.8177 55.3885 54.8178 55.4544 54.8178C56.8563 54.8178 58.2535 55.6597 59.4387 56.6831C63.1645 54.3429 65.4624 50.2101 65.4624 45.8002C65.4624 38.7183 59.7024 32.9582 52.6202 32.9582C49.3037 32.9582 46.1898 34.2072 43.7952 36.477C43.9526 36.8085 44.0375 37.1755 44.0375 37.5588C44.0375 38.5419 43.4637 39.5675 42.3792 40.052C42.8474 40.6424 42.9978 41.4068 42.8989 42.0654C42.7907 42.804 42.4026 43.3922 41.8451 43.7378C42.2355 44.2507 42.4237 44.9349 42.3155 45.6312C42.1696 46.5509 41.4595 47.5247 39.9187 47.6869C40.5709 52.1131 43.4778 55.8833 47.6339 57.6356ZM40.8694 40.3365H35.735C35.0435 40.5976 34.7635 41.3313 34.8531 41.9147C34.9024 42.2229 35.1306 42.9425 36.2102 42.9425H40.6061C41.3539 42.9425 41.6998 42.404 41.775 41.9006C41.8621 41.3032 41.6128 40.5999 40.8694 40.3365ZM37.0381 46.5742H39.4653C40.4509 46.5742 41.0787 46.1649 41.1917 45.4523C41.2717 44.9348 41.0365 44.2997 40.5024 44.0811H36.3607C35.7914 44.4245 35.5373 44.9583 35.6762 45.5301C35.8055 46.0498 36.2736 46.5742 37.0381 46.5742ZM32.6704 47.1432C32.6704 48.1899 33.5219 49.0411 34.5687 49.0411C35.4461 49.0411 36.1846 48.4436 36.4032 47.6321C35.5094 47.4088 34.7968 46.7173 34.5709 45.8021C34.3968 45.0872 34.5568 44.3816 34.985 43.8123C34.3123 43.4852 33.8512 42.8785 33.729 42.0881C33.6279 41.4273 33.7853 40.7758 34.129 40.2513C33.5667 40.148 33.073 39.9551 32.6707 39.6799L32.6704 47.1432ZM36.2336 37.6904C36.0266 37.7397 35.8032 37.7678 35.5632 37.7678C34.7846 37.7678 33.8509 37.4856 32.8938 36.8671C32.6467 37.2952 32.5997 37.7371 32.7738 38.1253C33.0701 38.7979 33.9357 39.1979 35.0883 39.1979H40.9661C42.2362 39.1979 42.8995 38.3745 42.8995 37.5585C42.8995 37.1704 42.7466 36.8152 42.4691 36.5567C42.128 36.2392 41.6083 36.0721 40.9661 36.0721H37.7978C37.6263 36.9003 37.0685 37.4837 36.2336 37.6904ZM35.5658 30.1874C35.8999 30.573 36.1984 30.9893 36.4618 31.4152C37.5744 31.1237 38.6186 30.9752 39.5546 30.9659C44.3293 28.9525 47.4102 24.3167 47.4102 19.1304C47.4102 12.0485 41.6502 6.28814 34.568 6.28814C27.4883 6.28814 21.7283 12.0482 21.7283 19.1304C21.7283 23.5429 24.0263 27.6754 27.7543 30.0155C28.9914 28.9454 30.4637 28.0728 31.929 28.1528C33.2183 28.2235 34.4768 28.9291 35.5658 30.1874ZM9.8605 19.6997H19.0029C19.3181 19.6997 19.5722 19.4434 19.5722 19.1304C19.5722 18.8152 19.3181 18.5611 19.0029 18.5611H9.8605C9.54755 18.5611 9.29121 18.8152 9.29121 19.1304C9.29121 19.4434 9.54755 19.6997 9.8605 19.6997ZM19.7341 16.1624C19.8871 15.8872 19.7904 15.5416 19.5152 15.3861L14.1056 12.3403C13.8304 12.1874 13.4848 12.284 13.3293 12.5592C13.1763 12.8322 13.273 13.18 13.5456 13.3329L18.9578 16.3787C19.0471 16.428 19.1411 16.4517 19.2378 16.4517C19.4355 16.4517 19.6282 16.348 19.7341 16.1624ZM19.7341 22.0987C19.5789 21.8235 19.233 21.7272 18.9578 21.8824L13.5456 24.9259C13.2727 25.0811 13.1763 25.427 13.3293 25.7022C13.4352 25.8882 13.6279 25.9915 13.8256 25.9915C13.9219 25.9915 14.016 25.9682 14.1056 25.9186L19.5152 22.8728C19.7907 22.7198 19.8871 22.3717 19.7341 22.0987ZM50.1366 19.6997H59.2765C59.5917 19.6997 59.8458 19.4434 59.8458 19.1304C59.8458 18.8152 59.5917 18.5611 59.2765 18.5611H50.1366C49.8214 18.5611 49.5674 18.8152 49.5674 19.1304C49.5674 19.4434 49.8214 19.6997 50.1366 19.6997ZM49.4051 16.1624C49.5085 16.3483 49.7014 16.4517 49.9014 16.4517C49.9955 16.4517 50.0919 16.4283 50.1789 16.3787L55.5911 13.3329C55.864 13.18 55.9626 12.8318 55.8074 12.5592C55.6544 12.284 55.3063 12.1877 55.0336 12.3403L49.6214 15.3861C49.3485 15.5413 49.2499 15.8872 49.4051 16.1624ZM55.8074 25.7022C55.9626 25.427 55.8637 25.0814 55.5911 24.9259L50.1789 21.8824C49.9059 21.7272 49.5581 21.8235 49.4051 22.0987C49.2499 22.3717 49.3488 22.7195 49.6214 22.8725L55.0336 25.9182C55.1207 25.9675 55.217 25.9912 55.3111 25.9912C55.5111 25.9915 55.7037 25.8878 55.8074 25.7022Z" fill="#00B6F0"/>
</svg>
