<svg width="74" height="74" viewBox="0 0 74 74" fill="none" xmlns="http://www.w3.org/2000/svg">
<g clip-path="url(#clip0_1_296)">
<path d="M9.47201 21.645H21.9248C20.6876 26.2422 19.98 31.4592 19.98 37H21.645C21.645 31.4269 22.3596 26.1937 23.5991 21.645H36.1675V37H37.8325V21.645H50.401C51.6404 26.1937 52.355 31.4269 52.355 37H54.0223C54.0223 31.4592 53.3147 26.2422 52.0798 21.645H64.5303C67.0787 26.1937 68.5448 31.4269 68.5448 37H70.2121C70.2121 18.6896 55.315 3.79248 37.0046 3.79248C18.6943 3.79248 3.79251 18.6896 3.79251 37H5.45751C5.45751 31.4269 6.92364 26.1937 9.47201 21.645ZM24.0916 19.98C26.6839 11.7105 31.1008 6.10498 36.1675 5.54304V19.98H24.0916ZM37.8325 19.98V5.54304C42.8992 6.10498 47.3138 11.7105 49.9084 19.98H37.8325ZM63.5151 19.98H51.5873C49.6517 13.6923 46.6894 8.75742 43.1443 6.06798C51.6751 7.76073 58.9595 12.9084 63.5151 19.98ZM30.8557 6.06798C27.3129 8.75742 24.3483 13.6923 22.4151 19.98H10.4849C15.0405 12.9084 22.3249 7.76073 30.8557 6.06798ZM52.355 43.9375V45.1862L43.9375 43.105H37.5804C36.2577 43.105 34.9812 43.586 33.9891 44.4578L32.893 45.4175H21.645V43.9375C21.645 43.4773 21.2727 43.105 20.8125 43.105H4.62501V44.7723H19.98V63.9175H4.62501V65.5848H20.8125C21.2727 65.5848 21.645 65.2125 21.645 64.7523V63.2723H23.8511L28.8184 70.3069C29.4381 70.9984 30.2984 71.3545 31.1656 71.3545C31.7946 71.3545 32.4259 71.1672 32.9739 70.781L34.4609 69.7357C34.5488 69.7681 34.6181 69.8328 34.7106 69.8583C34.9812 69.9277 35.2541 69.9647 35.5246 69.9647C36.0704 69.9647 36.6092 69.8213 37.0925 69.5392L39.0165 68.4292C39.368 68.5587 39.7311 68.6488 40.108 68.6488C40.6399 68.6488 41.181 68.5124 41.6759 68.228L43.6022 67.1157C43.9537 67.2452 44.3168 67.3354 44.6937 67.3354C45.2256 67.3354 45.769 67.1989 46.2639 66.9145C47.5635 66.1629 48.063 64.6251 47.6352 63.27H52.3573V64.75C52.3573 65.2102 52.7296 65.5825 53.1898 65.5825H69.3773V63.9175H54.0223V44.77H69.375V43.105H53.1875C52.7273 43.105 52.355 43.4773 52.355 43.9375ZM45.4291 65.4738C44.7238 65.8808 43.8126 65.638 43.4056 64.9327L39.9369 58.9248L38.4939 59.755L42.1245 66.045L40.8434 66.7827C40.1358 67.1966 39.2293 66.9492 38.82 66.2439L36.5074 62.2386L35.9293 61.2373L34.4886 62.0675L35.0668 63.0665L37.3793 67.0717L37.3839 67.0764L37.5434 67.3515L36.26 68.0915C35.9224 68.2904 35.5246 68.3413 35.1431 68.2395C34.7615 68.1378 34.4447 67.895 34.2458 67.5574L31.9287 63.5452L30.4857 64.3754L32.7982 68.3806L32.8028 68.3875L32.9971 68.7229L32.0166 69.4143C31.4038 69.8467 30.5643 69.7496 30.1203 69.2663L24.9634 61.9542C24.8062 61.7322 24.5541 61.6004 24.2836 61.6004H21.645V47.0825H30.9875L26.6261 50.8981C26.3024 51.1779 26.1081 51.5849 26.0943 52.0104C26.0781 52.4382 26.2423 52.8568 26.5475 53.1597C28.5178 55.13 31.6443 55.3011 33.818 53.5621L36.1374 51.7052H39.96L45.9702 63.448C46.3749 64.158 46.1321 65.0668 45.4291 65.4738ZM46.8906 61.605L41.2088 50.4957C41.0654 50.2182 40.7786 50.0425 40.4688 50.0425H35.8438C35.6541 50.0425 35.4714 50.1072 35.3234 50.2252L32.7751 52.2648C31.265 53.4719 29.0959 53.3563 27.7199 52.1538L35.0853 45.7089C35.7744 45.103 36.6601 44.7723 37.5804 44.7723L43.7363 44.7469L52.355 46.9021V61.605H46.8906Z" fill="#005494"/>
</g>
<defs>
<clipPath id="clip0_1_296">
<rect width="74" height="74" fill="white"/>
</clipPath>
</defs>
</svg>
