<svg width="61" height="57" viewBox="0 0 61 57" fill="none" xmlns="http://www.w3.org/2000/svg">
<g clip-path="url(#clip0_1_299)">
<path d="M60.0448 -0.000132812H49.6023C49.0749 -0.000132812 48.6471 0.399313 48.6471 0.892385C48.6471 1.38535 49.0747 1.7849 49.6023 1.7849H59.0898V23.7995H44.5083C44.4371 23.7995 44.368 23.8074 44.3013 23.8212C43.4554 23.5641 42.5648 23.4018 41.643 23.3468V21.4791C41.643 21.3912 41.6381 21.3045 41.6293 21.2188C44.5173 19.2593 46.2276 16.1442 46.2276 12.7921C46.2276 7.05072 41.229 2.37984 35.0846 2.37984C28.9403 2.37984 23.9417 7.05072 23.9417 12.7921C23.9417 14.9729 24.6593 17.0551 25.9853 18.8015H11.0794V1.78479H45.0178C45.5452 1.78479 45.9729 1.38535 45.9729 0.892273C45.9729 0.399313 45.5453 -0.000244141 45.0178 -0.000244141H10.1242C9.59678 -0.000132812 9.16906 0.399313 9.16906 0.892385V18.8015H2.86533C1.28529 18.8015 0 20.0026 0 21.479V42.1845C0 43.6609 1.28529 44.862 2.86533 44.862H14.454C14.9815 44.862 15.4092 44.4625 15.4092 43.9695C15.4092 43.4765 14.9816 43.077 14.454 43.077H2.86533C2.33861 43.077 1.91018 42.6766 1.91018 42.1844V31.2961H30.3139C30.1457 32.0056 30.0542 32.7416 30.0542 33.4976V36.1156C30.0542 36.1488 30.0564 36.1814 30.0601 36.2137C28.8144 36.8285 27.8926 37.9424 27.6032 39.2691H21.8401C21.3127 39.2691 20.885 39.6685 20.885 40.1616C20.885 40.6546 21.3126 41.0541 21.8401 41.0541H27.5072V43.0771H18.7838C18.2564 43.0771 17.8287 43.4765 17.8287 43.9696C17.8287 44.4625 18.2563 44.8621 18.7838 44.8621H27.5072V56.1073C27.5072 56.6003 27.9348 56.9999 28.4623 56.9999H53.4227C53.9501 56.9999 54.3778 56.6004 54.3778 56.1073V40.1617C54.3778 38.4529 53.3441 36.9661 51.8308 36.2167V33.4978C51.8308 30.3043 50.2467 27.4512 47.7756 25.5845H60.0447C60.5722 25.5845 60.9999 25.1851 60.9999 24.692V0.892385C61 0.399313 60.5724 -0.000132812 60.0448 -0.000132812ZM25.8517 12.7921C25.8517 8.03497 29.9935 4.16476 35.0845 4.16476C40.1755 4.16476 44.3173 8.03497 44.3173 12.7921C44.3173 15.4583 43.0113 17.9435 40.7898 19.575C40.272 19.0971 39.5611 18.8015 38.7778 18.8015H36.0398V17.9686H36.8676C38.0964 17.9686 39.0962 17.0343 39.0962 15.8861V13.9821C39.0962 12.8339 38.0964 11.8996 36.8676 11.8996H36.0398V9.40075H38.6504C39.1778 9.40075 39.6056 9.0013 39.6056 8.50823C39.6056 8.01527 39.178 7.61571 38.6504 7.61571H36.0398V6.60419C36.0398 6.11122 35.6122 5.71167 35.0846 5.71167C34.5571 5.71167 34.1295 6.11111 34.1295 6.60419V7.61571H33.3017C32.0729 7.61571 31.0731 8.54998 31.0731 9.69822V11.6022C31.0731 12.7504 32.0729 13.6847 33.3017 13.6847H34.1295V16.1836H31.5189C30.9915 16.1836 30.5637 16.5831 30.5637 17.0762C30.5637 17.5691 30.9913 17.9687 31.5189 17.9687H34.1295V18.8016H28.4614C26.7786 17.1828 25.8517 15.0508 25.8517 12.7921ZM36.0397 16.1836V13.6847H36.8675C37.043 13.6847 37.1858 13.818 37.1858 13.9821V15.8861C37.1858 16.0502 37.043 16.1835 36.8675 16.1835L36.0397 16.1836ZM34.1295 9.40075V11.8997H33.3017C33.1262 11.8997 32.9834 11.7664 32.9834 11.6023V9.69822C32.9834 9.53412 33.1262 9.40075 33.3017 9.40075H34.1295ZM1.91018 21.479C1.91018 20.9868 2.33861 20.5864 2.86533 20.5864H38.7777C39.3044 20.5864 39.7328 20.9868 39.7328 21.479V23.3878C38.1582 23.5513 36.6845 24.0293 35.3845 24.7536C35.3695 24.753 35.3546 24.7514 35.3394 24.7514H1.91018V21.479ZM1.91018 29.5114V26.5365H33.0127C32.1432 27.4007 31.4318 28.4053 30.9257 29.5114H1.91018ZM52.4676 40.1617V55.2149H29.4175V40.1617C29.4175 38.6854 30.7028 37.4843 32.2828 37.4843H49.6023C51.1823 37.4842 52.4676 38.6854 52.4676 40.1617ZM39.7328 31.2963V35.6992H35.0209V33.4977C35.0209 32.7141 35.1971 31.9686 35.5128 31.2924C35.5395 31.2945 35.5666 31.2962 35.594 31.2962L39.7328 31.2963ZM36.8421 29.5114C37.6295 28.8039 38.6243 28.2968 39.7328 28.0809V29.5114H36.8421ZM41.643 35.6992V28.0043C44.5791 28.3293 46.8643 30.6681 46.8643 33.4977V35.6992H41.643ZM49.9206 33.4978V35.7104C49.8153 35.7038 48.7745 35.6993 48.7745 35.6993V33.4978C48.7745 29.4625 45.261 26.1795 40.9426 26.1795C36.6241 26.1795 33.1106 29.4625 33.1106 33.4978V35.6993C33.1106 35.6993 32.0698 35.7039 31.9645 35.7104V33.4978C31.9645 28.8719 35.992 25.1085 40.9426 25.1085C45.8931 25.1085 49.9206 28.8718 49.9206 33.4978Z" fill="#005494"/>
<path d="M56.9885 3.80798H48.8382C48.3108 3.80798 47.8831 4.20743 47.8831 4.7005C47.8831 5.19346 48.3107 5.59302 48.8382 5.59302H56.9885C57.516 5.59302 57.9437 5.19357 57.9437 4.7005C57.9437 4.20743 57.516 3.80798 56.9885 3.80798Z" fill="#005494"/>
<path d="M56.9885 7.61584H50.8758C50.3484 7.61584 49.9206 8.01529 49.9206 8.50836C49.9206 9.00132 50.3482 9.40088 50.8758 9.40088H56.9885C57.516 9.40088 57.9437 9.00144 57.9437 8.50836C57.9437 8.01529 57.516 7.61584 56.9885 7.61584Z" fill="#005494"/>
<path d="M21.3309 3.80798H13.1805C12.6531 3.80798 12.2254 4.20743 12.2254 4.7005C12.2254 5.19346 12.653 5.59302 13.1805 5.59302H21.3308C21.8582 5.59302 22.286 5.19357 22.286 4.7005C22.286 4.20743 21.8584 3.80798 21.3309 3.80798Z" fill="#005494"/>
<path d="M19.2933 7.61584H13.1805C12.6531 7.61584 12.2254 8.01529 12.2254 8.50836C12.2254 9.00132 12.653 9.40088 13.1805 9.40088H19.2933C19.8207 9.40088 20.2484 9.00144 20.2484 8.50836C20.2484 8.01529 19.8208 7.61584 19.2933 7.61584Z" fill="#005494"/>
<path d="M56.9885 20.9436H53.9322C53.4048 20.9436 52.9771 21.343 52.9771 21.8361C52.9771 22.3292 53.4047 22.7286 53.9322 22.7286H56.9885C57.516 22.7286 57.9437 22.3292 57.9437 21.8361C57.9437 21.343 57.516 20.9436 56.9885 20.9436Z" fill="#005494"/>
<path d="M49.857 20.9436H46.8007C46.2733 20.9436 45.8456 21.343 45.8456 21.8361C45.8456 22.3292 46.2731 22.7286 46.8007 22.7286H49.857C50.3844 22.7286 50.8122 22.3292 50.8122 21.8361C50.8122 21.343 50.3844 20.9436 49.857 20.9436Z" fill="#005494"/>
<path d="M17.7652 12.3757C16.3959 12.3757 15.2819 13.4168 15.2819 14.6961C15.2819 15.9755 16.396 17.0166 17.7652 17.0166C19.1343 17.0166 20.2484 15.9755 20.2484 14.6961C20.2484 13.4168 19.1343 12.3757 17.7652 12.3757ZM17.7652 15.2316C17.4492 15.2316 17.1921 14.9914 17.1921 14.6961C17.1921 14.4009 17.4492 14.1607 17.7652 14.1607C18.0811 14.1607 18.3383 14.4009 18.3383 14.6961C18.3383 14.9914 18.0811 15.2316 17.7652 15.2316Z" fill="#005494"/>
<path d="M52.404 12.3757C51.0347 12.3757 49.9207 13.4168 49.9207 14.6961C49.9207 15.9755 51.0348 17.0166 52.404 17.0166C53.7733 17.0166 54.8872 15.9755 54.8872 14.6961C54.8872 13.4168 53.7732 12.3757 52.404 12.3757ZM52.404 15.2316C52.088 15.2316 51.8309 14.9914 51.8309 14.6961C51.8309 14.4009 52.088 14.1607 52.404 14.1607C52.72 14.1607 52.9771 14.4009 52.9771 14.6961C52.9771 14.9914 52.72 15.2316 52.404 15.2316Z" fill="#005494"/>
<path d="M40.9426 38.7932C36.4836 38.7932 32.8559 42.1829 32.8559 46.3496C32.8559 50.5163 36.4835 53.906 40.9426 53.906C45.4015 53.906 49.0292 50.5163 49.0292 46.3496C49.0292 42.1829 45.4016 38.7932 40.9426 38.7932ZM40.9426 52.121C37.5369 52.121 34.7662 49.5319 34.7662 46.3496C34.7662 43.1673 37.5369 40.5782 40.9426 40.5782C44.3482 40.5782 47.1189 43.1673 47.1189 46.3496C47.1189 49.5319 44.3483 52.121 40.9426 52.121Z" fill="#005494"/>
<path d="M45.2272 44.096C44.8798 43.725 44.2765 43.6877 43.8794 44.012L40.5131 46.7645L38.8509 45.0386C38.498 44.6723 37.8941 44.6426 37.502 44.9724C37.1099 45.3022 37.0781 45.8665 37.431 46.2329L39.7233 48.6128C39.9117 48.8084 40.1721 48.9082 40.4335 48.9082C40.6569 48.9082 40.8811 48.8355 41.0622 48.6874L45.1374 45.3555C45.5342 45.0307 45.5745 44.467 45.2272 44.096Z" fill="#005494"/>
</g>
<defs>
<clipPath id="clip0_1_299">
<rect width="61" height="57" fill="white"/>
</clipPath>
</defs>
</svg>
