<svg width="78" height="78" viewBox="0 0 78 78" fill="none" xmlns="http://www.w3.org/2000/svg">
<path d="M15.5904 61.7413C15.0953 61.7413 14.6413 61.4702 14.4079 61.0352L8.35093 49.6875C7.01401 47.184 7.09278 44.2358 8.5558 41.8017C10.0219 39.3707 12.5949 37.9204 15.4419 37.9204H15.7383C18.5856 37.9204 21.1583 39.3707 22.6244 41.8017C24.0874 44.2358 24.1662 47.184 22.8293 49.6875L16.7723 61.0352C16.5393 61.4702 16.0851 61.7413 15.5904 61.7413ZM15.4422 39.4336C13.1341 39.4336 11.0469 40.6096 9.85815 42.5835C8.67255 44.5541 8.6096 46.9443 9.69406 48.9749L15.5904 60.0261L21.4864 48.9749C22.5711 46.9443 22.511 44.5543 21.3223 42.5835C20.1336 40.6096 18.0463 39.4336 15.7383 39.4336H15.4422Z" fill="#00C1AF"/>
<path d="M15.5904 51.2352C12.8253 51.2352 10.577 49.0344 10.577 46.3291C10.577 43.6238 12.825 41.4229 15.5904 41.4229C18.3555 41.4229 20.6037 43.6238 20.6037 46.3291C20.6037 49.0344 18.3555 51.2352 15.5904 51.2352ZM15.5904 42.9363C13.6638 42.9363 12.0968 44.4592 12.0968 46.3291C12.0968 48.1987 13.6638 49.7218 15.5904 49.7218C17.517 49.7218 19.084 48.199 19.084 46.3291C19.0837 44.4594 17.5167 42.9363 15.5904 42.9363Z" fill="#00C1AF"/>
<path d="M65.5343 31.2863C65.2537 31.2863 64.995 31.1318 64.8658 30.8859L58.298 18.5795C56.961 16.076 57.0367 13.1279 58.5028 10.6938C59.9659 8.26275 62.5419 6.80908 65.3858 6.80908H65.6822C68.5295 6.80908 71.1022 8.26275 72.5683 10.6938C74.0313 13.1279 74.1101 16.076 72.7732 18.5795L66.2053 30.8859C66.0735 31.1318 65.8148 31.2863 65.5343 31.2863ZM65.3861 8.32595C63.0781 8.32595 60.9908 9.50193 59.8052 11.4758C58.6165 13.4464 58.5535 15.8366 59.638 17.8669L65.5343 28.9182L71.4337 17.8669C72.5153 15.8363 72.4552 13.4464 71.2665 11.4758C70.0778 9.50193 67.9905 8.32595 65.6825 8.32595H65.3861Z" fill="#00C1AF"/>
<path d="M65.5343 20.1278C62.7723 20.1278 60.5241 17.9269 60.5241 15.2216C60.5241 12.5163 62.7723 10.3154 65.5343 10.3154C68.2994 10.3154 70.5476 12.5163 70.5476 15.2216C70.5476 17.9269 68.2994 20.1278 65.5343 20.1278ZM65.5343 11.8289C63.6077 11.8289 62.0407 13.3517 62.0407 15.2216C62.0407 17.0913 63.6077 18.6144 65.5343 18.6144C67.4609 18.6144 69.0279 17.0915 69.0279 15.2216C69.0279 13.352 67.4609 11.8289 65.5343 11.8289Z" fill="#00C1AF"/>
<path d="M15.5904 72.6727C13.4558 72.6727 11.7184 70.9733 11.7184 68.8795C11.7184 66.7891 13.4558 65.0864 15.5904 65.0864C17.725 65.0864 19.4623 66.7891 19.4623 68.8795C19.4623 70.9731 17.725 72.6727 15.5904 72.6727ZM15.5904 66.5998C14.2945 66.5998 13.2382 67.6245 13.2382 68.8795C13.2382 70.1377 14.2943 71.1592 15.5904 71.1592C16.8862 71.1592 17.9426 70.1377 17.9426 68.8795C17.9423 67.6245 16.8862 66.5998 15.5904 66.5998Z" fill="#00C1AF"/>
<path d="M37.2926 46.3514C35.158 46.3514 33.4207 44.6486 33.4207 42.5582C33.4207 40.4678 35.158 38.7651 37.2926 38.7651C39.4272 38.7651 41.1645 40.4678 41.1645 42.5582C41.1645 44.6486 39.4272 46.3514 37.2926 46.3514ZM37.2926 40.2786C35.9936 40.2786 34.9403 41.3001 34.9403 42.5582C34.9403 43.813 35.9936 44.8379 37.2926 44.8379C38.5884 44.8379 39.6448 43.8133 39.6448 42.5582C39.6448 41.3004 38.5884 40.2786 37.2926 40.2786Z" fill="#00C1AF"/>
<path d="M65.5343 41.7289C63.3997 41.7289 61.6624 40.0261 61.6624 37.9357C61.6624 35.8453 63.3997 34.1426 65.5343 34.1426C67.6689 34.1426 69.4062 35.8453 69.4062 37.9357C69.4062 40.0261 67.6689 41.7289 65.5343 41.7289ZM65.5343 35.656C64.2384 35.656 63.182 36.6776 63.182 37.9357C63.182 39.1905 64.2384 40.2154 65.5343 40.2154C66.8332 40.2154 67.8865 39.1908 67.8865 37.9357C67.8865 36.6776 66.8332 35.656 65.5343 35.656Z" fill="#00C1AF"/>
<path d="M50.2325 58.3802C48.0979 58.3802 46.3606 56.6806 46.3606 54.5871C46.3606 52.4967 48.0979 50.7939 50.2325 50.7939C52.3671 50.7939 54.1013 52.4967 54.1013 54.5871C54.1013 56.6806 52.3671 58.3802 50.2325 58.3802ZM50.2325 52.3074C48.9336 52.3074 47.8803 53.3321 47.8803 54.5871C47.8803 55.8453 48.9333 56.8668 50.2325 56.8668C51.5284 56.8668 52.5847 55.8453 52.5847 54.5871C52.5847 53.3321 51.5286 52.3074 50.2325 52.3074Z" fill="#00C1AF"/>
<path d="M17.8131 67.5143C17.6459 67.5143 17.4788 67.4607 17.3402 67.3471C17.0123 67.0853 16.9587 66.6093 17.2203 66.2845L34.7763 44.4718C35.0412 44.144 35.5173 44.0935 35.8452 44.3551C36.173 44.6169 36.2235 45.0929 35.9619 45.4177L18.4059 67.2304C18.2577 67.4166 18.037 67.5143 17.8131 67.5143Z" fill="#00C1AF"/>
<path d="M48.0035 53.225C47.8142 53.225 47.6283 53.1555 47.4801 53.0138L39.1341 45.0745C38.8315 44.7874 38.8219 44.3052 39.1089 44.0056C39.3991 43.703 39.8814 43.6903 40.184 43.9804L48.5269 51.9198C48.8327 52.2099 48.8423 52.6891 48.5521 52.9918C48.4039 53.1462 48.2053 53.225 48.0035 53.225Z" fill="#00C1AF"/>
<path d="M52.9599 53.8838C52.7802 53.8838 52.6037 53.8241 52.4586 53.6977C52.1433 53.4203 52.1118 52.9411 52.3892 52.6288L63.4405 40.0831C63.7179 39.7677 64.1974 39.7393 64.5125 40.0136C64.8279 40.291 64.8593 40.7671 64.5819 41.0825L53.5306 53.6283C53.3793 53.7986 53.1713 53.8838 52.9599 53.8838Z" fill="#00C1AF"/>
</svg>
