<svg width="127" height="127" viewBox="0 0 127 127" fill="none" xmlns="http://www.w3.org/2000/svg">
<path d="M62.3434 104.552C61.7482 104.552 61.1551 104.537 60.562 104.508C59.9689 104.48 59.3758 104.436 58.7849 104.378C58.1939 104.321 57.6029 104.248 57.0166 104.163C56.4277 104.075 55.8435 103.973 55.2615 103.858C54.6773 103.743 54.0994 103.613 53.522 103.468C52.9467 103.325 52.373 103.166 51.8045 102.994C51.236 102.821 50.6734 102.636 50.1133 102.438C49.5532 102.238 48.9999 102.024 48.4509 101.796C47.9018 101.569 47.3574 101.329 46.8215 101.076C46.2834 100.822 45.7542 100.557 45.2297 100.278C44.7048 99.9978 44.1892 99.7044 43.6799 99.4001C43.1685 99.0957 42.6677 98.7782 42.1741 98.4475C41.6801 98.119 41.1928 97.7774 40.7166 97.4244C40.2382 97.0717 39.7708 96.7055 39.3119 96.3283C38.8509 95.9537 38.4014 95.5655 37.9602 95.1663C37.5217 94.7692 37.0916 94.3594 36.6703 93.9403C36.2491 93.5212 35.8415 93.0915 35.4423 92.6504C35.043 92.2118 34.6527 91.7619 34.276 91.3034C33.8988 90.8449 33.5351 90.3771 33.18 89.9013C32.8248 89.4255 32.4832 88.9399 32.1546 88.4459C31.824 87.9519 31.5065 87.4515 31.2 86.9422C30.8935 86.4329 30.6002 85.9169 30.3203 85.3945C30.0405 84.8696 29.7734 84.3403 29.5198 83.8048C29.2662 83.2668 29.0237 82.7245 28.7968 82.1775C28.5699 81.6285 28.3557 81.0752 28.155 80.5173C27.9543 79.9572 27.7693 79.395 27.5949 78.826C27.4231 78.2592 27.2643 77.686 27.1187 77.1107C26.9752 76.5354 26.8452 75.9554 26.7284 75.3733C26.6115 74.7912 26.5099 74.2071 26.424 73.6203C26.3359 73.034 26.2631 72.4451 26.2056 71.8541C26.1459 71.2632 26.1018 70.6722 26.0735 70.0792C26.0447 69.4861 26.0294 68.8929 26.0294 68.2998C26.0294 67.7046 26.0426 67.1115 26.0714 66.5184C26.1001 65.9275 26.1442 65.3344 26.2034 64.7435C26.2606 64.1525 26.3334 63.564 26.4193 62.9773C26.5074 62.3909 26.609 61.8064 26.7237 61.2243C26.8406 60.6401 26.9705 60.0622 27.114 59.4869C27.2575 58.9116 27.4163 58.3384 27.5882 57.7716C27.76 57.2026 27.9476 56.6383 28.1482 56.0803C28.3468 55.5202 28.5606 54.967 28.7875 54.42C29.0144 53.8709 29.2548 53.3287 29.5084 52.7906C29.7641 52.2547 30.0308 51.7255 30.311 51.201C30.5909 50.6786 30.8821 50.1625 31.1886 49.6533C31.493 49.144 31.8105 48.6411 32.1411 48.1475C32.4717 47.656 32.8138 47.1708 33.1664 46.6921C33.5191 46.2158 33.8852 45.7484 34.2624 45.29C34.6396 44.8315 35.0274 44.3815 35.4266 43.9404C35.8258 43.5018 36.2335 43.0717 36.6547 42.6505C37.0738 42.2314 37.5035 41.8216 37.9446 41.4245C38.3857 41.0253 38.8332 40.6375 39.2942 40.2604C39.7526 39.8832 40.2204 39.5195 40.6988 39.1643C41.175 38.8117 41.6602 38.4697 42.1542 38.139C42.6482 37.8105 43.1507 37.493 43.66 37.1865C44.1693 36.8822 44.6853 36.5892 45.2098 36.309C45.7348 36.0291 46.2639 35.762 46.8016 35.5084C47.3375 35.2549 47.8798 35.0144 48.4288 34.7875C48.9779 34.5606 49.5333 34.3464 50.0913 34.1457C50.6513 33.9451 51.2157 33.7601 51.7846 33.5878C52.3515 33.4138 52.9246 33.2572 53.5 33.1115C54.0778 32.968 54.6552 32.8381 55.2394 32.7212C55.8215 32.6065 56.4057 32.5028 56.9946 32.4169C57.5809 32.3288 58.1719 32.256 58.7628 32.1984C59.3538 32.1413 59.9469 32.0968 60.54 32.0663C61.1331 32.0375 61.7262 32.0244 62.3214 32.0223C62.9145 32.0223 63.5076 32.0375 64.1007 32.0663C64.6959 32.0951 65.2868 32.1391 65.8778 32.1963C66.4709 32.256 67.0598 32.3284 67.6461 32.4147C68.2349 32.5028 68.8191 32.6044 69.4033 32.7191C69.9854 32.8359 70.5654 32.9638 71.1407 33.1094C71.7185 33.2529 72.2896 33.4117 72.8582 33.5835C73.4267 33.7554 73.9914 33.943 74.5494 34.1415C75.1094 34.3422 75.6627 34.5559 76.2118 34.7833C76.7609 35.0102 77.3053 35.2506 77.8412 35.5042C78.3793 35.7578 78.9084 36.0245 79.433 36.3047C79.9579 36.5846 80.4735 36.8758 80.9828 37.1823C81.4921 37.4867 81.995 37.8042 82.4886 38.1327C82.9826 38.4633 83.4673 38.8054 83.9461 39.158C84.4224 39.5132 84.8897 39.8768 85.3507 40.254C85.8092 40.6312 86.2592 41.0168 86.7003 41.416C87.1389 41.8152 87.569 42.2229 87.9902 42.6441C88.4093 43.0632 88.8191 43.4929 89.2183 43.9319C89.6175 44.373 90.0053 44.8226 90.3825 45.2815C90.7597 45.74 91.1254 46.2078 91.4785 46.6836C91.8336 47.1598 92.1753 47.645 92.5059 48.139C92.8344 48.633 93.1519 49.1334 93.4584 49.6427C93.7649 50.1519 94.0557 50.668 94.336 51.1925C94.6158 51.7149 94.8829 52.2466 95.1386 52.7821C95.3922 53.3181 95.6326 53.8603 95.8596 54.4094C96.0865 54.9585 96.3007 55.5118 96.5013 56.0697C96.702 56.6298 96.887 57.192 97.0614 57.7609C97.2333 58.3278 97.392 58.901 97.5355 59.4763C97.6811 60.0516 97.8111 60.6316 97.9258 61.2136C98.0427 61.7957 98.1443 62.38 98.2302 62.9667C98.3183 63.553 98.3911 64.1418 98.4486 64.7328C98.5083 65.3238 98.5524 65.9169 98.5807 66.5079C98.6095 67.101 98.6248 67.6941 98.6248 68.2893C98.6248 68.5098 98.6667 68.7236 98.7505 68.9285C98.8364 69.1334 98.9579 69.3142 99.1141 69.4708C99.2708 69.6275 99.4515 69.7485 99.6585 69.8344C99.8634 69.9182 100.078 69.9623 100.298 69.9623H108.372C108.595 69.9623 108.808 69.9182 109.014 69.8344C109.219 69.7485 109.399 69.627 109.556 69.4708C109.713 69.3142 109.834 69.1334 109.92 68.9285C110.004 68.7236 110.048 68.5094 110.048 68.2893C110.048 67.5108 110.028 66.7326 109.99 65.9541C109.951 65.1782 109.893 64.4018 109.819 63.6258C109.741 62.8519 109.647 62.0802 109.532 61.3106C109.417 60.5389 109.285 59.7739 109.133 59.0085C108.981 58.2457 108.811 57.4871 108.621 56.731C108.432 55.9771 108.224 55.2273 107.997 54.4818C107.773 53.7367 107.528 52.998 107.265 52.2661C107.003 51.532 106.723 50.8064 106.426 50.0876C106.128 49.3688 105.813 48.6567 105.48 47.9532C105.145 47.25 104.796 46.5553 104.428 45.8674C104.062 45.1816 103.679 44.5047 103.277 43.8367C102.876 43.1687 102.461 42.5116 102.027 41.8656C101.595 41.2175 101.147 40.5804 100.682 39.9564C100.219 39.3303 99.7407 38.7173 99.2466 38.1153C98.7526 37.5133 98.2433 36.9249 97.7209 36.3471C97.196 35.7717 96.6605 35.207 96.1093 34.6558C95.5581 34.1068 94.9959 33.5687 94.4181 33.0463C93.8402 32.5239 93.2518 32.0142 92.6498 31.5206C92.0478 31.0266 91.4327 30.5482 90.8087 30.0851C90.1826 29.6199 89.5455 29.1724 88.897 28.7402C88.251 28.3058 87.5918 27.8914 86.9238 27.4901C86.2558 27.0888 85.5789 26.7052 84.8931 26.339C84.2052 25.9707 83.5105 25.6202 82.8052 25.2875C82.102 24.9547 81.3896 24.6393 80.6708 24.3417C79.9498 24.0441 79.2242 23.7639 78.4902 23.5018C77.7582 23.2373 77.0174 22.9947 76.2719 22.7678C75.5268 22.5409 74.7771 22.3334 74.0206 22.1438C73.2645 21.9541 72.5059 21.7844 71.741 21.6324C70.9781 21.4804 70.2106 21.3458 69.4389 21.2311C68.6693 21.1164 67.8954 21.0215 67.1194 20.9445C66.3456 20.8674 65.5696 20.8099 64.7911 20.7705C64.0126 20.7329 63.2345 20.7134 62.4539 20.7134C61.6754 20.7134 60.8973 20.7312 60.1188 20.7684C59.3403 20.8061 58.5643 20.8632 57.7883 20.9382C57.0124 21.0152 56.2406 21.11 55.4689 21.2227C54.6993 21.3374 53.9322 21.4695 53.1668 21.6219C52.404 21.7717 51.6432 21.9415 50.8871 22.1311C50.1311 22.3187 49.3814 22.5257 48.6359 22.753C47.8883 22.9778 47.15 23.2204 46.4155 23.4828C45.681 23.7453 44.9558 24.023 44.2349 24.3206C43.5161 24.6182 42.804 24.9336 42.0983 25.2663C41.3952 25.597 40.6984 25.9475 40.0104 26.3137C39.3225 26.6798 38.6456 27.0634 37.9776 27.4626C37.3096 27.8618 36.6505 28.2783 36.0019 28.7106C35.3538 29.1428 34.7167 29.5903 34.0901 30.0534C33.464 30.5165 32.851 30.9949 32.2469 31.4864C31.645 31.9804 31.054 32.4875 30.4766 33.0099C29.8987 33.5323 29.3344 34.0683 28.7832 34.6173C28.232 35.1685 27.694 35.7307 27.1716 36.3086C26.6467 36.8839 26.1374 37.4727 25.6438 38.0747C25.1497 38.6746 24.6693 39.2875 24.204 39.9137C23.7388 40.5376 23.2913 41.1726 22.857 41.8208C22.4247 42.4668 22.0061 43.1238 21.6047 43.7897C21.2034 44.4577 20.8199 45.1346 20.4516 45.8204C20.0833 46.5062 19.7328 47.2005 19.4 47.9041C19.0647 48.6072 18.7498 49.3197 18.4496 50.0385C18.152 50.7573 17.8697 51.4825 17.6072 52.2149C17.3447 52.9468 17.0979 53.6855 16.8732 54.4306C16.6462 55.1757 16.4367 55.9254 16.247 56.6798C16.0574 57.4337 15.8855 58.1944 15.7331 58.9572C15.5786 59.7201 15.4444 60.4877 15.3297 61.2568C15.215 62.0265 15.118 62.7982 15.041 63.5721C14.9639 64.3459 14.9064 65.1219 14.867 65.9004C14.8272 66.6785 14.8073 67.4549 14.8073 68.233C14.8052 69.0115 14.8251 69.7895 14.8623 70.568C14.9 71.344 14.955 72.1204 15.03 72.8963C15.107 73.6702 15.1997 74.442 15.3144 75.2137C15.427 75.9833 15.5592 76.7504 15.7116 77.5132C15.8614 78.2761 16.0312 79.0368 16.2208 79.7908C16.4084 80.5469 16.6154 81.2966 16.8406 82.042C17.0658 82.7875 17.308 83.5259 17.5704 84.2578C17.8329 84.9919 18.1106 85.7174 18.4082 86.4384C18.7058 87.1572 19.0212 87.8692 19.3518 88.5728C19.6846 89.2764 20.033 89.9728 20.3991 90.6586C20.7653 91.3465 21.1489 92.0234 21.5481 92.6914C21.9494 93.3594 22.3638 94.0186 22.796 94.6671C23.2283 95.3131 23.6757 95.9502 24.1389 96.5763C24.602 97.2025 25.0803 97.8154 25.5744 98.4195C26.0684 99.0215 26.5756 99.61 27.098 100.188C27.6203 100.766 28.1563 101.33 28.7053 101.881C29.2565 102.432 29.8187 102.97 30.3966 103.493C30.9719 104.018 31.5607 104.525 32.1627 105.021C32.7647 105.515 33.3777 105.995 34.0038 106.458C34.6278 106.923 35.2649 107.374 35.9109 107.805C36.5569 108.24 37.216 108.656 37.8819 109.058C38.55 109.459 39.2269 109.844 39.9148 110.211C40.6006 110.579 41.2949 110.929 41.9984 111.265C42.7041 111.597 43.4141 111.915 44.1329 112.213C44.8538 112.513 45.5794 112.795 46.3114 113.058C47.0454 113.322 47.7841 113.567 48.5296 113.794C49.2747 114.022 50.0244 114.231 50.7809 114.42C51.537 114.61 52.2956 114.782 53.0606 114.936C53.8234 115.088 54.5909 115.223 55.3601 115.338C56.1318 115.455 56.9036 115.551 57.6796 115.629C58.4534 115.706 59.2319 115.766 60.0079 115.803C60.7864 115.843 61.5645 115.865 62.3451 115.865C62.5657 115.865 62.7794 115.823 62.9843 115.739C63.1918 115.653 63.3725 115.532 63.5288 115.375C63.6854 115.219 63.8065 115.038 63.8924 114.833C63.9762 114.628 64.0181 114.414 64.0181 114.191V106.159C64.0114 105.943 63.961 105.738 63.8725 105.539C63.7845 105.343 63.6608 105.169 63.5042 105.019C63.3497 104.869 63.1715 104.754 62.9708 104.673C62.7689 104.592 62.5593 104.552 62.3434 104.552ZM60.6678 112.585C59.9533 112.556 59.2412 112.512 58.5292 112.453C57.8171 112.391 57.1072 112.312 56.3994 112.217C55.6916 112.122 54.9859 112.007 54.2827 111.879C53.5817 111.75 52.8806 111.602 52.1859 111.438C51.4912 111.275 50.7991 111.097 50.1112 110.898C49.4254 110.702 48.7442 110.488 48.0673 110.259C47.3904 110.029 46.7203 109.785 46.0544 109.522C45.3906 109.26 44.7336 108.982 44.0812 108.689C43.431 108.393 42.7871 108.085 42.15 107.76C41.515 107.434 40.8868 107.095 40.267 106.74C39.6473 106.385 39.0368 106.014 38.4348 105.631C37.8329 105.245 37.2398 104.846 36.6577 104.433C36.0756 104.021 35.5024 103.594 34.9402 103.152C34.378 102.711 33.8268 102.257 33.2867 101.79C32.7465 101.322 32.2194 100.841 31.7013 100.35C31.1852 99.8559 30.6806 99.3513 30.1887 98.8332C29.6947 98.3171 29.2163 97.788 28.749 97.2478C28.2816 96.7077 27.8294 96.1564 27.3883 95.5921C26.9497 95.0299 26.5218 94.4589 26.1094 93.8747C25.6971 93.2926 25.2979 92.6995 24.9144 92.0975C24.5308 91.4956 24.1625 90.8847 23.8074 90.2653C23.4547 89.646 23.1152 89.0174 22.7909 88.3803C22.4667 87.7431 22.1581 87.0992 21.8647 86.449C21.5734 85.7988 21.2957 85.1392 21.0358 84.4758C20.7733 83.812 20.5286 83.1419 20.3017 82.465C20.0723 81.7881 19.8606 81.1069 19.6646 80.419C19.4707 79.7332 19.29 79.0432 19.1287 78.3463C18.9657 77.6517 18.8201 76.9527 18.6922 76.2517C18.5644 75.5481 18.4518 74.8429 18.3595 74.1372C18.2647 73.4294 18.1876 72.7195 18.1279 72.0074C18.0682 71.2975 18.0242 70.5828 18.0001 69.8708C17.9738 69.1562 17.965 68.4442 17.9739 67.73C17.9827 67.0159 18.009 66.3034 18.0534 65.5914C18.0975 64.8768 18.1572 64.1669 18.2363 63.4569C18.3134 62.747 18.4082 62.0392 18.5208 61.336C18.6334 60.6303 18.7613 59.9271 18.9065 59.2303C19.0542 58.5314 19.2151 57.8346 19.3958 57.1445C19.5745 56.4545 19.7705 55.7666 19.9847 55.0851C20.1964 54.4039 20.4258 53.7291 20.6726 53.059C20.9173 52.3889 21.1798 51.723 21.4554 51.0659C21.7331 50.4089 22.0264 49.7583 22.3372 49.1148C22.6458 48.4709 22.97 47.8338 23.3096 47.2077C23.6491 46.5795 24.0042 45.9597 24.3747 45.3488C24.743 44.738 25.1286 44.136 25.5278 43.5429C25.9249 42.9519 26.3393 42.3677 26.7648 41.7966C27.1924 41.2234 27.6335 40.6634 28.0877 40.1122C28.5419 39.561 29.0093 39.0208 29.4898 38.4917C29.9682 37.9625 30.4622 37.4465 30.9672 36.9418C31.4723 36.4368 31.9904 35.9453 32.5196 35.4644C33.0488 34.9861 33.5889 34.5187 34.1401 34.0645C34.6913 33.6102 35.2535 33.1716 35.8267 32.7437C36.3999 32.3182 36.982 31.9059 37.575 31.5067C38.1681 31.1075 38.7701 30.7239 39.381 30.3535C39.994 29.9852 40.6133 29.6305 41.2419 29.2909C41.8706 28.9514 42.5077 28.6272 43.1512 28.3185C43.7951 28.0099 44.4453 27.7166 45.1049 27.4389C45.764 27.1633 46.4278 26.9008 47.0979 26.6561C47.7706 26.4114 48.4475 26.182 49.1287 25.9703C49.8098 25.7565 50.4977 25.5601 51.1903 25.3815C51.8803 25.2007 52.5771 25.0398 53.276 24.8942C53.975 24.7465 54.6781 24.6186 55.3838 24.506C56.0895 24.3934 56.7973 24.2986 57.5073 24.2215C58.2172 24.1445 58.9292 24.0827 59.6438 24.0408C60.3559 23.9967 61.0705 23.9701 61.7846 23.9612C62.4992 23.9523 63.2134 23.9612 63.9275 23.9853C64.6421 24.0116 65.3542 24.0535 66.0662 24.1132C66.7783 24.1729 67.4882 24.2499 68.196 24.3447C68.9038 24.4396 69.6095 24.5496 70.3127 24.6775C71.0158 24.8074 71.7147 24.951 72.4115 25.1139C73.1062 25.2748 73.7984 25.4534 74.4863 25.6499C75.1742 25.8463 75.8553 26.058 76.5323 26.2849C77.2092 26.5143 77.8793 26.759 78.5452 27.0189C79.2111 27.2793 79.8681 27.5569 80.5209 27.8478C81.1737 28.1411 81.8171 28.4498 82.4547 28.7715C83.0918 29.0958 83.7205 29.4353 84.3398 29.7879C84.9617 30.1431 85.5721 30.511 86.1741 30.8949C86.7782 31.2785 87.3713 31.6756 87.9534 32.0879C88.5376 32.5003 89.1108 32.9257 89.673 33.3668C90.2373 33.8054 90.7884 34.2596 91.3286 34.7248C91.8709 35.1922 92.4001 35.6706 92.9182 36.1625C93.4343 36.654 93.9414 37.159 94.4329 37.6751C94.9269 38.1911 95.4074 38.7203 95.8748 39.2583C96.3443 39.7985 96.7985 40.3497 97.2396 40.9098C97.6807 41.472 98.1083 42.043 98.5227 42.6251C98.9351 43.2072 99.3343 43.8003 99.7199 44.4023C100.103 45.0021 100.474 45.6126 100.831 46.2323C101.186 46.8521 101.526 47.4782 101.852 48.1153C102.176 48.7503 102.487 49.3942 102.78 50.0445C103.074 50.6947 103.351 51.3521 103.614 52.0155C103.876 52.6793 104.123 53.3494 104.352 54.0263C104.582 54.7011 104.796 55.3823 104.994 56.0681C105.191 56.756 105.371 57.446 105.534 58.1407C105.697 58.8353 105.843 59.5343 105.973 60.2353C106.103 60.9389 106.216 61.6421 106.312 62.3499C106.407 63.0577 106.486 63.7676 106.548 64.4775C106.608 65.1896 106.652 65.9021 106.68 66.6162H101.823C101.794 65.9812 101.752 65.3483 101.695 64.7155C101.638 64.0826 101.565 63.4522 101.477 62.8236C101.389 62.1953 101.287 61.5688 101.168 60.9448C101.049 60.3208 100.917 59.699 100.769 59.0818C100.621 58.4646 100.458 57.8515 100.28 57.2407C100.101 56.6319 99.9092 56.0278 99.7017 55.4262C99.4968 54.8264 99.2742 54.2312 99.038 53.6423C98.8022 53.0514 98.5528 52.4693 98.2882 51.8918C98.0258 51.314 97.7481 50.7429 97.4568 50.1786C97.1634 49.6143 96.8595 49.0564 96.542 48.5073C96.2224 47.9582 95.8917 47.4159 95.5476 46.8821C95.2038 46.3487 94.8465 45.8238 94.4761 45.3077C94.1057 44.7917 93.7243 44.2845 93.3297 43.7863C92.9352 43.288 92.5292 42.7987 92.1126 42.3199C91.6935 41.8436 91.266 41.3741 90.8249 40.9178C90.3838 40.4593 89.9321 40.0114 89.471 39.5771C89.0079 39.1406 88.5363 38.7152 88.0533 38.3028C87.5703 37.8884 87.0788 37.4871 86.5784 37.0989C86.0755 36.7086 85.5641 36.3318 85.0438 35.9677C84.5236 35.6016 83.9965 35.2489 83.4584 34.9094C82.9204 34.5699 82.376 34.2435 81.8248 33.9307C81.2715 33.6174 80.7114 33.3198 80.1425 33.0332C79.5756 32.7466 79.0024 32.4731 78.4229 32.2153C77.8408 31.9575 77.2545 31.7124 76.6635 31.4834C76.0704 31.2518 75.4731 31.0359 74.8711 30.8352C74.2691 30.6346 73.6608 30.447 73.0499 30.2752C72.4369 30.1033 71.8218 29.9446 71.2021 29.8032C70.5823 29.6596 69.9609 29.5318 69.3348 29.4196C68.7108 29.307 68.0825 29.2101 67.4518 29.1263C66.821 29.0445 66.1907 28.9785 65.5578 28.9256C64.9228 28.8748 64.2899 28.8375 63.6549 28.8155C63.0178 28.7956 62.3828 28.7893 61.7478 28.7977C61.1128 28.8066 60.4778 28.8329 59.8428 28.8727C59.2099 28.9125 58.577 28.9675 57.9445 29.0382C57.3138 29.1089 56.6834 29.1948 56.0573 29.2939C55.4291 29.3955 54.8051 29.5098 54.1832 29.6423C53.5613 29.7723 52.942 29.9179 52.3269 30.0788C51.7118 30.2396 51.1009 30.414 50.4947 30.6058C49.8885 30.7955 49.2886 31.0003 48.6913 31.2188C48.0961 31.4372 47.5051 31.6709 46.9184 31.9177C46.3342 32.1671 45.7542 32.427 45.181 32.7026C44.61 32.9782 44.0431 33.2669 43.4856 33.5691C42.9255 33.8735 42.3743 34.1889 41.832 34.5174C41.2876 34.848 40.7538 35.1901 40.2268 35.5448C39.6997 35.9 39.1816 36.2658 38.6723 36.6472C38.163 37.0265 37.6626 37.4189 37.1728 37.8224C36.683 38.2258 36.2026 38.6428 35.7331 39.0703C35.2611 39.4958 34.8026 39.9348 34.353 40.3844C33.9056 40.834 33.4666 41.2929 33.039 41.7644C32.6135 42.2339 32.1991 42.7148 31.7931 43.2042C31.3897 43.6957 30.9994 44.1965 30.6201 44.7036C30.2408 45.2129 29.8725 45.7311 29.5177 46.2602C29.1651 46.7873 28.823 47.3207 28.4945 47.8655C28.166 48.4078 27.8506 48.959 27.5488 49.5191C27.2465 50.077 26.9578 50.6413 26.6822 51.2145C26.4087 51.7877 26.1463 52.3656 25.8995 52.9519C25.6548 53.5361 25.4211 54.1271 25.2027 54.7223C24.9842 55.3196 24.7815 55.9216 24.5918 56.5257C24.4021 57.1319 24.2282 57.7428 24.0669 58.3579C23.9081 58.973 23.7625 59.5902 23.6325 60.2121C23.5026 60.8339 23.3878 61.458 23.2888 62.0841C23.1897 62.7123 23.1034 63.3409 23.0352 63.9712C22.9645 64.602 22.9116 65.2345 22.8722 65.8695C22.8324 66.5024 22.8104 67.1373 22.8015 67.7723C22.7926 68.4073 22.7994 69.0424 22.8235 69.6753C22.8456 70.3102 22.8832 70.9431 22.9361 71.576C22.9891 72.2089 23.0572 72.8418 23.141 73.4701C23.2227 74.1008 23.3218 74.7269 23.4365 75.3509C23.5491 75.977 23.6791 76.5989 23.8222 77.2161C23.9657 77.8354 24.1244 78.4484 24.2963 79.0593C24.4703 79.6701 24.6578 80.2764 24.8606 80.8784C25.0634 81.4804 25.2818 82.0777 25.5134 82.6687C25.745 83.2596 25.9896 83.8459 26.25 84.4259C26.5078 85.0037 26.7834 85.5769 27.0704 86.1433C27.357 86.7101 27.6593 87.2702 27.9721 87.8214C28.2875 88.3726 28.6139 88.9174 28.9555 89.453C29.295 89.9889 29.6477 90.5155 30.016 91.0362C30.3822 91.5544 30.7589 92.0636 31.1492 92.5666C31.5417 93.0669 31.943 93.5567 32.3574 94.0393C32.7719 94.5198 33.1973 94.9919 33.6342 95.4529C34.0728 95.9135 34.5207 96.3635 34.9791 96.8025C35.4376 97.2411 35.9075 97.6691 36.3859 98.0856C36.8663 98.5022 37.3561 98.9081 37.8544 99.3005C38.3527 99.6951 38.8619 100.074 39.3801 100.445C39.8961 100.813 40.4232 101.168 40.9566 101.512C41.4925 101.856 42.0348 102.184 42.586 102.502C43.1351 102.819 43.693 103.124 44.2594 103.412C44.8237 103.704 45.3974 103.979 45.9748 104.241C46.5526 104.506 47.1389 104.753 47.7278 104.989C48.3188 105.223 48.9161 105.443 49.516 105.648C50.1179 105.855 50.7242 106.045 51.335 106.221C51.9438 106.398 52.5589 106.561 53.1761 106.706C53.7959 106.854 54.4173 106.986 55.0413 107.103C55.6653 107.221 56.2935 107.322 56.9222 107.41C57.5529 107.496 58.1833 107.569 58.8162 107.624C59.4491 107.681 60.0841 107.723 60.7191 107.747L60.6678 112.585Z" fill="#00B6F0"/>
<path d="M63.9509 38.8696V36.2589C63.9022 36.0802 63.8272 35.9172 63.7239 35.7627C63.6223 35.6107 63.4992 35.4782 63.3514 35.3682C63.2058 35.2556 63.0449 35.1717 62.873 35.1125C62.6991 35.0528 62.5179 35.0244 62.335 35.0244C62.1521 35.0244 61.9713 35.0532 61.7969 35.1125C61.6229 35.1722 61.4642 35.256 61.3186 35.3682C61.1708 35.4782 61.0472 35.6107 60.9439 35.7627C60.8423 35.9172 60.7674 36.0802 60.7191 36.2589V38.8696C60.7678 39.0461 60.8427 39.2112 60.9439 39.3636C61.0476 39.5156 61.1708 39.6481 61.3186 39.7607C61.4642 39.8708 61.6229 39.9571 61.7969 40.0164C61.9709 40.0735 62.1521 40.1044 62.335 40.1044C62.5179 40.1044 62.6986 40.0735 62.873 40.0164C63.0449 39.9567 63.2058 39.8708 63.3514 39.7607C63.4992 39.6481 63.6228 39.516 63.7239 39.3636C63.8272 39.2112 63.9022 39.0457 63.9509 38.8696Z" fill="#00B6F0"/>
<path d="M62.3434 96.1008C62.1207 96.1008 61.907 96.1427 61.7016 96.2287C61.4967 96.3125 61.316 96.4336 61.1593 96.5902C61.0006 96.7468 60.8795 96.9276 60.7957 97.1325C60.7098 97.3374 60.6678 97.5515 60.6678 97.7742V100.385C60.7165 100.561 60.7915 100.727 60.8948 100.879C60.9964 101.031 61.1217 101.163 61.2673 101.276C61.4129 101.386 61.5738 101.472 61.7478 101.532C61.9218 101.589 62.1004 101.62 62.2837 101.62C62.4691 101.62 62.6474 101.589 62.8218 101.532C62.9958 101.472 63.1545 101.386 63.3023 101.276C63.4479 101.163 63.5711 101.031 63.6748 100.879C63.7764 100.727 63.8513 100.561 63.8996 100.385V97.7061C63.8928 97.5012 63.8488 97.3026 63.7675 97.113C63.6858 96.9233 63.5736 96.7536 63.4301 96.6058C63.2866 96.4581 63.1194 96.3391 62.9318 96.2532C62.7447 96.1647 62.5483 96.1144 62.3434 96.1008Z" fill="#00B6F0"/>
<path d="M91.7719 69.9622H94.3691C94.5498 69.916 94.7196 69.8433 94.8762 69.7395C95.0328 69.6379 95.1675 69.5147 95.2818 69.367C95.3965 69.2213 95.4845 69.0583 95.5464 68.8818C95.606 68.7053 95.6369 68.5246 95.6369 68.337C95.6369 68.1516 95.606 67.9687 95.5464 67.7926C95.4845 67.616 95.3965 67.4552 95.2818 67.3074C95.167 67.1618 95.0324 67.0361 94.8762 66.935C94.7196 66.8334 94.5498 66.761 94.3691 66.7144H91.7719C91.6483 66.6835 91.5251 66.6682 91.3973 66.6636C91.2694 66.6614 91.1437 66.6746 91.018 66.7013C90.8943 66.7275 90.7754 66.7673 90.6585 66.8202C90.5438 66.8753 90.4359 66.9392 90.3343 67.0188C90.2352 67.0958 90.1446 67.1864 90.0655 67.2834C89.9837 67.3824 89.9156 67.4907 89.8606 67.6029C89.8055 67.7176 89.7636 67.8366 89.7348 67.9602C89.706 68.0859 89.6908 68.2117 89.6908 68.3375C89.6908 68.4653 89.706 68.591 89.7348 68.7146C89.7636 68.8382 89.8055 68.9572 89.8606 69.0719C89.9156 69.1866 89.9842 69.2925 90.0655 69.3915C90.145 69.4906 90.2352 69.579 90.3343 69.6582C90.4359 69.7352 90.5438 69.8018 90.6585 69.8547C90.7754 69.9097 90.8943 69.9495 91.018 69.9757C91.1437 70.0019 91.2694 70.0134 91.3973 70.0108C91.5247 70.0087 91.6483 69.9931 91.7719 69.9622Z" fill="#00B6F0"/>
<path d="M30.2827 66.6154C30.1019 66.6594 29.9343 66.7322 29.7777 66.8359C29.621 66.9375 29.4843 67.0608 29.3696 67.2085C29.2549 67.3563 29.1668 67.5171 29.1071 67.6937C29.0453 67.8702 29.0144 68.0509 29.0144 68.238C29.0144 68.4234 29.0453 68.6064 29.1071 68.7829C29.1668 68.9594 29.2549 69.1203 29.3696 69.268C29.4843 69.4137 29.621 69.5393 29.7777 69.6405C29.9343 69.7421 30.1019 69.8149 30.2827 69.8611H32.8799C33.0035 69.892 33.1292 69.9098 33.2545 69.9119C33.3824 69.914 33.5081 69.9009 33.6338 69.8746C33.7574 69.8484 33.8785 69.8086 33.9932 69.7556C34.1079 69.7027 34.2159 69.6367 34.3175 69.5571C34.4166 69.4801 34.5071 69.3895 34.5888 69.2925C34.6684 69.1935 34.7366 69.0877 34.7916 68.973C34.8488 68.8582 34.8907 68.7393 34.9195 68.6157C34.9483 68.4899 34.9614 68.3642 34.9614 68.2384C34.9614 68.1106 34.9483 67.9849 34.9195 67.8613C34.8907 67.7377 34.8488 67.6187 34.7916 67.504C34.7366 67.3893 34.668 67.2834 34.5888 67.1843C34.5071 67.0853 34.417 66.9968 34.3175 66.9177C34.2159 66.8406 34.1079 66.7741 33.9932 66.7212C33.8785 66.6662 33.7574 66.6264 33.6338 66.6002C33.5081 66.5739 33.3824 66.5625 33.2545 66.565C33.1288 66.5672 33.003 66.5849 32.8799 66.6158L30.2827 66.6154Z" fill="#00B6F0"/>
<path d="M49.9808 56.3741C49.8352 56.5286 49.723 56.7047 49.6435 56.9033C49.5664 57.1018 49.5266 57.3067 49.5266 57.5205C49.5266 57.7321 49.5664 57.937 49.6435 58.1355C49.723 58.3341 49.8352 58.5102 49.9808 58.6647L61.153 69.4419C61.272 69.5634 61.4087 69.6625 61.5586 69.7396C61.7085 69.8145 61.8693 69.8674 62.037 69.8915C62.2046 69.9178 62.3697 69.9157 62.5373 69.8894C62.705 69.8607 62.8637 69.8056 63.0136 69.7265L86.9142 57.8113C87.0399 57.7851 87.1588 57.7452 87.2736 57.6902C87.3883 57.6352 87.4962 57.5687 87.5953 57.4896C87.6944 57.4125 87.785 57.3219 87.8641 57.2228C87.9433 57.1238 88.0119 57.018 88.0669 56.9033C88.1219 56.7885 88.1617 56.6696 88.1905 56.546C88.2193 56.4202 88.2324 56.2945 88.2324 56.1687C88.2303 56.0409 88.2172 55.9152 88.1863 55.7915C88.1575 55.6679 88.1156 55.549 88.0584 55.4364C88.0013 55.3216 87.9327 55.2158 87.8535 55.1167C87.7718 55.0198 87.6817 54.9313 87.5822 54.8522C87.4806 54.7751 87.3726 54.7112 87.2579 54.6557C87.1411 54.6028 87.0221 54.563 86.8964 54.5389C86.7728 54.5127 86.647 54.5012 86.5192 54.5038C86.3913 54.5063 86.2677 54.5237 86.1445 54.5546C86.0209 54.5876 85.902 54.6316 85.7894 54.6892C85.6768 54.7489 85.5709 54.817 85.474 54.9008L62.6271 66.3309L52.2753 56.2899C52.1145 56.1489 51.9337 56.043 51.733 55.9723C51.5324 55.8995 51.3249 55.8686 51.1112 55.8754C50.8974 55.8842 50.6946 55.9304 50.4982 56.0163C50.3047 56.1027 50.1307 56.2217 49.9808 56.3741Z" fill="#00B6F0"/>
<path d="M87.3511 101.421H74.2015C81.9912 94.5268 86.5641 87.2154 86.3634 81.743C86.3566 81.1609 86.2796 80.5899 86.134 80.0277C85.9862 79.4676 85.7746 78.9317 85.4947 78.4224C85.217 77.9131 84.8796 77.4457 84.4851 77.0177C84.0905 76.5923 83.6494 76.2197 83.1643 75.9022C82.6394 75.5716 82.0907 75.2872 81.5171 75.0488C80.9439 74.8109 80.3572 74.6213 79.7531 74.4799C79.149 74.3385 78.536 74.2504 77.9162 74.2111C77.299 74.1738 76.6793 74.1869 76.062 74.2509C75.4469 74.3169 74.8382 74.4316 74.2409 74.5971C73.6435 74.7647 73.0636 74.9785 72.5014 75.241C71.9413 75.5056 71.4054 75.8121 70.894 76.1647C70.3847 76.5174 69.9063 76.9098 69.461 77.342C69.3463 77.4017 69.2404 77.472 69.1435 77.5579C69.0444 77.6418 68.956 77.7366 68.881 77.8403C68.804 77.9461 68.7422 78.0562 68.6914 78.1756C68.6406 78.2967 68.6054 78.4182 68.5834 78.546C68.5614 78.6738 68.5546 78.8016 68.5635 78.9316C68.5724 79.0616 68.5944 79.1873 68.6317 79.3109C68.6694 79.4345 68.7197 79.5535 68.7862 79.6636C68.8501 79.7762 68.9272 79.8795 69.0156 79.9743C69.1062 80.067 69.2032 80.1509 69.3111 80.2211C69.4191 80.2918 69.5338 80.3511 69.6549 80.3951C69.776 80.4391 69.9017 80.4701 70.0295 80.4857C70.1595 80.501 70.2874 80.5035 70.4152 80.4878C70.5452 80.4747 70.6709 80.4459 70.7924 80.404C70.9135 80.3599 71.0303 80.3024 71.1387 80.2343C71.2487 80.1636 71.3482 80.0822 71.4384 79.9895C71.5286 79.8968 71.606 79.7957 71.6721 79.6831C71.8575 79.5154 76.3795 75.3151 81.3537 78.6116C81.6204 78.7903 81.8609 78.9998 82.0746 79.2398C82.2884 79.4803 82.4671 79.7427 82.6148 80.0267C82.7604 80.3133 82.8684 80.611 82.9391 80.9243C83.0098 81.2375 83.0407 81.5551 83.0297 81.8747C83.1973 86.0928 78.8074 93.8736 68.6406 101.773C68.398 101.998 68.235 102.272 68.1554 102.594C68.0737 102.916 68.0894 103.236 68.1973 103.549C68.3053 103.862 68.4928 104.12 68.7553 104.322C69.0178 104.527 69.3154 104.642 69.646 104.669H87.3511C87.5318 104.623 87.7016 104.55 87.8582 104.448C88.0127 104.346 88.1495 104.221 88.2638 104.073C88.3785 103.928 88.4665 103.765 88.5284 103.588C88.588 103.412 88.6189 103.231 88.6189 103.046C88.6189 102.858 88.588 102.678 88.5284 102.501C88.4665 102.325 88.3785 102.162 88.2638 102.016C88.149 101.868 88.0123 101.743 87.8582 101.641C87.7016 101.54 87.5318 101.467 87.3511 101.421Z" fill="#00B6F0"/>
<mask id="mask0_1_446" style="mask-type:luminance" maskUnits="userSpaceOnUse" x="89" y="73" width="24" height="32">
<path d="M112.376 73.8496H89.957V104.894H112.376V73.8496Z" fill="white"/>
</mask>
<g mask="url(#mask0_1_446)">
<path d="M110.198 93.3889H108.004L107.72 75.8358C107.687 75.5052 107.568 75.2097 107.358 74.9515C107.151 74.6911 106.889 74.5103 106.573 74.407C106.258 74.3033 105.94 74.2944 105.619 74.3808C105.297 74.4667 105.026 74.6344 104.805 74.8812L90.4997 93.9422C90.418 94.0637 90.3562 94.1937 90.3079 94.3325C90.2618 94.4693 90.233 94.6127 90.2241 94.7579C90.2152 94.9031 90.2241 95.0492 90.2529 95.1923C90.2817 95.3358 90.3278 95.4726 90.3918 95.6025C90.4557 95.7346 90.5374 95.8561 90.6322 95.9641C90.7292 96.0741 90.8371 96.1715 90.9586 96.2527C91.0797 96.3344 91.2101 96.4005 91.3468 96.4466C91.4857 96.4953 91.6266 96.5237 91.7722 96.5347H104.772L104.871 102.861C104.871 103.083 104.913 103.295 104.999 103.5C105.085 103.705 105.204 103.888 105.363 104.045C105.519 104.201 105.7 104.322 105.905 104.406C106.11 104.492 106.324 104.534 106.547 104.534C106.769 104.534 106.983 104.492 107.188 104.406C107.393 104.322 107.574 104.201 107.731 104.045C107.887 103.888 108.008 103.705 108.094 103.5C108.178 103.295 108.222 103.083 108.222 102.861L108.121 96.5855H110.197C110.323 96.6232 110.451 96.6473 110.581 96.6562C110.713 96.6651 110.843 96.6583 110.971 96.6363C111.101 96.6164 111.227 96.5792 111.348 96.5284C111.47 96.4776 111.582 96.4115 111.688 96.3345C111.794 96.2574 111.889 96.1689 111.972 96.0677C112.058 95.9687 112.129 95.8582 112.188 95.7413C112.248 95.6245 112.292 95.5034 112.323 95.3752C112.354 95.2469 112.369 95.1195 112.369 94.987C112.369 94.857 112.354 94.7266 112.323 94.5988C112.292 94.4709 112.248 94.3494 112.188 94.2326C112.129 94.1158 112.058 94.0057 111.972 93.9062C111.889 93.8071 111.794 93.7165 111.688 93.6395C111.582 93.5624 111.47 93.4959 111.348 93.4456C111.227 93.3948 111.102 93.3576 110.971 93.3377C110.843 93.3157 110.713 93.3089 110.581 93.3178C110.451 93.3271 110.323 93.3512 110.198 93.3889ZM95.1229 93.3889L104.637 80.6381L104.754 93.3889H95.1229Z" fill="#00B6F0"/>
</g>
</svg>
