<svg width="128" height="128" viewBox="0 0 128 128" fill="none" xmlns="http://www.w3.org/2000/svg">
<path d="M49.2096 84.8667C50.2853 84.8667 50.9965 85.58 50.9965 86.6556C50.9965 87.7313 50.2853 88.4425 49.2096 88.4425H18.3207C17.245 88.4425 16.5337 87.7313 16.5337 86.6556C16.5337 85.58 17.245 84.8667 18.3207 84.8667H49.2096ZM7.97186 69.8536H38.863C39.9365 69.8536 40.6473 70.5669 40.6473 71.6425C40.6473 72.658 40.0115 73.3492 39.0383 73.4226L38.863 73.4294H7.97186C6.89624 73.4294 6.18494 72.7181 6.18494 71.6425C6.18494 70.627 6.82067 69.9337 7.79603 69.8603L7.97186 69.8536ZM18.3207 54.84H49.2096C50.2853 54.84 50.9965 55.5533 50.9965 56.629C50.9965 57.6444 50.3608 58.3357 49.3875 58.4091L49.2096 58.4158H18.3207C17.2519 58.4158 16.5337 57.6982 16.5337 56.6294C16.5337 55.6139 17.1695 54.9228 18.1448 54.8473L18.3207 54.84ZM115.43 52.0845C118.545 58.1756 120.274 65.0736 120.274 72.3533C120.274 97.2067 100.096 117.409 75.2738 117.393C63.3139 117.393 52.0627 112.751 43.4914 104.169C42.778 103.455 42.778 102.38 43.4914 101.669C44.2026 100.955 45.2757 100.955 45.987 101.669C53.8402 109.538 64.198 113.827 75.2648 113.827C98.1227 113.827 116.687 95.2376 116.687 72.3533C116.687 66.1112 115.289 60.169 112.78 54.8468L115.43 52.0845ZM109.954 57.7933C111.883 62.3177 112.952 67.2978 112.952 72.5266C112.952 93.2664 96.1698 110.069 75.4565 110.069C67.7854 110.069 60.4608 107.744 54.2119 103.456C53.3184 102.924 53.1362 101.849 53.6743 100.956C54.2119 100.245 55.2854 100.062 56.352 100.587C61.8833 104.518 68.4941 106.487 75.4565 106.487C94.2033 106.487 109.381 91.291 109.381 72.5202C109.381 68.3338 108.625 64.3248 107.243 60.6226L109.954 57.7933ZM109.49 42.1799C111.081 41.9623 112.634 42.7888 113.334 44.233C114.041 45.682 113.737 47.4151 112.585 48.533C99.4522 61.7131 89.9588 72.402 76.672 85.7306C75.3118 87.1105 73.1209 87.2129 71.6408 85.9619L55.5431 72.3244C54.7832 71.6887 54.3096 70.7799 54.2276 69.7908C54.1389 68.8018 54.4499 67.8243 55.0878 67.0687C55.7257 66.3088 56.6413 65.8399 57.6235 65.7575C58.6099 65.673 59.5857 65.9888 60.3413 66.6288L73.8078 78.0199C85.6388 66.0131 94.9235 55.7445 107.321 43.302C107.897 42.6975 108.661 42.2998 109.488 42.1799H109.49ZM75.4565 34.9867C84.9165 34.9867 93.5544 38.4914 100.15 44.2736L97.6832 46.8536C91.7321 41.6824 83.9612 38.5558 75.4565 38.5558C68.3119 38.5558 61.3453 40.7045 55.6344 44.9938C54.7409 45.5314 53.6743 45.3492 53.1367 44.6384C52.5991 43.925 52.7812 42.6762 53.4921 42.1386C59.9232 37.4866 67.6032 34.9867 75.4565 34.9867ZM83.4919 16.4045C84.5654 16.4045 85.2762 17.1179 85.2762 18.1914C85.2762 19.209 84.6404 19.9002 83.6672 19.9736L83.4919 19.9804H77.0607V27.4872C87.5563 27.8363 97.0253 31.7893 104.456 38.1671L104.918 38.5695L105.267 38.9206L102.776 41.5271C95.3847 35.0204 85.7425 31.0558 75.267 31.0558C63.8425 31.0558 53.1294 35.7069 45.0957 44.1071C44.3823 44.8184 43.3088 44.8184 42.598 44.1071C41.8867 43.3938 41.8867 42.3182 42.598 41.6074C50.6645 33.0096 61.3069 28.2027 72.8469 27.5205L73.4891 27.4872V19.9804H67.2401C66.1645 19.9804 65.4532 19.267 65.4532 18.1914C65.4532 17.1759 66.089 16.4848 67.0643 16.4114L67.2397 16.4045H83.4919Z" fill="#00B6F0"/>
</svg>
