<svg width="79" height="79" viewBox="0 0 79 79" fill="none" xmlns="http://www.w3.org/2000/svg">
<path d="M10.1617 12.6826C10.8561 12.2039 11.6917 12.0156 12.5249 12.1668C13.3581 12.3179 14.0772 12.7693 14.5583 13.4613L41.7122 52.057L45.9948 49.0663L23.4732 17.0545C22.4762 15.6362 22.8186 13.6746 24.2445 12.6826C24.9389 12.2039 25.7721 12.0156 26.6077 12.1668C27.4409 12.3179 28.16 12.7693 28.6411 13.4613L51.1725 45.4705L52.9281 44.2505C54.354 43.2585 56.3254 43.5983 57.3223 45.0192C57.8035 45.7086 57.9917 46.5394 57.8406 47.3676C57.6894 48.1984 57.2355 48.915 56.5387 49.3911L54.783 50.611L55.7948 52.0444L66.9985 44.2379C68.4245 43.2459 70.3958 43.5856 71.3928 45.0065C71.8715 45.6959 72.0624 46.5267 71.911 47.3549C71.7599 48.1857 71.3035 48.9023 70.6091 49.3784L56.8436 58.9927C56.313 59.3695 55.6805 59.5581 55.0358 59.5581C54.8473 59.5581 54.6714 59.5457 54.4805 59.5086C53.6473 59.3574 52.9281 58.9061 52.447 58.214L49.6175 54.2166L42.7608 58.9927C42.2302 59.3695 41.5977 59.5581 40.953 59.5581C40.7645 59.5581 40.5886 59.5457 40.3976 59.5086C39.5645 59.3574 38.8453 58.9061 38.3642 58.214L9.39279 17.0542C8.3937 15.6359 8.74816 13.6743 10.1617 12.6826ZM27.6047 14.1779C27.3145 13.7613 26.8855 13.4861 26.3797 13.3968C25.8862 13.3099 25.3827 13.4242 24.9637 13.7118C24.1058 14.3019 23.9048 15.4848 24.4976 16.338L47.0292 48.3496L50.1363 46.1874L27.6047 14.1779ZM53.4714 57.5099C53.7616 57.9241 54.1905 58.2016 54.6964 58.2885C55.1875 58.3778 55.6934 58.2638 56.11 57.976L69.9026 48.3617C70.3192 48.0715 70.597 47.6451 70.6863 47.1416C70.7732 46.6505 70.6615 46.1497 70.3689 45.7357C69.7762 44.8801 68.5885 44.6792 67.7303 45.2694L56.0083 53.438C55.7181 53.6389 55.3263 53.5644 55.1256 53.2868L53.7494 51.3402L50.6424 53.5027L53.4714 57.5099ZM10.4272 16.3377L39.4012 57.5099C39.6914 57.9241 40.1204 58.2016 40.6262 58.2885C41.1197 58.3778 41.6232 58.2638 42.0398 57.976L55.8324 48.3617C56.249 48.0715 56.5268 47.6451 56.6161 47.1416C56.7054 46.6505 56.5914 46.1497 56.3012 45.7357C55.9341 45.2075 55.3416 44.9296 54.7464 44.9296C54.367 44.9296 53.9901 45.0437 53.6602 45.2694L41.9405 53.438C41.6503 53.6389 41.2585 53.5644 41.0552 53.2868L13.5345 14.1779C13.2443 13.7613 12.8153 13.4861 12.3095 13.3968C11.816 13.3099 11.3125 13.4242 10.8959 13.7118C10.0353 14.3143 9.83439 15.4848 10.4272 16.3377Z" fill="#00C1AF"/>
<path d="M31.1229 11.9222C30.9988 11.5983 30.8761 11.2736 30.7531 10.9489C37.5456 8.77511 45.5482 8.76511 53.2752 12.4186C65.199 18.056 71.3057 30.0024 70.8467 41.5335C70.8314 41.9301 70.498 42.239 70.1004 42.2224C69.7046 42.2074 69.3963 41.8745 69.4142 41.4764C69.8513 30.4909 64.0293 19.0875 52.663 13.7137C45.5941 10.3714 38.0051 10.1811 31.3501 12.2646C31.2743 12.1505 31.2024 12.0339 31.1229 11.9222Z" fill="#00C1AF"/>
<path d="M32.7329 14.801C38.6921 13.0738 45.3571 13.4009 51.4406 16.277C61.4231 20.9967 67.0836 30.8952 66.553 41.364C66.5217 41.9438 65.8491 42.2477 65.3949 41.8872L63.0007 39.977C62.6907 39.7308 62.6399 39.2794 62.8872 38.9692C63.1331 38.6601 63.5837 38.6088 63.8923 38.8555L64.9617 39.7063C64.7921 30.4083 59.68 21.7759 50.8294 17.5913C45.4095 15.0288 39.076 14.6185 33.3164 16.2046C33.1339 15.7319 32.9407 15.2632 32.7329 14.801Z" fill="#00C1AF"/>
<path d="M15.81 31.7494L17.7358 34.1339C17.9849 34.4404 17.938 34.892 17.631 35.1419C17.3234 35.3913 16.8723 35.3447 16.6242 35.0381L15.7608 33.9711C13.9261 43.0451 17.2267 52.7563 24.8121 58.6044C32.3979 64.4519 43.8676 65.5026 52.4302 60.5791C52.7738 60.3834 53.2102 60.5033 53.4056 60.8459C53.6005 61.189 53.4801 61.6259 53.1378 61.8226C44.0475 67.0492 32.1641 66.2266 23.9439 59.728C15.6086 53.4617 11.7842 42.0729 14.5634 32.0172C14.7332 31.401 15.4877 31.3262 15.81 31.7494Z" fill="#00C1AF"/>
<path d="M11.79 31.2979C8.94386 41.7351 12.2484 54.3156 22.1945 62.0007C32.1433 69.6879 44.9505 69.6932 54.5397 64.3159C54.7973 64.1719 55.1157 64.2009 55.3429 64.3881C55.5725 64.5751 55.6623 64.8832 55.5704 65.1649L54.7046 67.8048C54.5811 68.1804 54.1774 68.3855 53.8027 68.2639C53.4274 68.1417 53.2223 67.738 53.345 67.3619L53.6618 66.3844C43.9427 71.181 31.2529 70.8106 21.3184 63.1344C10.8978 55.0827 7.41547 41.9123 10.4127 30.9221C10.516 30.5408 10.9091 30.3146 11.2904 30.4165C11.7534 30.5579 11.8792 31.0059 11.79 31.2979Z" fill="#00C1AF"/>
</svg>
