<svg width="15" height="15" viewBox="0 0 15 15" fill="none" xmlns="http://www.w3.org/2000/svg">
<path fill-rule="evenodd" clip-rule="evenodd" d="M4.46006 1.00022C2.85599 1.00022 1.55564 2.30057 1.55564 3.90464V10.6024C1.55564 12.2065 2.85599 13.5068 4.46006 13.5068H11.1578C12.7619 13.5068 14.0622 12.2065 14.0622 10.6024V3.90464C14.0622 2.30057 12.7619 1.00022 11.1578 1.00022H4.46006ZM0.666748 3.90464C0.666748 1.80965 2.36507 0.111328 4.46006 0.111328H11.1578C13.2528 0.111328 14.9511 1.80965 14.9511 3.90464V10.6024C14.9511 12.6974 13.2528 14.3957 11.1578 14.3957H4.46006C2.36507 14.3957 0.666748 12.6974 0.666748 10.6024V3.90464ZM8.16582 5.01397C7.70088 4.94503 7.22603 5.02444 6.80882 5.24093C6.39161 5.45741 6.05329 5.79993 5.84197 6.21978C5.63065 6.63962 5.55709 7.11541 5.63176 7.57947C5.70644 8.04353 5.92554 8.47223 6.2579 8.80459C6.59026 9.13695 7.01896 9.35605 7.48302 9.43073C7.94708 9.5054 8.42287 9.43184 8.84271 9.22052C9.26256 9.0092 9.60508 8.67088 9.82156 8.25367C10.038 7.83646 10.1175 7.36161 10.0485 6.89667C9.97819 6.42241 9.75719 5.98334 9.41817 5.64432C9.07915 5.3053 8.64008 5.0843 8.16582 5.01397ZM6.39942 4.45193C6.98259 4.14934 7.64632 4.03833 8.29621 4.1347C8.95912 4.233 9.57284 4.5419 10.0467 5.01578C10.5206 5.48965 10.8295 6.10337 10.9278 6.76628C11.0242 7.41617 10.9132 8.0799 10.6106 8.66306C10.308 9.24623 9.8292 9.71913 9.24235 10.0145C8.6555 10.3099 7.99045 10.4127 7.3418 10.3083C6.69315 10.2039 6.09392 9.8977 5.62936 9.43313C5.16479 8.96857 4.85854 8.36934 4.75416 7.72069C4.64979 7.07204 4.7526 6.40699 5.04798 5.82014C5.34336 5.23329 5.81626 4.75452 6.39942 4.45193ZM11.4927 3.12522C11.2472 3.12522 11.0483 3.3242 11.0483 3.56966C11.0483 3.81512 11.2472 4.01411 11.4927 4.01411H11.5013C11.7468 4.01411 11.9458 3.81512 11.9458 3.56966C11.9458 3.3242 11.7468 3.12522 11.5013 3.12522H11.4927Z" fill="black"/>
</svg>
