<svg width="22" height="22" viewBox="0 0 22 22" fill="none" xmlns="http://www.w3.org/2000/svg">
<g clip-path="url(#clip0_1_1900)">
<path d="M18.6667 9.22217C18.6667 15.4444 10.6667 20.7777 10.6667 20.7777C10.6667 20.7777 2.66675 15.4444 2.66675 9.22217C2.66675 7.10044 3.5096 5.0656 5.00989 3.56531C6.51018 2.06502 8.54502 1.22217 10.6667 1.22217C12.7885 1.22217 14.8233 2.06502 16.3236 3.56531C17.8239 5.0656 18.6667 7.10044 18.6667 9.22217Z" stroke="white" stroke-width="0.888889" stroke-linecap="round" stroke-linejoin="round"/>
<path d="M10.6667 11.889C12.1394 11.889 13.3333 10.6951 13.3333 9.22233C13.3333 7.74957 12.1394 6.55566 10.6667 6.55566C9.19391 6.55566 8 7.74957 8 9.22233C8 10.6951 9.19391 11.889 10.6667 11.889Z" stroke="white" stroke-width="0.888889" stroke-linecap="round" stroke-linejoin="round"/>
</g>
<defs>
<clipPath id="clip0_1_1900">
<rect width="21.3333" height="21.3333" fill="white" transform="translate(0 0.333496)"/>
</clipPath>
</defs>
</svg>
