<svg width="38" height="38" viewBox="0 0 38 38" fill="none" xmlns="http://www.w3.org/2000/svg">
<g clip-path="url(#clip0_1_193)">
<path d="M0 0.808464L31.9816 19.2423L0 37.2152L7.31277 19.0111L0 0.808464Z" fill="white"/>
<path d="M4.79494 1.49935C7.0085 2.77439 9.22061 4.04942 11.4327 5.32475C15.9218 7.91211 20.4091 10.4978 24.8949 13.0834C28.4315 15.1219 31.9667 17.1593 35.5016 19.1964C35.928 19.4427 36.353 19.6872 36.7777 19.9334V18.5502C34.5416 19.8076 32.3069 21.0633 30.0708 22.3192C25.5531 24.8591 21.0357 27.3975 16.5166 29.937C13.0011 31.9135 9.48418 33.8882 5.96696 35.8647C5.57667 36.0842 5.18638 36.3036 4.79465 36.5228C5.19535 36.8252 5.5949 37.1263 5.9956 37.4272C7.37738 33.9844 8.7606 30.5434 10.1441 27.1006C10.9849 25.0085 11.8256 22.9165 12.6667 20.823C12.8657 20.3277 13.0645 19.8327 13.2632 19.3373C13.3989 19.0009 13.2844 18.7398 13.1608 18.4315C11.5273 14.3676 9.89559 10.305 8.26355 6.24252C7.50699 4.35943 6.75216 2.47805 5.9956 0.594955C5.833 0.190154 5.45458 -0.088536 4.99051 0.0358651C4.5956 0.142616 4.25681 0.614024 4.4194 1.02025C5.80263 4.46305 7.18614 7.90413 8.56791 11.3455C9.62276 13.9727 10.6791 16.5971 11.7325 19.2229V18.7973C10.3507 22.2401 8.96746 25.6812 7.58395 29.124C6.5291 31.7498 5.47425 34.3756 4.4194 37.0014C4.14368 37.6863 5.0478 38.226 5.62036 37.9043C7.85504 36.6487 10.0912 35.3927 12.3273 34.1353C16.845 31.5969 21.3624 29.0588 25.8815 26.519C29.397 24.5425 32.9139 22.5678 36.4294 20.5913C36.8211 20.3718 37.2114 20.1523 37.6017 19.9314C38.1367 19.632 38.1277 18.852 37.6017 18.5496C35.3896 17.2746 33.176 15.9996 30.9639 14.7228C26.4766 12.1372 21.989 9.55124 17.5017 6.96416C13.9666 4.92706 10.43 2.88996 6.89509 0.851158C6.47008 0.606624 6.04507 0.361812 5.62036 0.115855C4.71046 -0.407365 3.88793 0.976131 4.79494 1.49935Z" fill="#005494"/>
</g>
<defs>
<clipPath id="clip0_1_193">
<rect width="38" height="38" fill="white" transform="matrix(0 -1 1 0 0 38)"/>
</clipPath>
</defs>
</svg>
