<svg width="38" height="38" viewBox="0 0 38 38" fill="none" xmlns="http://www.w3.org/2000/svg">
<g clip-path="url(#clip0_1_200)">
<path d="M38 37.1915L6.01836 18.7577L38 0.784821L30.6872 18.9889L38 37.1915Z" fill="white"/>
<path d="M33.2052 36.5006C30.9917 35.2256 28.7796 33.9506 26.5675 32.6752C22.0784 30.0879 17.5911 27.5022 13.1053 24.9166C9.56866 22.878 6.0335 20.8407 2.49862 18.8036C2.07217 18.5573 1.64717 18.3128 1.22245 18.0666V19.4498C3.45858 18.1924 5.69326 16.9367 7.92939 15.6807C12.4471 13.1409 16.9645 10.6025 21.4836 8.06298C24.9991 6.08651 28.516 4.11176 32.0332 2.1353C32.4235 1.91582 32.8138 1.69634 33.2055 1.47714C32.8048 1.17482 32.4053 0.87364 32.0046 0.572744C30.6228 4.01554 29.2396 7.45663 27.8561 10.8994C27.0153 12.9915 26.1746 15.0835 25.3335 17.177C25.1345 17.6723 24.9357 18.1673 24.7369 18.6627C24.6013 18.9991 24.7158 19.2602 24.8394 19.5685C26.4728 23.6324 28.1046 27.6949 29.7366 31.7575C30.4932 33.6406 31.248 35.5219 32.0046 37.405C32.1672 37.8098 32.5456 38.0885 33.0097 37.9641C33.4046 37.8574 33.7434 37.386 33.5808 36.9797C32.1976 33.5369 30.814 30.0958 29.4323 26.6545C28.3774 24.0273 27.3211 21.4029 26.2677 18.7771V19.2027C27.6495 15.7599 29.0327 12.3188 30.4162 8.87599C31.4711 6.2502 32.5259 3.6244 33.5808 0.99861C33.8565 0.313695 32.9524 -0.226039 32.3798 0.0956379C30.1451 1.35132 27.909 2.60728 25.6729 3.86467C21.1552 6.40307 16.6378 8.94118 12.1187 11.481C8.60321 13.4575 5.08627 15.4322 1.57079 17.4087C1.17905 17.6282 0.788765 17.8476 0.398479 18.0686C-0.136467 18.368 -0.127499 19.148 0.398479 19.4503C2.61059 20.7254 4.82415 22.0004 7.03627 23.2772C11.5236 25.8628 16.0112 28.4487 20.4985 31.0358C24.0336 33.0729 27.5702 35.11 31.1051 37.1488C31.5301 37.3934 31.9551 37.6382 32.3798 37.8841C33.2897 38.4073 34.1123 37.0239 33.2052 36.5006Z" fill="#005494"/>
</g>
<defs>
<clipPath id="clip0_1_200">
<rect width="38" height="38" fill="white" transform="matrix(0 1 -1 0 38 0)"/>
</clipPath>
</defs>
</svg>
