<svg width="128" height="107" viewBox="0 0 128 107" fill="none" xmlns="http://www.w3.org/2000/svg">
<path d="M49.2097 70.8667C50.2854 70.8667 50.9966 71.58 50.9966 72.6556C50.9966 73.7313 50.2854 74.4425 49.2097 74.4425H18.3208C17.2452 74.4425 16.5339 73.7313 16.5339 72.6556C16.5339 71.58 17.2452 70.8667 18.3208 70.8667H49.2097ZM7.97199 55.8536H38.8631C39.9366 55.8536 40.6474 56.5669 40.6474 57.6425C40.6474 58.658 40.0116 59.3492 39.0384 59.4226L38.8631 59.4294H7.97199C6.89636 59.4294 6.18506 58.7181 6.18506 57.6425C6.18506 56.627 6.82079 55.9337 7.79615 55.8603L7.97199 55.8536ZM18.3208 40.84H49.2097C50.2854 40.84 50.9966 41.5533 50.9966 42.629C50.9966 43.6444 50.3609 44.3357 49.3877 44.4091L49.2097 44.4158H18.3208C17.252 44.4158 16.5339 43.6982 16.5339 42.6294C16.5339 41.6139 17.1696 40.9228 18.145 40.8473L18.3208 40.84ZM115.43 38.0845C118.545 44.1756 120.274 51.0736 120.274 58.3533C120.274 83.2067 100.096 103.409 75.2739 103.393C63.314 103.393 52.0628 98.7511 43.4915 90.1687C42.7781 89.4553 42.7781 88.3796 43.4915 87.6688C44.2028 86.9554 45.2758 86.9554 45.9871 87.6688C53.8403 95.5378 64.1981 99.8267 75.265 99.8267C98.1228 99.8267 116.687 81.2376 116.687 58.3533C116.687 52.1112 115.289 46.169 112.78 40.8468L115.43 38.0845ZM109.954 43.7933C111.883 48.3177 112.952 53.2978 112.952 58.5266C112.952 79.2664 96.17 96.069 75.4566 96.069C67.7855 96.069 60.4609 93.7445 54.212 89.4556C53.3185 88.9244 53.1364 87.8489 53.6744 86.9558C54.212 86.2446 55.2855 86.0624 56.3521 86.5868C61.8834 90.5181 68.4942 92.4867 75.4566 92.4867C94.2035 92.4867 109.381 77.291 109.381 58.5202C109.381 54.3338 108.625 50.3248 107.243 46.6226L109.954 43.7933ZM109.49 28.1799C111.081 27.9623 112.635 28.7888 113.334 30.233C114.041 31.682 113.737 33.4151 112.586 34.533C99.4523 47.7131 89.959 58.402 76.6721 71.7306C75.3119 73.1105 73.121 73.2129 71.6409 71.9619L55.5432 58.3244C54.7833 57.6887 54.3097 56.7799 54.2278 55.7908C54.139 54.8018 54.4501 53.8243 55.0879 53.0687C55.7258 52.3088 56.6414 51.8399 57.6236 51.7575C58.6101 51.673 59.5858 51.9888 60.3415 52.6288L73.8079 64.0199C85.639 52.0131 94.9237 41.7445 107.321 29.302C107.897 28.6975 108.661 28.2998 109.488 28.1799H109.49ZM75.4566 20.9867C84.9166 20.9867 93.5545 24.4914 100.15 30.2736L97.6833 32.8536C91.7322 27.6824 83.9613 24.5558 75.4566 24.5558C68.312 24.5558 61.3454 26.7045 55.6345 30.9938C54.741 31.5314 53.6744 31.3492 53.1368 30.6384C52.5992 29.925 52.7814 28.6762 53.4922 28.1386C59.9233 23.4866 67.6033 20.9867 75.4566 20.9867ZM83.492 2.40454C84.5655 2.40454 85.2763 3.11792 85.2763 4.19142C85.2763 5.20902 84.6405 5.90022 83.6673 5.9736L83.492 5.98043H77.0608V13.4872C87.5564 13.8363 97.0254 17.7893 104.456 24.1671L104.918 24.5695L105.267 24.9206L102.776 27.5271C95.3848 21.0204 85.7426 17.0558 75.2671 17.0558C63.8427 17.0558 53.1295 21.7069 45.0958 30.1071C44.3824 30.8184 43.3089 30.8184 42.5981 30.1071C41.8868 29.3938 41.8868 28.3182 42.5981 27.6074C50.6646 19.0096 61.307 14.2027 72.847 13.5205L73.4892 13.4872V5.98043H67.2402C66.1646 5.98043 65.4533 5.26704 65.4533 4.19142C65.4533 3.17595 66.0891 2.48475 67.0644 2.41136L67.2398 2.40454H83.492Z" fill="#005494"/>
</svg>
