<svg width="109" height="102" viewBox="0 0 109 102" fill="none" xmlns="http://www.w3.org/2000/svg">
<g clip-path="url(#clip0_1_1095)">
<path d="M107.293 -4.49219e-05H88.6336C87.6911 -4.49219e-05 86.9269 0.714752 86.9269 1.59709C86.9269 2.47923 87.6909 3.19423 88.6336 3.19423H105.587V42.5887H79.5313C79.4039 42.5887 79.2805 42.6029 79.1612 42.6276C77.6497 42.1676 76.0584 41.8771 74.4112 41.7787V38.4364C74.4112 38.2792 74.4025 38.1241 74.3867 37.9707C79.5472 34.4642 82.6035 28.8899 82.6035 22.8914C82.6035 12.6173 73.6714 4.25885 62.6922 4.25885C51.713 4.25885 42.781 12.6173 42.781 22.8914C42.781 26.7939 44.0633 30.5199 46.4327 33.645H19.7976V3.19403H80.4416C81.384 3.19403 82.1483 2.47923 82.1483 1.59689C82.1483 0.714752 81.3843 -0.000244141 80.4416 -0.000244141H18.0908C17.1483 -4.49219e-05 16.3841 0.714752 16.3841 1.59709V33.645H5.12002C2.29666 33.645 0 35.7944 0 38.4362V75.4883C0 78.1302 2.29666 80.2795 5.12002 80.2795H25.8277C26.7701 80.2795 27.5344 79.5647 27.5344 78.6824C27.5344 77.8003 26.7704 77.0853 25.8277 77.0853H5.12002C4.17883 77.0853 3.41328 76.3689 3.41328 75.4881V56.0037H54.1675C53.8669 57.2734 53.7034 58.5904 53.7034 59.9433V64.6281C53.7034 64.6875 53.7074 64.7458 53.714 64.8036C51.488 65.9039 49.8409 67.8971 49.3238 70.2712H39.0258C38.0834 70.2712 37.3191 70.986 37.3191 71.8683C37.3191 72.7505 38.0832 73.4655 39.0258 73.4655H49.1522V77.0855H33.5645C32.6221 77.0855 31.8578 77.8003 31.8578 78.6826C31.8578 79.5647 32.6219 80.2797 33.5645 80.2797H49.1522V100.403C49.1522 101.285 49.9163 102 50.8589 102H95.4602C96.4026 102 97.1669 101.285 97.1669 100.403V71.8685C97.1669 68.8107 95.3199 66.1501 92.6157 64.809V59.9437C92.6157 54.2289 89.7851 49.1233 85.3696 45.783H107.293C108.236 45.783 109 45.0682 109 44.1859V1.59709C109 0.714752 108.236 -4.49219e-05 107.293 -4.49219e-05ZM46.1941 22.8914C46.1941 14.3786 53.595 7.45293 62.692 7.45293C71.7891 7.45293 79.19 14.3786 79.19 22.8914C79.19 27.6625 76.8563 32.1096 72.8867 35.0292C71.9615 34.1739 70.6912 33.645 69.2914 33.645H64.399V32.1545H65.8782C68.0739 32.1545 69.8605 30.4826 69.8605 28.4279V25.0208C69.8605 22.9661 68.0739 21.2942 65.8782 21.2942H64.399V16.8226H69.0639C70.0063 16.8226 70.7706 16.1078 70.7706 15.2254C70.7706 14.3433 70.0065 13.6283 69.0639 13.6283H64.399V11.8182C64.399 10.9361 63.6349 10.2211 62.6922 10.2211C61.7496 10.2211 60.9855 10.9359 60.9855 11.8182V13.6283H59.5063C57.3106 13.6283 55.524 15.3002 55.524 17.3549V20.7619C55.524 22.8167 57.3106 24.4885 59.5063 24.4885H60.9855V28.9604H56.3206C55.3782 28.9604 54.6139 29.6752 54.6139 30.5575C54.6139 31.4397 55.378 32.1547 56.3206 32.1547H60.9855V33.6452H50.8572C47.8504 30.7484 46.1941 26.9331 46.1941 22.8914ZM64.3988 28.9604V24.4885H65.8779C66.1915 24.4885 66.4468 24.7272 66.4468 25.0208V28.4279C66.4468 28.7215 66.1915 28.9602 65.8779 28.9602L64.3988 28.9604ZM60.9855 16.8226V21.2944H59.5063C59.1927 21.2944 58.9375 21.0558 58.9375 20.7621V17.3549C58.9375 17.0612 59.1927 16.8226 59.5063 16.8226H60.9855ZM3.41328 38.4362C3.41328 37.5555 4.17883 36.8391 5.12002 36.8391H69.2912C70.2324 36.8391 70.998 37.5555 70.998 38.4362V41.852C68.1844 42.1447 65.5509 42.9999 63.2281 44.296C63.2013 44.2951 63.1747 44.2923 63.1474 44.2923H3.41328V38.4362ZM3.41328 52.8101V47.4865H58.9899C57.4362 49.0331 56.165 50.8308 55.2607 52.8101H3.41328ZM93.7536 71.8685V98.8059H52.5657V71.8685C52.5657 69.2267 54.8623 67.0773 57.6857 67.0773H88.6336C91.457 67.0771 93.7536 69.2267 93.7536 71.8685ZM70.998 56.0041V63.883H62.5784V59.9435C62.5784 58.5412 62.8932 57.2072 63.4574 55.9972C63.5051 56.0009 63.5534 56.0039 63.6024 56.0039L70.998 56.0041ZM65.8326 52.8101C67.2396 51.544 69.0172 50.6366 70.998 50.2503V52.8101H65.8326ZM74.4112 63.883V50.1132C79.6577 50.6948 83.7412 54.8799 83.7412 59.9435V63.883H74.4112ZM89.2025 59.9437V63.903C89.0143 63.8912 87.1544 63.8832 87.1544 63.8832V59.9437C87.1544 52.7226 80.8763 46.8476 73.1596 46.8476C65.443 46.8476 59.1649 52.7226 59.1649 59.9437V63.8832C59.1649 63.8832 57.305 63.8914 57.1169 63.903V59.9437C57.1169 51.6657 64.3136 44.9312 73.1596 44.9312C82.0057 44.9312 89.2025 51.6656 89.2025 59.9437Z" fill="#005494"/>
<path d="M101.832 6.81433H87.2683C86.3258 6.81433 85.5615 7.52913 85.5615 8.41147C85.5615 9.29361 86.3256 10.0086 87.2683 10.0086H101.832C102.774 10.0086 103.539 9.29381 103.539 8.41147C103.539 7.52913 102.774 6.81433 101.832 6.81433Z" fill="#005494"/>
<path d="M101.832 13.6283H90.9091C89.9667 13.6283 89.2024 14.3431 89.2024 15.2254C89.2024 16.1076 89.9665 16.8226 90.9091 16.8226H101.832C102.774 16.8226 103.539 16.1078 103.539 15.2254C103.539 14.3431 102.774 13.6283 101.832 13.6283Z" fill="#005494"/>
<path d="M38.116 6.81433H23.5522C22.6097 6.81433 21.8455 7.52913 21.8455 8.41147C21.8455 9.29361 22.6095 10.0086 23.5522 10.0086H38.1158C39.0583 10.0086 39.8226 9.29381 39.8226 8.41147C39.8226 7.52913 39.0585 6.81433 38.116 6.81433Z" fill="#005494"/>
<path d="M34.475 13.6283H23.5522C22.6097 13.6283 21.8455 14.3431 21.8455 15.2254C21.8455 16.1076 22.6095 16.8226 23.5522 16.8226H34.475C35.4174 16.8226 36.1817 16.1078 36.1817 15.2254C36.1817 14.3431 35.4177 13.6283 34.475 13.6283Z" fill="#005494"/>
<path d="M101.832 37.478H96.3708C95.4283 37.478 94.6641 38.1928 94.6641 39.0752C94.6641 39.9575 95.4281 40.6723 96.3708 40.6723H101.832C102.775 40.6723 103.539 39.9575 103.539 39.0752C103.539 38.1928 102.775 37.478 101.832 37.478Z" fill="#005494"/>
<path d="M89.0887 37.478H83.6274C82.6849 37.478 81.9207 38.1928 81.9207 39.0752C81.9207 39.9575 82.6847 40.6723 83.6274 40.6723H89.0887C90.0311 40.6723 90.7954 39.9575 90.7954 39.0752C90.7954 38.1928 90.0311 37.478 89.0887 37.478Z" fill="#005494"/>
<path d="M31.7444 22.1461C29.2977 22.1461 27.3071 24.009 27.3071 26.2984C27.3071 28.5879 29.2979 30.4507 31.7444 30.4507C34.1909 30.4507 36.1817 28.5879 36.1817 26.2984C36.1817 24.009 34.1909 22.1461 31.7444 22.1461ZM31.7444 27.2567C31.1798 27.2567 30.7204 26.8268 30.7204 26.2984C30.7204 25.7701 31.1798 25.3402 31.7444 25.3402C32.309 25.3402 32.7684 25.7701 32.7684 26.2984C32.7684 26.8268 32.309 27.2567 31.7444 27.2567Z" fill="#005494"/>
<path d="M93.6399 22.1461C91.1932 22.1461 89.2026 24.009 89.2026 26.2984C89.2026 28.5879 91.1934 30.4507 93.6399 30.4507C96.0867 30.4507 98.0772 28.5879 98.0772 26.2984C98.0772 24.009 96.0865 22.1461 93.6399 22.1461ZM93.6399 27.2567C93.0753 27.2567 92.6159 26.8268 92.6159 26.2984C92.6159 25.7701 93.0753 25.3402 93.6399 25.3402C94.2045 25.3402 94.6639 25.7701 94.6639 26.2984C94.6639 26.8268 94.2045 27.2567 93.6399 27.2567Z" fill="#005494"/>
<path d="M73.1597 69.4196C65.192 69.4196 58.7097 75.4854 58.7097 82.9415C58.7097 90.3977 65.1918 96.4635 73.1597 96.4635C81.1273 96.4635 87.6096 90.3977 87.6096 82.9415C87.6096 75.4854 81.1275 69.4196 73.1597 69.4196ZM73.1597 93.2692C67.0742 93.2692 62.1232 88.6362 62.1232 82.9415C62.1232 77.2469 67.0742 72.6138 73.1597 72.6138C79.2451 72.6138 84.1961 77.2469 84.1961 82.9415C84.1961 88.6362 79.2454 93.2692 73.1597 93.2692Z" fill="#005494"/>
<path d="M80.8158 78.9085C80.195 78.2445 79.117 78.1778 78.4074 78.7581L72.3922 83.6836L69.4221 80.5953C68.7916 79.9397 67.7124 79.8867 67.0118 80.4768C66.3112 81.0669 66.2543 82.0767 66.8849 82.7323L70.9809 86.9912C71.3177 87.3413 71.7829 87.5198 72.25 87.5198C72.6491 87.5198 73.0498 87.3897 73.3734 87.1247L80.6553 81.1623C81.3645 80.5812 81.4364 79.5723 80.8158 78.9085Z" fill="#005494"/>
</g>
<defs>
<clipPath id="clip0_1_1095">
<rect width="109" height="102" fill="white"/>
</clipPath>
</defs>
</svg>
