<svg width="121" height="121" viewBox="0 0 121 121" fill="none" xmlns="http://www.w3.org/2000/svg">
<path d="M40.7963 106.072H75.2389C76.4972 106.072 77.5153 105.054 77.5153 103.795C77.5153 102.537 76.4972 101.519 75.2389 101.519H40.7963C39.538 101.519 38.5199 102.537 38.5199 103.795C38.5195 105.053 39.538 106.072 40.7963 106.072Z" fill="#005494"/>
<path d="M6.88948 106.072H15.8339C17.0923 106.072 18.1104 105.054 18.1104 103.795C18.1104 102.537 17.0923 101.519 15.8339 101.519H9.16849V88.9577C9.16849 72.3879 20.9294 57.9702 37.1368 54.6689C39.4333 54.2019 41.7922 53.9684 44.16 53.9684H47.3392C48.5976 53.9684 49.6157 52.9478 49.6157 51.692C49.6157 50.4315 48.5976 49.413 47.3392 49.413H44.16C41.4921 49.413 38.8221 49.6798 36.2297 50.2091C17.9102 53.9398 4.61304 70.2335 4.61304 88.9577V103.795C4.61304 105.053 5.63153 106.072 6.88948 106.072Z" fill="#005494"/>
<path d="M98.7337 106.072H114.108C115.366 106.072 116.387 105.054 116.387 103.795C116.387 102.537 115.366 101.519 114.108 101.519H98.7337C97.4753 101.519 96.4573 102.537 96.4573 103.795C96.4573 105.053 97.4753 106.072 98.7337 106.072Z" fill="#005494"/>
<path d="M7.80562 83.1571H36.2606C37.519 83.1571 38.537 82.139 38.537 80.8806V52.4389C38.537 51.1805 37.519 50.1625 36.2606 50.1625C35 50.1625 33.9816 51.1805 33.9816 52.4389V78.6021H7.80562C6.54724 78.6021 5.52917 79.6227 5.52917 80.8811C5.52917 82.1386 6.54724 83.1571 7.80562 83.1571Z" fill="#005494"/>
<path d="M28.5172 95.5271C33.0748 95.5271 36.7855 99.2356 36.7855 103.795C36.7855 108.355 33.0748 112.066 28.5172 112.066C23.9596 112.066 20.2489 108.355 20.2489 103.795C20.2489 99.2352 23.9596 95.5271 28.5172 95.5271ZM28.5172 116.619C35.5894 116.619 41.3384 110.867 41.3384 103.795C41.3384 96.7253 35.589 90.9738 28.5172 90.9738C21.4476 90.9738 15.696 96.7253 15.696 103.795C15.696 110.867 21.4476 116.619 28.5172 116.619Z" fill="#005494"/>
<path d="M86.9861 95.5271C91.5458 95.5271 95.2544 99.2356 95.2544 103.795C95.2544 108.355 91.5458 112.066 86.9861 112.066C82.4264 112.066 78.7157 108.355 78.7157 103.795C78.7157 99.2352 82.4264 95.5271 86.9861 95.5271ZM86.9861 116.619C94.0558 116.619 99.8073 110.867 99.8073 103.795C99.8073 96.7253 94.0558 90.9738 86.9861 90.9738C79.9164 90.9738 74.1624 96.7253 74.1624 103.795C74.1624 110.867 79.9164 116.619 86.9861 116.619Z" fill="#005494"/>
<path d="M48.7398 89.9225H114.108C115.366 89.9225 116.387 88.9044 116.387 87.646C116.387 86.3855 115.366 85.367 114.108 85.367H51.0163V51.6894C51.0163 50.431 49.9982 49.413 48.7398 49.413C47.4814 49.413 46.4608 50.431 46.4608 51.6894V87.6456C46.4612 88.904 47.4814 89.9225 48.7398 89.9225Z" fill="#005494"/>
<path d="M48.7398 55.2443C49.9981 55.2443 51.0162 54.2262 51.0162 52.9678V42.663H53.3772C54.6356 42.663 55.6562 41.6449 55.6562 40.3866C55.6562 39.1282 54.6356 38.1101 53.3772 38.1101H48.7393C47.4809 38.1101 46.4603 39.1282 46.4603 40.3866V52.9678C46.4612 54.2262 47.4814 55.2443 48.7398 55.2443Z" fill="#005494"/>
<path d="M77.0863 26.1448C77.6297 25.9023 78.1667 25.6406 78.6956 25.3397C78.9461 25.1967 79.1984 25.0861 79.4507 25.0004C74.161 20.421 67.2728 17.6477 59.725 17.6848H19.0064C17.7681 17.6848 16.6967 18.6743 16.6967 19.9924C16.6967 21.2307 17.6861 22.3 19.0064 22.3H59.807C65.3122 22.3 70.4166 24.0758 74.5922 27.0745C75.416 26.7372 76.2475 26.4278 77.0863 26.1448Z" fill="#005494"/>
<path d="M34.4199 36.2307C33.9243 36.2307 33.3485 36.0663 32.937 35.6548L16.5319 21.7238C16.0385 21.3123 15.7094 20.6524 15.7094 19.992C15.7094 19.3338 16.0385 18.6735 16.5319 18.2624L32.937 4.24942C33.9239 3.42472 35.4094 3.50668 36.2341 4.49614C37.0566 5.48561 36.9743 6.96852 35.9852 7.79321L21.6431 19.992L35.9852 32.193C36.9747 33.0155 37.0566 34.5006 36.2341 35.4901C35.7385 35.9839 35.0803 36.2307 34.4199 36.2307Z" fill="#005494"/>
<path d="M113.871 25.7866C113.21 25.8046 112.65 26.0513 112.19 26.5247L106.322 32.394C101.438 28.2897 95.1263 25.8088 88.2611 25.8088C72.7695 25.8088 60.1596 38.4191 60.1596 53.9103C60.1596 60.7781 62.6362 67.0897 66.7405 71.9764L60.8754 77.8414C60.7576 77.955 60.653 78.077 60.5596 78.2107C60.4661 78.3443 60.3884 78.4864 60.3239 78.6354C60.2595 78.7844 60.2104 78.9376 60.1771 79.0977C60.1438 79.2556 60.1259 79.4178 60.1237 79.58C60.1216 79.7422 60.137 79.9023 60.166 80.0624C60.1972 80.2224 60.2437 80.3782 60.3039 80.5272C60.3662 80.6783 60.4417 80.8209 60.5305 80.9562C60.6219 81.092 60.7239 81.2162 60.8396 81.3319C60.9531 81.4475 61.0795 81.5496 61.2152 81.6388C61.351 81.7301 61.4931 81.8057 61.6421 81.8676C61.7932 81.9277 61.949 81.9743 62.1091 82.0054C62.2691 82.0345 62.4292 82.0498 62.5914 82.0477C62.7536 82.0456 62.9158 82.0276 63.0738 81.9943C63.2338 81.961 63.3871 81.912 63.536 81.8475C63.685 81.783 63.8272 81.7054 63.9608 81.6119C64.0944 81.5184 64.2165 81.4138 64.33 81.296L115.647 29.9818C115.823 29.8085 115.969 29.6151 116.087 29.3992C116.205 29.1836 116.29 28.9544 116.339 28.7123C116.388 28.4724 116.399 28.2279 116.374 27.9833C116.35 27.7387 116.29 27.503 116.194 27.2764C116.098 27.0497 115.969 26.8427 115.812 26.654C115.654 26.4653 115.469 26.3048 115.263 26.1717C115.056 26.0385 114.834 25.9403 114.596 25.8737C114.358 25.8063 114.117 25.7777 113.871 25.7866ZM88.2611 30.6977C93.8034 30.6977 98.8703 32.6275 102.857 35.858L70.2087 68.5085C66.9783 64.5221 65.0463 59.4557 65.0463 53.9108C65.0463 41.0601 75.4109 30.6977 88.2611 30.6977ZM111.287 37.7985L107.755 41.3244C110.165 45.0415 111.474 49.366 111.474 53.9099C111.474 66.7601 101.11 77.1247 88.2615 77.1247C83.7304 77.1247 79.3931 75.8262 75.6713 73.414L72.165 76.9177C76.8562 80.2105 82.4208 82.011 88.2611 82.011C103.75 82.011 116.363 69.4007 116.363 53.9095C116.363 48.0521 114.582 42.4829 111.287 37.7985Z" fill="#005494"/>
</svg>
