<svg width="73" height="62" viewBox="0 0 73 62" fill="none" xmlns="http://www.w3.org/2000/svg">
<path d="M52.747 48.9058H33.8545C33.1642 48.9058 32.6051 48.3548 32.6051 47.6731C32.6051 46.9911 33.1642 46.4387 33.8545 46.4387H52.747C53.4387 46.4387 53.9964 46.9911 53.9964 47.6731C53.9961 48.3548 53.4387 48.9058 52.747 48.9058Z" fill="#005494"/>
<path d="M71.3469 48.9072H66.4405C65.7502 48.9072 65.1911 48.3547 65.1911 47.6727C65.1911 46.9908 65.7502 46.4384 66.4405 46.4384H70.0978V39.6308C70.0978 30.652 63.6451 22.8377 54.7558 21.0498C53.4964 20.7965 52.201 20.6696 50.9026 20.6696H49.1591C48.4688 20.6696 47.9097 20.1172 47.9097 19.4353C47.9097 18.7533 48.4688 18.2009 49.1591 18.2009H50.9026C52.3668 18.2009 53.8306 18.346 55.253 18.6322C65.3023 20.6538 72.5966 29.4844 72.5966 39.6305V47.6725C72.5964 48.3547 72.0372 48.9072 71.3469 48.9072Z" fill="#005494"/>
<path d="M20.9663 48.9058H15.1087C14.4184 48.9058 13.8593 48.3548 13.8593 47.6731C13.8593 46.9911 14.4184 46.4387 15.1087 46.4387H20.9663C21.6565 46.4387 22.2157 46.9911 22.2157 47.6731C22.2157 48.3548 21.6565 48.9058 20.9663 48.9058Z" fill="#005494"/>
<path d="M70.844 36.4877H55.2353C54.545 36.4877 53.9875 35.9367 53.9875 35.2534V19.8414C53.9875 19.1595 54.5453 18.6071 55.2353 18.6071C55.927 18.6071 56.4847 19.1595 56.4847 19.8414V34.0206H70.844C71.5357 34.0206 72.0934 34.573 72.0934 35.2534C72.0934 35.9367 71.5357 36.4877 70.844 36.4877Z" fill="#005494"/>
<path d="M59.4835 43.1915C56.9835 43.1915 54.9487 45.203 54.9487 47.6731C54.9487 50.1446 56.9833 52.1546 59.4835 52.1546C61.9835 52.1546 64.0183 50.1446 64.0183 47.6731C64.0181 45.203 61.9835 43.1915 59.4835 43.1915ZM59.4835 54.6231C55.6043 54.6231 52.4501 51.5055 52.4501 47.6731C52.4501 43.842 55.6043 40.7244 59.4835 40.7244C63.3626 40.7244 66.5169 43.842 66.5169 47.6731C66.5169 51.5052 63.3626 54.6231 59.4835 54.6231Z" fill="#005494"/>
<path d="M27.4104 43.1915C24.9104 43.1915 22.8755 45.203 22.8755 47.6731C22.8755 50.1446 24.9101 52.1546 27.4104 52.1546C29.912 52.1546 31.9466 50.1446 31.9466 47.6731C31.9463 45.203 29.9117 43.1915 27.4104 43.1915ZM27.4104 54.6231C23.5326 54.6231 20.377 51.5055 20.377 47.6731C20.377 43.842 23.5326 40.7244 27.4104 40.7244C31.2895 40.7244 34.4452 43.842 34.4452 47.6731C34.4452 51.5052 31.2892 54.6231 27.4104 54.6231Z" fill="#005494"/>
<path d="M48.3908 40.1547H15.1087C14.4184 40.1547 13.8593 39.6023 13.8593 38.9203C13.8593 38.2384 14.4184 37.686 15.1087 37.686H47.1414V19.4353C47.1414 18.7533 47.7006 18.2009 48.3908 18.2009C49.0811 18.2009 49.6403 18.7533 49.6403 19.4353V38.9201C49.6403 39.6023 49.0811 40.1547 48.3908 40.1547Z" fill="#005494"/>
<path d="M48.3909 21.3617C47.7006 21.3617 47.1414 20.8107 47.1414 20.1274V14.5426H9.39664C8.70636 14.5426 8.14722 13.9916 8.14722 13.3099C8.14722 12.6279 8.70636 12.0755 9.39664 12.0755H48.3909C49.0812 12.0755 49.6403 12.6279 49.6403 13.3099V20.1276C49.6403 20.8107 49.0812 21.3617 48.3909 21.3617Z" fill="#005494"/>
<path d="M17.4603 40.1548H15.1087C14.4184 40.1548 13.8593 39.6023 13.8593 38.9204C13.8593 38.2384 14.4184 37.686 15.1087 37.686H17.4603C18.1506 37.686 18.7098 38.2384 18.7098 38.9204C18.7098 39.6023 18.1506 40.1548 17.4603 40.1548Z" fill="#005494"/>
<path d="M22.0829 21.0742H4.2883C3.59801 21.0742 3.04053 20.5231 3.04053 19.8414C3.04053 19.1597 3.59829 18.6071 4.2883 18.6071H22.0829C22.7732 18.6071 23.3324 19.1595 23.3324 19.8414C23.3324 20.5234 22.7732 21.0742 22.0829 21.0742Z" fill="#005494"/>
<path d="M19.2285 27.6853H7.73105C7.04076 27.6853 6.48328 27.1342 6.48328 26.4525C6.48328 25.7706 7.04104 25.2182 7.73105 25.2182H19.2285C19.9188 25.2182 20.4779 25.7706 20.4779 26.4525C20.4776 27.1345 19.9188 27.6853 19.2285 27.6853Z" fill="#005494"/>
<path d="M25.671 34.5829H1.65299C0.962705 34.5829 0.403564 34.0318 0.403564 33.3485C0.403564 32.6665 0.962705 32.1141 1.65299 32.1141H25.671C26.3613 32.1141 26.9204 32.6665 26.9204 33.3485C26.9204 34.0318 26.3613 34.5829 25.671 34.5829Z" fill="#005494"/>
<path d="M15.1086 44.5423H6.55936C5.86908 44.5423 5.30994 43.9913 5.30994 43.3096C5.30994 42.6263 5.86908 42.0752 6.55936 42.0752H15.1086C15.7989 42.0752 16.3581 42.6263 16.3581 43.3096C16.3581 43.9916 15.7989 44.5423 15.1086 44.5423Z" fill="#005494"/>
</svg>
